<svg id="Layer_1" data-name="Layer 1" xmlns="http://www.w3.org/2000/svg" xmlns:xlink="http://www.w3.org/1999/xlink" viewBox="0 0 1200 600"><defs><style>.cls-1{fill:none;}.cls-2{clip-path:url(#clip-path);}.cls-3{fill:#efefef;}.cls-4{fill:#5822cc;}.cls-5{fill:#8a72f7;}.cls-6{fill:#4e008e;}.cls-7{fill:#a693f0;}</style><clipPath id="clip-path"><rect class="cls-1" width="1200" height="600"/></clipPath></defs><title>Home2</title><g class="cls-2"><rect class="cls-3" x="-21.06" y="-10.79" width="1231.27" height="637.55"/><polygon class="cls-4" points="-218.32 602.47 361.91 602.47 362.08 600.47 360.38 597.16 355.58 585.97 353.42 579.34 346.53 556.97 341.02 540.3 337.24 531.67 331.93 522.19 328.85 517.4 326.06 513.95 322.41 509.88 315.04 504.01 310.77 500.93 304.76 498.18 298.2 496.14 291.28 494.07 278.15 491.9 268.75 489.95 259.39 487.55 252.5 483.67 241.07 475.41 231.63 471.7 223.19 469 208.23 465.72 206.26 465.85 195.86 456.86 189.83 452.79 185 450.46 178.34 448.56 170.88 441.92 165.46 438.88 161.84 437.84 155.87 433.8 153.13 433.25 148.72 423.69 146.39 420.47 145.09 445.07 144.3 451.63 139.25 459.14 135.02 462.5 128.47 466.05 121.11 470.48 113.69 478.26 109.42 485.64 106.62 492.63 104.15 502.01 104.31 506.85 100.58 513.02 95.69 517.97 85.19 526.16 76.2 536.08 64.21 553.23 50.67 570.39 46.44 569.7 39.38 558.97 34.72 548.15 26.92 533.62 11.86 513.83 7.51 506.33 9.01 497.31 11.52 491.34 12.5 485.43 11 479.86 6.89 473.69 0.69 466.42 -4.61 456.89 -6.26 451.34 -7.29 443.53 -7.8 432.48 -8.59 421.66 -13.91 423.13 -31.97 431.43 -49.49 446.56 -55.79 453.35 -58.48 455.81 -59.48 455.71 -78.53 466.42 -107.02 482.54 -120.66 486.47 -147.28 493.9 -163.86 503.31 -166.58 506.36 -180.55 516.59 -193.15 529.88 -199.99 539.67 -208.19 555.1 -215.35 572.16 -217.19 583.84 -218.32 602.47"/><polygon class="cls-5" points="108.4 602.47 117.32 564.9 126.35 525.75 129.21 509.74 132.3 492.68 139.5 470.36 139.25 459.14 143.07 453.94 144.62 449.58 145.81 432.13 146.27 422.94 146.31 421.6 147.22 421.77 147.93 422.56 151.06 428.89 152.76 432.67 155.17 433.56 160.98 436.66 162.51 438.49 164.03 438.28 170.33 441.13 174.71 445.17 178.34 448.56 183.66 450.02 194.64 456.14 202.81 462.54 212.52 471.39 222.76 483.1 230.17 494.33 241.92 514.27 264.42 557.8 277.47 584.89 287.13 606.55 108.4 602.47"/><path class="cls-6" d="M-60.25,232c-2.16-6.86-1-15.56.37-22.45a99.54,99.54,0,0,1,8-23.84,187.42,187.42,0,0,1,12-21.18c4.74-7.36,9.52-15,15.47-21.41C-4.91,122.05,26,116.26,53.52,116.47c6.79,0,13.86.53,20.3,2.85,4.88,1.76,7.57,4.64,10.93,8.34a.38.38,0,0,0,.53,0c9.51-9.6,25.48,2,34.65,7,5.11,2.8,10.29,5.62,15.18,8.81,5.84,3.81,9,8.58,13.07,14.12,6.53,9,14.44,16.24,17.83,27.15,2,6.26,3.15,12.46,5.46,18.61.16.45.89.25.72-.2-3.16-8.42-4.23-17.62-8.25-25.68-2.67-5.35-6.62-9.83-10.42-14.38-4.47-5.35-7.88-12-13.14-16.66-4.7-4.14-10.54-7.07-16-10.13-6.92-3.9-14-8.06-21.39-11-3.93-1.58-8.2-2.64-12.41-1.56-1.84.47-3.26,2-4.92,2.5-2,.59.5.9-1.35-.06-.9-.47-1.73-2-2.45-2.69-5.29-5.39-13.52-6.74-20.76-7.37-10.75-.94-21.67,0-32.33,1.51C4,121.06-17.6,131.18-32.32,152c-9,12.78-17.73,26.25-23.45,40.86-4.44,11.37-9,27.21-5.21,39.33.15.46.87.26.73-.2Z"/><path class="cls-6" d="M165.65,263.74c1.1-1.2,3-3.46,4.43-4l7.47.74a7.42,7.42,0,0,1,2.18,3.56c1.42,3.48,1.44,7.58,1.65,11.29a195.09,195.09,0,0,1-.17,21.22c-.69,13.67-.42,27.94-3.33,41.35-.1.47.63.67.73.2,1.87-8.66,1.93-17.28,2.43-26.08.59-10.3,1.45-20.59,1.29-30.91-.09-6.09.81-16.49-4.25-21.16-4.63-4.27-9.52-.51-13,3.22-.33.35.2.88.53.53Z"/><path class="cls-6" d="M-57.23,284.8l3,4.37,4.75,1.87,6.43,1.18,5.9-.82,4.48-2.89,4.33-3.71,4.17-4.87,3.07-5.38,3.31-9.83,1.64-6.82,1.92-17.33L-13,227l1.13-11.05,1.47-6.21,2.92-9.14,3.93-6.46L2,188.37l4.71-2.85.78-2.14,13.81-9.28L32,168.46l1.45-.76s18.21-3.93,17.91,1.58-9.7,11.22,4.18,9.15l13.1-1.13,11.8.11L92.74,180l13.34,6.05,5.6,2.45,3.9,1.93s-6.94-.44-4.19,1.48l1.4,1.3,4.58,4.6,2,2.31-1.7,5-.53,2.62,1.11,4L122.8,220l8,11.38,4,4.23.85.86,6,3.87,5,1.11-.61,4,2.19,0,1.81.23,4.58-2.6,1.23,0v1.43L154.07,248l-4.57,4.89L148.21,255l-.05,6.64,1.34,5.22.73,2.66,2.16,5.22,2.65,3.44,1.41,1.19,3.82,1,2.55.28,1.08-1.47L165,270V261.8l.43.94.7-.34,3-1.51,4.56-1,3.07,1.4,4.38,4.65.72,5.36.56,9,2-3.64,1.13-10.05v-8.47l-.93-6.4-1-6.93-1.57-6.5-3.1-12.05-1.72-3.45-.46-7.71-.82-4.6-3.22-6.06L171,200.1,167,187.83l-2.36-9.3L161,173.09l-8.68-11.39-5.71-7.1L140,146.15l-10-6.7L117.15,132l-9.4-4.72L101,124.49l-6.2-1.23-3.82.72L88,125.05l-1.26,1.31-2.43.26-5.56-5.38-5.3-2.16L67,116.91l-7.82-.82H45.54L29.11,117.9l-9.71,1.6L2.43,125l-8.56,4-6.3,4-11.38,9-6.83,8.81L-39.9,164l-8.49,14.12-8.34,17.38-4,16.41-1.41,11.84L-61,227.7l.35,5.81L-62.88,237l-1.67,5.56v11.27L-62,271.5l1.87,8.37Z"/><path class="cls-6" d="M165.3,200.46l1.91.71c3.53,1.29,4.19,1.81,5.94,4.89a29.41,29.41,0,0,1,3.6,13.25c.26,7-3.76,12.95-3.57,19.75.1,3.31,1.45,5.9-.25,9.2a17.89,17.89,0,0,1-3,3.76c-1.73,1.86-3.71,3.56-4.76,5.92-1.17,2.63-1,5.47-.86,8.28.11,1.65.34,3.31.31,5-.09,4.45-3.89,12-9.31,7.55-.37-.31-.9.22-.53.53,5,4.06,9.95-1.35,10.51-6.42.76-6.94-1.94-12.56,3.39-18.48,2.25-2.5,5.06-4.66,5.78-8.13.51-2.43-.35-4.87-.43-7.28-.13-3.53,1.1-6.25,2.13-9.54a30.56,30.56,0,0,0,1.07-13.27,29.39,29.39,0,0,0-4.64-12.47c-2.24-3.29-3.78-2.67-7.08-4-.45-.17-.65.55-.2.73Z"/><path class="cls-6" d="M136.23,233.17a10.92,10.92,0,0,0,10.85-.45c.36-.21.13-.83-.29-.69-5,1.69-10.69,3.17-15.22-.75-2.7-2.33-4.44-5.63-6.24-8.65-1.94-3.25-4.87-6.74-6.13-10.29s1.79,1.72,2.39,2.4c6.66,7.57,19.76,8,28.1,3.14a.37.37,0,0,0-.37-.64c-9.85,5.75-25.62,3.67-30-7.94-.09-.24-.43-.41-.63-.17-1.87,2.3.67,4.91,1.92,7,2.68,4.5,5.09,9.46,8.43,13.52a12.51,12.51,0,0,0,7.61,4.84,16,16,0,0,0,7-.68c.86-.27,2.54-.53.72-.58-3.31-.09-4.48.82-7.72-.73-.44-.21-.82.44-.38.65Z"/><path class="cls-6" d="M150.18,267.78a51.79,51.79,0,0,1-2.05-8.11c-.3-2.44-.89-5.17,1.25-7.09.47-.43,1.2-.69,1.72-1.08a14.61,14.61,0,0,0,5.72-9.67c0-.25-.17-.57-.47-.46a25,25,0,0,0-4.56,2.77c-.88.57-3.13,2.07-4.12,1.69-3.1-1.2-.65-3.73.2-5.16a.38.38,0,0,0-.32-.57A14.48,14.48,0,0,1,136,236c-.34-.33-.88.2-.53.53a15.44,15.44,0,0,0,6.28,3.85c.92.28,2.06.25,3,.57,1.11-.43,1.68-.14,1.69.86l-1.76,3a.39.39,0,0,0,.06.46,4.66,4.66,0,0,0,5.34.87c1.5-.57,2.86-2.57,4.32-2.89,3.7-.84-1.19,5.51-2.12,6.39-2,1.9-5.09,2.52-5.53,5.51-.56,3.78,1.76,9.32,2.8,12.88a.38.38,0,0,0,.73-.2Z"/><path class="cls-6" d="M142.56,204.67C130,210.74,121.09,200.6,112.43,193c-.37-.32-.9.21-.54.53,9,8,18.13,18.09,31.05,11.83.43-.21.05-.85-.38-.64Z"/><path class="cls-6" d="M119.83,190.72c-6.26-1.18-11.53-4.47-17.18-7.21A69.72,69.72,0,0,0,87,178.13a71.58,71.58,0,0,0-32,.52.38.38,0,0,0,.2.73,70.43,70.43,0,0,1,35,.29c10.29,2.76,19,9.8,29.45,11.77.47.09.67-.63.2-.72Z"/><path class="cls-6" d="M77.41,168.68c10.42-2.82,12.25-14.57,1.13-17.87-12.82-3.8-27.91.14-39,6.89-.42.25,0,.9.37.65a53.72,53.72,0,0,1,26-8,38.79,38.79,0,0,1,12.48,1.17c3,.91,6.16,2.49,7.17,5.78,1.81,5.87-3.78,9.43-8.3,10.65a.37.37,0,0,0,.2.72Z"/><path class="cls-6" d="M87.5,156.23c4-6.59-.24-14.11-5.77-18.3C75.25,133,66.81,131.6,58.86,132c-19.54,1-38.49,11.38-52.34,24.74-.35.34.19.87.53.53,11.86-11.45,26.82-20,43.05-23.37,7.54-1.56,15.67-1.9,23.08.5,8.19,2.64,19.56,11.76,13.67,21.45-.25.41.4.79.65.38Z"/><path class="cls-6" d="M38.65,145.26c-7.93,5.43-16.87,9.4-24.34,15.5C6.18,167.41,1.9,176.55-2.11,186c-.19.44.46.83.64.38,4.09-9.65,8.49-18.89,16.88-25.55,7.32-5.8,15.93-9.68,23.62-14.94.4-.27,0-.92-.38-.65Z"/><path class="cls-6" d="M33.6,166.91A199.62,199.62,0,0,0,7,182.84c-.4.27,0,.93.37.65A201.4,201.4,0,0,1,34,167.55c.44-.21.06-.86-.37-.64Z"/><path class="cls-6" d="M5.93,185.32c-21.13,12.19-18.8,39.32-21,60.16-1.37,13-4,28.88-12.88,39a21.61,21.61,0,0,1-16.26,7.78c-8.68,0-13.52-6.23-15.65-14a136.79,136.79,0,0,1-3.39-19.39c-.93-7.46-2.71-16.89,1.33-23.75,2.76-4.69,7.81-7.29,11.29-11.33,3.65-4.23,5-9.62,6.72-14.79,7.94-23.93,20.78-49.23,38.85-67.18,11.09-11,27.54-14.73,42.48-17.33a162.43,162.43,0,0,1,24-2.35c8.72-.2,20.16.43,22.87,10.65a.37.37,0,0,0,.72-.19c-3.24-12.26-18.24-11.55-28.24-11-15.24.79-30.83,3.52-45.15,8.88C-1,135.2-9.24,144.49-17,155.16a194.37,194.37,0,0,0-21.76,38.22c-2.72,6.35-5,12.85-7.13,19.41-1.33,4.05-2.86,7.81-5.74,11-2.14,2.38-4.81,4.22-7.12,6.42-9.75,9.29-6,24.43-4.15,36.28,1.64,10.28,3.43,24.32,16,26.33,10.38,1.66,19.16-5.42,23.84-14.07,7.53-13.88,8.82-30.72,9.73-46.17,1-17.11,3.26-37.14,19.71-46.63a.38.38,0,0,0-.38-.65Z"/><path class="cls-6" d="M161,332.15c-.44,3.79-.7,19,7,15.51.44-.2.06-.85-.38-.65-6.54,3-6.29-11.44-5.89-14.86.05-.48-.7-.47-.75,0Z"/><path class="cls-6" d="M163.74,276.21c-.59,4.33.24,9.19,4.76,11,.45.17.64-.55.2-.73-4.11-1.6-4.77-6.16-4.23-10,.06-.47-.66-.67-.73-.2Z"/><path class="cls-6" d="M167.74,269.46c2-1.91,6.1-8.17,9.54-1.67.88,1.65-.11,5.84-.19,7.68a52.41,52.41,0,0,0,1.1,12.69c1.88,10-1.26,19.83-.89,29.86,0,.48.77.48.75,0-.27-7.17,1.34-14.14,1.57-21.28s-2.11-14-1.78-21.27c.13-2.84,1.73-9.57-1.67-11.4-3.65-2-6.91,2.87-9,4.86-.35.34.18.87.53.53Z"/><path class="cls-6" d="M172,294.31a26,26,0,0,1-1.81,20.11c-.76,1.45-1.44,3-2.16,4.4-.29.59-1.74,3.43-2.3,3.22-.76-.3-.05-5.45,0-6.11.5-4.11,1.67-8.43-.06-12.42-1.15-2.64-3.1-4.18-3.25-7.39-.12-2.5.94-5,.84-7.52,0-.48-.77-.48-.75,0,.14,3.54-1.57,6.93-.28,10.39,1.43,3.83,3.76,6.06,3.57,10.59-.08,2.13-3.21,13.49.46,14.52,1.24.35,1.12-.18,1.8-.91.26-.28.23-1.53.34-1.88a52.65,52.65,0,0,1,3.15-7.95,26.42,26.42,0,0,0,1.14-19.25.37.37,0,0,0-.72.2Z"/><path class="cls-5" d="M168.35,334.14a3.72,3.72,0,0,1,3.69-1.66A7,7,0,0,1,177.4,337a15.93,15.93,0,0,1,.75,7.24,11.57,11.57,0,0,1-.81,3.91,4.76,4.76,0,0,1-2.81,2.7,6,6,0,0,1-3.86-.46,4.74,4.74,0,0,1-1.92-1.2,5,5,0,0,1-.91-1.83,28.58,28.58,0,0,1-1.42-8.9,7.76,7.76,0,0,1,.4-2.84,3.19,3.19,0,0,1,2-2"/><path class="cls-6" d="M168.67,334.33c3-3.95,7.8.55,8.76,3.89a14.8,14.8,0,0,1-.75,9.92c-1.81,3.42-6.63,2.58-8.48-.91a12,12,0,0,1-.82-3.12c-.55-2.67-1.68-8.52,1.62-10.16.43-.22.05-.86-.38-.65-4.45,2.22-2.48,9.83-1.33,13.51,1.2,3.86,6.45,6.45,9.51,2.85s2.56-11.18-.12-14.72c-2.11-2.79-6.28-4.12-8.66-1-.29.39.36.76.65.38Z"/><path class="cls-6" d="M-42.53,293.34c-5.27,9.19-1.66,20.66,0,30.38,2.21,12.77,4.12,25.65,7,38.29,4.92,21.62,14.79,41.09,32.75,54.71,9.14,6.94,19.6,11.32,30.34,15.16s22.16,7.51,33.73,6.18c13.17-1.51,26-8.82,38.11-13.89,10.38-4.36,21.6-7.81,29.83-15.82,8.41-8.2,17.28-17,23.88-26.8A44.94,44.94,0,0,0,160,366.48c1.53-6.73.5-13.76,3.15-20.26.18-.45-.54-.64-.72-.2-1.86,4.54-1.89,9-2.28,13.85a41.61,41.61,0,0,1-5.28,17.44c-4.84,8.55-11.92,15.58-18.65,22.64-3.48,3.65-6.8,7.56-10.72,10.77-5.35,4.39-12,6.7-18.26,9.35-10.64,4.47-21.21,9.17-31.95,13.37-12.49,4.88-24.31,4.87-37.14,1.15-10.66-3.08-21.6-7-31.28-12.42-19.29-10.88-32.59-28.94-39-50-3.69-12.19-5.58-24.85-7.75-37.37q-1.65-9.43-3.28-18.86c-1.3-7.5-2.79-15.3,1.21-22.26a.38.38,0,0,0-.65-.38Z"/><path class="cls-6" d="M147.7,387l-2.43,48.28c-.38,7.6.25,16.86-5.4,22.8-4.52,4.75-11.59,6.59-16.82,10.44a48.78,48.78,0,0,0-18,26.64,40.67,40.67,0,0,0-1.3,7.36c-.16,2.29.35,4.22-.51,6.35a17.24,17.24,0,0,1-2.39,3.34c-4.07,4.83-9.57,8.13-14.28,12.25-11.08,9.7-19,23.63-27.62,35.45l-5.77,7.94c-1.41,1.94-2,4.37-5.08,3-1-.47-2.17-2.15-2.87-3-4.52-5.45-7-12.27-9.7-18.71-4.76-11.3-11.79-20.71-19.32-30.27-2.4-3-5.22-6.06-7-9.48-2.6-4.86-1-9.06,1-13.69s3.59-8.82,2.08-13.71S7,473.25,3.8,469.52c-5.31-6.13-8.8-12.37-10.09-20.46-2.19-13.76.39-28.17-5.88-41.1-.21-.43-.86,0-.65.38,7.37,15.2,2.18,32.58,7.56,48.21C-3,463.23,1.65,467.94,6,473.26c3,3.6,6,7.65,6.1,12.53.11,4.16-2,7.84-3.55,11.57-3,7.4-.81,11.77,3.88,17.89,5.31,6.92,11,13.56,15.68,21,7.53,12,9.83,28.06,21.68,36.89a.38.38,0,0,0,.51-.14L66.5,550.72c5.28-7.27,10.27-15,16.35-21.62,4.66-5.09,10.51-8.68,15.54-13.34,2.48-2.3,8-7.38,6.72-11.16a.39.39,0,0,0-.36-.27c-.72-.1-.68-.08-1.23.42a.36.36,0,0,0-.09.36l.13.42a.38.38,0,0,0,.74-.1,48,48,0,0,1,13.14-31,48.48,48.48,0,0,1,13.05-9.59c3.94-2,8.19-3.93,11-7.52,6-7.73,4.47-20.69,4.93-29.81l2-40.56c0-.49-.72-.48-.75,0Z"/><path class="cls-6" d="M-5.88,453.71c.59,14.49,2.35,29.48,1.35,44-.44,6.22-2.11,12.29-.68,18.5A35.89,35.89,0,0,0,2.2,530.41c3.88,4.82,8.54,8.9,12.91,13.24,4.58,4.54,8.77,9.44,13.16,14.15a94.9,94.9,0,0,0,11.64,11c3.2,2.45,7.5,6.28,11.83,5.28.47-.11.27-.84-.2-.73C45.84,574.63,38,566.44,34.39,563s-7-7.29-10.45-11.05c-7.49-8.28-16.8-15.47-23.18-24.67-3.71-5.35-6.1-11.42-5.82-18,.24-5.66,1.44-11.14,1.42-16.84,0-12.89-1-25.82-1.49-38.7,0-.48-.77-.48-.75,0Z"/><path class="cls-6" d="M50.86,573.08c13.42-6.42,24.47-18,35.69-27.49l38.93-33.09c.37-.31-.16-.84-.53-.53L87.52,543.79c-11.64,9.88-23.14,22-37,28.65-.43.2,0,.85.38.64Z"/><path class="cls-6" d="M162,351.35a57.35,57.35,0,0,1,11.67,19.06c1,2.84,1.64,5.77,2.54,8.64.86,2.72,2.42,5,3.46,7.59,3.07,7.72-2.06,20-9.41,24.15-6.69,3.8-15.41,4.33-22.9,3.75-.48,0-.47.71,0,.75,7.58.59,16.52,0,23.27-3.86,5.69-3.28,10.38-11.72,11-18.17.33-3.32-.73-5.59-2.12-8.49-2.19-4.53-3.23-9-4.86-13.77a58.36,58.36,0,0,0-12.15-20.18c-.33-.36-.86.17-.53.53Z"/><path class="cls-6" d="M147.16,422.21c23.29,42.73,26.06,92.23,30,139.71,0,.48.79.48.75,0-3.95-47.61-6.76-97.24-30.1-140.08-.23-.43-.88,0-.65.37Z"/><path class="cls-6" d="M153.52,433.61c11.15,3.3,15.35,14.41,18.48,24.5q4.75,15.39,9.45,30.78c.14.46.87.27.72-.19-3.79-12.36-7.09-25-11.55-37.14-3.05-8.31-8-16-16.9-18.67a.37.37,0,0,0-.2.72Z"/><path class="cls-6" d="M163.2,438.37c20.54,8,27,30.45,34,49.19,7.23,19.41,17.11,37.64,27,55.8.23.42.87,0,.64-.38C213.5,522.15,203,501.32,194.9,479c-6-16.62-13.87-34.48-31.5-41.33-.45-.18-.65.55-.2.72Z"/><path class="cls-6" d="M252.64,581c-3.63-9.72-7.26-19.44-10.36-29.34-2.8-9-4.57-18.36-8.18-27.06-3.84-9.23-9.75-17.55-15.07-26q-9-14.25-18-28.51c-.25-.4-.9,0-.64.38l17,26.83c5.35,8.45,11.31,16.8,15.41,26,4.19,9.38,6,19.7,9.11,29.46,3,9.59,6.56,19,10.08,28.43.17.45.89.26.72-.19Z"/><path class="cls-6" d="M177.74,448.29c13.13,3.34,24.57,14,34.23,23.1,10.2,9.59,17.32,21.87,24.35,33.86,14.33,24.43,26.55,50,38.75,75.56.21.43.86.05.65-.38-13-27.24-26.07-54.53-41.64-80.43-7.1-11.79-14.39-22.93-24.81-32.07-9.19-8.07-19.21-17.28-31.33-20.36a.37.37,0,0,0-.2.72Z"/><path class="cls-6" d="M143.93,455.87c1,49.63,2,99.28,6.39,148.74,0,.48.79.48.75,0-4.42-49.46-5.43-99.11-6.39-148.74a.38.38,0,0,0-.75,0Z"/><path class="cls-6" d="M138,475.36c-7.22,14.12-8.33,30.34-11.18,45.71Q122.1,546.75,115,571.9a.37.37,0,0,0,.72.2c4.52-16.14,8.39-32.46,11.49-48.93,3-15.87,4-32.84,11.46-47.43.22-.43-.43-.81-.65-.38Z"/><path class="cls-6" d="M362.23,601c-13.86-26.7-15.4-58.74-33.4-83.45a59.93,59.93,0,0,0-30.49-22.15c-14.32-4.64-31-3.27-44.39-10.63-7-3.88-11.54-10.09-19.42-12.58-9.24-2.93-18.91-4.82-28.3-7.15a.38.38,0,0,0-.2.73c8.12,2,16.28,3.95,24.38,6a37.89,37.89,0,0,1,10.47,4c3.39,2.08,6.06,5.13,9.26,7.46,10.86,7.94,25.2,7.67,37.87,10.27,15.43,3.17,29,10,38.79,22.61,8.88,11.4,14.1,25.08,18.34,38.76,4.86,15.74,8.81,31.81,16.44,46.51.22.43.87,0,.65-.38Z"/><path class="cls-6" d="M282.18,507.44a291,291,0,0,0,9.25,79,.37.37,0,0,0,.72-.2,290.27,290.27,0,0,1-9.22-78.78.38.38,0,0,0-.75,0Z"/><path class="cls-6" d="M178.11,224.79c2.72,10.81,5.44,21.7,6.39,32.84.7,8.34.85,16.76-2.85,24.36-.21.43.43.81.65.38,3.53-7.26,3.62-14.76,3.09-22.84-.78-11.86-3.67-23.45-6.56-34.94-.11-.47-.84-.27-.72.2Z"/><polygon class="cls-6" points="149.26 386.17 147.96 389.27 148.08 393.67 147.32 408.63 146.72 413.89 148.72 415.13 153.38 415.13 159.91 414.44 164.94 413.29 171.15 410.66 175.2 406.77 178.13 401.76 180.44 396.61 181.34 388.75 178.77 384.22 175.28 374.31 171.13 363.73 166.42 356.13 161.4 350.61 161.12 355.77 159.42 367.39 156.83 374.43 152.62 381.66 149.26 386.17"/><polyline class="cls-7" points="1088.67 507.97 1090.17 498.95 1092.68 492.98 1093.66 487.07 1092.17 481.5 1088.05 475.33 1081.85 468.06 1076.56 458.54 1074.9 452.98 1073.87 445.17 1073.36 434.12 1072.58 423.3 1067.25 424.77 1049.19 433.07 1031.67 448.2 1025.37 454.99 1022.68 457.45 1021.68 457.35 1002.63 468.06 974.14 484.18 960.51 488.11 933.88 495.55 917.3 504.95 914.59 508 900.61 518.23 888.01 531.52 881.17 541.32 872.97 556.74 865.82 573.8 863.98 585.48 862.84 604.12 1443.07 604.12 1443.24 602.11 1441.54 598.8 1436.75 587.61 1434.58 580.98 1427.69 558.61 1422.18 541.94 1418.41 533.31 1413.09 523.83 1410.01 519.04 1407.22 515.59 1403.58 511.52 1396.2 505.65 1391.93 502.57 1385.92 499.82 1379.36 497.78 1372.44 495.71 1359.32 493.54 1349.91 491.59 1340.55 489.19 1333.66 485.31 1322.23 477.05 1312.8 473.34 1304.36 470.64 1289.4 467.36 1287.43 467.49 1277.03 458.5 1270.99 454.43 1266.17 452.1 1259.51 450.2 1252.05 443.56 1246.63 440.52 1243 439.48 1237.03 435.44 1234.3 434.89 1229.88 425.33 1227.56 422.11 1226.26 446.71 1225.46 453.27 1220.41 460.79 1216.18 464.15 1209.63 467.69 1202.27 472.12 1194.85 479.9 1190.59 487.28 1187.78 494.27 1185.31 503.65 1185.47 508.49"/><path class="cls-6" d="M1020.91,233.65c-2.16-6.86-.95-15.56.37-22.45a99.54,99.54,0,0,1,8-23.84,187.42,187.42,0,0,1,12-21.18c4.74-7.36,9.52-15,15.47-21.41,19.42-21.08,50.32-26.87,77.85-26.66,6.79,0,13.86.53,20.3,2.85,4.88,1.76,7.57,4.64,10.93,8.34a.39.39,0,0,0,.54,0c9.5-9.6,25.47,2,34.64,7,5.11,2.8,10.29,5.62,15.18,8.81,5.84,3.81,9,8.58,13.07,14.12,6.53,9,14.44,16.24,17.83,27.15,1.95,6.26,3.15,12.46,5.46,18.61.17.45.89.25.72-.2-3.16-8.42-4.22-17.62-8.25-25.68-2.67-5.35-6.61-9.83-10.42-14.38-4.47-5.35-7.87-12-13.14-16.66-4.7-4.14-10.54-7.07-16-10.13-6.92-3.9-14-8.06-21.38-11-3.93-1.58-8.21-2.64-12.42-1.56-1.84.47-3.26,2-4.92,2.5-1.95.59.5.9-1.35-.06-.9-.47-1.72-2-2.44-2.69-5.3-5.39-13.53-6.74-20.77-7.37-10.75-.94-21.67,0-32.32,1.51-24.84,3.5-46.41,13.62-61.14,34.46-9,12.78-17.73,26.25-23.44,40.86-4.45,11.37-9,27.21-5.21,39.33.14.46.87.26.72-.2Z"/><path class="cls-6" d="M1023.93,286.45l3,4.36,4.75,1.87,6.43,1.18L1044,293l4.47-2.89,4.33-3.7,4.17-4.88,3.07-5.38,3.31-9.82,1.64-6.83,1.93-17.33,1.29-13.58,1.13-11,1.48-6.2,2.92-9.15,3.93-6.46,5.52-5.75,4.72-2.86.77-2.14,13.82-9.28,10.73-5.64,1.44-.75s18.21-3.94,17.91,1.57c-.26,5,27.2.16,20.67,1.74a1.27,1.27,0,0,0-.33,2.34l3.31,1.84,5.43,2.21,12.26,2.6,13.34,6,5.6,2.45,3.9,1.93s-6.94-.44-4.18,1.48l1.39,1.3,4.58,4.6,2,2.31-1.71,4.95-.52,2.62,1.1,4,4.54,8.34,8,11.38,4,4.24.85.85,6,3.87,5,1.12-.61,4,2.19-.05,1.81.23,4.59-2.6,1.23.05v1.43l-1.82,3.43-4.56,4.89-1.3,2.11,0,6.64,1.35,5.22.72,2.66,2.16,5.22,2.65,3.44,1.42,1.19,3.81,1,2.55.29,1.08-1.48,1.06-9.16v-8.16l.43.93.71-.34,3-1.51,4.55-1,3.08,1.4,4.38,4.65.71,5.36.56,9,2-3.64,1.14-10.05V259.8l-.94-6.39-1-6.94-1.57-6.5-3.1-12.05-1.73-3.45-.46-7.71-.82-4.6-3.22-6.06-1.6-4.36-4.09-12.27-2.36-9.3-3.63-5.44-8.67-11.39-5.72-7.1-6.59-8.45-10-6.69-12.84-7.44-9.4-4.72-6.8-2.81-6.2-1.23-3.82.72-2.94,1.08-1.26,1.3-2.42.26-5.57-5.37-5.3-2.17-6.45-2.17-7.82-.82h-13.63l-16.44,1.81-9.71,1.6-17,5.49-8.56,4-6.3,4-11.37,9-6.84,8.81-9.26,13.19-8.48,14.12-8.34,17.38-4,16.41-1.41,11.84,1.08,3.94.35,5.81-2.22,3.44-1.67,5.56v11.27l2.51,17.72,1.87,8.37Z"/><path class="cls-6" d="M1217.39,234.81a10.94,10.94,0,0,0,10.86-.45c.35-.21.12-.83-.29-.69-5,1.69-10.7,3.17-15.23-.75-2.69-2.33-4.44-5.63-6.24-8.65-1.94-3.25-4.87-6.74-6.13-10.29s1.8,1.72,2.39,2.4c6.67,7.57,19.76,8,28.11,3.14a.37.37,0,0,0-.38-.64c-9.85,5.75-25.61,3.67-30-7.94-.09-.24-.43-.41-.63-.17-1.87,2.3.67,4.91,1.93,7,2.68,4.5,5.08,9.46,8.42,13.52a12.5,12.5,0,0,0,7.62,4.84,16.07,16.07,0,0,0,7-.68c.86-.27,2.53-.53.71-.58-3.31-.09-4.48.82-7.72-.73-.43-.21-.82.44-.38.65Z"/><path class="cls-6" d="M1223.72,206.31c-12.54,6.07-21.47-4.07-30.13-11.72-.36-.32-.89.21-.53.53,9,8,18.12,18.09,31,11.83.43-.21.05-.85-.38-.64Z"/><path class="cls-6" d="M1201,192.36c-6.24-1.1-11.58-4.43-17.18-7.21-.43-.21-.81.44-.38.65,5.66,2.81,11.06,6.17,17.36,7.28.48.09.68-.64.2-.72Z"/><path class="cls-6" d="M1158.58,170.32c10.41-2.82,12.25-14.57,1.13-17.87-12.83-3.8-27.92.14-39,6.89a.38.38,0,0,0,.38.65,53.66,53.66,0,0,1,26-8,38.82,38.82,0,0,1,12.48,1.17c3,.91,6.15,2.49,7.16,5.78,1.81,5.87-3.78,9.43-8.29,10.65a.37.37,0,0,0,.2.72Z"/><path class="cls-6" d="M1168.66,157.87c4-6.59-.24-14.11-5.76-18.3-6.49-4.92-14.92-6.33-22.88-5.93-19.54,1-38.49,11.38-52.33,24.74-.35.34.18.87.53.53,11.85-11.45,26.81-20,43-23.37,7.54-1.56,15.67-1.9,23.08.5,8.19,2.64,19.56,11.76,13.67,21.45-.25.41.4.79.65.38Z"/><path class="cls-6" d="M1119.82,146.9c-7.94,5.43-16.87,9.4-24.35,15.5-8.13,6.65-12.41,15.79-16.42,25.26-.19.44.46.83.65.38,4.08-9.65,8.48-18.89,16.88-25.54,7.32-5.8,15.93-9.69,23.62-14.95.39-.27,0-.92-.38-.65Z"/><path class="cls-6" d="M1114.76,168.55a199.62,199.62,0,0,0-26.63,15.93c-.39.28,0,.93.38.65a200.75,200.75,0,0,1,26.63-15.94c.43-.21,0-.86-.38-.64Z"/><path class="cls-6" d="M1087.09,187c-21.13,12.19-18.8,39.33-21,60.16-1.36,13-4,28.88-12.88,39a21.6,21.6,0,0,1-16.25,7.78c-8.69,0-13.53-6.23-15.66-14a138.23,138.23,0,0,1-3.39-19.39c-.92-7.46-2.7-16.88,1.33-23.75,2.77-4.69,7.81-7.29,11.3-11.33,3.64-4.23,5-9.61,6.71-14.79,7.94-23.93,20.78-49.23,38.85-67.18,11.09-11,27.54-14.73,42.49-17.33a162.16,162.16,0,0,1,24-2.35c8.72-.2,20.16.43,22.86,10.66a.38.38,0,0,0,.73-.2c-3.25-12.26-18.24-11.55-28.25-11-15.24.79-30.82,3.52-45.15,8.88-12.63,4.73-20.86,14-28.65,24.69A194.33,194.33,0,0,0,1042.38,195c-2.72,6.36-5,12.85-7.14,19.41-1.33,4-2.85,7.81-5.73,11-2.14,2.38-4.82,4.22-7.13,6.42-9.75,9.29-6,24.43-4.15,36.28,1.65,10.28,3.43,24.33,16,26.33,10.39,1.66,19.16-5.42,23.85-14.07,7.52-13.88,8.82-30.72,9.72-46.17,1-17.11,3.27-37.14,19.71-46.63a.38.38,0,0,0-.38-.65Z"/><path class="cls-5" d="M1029.1,340.25a2.93,2.93,0,0,1,2.33-.7,4.35,4.35,0,0,1,3.38,1.88,4.56,4.56,0,0,1,.48,3,3.66,3.66,0,0,1-.51,1.64,2.78,2.78,0,0,1-1.78,1.13,5.4,5.4,0,0,1-2.43-.19,3.64,3.64,0,0,1-1.22-.5,2,2,0,0,1-.57-.77,8.46,8.46,0,0,1-.9-3.73,2.3,2.3,0,0,1,.25-1.2,1.85,1.85,0,0,1,1.26-.82"/><path class="cls-6" d="M1029.36,340.51c1.28-1.17,3.6-.55,4.7.58s1.34,3.82.21,5.06-4.19.9-5.17-.56-1.59-4.62.39-5.2a.37.37,0,0,0-.2-.72c-2.55.75-1.89,3.88-1.07,5.78a4.31,4.31,0,0,0,6.21,1.56c1.7-1.28,1.71-4.54.46-6.12s-4.37-2.46-6.06-.91c-.35.33.18.86.53.53Z"/><path class="cls-6" d="M1038.63,295c-5.59,8.91-1.3,20.79.5,30.25,2.17,11.41,4,22.82,5.87,34.29,1.54,9.67,3.17,19.93,7.75,28.71,3.63,7,9.36,9.73,16.55,12a61.14,61.14,0,0,1,14.38,6.27c5.53,3.49,10.28,7.87,16,11.05a85.34,85.34,0,0,0,34.08,9.8c13.18.93,24.93-4.42,37-9l19.64-7.54c5.24-2,10.71-3.82,15.38-7,5-3.4,9.11-8,13.46-12.12a154.72,154.72,0,0,0,13.25-13.73,45.67,45.67,0,0,0,7.77-13.09c2.5-7,1-14.67,4-21.44.2-.43-.45-.82-.64-.38-1.73,3.87-2,7.77-2.27,12a36,36,0,0,1-5.85,17.55c-5.72,8.82-14,15.79-21.44,23.05-3.95,3.85-7.94,7.52-12.91,10-5.78,2.9-12.09,4.9-18.12,7.22-11.54,4.43-23.27,10.12-35.37,12.82-13,2.89-26.44-.47-38.75-4.75-11-3.84-18.77-12.22-29-17.34-6.94-3.48-15.89-4.18-21.84-9.39-6.95-6.1-9-17.12-10.79-25.77-2.14-10.7-3.32-21.56-5.36-32.28Q1040,326,1038.1,315.8c-1.31-6.92-2.8-14.1,1.18-20.44.26-.41-.39-.79-.65-.38Z"/><path class="cls-6" d="M1068.34,400c8.54,17.52,2.16,38.63,7.36,57,2.54,9,9.4,14.16,14.37,21.65,4.15,6.27,3.45,11.65.6,18.25-1.61,3.71-3,7.1-2.36,11.19a.38.38,0,0,0,.36.28l85,.12,12.32,0a.37.37,0,0,0,.36-.27c.3-1.21.34-.85,0-2a.4.4,0,0,0-.37-.27c-.72-.1-.68-.08-1.23.42a.36.36,0,0,0-.09.36l.13.42a.38.38,0,0,0,.74-.1,48,48,0,0,1,13.14-31,48.48,48.48,0,0,1,13.05-9.59c3.94-2,8.19-3.93,11-7.52,6-7.73,4.48-20.69,4.94-29.81l2-40.56c0-.48-.73-.48-.75,0-1,19.26-1.18,38.75-3,58-.5,5.34-1.77,10.48-6,14.17-3.49,3-8.06,4.6-12,6.94a47.28,47.28,0,0,0-14.13,13.07,48.39,48.39,0,0,0-8.36,19.62,21.67,21.67,0,0,0-.52,3.76c0,.57.12,4.52.95,3.62-.15.16-1.1-.05-1.31,0-2,.46-4.67,0-6.72,0l-10.55,0-57.41-.08-18.84,0a5.8,5.8,0,0,1-1.86,0c-1.32-.73.09-4.93.53-6.38,1.86-6.05,5.79-11.05,3.71-17.67-2.23-7.07-8.66-11.87-12.78-17.75-4.73-6.74-5.79-15.21-6.33-23.21-.94-14,1.07-30-5.29-43-.21-.43-.86-.05-.65.38Z"/><path class="cls-6" d="M1071.73,422.94a66,66,0,0,0-29.48,14.2c-5,4.21-9,9.27-13.37,14.09s-9.56,9.15-14.14,14c-.33.35.2.88.53.53,4.17-4.37,8.85-8.18,12.94-12.63s7.77-9.11,12.12-13.22a65.06,65.06,0,0,1,31.6-16.21c.47-.09.27-.82-.2-.72Z"/><path class="cls-6" d="M1022.5,456.57c-18.51,8.49-34.45,22-53.66,29-9.52,3.47-19.76,3.8-29.15,7.66-5,2.05-9.94,4.38-14.89,6.61-3.49,1.57-6.67,3.05-8.81,6.34-.26.41.39.78.65.38,3-4.62,9.17-6.36,14-8.51,5.24-2.35,10.47-4.95,16-6.47,9.12-2.49,18.16-3.33,27-7.11,17.31-7.41,32.15-19.43,49.25-27.28.44-.2.06-.84-.37-.64Z"/><path class="cls-6" d="M917.25,506c-15.73,9-28,22.6-37.32,38a166.9,166.9,0,0,0-11.71,23.72,74.55,74.55,0,0,0-5.52,33.06c0,.48.77.49.75,0a74.08,74.08,0,0,1,5.2-32.15,167.78,167.78,0,0,1,11.93-24.25c9.24-15.34,21.42-28.8,37-37.77a.38.38,0,0,0-.38-.65Z"/><path class="cls-6" d="M1089,507.65q-28.29.11-56.55,1.26c-8.59.35-17.88-.07-26.36,1.42-6.36,1.12-6.63,6.05-10.6,10.17-1.72,1.77-4.29,2.76-5.72,4.84s-1.25,4.58-1.17,7c.23,7.18,1,14.34,1.56,21.5,1.33,16.17,2.63,32.93-1.61,48.8a.38.38,0,0,0,.73.2c3.53-13.25,3.18-27.13,2.26-40.7-.47-7-1.16-14-1.68-21-.23-3.15-.44-6.31-.53-9.47-.09-3.42.91-6.17,3.67-8.29.69-.53,1.44-1,2.1-1.55a21.71,21.71,0,0,0,3.93-5.37c3.46-5.57,8.06-5.58,13.93-5.9q12.66-.69,25.33-1.16,25.35-.94,50.71-1a.38.38,0,0,0,0-.75Z"/><path class="cls-6" d="M1016.42,530.61c-2.6-.07-6,0-7.67,2.31a4.29,4.29,0,1,0,5.54-1.16c-.4-.27-.78.38-.38.64a3.62,3.62,0,0,1,.64,5.69,3.51,3.51,0,0,1-5.53-1.16c-2.08-4.79,4.24-5.66,7.4-5.57a.38.38,0,0,0,0-.75Z"/><path class="cls-6" d="M1011.49,578.69a2.49,2.49,0,0,1-1.63-4.08,3.26,3.26,0,0,1,4.14-.44c3.29,2.23.73,7.14-3,6.23-.46-.12-.66.61-.2.72a4.24,4.24,0,0,0,2.81-8,3.89,3.89,0,0,0-5,2,3.27,3.27,0,0,0,2.82,4.31c.49,0,.49-.72,0-.75Z"/><path class="cls-6" d="M1027.88,352.72l-6.94,7.17-5.94,7.86s-9.59,16.85,0,29.77c0,0,2.86,8.42,6.23,11.23s2.21,5.66,2.5,8,2.38,5.79,4.15,6.47,4-1.22,6.82.43,13.72,11.14,30.13,1.41l8.72-3-1.08-8.2-3.23-13-1.74-1.46-5.28-1.84-2.81-2-3.93-3.51-3-5.9-5.16-15.84L1044.09,351l-1.11-6-.59,2.3-1.92,2.18-1.71,2.52-2.49,1.95-2,.39h-2.89l-3.51-1.63"/><path class="cls-6" d="M1034.51,302.7c-2.45,1.84-2.55,4.85-2.46,7.72.08,2.31.54,4.6.6,6.9a9.7,9.7,0,0,1-1.57,6.51c-.61,1.06-1.15.6-1.48,1.88a2.29,2.29,0,0,0,0,1.67c.09.16.72.67.73.79l.85.16c1.88.23.85,1.7-3.12,4.42-2.51-1.41-3.24-6.78-3.61-9.37-.6-4.21-.84-9.9,2.6-13,.36-.32-.18-.85-.53-.53-4.58,4.14-3.56,12.71-1.88,18,.91,2.88,4,9.2,7.84,5.8a4.44,4.44,0,0,0,1.32-4.33c-.42-1.13-1-.76-1.45-1.58-1.49-2.65-.4-2.65.07-4.29a18.73,18.73,0,0,0,.9-7.13c-.28-3.75-2-10.26,1.57-12.95.38-.29,0-.94-.38-.65Z"/><path class="cls-6" d="M1042.62,343.37a13.19,13.19,0,0,1-6.63,9.53c-5.06,2.8-8.92-1.14-11.26-5.31-3.82-6.79-5.59-15.3-7-22.89-1.58-8.71-3.13-18.79-1.14-27.57.87-3.8,4.34-18.24,9.62-16.79a.37.37,0,0,0,.2-.72c-5.88-1.62-7.84,9.09-9.15,12.87-3.95,11.38-2,24.34.43,35.9,1.56,7.36,4,22.89,12.58,25.91,6.31,2.24,12.22-5.25,13-10.73.07-.48-.65-.68-.72-.2Z"/><path class="cls-6" d="M1028.24,293.12c-2-5.05-6.36-.67-7.6,2.52-3.46,8.86-.5,20.07,1,29.09.08.48.81.27.73-.2-.92-5.48-1.85-11-2.27-16.55a35.19,35.19,0,0,1,.17-7.54,18.53,18.53,0,0,1,1.11-4.53c.42-1,4-8.12,6.13-2.59.17.44.9.25.72-.2Z"/></g></svg>