<svg id="Layer_1" data-name="Layer 1" xmlns="http://www.w3.org/2000/svg" xmlns:xlink="http://www.w3.org/1999/xlink" viewBox="0 0 1200 600"><defs><style>.cls-1{fill:none;}.cls-2{clip-path:url(#clip-path);}.cls-3{fill:#4e008e;}.cls-4{fill:#8a72f7;}.cls-5{fill:#5822cc;}.cls-6{fill:#a693f0;}</style><clipPath id="clip-path"><rect class="cls-1" width="1200" height="598.59"/></clipPath></defs><title>Home2</title><g class="cls-2"><rect class="cls-3" x="-21.06" y="-10.79" width="1231.27" height="637.55"/><polygon class="cls-4" points="526.78 501.05 531.46 492.68 539.25 479.82 548.6 469.49 555.81 461.89 562.04 457.61 571.4 454.1 585.42 450.01 609.77 444.36 626.14 440.86 636.08 438.71 646.6 438.32 653.41 439.1 671.53 445 679.71 449.09 697.39 457.56 708.06 463.7 712.3 467.5 712.59 471.3 712.59 474.51 698.56 467.35 678.69 457.27 663.93 452.74 649.03 451.72 635.3 451.57 613.87 453.42 593.9 457.22 578.8 462.77 558.93 474.46 548.6 482.64 537.01 492.19 529.8 499.98 526.98 503.1 526.78 501.05"/><polygon class="cls-5" points="417 607.62 441.26 580.15 464.34 552.97 480.71 538.36 497.07 528.42 500.19 526.09 503.5 522.48 508.57 518.29 514.61 516.15 520.26 512.84 527.66 502.71 535.84 493.26 546.26 484.1 556.1 476.41 566.91 469.01 575.49 464.04 585.54 460.19 596.87 456.54 609.95 454.27 625.58 452.15 639.9 451.13 653.12 451.13 663.93 452.74 673.58 456.25 688.34 462.24 700.02 467.94 715.95 476.12 728.37 485.18 747.07 500.23 761.1 512.5 772.93 519.66 783.31 526.96 794.56 541.43 811.22 569.04 814.58 572.26 820.27 581.9 825.39 595.05 834.59 623.98 534.19 648.53 428.4 636.84 417 607.62"/><path class="cls-6" d="M455.52,225.92c-6.74,11.35-13.66,23-16,36.23a46.71,46.71,0,0,0-.05,16.59c1.23,6.53,7.27,14.75,3.26,21.16-3.84,6.16-15.58,8.82-14.65,17.62.57,5.43,5,11.13,8.25,15.25,3.94,5,10.56,9.28,11.64,15.9.13.79,1.33.45,1.2-.33-.78-4.83-4.12-7.88-7.39-11.26-4.48-4.62-9.23-10.35-11.44-16.5-4.26-11.86,11.11-13,14.5-22,1.74-4.63-.71-9.37-2.3-13.64a42,42,0,0,1-2.27-19.22c1.53-14.34,9.07-27,16.29-39.18a.63.63,0,0,0-1.08-.64Z"/><path class="cls-6" d="M441.91,339.08c-6.54,18.12.54,36.37,4.49,54.18a104.36,104.36,0,0,1,2.29,16.41c.26,4.12.43,8.32,1.92,12.22,2.32,6.1,7.39,10.54,13.09,13.46,6.81,3.49,14,4.64,21.58,4.74,9,.13,17.79-.11,25.41,5.4,12.45,9,20.13,25.14,24.43,39.47a.63.63,0,0,0,1.21-.33c-3.79-12.6-9.92-25.3-19-34.93-4.17-4.4-9.17-8.14-15.12-9.67-7.71-2-15.79-.67-23.63-1.49-8.43-.89-17.65-4.54-23.24-11.16-6.71-8-4.9-19.25-6.57-28.89-3.4-19.56-12.78-39.22-5.62-59.08.27-.75-.93-1.08-1.2-.33Z"/><path class="cls-6" d="M501.8,432.44c26.23-3.81,49.4-15.88,74.57-23.3,11.25-3.32,21-5.76,26-17.38,2.66-6.14,4-12.59,6.93-18.67,2.6-5.42,5.18-10.69,5.77-16.75.08-.8-1.17-.79-1.25,0-.68,6.93-4.16,12.83-7,19.05-2.17,4.76-3.2,9.82-5.1,14.66a24.48,24.48,0,0,1-15.6,15c-6,2.12-12.34,3.5-18.41,5.54-22.17,7.44-42.92,17.29-66.29,20.68-.79.12-.46,1.32.33,1.21Z"/><path class="cls-6" d="M446.29,260.35c7-3.52,13.92,1.67,12.94,9.23-.52,4-2.6,8.12-4.33,11.78a75.82,75.82,0,0,1-11.63,18.3c-.53.6.35,1.49.89.89a72.14,72.14,0,0,0,9.66-14.24c2.64-5,5.8-10.85,6.76-16.46,1.5-8.79-7.35-14.39-14.92-10.58-.72.37-.09,1.45.63,1.08Z"/><path class="cls-6" d="M628,302.25c4.64,6.11-9.77,14-10.41,20.2-.19,1.84,2.16,5.06-1.31,6-1.09.3-2.27-.65-3.6-.11a4.41,4.41,0,0,0-2.44,5.46c3.93,10.93,31.81-9.87,25.12-21a.63.63,0,0,0-1.08.63c4.77,7.93-9.65,19.7-16.09,21.67a9.57,9.57,0,0,1-3.1.53q-2-7.2,2.16-5.71a7.36,7.36,0,0,1,1.22-.19c1.37-.62,1.37-1.51,1.52-2.76.43-3.4-4.63,4.18-.32-6.46a16,16,0,0,1,2.65-3.78c1.48-1.8,3.09-3.49,4.5-5.35,2.08-2.72,4.73-6.5,2.26-9.76-.48-.63-1.57,0-1.08.63Z"/><path class="cls-6" d="M603.15,340.43c-2.15,11.74,13.38,14.11,21.32,10.16,7.53-3.76,13.38-10.93,18.47-17.42a124.26,124.26,0,0,0,13.12-20.57c5-9.93,12.14-28.77-2.41-34.87-10.34-4.33-21,7.06-26,14.74-.44.68.64,1.31,1.08.63,4.46-6.83,13.12-16.43,22.22-14.79,7,1.27,10.41,8.52,10.26,15.08-.17,7.07-3.78,14-7,20.12a121,121,0,0,1-20.09,27.94c-4.58,4.73-10.53,9.87-17.5,10-6.07.13-13.54-3.64-12.24-10.7.14-.78-1.06-1.12-1.21-.33Z"/><path class="cls-6" d="M646.11,286.66c5.39-6,8.68,4.14,8.49,7.64-.22,4-1.9,7.88-3.69,11.42-2.83,5.62-6.22,11-9.58,16.34-.43.68.65,1.31,1.08.63,5.51-8.73,14.77-20.4,13.37-31.44-.64-5-6.14-10.39-10.56-5.47-.53.6.35,1.48.89.88Z"/><path class="cls-6" d="M649.69,331.25c-5.68,14.74.79,33.93,5.48,48a303.35,303.35,0,0,0,26.29,57.63c4.34,7.38,9,14.79,14.72,21.17.54.6,1.43-.29.89-.88-6.66-7.38-11.87-16.13-16.73-24.75a319.69,319.69,0,0,1-17.47-36.08,213.12,213.12,0,0,1-11.71-36.19c-1.94-9.07-3.71-19.66-.27-28.6.29-.75-.91-1.08-1.2-.33Z"/><path class="cls-6" d="M524.65,507.22c3.35-7,6.71-14.12,11-20.65s9.79-12.58,15.27-18.37c3-3.15,5.9-6.48,9.63-8.75,3.48-2.12,7.48-3.28,11.35-4.46q11.83-3.62,23.84-6.62,11.55-2.91,23.21-5.26c8.17-1.65,16.69-3.73,25-4,15.28-.5,28.79,8.42,42.26,14.37q6.48,2.86,12.85,6c5.9,2.9,14.29,6.15,13.15,14.36-.1.78,1.1,1.12,1.21.33,1.47-10.68-11.43-14.74-19.05-18.32-12.07-5.66-24.29-12.67-37.15-16.25-16.06-4.47-34,1.17-49.81,4.72q-13.94,3.13-27.66,7.07c-7.63,2.18-16.31,3.91-22.66,9-6.85,5.45-13,12.92-18.39,19.81-6.3,8.09-10.78,17.23-15.17,26.45-.34.72.74,1.36,1.08.63Z"/><path class="cls-6" d="M499.71,527.48c8.79-2.73,17.81-4.61,26.6-7.34,10.23-3.17,20.33-6.17,31.17-5.42s21.51,3.61,31.94,6.17c9.72,2.39,19.71,5.21,28.55,10,5.8,3.15,9.44,9.5,15.7,11.78,3.84,1.39,8,.76,11.84,1.87,4.8,1.38,6.86,6,10.62,8.82,6.79,5.09,15.93,5.76,23.25,9.92,8.18,4.64,14.79,11.56,21,18.49,9.49,10.56,22.52,17.08,32.09,27.46.54.59,1.43-.29.88-.88-8.65-9.39-20.64-15.15-29.39-24.44-6-6.35-11.54-13-18.62-18.21-7.54-5.55-15.84-7.09-24.15-10.87-4.86-2.22-7.13-6.16-11.1-9.34-2.65-2.12-5.72-2.5-9-2.83-5-.5-8.73-1.24-12.53-4.7-2.45-2.23-4.58-4.72-7.35-6.58-7.93-5.33-18-8.18-27.13-10.61a263.29,263.29,0,0,0-31-6.73c-11-1.52-21.12,0-31.65,3.16s-21.46,5.75-32.06,9c-.77.24-.44,1.45.33,1.21Z"/><path class="cls-6" d="M415.61,611c13.3-15.7,26.52-31.48,39.93-47.08a203,203,0,0,1,18.5-19.4c7.13-6.35,14.89-10.61,23.08-15.32a27.35,27.35,0,0,0,7.49-6.3,17.68,17.68,0,0,1,4.89-4.43c2.47-1.41,5.22-1.51,7.76-2.73a14.1,14.1,0,0,0,5-4.54c3-4,5.45-8.21,8.84-11.93,6.1-6.69,13.26-12.49,20.26-18.19,7.55-6.15,15.47-11.95,24.24-16.25,18.17-8.91,39.8-11,59.71-12.74,21-1.82,39.71,3.8,58.3,13.26,7.12,3.62,14.27,7.35,21.24,11.24,8,4.46,15.09,10.35,22.06,16.25,6.61,5.6,13,11.46,19.61,17.05,5.12,4.35,11.25,7.49,16.91,11.06a60,60,0,0,1,10.35,7.62c3.78,3.75,6.66,8.7,9.79,13a143.27,143.27,0,0,1,9,13.07c2.35,4.14,4.34,8.49,7,12.46,2.26,3.41,5.3,6.17,7.41,9.68a65.62,65.62,0,0,1,5.14,11.52c2.54,7.07,4.36,14.48,7.67,21.25.36.72,1.44.09,1.08-.63-6.21-12.68-7.55-27.18-17-38.23-6-7.1-9.28-16-14.71-23.58-4.89-6.78-9.43-15-15.74-20.59-5.37-4.72-11.83-8.13-17.86-11.89-7.61-4.75-13.75-11-20.63-16.72-6.31-5.23-12.45-10.7-19-15.6s-14.1-8.63-21.42-12.63c-16.22-8.88-33.36-17.44-52.08-19-10.41-.89-20.84.51-31.16,1.81a236.06,236.06,0,0,0-27.61,4.66c-18.85,4.71-34,15.31-48.61,27.67-6.62,5.59-13.3,11.26-18.59,18.18-2.91,3.82-4.93,8.74-9.22,11.16-3.34,1.89-7.29,1.87-10.3,4.43-3.95,3.37-6.39,7.35-11.13,10-4.31,2.38-8.67,4.52-12.74,7.32-8.07,5.55-15.14,12.42-21.72,19.64-16.11,17.67-31.15,36.41-46.61,54.64-.51.61.37,1.5.89.89Z"/><path class="cls-6" d="M456.11,212.17c7.16-26,28.34-44.25,53.58-52.16a153.35,153.35,0,0,1,18.47-4.22c6.45-1.19,12.49-3.55,18.66-5.74,6-2.11,12.17-4.21,18.58-4.1,7.58.12,15.25,1.68,22.7,3,14.58,2.54,29.19,5.15,43.69,8.06,13,2.62,24.74,9,35.65,16.37,11.85,8,22.52,16.66,31,28.24,6,8.15,13.07,17.26,16.16,27,3.18,10,4.27,20.73,5,31.13.69,10.15,1,20.59-.38,30.7-.11.78,1.1,1.12,1.21.33,2.6-18.56,1.1-39.25-3.22-57.45-2.39-10.09-7.92-18.21-13.7-26.73a113.29,113.29,0,0,0-26.85-28.18c-11.19-8.29-23.13-16.23-36.49-20.56-14.05-4.55-29.52-6-44-8.73-13.46-2.48-28.21-6.48-41.76-2.83-6.44,1.74-12.57,4.45-18.93,6.42-6.9,2.14-14.14,2.82-21.12,4.66-27.7,7.3-51.64,26.11-59.45,54.47a.63.63,0,0,0,1.21.33Z"/><path class="cls-6" d="M453.85,214.82c-8.74-3.11-17.37,3.51-22.8,9.79-6.95,8-10.17,17.67-12.26,27.92-2,9.7-3,19.69.35,29.18,3.05,8.73,7.92,17.42,14.65,23.85.58.55,1.47-.33.88-.89-6.07-5.8-10.54-13.5-13.58-21.28-3.44-8.82-3.33-17.7-1.77-27,1.53-9.07,3.8-18.17,8.87-26s15-18.12,25.33-14.44c.76.27,1.08-.94.33-1.21Z"/><path class="cls-6" d="M455.28,218.84c-3.92,1.14-7,2.6-9.55,5.9-3,3.92-5.47,8.33-8.14,12.48-.44.68.64,1.31,1.08.63,2.14-3.32,4.25-6.67,6.42-10A17,17,0,0,1,455.61,220a.62.62,0,0,0-.33-1.2Z"/><path class="cls-6" d="M478.78,439.63c7.61,30.45-4.87,64-30.58,82-.66.46,0,1.54.63,1.08C475,504.38,487.74,470.32,480,439.3a.62.62,0,0,0-1.2.33Z"/><path class="cls-6" d="M494.87,439.9c3.53,19.06,1.58,38.23-11.1,53.57-9.72,11.76-23.13,19.68-35.57,28.19-.66.45,0,1.53.63,1.08,13.15-9,27.39-17.39,37.27-30.19,11.89-15.4,13.42-34.36,10-53-.15-.79-1.35-.45-1.21.34Z"/><path class="cls-6" d="M464.81,224.26c3.48-7.66,18.43-10.23,26-10.73,8.07-.53,16.42,1.1,23.27,5.54,13.21,8.57,16.92,25,20.24,39.36,2.78,12,6.09,25.09,15.2,34,9.83,9.64,24,11.08,37.1,12.16.8.07.8-1.18,0-1.25-17.6-1.46-34.53-4.72-43.4-21.74-7.16-13.74-7.81-29.67-13.53-43.94-5-12.6-14.23-22.16-27.93-24.76a47.28,47.28,0,0,0-21.41,1.17c-5.63,1.54-13.94,3.73-16.58,9.53-.33.72.75,1.36,1.08.63Z"/><path class="cls-6" d="M587,302.52c-14.94-7.48-22.25-23-27.36-38.07-2.7-8-5.16-16-8.21-23.88-1.24-3.21-2.18-6.31-5.21-8.3-.58-.39-1.32.54-.75,1,4.24,3.29,8.87,5.63,12.71,9.45,9,8.93,18.47,17.51,26.53,27.25,5,6.08,9.77,12.66,16.37,17.15,7.73,5.27,16.84,6.15,26,5.16.79-.09.8-1.34,0-1.25-10,1.09-19.74-.28-27.75-6.81-6.2-5.05-10.75-11.81-15.94-17.81-3.62-4.18-7.64-8-11.56-11.89-4.91-4.9-9.62-10.22-14.84-14.79-3.23-2.83-7.2-4.72-10.59-7.35l-.76,1c4.85,3.2,6.65,12.59,8.37,17.71,2.68,8,5,16.1,8.25,23.87,5,11.8,12.45,22.82,24.16,28.68.72.36,1.35-.72.63-1.08Z"/><path class="cls-6" d="M663.27,400.74c5.09,4.43,11.39-1,12-6.74.25-2.46-.51-4.94-.72-7.37-.25-2.89,0-5.8,0-8.69s.17-5.51-.78-8.08c-5.09-13.71-13.26-30.85-4.23-44.79.44-.67-.64-1.3-1.08-.63-7.12,11-3.6,25.76.54,37.2,1.14,3.17,3.15,6.35,4,9.57,1.24,4.48-.07,10,.2,14.59.12,2.11.76,4.23.79,6.33.05,4-4.15,12.71-9.87,7.73-.6-.53-1.49.35-.88.88Z"/><path class="cls-6" d="M619.38,239.21a75.79,75.79,0,0,1,19.49,19.43c4,5.94,6.17,13,10.66,18.65.5.63,1.38-.26.89-.88C645,269.62,642.46,261,637,254a77.8,77.8,0,0,0-17-15.89c-.66-.46-1.29.62-.63,1.08Z"/><path class="cls-6" d="M661.38,292.32c5.45,5.87,10.18,11.64,17.36,15.49.71.38,1.34-.7.63-1.08-7.08-3.8-11.74-9.52-17.11-15.3-.55-.59-1.43.3-.88.89Z"/><path class="cls-6" d="M632.21,203.76c3.48,4.84,8.49,8.46,12.94,12.33,6.66,5.8,12.88,12.12,17.45,19.73,6.77,11.28,7.67,22.77,9.25,35.49,1.38,11.06,4.32,23.74,14.35,30.11.68.43,1.31-.65.63-1.08-13.37-8.49-13-26.65-14.75-40.5a63.52,63.52,0,0,0-9.61-26.58,86.56,86.56,0,0,0-15.75-17.46c-4.56-4-9.86-7.69-13.43-12.67-.46-.65-1.55,0-1.08.63Z"/><path class="cls-6" d="M702.58,328.18c2.46,8.76.74,17.22-.56,26-.91,6.15-.4,13-3.71,18.43a42.18,42.18,0,0,1-7.41,9.31c-1.75,1.59-3.89,2.67-5.76,4.1-1.71,1.32-2.76,2.83-5.24,2.71a8.19,8.19,0,0,1-5.65-3.28c-.52-.61-1.4.27-.89.88,3,3.51,7.82,5.21,11.44,1.92,4.13-3.75,8.39-6.47,11.83-11,4.47-5.9,5.26-11.11,6-18.35,1.13-10.48,4.05-20.6,1.11-31a.62.62,0,0,0-1.2.33Z"/><path class="cls-6" d="M673.39,397.32A59.25,59.25,0,0,0,697,406.44a15.85,15.85,0,0,0,7.71-.36c4.52-1.57,9.07-3.05,13.61-4.62,12.46-4.31,22.76-12.45,30.58-23,8.22-11.07,13.63-23.92,19.06-36.49,3-6.95,6.17-14.57,4.29-22.26-1.67-6.86-6.81-12.22-11.46-17.25-5.12-5.53-9.89-12.71-17.23-15.53s-16.49-.46-22.95,3.37a.63.63,0,0,0,.63,1.08c6.88-4.07,16.87-6.32,24.2-2.13,5.71,3.26,9.57,8.82,14,13.54,5,5.38,10.64,11.07,11.88,18.6,1.37,8.22-2.73,16.13-5.91,23.45-9.12,21-19.74,43-41.64,53.09a64.24,64.24,0,0,1-11.43,4c-4.17,1.05-8.39,3.63-12.67,3.55-8.73-.16-18.46-4.54-25.57-9.25-.67-.44-1.29.64-.63,1.08Z"/></g></svg>