<svg id="Layer_1" data-name="Layer 1" xmlns="http://www.w3.org/2000/svg" xmlns:xlink="http://www.w3.org/1999/xlink" viewBox="0 0 1200 600"><defs><style>.cls-1{fill:none;}.cls-2{clip-path:url(#clip-path);}.cls-3{fill:#efefef;}.cls-4{fill:#a693f0;}.cls-5{fill:#5822cc;}.cls-6{fill:#8a72f7;}.cls-7{fill:#471188;}</style><clipPath id="clip-path"><rect class="cls-1" width="1200" height="598.59"/></clipPath></defs><title>Home2</title><g class="cls-2"><rect class="cls-3" x="-21.06" y="-10.79" width="1231.27" height="637.55"/><polygon class="cls-4" points="205.95 416.09 204.77 405.51 204.77 392.88 206.72 381.57 213.61 374.67 220.19 371.47 231.04 371.47 250.24 371.37 255.52 371.18 261.73 373.24 267.19 374.67 274.81 374.65 281.73 373.99 288.72 372.31 295.66 369.5 388.21 365.24 412.79 364.14 422.88 365.56 429.78 371.47 433.34 382.37 434.3 419.43 436.16 448.54 436.9 460.68 434.61 468.35 430.74 473.63 424.7 477.15 409.72 479.14 382.37 479.7 315.07 481.75 304.36 483.25 301.65 481.37 298.74 480.28 293.26 480.84 288.27 482.76 286.1 484.64 275.36 484.35 272.86 484.64 267.11 482.6 264.76 481.75 258.78 483.39 254.95 485.51 249.46 485.61 237.82 486.13 228.42 486.55 218.73 485.45 210.64 479.77 208.25 467.62 207.71 455.5 208.48 446.66 224.6 442.53 234.76 440.57 246.05 439.42 259.9 439.22 267.73 437.36 273.37 432.08 274.56 428.5 273.86 424.07 270.21 419.6 266.86 418.09 257.96 416.28 248.5 416.09 236.36 416.09 221.2 416.23 205.95 416.09"/><polygon class="cls-5" points="232.72 381.36 336.29 376.73 406.6 373.58 410.98 471.33 239.03 479.14 236.42 478.69 234.91 458.41 234.76 440.57 242.13 439.54 249.23 438.93 255.35 438.93 263.79 438.69 268.52 437.17 271.44 433.89 274.22 430.74 274.8 425.35 273.86 422.98 271.97 420.7 268.8 418.45 261.76 416.23 233.63 415.84 232.72 381.36"/><polygon class="cls-5" points="996.8 296.81 998.4 286.29 998.9 273.68 997.41 262.29 990.8 255.13 984.35 251.66 973.52 251.23 954.33 250.36 949.07 249.96 942.78 251.77 937.27 252.98 929.65 252.66 922.76 251.71 915.85 249.76 909.02 246.68 816.72 238.72 792.21 236.64 782.06 237.64 774.93 243.28 770.93 254.02 768.5 291.01 765.48 320.03 764.24 332.13 766.23 339.89 769.88 345.31 775.78 349.07 790.66 351.66 817.97 353.31 885.13 358.06 895.78 359.98 898.57 358.21 901.52 357.24 906.97 358.02 911.87 360.14 913.97 362.1 924.72 362.24 927.2 362.63 933.03 360.82 935.41 360.07 941.32 361.95 945.06 364.22 950.54 364.54 962.15 365.53 971.53 366.32 981.25 365.61 989.56 360.25 992.43 348.21 993.47 336.13 993.04 327.26 977.11 322.49 967.03 320.13 955.8 318.52 941.96 317.77 934.22 315.59 928.79 310.09 927.74 306.47 928.63 302.07 932.45 297.75 935.86 296.38 944.82 294.92 954.28 295.11 966.41 295.6 981.56 296.34 996.8 296.81"/><polygon class="cls-6" points="971.43 261.04 868.14 252.27 798 246.31 789.72 343.81 961.22 358.49 963.84 358.14 966.17 337.94 967.03 320.13 959.71 318.8 952.64 317.91 946.52 317.66 938.1 317.08 933.43 315.38 930.65 311.98 927.99 308.73 927.63 303.31 928.67 300.98 930.64 298.78 933.9 296.66 941.02 294.72 969.15 295.46 971.43 261.04"/><path class="cls-7" d="M252.74,359.34l1.18,11.57a.39.39,0,0,0,.27.37,51.78,51.78,0,0,0,24.06,3.53c6.3-.6,14.24-2.15,19.44-6.06,2.89-2.18,4.25-7.84,3.35-11.32-1-3.7-6-6.11-9.61-5.85-4.58.34-8.21,1.91-12.87.67-4.3-1.13-8.16-3.64-12.17-5.49-7.81-3.59-16.22-2.92-24.35-5.31-7.64-2.25-15.54-8.35-23.69-8.4-4,0-7.79,1.72-11.52,2.89a138.91,138.91,0,0,1-14.34,3.68c-11.42,2.3-22.66,2-34.16,3-7.76.7-15.21,3.09-19.94,9.61-.25.35.3.76.59.45,4.93-5.35-13-5.19-15.25-5.3-11.29-.58-22.59-1-33.89-1.46-27.24-1.09-54.5-2-81.69-3.94-9.63-.67-19.68-1-29.11-3.19-.47-.11-.67.61-.2.72,14.89,3.51,31.08,3.43,46.27,4.27,22.64,1.25,45.31,2.11,68,3,9.22.37,18.44.73,27.65,1.18,3.35.16,6.69.33,10,.54,1.15.08,2.31.12,3.46.25.52.05,1.06,0,1.58.13,2.12.36,3.77,1.46,5.63.88,1.41-.44,2.8-2.26,4.26-3.05,8.87-4.84,19.76-3.35,29.47-4a139.21,139.21,0,0,0,25.65-4.27c4.15-1.09,8.17-2.7,12.32-3.79,6.69-1.74,11.38.42,17.34,3.11a70.53,70.53,0,0,0,22.23,6.34,43.84,43.84,0,0,1,16,4.63c3.34,1.66,6.66,3.49,10.31,4.4s6.47.34,9.95-.37c5.36-1.09,11.79,1.32,11.21,7.62a18.64,18.64,0,0,1-.85,5.08c-1.19,2.94-4.67,4.14-7.39,5.23a49.77,49.77,0,0,1-16.25,3.54,50.83,50.83,0,0,1-14.94-1.55c-3.16-.83-5.47-1.17-6.41-4.68-.72-2.7-.6-5.9-.88-8.68-.05-.48-.8-.48-.75,0Z"/><path class="cls-7" d="M253.59,369.53c-3.28,2.43-8.05,1.41-11.85,1.15-2.44-.18-5.35.1-7.29-1.72-1.2-1.13-1.73-3-2.43-4.48a23.21,23.21,0,0,0-11.64-11.26c-.44-.2-.82.45-.38.65a22.39,22.39,0,0,1,10.71,9.65c1.28,2.34,1.88,5.37,4.33,6.83,2.79,1.66,7.41,1.14,10.48,1.34s5.86.4,8.45-1.52c.38-.28,0-.93-.38-.64Z"/><path class="cls-7" d="M233.21,369.31c-1.53,2.63-7.49,2.28-10.16,2.59l-8.14,1c-.47.06-.48.81,0,.75,4.53-.53,9.05-1,13.57-1.6,2.11-.26,4.21-.32,5.37-2.32a.37.37,0,0,0-.64-.38Z"/><path class="cls-7" d="M166.38,402.58a22.12,22.12,0,0,0,26.37-2.5c4.21-3.83,7.1-8.82,10.38-13.41a187.11,187.11,0,0,1,15.27-18c.33-.35-.2-.88-.53-.53a235.57,235.57,0,0,0-19.53,24.15c-3.58,5.07-7.74,9.84-13.84,11.82a21.65,21.65,0,0,1-17.74-2.18.38.38,0,0,0-.38.65Z"/><path class="cls-7" d="M208.67,475.36c-6.88-3.72-12.73-7.38-20.4-9.31a.37.37,0,0,0-.2.72c7.58,1.91,13.43,5.56,20.22,9.24.43.23.81-.42.38-.65Z"/><path class="cls-7" d="M251.78,495.83c-.05-4.94,1.19-9.1,5.84-11.52,2.45-1.28,6.58-2.74,9.39-2.56,5.14.32,6.24,3.56,6.45,7.45.14,2.46.12,4.93-2.72,6.41-1.71.9-3.77.5-5.49,1.6a7.41,7.41,0,0,0-1.11,1.06c-2.78,2.69-5.19,4.58-9.42,3.8-2.91-.53-5.72-1.91-8.46-3-6.88-2.68-12-7.18-17.58-11.83-.37-.31-.9.22-.53.53,8,6.66,16.45,13.62,27.22,15.12,4,.56,5.65-.74,8.51-3.07a18.76,18.76,0,0,1,6-3.24,11.35,11.35,0,0,0,2.2-.73,4.07,4.07,0,0,0,1.76-1.75c1.22-2.45.6-7.19-.59-9.57-1.53-3.07-4.39-3.8-7.62-3.44-3.55.41-8,1.77-10.79,4-3.44,2.74-3.81,6.52-3.77,10.67a.38.38,0,0,0,.75,0Z"/><path class="cls-7" d="M284.5,489c1.27-6.22,7.83-8.43,13.51-8.37,8.48.07,9.45,14.59,2.75,17.66-5.25,2.4-9.81,4.05-15.68,3a41.83,41.83,0,0,1-12.92-4.72c-.42-.23-.8.41-.38.65,6.08,3.36,14.68,6.82,21.72,4.95,5.14-1.36,13.21-4,12.86-10.39-.31-5.76-1.75-11.95-8.35-11.91-6.07,0-12.89,2.37-14.23,8.92-.1.47.62.67.72.2Z"/><path class="cls-7" d="M309,483.09c8.31,6.8,20.38,17.63,32,16.49,7.95-.78,11.7-12.25,6.57-18.1-.32-.36-.84.17-.53.53,3.63,4.15,1.74,12.76-2.39,15.73s-11.8-.14-15.84-2c-7.11-3.29-13.29-8.23-19.32-13.16-.37-.3-.9.23-.53.53Z"/><path class="cls-7" d="M206.71,447.41l.9,19.72c.33,7.31,2.06,14.09,9,18,5.72,3.21,12.57,2,18.82,1.75l19.33-.86c.8,0,.81-1.29,0-1.25l-16,.71c-5.67.26-12.55,1.52-18.13,0-10.1-2.75-11.5-12-11.89-20.72L208,447.41c0-.8-1.28-.81-1.25,0Z"/><path class="cls-7" d="M255.52,370.55l-20.86.94c-6.28.28-14.21-.53-20.12,2.05-8.76,3.82-10.58,12-10.19,20.63l1,21.92c0,.8,1.28.8,1.25,0l-.88-19.53c-.09-2.15-.28-4.31-.29-6.45,0-8.35,5.56-15.46,14-16.59,11.83-1.58,24.18-1.18,36.11-1.72.8,0,.8-1.28,0-1.25Z"/><path class="cls-7" d="M304.36,483.87l73.18-3.33,38.32-1.74c3.33-.16,6.69-.11,9.85-1.34,7.21-2.8,11.17-9.71,11-17.26-.48-25.77-2.31-51.58-3.46-77.34-.52-11.49-7.39-19.83-19.54-19.39-10.78.4-21.56,1-32.34,1.45-27.7,1.24-55.43,2.17-83.12,3.72l-1.78.08c-.8,0-.81,1.29,0,1.25l68.73-3.08,40.48-1.81c3-.13,5.94-.36,8.91-.39,9.33-.12,16.55,6,17.29,15.48,1.93,24.79,2.22,49.8,3.33,74.64.23,4.93.8,9.8-1.75,14.34-3.35,6-9.28,8-15.65,8.31L385.09,479l-80.73,3.67c-.8,0-.81,1.29,0,1.25Z"/><path class="cls-7" d="M273.86,485.26l12.78-.58c.81,0,.81-1.29,0-1.25l-12.78.58c-.8,0-.81,1.29,0,1.25Z"/><path class="cls-7" d="M234.11,441l1.71,38.14a.62.62,0,0,0,.62.62l58.87-2.63,93.95-4.2L411,472a.64.64,0,0,0,.62-.63l-3.82-85.53-.55-12.22a.65.65,0,0,0-.63-.63l-58.86,2.64-94,4.2-21.72,1a.63.63,0,0,0-.62.63L233,415.84c0,.8,1.29.8,1.25,0L233,387.53c-.08-1.78,0-3.64-.24-5.41-.16-1.24-.72,0-.39-.12,1.15-.39,2.95-.13,4.16-.19l53-2.37,73.3-3.28,28.47-1.27c4.8-.21,9.8-.06,14.58-.65.38-.05,1,.15.42-.34s-.15.41-.25,1c-.48,2.59.27,6,.38,8.61l1.46,32.5,1.61,36,.57,12.95c.09,1.9.63,4.34.28,6.22-.11.61,1.14-.56.32-.4a6.63,6.63,0,0,1-1.54.07,60.55,60.55,0,0,0-6.59.3l-24.43,1.09-71.71,3.21-60.07,2.68-7.28.33c-1.43.06-2.7-.46-2,.71-.39-.62-.12-2.61-.15-3.27l-.32-7.18-.81-18.06-.43-9.6c0-.8-1.28-.81-1.25,0Z"/><path class="cls-7" d="M-20.74,477.14C-15.45,470-7.87,465.55-.26,461.2a111.5,111.5,0,0,0,19.08-13.46c14.71-13,33.06-22.3,49.79-32.49,4.34-2.65,8.72-5.36,13.53-7.09,4.46-1.6,9.09-2.07,13.74-2.79,8.05-1.24,16-3.75,24.23-3.49,8.47.26,16.79,3.6,24.76,6.19,8.2,2.65,17.85,4.26,22.44,12.43.23.42.88,0,.64-.38C162.26,410,147.38,408,137.21,404.79c-6.23-2-12.69-3.84-19.28-3.63s-13.15,1.93-19.74,3.08c-7.3,1.27-14.28,1.95-21,5.26-7.71,3.78-14.92,8.76-22.24,13.24-7.59,4.65-15.26,9.2-22.78,14-6.18,3.91-11.48,8.55-17,13.3-11.49,9.85-27.3,14.26-36.5,26.75-.29.39.36.76.64.38Z"/><path class="cls-7" d="M92.78,419a475.41,475.41,0,0,0,65,3.06c9.2-.25,17.37-3,26.35-4.51,10.84-1.78,22.54-.71,33.5-.75l32.31-.13c6.71,0,23.56-.66,24.48,9.13.84,8.82-7.53,12.16-14.76,12.58-9.58.55-19.16.77-28.63,2.49-11.38,2.07-22.28,6-33.8,7.35-11.76,1.36-23.64,1.25-35.42,2.53-.47.06-.48.81,0,.75,11.78-1.28,23.66-1.18,35.42-2.53,10.71-1.23,20.84-4.74,31.37-6.87,11.73-2.37,23.59-1.49,35.32-3.29,5-.77,9.12-3.67,10.63-8.65,4.67-15.36-19.75-14.26-28.52-14.22l-37.21.14c-11.43.05-22.18-.12-33.3,2.71-13.16,3.34-26.8,2.78-40.28,2.41-14.19-.39-28.36-1.4-42.47-2.95-.48-.05-.48.7,0,.75Z"/><path class="cls-7" d="M189.3,449.79c1.59,6.23,2.91,12.85-2.43,17.8-4.4,4.07-11,6.34-16.49,8.39-6.22,2.32-17.16,4.26-20.88,10.4-.26.41.39.79.64.37,3.26-5.38,12.49-7.15,18-9.16A90.35,90.35,0,0,0,183.2,471c8.79-5.19,9.2-12.15,6.82-21.43a.37.37,0,0,0-.72.2Z"/><path class="cls-7" d="M172.74,476.07c5,4.89,10.67,12.94,5.25,19.67-3.54,4.41-10.12,6.79-15.14,9.09-8.42,3.86-16.8,7.9-21.92,16-.26.41.38.79.64.38,8.13-12.8,23.73-14.1,34.92-22.87,8.51-6.66,2.87-16.77-3.22-22.77-.35-.33-.88.2-.53.54Z"/><path class="cls-7" d="M-15.19,564Q-4,556.68,7.23,549.36a79.1,79.1,0,0,1,10.6-6.17c4.75-2.12,9.64-2.71,14.76-3.28A35.27,35.27,0,0,0,50.81,533c8.59-6.11,17.15-2.72,26.47-.73,4,.87,7.58,1.49,11.38,3.22,2.88,1.3,6,1.71,9,2.52a95.49,95.49,0,0,0,19.75,3.59c14.55.73,29.13-4.08,41.28-11.9,5.54-3.58,12.19-8.17,13.73-15.05a10.51,10.51,0,0,0-5.43-12c-.43-.2-.81.44-.38.65,6,2.85,6.48,10.08,3.37,15.3-2.69,4.52-7.35,7.68-11.67,10.47a74.83,74.83,0,0,1-26.1,10.68c-9.51,1.85-18.86,1.21-28.27-.88-4.1-.91-8.43-1.8-12.44-3-3.21-1-5.82-2.84-9.14-3.49-7.69-1.51-16.87-5.22-24.78-3.5-3.82.84-6.57,3.2-9.7,5.4-4.75,3.32-9.66,4.25-15.32,4.91-8.58,1-15.4,3-22.79,7.64-8.54,5.38-16.92,11-25.37,16.55-.4.26,0,.91.38.65Z"/><path class="cls-7" d="M951.58,238.12c-.54,3.78-.12,10.07-3.78,12.07s-9.78,2.15-14,2.21c-8.26.11-17.35-1.72-24.51-6-6.22-3.73-6.38-14.48,1.54-16.49,3.8-1,7.48,1.38,11.25,1.51a24,24,0,0,0,9.73-2.18c3.22-1.31,6.3-2.93,9.55-4.15,4.34-1.61,8.84-1.82,13.41-2.14,7.85-.55,15.08-3.07,22.32-6,4.65-1.9,8.94-3.55,14.08-2.26,4.13,1,8.08,3,12.13,4.26a141.2,141.2,0,0,0,23.49,5.37c8.8,1.22,18.12.59,26.69,3a27.93,27.93,0,0,1,5.65,2.27,23,23,0,0,1,2,1.2c-1.24-.86,3.27,2.93,3.37,3,2,.34,5.57-1.25,8-1.34,7.09-.24,14.2-.25,21.3-.29,20.81-.12,41.62-.08,62.42-.35,17.73-.23,36.6.68,54.1-2.71.48-.09.28-.82-.2-.73-7.65,1.49-15.64,1.64-23.42,2-11.53.47-23.08.65-34.63.78-23.13.26-46.27.1-69.4.39-3.9.05-7.81.07-11.71.26-2.45.13-7.54,1.12-4.69,4.48.28.32.83-.1.59-.45-3.85-5.79-10-8.71-16.67-9.94-9.48-1.74-19.22-1.41-28.73-3.13S1003,218,994,214.77c-8.33-2.92-14.45.57-22.27,3.48A60,60,0,0,1,956.54,222c-4.14.41-8.32.29-12.37,1.35-8.95,2.32-16.23,8.8-25.95,6.62-4.65-1-10.53-2-13.59,3.14-1.4,2.34-.83,8.17.43,10.55,2.82,5.31,13.32,7.59,18.57,8.57a52,52,0,0,0,26.77-2.17.38.38,0,0,0,.26-.26l1.64-11.52c.07-.47-.66-.67-.72-.2Z"/><path class="cls-7" d="M950.59,249a9.38,9.38,0,0,0,6.2,1.95c3.62.09,8.71.6,12.14-.74,2.3-.9,3.15-2.92,4.24-5a22.84,22.84,0,0,1,12-11.08c.44-.18.25-.91-.2-.72a23,23,0,0,0-11.05,8.89c-2.57,4-3.5,7.37-9.19,7.67-4,.21-10.25,1.19-13.61-1.52-.37-.29-.91.23-.53.54Z"/><path class="cls-7" d="M970.78,249.35c1.16,2.2,3.61,2.26,5.86,2.62l12.81,2c.48.08.68-.64.2-.72l-8.77-1.39c-2.44-.39-8.12-.38-9.45-2.92-.23-.43-.88-.05-.65.38Z"/><path class="cls-7" d="M1036.51,284.24A21.75,21.75,0,0,1,1019.4,286c-6.35-2.06-10.55-7.24-14.06-12.63a234.61,234.61,0,0,0-18.55-24.91c-.31-.37-.84.16-.53.53a186.33,186.33,0,0,1,14.54,18.6c3.09,4.72,5.78,9.82,9.84,13.81a22.12,22.12,0,0,0,26.25,3.53c.43-.23,0-.88-.38-.65Z"/><path class="cls-7" d="M992.07,356.59c6.92-3.4,12.94-6.81,20.58-8.43.47-.09.27-.82-.2-.72-7.76,1.64-13.72,5-20.76,8.5-.43.21-.05.86.38.65Z"/><path class="cls-7" d="M948.56,374.68c.21-4.13,0-8-3.35-10.82-2.74-2.36-7-3.87-10.52-4.44-3-.47-5.78-.08-7.56,2.58-1.51,2.24-2.3,7-1.37,9.56a4.33,4.33,0,0,0,1.34,2,5.25,5.25,0,0,0,1.56.85c3.32,1.39,2.79-.18,6.86,3.72,2.59,2.49,4.43,3.85,8.33,3.49,10.8-1,19.59-7.68,27.83-14,.38-.29,0-.94-.38-.65-5.33,4.07-10.29,8.42-16.7,10.68a83.38,83.38,0,0,1-8.31,2.76c-4.33,1-6.67.61-10.12-2.68-1.48-1.41-.17-1-1.84-2.22s-3.64-1-5.4-1.9c-3.67-1.93-3.37-9.39-.44-12.13,3.44-3.23,10.48-.54,14,1.43,4.71,2.66,5.6,6.8,5.35,11.76,0,.48.73.48.75,0Z"/><path class="cls-7" d="M916.12,366.37c-1-6.4-7.35-9-13.27-9.42-7-.49-8.79,5.18-9.41,11.48S900,377.18,904.92,379c7.17,2.71,16.37-.52,22.86-3.76.43-.22.05-.87-.38-.65-9.41,4.7-20.19,6.51-29.33.2-5.81-4-4.06-16.86,4.17-17.18,5.63-.23,12.19,3,13.16,8.92.08.47.8.27.72-.2Z"/><path class="cls-7" d="M890.73,359c-6.43,4.86-13.05,9.76-20.61,12.73-3.9,1.54-8.6,3.2-12.79,2.08-6.07-1.62-8.51-12.23-4.15-16.82.33-.35-.2-.88-.53-.53-5.36,5.65-2,17.18,5.82,18.33,11.48,1.67,24.21-8.78,32.64-15.14.38-.29,0-.94-.38-.65Z"/><path class="cls-7" d="M993.53,328.05l-1.44,16.84c-.76,9-2.4,18.06-12.77,20.65-5.4,1.35-12.21-.22-17.63-.68l-16.41-1.39c-.8-.07-.8,1.18,0,1.25l19.29,1.64c6.25.53,13,2,18.86-1,7.1-3.6,9.05-10.33,9.67-17.61l1.68-19.68c.07-.8-1.18-.79-1.25,0Z"/><path class="cls-7" d="M949.07,250.58c11.89,1,24.25,1.09,36,3.16,8.36,1.48,13.71,8.82,13.3,17.16-.1,2.14-.36,4.29-.54,6.43l-1.66,19.48c-.07.8,1.18.8,1.25,0L999.28,275c.73-8.57-.75-16.85-9.39-21-5.79-2.8-13.77-2.31-20-2.84l-20.8-1.77c-.81-.07-.8,1.18,0,1.25Z"/><path class="cls-7" d="M895.78,359.36l-69.13-5.93-39.06-3.35c-2.43-.21-4.88-.33-7.3-.62-9.58-1.16-15.25-9-14.57-18.37,1.85-25.25,4.29-50.47,6.43-75.69.58-6.81,2.31-13.27,9.06-16.68,4.06-2.06,8.08-1.71,12.34-1.34l34.55,2.93,80.08,6.8c.8.07.8-1.18,0-1.25l-72.46-6.15-39.84-3.39a70.44,70.44,0,0,0-8.08-.55c-8.85.33-15.58,7.25-16.58,15.86-2.93,25.12-4.29,50.51-6.43,75.71-.37,4.4-.89,8.59.89,12.84,2.63,6.31,8.5,9.91,15.13,10.57,10,1,20,1.71,29.93,2.57,27.73,2.37,55.46,5.28,83.22,7.13.61,0,1.21.11,1.82.16.8.07.8-1.18,0-1.25Z"/><path class="cls-7" d="M926.2,362l-12.75-1.1c-.8-.07-.8,1.19,0,1.25l12.75,1.1c.8.07.8-1.18,0-1.25Z"/><path class="cls-7" d="M966.41,320.55l-2.34,27.59-.61,7.16c-.05.66.13,2.69-.28,3.26.83-1.16-.62-.7-2-.81l-49.14-4.17-73.34-6.23-30-2.55c-5.67-.48-11.47-1.38-17.15-1.46a6.63,6.63,0,0,1-1.54-.13c-.77-.19.39.89.33.39-.25-1.91.36-4.3.52-6.2l2.55-30,3.12-36.67,1.23-14.51c.23-2.68,1-5.92.73-8.6-.07-.6.47-1.44-.2-1s.07.31.42.37c1.67.29,3.45.29,5.15.44l22.25,1.89,70.29,6,62.67,5.32,8.57.73c1.19.1,3-.1,4.15.35.29.12-.21-1.06-.42.13-.32,1.75-.31,3.63-.46,5.4l-1.52,17.82-.89,10.41c-.07.8,1.18.79,1.25,0l2.93-34.36a.64.64,0,0,0-.62-.63l-58.72-5-93.7-7.95L798,245.69a.63.63,0,0,0-.62.62l-7.25,85.31-1,12.19a.64.64,0,0,0,.62.63l58.72,5,93.7,8,21.67,1.84c.35,0,.59-.31.62-.63l3.23-38c.07-.8-1.18-.8-1.25,0Z"/><path class="cls-7" d="M1212.36,359.79c-6.53-9.81-17.15-13.14-25.63-20.88-5.37-4.9-10.4-9.87-16.38-14.05-7-4.89-14.2-9.53-21.31-14.28-6.75-4.52-13.4-9.26-20.34-13.48-6.48-4-13-5.78-20.38-7.15-6.29-1.16-12.41-3.16-18.75-4.07a49.54,49.54,0,0,0-19,1.22c-7.2,1.7-14.4,3.76-21.51,5.82-5.86,1.7-11.16,4.1-14.46,9.46-.25.41.4.79.65.38,4.9-8,14.64-9.2,22.93-11.52,7.68-2.16,15.61-4.9,23.65-5.17s15.87,2.48,23.71,4.11c4,.83,8.11,1.33,12,2.52a54.36,54.36,0,0,1,13.65,6.88c8,5.22,16,10.65,23.93,16s16.49,10.4,23.68,16.88c5.55,5,10.56,10.37,17,14.27s11.6,7,15.89,13.46c.26.4.91,0,.64-.38Z"/><path class="cls-7" d="M1109.78,303.46c-12.52.87-25.06,1.32-37.61,1.28-12,0-24.74.33-36.6-1.87-5.16-1-10-2.86-15.14-4.1-5.5-1.33-11.12-1.45-16.74-1.69l-35.22-1.56-17.61-.77c-5.28-.23-10.3-.43-15.35,1.35-4.48,1.58-8.48,3.72-8.28,8.91a12.35,12.35,0,0,0,6.47,10.73c3.18,1.66,6.89,1.75,10.39,2.08,6.46.6,13,1,19.38,2.05,12.63,2,24.43,7.1,37,9.46,12.87,2.42,26,2.63,39,4.57.47.07.68-.65.2-.72-9.6-1.44-19.29-2-28.93-3.1-10.87-1.27-20.8-4.39-31.27-7.35a149.36,149.36,0,0,0-26.86-4.9c-8.28-.77-21.06.48-24-9.54-.95-3.21-.92-6.41,1.83-8.77,3.81-3.27,10-4.15,14.8-4.22,10.34-.15,20.82.86,31.15,1.32,10.75.47,21.5.9,32.24,1.42s20.06,4.79,30.5,6.1c23.17,2.91,47.52,1.68,70.74.07.48,0,.48-.79,0-.75Z"/><path class="cls-7" d="M1011.37,330.94c-2.74,9.18-2.56,16.16,6,21.68a81.93,81.93,0,0,0,13.18,6.51c5.73,2.37,15.83,4.8,19.21,10.54a.38.38,0,0,0,.65-.38c-3.68-6.24-14.12-8.56-20.46-11.22A68.8,68.8,0,0,1,1016.3,351c-7.28-5.2-6.47-12.27-4.21-19.87a.37.37,0,0,0-.72-.2Z"/><path class="cls-7" d="M1027.07,357.53c-6.4,5.8-12.28,15.57-4.11,22.62,10.79,9.31,26.32,11.08,34,24.25a.37.37,0,0,0,.64-.38c-4.79-8.26-13-12.63-21.27-16.82-4.64-2.36-10.31-4.74-13.95-8.59-6.49-6.86-.21-15.6,5.25-20.55.35-.32-.18-.85-.53-.53Z"/><path class="cls-7" d="M1212.23,452.81c-8.22-5.85-16.36-11.84-24.69-17.55-7.48-5.13-14.38-7.25-23.26-8.66-4.65-.73-9.12-1.72-13-4.46-3.09-2.14-5.59-4.92-9.21-6.25-7.92-2.91-16.83.9-24.76,1.91-4,.5-6.94,2.21-10.75,3.2-4.12,1.07-8.54,1.8-12.74,2.56-9.5,1.71-18.83,2-28.28-.26a74.72,74.72,0,0,1-25.65-11.72c-4.17-2.93-8.77-6.34-11.24-10.93-2.88-5.37-2.13-12.53,4-15.15.44-.19.06-.83-.38-.64a10.28,10.28,0,0,0-6.06,10.43c.42,5.86,4.9,10.39,9.21,13.87,10.9,8.76,24.25,14.81,38.22,16.28a72.26,72.26,0,0,0,20.38-1.16c3.74-.67,7.47-1.52,11.19-2.26,4.22-.84,7.77-2.93,12.1-3.47,8.33-1,17.91-5.28,26-1.32,3.32,1.63,5.78,4.53,8.92,6.44a27.06,27.06,0,0,0,8.81,3.13c4.14.83,8.38,1.09,12.47,2.17,5,1.33,9.47,4,13.72,6.94,8.32,5.72,16.47,11.7,24.69,17.55.4.28.77-.37.38-.65Z"/></g></svg>