<svg id="Layer_1" data-name="Layer 1" xmlns="http://www.w3.org/2000/svg" xmlns:xlink="http://www.w3.org/1999/xlink" viewBox="0 0 1200 600"><defs><style>.cls-1{fill:none;}.cls-2{clip-path:url(#clip-path);}.cls-3{fill:#efefef;}.cls-4{fill:#5822cc;}.cls-5{fill:#a693f0;}.cls-6{fill:#471188;}.cls-7{fill:#4e008e;}.cls-8{fill:#8a72f7;}</style><clipPath id="clip-path"><rect class="cls-1" width="1200" height="598.59"/></clipPath></defs><title>Home2</title><g class="cls-2"><rect class="cls-3" x="-21.06" y="-10.79" width="1231.27" height="637.55"/><polygon class="cls-4" points="982.44 566.93 982.95 564.93 984.72 565.46 987.51 572.3 989.09 579.45 992.69 597.33 994.52 605.59 989.9 605.59 985.53 595.51 980.81 583.73 972.17 570.24 968.16 565.01 968.82 564.1 972.58 566.11 975.81 567.72 979.04 568.07 980.94 568.13 982.44 566.93"/><polygon class="cls-5" points="800.53 606.33 801.13 602.72 801.83 594.97 804.16 575.69 805.03 567.19 805.64 557.38 807.41 551.02 812.24 545.8 816.69 534.08 821.21 517.49 827.66 492.27 832.34 481.75 836.2 476.04 843.05 472.34 853.83 468.84 859.87 468.09 869.59 466.95 878.26 466.54 884.69 466.49 889.72 467.9 896.48 471.66 905.7 479.17 915 488.62 921.81 495.87 932.37 505.82 936.77 509.15 939.42 513.41 944.72 527.37 946.18 534.5 948.48 540.71 953.44 546.51 960.15 554.62 970.85 569.28 977.99 578.38 990.95 607.18 800.53 606.33"/><polygon class="cls-5" points="995.01 607.78 992.94 598.51 988.45 577.18 985.65 568.62 983.2 563.88 981.16 558.71 976.4 550.2 968.87 532.91 965.56 514.72 962 497.49 959.47 490.12 955.97 485.32 948.1 478.26 942.01 468.71 940.69 461.61 941.82 460.62 950.81 469.96 963.63 487.57 970.32 497.63 974.09 503.81 975.42 509.73 977.21 519.42 978.1 531.51 979.56 538.62 982.76 546.16 992.26 564.45 997.18 572.43 999.07 577.95 1001.1 582.29 1002.39 590.63 1001.24 599.37 1000.83 606.07 995.01 607.78"/><path class="cls-6" d="M801.14,604.62c1-11.27,2.78-22.48,3.91-33.74.53-5.17.18-10.68,1-15.77.5-3.21,3.19-4.35,4.94-6.74,1.3-1.77,1.67-3.8,2.62-5.81,8.27-17.55,9.54-37.49,16.19-55.62a34.7,34.7,0,0,1,2.88-6.25c2.81-4.56,7.55-6.84,12.44-8.64,7.55-2.78,15.61-3.86,23.58-4.63,8.47-.83,16.57-1.81,24.32,2.49,6.58,3.66,12.21,9.09,17.43,14.44,5,5.12,9.68,10.51,14.79,15.51a97.72,97.72,0,0,0,8,7.1c1.76,1.38,3.66,2.44,4.82,4.4,4.53,7.59,5.69,17.42,8.61,25.69a20.52,20.52,0,0,0,5.85,9c5.66,5.59,9.81,12.49,14.88,18.58a120.37,120.37,0,0,1,20.49,36.55c.16.45.89.25.73-.2a127.31,127.31,0,0,0-17.25-32.59c-4.14-5.64-8.58-11.15-12.9-16.67-3.43-4.36-8.2-7.6-10.3-12.81-3.44-8.56-4.79-17.93-8.66-26.33-2-4.35-6-6.21-9.52-9.34C924,498,918.72,492,913.24,486.2c-9.17-9.67-19.86-20.73-34.17-20.36a149.92,149.92,0,0,0-22.56,2.42c-7,1.27-15.22,3.26-20.9,7.76-7,5.52-8.83,17.55-10.88,25.6-2.85,11.19-5.07,22.65-8.81,33.59-1.84,5.37-4.16,11.27-8.09,15.29-3.56,3.66-2.5,7.49-2.83,12.41-1,14-3.34,27.78-4.61,41.71,0,.48.7.48.75,0Z"/><path class="cls-6" d="M965.67,562.6c3.62,2.87,10.27,7,15.2,5.92,8.41-1.93-2.77-16-4.61-19.34-2.56-4.57-5.2-9.2-6.53-14.29-1.13-4.28-1.82-8.67-2.57-13-1.57-9.14-2.81-18.51-5.64-27.36a24.73,24.73,0,0,0-3.4-7.48c-3.75-5-9.39-7.62-12.75-13.11a29.52,29.52,0,0,1-3.51-8.4c-.29-1.2-1.74-4.24-.18-4.5.51-.09,3.17,3.39,3.55,3.81A246.91,246.91,0,0,1,961,484.45q5.79,8,11,16.47c2.16,3.55,2.79,6.38,3.36,10.45,1.11,8,1.55,16.08,3,24,.91,4.84,4,8.74,5.81,13.29a95.42,95.42,0,0,0,10.47,19.79c6,8.72,9.19,22.34,6.5,32.81a.37.37,0,0,0,.72.2c2.52-9.79-.05-23.64-5.61-32-2.52-3.79-5.38-7.38-7.49-11.43s-3.34-8.75-5.32-13c-1.34-2.88-3.35-5.49-4.1-8.59a61.69,61.69,0,0,1-1.06-6.76c-.71-5.49-1.26-11-2-16.5-.4-3.16-.6-6.61-1.86-9.57-1.79-4.25-5.1-8.36-7.66-12.17q-4-6-8.36-11.74c-5.37-7.1-11-14.26-17.43-20.44a.38.38,0,0,0-.64.27,30.78,30.78,0,0,0,6.15,17.3c3.5,4.59,9.3,7.25,12.1,12.31,4.84,8.74,5.72,20.3,7.37,30,1.72,10.13,3.43,19,8.36,28.06,2,3.7,4.17,7.31,6.17,11,.81,1.49,2.61,3.93,2.65,5.71.11,4.14-3.23,4.4-5.88,3.83-3.52-.76-8.22-3.45-11-5.68-.37-.3-.9.23-.53.53Z"/><path class="cls-6" d="M983.63,565.12c3.16,4.63,4.1,11.59,5.39,16.93a144.71,144.71,0,0,1,3.55,17.6c0,.47.8.48.75,0a145.68,145.68,0,0,0-3.58-17.8c-1.3-5.42-2.25-12.4-5.46-17.11-.27-.39-.92,0-.65.38Z"/><path class="cls-6" d="M908,332.16c1.69,2.28,3.74,5,6.9,4.77,3.58-.26,6.27-3.95,9.53-5.2,7.79-3,16.46-2.8,23.18-8.27,8.34-6.78,14.94-15.44,22.56-23,4.6-4.54,9.61-8.43,14.56-12.57,4.24-3.55,3.78-6.19,1.75-11.07-4-9.65-9.83-23.19-19.14-29-4.69-2.91-10.16-2.27-15.3-3.8-6.11-1.82-11.76-4.81-18-6.43-20.4-5.33-43.8-7-63.34,2.43C860.64,245,852.37,254,845.29,262.45A139.21,139.21,0,0,0,834.47,277c-2,3.16-5.42,6.93-6,10.81-.06.47.66.68.73.2.38-2.73,2.4-5.06,3.83-7.33a156.42,156.42,0,0,1,9.74-14,134.24,134.24,0,0,1,19.23-20c15.05-12.53,38.82-14.83,57.53-11.4a140.46,140.46,0,0,1,27.74,7.86c4.76,1.92,9.18,2.23,14.1,3.25,7,1.47,11.3,7,14.94,12.7a122.28,122.28,0,0,1,8,14.81c1.86,4.06,3.82,8.19,1,12.53-1.52,2.37-6.3,4.92-8.5,6.81-7.14,6.15-13.36,13.13-19.77,20a101,101,0,0,1-10.06,9.68c-4.05,3.3-8.78,4.49-13.78,5.7-3.57.86-7.52,1.42-10.82,3.13-5.56,2.86-8.44,7.33-13.83,0-.28-.39-.93,0-.65.38Z"/><path class="cls-6" d="M941,461.35c-6.89-6.46-11.9-14.08-12.4-23.81-.26-5.14,1-10.19,2.36-15.1,1.93-6.68,3.74-14.74,12.09-14.83,3.59,0,7.47,1,11.07,1.32,4.76.44,9.45,1.15,14.2,1.7,5.72.65,12.22-1.43,14.79-7.18,1.32-2.95.25-6.12.34-9.17.16-5.3,2.73-4.53,4.48-7.75a3.79,3.79,0,0,0,.44-2.6c-.19-1.37-.71-1.29-1.2-2.52-.81-2-.86-1.18.58-2.8,1.11-1.26,2.59-2.4,1.83-4.36s-.79-.1-1.47-1.57l-.25-3.11q-1.64-3.58,2-4.77c.78-.47,1.62-.8,2.43-1.21,2.42-1.23,5.57-2.66,6.48-5.48,1.81-5.54-5.9-11.38-8.84-14.92-5-6-5.51-12.63-4.8-20.11.54-5.66,3.17-10.6,3.83-16.15.86-7.28-2.09-17.67-7.92-22.37-.37-.3-.91.23-.53.53,4.34,3.51,5.7,8.46,6.8,13.7,1.27,6,.41,10.3-1.41,16-2.58,8.17-3.43,19.11,1.63,26.47,2.42,3.52,5.7,6.32,8.23,9.75,2.37,3.21,3.08,7.4-.5,10.05-1.76,1.3-3.92,1.93-5.78,3s-4,2.88-4.06,5.39A4.3,4.3,0,0,0,986,372c.17.25.74.61.84.88,1.43.5,1.43,1.56,0,3.16.18,1.86-.52,2.94-2.11,3.24a.38.38,0,0,0-.08.59c4.43,4.46.71,6.82-1.13,9.87-1.08,1.79-1,4-.84,6,.26,4.08.57,7.26-2.59,10.4-3.43,3.4-7,4.28-11.71,3.78-5.46-.59-10.91-1.3-16.38-1.86-4.26-.44-9.43-2.16-13.61-.53-4.5,1.75-5.76,7.1-7.14,11.24-1.84,5.51-3.55,11.42-3.53,17.29,0,10.49,5.22,18.92,12.66,25.89.35.33.88-.2.53-.53Z"/><polygon class="cls-4" points="923.49 586.1 921.61 578.51 915.72 562.96 910.46 548.04 899.99 519.19 894.45 505.85 891.42 497.68 891.28 493.01 891.43 492.78 888.02 486.26 883.66 482.1 877.16 479.47 873.07 479.18 873.57 476.42 877.49 464.56 875.36 463.61 871.97 462.17 867.35 454.18 862.82 448.65 862.74 448.88 859.63 453.6 858.95 465.62 859.04 470.81 853.9 464.75 844.99 457.41 829.64 445.07 815.86 432.69 807.12 423.55 796.46 412.96 792.08 409.44 790.82 409.67 780.73 423.96 779.25 427.16 779.25 429.96 782.31 434.35 783.05 436.26 776.11 440.82 772.07 443.12 769.21 445.88 768.26 450.56 768.46 458.99 769.19 463.25 772.53 467.65 776.8 474.46 782.63 484.66 791.25 505.69 797.06 523.38 805.92 547.37 811.84 563 816.86 586.87 819.73 606.45 927 605.5 927 603.79 925.42 594.28 923.49 586.1"/><polygon class="cls-7" points="727.5 474.01 728.06 473.25 730.1 474.23 733.58 475.84 741.81 479.63 752.39 487.21 760.07 493.54 765.89 502.74 771.37 517.23 774.78 529.14 778.86 545.36 781.29 547.13 784.91 547.75 787.62 546.09 785.87 541.13 784.91 530.5 784.91 530.5 783.75 508.71 783.49 498.08 781.43 488.59 777.43 483.63 772.46 475.74 769.55 467.97 768.83 464.16 769.85 463.52 775.1 470.88 777.63 475.18 781.97 483 785.45 490.45 798.6 527.8 808.72 555.49 813.18 567.76 816.03 581.87 819.73 605.9 769.68 605.9 768.83 603.05 761.74 571.78 754.99 544.58 748.66 521.66 741.13 499.77 737.7 490.32 734.89 484.94 729.35 479.23 726.3 476.92 727.5 474.01"/><polygon class="cls-5" points="768.83 609.35 768.35 602.27 760.54 566.61 754.37 541.78 745.15 510.76 739.56 495.97 736.08 487.27 731.3 479.98 725.7 476.46 727.72 470.48 730.36 462.04 730.75 458 729.76 457.24 726.82 456.38 724.55 452.16 720.95 446.75 717.1 442.47 716.17 443.07 714.21 448.34 713.02 455.49 715.24 464.39 715.87 465.38 714.5 465.59 711.96 462.41 705.98 456.27 696.13 448.64 680.39 435.31 669.41 425.65 659.16 415.42 653.52 410.7 651.2 408.97 646.39 408.76 641.09 408.19 636.41 409.2 633.07 413.02 630.31 419.75 627.59 430.69 626.98 439.44 629.85 450.07 633.56 456.32 635.12 458.24 647.03 472.28 656.54 483.99 663.48 495.75 670.37 505.04 674.49 509.73 676.74 528.14 678.07 536.84 682.91 546.94 686.5 555.22 692.01 566.52 698.36 576.22 701.46 588.99 699.9 606.07 768.83 609.35"/><path class="cls-6" d="M819.1,271.7a54.58,54.58,0,0,1,13.52,34.66c.16,10.68-1.71,19.89,3.25,29.88,2.31,4.67,5.41,8.77,8.48,13,2.58,3.52,5.7,9.46.61,12.56-1.61,1-3.49,1.41-5.16,2.28-2,1.07-3.68,2.49-3.67,5a9.06,9.06,0,0,0,.87,3c.41,1.11,1.64,2.66,1.62,3.87,0,2.78-2.64,5.11-4.89,6.15a.37.37,0,0,0,0,.64c2.16,1.31,2.51,5.14.71,6.9l-2.46.75a2.73,2.73,0,0,0-.66-.39c-.39.21-.24-.39-.9.28-1.9,1.93-.79,6.21-.42,8.47.61,3.73.78,7-1.85,10.14-2.86,3.37-7.23,4.86-11.54,4.92-7,.11-13.44-2.69-20-4.49-7.63-2.08-16.08.43-19.83,7.7-4.78,9.25-6.94,20.57-8,30.81S767,470.06,773,479.05c3.57,5.34,9.25,8.64,10,15.55.4,3.48-.52,6.93-.21,10.41.15,1.73.52,3.4.64,5.14.56,8.62,1.17,17.11,1.68,25.68a39.74,39.74,0,0,0,.47,6.07,28.55,28.55,0,0,0,.92,3c-1.7,7.48-7.86-1-8.46-2.24-2.34-4.8-3.13-10.61-4.27-15.8-2.26-10.27-4.28-21.81-11.13-30.19-4.23-5.18-9.66-9.64-15-13.62-5.84-4.35-12.58-6.62-19-9.94-.43-.22-.81.43-.38.65,4.63,2.39,9.58,4.12,14.12,6.68a75.08,75.08,0,0,1,13.44,10.33c7.93,7.27,12.07,15.3,14.77,25.63,2.17,8.32,3.2,17.12,6.2,25.2,1.62,4.37,6.76,9.58,11.08,4.81a.39.39,0,0,0,.05-.46c-2-3.73-1.84-7.56-2.14-11.65-.21-2.81.31-5.81-.11-8.56a127.28,127.28,0,0,1-1.34-13c-.26-5.25-.62-10.27-.45-15.55.19-5.71-2.39-9.63-6.14-13.71-2.78-3-5.24-5.88-6.52-9.87a78,78,0,0,1-2.12-9.84c-1.42-7.62.18-16.6,1.54-24.17,2.16-12.07,5.79-31.08,21.63-30.32,7,.34,13.71,4.32,20.78,5.1,5,.56,10.18-.15,14.15-3.53,3.36-2.86,4.42-6.28,3.81-10.52-.43-3-2.06-6.86,1.08-8.82.31-.19.94.77,1.67.21,2.63-2,2.48-5.33,2.07-8.06-.27-1.85-1.34-.49.79-2.19,1.2-1,2.32-1.75,2.73-3.33s-.31-3.23-.93-4.74c-1.15-2.8-1.88-5.59.8-8.17,1-.93,2.79-1.26,4-1.8,3.31-1.47,6.06-3.5,5.42-7.55-1-6.21-7.55-11.79-10.63-17.13-5.06-8.77-5.44-17.13-4.85-27a56.09,56.09,0,0,0-13.57-40.55c-.31-.37-.84.17-.53.53Z"/><path class="cls-6" d="M763.18,321.47c11.56-4.66,17.12-13.76,22.34-24.51,3.49-7.19,7.66-12.84,14.44-17.31A77.9,77.9,0,0,1,821.42,270a.38.38,0,0,0,.26-.46c-.78-3.92-3.53-6.32-6.38-8.94a113.06,113.06,0,0,0-11.09-9.28c-8.29-5.87-17.9-8.84-27.8-10.62s-20.46-3.39-30.63-3.28-19.26,3.28-28.3,7.52c-.43.2-.05.85.38.64,8.65-4,17.33-7.15,27-7.4,8.49-.22,17.07,1.08,25.45,2.29,7.82,1.14,15.65,2.65,23,5.68,8.25,3.41,15,9,21.5,15a44.48,44.48,0,0,1,3.57,3.43,3.67,3.67,0,0,1,1.25,5.19c-1.08.32-2.15.67-3.22,1a77.43,77.43,0,0,0-7.9,3.23c-6.62,3.14-13.41,7.13-18,13-4,5-6.11,11.1-9.09,16.69-4.12,7.74-10.2,13.74-18.41,17-.44.18-.24.91.2.73Z"/><path class="cls-6" d="M718.53,467.7c-6.21-5.69-5.9-14-3.26-21.4,1.15-3.21,2.62-6.55,5.09-9,1.6-1.56,3.59-2.4,4.59-4.48,1.71-3.54-.64-14.4,3.21-16.06,2.49-1.06,6.55.45,9.1.82a54.09,54.09,0,0,0,8.9.56c4.33-.08,9.67-.35,13.69-2.06,4.18-1.77,4.53-6.24,5-10.36a26.2,26.2,0,0,0,.18-6.56c-.34-2.46-1.47-4.1-.33-6.41,1.27-2.6,3.1-3.91,2.21-7.22-.28-1.05-1.11-1.67-1.46-2.57-.75-1.94-1.59,1.17.23-1.26,1.57-2.1,2.85-3.13,1.87-5.91-1.28-3.61-4.56-8.31,1.78-9.67,1.59-.34,3.11.05,4.7-.58,2.16-.85,2.48-2.39,2.62-4.6.17-2.77-.11-4.54-1.91-6.5-3.92-4.27-6.74-8.91-10.1-13.59-1.54-2.14-3.55-4.66-3.68-7.4-.11-2.24,1.64-3.68,2-5.54a19.21,19.21,0,0,0-.47-6.75c-2.2-11.91-5-28.14-16-35.21-.41-.26-.78.38-.38.64,8.5,5.47,11.81,17.26,14,26.55.5,2.16.88,4.33,1.27,6.5s1.33,4.68,1,6.87c-.32,1.92-1.63,3.36-2,5.32-.69,3.81,2,7.08,4.06,10,3.28,4.54,6.14,8.91,9.8,13.16,3.39,3.95,2,10.12-3.78,10.39-1.54.07-2.77-.29-4,.76-5.2,4.27,4.24,13.16-3.12,16-.32.12-.4.63,0,.72,6.73,1.53-.51,8.33,0,12.18.42,3,1.19,5.59,1,8.73-.22,3.29-.48,9.15-3.61,11.16-3.36,2.16-8.92,2.22-12.77,2.42a52.93,52.93,0,0,1-8.81-.26c-3.13-.35-9.07-2.65-12.23-.56s-1.41,7.94-1.68,11c-.4,4.48-2.43,6.41-5.37,9.29a19.34,19.34,0,0,0-3.71,5.52c-4,8.37-5.64,19,1.88,25.92.36.33.89-.2.53-.53Z"/><path class="cls-6" d="M655.81,245.21c2.51-1.16,5-2.26,7.46-3.55,1.23-.65,2.78-1.79,4.15-1.94-1.88.2,3.36.28,2.92.35,1.95-.3,1.85-1,3.95-.23a.38.38,0,0,0,.47-.37l4.69-1.15c.14.33.58.18.68-.09l5.24-.65a.38.38,0,0,0,.51.13c1.67-1.21,2.42-1.29,3.4.58a.37.37,0,0,0,.51.14c3.64-2.65,7,.24,10.41,2,1.45.76,8.75,3.25,9,3.42a.38.38,0,0,0,.45.05c3.8-2.91,2.19-1.45,4.84.62,1.67,1.3,3,.85,5,.89,7.42.15,12.74,7.46,18.22,11.42,1.24.89,1,.41,2.39,1.17,3.32,1.81,3.93,2.84,5.89,5.62a89.16,89.16,0,0,0,6.76,8c6.91,7.68,10.18,17,3.84,26.31-.27.4.38.78.65.38a19.26,19.26,0,0,0,2.1-18.72c-2.89-6.6-9.15-11.09-13.1-17a15.14,15.14,0,0,0-4.64-4.91c-2.15-1.38-4.18-2.26-6.07-4.07a40.37,40.37,0,0,0-3.59-3.07,57.42,57.42,0,0,0-8.45-5.46c-3.08-1.52-9.22,1.73-10-4.31,0-.24-.31-.52-.56-.32-1.35,1-2.49,2.28-4.32,2-1-.18-2.13-1.08-3.2-1.33-4.62-1.08-8.43-3.22-12.69-5.43a.37.37,0,0,0-.38,0c-1.72,1.25-2.65,1.65-3.7-.36a.37.37,0,0,0-.51-.13c-2.79,2-2.82,0-5.59.3-1,.12-2.49,1.43-2.82,1.42-1.15,0-1.67-1.8-3.48-1.31-2.6.72-1.28,3.65-4.24,2.5a.39.39,0,0,0-.48.37c.1,1-5.13.45-6.13.78-1.59.54-2.91,2-4.41,2.84-1.77.93-3.68,1.61-5.49,2.45-.44.2-.06.85.38.65Z"/><path class="cls-6" d="M744.8,284.82c1.85,4.17,2.76,3.93-.78,2.07a26.14,26.14,0,0,0-8.16-2.42,55.48,55.48,0,0,0-18.76-.11.38.38,0,0,0-.23.55l-.5,1.36a.4.4,0,0,0-.27.37c.13,5.67-.84,10.89-2,16.41-.62,3.13-.72,6-1.58,9.15-1.07,3.89,2.6,8.82-2.44,11.1-1.76.8-3.28.82-5,2.07-6.87,5.13-11.72,17.81-10.77,26.25.05.48.8.48.75,0-.78-6.92,2.59-15.39,6.34-21a17.25,17.25,0,0,1,4.88-5.15c1.68-1.07,3.07-.79,4.76-1.43,2.16-.83,2.79-3.22,2.74-5.44s-.53-3.13-.15-5.47c-.05.26,1-3.69,1-4.05.26-2.25-.07-4.4.36-6.7.51-2.78,1.22-5.48,1.51-8.31.23-2.29-.27-5.37.83-7.41a8.92,8.92,0,0,1,.49-1.21c1.58-1.52,6.15-1.1,8.41-1.05,7.11.19,15.31.73,20.81,5.74a.38.38,0,0,0,.59-.45l-2.31-5.22c-.19-.44-.84-.06-.65.38Z"/><path class="cls-6" d="M651.75,409.84a116.29,116.29,0,0,1,14.8,13.42c5.07,5.25,10.82,9.69,16.13,14.68a158,158,0,0,0,14.52,11.95c5.9,4.35,12.28,8.9,16.22,15.23.52.83,2.82,4.35,2.44,5.11-.53,1.06-4-.14-4.7-.25a71.85,71.85,0,0,0-23.29.46c-2.53.47-4.89,1.55-7.48.5-2.12-.87-4.39-3.27-6.12-4.64-12.57-10.06-23.23-22.14-33.52-34.45-.31-.37-.84.17-.53.53,9.93,11.88,20.19,23.54,32.2,33.37a93.41,93.41,0,0,0,7.6,5.84c2.56,1.69,4,.37,7.13-.26a72.32,72.32,0,0,1,29.34.41.38.38,0,0,0,.46-.46c-4.2-14.3-19.43-20.92-29.76-30.13-6.45-5.75-13.22-11.38-19.26-17.56-5-5.14-10-10.1-15.8-14.4-.39-.29-.76.36-.38.65Z"/><path class="cls-6" d="M716.57,466.92a5.75,5.75,0,0,0,2.52,3.85c2.24,1.78,3.29,2.14,5.53,4.75.7.83,1.18,1.62,1.94,2.43a.38.38,0,0,0,.64-.26,50.94,50.94,0,0,1,4-16.53c.64-1.59,1.54-2.44.52-3.89-.31-.45-1.07-.24-1.47-.4-1.59-.61-2.8-.73-3.87-2a21.11,21.11,0,0,1-1.56-3,45.13,45.13,0,0,0-8-10.13.38.38,0,0,0-.53.53,48.05,48.05,0,0,1,6.05,7.08c1.43,2.08,2.25,4.69,3.71,6.7.39.54.46,1.1,1.09,1.46,2.26,1.3,4-.92,3,4.12-.37,1.92-1.53,3.89-2.06,5.79-.62,2.21-.68,4.68-1.36,6.83-.4,1.25.53,1.73-.83,1.36-.87-.24-1-1.18-1.54-1.76-2-2.12-6.51-4.29-7.07-7.08-.1-.47-.82-.27-.73.2Z"/><path class="cls-6" d="M726.72,478.05c5.8,2.27,9.1,10.52,11.46,15.71a234.76,234.76,0,0,1,10.67,29.83c6.24,20.74,11.23,41.87,15.82,63,1.3,6,2.5,12,3.8,18,.1.47.82.27.72-.2-3.36-15.64-6.61-31.28-10.4-46.82-5.29-21.64-10.71-43.92-20-64.27-2.45-5.4-5.85-13.69-11.9-16.05-.45-.18-.64.55-.2.72Z"/><path class="cls-6" d="M891.75,293c9.42,6.06,12.75,19.83,14.75,30.17.62,3.17,2,7.17,1.44,10.27-.8,4.15-3.31,5.71-.78,9.85,3.12,5.11,8,8.78,11.08,14a41.38,41.38,0,0,0,5.48,6.89c3.62,4.08,2.95,8.6-2.56,9.64-3.07.58-8.61,1.91-8.5,6.3.05,1.93,1.12,3,.43,5.21-.62,2-1,2.23-2.66,3.06-.34.17-4.44,1.3-4.44,1.29a.38.38,0,0,0-.38-.37,1.19,1.19,0,0,0-.78.26.39.39,0,0,0-.14.51v.35a.39.39,0,0,0-.36.28l-.1.46a.36.36,0,0,0,.17.42c1.53.68,3-.61,3.88,1.81,1.12,3-3.24,4.37-3.65,6.81-.19,1.12.59,2.25,1.06,3.22,1.64,3.42,3,6.66.73,10.15a24.23,24.23,0,0,1-4.24,4.69c-5.67,5-12.57,4.31-19.56,3.92-4.11-.24-7.87-.45-11.46,1.9a.36.36,0,0,0-.18.32l0,.34c.07.47.82.48.75,0-.41-3.05,18.92-1.37,20.79-1.55a19.56,19.56,0,0,0,15.31-10.62c1.24-2.69.69-4.85-.47-7.43s-1.93-4.15-.47-6.74c.55-1,1.44-1.53,1.82-2.69,1.29-3.89-.9-4.58-3.59-4.54a.41.41,0,0,0,.36-.28c.2-.9-.22-.36-.26-1.05a.39.39,0,0,0,.27.36c2.66.4,6-.46,7.44-2.79,1.87-3.05.12-6.31,1.41-9,2.77-5.65,8.5-1.65,11.36-5.4,1.7-2.23,1.41-6.8-.39-8.74-1.29-1.38-2.85-2.19-4.06-3.76a33,33,0,0,1-2.68-4.21,30.47,30.47,0,0,0-3.86-5.2,85,85,0,0,1-6.34-7.33,8.46,8.46,0,0,1-1.76-3.53c-.29-2.24,1.42-3.86,1.86-5.8,1-4.56-1.07-11-2.15-15.52-2.22-9.35-5.65-21.07-14.22-26.58-.41-.26-.78.39-.38.65Z"/><path class="cls-6" d="M864.13,474.07c-8.22-7.53-5.69-23,1.84-30.38,2.17-2.13,4.1-2.78,5-5.78,1.3-4.29,0-8.82.77-13.11.09-.47-.64-.67-.72-.2-.41,2.2,0,4.32-.08,6.56-.07,4.72-.8,7.51-4.34,11a24.32,24.32,0,0,0-5.81,8.64c-3.26,8-4.11,17.5,2.8,23.83.36.32.89-.21.53-.53Z"/><path class="cls-6" d="M803.16,250.78c2.14-1,4.19-2,6.26-3.07a11,11,0,0,1,5.52-1.4c.46,0,.92.18,1.38.14,2-.21,1-1.25,3.57-.25a.37.37,0,0,0,.47-.36l4.69-1.15c.14.32.59.18.68-.09l5.24-.66a.39.39,0,0,0,.52.14c1.66-1.21,2.41-1.3,3.39.58a.37.37,0,0,0,.51.13c3.64-2.64,7,.25,10.41,2,1.45.76,8.75,3.24,9,3.41a.38.38,0,0,0,.45.06c3.81-2.91,2.2-1.45,4.84.61,1.67,1.3,3,.85,5,.89,7.42.16,12.75,7.46,18.22,11.42,1.24.9,1,.42,2.39,1.17,3.32,1.81,3.93,2.85,5.89,5.62a91,91,0,0,0,6.76,8c6.91,7.68,10.19,17,3.84,26.31-.27.4.38.77.65.38A19.29,19.29,0,0,0,904.88,286c-2.9-6.61-9.16-11.09-13.11-17a15.24,15.24,0,0,0-4.64-4.91c-2.15-1.38-4.17-2.26-6.07-4.07a40.26,40.26,0,0,0-3.59-3.06,56.9,56.9,0,0,0-8.45-5.46c-3.08-1.52-9.22,1.72-10-4.31,0-.25-.31-.52-.57-.33-1.35,1-2.48,2.28-4.31,1.95-1-.17-2.14-1.08-3.2-1.32-4.63-1.08-8.44-3.22-12.7-5.44a.37.37,0,0,0-.38,0c-1.72,1.25-2.65,1.65-3.7-.35a.38.38,0,0,0-.51-.14c-2.78,2-2.82,0-5.59.3-1,.12-2.49,1.44-2.82,1.43-1.14,0-1.67-1.8-3.47-1.31-2.61.71-1.29,3.65-4.25,2.5a.38.38,0,0,0-.48.36c.1,1.06-5.09.44-6.08.77-.4.13-4.06,2.76-3.09,2.18a53.41,53.41,0,0,1-5.11,2.33c-.44.2-.06.85.38.65Z"/><path class="cls-6" d="M890.41,291.18c1.84,4.18,2.76,3.94-.78,2.08a26.12,26.12,0,0,0-8.17-2.42,55.74,55.74,0,0,0-18.76-.12.38.38,0,0,0-.22.56l-.5,1.36a.38.38,0,0,0-.28.36c.15,6.59-1.61,12.58-2.33,19a25.51,25.51,0,0,1-.6,5.13,17.24,17.24,0,0,0-.83,2.14c-.54,3.1,2.2,6-.06,9.11-1.47,2-5.63,3-7.73,4.37a18,18,0,0,0-4.33,3.79,12.06,12.06,0,0,0-2.58,9.12c0,.47.81.48.75,0-.48-4.57,1.42-8.26,5-11.11,2.59-2.07,6.62-2.64,8.87-4.87,1.77-1.77,1.55-3.94,1.42-6.15-.24-3.94,1-8.22,1.14-12.29.18-4.54,1.81-9,2-13.59.07-1.6-.1-4.45,1.13-5.8,2-2.17,9.22-1.11,12.1-.89,6.11.47,12.41,1.24,17.12,5.53a.37.37,0,0,0,.58-.45l-2.31-5.22c-.19-.44-.84-.06-.64.37Z"/><path class="cls-6" d="M791.26,409.3c7.7,5.74,13.94,12.89,20.54,19.8,6.11,6.41,13,12,19.48,18,5.49,5.08,11.84,9.09,17.66,13.78a54.69,54.69,0,0,1,7.44,7,28.06,28.06,0,0,1,3.61,5.24,8.36,8.36,0,0,1,1,2.3c.19,2.21-.41,1.3-2.37,1.2-8.92-.48-17.15-1.44-26.08.33-2.76.54-4.72,1.23-7.24-.18a35,35,0,0,1-4.79-3.81c-3.07-2.56-6-5.26-8.9-8-6.13-5.9-12-12.12-17.61-18.46-2.56-2.87-5.08-5.77-7.59-8.69-2-2.29-6.15-5.68-7.2-8.52-.67-1.8-.56.16-.19-1.38a9.48,9.48,0,0,1,1.5-2.21l4.58-6.74,6.65-9.8c.27-.4-.38-.77-.65-.38l-13.3,19.6a.38.38,0,0,0,.06.46c11,13.24,22.32,26.42,34.9,38.25,2.86,2.69,5.8,5.31,8.86,7.78,1.48,1.2,3.81,3.66,5.65,4.14,1.66.44,5.42-1.33,7.29-1.65a70.25,70.25,0,0,1,9.15-.95,73.61,73.61,0,0,1,18.36,1.69.38.38,0,0,0,.46-.46c-4.26-14.51-19.86-21.13-30.26-30.57-6.91-6.28-14.11-12.32-20.53-19.1s-12.59-13.71-20.12-19.32C791.25,408.36,790.87,409,791.26,409.3Z"/><path class="cls-6" d="M861.9,448.59a47,47,0,0,1,6,7.08c1.43,2.08,2.25,4.69,3.71,6.69.39.55.47,1.11,1.1,1.47,2.26,1.29,4-.92,3,4.11-.38,1.93-1.54,3.9-2.07,5.8-.62,2.21-.68,4.67-1.36,6.82-.4,1.26.53,1.73-.83,1.36-.87-.24-1-1.18-1.54-1.76-2-2.11-6.5-4.28-7.07-7.08-.1-.47-.82-.27-.73.2a5.76,5.76,0,0,0,2.52,3.85c2.24,1.78,3.3,2.15,5.53,4.76.7.83,1.18,1.62,1.94,2.43a.38.38,0,0,0,.64-.26,51.4,51.4,0,0,1,4-16.53c.64-1.59,1.55-2.44.52-3.9-.31-.45-1.06-.23-1.47-.39-1.59-.61-2.79-.73-3.87-2a22.14,22.14,0,0,1-1.56-3,45.26,45.26,0,0,0-8-10.12c-.35-.34-.88.19-.53.53Z"/><path class="cls-6" d="M872.33,484.42c5.74,2.24,9,10.32,11.42,15.47a230.36,230.36,0,0,1,10.65,29.3c6.27,20.55,11.28,41.49,15.88,62.46,1.3,5.93,2.51,11.87,3.79,17.8.1.47.82.27.72-.2-3.31-15.39-6.58-30.77-10.35-46.06-5.3-21.45-10.76-43.54-20-63.68-2.47-5.37-5.87-13.47-11.87-15.82-.45-.17-.65.55-.2.73Z"/><path class="cls-6" d="M768.2,462.67c8.38,9.77,13.76,22,18.55,33.79,5.1,12.6,9.4,25.52,13.88,38.35,2,5.87,4.12,11.73,6.4,17.5,1.71,4.32,3.84,8.48,5.11,13,3.06,10.82,4.56,22.2,6.06,33.33.06.47.81.48.75,0-1.46-10.88-3-21.92-5.82-32.53-1.3-4.85-3.53-9.29-5.37-13.95-2.46-6.2-4.67-12.5-6.86-18.8-4.7-13.51-9.24-27.1-14.77-40.31-4.54-10.85-9.68-21.86-17.4-30.86-.32-.36-.84.17-.53.53Z"/><path class="cls-6" d="M769.54,447.31c1.39-3.07,5.51-5.32,8.16-7.14,2.06-1.41,4.16-2.77,6.3-4.06a.37.37,0,0,0-.38-.64q-3.75,2.25-7.34,4.78c-2.48,1.74-6.09,3.82-7.39,6.68-.2.44.45.82.65.38Z"/><path class="cls-6" d="M873.57,479c7.24.23,12.9,4.21,16,10.66a12.25,12.25,0,0,1,1.29,3.33s-.22-.74-.22.19c0,5.35,2.43,10.18,4.34,15.12,8.4,21.75,16.9,43.49,24,65.72,3.29,10.31,7.08,21.26,7.68,32.16,0,.48.77.48.75,0-.86-15.68-7.26-31.61-12.35-46.28-6-17.19-12.51-34.15-19.07-51.11-.19-.47-6-15.25-4.72-15.42a.39.39,0,0,0,.37-.48,19.29,19.29,0,0,0-18.08-14.64c-.48,0-.48.73,0,.75Z"/><path class="cls-7" d="M655.11,247.23a34.65,34.65,0,0,1,2.16-3.1l8.6-4.14,5.54-.89,3.6-.79,12.69-1.52,5.53.39,5.71,2.21,6.58,2.62H713l3.16,2.46,4.3.48,7.45-4,11.9-2.81,15.74-.35,21.58,3.42,16.59,4.7,7.53,3.89.7.8,1,.49,1.43-1.61,11.51-4.11,7.65-1.44,11-.64,6.9.64,10.58,5,6.82-.27,3.92,2.9,8.46,1.59,6.38,4.4,11.42,9.33,8.86,10.19,6.58,9,1.55,5.5-1.25,8.63-3.25,5.11-1-3.44-2.89-4.19-4.44-4.22-1.35,0,.11,1.68-3.62-2.16L876,290.34h-6.45l-5.58.79L862.08,293,861,304,858.64,320l-.26,8.19-3.36,2.4-3.44,2.46L846.4,337l-2.4,3.62-.51,3-.53,3.08-3.84-6.39-3.55-7.1-2.77-7.15-.41-7.24L833,308l-.2-5.5-2-8.19L825.45,281l-3.7-6.67-3.16-4.13-6.43,2.63-7,3.3L799,280.24,793.75,284l-3.26,5-2,2.75L784.14,299l-2.78,5.56-5,7.32L771,316.73,765.63,320l-3.54,1.08-1.34-8.6-3-8.91-2-5-3.91-7L747.44,287l-1,.05.13,2-3.43-2.17-4.45-1.5-8.9-1.42h-8.26l-3.15.51-1.94,2.16,0,3.45-1.64,9.56-.48,9.33L713,314.39l.18,6.39L711,323.64l-4.66,2.07-4.72,3.41-3.09,4.64-3.79,17.86-7.6-8.81-3.16-6.2-.79-5.64.47-8.41.81-4.82,2.14-6.6.79-9.73-3.84-11-.08-7.58-15.43-8.15Z"/><polygon class="cls-7" points="985.81 274.13 978.7 262.22 969.77 250.21 965.57 247.34 957.56 245.55 952.02 244.48 940.36 239.98 930.64 237.22 916.36 234.4 904.32 233.27 897.41 233.76 886.92 234.98 878.19 237.08 872.05 239.88 867.56 242.21 860.25 247.2 853.01 253.77 871.39 266.86 886.84 277.38 898.24 288.41 905.74 317.99 907.38 326.51 908.43 331.57 910.24 335.94 915.96 336.87 920.89 333.19 930.61 329.65 945.31 324.79 953.07 318.3 961.53 309.82 973.76 296.93 984.45 287.65 987.02 280.83 985.81 274.13"/><polygon class="cls-4" points="681.27 567.89 681.78 565.89 683.55 566.42 686.35 573.26 687.92 580.41 691.52 598.29 693.35 606.55 688.73 606.55 684.37 596.47 679.65 584.7 671.01 571.2 666.99 565.97 667.66 565.06 671.41 567.08 674.64 568.68 677.87 569.03 679.78 569.09 681.27 567.89"/><polygon class="cls-5" points="499.36 607.29 499.97 603.68 500.66 595.93 503 576.66 503.86 568.15 504.47 558.34 506.25 551.98 511.07 546.76 515.52 535.04 520.04 518.45 526.49 493.23 531.17 482.71 535.03 477 541.88 473.3 552.66 469.8 558.7 469.05 568.42 467.92 577.09 467.5 583.52 467.45 588.56 468.86 595.31 472.62 604.53 480.13 613.83 489.58 620.64 496.83 631.21 506.79 635.6 510.11 638.25 514.38 643.55 528.33 645.01 535.46 647.31 541.67 652.27 547.47 658.98 555.58 669.68 570.24 676.82 579.34 689.78 608.15 499.36 607.29"/><polygon class="cls-5" points="693.84 608.74 691.77 599.48 687.28 578.14 684.48 569.59 682.03 564.84 679.99 559.67 675.23 551.16 667.7 533.88 664.4 515.68 660.84 498.45 658.3 491.08 654.8 486.28 646.93 479.22 640.85 469.67 639.52 462.58 640.65 461.58 649.65 470.92 662.47 488.53 669.15 498.6 672.92 504.78 674.25 510.69 676.04 520.38 676.94 532.47 678.39 539.59 681.59 547.12 691.09 565.41 696.01 573.4 697.9 578.91 699.93 583.25 701.22 591.59 700.07 600.33 699.66 607.03 693.84 608.74"/><path class="cls-6" d="M500,605.58c1-11.27,2.78-22.48,3.92-33.74.52-5.17.17-10.68,1-15.77.51-3.21,3.19-4.35,4.94-6.73,1.3-1.78,1.68-3.81,2.63-5.82C520.7,526,522,506,528.61,487.9a34.06,34.06,0,0,1,2.89-6.25c2.81-4.56,7.55-6.84,12.43-8.64,7.55-2.78,15.61-3.85,23.59-4.63,8.46-.83,16.56-1.81,24.31,2.49,6.58,3.66,12.21,9.09,17.43,14.44,5,5.12,9.69,10.51,14.79,15.51a97.72,97.72,0,0,0,8,7.1c1.76,1.39,3.66,2.44,4.82,4.4,4.53,7.59,5.69,17.42,8.62,25.69a20.5,20.5,0,0,0,5.84,9c5.66,5.58,9.81,12.48,14.88,18.57a120.61,120.61,0,0,1,20.5,36.55c.15.45.88.25.72-.2a127.37,127.37,0,0,0-17.24-32.58c-4.15-5.65-8.59-11.16-12.91-16.68-3.42-4.36-8.2-7.6-10.29-12.8-3.45-8.57-4.8-17.94-8.67-26.34-2-4.34-6-6.2-9.52-9.34-6-5.28-11.23-11.28-16.71-17.06-9.17-9.67-19.86-20.73-34.17-20.36a148.52,148.52,0,0,0-22.55,2.43c-7,1.26-15.23,3.25-20.91,7.75-7,5.52-8.83,17.55-10.88,25.6-2.85,11.19-5.06,22.65-8.81,33.59-1.84,5.38-4.16,11.28-8.09,15.29-3.56,3.66-2.49,7.5-2.83,12.41-.95,14-3.34,27.78-4.61,41.71,0,.49.71.48.75,0Z"/><path class="cls-6" d="M664.51,563.56c3.61,2.87,10.26,7.05,15.19,5.92,8.41-1.93-2.77-16-4.61-19.34-2.55-4.57-5.2-9.2-6.53-14.29-1.12-4.27-1.82-8.67-2.57-13-1.56-9.14-2.8-18.5-5.63-27.36A25,25,0,0,0,657,488c-3.75-5-9.39-7.62-12.75-13.11a29.49,29.49,0,0,1-3.5-8.4c-.29-1.2-1.75-4.24-.19-4.5.51-.09,3.17,3.39,3.55,3.81a246.91,246.91,0,0,1,15.73,19.62q5.81,8,11,16.47c2.16,3.55,2.79,6.38,3.36,10.45,1.11,8,1.55,16.08,3,24,.91,4.84,4,8.74,5.81,13.3a95.6,95.6,0,0,0,10.47,19.78c6,8.72,9.19,22.34,6.5,32.81a.38.38,0,0,0,.73.2c2.51-9.79-.06-23.64-5.61-32-2.53-3.79-5.38-7.38-7.5-11.43s-3.34-8.75-5.32-13c-1.34-2.87-3.35-5.49-4.1-8.59a64.19,64.19,0,0,1-1.06-6.76c-.71-5.49-1.26-11-2-16.5-.41-3.16-.61-6.61-1.86-9.57-1.8-4.24-5.11-8.35-7.67-12.17q-4-6-8.36-11.73c-5.37-7.11-11-14.27-17.43-20.45a.38.38,0,0,0-.64.27,30.78,30.78,0,0,0,6.15,17.3c3.5,4.59,9.3,7.25,12.1,12.31,4.85,8.74,5.73,20.3,7.37,30,1.73,10.13,3.43,18.95,8.36,28.06,2,3.7,4.17,7.31,6.17,11,.81,1.49,2.61,3.94,2.66,5.71.1,4.14-3.24,4.4-5.89,3.83-3.52-.76-8.22-3.44-11-5.68-.38-.3-.91.23-.53.53Z"/><path class="cls-6" d="M682.47,566.08c3.15,4.63,4.1,11.59,5.38,16.93a142.83,142.83,0,0,1,3.55,17.6c.05.48.8.48.75,0a144.18,144.18,0,0,0-3.58-17.8c-1.3-5.42-2.24-12.4-5.46-17.1-.27-.4-.92,0-.64.37Z"/><path class="cls-6" d="M606.83,333.12c1.68,2.28,3.73,5,6.89,4.77,3.58-.26,6.28-3.95,9.53-5.2,7.8-3,16.46-2.8,23.19-8.27,8.33-6.78,14.93-15.44,22.55-23,4.6-4.55,9.61-8.44,14.56-12.58,4.24-3.55,3.79-6.19,1.76-11.07-4-9.65-9.83-23.19-19.15-29-4.69-2.91-10.16-2.27-15.29-3.8-6.12-1.82-11.76-4.81-18-6.43-20.4-5.33-43.8-7-63.34,2.43-10.08,4.86-18.36,13.91-25.44,22.36a140.64,140.64,0,0,0-10.82,14.52c-2,3.16-5.42,6.93-6,10.81-.07.48.65.68.72.2.38-2.73,2.4-5.06,3.83-7.32a157.2,157.2,0,0,1,9.74-14,134.75,134.75,0,0,1,19.23-20c15-12.53,38.82-14.83,57.53-11.4a140.27,140.27,0,0,1,27.74,7.86c4.76,1.92,9.19,2.23,14.1,3.25,7,1.47,11.3,7,14.95,12.7a123.68,123.68,0,0,1,8,14.81c1.85,4.06,3.82,8.19,1,12.54-1.52,2.37-6.3,4.92-8.49,6.8-7.14,6.15-13.37,13.14-19.78,20a100,100,0,0,1-10.06,9.68c-4,3.31-8.78,4.49-13.77,5.7-3.58.86-7.53,1.42-10.83,3.13-5.56,2.86-8.44,7.34-13.82,0-.29-.39-.94,0-.65.38Z"/><path class="cls-6" d="M639.79,462.31c-6.89-6.46-11.9-14.08-12.39-23.8-.27-5.15.94-10.2,2.36-15.11,1.93-6.68,3.73-14.74,12.08-14.83,3.59,0,7.47,1,11.07,1.32,4.77.44,9.46,1.15,14.2,1.7,5.73.65,12.22-1.43,14.79-7.17,1.32-2.95.25-6.12.34-9.18.17-5.3,2.74-4.53,4.49-7.75a3.84,3.84,0,0,0,.43-2.6c-.19-1.37-.71-1.29-1.2-2.51-.81-2-.86-1.19.58-2.81,1.11-1.26,2.59-2.4,1.83-4.36s-.78-.09-1.47-1.57l-.25-3.1c-1.08-2.39-.41-4,2-4.78.78-.46,1.63-.8,2.44-1.21,2.41-1.23,5.56-2.65,6.48-5.48,1.8-5.54-5.9-11.38-8.85-14.92-5-6-5.51-12.63-4.8-20.11.54-5.65,3.17-10.6,3.83-16.15.86-7.28-2.09-17.66-7.92-22.37-.37-.3-.9.23-.53.53,4.34,3.51,5.71,8.46,6.8,13.7,1.27,6.05.42,10.3-1.4,16-2.59,8.17-3.44,19.11,1.62,26.47,2.42,3.52,5.71,6.33,8.23,9.76,2.37,3.21,3.08,7.39-.5,10-1.76,1.31-3.92,1.93-5.78,3.06s-4,2.87-4.06,5.38a4.3,4.3,0,0,0,.65,2.42c.17.25.74.61.84.88,1.43.51,1.43,1.56,0,3.16.18,1.86-.53,3-2.12,3.25a.37.37,0,0,0-.08.58c4.43,4.47.71,6.83-1.13,9.87-1.08,1.79-1,4-.83,6,.26,4.08.56,7.26-2.6,10.4-3.43,3.4-7,4.29-11.71,3.78-5.46-.59-10.91-1.3-16.38-1.86-4.25-.44-9.43-2.16-13.6-.53-4.51,1.75-5.76,7.1-7.14,11.24-1.84,5.52-3.56,11.42-3.54,17.29,0,10.49,5.23,18.92,12.66,25.89.35.33.88-.2.53-.53Z"/><polygon class="cls-4" points="622.32 587.06 620.44 579.47 614.55 563.92 609.29 549.01 598.82 520.15 593.29 506.81 590.26 498.64 590.12 493.98 590.26 493.74 586.86 487.23 582.49 483.06 575.99 480.44 571.9 480.14 572.41 477.38 576.32 465.52 574.2 464.57 570.8 463.13 566.18 455.14 561.65 449.62 561.57 449.84 558.46 454.56 557.78 466.58 557.87 471.77 552.73 465.71 543.83 458.37 528.48 446.04 514.69 433.65 505.95 424.51 495.29 413.92 490.91 410.4 489.66 410.63 479.56 424.92 478.08 428.12 478.08 430.93 481.14 435.31 481.88 437.22 474.94 441.78 470.9 444.08 468.05 446.84 467.09 451.52 467.3 459.95 468.02 464.21 471.37 468.61 475.63 475.42 481.46 485.62 490.09 506.65 495.89 524.34 504.76 548.34 510.68 563.96 515.69 587.83 518.57 607.41 625.84 606.47 625.84 604.75 624.25 595.24 622.32 587.06"/><polygon class="cls-7" points="426.33 474.98 426.89 474.21 428.94 475.19 432.41 476.8 440.65 480.59 451.23 488.17 458.9 494.5 464.72 503.7 470.21 518.19 473.61 530.1 477.69 546.32 480.12 548.09 483.74 548.71 486.45 547.05 484.7 542.09 483.74 531.46 483.74 531.46 482.58 509.67 482.32 499.04 480.27 489.55 476.27 484.6 471.29 476.7 468.38 468.93 467.66 465.12 468.68 464.48 473.93 471.84 476.47 476.14 480.8 483.96 484.28 491.41 497.43 528.77 507.55 556.45 512.01 568.72 514.86 582.83 518.57 606.87 468.51 606.87 467.66 604.01 460.58 572.74 453.83 545.54 447.49 522.62 439.96 500.73 436.53 491.28 433.73 485.9 428.19 480.19 425.13 477.88 426.33 474.98"/><polygon class="cls-5" points="467.66 610.32 467.18 603.23 459.38 567.57 453.2 542.74 443.99 511.72 438.39 496.93 434.91 488.23 430.14 480.94 424.53 477.42 426.56 471.44 429.19 463 429.58 458.96 428.59 458.2 425.66 457.34 423.39 453.12 419.78 447.71 415.93 443.43 415 444.03 413.04 449.3 411.85 456.45 414.07 465.36 414.7 466.34 413.34 466.55 410.8 463.37 404.81 457.23 394.97 449.6 379.23 436.27 368.25 426.61 358 416.38 352.36 411.67 349.39 410.75 346.35 412.3 342.63 419.68 339.95 430.44 338.23 441.59 338.23 455.15 338.59 458.9 340.59 462.71 348.72 470.92 356.9 482.12 365.75 494.75 371.99 504.78 373.32 510.69 375.57 529.11 376.9 537.8 381.74 547.9 385.33 556.18 390.84 567.48 397.19 577.18 400.29 589.95 398.73 607.03 467.66 610.32"/><polygon class="cls-5" points="380.34 567.89 380.85 565.89 382.63 566.42 385.42 573.26 386.99 580.41 390.6 598.29 392.42 606.55 387.8 606.55 383.44 596.47 378.72 584.7 370.08 571.2 366.06 565.97 366.73 565.06 370.48 567.08 373.71 568.68 376.94 569.03 378.85 569.09 380.34 567.89"/><polygon class="cls-4" points="198.43 607.29 199.04 603.68 199.73 595.93 202.07 576.66 202.93 568.15 203.54 558.34 205.31 551.98 210.14 546.76 214.59 535.04 219.11 518.45 225.56 493.23 230.24 482.71 234.1 477 240.95 473.3 251.73 469.8 257.77 469.05 267.49 467.92 276.16 467.5 282.59 467.45 287.63 468.86 294.38 472.62 303.6 480.13 312.9 489.58 319.71 496.83 330.28 506.79 334.67 510.11 337.32 514.38 342.63 528.33 344.08 535.46 346.38 541.67 351.34 547.47 358.05 555.58 368.75 570.24 375.89 579.34 388.85 608.15 198.43 607.29"/><polygon class="cls-4" points="392.91 608.74 390.84 599.48 386.35 578.14 383.55 569.59 381.1 564.84 379.06 559.67 374.3 551.16 366.77 533.88 363.47 515.68 359.9 498.45 357.37 491.08 353.87 486.28 346 479.22 339.92 469.67 338.59 462.58 339.72 461.58 348.72 470.92 361.54 488.53 368.22 498.6 371.99 504.78 373.32 510.69 375.11 520.38 376.01 532.47 377.46 539.59 380.66 547.12 390.16 565.41 395.08 573.4 396.97 578.91 399 583.25 400.29 591.59 399.14 600.33 398.73 607.03 392.91 608.74"/><path class="cls-6" d="M517.94,272.66a54.64,54.64,0,0,1,13.52,34.66c.15,10.69-1.72,19.9,3.24,29.88,2.32,4.67,5.42,8.77,8.48,13,2.58,3.52,5.7,9.46.62,12.56-1.62,1-3.5,1.41-5.17,2.28-2,1.07-3.68,2.49-3.67,5a9.29,9.29,0,0,0,.87,3c.41,1.11,1.65,2.66,1.62,3.87-.05,2.78-2.63,5.11-4.89,6.15a.38.38,0,0,0,0,.65c2.16,1.3,2.52,5.13.72,6.89l-2.47.75a2.67,2.67,0,0,0-.65-.39c-.4.21-.25-.39-.9.28-1.91,1.94-.8,6.22-.43,8.48.61,3.72.78,7.05-1.84,10.13-2.87,3.37-7.23,4.86-11.54,4.93-7,.1-13.45-2.7-20-4.5-7.63-2.08-16.08.43-19.83,7.7-4.77,9.25-6.94,20.57-8,30.81S465.82,471,471.83,480c3.57,5.33,9.25,8.63,10.05,15.54.4,3.48-.53,6.93-.22,10.41.16,1.73.52,3.4.64,5.14.56,8.62,1.18,17.12,1.68,25.68a42.45,42.45,0,0,0,.47,6.07c0-.09.87,3.19.92,3-1.7,7.47-7.86-1-8.46-2.25-2.34-4.8-3.13-10.61-4.27-15.8-2.25-10.27-4.28-21.81-11.12-30.19-4.24-5.18-9.67-9.63-15-13.62-5.84-4.35-12.58-6.62-19-9.94-.43-.22-.81.43-.38.65,4.63,2.39,9.58,4.12,14.12,6.68a75.62,75.62,0,0,1,13.45,10.33c7.92,7.27,12.06,15.3,14.76,25.63,2.18,8.32,3.21,17.12,6.2,25.2,1.62,4.37,6.76,9.58,11.08,4.81a.4.4,0,0,0,.06-.45c-2-3.74-1.85-7.57-2.15-11.66-.2-2.81.32-5.8-.1-8.56a127.39,127.39,0,0,1-1.35-13c-.26-5.26-.61-10.28-.44-15.56.18-5.71-2.39-9.63-6.14-13.71-2.79-3-5.24-5.88-6.53-9.86a78.48,78.48,0,0,1-2.12-9.85c-1.41-7.62.19-16.6,1.54-24.17,2.16-12.07,5.79-31.08,21.63-30.32,7,.34,13.71,4.32,20.79,5.1,5,.56,10.18-.15,14.14-3.53,3.36-2.86,4.42-6.28,3.81-10.51-.43-3-2.06-6.87,1.08-8.83.31-.19.94.77,1.68.21,2.62-2,2.48-5.33,2.07-8.06-.28-1.84-1.35-.48.78-2.18,1.21-1,2.32-1.75,2.74-3.33s-.32-3.24-.94-4.75c-1.15-2.8-1.88-5.59.8-8.17,1-.93,2.8-1.26,4-1.8,3.31-1.47,6.06-3.5,5.42-7.55-1-6.21-7.55-11.79-10.63-17.12-5.06-8.78-5.43-17.14-4.85-27a56.1,56.1,0,0,0-13.56-40.55c-.32-.37-.85.17-.53.53Z"/><path class="cls-6" d="M462,322.43c11.55-4.66,17.11-13.76,22.33-24.51,3.49-7.19,7.66-12.84,14.44-17.31A78.2,78.2,0,0,1,520.25,271a.38.38,0,0,0,.26-.46c-.78-3.92-3.53-6.32-6.38-8.94A113.06,113.06,0,0,0,503,252.3c-8.29-5.87-17.89-8.84-27.8-10.62s-20.46-3.39-30.63-3.27-19.25,3.27-28.29,7.51c-.44.2-.06.85.38.65,8.64-4.06,17.33-7.16,27-7.41,8.48-.22,17.06,1.08,25.44,2.29,7.83,1.14,15.65,2.65,23,5.68,8.24,3.41,15,9,21.49,15a41.42,41.42,0,0,1,3.57,3.44,3.65,3.65,0,0,1,1.26,5.18c-1.08.32-2.16.67-3.22,1A78.54,78.54,0,0,0,507.3,275c-6.61,3.14-13.41,7.13-18,13-3.95,5-6.11,11.1-9.08,16.69-4.13,7.74-10.21,13.74-18.41,17-.45.18-.25.91.2.73Z"/><path class="cls-6" d="M199,605.58c1-11.27,2.78-22.48,3.92-33.74.52-5.17.17-10.68,1-15.77.51-3.21,3.19-4.35,4.94-6.73,1.3-1.78,1.67-3.81,2.62-5.82C219.77,526,221,506,227.68,487.9a34.06,34.06,0,0,1,2.89-6.25c2.81-4.56,7.55-6.84,12.43-8.64,7.55-2.78,15.61-3.85,23.59-4.63,8.46-.83,16.56-1.81,24.31,2.49,6.58,3.66,12.21,9.09,17.43,14.44,5,5.12,9.69,10.51,14.79,15.51a97.72,97.72,0,0,0,8,7.1c1.76,1.39,3.66,2.44,4.82,4.4,4.53,7.59,5.69,17.42,8.62,25.69a20.5,20.5,0,0,0,5.84,9c5.66,5.58,9.81,12.48,14.88,18.57a120.61,120.61,0,0,1,20.5,36.55c.15.45.88.25.72-.2a127.09,127.09,0,0,0-17.25-32.58c-4.14-5.65-8.58-11.16-12.9-16.68-3.42-4.36-8.2-7.6-10.3-12.8-3.44-8.57-4.79-17.94-8.66-26.34-2-4.34-6-6.2-9.52-9.34-6-5.28-11.23-11.28-16.71-17.06C302,477.49,291.28,466.43,277,466.8a148.52,148.52,0,0,0-22.55,2.43c-6.95,1.26-15.23,3.25-20.91,7.75-7,5.52-8.83,17.55-10.88,25.6-2.85,11.19-5.06,22.65-8.81,33.59-1.84,5.38-4.16,11.28-8.09,15.29-3.56,3.66-2.5,7.5-2.83,12.41-1,14-3.34,27.78-4.61,41.71,0,.49.71.48.75,0Z"/><path class="cls-6" d="M363.58,563.56c3.61,2.87,10.26,7.05,15.19,5.92,8.41-1.93-2.77-16-4.61-19.34-2.55-4.57-5.2-9.2-6.53-14.29-1.12-4.27-1.82-8.67-2.57-13-1.56-9.14-2.8-18.5-5.63-27.36A25,25,0,0,0,356,488c-3.75-5-9.39-7.62-12.75-13.11a29.49,29.49,0,0,1-3.5-8.4c-.29-1.2-1.75-4.24-.19-4.5.51-.09,3.17,3.39,3.55,3.81a246.91,246.91,0,0,1,15.73,19.62q5.79,8,11,16.47c2.16,3.55,2.79,6.38,3.36,10.45,1.11,8,1.55,16.08,3,24,.91,4.84,4,8.74,5.81,13.3a95.6,95.6,0,0,0,10.47,19.78c6,8.72,9.19,22.34,6.5,32.81a.38.38,0,0,0,.73.2c2.51-9.79-.06-23.64-5.62-32-2.52-3.79-5.37-7.38-7.49-11.43s-3.34-8.75-5.32-13c-1.34-2.87-3.35-5.49-4.1-8.59a64.19,64.19,0,0,1-1.06-6.76c-.71-5.49-1.26-11-2-16.5-.41-3.16-.61-6.61-1.86-9.57-1.8-4.24-5.11-8.35-7.67-12.17q-4-6-8.36-11.73c-5.37-7.11-11-14.27-17.43-20.45a.38.38,0,0,0-.64.27,30.78,30.78,0,0,0,6.15,17.3c3.5,4.59,9.3,7.25,12.1,12.31,4.85,8.74,5.73,20.3,7.37,30,1.73,10.13,3.43,18.95,8.36,28.06,2,3.7,4.17,7.31,6.17,11,.81,1.49,2.61,3.94,2.66,5.71.1,4.14-3.24,4.4-5.89,3.83-3.52-.76-8.22-3.44-11-5.68-.38-.3-.91.23-.53.53Z"/><path class="cls-6" d="M381.54,566.08c3.15,4.63,4.1,11.59,5.38,16.93a144.71,144.71,0,0,1,3.55,17.6c0,.48.8.48.75,0a144.18,144.18,0,0,0-3.58-17.8c-1.3-5.42-2.24-12.4-5.46-17.1-.27-.4-.92,0-.64.37Z"/><path class="cls-6" d="M259.15,469.61c-7.78,10.11,0,24.58,1.85,35.37,1.61,9.55,1.91,19.38,2.83,29,1,10.85,2.61,21.66,3.83,32.5,1.47,13,2.94,26.38,6.73,39a.37.37,0,0,0,.72-.2c-3.77-12.53-5.23-25.81-6.7-38.77-1.19-10.53-2.71-21.06-3.74-31.6-.92-9.29-1.42-18.64-2.63-27.9-1.48-11.39-10.3-26.53-2.24-37,.29-.38-.36-.75-.65-.38Z"/><path class="cls-6" d="M238.74,474.52c5.28-3.61,9-8.55,12.53-13.8,4.11-6.12,7.63-12,9.08-19.32,3-15,5.27-31.55.26-46.37-.15-.45-.88-.26-.72.2,4.85,14.34,2.59,29.79,0,44.37a47.13,47.13,0,0,1-7.51,18.06c-4,6-8,12.07-14,16.21-.39.27,0,.92.38.65Z"/><path class="cls-6" d="M305,333.64c-1.12-4.1-7.85-7.87-11.51-9.35a14.74,14.74,0,0,0-10.73-.52c-7.77,3-13.11,16.33-8.79,23.61,3.07,5.16,8.5,9.65,12.74,13.85s9.06,10.24,14.38,12.95,14.3-5.32,9.6-10.15c-.34-.35-.87.18-.53.53q1.49,3.79-.84,6.39-2.7,4.83-9.8,1.16a20.81,20.81,0,0,1-3.48-3.09q-3.8-3.43-7.47-7c-4.71-4.59-10.4-9.42-13.78-15.1-3.89-6.54.39-18.15,7-21.85,4-2.23,9-1.34,12.89.61,3.1,1.55,8.66,4.7,9.61,8.18a.37.37,0,0,0,.72-.2Z"/><path class="cls-6" d="M294.77,346.15c5.2-3.57,6.36-7.44,3.37-13.23-2.35-4.54-6.65-7.59-11.76-5.11-5.39,2.63-8.33,10.27-7.54,15.95.9,6.58,6.38,11.27,11.15,15.29.37.31.9-.22.53-.53-6.42-5.41-13.09-11.91-10.35-21.13,1.44-4.87,5.85-11.18,11.8-9.52,2.72.76,4.31,3.12,5.52,5.43,2.52,4.84,1.15,9.29-3.1,12.2-.4.27,0,.92.38.65Z"/><path class="cls-6" d="M302.09,346.54c-2.24-.08-4.27-.71-5.76,1.06a24.83,24.83,0,0,0-2.19,3.91c-.43.77-1.43,1.94-1.46,2.89-.11,4,8.14,5.9,11,6.16,1.67.15,7.94-.11,4.95-3a10.73,10.73,0,0,0-2.84-1.5c-3.08-1.55-2.42-3.42-2.07-6.3.21-1.73.11-3.19-1.62-3.95-.44-.19-.82.46-.38.65,1.76.77,1.15,3.39.94,4.65a8.19,8.19,0,0,0-.25,1.62,4,4,0,0,0,.47,2.11,4.53,4.53,0,0,0,1.83,1.56c1,.57,4.75,1.27,2.5,3.28-1.15,1-5.22-.08-6.46-.4a16,16,0,0,1-5-2.2c-1.82-1.24-1.93-2.71-1.2-4.71a14.42,14.42,0,0,1,1.36-2.43,6.87,6.87,0,0,1,2.52-2.74c.7-.3,2.95.05,3.7.08.48,0,.48-.73,0-.75Z"/><path class="cls-6" d="M304.81,333.79c3.86,5.18,7.4,5.5,12.55,1.85,6.42-4.54,14.14-4.81,21.4-7.35,7.9-2.77,14.24-10.19,19.85-16.09,7.76-8.16,15.28-16,23.93-23.26,2.29-1.92,3.8-3.38,3.44-6.51-.48-4.21-3.49-9-5.38-12.74-3.85-7.57-8.67-17.52-16.65-21.57-3.93-2-8.28-1.62-12.46-2.64-5.09-1.23-9.79-3.81-14.75-5.45a114.91,114.91,0,0,0-25.22-5.34c-16.16-1.45-35.68.29-49.21,10.12-14.35,10.43-24.82,25.24-34.27,40-4.2,6.56-7.58,12.77-8.43,20.65-1.22,11.24,0,22.67,1.79,33.78,1.7,10.48,3.88,21.27,7.77,31.18,3.15,8,9.26,18.93,4.79,27.42-2.57,4.88-7.46,8.23-9.42,13.48-1.17,3.14-.2,3.58-3.51,4.72-1.48.51-3.12.44-4.59,1.12-3.73,1.72-5,5.16-6.09,8.87a83,83,0,0,0-3.2,16.22c-.73,8.63,1,18,8.8,22.92,9.46,6,21.23,3.33,31.35.87.47-.11.27-.84-.2-.72-13.65,3.31-33.93,6-38.52-11.82-1.69-6.6-.66-13.63.73-20.18a73,73,0,0,1,2.44-9.32c2.07-5.8,6.69-7.1,12.34-7.45a.38.38,0,0,0,.38-.37c.09-8.61,8.48-12.53,11.07-20,1.59-4.61.25-9.81-1.18-14.28-1.76-5.47-4.33-10.64-6.1-16.11a181.94,181.94,0,0,1-5.66-23.95c-2.71-15.22-5.55-33.69,1-48.28,2.65-5.88,6.94-11.53,10.5-16.88a145.47,145.47,0,0,1,13.71-17.4c8.7-9.55,18.24-17.72,30.94-21.16A92.15,92.15,0,0,1,321.21,237a125.22,125.22,0,0,1,18.32,4.79c3.42,1.28,6.71,2.92,10.21,4s7.5.89,11.14,1.93c8.28,2.37,13.1,11.44,17,18.45,1.86,3.36,3.58,6.8,5.12,10.31a20.73,20.73,0,0,1,1.6,3.88,15.48,15.48,0,0,1-1.29,7c-.81,1.25-3.51,2.72-4.74,3.74-6.42,5.31-12,11.47-17.7,17.56s-11.74,13.34-19,17.44c-5.51,3.12-12.38,3.53-18.35,5.37a19.52,19.52,0,0,0-5.71,2.87c-4.7,3.31-8.28,4.52-12.38-1-.28-.39-.93,0-.64.38Z"/><path class="cls-6" d="M260.35,395.49c2.69-.53,4.19-.43,5.07-3.14,1.5-4.59.13-10.32-.36-15-1.21-11.31-1.72-24.69,8.93-31.84.4-.27,0-.92-.38-.65-5.95,4-8.94,10.45-9.78,17.45-.63,5.31,0,10.68.58,16,.6,5.55,3,15-4.26,16.46-.47.09-.27.82.2.72Z"/><path class="cls-6" d="M339,460.51c-.64-5.15-1.26-9.73-.77-14.9a119.47,119.47,0,0,1,2.62-17.26c1.23-5,2.85-14.41,7.57-17.33,4-2.46,9.59-.49,13.87,0,4.43.48,8.89.72,13.3,1.38,6.83,1,12.7,1.14,17.27-4.87,1.88-2.46,1.84-5.12,1.62-8.09-.06-.94-.22-1.88-.19-2.81.12-3.81,1.53-4.48,3.57-6.72.78-.87,1.22-1.15,1.41-2.34.37-2.22-2.17-3.35-2.2-5,0-2,3.92-2.47,3.45-5.37-.12-.71-.49-1-.72-1.62,0,0-2.41-3.47-.85-.59-2.53-4.67-1.16-6.13,1.76-7.89,2.68-1.61,6.22-2.46,8.08-5.18,3.48-5.09-2.89-10.75-6-14.18-5.12-5.63-7.44-11.08-7.07-18.78.3-6.06,1.26-12,1-18.13-.39-9.75-3.6-19.19-11.5-25.33-.38-.29-.91.24-.53.53,9.67,7.52,11.81,19.59,11.22,31.21-.46,9.25-3,18.92,2.92,27,2.6,3.56,6.94,6.55,8.83,10.56,3.55,7.56-3.19,8.92-7.95,12-1.92,1.26-3.67,3.09-3.38,5.55a4,4,0,0,0,.59,1.86c.17.25.74.61.85.88q2.13.76,0,3.16c.18,1.86-.53,2.95-2.12,3.25a.38.38,0,0,0-.07.59c4.42,4.46.71,6.81-1.14,9.86a9.34,9.34,0,0,0-.89,5.26c.14,4,.94,7.42-2.08,10.67a12.85,12.85,0,0,1-9.52,4.44c-5.21.08-11.06-1.35-16.3-1.83-4.67-.42-10.21-2.15-14.85-1.18-4,.85-5.63,3.7-7,7.27a89.68,89.68,0,0,0-5.3,20.11c-.68,4.83-1.62,10.05-1.32,14.92.19,2.94.74,5.9,1.1,8.83.06.47.81.48.75,0Z"/><path class="cls-6" d="M417.36,468.66c-6.21-5.69-5.9-14-3.25-21.4,1.14-3.21,2.62-6.55,5.09-9,1.59-1.56,3.58-2.4,4.59-4.48,1.7-3.54-.65-14.4,3.2-16.05,2.49-1.07,6.55.44,9.1.81a55.29,55.29,0,0,0,8.9.57c4.33-.09,9.68-.36,13.69-2.07,4.18-1.77,4.53-6.24,5-10.36a26.2,26.2,0,0,0,.18-6.56c-.34-2.46-1.46-4.09-.33-6.41,1.27-2.6,3.1-3.91,2.21-7.22-.28-1.05-1.11-1.67-1.46-2.57-.75-1.94-1.59,1.17.23-1.26,1.57-2.1,2.85-3.13,1.87-5.91-1.28-3.61-4.56-8.31,1.78-9.67,1.6-.34,3.11,0,4.7-.58,2.17-.85,2.48-2.39,2.62-4.6.17-2.77-.11-4.53-1.91-6.5-3.92-4.27-6.74-8.91-10.1-13.59-1.54-2.14-3.54-4.65-3.68-7.4-.1-2.24,1.64-3.68,2-5.54a19,19,0,0,0-.47-6.75c-2.2-11.91-5-28.14-16-35.21-.41-.26-.78.39-.38.65,8.5,5.46,11.82,17.25,14,26.55.5,2.15.88,4.32,1.28,6.49s1.32,4.68.95,6.87c-.32,1.92-1.62,3.36-2,5.32-.7,3.81,2,7.08,4.06,10,3.27,4.54,6.14,8.92,9.79,13.16,3.4,3.95,2,10.12-3.78,10.39-1.54.07-2.77-.28-4,.76-5.2,4.27,4.24,13.16-3.12,16-.32.12-.39.64,0,.72,6.73,1.53-.5,8.33,0,12.18.42,3,1.19,5.6,1,8.73-.23,3.29-.49,9.16-3.62,11.16-3.36,2.16-8.92,2.22-12.76,2.42a53,53,0,0,1-8.82-.26c-3.13-.35-9.07-2.64-12.23-.56s-1.41,7.94-1.68,11c-.4,4.49-2.43,6.41-5.36,9.29a19.3,19.3,0,0,0-3.72,5.52c-4,8.38-5.63,19,1.88,25.92.36.33.89-.2.53-.53Z"/><path class="cls-6" d="M354.64,246.17c2.52-1.16,5-2.26,7.46-3.55,1.24-.65,2.78-1.79,4.15-1.93-1.88.19,3.36.27,2.93.34,1.94-.3,1.85-1.05,3.94-.23a.38.38,0,0,0,.47-.36l4.69-1.16c.14.33.59.18.68-.09l5.24-.65a.39.39,0,0,0,.52.13c1.66-1.21,2.41-1.29,3.39.59a.37.37,0,0,0,.51.13c3.64-2.65,7,.24,10.41,2,1.46.75,8.75,3.24,9,3.41a.4.4,0,0,0,.45.06c3.81-2.92,2.2-1.46,4.84.61,1.67,1.3,3,.85,5,.89,7.42.15,12.75,7.46,18.22,11.42,1.24.89,1,.41,2.4,1.17,3.31,1.81,3.92,2.84,5.88,5.62a90.85,90.85,0,0,0,6.76,8c6.91,7.68,10.19,17,3.84,26.31-.27.4.38.78.65.38a19.29,19.29,0,0,0,2.11-18.72c-2.9-6.6-9.16-11.09-13.11-17a15.14,15.14,0,0,0-4.64-4.91c-2.15-1.38-4.17-2.26-6.07-4.07a42.1,42.1,0,0,0-3.59-3.07,56.83,56.83,0,0,0-8.45-5.45c-3.08-1.53-9.22,1.72-10-4.32,0-.24-.31-.52-.57-.32-1.35,1-2.48,2.28-4.31,1.95-1-.18-2.14-1.08-3.2-1.33-4.63-1.08-8.44-3.21-12.7-5.43a.37.37,0,0,0-.38,0c-1.72,1.25-2.65,1.65-3.7-.36a.37.37,0,0,0-.51-.13c-2.78,2-2.82,0-5.59.3-1,.12-2.49,1.43-2.82,1.42-1.14,0-1.67-1.8-3.47-1.3-2.61.71-1.29,3.64-4.25,2.5a.36.36,0,0,0-.47.36c.09,1-5.14.45-6.14.78-1.58.54-2.91,2.05-4.41,2.84-1.77.93-3.67,1.62-5.49,2.45-.43.2-.05.85.38.65Z"/><path class="cls-6" d="M443.64,285.78c1.84,4.17,2.76,3.93-.78,2.07a25.84,25.84,0,0,0-8.17-2.41,55.23,55.23,0,0,0-18.76-.12.37.37,0,0,0-.22.55l-.5,1.37a.38.38,0,0,0-.28.36c.15,6.59-1.61,12.58-2.33,19a25.51,25.51,0,0,1-.6,5.13,15.62,15.62,0,0,0-.82,2.13c-.55,3.1,2.19,6-.07,9.11-1.47,2.05-5.63,3-7.73,4.37a18.22,18.22,0,0,0-4.33,3.79,12.06,12.06,0,0,0-2.58,9.12c0,.48.81.48.75,0-.48-4.56,1.42-8.25,5-11.1,2.59-2.08,6.62-2.65,8.87-4.88,1.77-1.76,1.55-3.93,1.42-6.14-.24-3.94,1-8.23,1.14-12.3.18-4.53,1.81-9,2-13.59.07-1.59-.1-4.45,1.13-5.8,2-2.17,9.22-1.1,12.1-.88,6.11.46,12.41,1.23,17.12,5.53a.38.38,0,0,0,.59-.46l-2.32-5.22c-.19-.44-.84-.06-.64.38Z"/><path class="cls-6" d="M349.85,410.26a127.47,127.47,0,0,1,15.3,13.79c5.18,5.28,11,9.79,16.37,14.85a156.59,156.59,0,0,0,14.51,12c5.91,4.35,12.28,8.9,16.22,15.24.52.82,2.82,4.34,2.44,5.1-.53,1.06-4-.14-4.7-.25a71,71,0,0,0-12.1-.71,72.34,72.34,0,0,0-11.19,1.17c-2.53.47-4.89,1.55-7.47.5-2.13-.86-4.4-3.26-6.12-4.64-12.57-10.06-23.23-22.13-33.53-34.45-.31-.37-.83.17-.53.54,9.93,11.87,20.19,23.53,32.2,33.36a93.41,93.41,0,0,0,7.6,5.84c2.57,1.69,4,.37,7.14-.25a72.09,72.09,0,0,1,29.33.4.38.38,0,0,0,.46-.46c-4.19-14.3-19.42-20.92-29.75-30.13-6.52-5.81-13.32-11.5-19.46-17.7-5.23-5.26-10.35-10.38-16.35-14.8-.38-.29-.76.36-.37.65Z"/><path class="cls-6" d="M415.4,467.88a5.78,5.78,0,0,0,2.52,3.85c2.24,1.78,3.3,2.14,5.53,4.75.7.83,1.18,1.62,1.94,2.44a.38.38,0,0,0,.64-.27,51.52,51.52,0,0,1,4-16.53c.64-1.58,1.55-2.44.52-3.89-.31-.45-1.06-.24-1.47-.39-1.59-.62-2.79-.73-3.87-2a23.36,23.36,0,0,1-1.56-3,45.31,45.31,0,0,0-7.95-10.13c-.35-.34-.88.19-.53.53a48,48,0,0,1,6,7.08c1.43,2.08,2.25,4.7,3.71,6.7.39.54.47,1.1,1.1,1.46,2.26,1.3,4-.92,3,4.12-.38,1.92-1.54,3.89-2.07,5.8-.62,2.2-.68,4.67-1.36,6.82-.4,1.25.53,1.73-.83,1.36-.87-.24-1-1.18-1.54-1.76-2-2.12-6.5-4.29-7.07-7.08-.1-.47-.82-.27-.73.2Z"/><path class="cls-6" d="M425.56,479c5.79,2.27,9.09,10.52,11.45,15.71a236.36,236.36,0,0,1,10.68,29.83c6.24,20.74,11.23,41.87,15.81,63,1.3,6,2.51,12,3.8,18,.1.47.82.27.72-.2-3.36-15.64-6.61-31.28-10.4-46.82-5.28-21.64-10.71-43.92-20-64.27-2.46-5.4-5.86-13.69-11.9-16-.45-.18-.65.55-.2.72Z"/><path class="cls-6" d="M590.59,293.94c9.42,6.06,12.74,19.83,14.74,30.17.62,3.17,2,7.17,1.44,10.27-.8,4.15-3.31,5.71-.78,9.85,3.12,5.11,8,8.79,11.08,14a41.38,41.38,0,0,0,5.48,6.89c3.62,4.08,3,8.6-2.56,9.64-3.07.58-8.61,1.91-8.5,6.3,0,1.94,1.13,3,.44,5.21-.63,2-1,2.24-2.67,3.07-.34.16-4.44,1.29-4.44,1.28a.37.37,0,0,0-.37-.37,1.27,1.27,0,0,0-.79.26.4.4,0,0,0-.14.52v.34a.4.4,0,0,0-.36.28l-.1.46a.38.38,0,0,0,.17.42c1.53.68,3-.61,3.89,1.81,1.11,3-3.24,4.37-3.66,6.81-.19,1.12.59,2.25,1.06,3.22,1.65,3.42,3,6.66.73,10.15a23.91,23.91,0,0,1-4.24,4.69c-5.67,5.05-12.57,4.31-19.56,3.92-4.1-.23-7.87-.45-11.45,1.9a.37.37,0,0,0-.19.33l.05.33c.06.47.81.48.75,0-.41-3.05,18.91-1.37,20.78-1.54a19.6,19.6,0,0,0,15.31-10.63c1.24-2.69.7-4.85-.47-7.43s-1.93-4.15-.47-6.74c.56-1,1.44-1.53,1.83-2.69,1.29-3.89-.91-4.58-3.6-4.54a.38.38,0,0,0,.36-.28c.2-.9-.22-.36-.26-1.05a.38.38,0,0,0,.28.36c2.65.4,6-.46,7.43-2.79,1.87-3.05.12-6.31,1.42-9,2.76-5.66,8.49-1.66,11.35-5.4,1.7-2.24,1.41-6.81-.39-8.74-1.29-1.39-2.84-2.2-4.06-3.76a33.78,33.78,0,0,1-2.68-4.22,30.47,30.47,0,0,0-3.86-5.2,83.15,83.15,0,0,1-6.33-7.33,8.34,8.34,0,0,1-1.76-3.53c-.29-2.24,1.41-3.86,1.86-5.8,1-4.56-1.08-11-2.16-15.52-2.21-9.35-5.65-21.07-14.22-26.58-.4-.26-.78.39-.37.65Z"/><path class="cls-6" d="M563,475c-8.23-7.53-5.7-23,1.83-30.38,2.17-2.13,4.1-2.78,5-5.78,1.3-4.29,0-8.82.77-13.11.09-.47-.63-.67-.72-.2-.4,2.2-.05,4.32-.08,6.56-.07,4.72-.8,7.51-4.33,11a24.34,24.34,0,0,0-5.82,8.64c-3.25,8-4.1,17.5,2.81,23.83.35.32.88-.21.53-.53Z"/><path class="cls-6" d="M502,251.74c2.14-1,4.2-2,6.27-3.07a11,11,0,0,1,5.52-1.4c.45,0,.91.18,1.37.14,2.05-.21,1-1.24,3.57-.25a.38.38,0,0,0,.48-.36l4.68-1.15c.14.32.59.18.69-.09l5.24-.65a.37.37,0,0,0,.51.13c1.67-1.21,2.41-1.29,3.39.58a.38.38,0,0,0,.51.14c3.65-2.65,7,.24,10.41,2,1.46.76,8.75,3.25,9,3.41a.38.38,0,0,0,.46.06c3.8-2.91,2.19-1.45,4.84.62,1.66,1.29,3,.84,5,.88,7.42.16,12.75,7.46,18.23,11.43,1.23.89,1,.41,2.39,1.16,3.32,1.81,3.93,2.85,5.89,5.62a86.35,86.35,0,0,0,6.76,8c6.9,7.68,10.18,17,3.83,26.31-.27.4.38.77.65.38A19.27,19.27,0,0,0,603.71,287c-2.9-6.61-9.16-11.09-13.11-17a15.13,15.13,0,0,0-4.64-4.91c-2.15-1.37-4.17-2.26-6.06-4.06a40.5,40.5,0,0,0-3.6-3.07,57.32,57.32,0,0,0-8.44-5.46c-3.08-1.52-9.23,1.72-10-4.31,0-.24-.31-.52-.57-.33-1.35,1-2.48,2.29-4.31,2-1-.18-2.13-1.08-3.2-1.33-4.63-1.08-8.44-3.22-12.7-5.44a.39.39,0,0,0-.38,0c-1.71,1.25-2.65,1.66-3.7-.35a.37.37,0,0,0-.51-.14c-2.78,2-2.81,0-5.58.3-1,.12-2.5,1.44-2.83,1.43-1.14,0-1.67-1.8-3.47-1.31-2.6.71-1.29,3.65-4.25,2.5a.38.38,0,0,0-.47.36c.09,1.06-5.1.44-6.09.77-.4.13-4.05,2.76-3.09,2.19a51.19,51.19,0,0,1-5.11,2.32c-.43.21-.05.85.38.65Z"/><path class="cls-6" d="M589.24,292.15c1.85,4.17,2.76,3.93-.78,2.07a26.14,26.14,0,0,0-8.16-2.42,55.54,55.54,0,0,0-18.77-.11.38.38,0,0,0-.22.55l-.5,1.36a.4.4,0,0,0-.28.36c.15,6.59-1.61,12.58-2.33,19a25.4,25.4,0,0,1-.59,5.13,17.24,17.24,0,0,0-.83,2.14c-.55,3.1,2.19,6-.06,9.11-1.48,2.05-5.64,3-7.74,4.37a17.77,17.77,0,0,0-4.32,3.79,12,12,0,0,0-2.58,9.12c0,.47.8.48.75,0-.49-4.57,1.41-8.26,5-11.11,2.59-2.07,6.63-2.64,8.87-4.87,1.77-1.76,1.55-3.94,1.42-6.15-.23-3.94,1-8.22,1.14-12.29.19-4.53,1.81-9,2-13.59.07-1.6-.1-4.45,1.14-5.8,2-2.17,9.21-1.1,12.09-.89,6.11.47,12.41,1.24,17.12,5.53a.38.38,0,0,0,.59-.45l-2.31-5.22c-.2-.44-.85-.06-.65.38Z"/><path class="cls-6" d="M490.09,410.26c7.7,5.74,13.94,12.89,20.54,19.8,6.12,6.41,13,12,19.48,18.05,5.49,5.08,11.85,9.08,17.66,13.77a54.69,54.69,0,0,1,7.44,7,28.11,28.11,0,0,1,3.62,5.24,8.16,8.16,0,0,1,1,2.3c.19,2.21-.41,1.3-2.36,1.2-8.93-.48-17.16-1.44-26.09.33-2.76.55-4.71,1.23-7.24-.18a36.23,36.23,0,0,1-4.79-3.81c-3.07-2.56-6-5.26-8.9-8-6.13-5.9-11.95-12.12-17.61-18.46q-3.84-4.31-7.58-8.69c-2-2.28-6.16-5.68-7.21-8.52-.67-1.8-.55.16-.18-1.38a9.18,9.18,0,0,1,1.5-2.21l4.57-6.74,6.65-9.8c.27-.4-.38-.77-.65-.37l-13.3,19.59a.39.39,0,0,0,.06.46c11.06,13.24,22.32,26.42,34.9,38.25,2.87,2.7,5.8,5.31,8.86,7.78,1.48,1.2,3.81,3.66,5.66,4.14,1.66.44,5.42-1.32,7.29-1.65a69.92,69.92,0,0,1,9.14-.95,73.58,73.58,0,0,1,18.36,1.7.38.38,0,0,0,.46-.47c-4.25-14.51-19.86-21.13-30.25-30.57-6.91-6.28-14.12-12.32-20.54-19.1s-12.59-13.7-20.12-19.32C490.08,409.32,489.71,410,490.09,410.26Z"/><path class="cls-6" d="M560.73,449.55a47,47,0,0,1,6,7.08c1.43,2.08,2.25,4.69,3.71,6.69.4.55.47,1.11,1.1,1.47,2.26,1.3,4-.92,3,4.11-.37,1.93-1.53,3.9-2.07,5.8-.62,2.21-.67,4.68-1.36,6.83-.4,1.25.53,1.72-.83,1.35-.86-.23-1-1.18-1.54-1.75-2-2.12-6.5-4.29-7.07-7.08-.1-.48-.82-.28-.72.19a5.72,5.72,0,0,0,2.51,3.85c2.25,1.78,3.3,2.15,5.53,4.76.71.83,1.18,1.62,1.94,2.43a.38.38,0,0,0,.64-.26,51.4,51.4,0,0,1,4-16.53c.64-1.59,1.55-2.44.53-3.9-.32-.44-1.07-.23-1.48-.39-1.59-.61-2.79-.73-3.87-2a21.45,21.45,0,0,1-1.55-3,45.42,45.42,0,0,0-8-10.13c-.35-.34-.88.19-.53.53Z"/><path class="cls-6" d="M571.16,485.38c5.75,2.25,9.05,10.32,11.42,15.47a230.5,230.5,0,0,1,10.65,29.31c6.27,20.54,11.29,41.48,15.88,62.45,1.3,5.93,2.51,11.87,3.79,17.8.1.48.83.28.72-.2-3.31-15.38-6.57-30.77-10.35-46.06-5.3-21.45-10.75-43.54-20-63.68-2.47-5.37-5.87-13.47-11.87-15.82-.45-.17-.65.55-.2.73Z"/><path class="cls-6" d="M467,463.63c8.38,9.78,13.77,22,18.55,33.79,5.1,12.61,9.4,25.52,13.88,38.35,2.05,5.87,4.12,11.73,6.41,17.51,1.7,4.31,3.83,8.47,5.1,12.94,3.07,10.83,4.57,22.2,6.06,33.33.07.47.82.48.75,0-1.46-10.88-3-21.91-5.82-32.53-1.29-4.85-3.53-9.29-5.37-13.94-2.45-6.21-4.66-12.51-6.86-18.81C495,520.76,490.49,507.17,485,494c-4.54-10.85-9.68-21.86-17.4-30.86-.31-.36-.84.17-.53.53Z"/><path class="cls-6" d="M468.37,448.27c1.4-3.07,5.51-5.32,8.16-7.14,2.06-1.41,4.16-2.77,6.3-4.05.42-.25,0-.9-.37-.65q-3.76,2.25-7.35,4.78c-2.47,1.74-6.09,3.83-7.39,6.68-.2.44.45.82.65.38Z"/><path class="cls-6" d="M572.41,480c7.23.24,12.89,4.21,16,10.66a12.6,12.6,0,0,1,1.3,3.33s-.22-.74-.23.19c0,5.35,2.43,10.18,4.34,15.12,8.4,21.75,16.9,43.5,24,65.72,3.29,10.31,7.07,21.26,7.67,32.16,0,.48.78.48.75,0-.86-15.68-7.26-31.61-12.35-46.28-5.95-17.18-12.51-34.15-19.07-51.11-.18-.47-6-15.25-4.71-15.42a.38.38,0,0,0,.36-.47,19.27,19.27,0,0,0-18.07-14.65.38.38,0,0,0,0,.75Z"/><path class="cls-8" d="M300.49,363.68a2.61,2.61,0,0,1,2-.59,3.36,3.36,0,0,1,3.35,4.15,3,3,0,0,1-.45,1.38,2.37,2.37,0,0,1-1.54.95,4.72,4.72,0,0,1-2.11-.16,3.12,3.12,0,0,1-1.05-.42,1.61,1.61,0,0,1-.5-.65,6.85,6.85,0,0,1-.78-3.14,1.91,1.91,0,0,1,.22-1,1.58,1.58,0,0,1,1.09-.69"/><path class="cls-7" d="M300.75,364c1-.87,2.68-.51,3.64.17a3.24,3.24,0,0,1,.76,4.11c-.82,1.41-3,1.27-4.15.32s-2.06-4.15-.16-4.69a.37.37,0,0,0-.2-.72c-2.23.63-1.7,3.29-1,4.95a3.84,3.84,0,0,0,5.49,1.31c1.51-1.15,1.47-4,.27-5.34s-3.77-1.94-5.22-.65c-.36.33.17.86.53.54Z"/><polygon class="cls-7" points="212.78 421.81 215.38 418.11 218.51 417.38 221.24 416.36 224.09 414.73 225.82 410.29 228.32 405.83 231.97 401.41 234.2 396.36 235.48 391.96 235.23 386.45 231.66 375.57 225.62 357.5 221.27 338.35 220.32 328.59 219.1 317.4 219.92 305.98 221.84 297.79 223.68 292.59 227.32 286.6 231 280.85 238.45 269.93 244.64 262.28 250.92 254.73 258.16 248.16 265.46 243.17 269.95 240.85 276.09 238.04 284.82 235.94 295.31 234.72 302.22 234.23 314.26 235.36 328.55 238.18 338.26 240.95 349.93 245.44 355.46 246.51 363.47 248.3 367.67 251.17 376.6 263.18 383.71 275.09 387.72 283.57 382.35 288.61 371.66 297.89 359.43 310.78 351.3 319.39 344.38 325.36 336.96 328.47 328.51 330.61 318.79 334.15 313.08 337.7 308.15 336.9 304.5 332.76 298.61 327.64 292.16 324.19 284.38 323.67 279.61 326.2 276.28 330.57 273.8 335.27 272.8 342.08 273.03 345.72 267.15 352.5 265.74 355.72 264.16 362.7 264.25 373.15 265.38 384.4 264.59 391.96 260.25 395.7 262.55 404.49 263.12 411.66 262.37 425.29 260.8 436.48 258.31 447.59 253.43 456.77 248.31 465.47 244.56 466.29 235 468.11 225.5 468.11 218.5 466.08 212.68 461.99 208.66 455.11 207.35 447.53 207.35 438.86 209.85 429.28 212.78 421.81"/><path class="cls-7" d="M353.94,248.19c0-.24.51-2.34.51-2.34l10.3-5.42,5.49-.37,3.6-.78,6-1.53,2-.94,4.76.94,6.34.05,4.91,2.55,10.58,3.71,2.92-1.62,3.91,3.63,3-.61,8.59-3.53,11.9-2.81,15.73-.35L476,242.19l16.58,4.71,7.53,3.88.7.8,1,.49,1.43-1.61,6.64-3.18,12.52-2.37,3.71-1.51,3,.18,4.41.38,6.82.95,13.83,5.45,3-1.57,4.54,3.76,8.46,1.59,6.38,4.4,11.43,9.33,8.85,10.2,6.59,9,1.54,5.5-1.25,8.63-3.25,5.12-1-3.45-2.9-4.19L592,294.47l-1.35,0,.11,1.69L587.19,294l-12.33-2.73h-6.45l-5.58.78L560.91,294l-1.08,11L557.47,321l-.26,8.19-3.36,2.4-3.44,2.46L545.23,338l-2.4,3.62-.51,3.05-.53,3.07L538,341.31l-3.56-7.09-2.76-7.16-.42-7.24.61-10.84-.2-5.51-2-8.19-5.34-13.34-3.7-6.67-3.16-4.12L511,273.77l-7,3.3-6.18,4.13-5.27,3.73-3.25,5-2.05,2.76L483,300l-2.78,5.56-5,7.32-5.27,4.86L464.47,321l-3.54,1.09-1.35-8.61-3-8.91-2-5-3.92-7L446.27,288l-1,.06.13,2L442,287.85l-4.45-1.49-8.91-1.43h-8.26l-3.14.51-1.94,2.16,0,3.45-1.64,9.57-.47,9.32-1.37,5.41.18,6.39-2.16,2.87-4.65,2.06-4.72,3.42-3.1,4.63-1.78,3.73-.36-5.82-.25-7.38,1.28-8.58-.07-7.59-.91-6.38-2.49-7.23-3.87-6-6.6-5.68-15.43-8.14Z"/><polygon class="cls-7" points="684.64 275.09 677.53 263.18 668.6 251.17 664.4 248.3 656.39 246.51 650.86 245.44 639.2 240.95 629.48 238.18 615.2 235.36 603.15 234.23 596.25 234.72 585.75 235.94 577.02 238.04 570.88 240.85 566.39 243.17 559.09 248.16 551.85 254.73 570.22 267.82 585.67 278.34 597.07 289.37 604.58 318.95 606.21 327.47 607.26 332.53 609.08 336.9 614.79 337.83 619.72 334.15 629.45 330.61 644.14 325.75 651.9 319.26 660.36 310.78 672.59 297.89 683.28 288.61 689.45 282.04 684.64 275.09"/><path class="cls-6" d="M303.62,330.75c2.43,7,10.79,11.32,7.12,19.72-.19.44.45.82.65.38,3.82-8.75-4.48-12.9-7.05-20.3-.16-.46-.88-.26-.72.2Z"/><path class="cls-6" d="M310.68,336.6c2.67,4.07,4.49,8.56,3.26,13.46a.38.38,0,0,0,.73.2c1.27-5.09-.56-9.8-3.34-14-.27-.41-.92,0-.65.37Z"/><path class="cls-6" d="M320.83,333.05c-2.81,1.5-4.94,3.21-5.38,6.53-.31,2.28.31,4.59.41,6.86a19.84,19.84,0,0,1-2.74,11.18.38.38,0,0,0,.65.38,20.37,20.37,0,0,0,2.85-9.17c.35-6-2.1-11.57,4.59-15.13.42-.23.05-.88-.38-.65Z"/></g></svg>