<svg xmlns="http://www.w3.org/2000/svg" xmlns:xlink="http://www.w3.org/1999/xlink" width="94" height="108.555" viewBox="0 0 94 108.555">
  <defs>
    <clipPath id="clip-path">
      <path id="Path_1628" data-name="Path 1628" d="M2014.071,2182.382a46.943,46.943,0,0,1-93.886,0c0-25.926,21.017-61.612,46.943-61.612S2014.071,2156.456,2014.071,2182.382Z" transform="translate(-1920.185 -2120.77)" fill="none"/>
    </clipPath>
  </defs>
  <g id="Group_1703" data-name="Group 1703" transform="translate(-1920.185 -2120.77)">
    <circle id="Ellipse_306" data-name="Ellipse 306" cx="47" cy="47" r="47" transform="translate(1920.185 2134.964)" fill="#fff"/>
    <g id="Group_1702" data-name="Group 1702" transform="translate(1920.185 2120.77)">
      <g id="Group_1701" data-name="Group 1701" transform="translate(0 0)" clip-path="url(#clip-path)">
        <g id="Group_1700" data-name="Group 1700" transform="translate(11.414 11.504)">
          <g id="Group_1676" data-name="Group 1676" transform="translate(0 42.889)">
            <path id="Path_1603" data-name="Path 1603" d="M2011.559,2504.571s15.569-1.659,5.616-14.242c0,0,17.206,14.668,25.293-10.54,0,0,16.438,24.176,30.328,4.317,0,0-10.854,18.9,9.371,16.567,0,0-12.334,6.459-2.077,12.7,0,0-10.553,6.187-5.8,19.792,0,0-12.149-5.134-14.39,2.633s-14.954,11.924-14.954,11.924-9.691-20.234-19.446-11.276c0,0,5.738-19.974-8.23-18.915C2017.266,2517.532,2027.523,2508.436,2011.559,2504.571Z" transform="translate(-2008.863 -2478.744)" fill="#652d90"/>
            <path id="Path_1604" data-name="Path 1604" d="M2029.939,2542.563l-.176-.366c-.057-.119-5.76-11.869-12.572-13.183a6.909,6.909,0,0,0-6.143,2.048l-1.213,1.114.454-1.582c.031-.11,3.093-11-.931-15.944-1.475-1.811-3.769-2.612-6.819-2.381l-1.372.1,1.029-.913c.038-.033,3.792-3.418,2.97-6.712-.6-2.4-3.452-4.235-8.478-5.452l-2.587-.626,2.646-.285c.065-.007,6.559-.748,8.165-4.576.964-2.3,0-5.3-2.863-8.918l.664-.64c.067.057,6.748,5.652,13.507,3.726,4.773-1.361,8.489-6.089,11.044-14.054l.29-.9.534.785c.081.119,8.2,11.885,17.562,11.945h.072c4.375,0,8.389-2.567,11.932-7.633l.781.5c-.049.086-4.864,8.592-1.863,13.149,1.612,2.448,5.239,3.366,10.779,2.728l2.47-.285-2.2,1.156c-.058.03-5.785,3.077-5.9,6.788-.057,1.8,1.239,3.517,3.852,5.107l.662.4-.669.393a15.21,15.21,0,0,0-4.547,4.676c-2.614,4.177-2.969,9.077-1.053,14.563l.344.985-.961-.406c-.069-.029-6.98-2.9-11.084-.943a4.977,4.977,0,0,0-2.68,3.278c-.964,3.339-3.833,6.417-8.53,9.146a38.873,38.873,0,0,1-6.726,3.089Zm-13.964-14.594a7.353,7.353,0,0,1,1.393.135c6.637,1.281,11.984,11.219,13.047,13.32,2.1-.761,12.342-4.779,14.275-11.479a5.868,5.868,0,0,1,3.173-3.858c3.581-1.708,8.811-.175,10.92.575-2.055-6.715-.365-11.549,1.471-14.465a16.542,16.542,0,0,1,4.227-4.538c-2.513-1.678-3.754-3.541-3.689-5.543.092-2.865,2.852-5.25,4.719-6.542-4.836.253-8.1-.855-9.712-3.305-1.4-2.133-1.515-5.17-.329-9.027.176-.572.367-1.117.561-1.624-3.151,3.383-6.634,5.089-10.387,5.057-4.093-.027-8.564-2.178-12.927-6.221a41.376,41.376,0,0,1-4.854-5.384c-2.65,7.761-6.479,12.4-11.392,13.8-4.831,1.375-9.48-.719-12.124-2.337,1.832,2.956,2.311,5.518,1.421,7.637-1.218,2.9-4.675,4.206-6.912,4.761,4.189,1.307,6.613,3.184,7.213,5.6.692,2.781-1.237,5.456-2.418,6.776a7.921,7.921,0,0,1,6.429,2.762c1.831,2.248,2.569,5.766,2.2,10.457a36.611,36.611,0,0,1-.756,4.967A7.6,7.6,0,0,1,2015.975,2527.969Z" transform="translate(-1994.102 -2473.018)" fill="#652d90"/>
          </g>
          <g id="Group_1699" data-name="Group 1699" transform="translate(6.606)">
            <g id="Group_1697" data-name="Group 1697">
              <g id="Group_1677" data-name="Group 1677">
                <path id="Path_1605" data-name="Path 1605" d="M2059.049,2312.264s-3.453-48.131-5.83-54.534a16.131,16.131,0,0,1-2.729-5.7c-.792-3.292-6.1-11.449-7.539-19.252,0,0-1.431-4.065-2.759-5.358s1.842-5.893,2.555-5.868c0,0-.785-6.911,2.444-9.093,0,0,3.763-4.543,8.723-2.009,0,0,.463-3.783,8.069-4.287,0,0,.468-6.654,6.41-7.317,0,0,3.414-1.757,7.35,2.1,0,0,3.07-4.975,8.651-1.334a5.17,5.17,0,0,1,1.753,4.921s.856.775,2.015,1.658,9.89,12.91,9.076,20.931c0,0,.56,3.729-5.157,11.481s-9.09,9.937-9.093,15.477,9.814,53.693,9.814,53.693" transform="translate(-2039.409 -2197.81)" fill="#fff"/>
                <path id="Path_1606" data-name="Path 1606" d="M2056.061,2309.757c-.034-.479-3.452-47.807-5.778-54.339a16.537,16.537,0,0,1-2.769-5.823,34.428,34.428,0,0,0-2.269-5.282c-1.935-4.005-4.342-8.987-5.268-13.958-.138-.385-1.458-4-2.633-5.146-.613-.6-.614-1.669,0-3.1a9.375,9.375,0,0,1,2.388-3.381c-.116-1.452-.358-7.078,2.625-9.159.448-.5,4.057-4.315,8.741-2.309.455-1.148,2.1-3.587,7.948-4.072.225-1.5,1.384-6.693,6.694-7.334.561-.253,3.74-1.453,7.414,1.853a6.517,6.517,0,0,1,3.556-2.3,7.006,7.006,0,0,1,5.414,1.273,5.545,5.545,0,0,1,1.986,5.12c.305.267.982.848,1.81,1.478a37.464,37.464,0,0,1,5.4,7.937c1.994,3.691,4.278,9,3.856,13.359.053.557.178,4.4-5.25,11.76-1.509,2.046-2.841,3.688-4.016,5.137-3.213,3.962-4.984,6.145-4.986,10.065,0,5.43,9.706,53.119,9.8,53.6l-.908.185c-.4-1.968-9.826-48.263-9.823-53.786,0-4.249,1.956-6.657,5.193-10.648,1.169-1.441,2.494-3.075,3.99-5.1,4.392-5.955,5.238-9.892,5.071-11.142l-.007-.053.005-.058c.42-4.136-1.8-9.284-3.745-12.875a38.47,38.47,0,0,0-5.151-7.641c-1.161-.885-2.01-1.65-2.046-1.683l-.178-.161.029-.239a4.7,4.7,0,0,0-1.559-4.485,6.115,6.115,0,0,0-4.682-1.138,5.771,5.771,0,0,0-3.309,2.337l-.305.49-.413-.4c-3.63-3.554-6.688-2.08-6.816-2.016l-.074.037-.084.01c-5.48.612-5.98,6.634-6,6.89l-.029.4-.4.027c-7.069.469-7.636,3.851-7.641,3.885l-.092.641-.578-.29c-4.563-2.332-8.011,1.719-8.156,1.893l-.042.051-.055.037c-2.962,2-2.25,8.591-2.243,8.657l.061.535-.483-.017a8.619,8.619,0,0,0-2.4,4.03,1.218,1.218,0,0,0,.131,1.041c1.391,1.353,2.813,5.366,2.873,5.536l.019.07c.9,4.86,3.282,9.794,5.2,13.759a33.931,33.931,0,0,1,2.336,5.469,15.8,15.8,0,0,0,2.64,5.522l.047.059.026.07c2.373,6.392,5.717,52.694,5.858,54.662Z" transform="translate(-2036.883 -2195.269)" fill="#652d90"/>
              </g>
              <g id="Group_1678" data-name="Group 1678" transform="translate(5.62 12.478)">
                <path id="Path_1607" data-name="Path 1607" d="M2080.754,2294.965c-.338,0-.57-.019-.641-.025-.472-.015-1.864-.111-4.547-5.174-1.29-2.434-2.281-4.891-2.291-4.915l.86-.346c.01.024.985,2.442,2.253,4.833,2.218,4.185,3.375,4.665,3.768,4.677l.032,0c.034,0,3.436.313,4.992-1.689,1.054-1.357,1.061-3.5.021-6.36l-3.476-9.573.871-.316,3.475,9.573c1.157,3.185,1.1,5.623-.164,7.248C2084.483,2294.731,2081.952,2294.965,2080.754,2294.965Z" transform="translate(-2073.276 -2276.079)" fill="#652d90"/>
              </g>
              <g id="Group_1679" data-name="Group 1679" transform="translate(18.311 7.925)">
                <path id="Path_1608" data-name="Path 1608" d="M2160.352,2270.022a4.3,4.3,0,0,1-2.442-.721,6.652,6.652,0,0,1-2.445-4.047l.914-.156a5.8,5.8,0,0,0,2.051,3.436,3.78,3.78,0,0,0,3.039.428c4.84-1.1,6.089-2.271,5.568-5.225a122.616,122.616,0,0,0-4.028-14.121,4.352,4.352,0,0,0-3.8-2.1l.053-.925a5.257,5.257,0,0,1,4.56,2.577,119.779,119.779,0,0,1,4.127,14.406c.7,3.954-1.566,5.22-6.275,6.29A5.97,5.97,0,0,1,2160.352,2270.022Z" transform="translate(-2155.465 -2246.593)" fill="#652d90"/>
              </g>
              <g id="Group_1680" data-name="Group 1680" transform="translate(30.383 2.291)">
                <path id="Path_1609" data-name="Path 1609" d="M2237.991,2236.046a11.2,11.2,0,0,1-4.35-.87l.36-.854a9.617,9.617,0,0,0,8.938-.608c.667-.495,1.023-1.042.975-1.5-.225-2.149-5.049-21.685-5.1-21.882l.9-.223c.2.807,4.888,19.8,5.119,22.008a2.713,2.713,0,0,1-1.345,2.342A9.5,9.5,0,0,1,2237.991,2236.046Z" transform="translate(-2233.641 -2210.109)" fill="#652d90"/>
              </g>
              <g id="Group_1681" data-name="Group 1681" transform="translate(25.82 6.31)">
                <path id="Path_1610" data-name="Path 1610" d="M2228.1,2247.438c.283,2.983-2.576,5.691-2.576,5.691-6.748,5.941-16.915,4.715-18.138.539s1.744-5.059,1.744-5.059,8.29-3.237,12.368-7.457,7.782-.838,9.42,1.179" transform="translate(-2206.632 -2238.667)" fill="#fff"/>
                <path id="Path_1611" data-name="Path 1611" d="M2212.255,2255.13a13.387,13.387,0,0,1-3.7-.492c-2.227-.645-3.7-1.844-4.149-3.377-1.268-4.331,1.688-5.505,2.026-5.623.259-.1,8.283-3.294,12.2-7.344a6.05,6.05,0,0,1,4.611-2.158c2.37.1,4.3,1.887,5.5,3.367l-.719.584c-.886-1.09-2.69-2.933-4.822-3.025a5.182,5.182,0,0,0-3.905,1.876,30.537,30.537,0,0,1-7.833,5.4c-2.574,1.333-4.678,2.158-4.7,2.166l-.036.012a2.564,2.564,0,0,0-1.127.843,3.98,3.98,0,0,0-.3,3.642c.352,1.2,1.634,2.2,3.518,2.748a15.625,15.625,0,0,0,13.862-3.5c.13-.126,2.681-2.644,2.428-5.306l.922-.088c.3,3.171-2.595,5.955-2.718,6.071l-.012.011A16.846,16.846,0,0,1,2212.255,2255.13Z" transform="translate(-2204.095 -2236.13)" fill="#652d90"/>
              </g>
              <g id="Group_1682" data-name="Group 1682" transform="translate(20.004 25.035)">
                <path id="Path_1612" data-name="Path 1612" d="M2167.353,2378.361l-.926-.018a18.832,18.832,0,0,1,3.177-9.087,23.256,23.256,0,0,1,7.244-7.011,36.8,36.8,0,0,1,13.841-4.85l.146.915a35.889,35.889,0,0,0-13.494,4.72,22.333,22.333,0,0,0-6.959,6.731A18.189,18.189,0,0,0,2167.353,2378.361Z" transform="translate(-2166.427 -2357.394)" fill="#652d90"/>
              </g>
              <g id="Group_1683" data-name="Group 1683" transform="translate(29.913 47.449)">
                <path id="Path_1613" data-name="Path 1613" d="M2238.992,2507.572a10.075,10.075,0,0,1-6.143-1.772,6.266,6.266,0,0,1-2.251-3l.892-.251-.446.125.445-.127a5.476,5.476,0,0,0,1.967,2.548c2.068,1.532,5.221,1.939,9.116,1.177l.178.909A19.816,19.816,0,0,1,2238.992,2507.572Z" transform="translate(-2230.598 -2502.549)" fill="#652d90"/>
              </g>
              <g id="Group_1684" data-name="Group 1684" transform="translate(16.525 49.152)">
                <path id="Path_1614" data-name="Path 1614" d="M2145.272,2522.312a10.1,10.1,0,0,1-1.377-.082l.136-.917a11.748,11.748,0,0,0,4.789-.473c3.219-1.059,5.137-3.5,5.7-7.265l.916.137c-.777,5.17-3.889,7.214-6.362,8.018A12.464,12.464,0,0,1,2145.272,2522.312Z" transform="translate(-2143.895 -2513.576)" fill="#652d90"/>
              </g>
              <g id="Group_1685" data-name="Group 1685" transform="translate(26.442 12.481)">
                <path id="Path_1615" data-name="Path 1615" d="M2211.674,2285.712h-.01c-2.379,0-3.359-2.593-3.545-3.959l.918-.124-.459.063.459-.065c0,.031.463,3.159,2.631,3.159h.007c1.948,0,6.292-2.873,8.015-4.132a4.222,4.222,0,0,0-.785-3.072,2.422,2.422,0,0,0-2.154-.517l-.132-.917a3.29,3.29,0,0,1,2.942.78c1.383,1.377,1.043,3.934,1.028,4.042l-.027.192-.156.116c-.015.011-1.5,1.112-3.292,2.2C2214.672,2284.962,2212.842,2285.712,2211.674,2285.712Z" transform="translate(-2208.119 -2276.094)" fill="#652d90"/>
              </g>
              <g id="Group_1686" data-name="Group 1686" transform="translate(43.254 16.756)">
                <path id="Path_1616" data-name="Path 1616" d="M2317.746,2309.382a3.754,3.754,0,0,1-.754-.066l.21-.9c.155.035,3.811.793,5.276-4.634l.894.241C2322.086,2308.787,2319.137,2309.382,2317.746,2309.382Z" transform="translate(-2316.992 -2303.78)" fill="#652d90"/>
              </g>
              <g id="Group_1687" data-name="Group 1687" transform="translate(42.889 22.092)">
                <path id="Path_1617" data-name="Path 1617" d="M2317.8,2340.429a4.6,4.6,0,0,1-3.172-1.138l.656-.655c.087.085,2.191,2.076,6.135-.3l.479.793A7.948,7.948,0,0,1,2317.8,2340.429Z" transform="translate(-2314.627 -2338.335)" fill="#652d90"/>
              </g>
              <g id="Group_1688" data-name="Group 1688" transform="translate(41.999 23.782)">
                <path id="Path_1618" data-name="Path 1618" d="M2315.99,2352.188c-5.479,0-7.048-2.281-7.124-2.4l.772-.512c.02.028,2.028,2.808,9.65,1.732l.129.917A24.6,24.6,0,0,1,2315.99,2352.188Z" transform="translate(-2308.867 -2349.28)" fill="#652d90"/>
              </g>
              <g id="Group_1689" data-name="Group 1689" transform="translate(10.157 31.17)">
                <path id="Path_1619" data-name="Path 1619" d="M2103.358,2406.043l-.7-.61a13.165,13.165,0,0,1,5.6-3.674c2.7-.738,3.584-4.594,3.593-4.633l.9.2c-.04.181-1.021,4.443-4.253,5.326A12.4,12.4,0,0,0,2103.358,2406.043Z" transform="translate(-2102.661 -2397.126)" fill="#652d90"/>
              </g>
              <g id="Group_1690" data-name="Group 1690" transform="translate(4.521 24.903)">
                <path id="Path_1620" data-name="Path 1620" d="M2070.46,2359.068a6.667,6.667,0,0,1-4.3-1.948l.726-.576-.363.288.361-.29a5.947,5.947,0,0,0,3.7,1.608Z" transform="translate(-2066.162 -2356.542)" fill="#652d90"/>
              </g>
              <g id="Group_1691" data-name="Group 1691" transform="translate(4.228 20.476)">
                <path id="Path_1621" data-name="Path 1621" d="M2067.437,2332.289c-.219-.085-1.4-.676-3.171-3.981l.817-.437c.656,1.225,1.966,3.274,2.689,3.554Z" transform="translate(-2064.266 -2327.871)" fill="#652d90"/>
              </g>
              <g id="Group_1692" data-name="Group 1692" transform="translate(4.168 26.707)">
                <path id="Path_1622" data-name="Path 1622" d="M2069.473,2370.734a3.944,3.944,0,0,0-2.69-1.578,3.4,3.4,0,0,0-2.279.792l-.627-.681a4.285,4.285,0,0,1,2.949-1.036,4.815,4.815,0,0,1,3.35,1.9Z" transform="translate(-2063.877 -2368.223)" fill="#652d90"/>
              </g>
              <g id="Group_1693" data-name="Group 1693" transform="translate(21.55 57.067)">
                <path id="Path_1623" data-name="Path 1623" d="M2176.528,2567.337h-.089l.023-.926a13.023,13.023,0,0,0,5.914-1.575l.448.811A13.836,13.836,0,0,1,2176.528,2567.337Z" transform="translate(-2176.439 -2564.835)" fill="#652d90"/>
              </g>
              <g id="Group_1694" data-name="Group 1694" transform="translate(34.886 53.627)">
                <path id="Path_1624" data-name="Path 1624" d="M2263.411,2544.974l-.606-.7a8.031,8.031,0,0,1,4.922-1.72l0,.927A7.217,7.217,0,0,0,2263.411,2544.974Z" transform="translate(-2262.805 -2542.554)" fill="#652d90"/>
              </g>
              <g id="Group_1695" data-name="Group 1695" transform="translate(32.176 53.003)">
                <path id="Path_1625" data-name="Path 1625" d="M2246.522,2554.379c-1.7-5.369-1.208-15.436-1.186-15.862l.925.047c-.005.1-.5,10.325,1.144,15.534Z" transform="translate(-2245.254 -2538.517)" fill="#652d90"/>
              </g>
              <g id="Group_1696" data-name="Group 1696" transform="translate(28.057 54.945)">
                <path id="Path_1626" data-name="Path 1626" d="M2221.836,2566.2l-.924-.067c.524-7.261-2.307-14.634-2.336-14.708l.863-.336A39.261,39.261,0,0,1,2221.836,2566.2Z" transform="translate(-2218.576 -2551.093)" fill="#652d90"/>
              </g>
            </g>
            <g id="Group_1698" data-name="Group 1698" transform="translate(11.571 26.643)">
              <path id="Path_1627" data-name="Path 1627" d="M2112.96,2370.5a2.7,2.7,0,0,1-1.14-.178l.206-.415.193-.421c.009,0,.947.374,3.588-.431,1.716-.523,1.979-.815,2-.846a.275.275,0,0,0-.03.2.307.307,0,0,0,.15.209l.448-.811a.618.618,0,0,1,.32.6c-.045.455-.507.891-2.62,1.534A10.911,10.911,0,0,1,2112.96,2370.5Z" transform="translate(-2111.819 -2367.811)" fill="#652d90"/>
            </g>
          </g>
        </g>
      </g>
    </g>
  </g>
</svg>
