<svg xmlns="http://www.w3.org/2000/svg" xmlns:xlink="http://www.w3.org/1999/xlink" width="95.096" height="117.363" viewBox="0 0 95.096 117.363">
  <defs>
    <clipPath id="clip-path">
      <path id="Path_734" data-name="Path 734" d="M450.094,585.377a47.548,47.548,0,1,1-95.1,0c0-26.26,21.288-69.815,47.548-69.815S450.094,559.117,450.094,585.377Z" transform="translate(-354.998 -515.562)" fill="none"/>
    </clipPath>
  </defs>
  <g id="Group_721" data-name="Group 721" transform="translate(-354.998 -515.562)">
    <circle id="Ellipse_300" data-name="Ellipse 300" cx="47.548" cy="47.548" r="47.548" transform="translate(354.998 537.829)" fill="#fff"/>
    <g id="Group_720" data-name="Group 720" transform="translate(354.998 515.562)">
      <g id="Group_719" data-name="Group 719" transform="translate(0 0)" clip-path="url(#clip-path)">
        <g id="Group_718" data-name="Group 718" transform="translate(-2.197 8.658)">
          <g id="Group_693" data-name="Group 693" transform="translate(16.973 16.012)">
            <path id="Path_710" data-name="Path 710" d="M466.506,701.605a1.667,1.667,0,0,1-.351,1.681c-.7,1.03-1.665.992-2.78.948a7.15,7.15,0,0,0-1.833.087,7.111,7.111,0,0,1-3.01.167c-.154-.017-.322-.036-.507-.054a7.018,7.018,0,0,0-2.045.163,3.73,3.73,0,0,1-1.69.075c-.775-.23-1.168-1.8-1.168-4.661a17.076,17.076,0,0,1,.569-3.582,8.586,8.586,0,0,0,.385-3.709,33.437,33.437,0,0,1-.8-3.591l-.386.063a33.862,33.862,0,0,0,.814,3.643,8.48,8.48,0,0,1-.392,3.507c-.168.733-.338,1.48-.45,2.205a4.407,4.407,0,0,0-2.045-.309,5.173,5.173,0,0,1-1.169-.106l0-.007c-.468-1.08.082-4.32.508-5.753l.059-.2a20.087,20.087,0,0,0,1.027-5.512c.036-2.111,2.962-3.272,2.992-3.284l-.013-.033.171-.04c-.01-.042-.97-4.224.212-6.4.269-.5.479-.938.665-1.329.675-1.419.983-2.067,2.535-2.264a3.225,3.225,0,0,1,2.4.769,4.95,4.95,0,0,1,1.8,3.327,28.291,28.291,0,0,1,.115,3.975c-.006.123-.014.241-.022.359l-.05.041.045.053a8.755,8.755,0,0,1-.46,2.447l.364.142a8.49,8.49,0,0,0,.456-2.223,5,5,0,0,0,1.763,1.067c1.236.412,3.809,1.27,4.834,5.638a36.175,36.175,0,0,1,.833,4.015c.358,2.547.151,4.07-.582,4.287l-.045.02a3.936,3.936,0,0,1-2.689.337l-.093-.221c-.194-.459-.416-.984-.669-1.6a9.708,9.708,0,0,1,0-6.207l-.367-.135a9.922,9.922,0,0,0,0,6.49c.253.617.475,1.143.67,1.6l.156.369-.008.026.021.005q.1.228.182.435A7.932,7.932,0,0,0,466.506,701.605Z" transform="translate(-449.465 -673.288)" fill="#652d90"/>
          </g>
          <g id="Group_694" data-name="Group 694" transform="translate(55.317 15.658)">
            <path id="Path_711" data-name="Path 711" d="M697.64,677.669a4.162,4.162,0,0,1-.075.668l.458.1a4.922,4.922,0,0,0,.026-1.745c0-.008,0-.014,0-.022a2.749,2.749,0,0,0,2.5.443l.145-.063c2.114-.921,2.98-1.3,5.5-6.029a9.242,9.242,0,0,1,.529,3.471,13.537,13.537,0,0,1-.292,1.344,23,23,0,0,0-.619,3.2h0v.005a11.51,11.51,0,0,0-.056,1.691,2.1,2.1,0,0,1-.451.916,1.786,1.786,0,0,1-1.521.506,12.844,12.844,0,0,0-3.768.082c-.531.087-1,.155-1.442.207a11.733,11.733,0,0,1-1.718.105,2.761,2.761,0,0,1-1.594-.616,1.639,1.639,0,0,1-.545-.637,1.313,1.313,0,0,1,.035-1.047l.018-.042a1.149,1.149,0,0,1,.216-.391A8.917,8.917,0,0,0,697.64,677.669Z" transform="translate(-694.624 -671.025)" fill="#fff"/>
          </g>
          <g id="Group_695" data-name="Group 695" transform="translate(54.604 3.784)">
            <path id="Path_712" data-name="Path 712" d="M690.252,606.316c0-.69,0-1.222,0-1.645a21.1,21.1,0,0,0-.085-2.683c-.022-.262-.05-.59-.084-1.027a5.388,5.388,0,0,1,4.428-5.836c.183-.018,2.444-.207,2.994,1.587.434,1.419.641,1.57,1.108,1.8a2.914,2.914,0,0,1,.712.474,5.532,5.532,0,0,0,.667.485c.83.54,1.614,1.05,2.259,4.345l.154.788.294-.747c.022-.057.547-1.39.674-1.811.092-.306.461-.815.628-.815h0c.035,0,.156.1.249.546l.031.15a1.482,1.482,0,0,0-.172-.287l-.364.3a1.181,1.181,0,0,1,.2.952l.457.107a1.6,1.6,0,0,0,.032-.2,2.875,2.875,0,0,1-1.711,3.246l-.325-.169-.212.407-.08.033.026.069c-2.6,4.948-3.417,5.3-5.478,6.2l-.145.063a2.57,2.57,0,0,1-2.24-.523c-.081-.053-.162-.11-.244-.168a.7.7,0,0,0-.075-.09l-.739-.693.066.174C691.659,609.876,690.252,607.626,690.252,606.316Z" transform="translate(-690.062 -595.111)" fill="#fff"/>
          </g>
          <g id="Group_696" data-name="Group 696" transform="translate(50.061 41.009)">
            <path id="Path_713" data-name="Path 713" d="M661.018,836.454a13.552,13.552,0,0,0,1.171-3.347,5.481,5.481,0,0,0,2.76,2.11,15.335,15.335,0,0,0,2.4.639,5.611,5.611,0,0,1,1.76.557,4.235,4.235,0,0,0-.375,1.808,2.619,2.619,0,0,1-.056.533l-.006-.005a4.864,4.864,0,0,1-1.946,1.186,3.99,3.99,0,0,0-2.176-.039,5.03,5.03,0,0,1-2.618-.229c-.221-.069-.437-.137-.665-.187A9.253,9.253,0,0,0,661.018,836.454Z" transform="translate(-661.018 -833.108)" fill="#8367ac"/>
          </g>
          <g id="Group_697" data-name="Group 697" transform="translate(36.221 47.876)">
            <path id="Path_714" data-name="Path 714" d="M600.364,888.566c-3.5,5.848-5.939,11.245-6.218,13.751-.174,1.571-.57,3.781-1.987,4.84a3.587,3.587,0,0,1-2.877.522c-4-.713-9.971-4.764-10.887-6.088-.865-1.251-4.279-5.2-5.47-5.472a.44.44,0,0,1-.342-.293.876.876,0,0,1-.049-.224,4.32,4.32,0,0,1,1.945,1.3,14.883,14.883,0,0,0,4.677,2.715c.33.138.616.258.851.367a5.7,5.7,0,0,1,1.908,1.667c.382.438.816.935,1.4,1.522,1.866,1.866,4.392,4.019,7.391,4.113l.015-.469c-1.489-.047-3.638-.541-7.074-3.976-.16-.16-.307-.312-.446-.46.171-2.1,3.977-6.688,5.246-7.862a50.451,50.451,0,0,0,4.887-5.511c.241-.349.545-.85.9-1.43a22.868,22.868,0,0,1,3.255-4.525,13.573,13.573,0,0,0,2.773-4.37l-.437-.171a13.342,13.342,0,0,1-2.652,4.194,23.148,23.148,0,0,0-3.34,4.629c-.348.574-.648,1.07-.882,1.407a50.844,50.844,0,0,1-4.82,5.433c-1.015.94-4.761,5.292-5.33,7.769-.192-.213-.367-.413-.531-.6a6.129,6.129,0,0,0-2.065-1.784c-.243-.112-.532-.233-.867-.373a14.523,14.523,0,0,1-4.526-2.614,4.524,4.524,0,0,0-2.25-1.445,3.185,3.185,0,0,1,.454-1.164c.352-.484,4.82-7.22,6.077-10.557l.045.033c1.27.915,3.924,1.14,6.491,1.358a24.845,24.845,0,0,1,4.744.675l.369.116-.067-.373a1.855,1.855,0,0,1,.662-1.391,5.669,5.669,0,0,0,1.181-1.69c.874-.26,1.938-.573,2.758-.808a6.727,6.727,0,0,0,3.359-2.722,2.781,2.781,0,0,1,1.8-.856.585.585,0,0,0,.523-.292,1.42,1.42,0,0,0,.193-.446,4.161,4.161,0,0,0,2.052.722,20.661,20.661,0,0,1-1.362,7.79h-.016c0,.013,0,.025,0,.038A19.35,19.35,0,0,1,600.364,888.566Z" transform="translate(-572.533 -877.011)" fill="#8367ac"/>
          </g>
          <g id="Group_698" data-name="Group 698" transform="translate(54.235 53.184)">
            <path id="Path_715" data-name="Path 715" d="M687.952,911.42a.54.54,0,0,0,.229-.211l.875-.262a5.516,5.516,0,0,1-.9,1.175,3.093,3.093,0,0,0-.454.57C687.685,912.049,687.758,911.517,687.952,911.42Z" transform="translate(-687.703 -910.947)" fill="#a796c7"/>
          </g>
          <g id="Group_699" data-name="Group 699" transform="translate(69.051 46.682)">
            <path id="Path_716" data-name="Path 716" d="M782.432,869.377c.3.313.6.65.9,1.014a13.274,13.274,0,0,1-.673,1.523A14.92,14.92,0,0,0,782.432,869.377Z" transform="translate(-782.432 -869.377)" fill="#a796c7"/>
          </g>
          <g id="Group_700" data-name="Group 700" transform="translate(64.761 43.422)">
            <path id="Path_717" data-name="Path 717" d="M768.152,860.534c-.317.069-.793.167-1.388.27-.847.146-2.046.32-3.42.426l-.076,0v.01c-.445.033-.907.059-1.381.075-3.384.109-4.968.877-5.5,1.206a2.1,2.1,0,0,1-.171-.9,20.78,20.78,0,0,0,1.362-8.156l-.018-.215h-.216a3.728,3.728,0,0,1-2.234-.814.982.982,0,0,0-.034-.159,2.148,2.148,0,0,1,.355-.476,1.045,1.045,0,0,0,.078-1.259c-.009-.015-.019-.029-.028-.043a1.575,1.575,0,0,0,.037-.9,1.044,1.044,0,0,0-.522-.729,2.863,2.863,0,0,0,.008-.337,15.723,15.723,0,0,1,3.7,2.675,11.946,11.946,0,0,1,.23,4.092l.01,0-.131.2h.439a8,8,0,0,1,1.545.522,12.5,12.5,0,0,0,2.826.887,12.763,12.763,0,0,1,2.344.741c.324.121.656.245.991.365A3.614,3.614,0,0,0,768.152,860.534Z" transform="translate(-755 -848.535)" fill="#a796c7"/>
          </g>
          <g id="Group_701" data-name="Group 701" transform="translate(52.567 24.683)">
            <path id="Path_718" data-name="Path 718" d="M678.652,728.85a1.393,1.393,0,0,1,.145-.123c-.024.053-.048.106-.069.163a2.357,2.357,0,0,0,.343,2.175,3.814,3.814,0,0,0,3.207,1.292q.169,0,.343-.008c1.03-.048,1.773-.108,2.37-.156a19.345,19.345,0,0,1,4.3.04h.023a3.753,3.753,0,0,0,2-.586,6.521,6.521,0,0,0,.619,1.322,12.039,12.039,0,0,1,2.029,7.75v.247c0,2.377.046,3.511.5,4.625a18.26,18.26,0,0,1-4.5-2.576c-.233-.2-.465-.4-.7-.6-1.818-1.568-3.7-3.19-6.081-3l-.053.005-.007,0c-.262-.574-1.295-2.8-2.544-5a15.838,15.838,0,0,0-3.549-4.745A6.4,6.4,0,0,0,678.652,728.85Z" transform="translate(-677.036 -728.727)" fill="#a796c7"/>
          </g>
          <g id="Group_707" data-name="Group 707">
            <g id="Group_702" data-name="Group 702" transform="translate(35.748)">
              <path id="Path_719" data-name="Path 719" d="M617.583,618.378c-.23-.711-.705-4.132-1.208-7.755-.444-3.2-.9-6.5-1.243-8.3-.692-3.653-1.951-5.593-3.961-6.108a25.725,25.725,0,0,1-3.29-1.153,14.072,14.072,0,0,0-2.823-5.052l-.117-.154a15.212,15.212,0,0,1-2.42-4.788,3.236,3.236,0,0,0,.713-2.263c.27-.282.934-1.207.077-2.852a8.514,8.514,0,0,0-.952-1.528,1.518,1.518,0,0,1-.325-.6c-.317-2.306-1.161-4.649-3.126-5.877-2.729-1.706-7.466-1.137-9.01.532a5.479,5.479,0,0,0-1.075,1.417,4.47,4.47,0,0,1-.712,1.014,4.088,4.088,0,0,0-1.153,2.079c-1.257,3.945.683,5.863,1.125,6.237,0,.256,0,.58,0,1.03,0,.423,0,.956,0,1.646,0,1.621,1.838,4.417,3.825,5.914a3.36,3.36,0,0,1,.117.441c-.059.373-.415,1.1-1.989,2.175a2.209,2.209,0,0,0-1.043.22,3.636,3.636,0,0,0-1.384.735,7.553,7.553,0,0,1-1.542.761l-.25.106a1.427,1.427,0,0,0-.559-.125h-.046c-2.365.1-2.845,1.388-2.925,1.692-1.537,1.074-4.044,4.311-4.728,10.088a30.026,30.026,0,0,1-2.631,8.671c-1.969,3.692-.65,6.685,1.222,8.294-1.156,3.231-5.715,10.1-6.07,10.589a3.032,3.032,0,0,0-.492,2.3.907.907,0,0,0,.677.586c.907.206,4.13,3.751,5.188,5.281a19.424,19.424,0,0,0,5.128,3.821,36.485,36.485,0,0,0,1.046,9.056,50.489,50.489,0,0,1,.69,8.462c.169,5.289.36,11.283,2.3,15.078l.418-.214c-1.89-3.7-2.08-9.64-2.247-14.879a50.748,50.748,0,0,0-.7-8.551,37.1,37.1,0,0,1-1.042-8.7,20.031,20.031,0,0,0,5.6,2.205,5.65,5.65,0,0,0,.993.093,3.657,3.657,0,0,0,2.248-.7c1.563-1.168,1.989-3.506,2.173-5.164.271-2.444,2.687-7.767,6.154-13.562a19.587,19.587,0,0,0,1.177-2.308.928.928,0,0,0,.357.559l.155.088.126-.126c.214-.214,1.847-1.1,5.391-1.218.46-.015.908-.04,1.341-.071a101.779,101.779,0,0,0,.156,13.882c.548,4.715-.413,10.6-1.26,15.8-.144.884-.286,1.75-.416,2.588-.378,2.429-.254,6.4.37,11.789.463,4.009,1.044,7.352,1.05,7.385l.462-.081c-.023-.133-2.306-13.319-1.419-19.021.13-.838.271-1.7.415-2.585.853-5.227,1.819-11.151,1.263-15.931a101.7,101.7,0,0,1-.15-13.865c1.221-.106,2.287-.26,3.07-.394.139.87.586,3.585,1,5.253.5,2.013.5,7.421,0,17.022-.089,1.681-.2,3.491-.316,5.407-.575,9.441-1.227,20.142.065,24.99l.453-.121c-1.273-4.774-.595-15.9-.05-24.841.117-1.917.227-3.728.316-5.411.508-9.648.5-15.1-.01-17.16-.414-1.656-.86-4.366-1-5.221.9-.166,1.436-.3,1.461-.307l.456-.116-.366-.295a3.36,3.36,0,0,1-1.359-2.293,10,10,0,0,0,2.959.666q.1,0,.2-.006c1.725-.108,2.167-1.483,2.489-2.487.071-.221.138-.429.21-.6a6.52,6.52,0,0,1,.33-.628A2.884,2.884,0,0,0,617.583,618.378Zm-13.016-28.234.117.154a13.773,13.773,0,0,1,2.727,4.806l.037.165a.873.873,0,0,0,.038.139,10.733,10.733,0,0,1,.228,2.968,16.056,16.056,0,0,0,.741,6.336,20.491,20.491,0,0,1,.429,8.092,4.806,4.806,0,0,1-.726,1.875c-1.272-.655-3.367-1.749-3.763-1.956-.619-1.206-.672-2.2-.672-4.884v-.247a12.554,12.554,0,0,0-2.1-8,6.785,6.785,0,0,1-.955-3.229,5.182,5.182,0,0,0,.061-1.8,23.57,23.57,0,0,1,.606-3.059,13.668,13.668,0,0,0,.3-1.4,10.1,10.1,0,0,0-.637-3.941,4.637,4.637,0,0,0,1.14-.708A15.7,15.7,0,0,0,604.567,590.144Zm3.987,24.791a4.37,4.37,0,0,0,.585-1.238,12.391,12.391,0,0,0-.257,1.4C608.78,615.048,608.67,614.993,608.554,614.934Zm-5.746,2.664c.3.313.6.65.9,1.013a13.273,13.273,0,0,1-.673,1.523A14.93,14.93,0,0,0,602.809,617.6Zm1.078.494a16.3,16.3,0,0,0-5.446-4.315,1.658,1.658,0,0,0-.335-.644,1.912,1.912,0,0,0-1.635-.56l-.044.007s-.266.066-1.155.275a.11.11,0,0,1,.028-.018,3.441,3.441,0,0,1-1.3-.177,4,4,0,0,0-1.614-.145,1.122,1.122,0,0,1-.587-.052c-.292-.087-.476-.227-.5-.383a.312.312,0,0,1,.138-.295,5.416,5.416,0,0,0,.855-.979l-.386-.266a5.076,5.076,0,0,1-.757.875.908.908,0,0,0-.164.165l-.116-.087-.032-.02a.776.776,0,0,1-.484-.646.633.633,0,0,1,.33-.554,7.723,7.723,0,0,0,1.3-1.045l-.332-.332a7.4,7.4,0,0,1-1.2.97,1.14,1.14,0,0,0-.366.334c-.1-.063-.25-.227-.25-.655,0-.51,1.384-1.409,2.366-1.884l-.2-.422a9.2,9.2,0,0,0-2.084,1.354c-.093-.162-.176-.339-.207-.405a1.158,1.158,0,0,1,.145-.92.64.64,0,0,1,.421-.223,3.605,3.605,0,0,0,.524.035,4.05,4.05,0,0,0,.951-.111,3.046,3.046,0,0,0,.819-.215c2.167-.149,3.88,1.331,5.692,2.894.234.2.467.4.7.6a19.213,19.213,0,0,0,5.081,2.83A8.146,8.146,0,0,1,603.887,618.093Zm-5.274-2.175a1.645,1.645,0,0,0-1.343-.152,3.76,3.76,0,0,1-1.68.206l-.154.443a3.737,3.737,0,0,0,1.954-.2,1.016,1.016,0,0,1,1.238.366.582.582,0,0,1-.019.7,3.109,3.109,0,0,0-.328.41.521.521,0,0,0-.169-.041,2.158,2.158,0,0,1-.41-.074,1.622,1.622,0,0,0-1.091.046l.148.445a1.177,1.177,0,0,1,.826-.036,2.593,2.593,0,0,0,.493.088c.015,0,.033,0,.055.049h0l-.018.025.035.025a1.055,1.055,0,0,1-.14.752c-.052.075-.089.09-.1.09h0a3.213,3.213,0,0,0-2.234,1.078,6.221,6.221,0,0,1-3.089,2.517c-1.295.37-3.193.937-4,1.179.006-.152,0-.322,0-.508a5.945,5.945,0,0,1,1.156-4.077l.045-.062v-.032a6.043,6.043,0,0,0,1.31-.667,2.382,2.382,0,0,1-.478.539l.284.374a3.087,3.087,0,0,0,1.1-2.363,3.323,3.323,0,0,1,.55-1.986L592.6,615l.009-.066c.152-1.065.9-1.22,1.93-1.435.155-.032.312-.065.47-.1,1.041-.243,1.422-.336,1.513-.358a1.466,1.466,0,0,1,1.231.4,1.631,1.631,0,0,1,.3,1.14,1.292,1.292,0,0,0-.153.013,6.633,6.633,0,0,1-2.168-.117l-.11.456a6.968,6.968,0,0,0,2.346.125.463.463,0,0,1,.513.206A1.118,1.118,0,0,1,598.613,615.917Zm-10.372,8.656a.54.54,0,0,0,.229-.211l.875-.262a5.516,5.516,0,0,1-.9,1.175,3.091,3.091,0,0,0-.454.57C587.974,625.2,588.047,624.671,588.241,624.573Zm-4.423-9.3a13.557,13.557,0,0,0,1.172-3.346,5.48,5.48,0,0,0,2.76,2.11,15.329,15.329,0,0,0,2.4.638,5.613,5.613,0,0,1,1.76.558,4.235,4.235,0,0,0-.375,1.808,2.618,2.618,0,0,1-.056.533l-.006-.005a4.864,4.864,0,0,1-1.946,1.186,3.989,3.989,0,0,0-2.176-.039,5.029,5.029,0,0,1-2.618-.229c-.222-.07-.437-.137-.665-.187A9.252,9.252,0,0,0,583.818,615.272Zm4.638-19.348a1.5,1.5,0,0,1,.509-.706,2.744,2.744,0,0,0-.178.364l-.017.04a1.776,1.776,0,0,0-.033,1.42,2.1,2.1,0,0,0,.695.825,3.207,3.207,0,0,0,1.859.709c.079,0,.159,0,.238,0a13.292,13.292,0,0,0,1.55-.112c.451-.053.934-.123,1.478-.213l.034-.008a12.355,12.355,0,0,1,3.612-.066,2.223,2.223,0,0,0,1.9-.662,2.1,2.1,0,0,0,.2-.258,7.743,7.743,0,0,0,.158.763,3.014,3.014,0,0,1-1.846.612,19.891,19.891,0,0,0-4.373-.039c-.594.048-1.332.108-2.354.155a3.563,3.563,0,0,1-3.15-1.093A1.88,1.88,0,0,1,588.456,595.924Zm14.439-15.75a2.262,2.262,0,0,1,.265,1.88c-.043-.281-.1-.546-.148-.783-.125-.6-.357-.9-.688-.918a.53.53,0,0,0-.123.012c0-.461-.016-.945-.052-1.439A9.416,9.416,0,0,1,602.9,580.174Zm-15.48-3.068.01-.035v-.032a3.66,3.66,0,0,1,1.043-1.822,4.869,4.869,0,0,0,.772-1.105,5.116,5.116,0,0,1,1-1.312c1.262-1.364,5.717-2.14,8.417-.453,1.811,1.132,2.6,3.324,2.905,5.505l-.012,0c.008.027.016.05.023.075a18.75,18.75,0,0,1,.156,2.476h.339a2.07,2.07,0,0,0-.848,1.1c-.061.2-.227.649-.378,1.043-.661-2.81-1.492-3.352-2.3-3.876a5.063,5.063,0,0,1-.613-.444,3.355,3.355,0,0,0-.814-.542c-.336-.166-.475-.235-.867-1.518-.674-2.2-3.474-1.919-3.5-1.915l-.016,0c-.053.01-5.241,1.025-4.819,6.336.035.438.062.766.085,1.029.036.426.057.677.069.937C587.465,581.857,586.442,580.135,587.416,577.107Zm1.136,8.8c0-.69,0-1.222,0-1.645a21.1,21.1,0,0,0-.085-2.683c-.022-.262-.05-.59-.084-1.027a5.388,5.388,0,0,1,4.428-5.836c.183-.018,2.444-.207,2.994,1.587.434,1.419.641,1.57,1.108,1.8a2.914,2.914,0,0,1,.712.474,5.527,5.527,0,0,0,.667.485c.83.54,1.614,1.05,2.26,4.345l.154.788.294-.747c.022-.056.547-1.39.674-1.811.092-.306.461-.815.628-.815h0c.035,0,.156.1.249.546l.031.149a1.477,1.477,0,0,0-.172-.287l-.364.3a1.182,1.182,0,0,1,.2.952l.457.107a1.594,1.594,0,0,0,.032-.2,2.875,2.875,0,0,1-1.711,3.246l-.325-.169-.212.407-.08.033.026.069c-2.6,4.948-3.417,5.3-5.478,6.2l-.145.063a2.57,2.57,0,0,1-2.24-.523c-.081-.053-.162-.11-.244-.169a.7.7,0,0,0-.075-.09l-.673-.519C589.958,589.466,588.552,587.216,588.552,585.906Zm3.539,7.313a4.166,4.166,0,0,1-.075.668l.458.1a4.922,4.922,0,0,0,.026-1.745c0-.008,0-.014,0-.022a2.749,2.749,0,0,0,2.5.443l.144-.063c2.115-.921,2.98-1.3,5.5-6.029a9.241,9.241,0,0,1,.529,3.471,13.531,13.531,0,0,1-.292,1.344,23.011,23.011,0,0,0-.619,3.2h0v.005a11.5,11.5,0,0,0-.056,1.691,2.1,2.1,0,0,1-.451.916,1.786,1.786,0,0,1-1.521.506,12.844,12.844,0,0,0-3.768.082c-.531.087-1,.155-1.442.207a11.741,11.741,0,0,1-1.718.105,2.76,2.76,0,0,1-1.594-.616,1.638,1.638,0,0,1-.545-.637,1.313,1.313,0,0,1,.035-1.047l.018-.042a1.147,1.147,0,0,1,.216-.391A8.915,8.915,0,0,0,592.091,593.219Zm-4.151,2.5a1.4,1.4,0,0,1,.145-.123c-.024.053-.048.106-.069.163a2.357,2.357,0,0,0,.343,2.175,3.813,3.813,0,0,0,3.207,1.292q.169,0,.343-.008c1.03-.048,1.773-.108,2.37-.156a19.338,19.338,0,0,1,4.3.04h.023a3.752,3.752,0,0,0,2-.587,6.532,6.532,0,0,0,.619,1.322,12.038,12.038,0,0,1,2.029,7.75v.247c0,2.377.047,3.511.5,4.625a18.261,18.261,0,0,1-4.5-2.576c-.233-.2-.465-.4-.7-.6-1.818-1.568-3.7-3.19-6.081-3l-.053.005-.007,0c-.262-.574-1.295-2.8-2.544-5a15.838,15.838,0,0,0-3.549-4.745A6.4,6.4,0,0,0,587.94,595.723Zm-2.709.88h.026c.537,0,1.78.661,4.207,4.925,1.189,2.09,2.182,4.212,2.49,4.885a2.928,2.928,0,0,1-.308.094,7.9,7.9,0,0,1-1.254.069,45.144,45.144,0,0,1-4.458-6.639,4.1,4.1,0,0,0-2.29-2.348,1.767,1.767,0,0,0-.7-.047v0A2.772,2.772,0,0,1,585.231,596.6Zm-9.889,20.2a30.548,30.548,0,0,0,2.683-8.834c.675-5.7,3.273-9.091,4.758-9.914a1.266,1.266,0,0,1,.74-.017,3.735,3.735,0,0,1,1.992,2.108,44.8,44.8,0,0,0,4.354,6.524,1.064,1.064,0,0,0-.382.287,1.605,1.605,0,0,0-.247,1.332l.017.057a5.286,5.286,0,0,0,.323.61,1.034,1.034,0,0,0-.223.584,1.113,1.113,0,0,0,.537,1.09,1.049,1.049,0,0,0-.018.2,1.232,1.232,0,0,0,.718,1.044l.224.168a.725.725,0,0,0,.011.119c.037.2.194.555.831.746a1.573,1.573,0,0,0,.783.068,3.581,3.581,0,0,1,1.449.138l.1.022c-.861.2-1.654.529-1.843,1.67l-.01.014a6.039,6.039,0,0,0-1.9-.61,14.7,14.7,0,0,1-2.333-.62,4.982,4.982,0,0,1-2.791-2.385,7.836,7.836,0,0,0,.089-1.012h-.469a7.9,7.9,0,0,1-.1,1.029l-.023.009.016.039a12.949,12.949,0,0,1-.983,3.275c-.063-.24-.109-.394-.117-.42l-.449.136a11.946,11.946,0,0,1,.526,3.962c-.1-.009-.2-.015-.3-.015a7.829,7.829,0,0,1-1.224-.132,7.458,7.458,0,0,0-3.677.141l.133.45a7.051,7.051,0,0,1,3.47-.128,8.173,8.173,0,0,0,1.3.137,4.047,4.047,0,0,1,1.29.252,5.492,5.492,0,0,0,2.829.245,4.146,4.146,0,0,1,1.825-.038,6.443,6.443,0,0,0-1.129,4.2c.011.373.022.758-.086.812-.644.322-.544,1.755-.434,2.55a29.282,29.282,0,0,0-4.485-.592c-2.5-.213-5.091-.433-6.256-1.271C574.923,623.448,573.367,620.51,575.342,616.807Zm22.467,13.541c-3.5,5.848-5.939,11.245-6.218,13.751-.175,1.571-.57,3.781-1.987,4.84a3.587,3.587,0,0,1-2.877.522c-3.995-.713-9.971-4.764-10.887-6.088-.865-1.251-4.279-5.2-5.47-5.472a.44.44,0,0,1-.342-.293.875.875,0,0,1-.049-.224,4.318,4.318,0,0,1,1.945,1.3A14.884,14.884,0,0,0,576.6,641.4c.331.138.616.258.851.367a5.7,5.7,0,0,1,1.908,1.667c.382.438.816.935,1.4,1.522,1.866,1.866,4.392,4.019,7.391,4.113l.015-.469c-1.489-.047-3.638-.541-7.074-3.976-.16-.16-.307-.313-.446-.46.171-2.1,3.977-6.688,5.246-7.862a50.45,50.45,0,0,0,4.887-5.511c.242-.349.545-.85.9-1.43a22.863,22.863,0,0,1,3.255-4.525,13.574,13.574,0,0,0,2.773-4.37l-.437-.171a13.343,13.343,0,0,1-2.652,4.194,23.147,23.147,0,0,0-3.34,4.629c-.348.574-.648,1.07-.882,1.407a50.842,50.842,0,0,1-4.82,5.433c-1.015.94-4.761,5.292-5.33,7.769-.192-.213-.367-.413-.531-.6a6.128,6.128,0,0,0-2.065-1.784c-.243-.112-.532-.233-.867-.373a14.524,14.524,0,0,1-4.526-2.614,4.524,4.524,0,0,0-2.25-1.445,3.186,3.186,0,0,1,.454-1.164c.352-.484,4.82-7.22,6.077-10.557l.045.033c1.27.915,3.924,1.14,6.491,1.358a24.849,24.849,0,0,1,4.744.675l.369.116-.066-.373a1.855,1.855,0,0,1,.662-1.391,5.672,5.672,0,0,0,1.181-1.69c.874-.26,1.938-.573,2.758-.808a6.726,6.726,0,0,0,3.359-2.722,2.781,2.781,0,0,1,1.8-.856.585.585,0,0,0,.523-.292,1.42,1.42,0,0,0,.193-.446,4.16,4.16,0,0,0,2.052.721,20.662,20.662,0,0,1-1.362,7.79h-.015c0,.013,0,.025,0,.038A19.353,19.353,0,0,1,597.81,630.347Zm13.86-4.01c-.317.069-.793.167-1.388.27-.847.146-2.046.32-3.42.426l-.076,0v.01c-.445.033-.906.059-1.381.075-3.384.109-4.968.877-5.5,1.206a2.105,2.105,0,0,1-.171-.9,20.782,20.782,0,0,0,1.362-8.156l-.018-.215h-.216a3.729,3.729,0,0,1-2.234-.814.983.983,0,0,0-.034-.16,2.148,2.148,0,0,1,.355-.476,1.045,1.045,0,0,0,.078-1.259c-.009-.015-.019-.029-.028-.043a1.575,1.575,0,0,0,.037-.9,1.044,1.044,0,0,0-.522-.729,2.862,2.862,0,0,0,.008-.337,15.722,15.722,0,0,1,3.7,2.675,11.947,11.947,0,0,1,.23,4.092l.01,0-.131.2h.439a7.994,7.994,0,0,1,1.545.522,12.5,12.5,0,0,0,2.826.887,12.768,12.768,0,0,1,2.344.741c.324.121.656.245.991.365A3.614,3.614,0,0,0,611.67,626.338Zm5.061-5.633a6.95,6.95,0,0,0-.352.674c-.082.187-.152.407-.226.639-.312.973-.666,2.075-2.072,2.162a13.676,13.676,0,0,1-4.43-1.165,12.507,12.507,0,0,0-2.465-.768,12.522,12.522,0,0,1-2.7-.857c-.583-.23-1.022-.4-1.337-.488a13.334,13.334,0,0,0,1.09-2.369,8.986,8.986,0,0,0,.373-5.154c.724.4,2.138,1.159,3.652,1.935a11.782,11.782,0,0,0,2.118.9,2,2,0,0,1,.525.217,2.776,2.776,0,0,0,.984.239,4,4,0,0,1,2.474.97l.343-.32a4.37,4.37,0,0,0-2.753-1.115,2.8,2.8,0,0,1-.8-.174,2.069,2.069,0,0,0-.473-.215,2.184,2.184,0,0,1,1.642-1.934l-.043-.231-.043-.231a2.554,2.554,0,0,0-.965.451,2.7,2.7,0,0,0-1.046,1.8c-.217-.074-.5-.182-.9-.363.079-.708.443-3.253,1.639-4.126,1.557-1.136,1.856-3.8,1.868-3.913l-.467-.05c0,.026-.29,2.57-1.678,3.583a4.536,4.536,0,0,0-1.4,2.337c.368-1.562.52-4.215-.381-8.546l-.013-.041a15.74,15.74,0,0,1-.715-6.155,11.425,11.425,0,0,0-.175-2.772,25.039,25.039,0,0,0,3.047,1.047c1.813.464,2.962,2.288,3.616,5.74.337,1.781.8,5.081,1.239,8.273.506,3.643.984,7.085,1.226,7.835A2.434,2.434,0,0,1,616.731,620.705Z" transform="translate(-569.505 -570.917)" fill="#652d90"/>
            </g>
            <g id="Group_703" data-name="Group 703" transform="translate(50.936 43.348)">
              <path id="Path_720" data-name="Path 720" d="M666.826,850.135l.087.029a2.15,2.15,0,0,0,.622.143.6.6,0,0,0,.5-.3c.025-.031.054-.066.086-.1a1.645,1.645,0,0,0,.132-1.653c-.116-.14-.387-.33-.9-.036a1.322,1.322,0,0,0-.565,1.839Zm.754-1.512c.115-.066.265-.124.308-.072a1.309,1.309,0,0,1-.127,1.048c-.036.042-.067.081-.1.115-.121.151-.13.162-.508.037A.854.854,0,0,1,667.579,848.622Z" transform="translate(-666.612 -848.06)" fill="#652d90"/>
            </g>
            <g id="Group_704" data-name="Group 704" transform="translate(67.286 11.469)">
              <path id="Path_721" data-name="Path 721" d="M772.038,645.927a.9.9,0,0,0,.4-.907v-.074a.727.727,0,0,0-.7-.7l-.042.467c.011,0,.274.027.274.232v.075c0,.34,0,.361-.222.54a1.543,1.543,0,0,0-.6,1.07h.469A1.113,1.113,0,0,1,772.038,645.927Z" transform="translate(-771.147 -644.247)" fill="#652d90"/>
            </g>
            <g id="Group_705" data-name="Group 705" transform="translate(0 15.621)">
              <path id="Path_722" data-name="Path 722" d="M378.663,702.453c-.056-.378-.142-.787-.233-1.219a19.35,19.35,0,0,1-.419-2.614,17.66,17.66,0,0,1,.168-3.3c1.7-1.233-.074-7.842-.29-8.622-1.074-4.574-3.888-5.512-5.09-5.912a4.791,4.791,0,0,1-1.847-1.205c.006-.1.013-.191.018-.29a28.694,28.694,0,0,0-.116-4.032,5.349,5.349,0,0,0-1.949-3.6,3.618,3.618,0,0,0-2.7-.851c-1.764.225-2.169,1.075-2.839,2.484-.184.386-.392.823-.656,1.31-1.069,1.972-.525,5.314-.317,6.36-.636.278-3.057,1.473-3.092,3.58a19.76,19.76,0,0,1-1.011,5.407l-.058.2c-.365,1.228-1.017,4.635-.52,5.953a.229.229,0,0,0,.012.091c.036.1.114.194.517.255a34.527,34.527,0,0,1-.968,4.618c-.423,1.171-.3,1.509-.173,1.866a2.113,2.113,0,0,1,.078.248l.007.023a2.381,2.381,0,0,0,.915,1.158,3.992,3.992,0,0,0,1.681.5,1.5,1.5,0,0,0,.522-.086,1.057,1.057,0,0,0,.638-.652c.3-.8.327-1.368.082-1.691a.661.661,0,0,0-.438-.252,2.057,2.057,0,0,0-.366-.81,6.34,6.34,0,0,1,.352-2.409,8.6,8.6,0,0,0,.564-2.173.548.548,0,0,1,.072.061l.061-.061a8.89,8.89,0,0,0-.08,1.116,9.808,9.808,0,0,0,.643,4.314,11.56,11.56,0,0,1-.5,4.01c-.714,2.747-.1,7.624-.062,7.959a50.17,50.17,0,0,0,.727,7.7,7.862,7.862,0,0,1,.189,2.543,5.626,5.626,0,0,0,.712,3.222l.009.019a2.329,2.329,0,0,1,.087,1.06c-.015.232-.029.419-.042.58a6.382,6.382,0,0,0-.014,1.228,2.165,2.165,0,0,1-.076.586,3.462,3.462,0,0,0-.1.75c-.04.1-.072.2-.072.2a12.934,12.934,0,0,1-2.669,1.5c-2.113,1-4.949,2.5-5.616,3.447s-6.061,1.891-6.116,5.227a2.969,2.969,0,0,1-1.668,2.169c-1.5.723-6.95,4.226-5.393,5.449s3.614,1.613,6.45-.167,2-3.614,6.172-4.059,7.062-3.058,9.119-4.448,3-1,5.394-2.224.445-1.5-.056-1.557a15.183,15.183,0,0,0-2.836.778,50.217,50.217,0,0,1,4.448-2.391c3.058-1.613,4.559-3,4.393-3.67l0,.005a8.308,8.308,0,0,0-.3-3.929,16.159,16.159,0,0,1,.383-3.313,12.259,12.259,0,0,0-.072-3.214,45.853,45.853,0,0,1-.034-9.877c.254-2.175.437-3.518.558-4.407a7.713,7.713,0,0,0,.075-3.042l-.022-.161a6.6,6.6,0,0,1,.058-2.815,2.032,2.032,0,0,0,.395-1.962,6.86,6.86,0,0,1-.126-2.444,7.226,7.226,0,0,1,.514,2.178,5.961,5.961,0,0,1-.147,2.585,2.64,2.64,0,0,0-.094.538l-.045-.048a1.4,1.4,0,0,0-.324,1.741c.04.12.081.245.115.374.144.547.6.706,1.138.706a6.637,6.637,0,0,0,1.284-.179C378.98,704.594,378.811,703.457,378.663,702.453ZM360.216,698.8a6.824,6.824,0,0,0-.383,2.655l0,.069.046.051a2.3,2.3,0,0,1,.4,1.3h.391c0-.012,0-.109-.015-.254a.249.249,0,0,1,.054.051c.072.095.2.413-.137,1.318a.673.673,0,0,1-.408.423,2.772,2.772,0,0,1-1.879-.389,1.989,1.989,0,0,1-.73-.939,2.5,2.5,0,0,0-.088-.279c-.108-.3-.2-.563.173-1.6a34.423,34.423,0,0,0,.989-4.709c.173.013.381.022.63.029a8.663,8.663,0,0,1,1.5.125A8.487,8.487,0,0,1,360.216,698.8Zm7.757,35.387c-.667,1.223-1.835,1.335-4.281,2.78a4.528,4.528,0,0,1-2.169.5c-1.334,0,.556-.556.945-1.223.366-.627,2.748-2.59,3.307-3.322a3.178,3.178,0,0,0,.6-.712,1.374,1.374,0,0,0,.452-1.471,2.57,2.57,0,0,1,.291-1.087.289.289,0,0,0,.189-.128c.153-.233.046-.7-.255-1.8a11.235,11.235,0,0,1-.337-1.452c-.008-.071-.021-.179-.038-.32-.953-7.854-.57-12.1-.079-14.283a11.505,11.505,0,0,1,.974-2.057,4.438,4.438,0,0,0,.573-1.658,13.227,13.227,0,0,1,1.684,5.673,26.528,26.528,0,0,1-.154,4.946c-.1.966-.206,1.965-.236,3.323-.071,3.166.127,4.963.684,6.2.3.675.183.876.067,1.07a.753.753,0,0,0-.14.407,1.365,1.365,0,0,1-.014.167c-.054.428-.026.832.824,1.778A10.927,10.927,0,0,0,367.972,734.188Zm3.038-2.508c.178.2.324.381.454.541l.108.132A1.763,1.763,0,0,1,371.01,731.68Zm3.443-24.337c-.121.891-.3,2.236-.559,4.415a46.84,46.84,0,0,0,.033,9.957,12.3,12.3,0,0,1,.082,3.085,16.358,16.358,0,0,0-.4,3.439v.033l.011.031c.464,1.345.6,3.561.076,4.3a.462.462,0,0,1-.392.226c-.851,0-1.011-.2-1.543-.85-.163-.2-.348-.427-.592-.7-.819-.905-.78-1.215-.745-1.488a1.671,1.671,0,0,0,.017-.216.407.407,0,0,1,.084-.206c.18-.3.313-.636-.045-1.432-.531-1.181-.72-2.928-.65-6.032.03-1.342.134-2.333.234-3.291a26.834,26.834,0,0,0,.155-5.009,13.044,13.044,0,0,0-2.038-6.329l-.311-.437-.043.535a5.2,5.2,0,0,1-.578,2.017,11.815,11.815,0,0,0-1.024,2.158l-.007.023c-.5,2.208-.891,6.5.07,14.428.017.139.03.246.038.316a11.4,11.4,0,0,0,.348,1.512,6.937,6.937,0,0,1,.31,1.459c-.4.152-.547,1.141-.6,1.976a2.656,2.656,0,0,1-1.671,1.809,1.134,1.134,0,0,1-1.115-.248,1.458,1.458,0,0,1-.356-1.62,2.424,2.424,0,0,0,.083-.7,6.086,6.086,0,0,1,.014-1.165c.013-.162.027-.351.042-.586a2.534,2.534,0,0,0-.13-1.265,5.3,5.3,0,0,1-.678-3.029,8.3,8.3,0,0,0-.2-2.651,49.9,49.9,0,0,1-.719-7.637l0-.023c-.007-.051-.654-5.109.051-7.821a14.4,14.4,0,0,0,.54-3.59,1.139,1.139,0,0,0,.387.2,2.287,2.287,0,0,0,.654.088,6.847,6.847,0,0,0,1.219-.153,6.623,6.623,0,0,1,1.934-.158l.5.054a7.483,7.483,0,0,0,3.136-.173,6.864,6.864,0,0,1,1.734-.079,3.6,3.6,0,0,0,2.621-.562,9.348,9.348,0,0,0,.067,2.29l.022.162A7.387,7.387,0,0,1,374.454,707.343Zm.511-7.845a1.667,1.667,0,0,1-.351,1.681c-.7,1.03-1.665.992-2.78.948a7.15,7.15,0,0,0-1.833.087,7.111,7.111,0,0,1-3.01.167l-.507-.054a7.018,7.018,0,0,0-2.045.162,3.731,3.731,0,0,1-1.69.075c-.775-.23-1.168-1.8-1.168-4.661a17.075,17.075,0,0,1,.569-3.582,8.586,8.586,0,0,0,.385-3.709,33.453,33.453,0,0,1-.8-3.591l-.386.063a33.866,33.866,0,0,0,.814,3.643,8.48,8.48,0,0,1-.392,3.507c-.168.733-.338,1.48-.45,2.205a4.408,4.408,0,0,0-2.045-.309,5.174,5.174,0,0,1-1.169-.106l0-.007c-.468-1.08.082-4.32.508-5.753l.058-.2a20.086,20.086,0,0,0,1.027-5.512c.036-2.111,2.962-3.273,2.992-3.284l-.013-.033.171-.04c-.01-.042-.97-4.224.212-6.4.269-.5.479-.938.665-1.329.675-1.419.983-2.067,2.535-2.264a3.226,3.226,0,0,1,2.4.769,4.95,4.95,0,0,1,1.8,3.327,28.291,28.291,0,0,1,.115,3.975c-.006.123-.014.241-.022.359l-.05.041.045.053a8.755,8.755,0,0,1-.46,2.447l.364.142a8.491,8.491,0,0,0,.456-2.223,5,5,0,0,0,1.763,1.067c1.236.412,3.809,1.27,4.834,5.638a36.178,36.178,0,0,1,.833,4.015c.358,2.547.151,4.07-.582,4.287l-.045.02a3.936,3.936,0,0,1-2.689.337l-.093-.221c-.194-.459-.416-.984-.669-1.6a9.708,9.708,0,0,1,0-6.207l-.367-.135a9.922,9.922,0,0,0,0,6.49c.253.617.475,1.144.67,1.6l.156.369-.008.026.021.005q.1.228.182.435A7.932,7.932,0,0,0,374.965,699.5Zm.654,4.742c-.037-.142-.08-.272-.122-.4-.143-.43-.239-.722-.008-1.07a4.092,4.092,0,0,0,.056.515l.384-.073a3.453,3.453,0,0,1,.034-1.37,6.356,6.356,0,0,0,.161-2.724,9.4,9.4,0,0,0-.916-3.227,4.212,4.212,0,0,0,.7.062,4.313,4.313,0,0,0,1.843-.415,17.032,17.032,0,0,0-.134,3.109,19.668,19.668,0,0,0,.426,2.666c.09.427.175.83.229,1.2.163,1.1.217,1.785-.693,1.973C376.388,704.731,375.756,704.761,375.619,704.24Z" transform="translate(-340.951 -670.79)" fill="#652d90"/>
            </g>
            <g id="Group_706" data-name="Group 706" transform="translate(22.718 18.825)">
              <path id="Path_723" data-name="Path 723" d="M488.708,691.29a2.445,2.445,0,0,0-2.252,1.921,9.444,9.444,0,0,0,.462,5.733l-.013.026.028.014a11.5,11.5,0,0,0,1.328,2.508l.135.179.159-.159a19.494,19.494,0,0,0,2.626-5.62c.655-2.059.25-3.171-.206-3.741A2.547,2.547,0,0,0,488.708,691.29Zm-.284,9.751a11.606,11.606,0,0,1-.993-1.863,3.747,3.747,0,0,0,1.116.185,2.429,2.429,0,0,0,.909-.167A15.271,15.271,0,0,1,488.423,701.04Zm2.385-5.267a26.611,26.611,0,0,1-1.065,2.8,2.6,2.6,0,0,1-2.507.112,9,9,0,0,1-.4-5.385l0-.016a2.026,2.026,0,0,1,1.9-1.608q.128-.011.252-.011a2.09,2.09,0,0,1,1.676.726C491.237,693.105,491.285,694.274,490.808,695.773Z" transform="translate(-486.198 -691.277)" fill="#652d90"/>
            </g>
          </g>
          <g id="Group_708" data-name="Group 708" transform="translate(53.256 0.468)">
            <path id="Path_724" data-name="Path 724" d="M681.846,579.632l.01-.035v-.032a3.66,3.66,0,0,1,1.043-1.822,4.873,4.873,0,0,0,.773-1.105,5.112,5.112,0,0,1,1-1.312c1.262-1.364,5.717-2.14,8.417-.453,1.811,1.132,2.6,3.324,2.905,5.505l-.012,0c.008.027.016.05.023.075a18.75,18.75,0,0,1,.156,2.476h.339a2.07,2.07,0,0,0-.848,1.1c-.061.2-.227.649-.378,1.043-.661-2.81-1.492-3.352-2.3-3.876a5.063,5.063,0,0,1-.613-.444,3.353,3.353,0,0,0-.814-.542c-.336-.166-.475-.235-.867-1.518-.674-2.2-3.474-1.919-3.5-1.915l-.016,0c-.053.01-5.241,1.025-4.819,6.336.035.437.062.766.085,1.029.036.426.057.677.069.937C681.895,584.382,680.872,582.66,681.846,579.632Z" transform="translate(-681.443 -573.909)" fill="#6d52a1"/>
          </g>
          <g id="Group_709" data-name="Group 709" transform="translate(66.914 14.538)">
            <path id="Path_725" data-name="Path 725" d="M772.662,668.554l.117.154a13.772,13.772,0,0,1,2.727,4.806l.065.233s.019.064.011.071a10.735,10.735,0,0,1,.228,2.968,16.059,16.059,0,0,0,.741,6.336,20.493,20.493,0,0,1,.429,8.092,4.808,4.808,0,0,1-.726,1.875c-1.272-.655-3.367-1.749-3.763-1.956-.619-1.206-.672-2.2-.672-4.884V686a12.554,12.554,0,0,0-2.1-8,6.785,6.785,0,0,1-.955-3.229,5.183,5.183,0,0,0,.061-1.8,23.56,23.56,0,0,1,.606-3.059,13.705,13.705,0,0,0,.3-1.4,10.1,10.1,0,0,0-.637-3.941,4.639,4.639,0,0,0,1.14-.708A15.7,15.7,0,0,0,772.662,668.554Z" transform="translate(-768.766 -663.865)" fill="#6d52a1"/>
          </g>
          <g id="Group_710" data-name="Group 710" transform="translate(68.392 8.01)">
            <path id="Path_726" data-name="Path 726" d="M778.965,623.375a2.263,2.263,0,0,1,.265,1.88c-.043-.281-.1-.546-.148-.783-.125-.6-.357-.9-.688-.918a.534.534,0,0,0-.123.012c0-.461-.016-.945-.052-1.439A9.423,9.423,0,0,1,778.965,623.375Z" transform="translate(-778.219 -622.127)" fill="#6d52a1"/>
          </g>
          <g id="Group_711" data-name="Group 711" transform="translate(69.394 24.71)">
            <path id="Path_727" data-name="Path 727" d="M798.2,753.98a6.984,6.984,0,0,0-.352.674c-.082.187-.152.407-.226.639-.312.973-.666,2.075-2.072,2.162a13.676,13.676,0,0,1-4.43-1.165,12.511,12.511,0,0,0-2.465-.768,12.525,12.525,0,0,1-2.7-.857c-.583-.23-1.022-.4-1.337-.488a13.329,13.329,0,0,0,1.09-2.369,8.986,8.986,0,0,0,.373-5.154c.724.4,2.137,1.159,3.652,1.935a11.771,11.771,0,0,0,2.118.9,2.009,2.009,0,0,1,.525.217,2.777,2.777,0,0,0,.983.239,4,4,0,0,1,2.474.97l.343-.32a4.369,4.369,0,0,0-2.753-1.115,2.8,2.8,0,0,1-.8-.174,2.067,2.067,0,0,0-.473-.215,2.184,2.184,0,0,1,1.642-1.933l-.043-.231-.043-.231a2.553,2.553,0,0,0-.965.451,2.7,2.7,0,0,0-1.046,1.8c-.217-.074-.5-.182-.9-.363.079-.708.443-3.253,1.639-4.126,1.557-1.136,1.856-3.8,1.868-3.913l-.467-.05c0,.026-.29,2.57-1.678,3.583a4.537,4.537,0,0,0-1.4,2.337c.368-1.562.52-4.215-.38-8.546l-.013-.041a15.737,15.737,0,0,1-.715-6.155,11.428,11.428,0,0,0-.175-2.772,25.065,25.065,0,0,0,3.047,1.047c1.813.464,2.962,2.288,3.616,5.741.337,1.781.8,5.081,1.239,8.273.506,3.643.984,7.085,1.226,7.835A2.434,2.434,0,0,1,798.2,753.98Z" transform="translate(-784.623 -728.902)" fill="#a796c7"/>
          </g>
          <g id="Group_712" data-name="Group 712" transform="translate(40.67 27.078)">
            <path id="Path_728" data-name="Path 728" d="M601.889,762.852a30.55,30.55,0,0,0,2.683-8.834c.675-5.7,3.273-9.091,4.758-9.914a1.267,1.267,0,0,1,.74-.017,3.735,3.735,0,0,1,1.992,2.108,44.785,44.785,0,0,0,4.354,6.524,1.065,1.065,0,0,0-.382.287,1.605,1.605,0,0,0-.247,1.332l.017.057a5.3,5.3,0,0,0,.323.61,1.035,1.035,0,0,0-.223.584,1.113,1.113,0,0,0,.537,1.09,1.044,1.044,0,0,0-.018.2,1.232,1.232,0,0,0,.718,1.044l.224.168a.719.719,0,0,0,.011.119c.037.2.194.555.831.746a1.573,1.573,0,0,0,.783.068,3.581,3.581,0,0,1,1.449.138l.1.022c-.861.2-1.654.529-1.843,1.67l-.01.014a6.041,6.041,0,0,0-1.9-.61,14.7,14.7,0,0,1-2.333-.62,4.981,4.981,0,0,1-2.791-2.385,7.829,7.829,0,0,0,.089-1.012h-.469a7.879,7.879,0,0,1-.1,1.029l-.023.009.016.039a12.945,12.945,0,0,1-.983,3.275c-.063-.24-.109-.394-.117-.42l-.449.136a11.947,11.947,0,0,1,.526,3.962c-.1-.009-.2-.015-.3-.015a7.822,7.822,0,0,1-1.224-.132,7.458,7.458,0,0,0-3.677.141l.133.45a7.051,7.051,0,0,1,3.47-.128,8.167,8.167,0,0,0,1.3.138,4.047,4.047,0,0,1,1.29.252,5.493,5.493,0,0,0,2.829.245,4.145,4.145,0,0,1,1.825-.038,6.443,6.443,0,0,0-1.129,4.2c.011.373.022.758-.086.812-.644.322-.544,1.755-.434,2.55a29.283,29.283,0,0,0-4.485-.592c-2.5-.213-5.091-.433-6.257-1.271C601.47,769.494,599.914,766.555,601.889,762.852Z" transform="translate(-600.974 -744.04)" fill="#a796c7"/>
          </g>
          <g id="Group_713" data-name="Group 713" transform="translate(54.599 24.301)">
            <path id="Path_729" data-name="Path 729" d="M690.129,726.992a1.5,1.5,0,0,1,.509-.706,2.741,2.741,0,0,0-.178.364l-.017.04a1.776,1.776,0,0,0-.033,1.42,2.1,2.1,0,0,0,.695.825,3.207,3.207,0,0,0,1.859.708c.079,0,.159,0,.238,0a13.292,13.292,0,0,0,1.55-.112c.451-.053.934-.123,1.478-.213l.034-.008a12.358,12.358,0,0,1,3.612-.066,2.223,2.223,0,0,0,1.9-.662,2.106,2.106,0,0,0,.2-.258,7.726,7.726,0,0,0,.158.763,3.013,3.013,0,0,1-1.846.612,19.9,19.9,0,0,0-4.373-.039c-.594.048-1.332.108-2.354.155a3.562,3.562,0,0,1-3.15-1.093A1.88,1.88,0,0,1,690.129,726.992Z" transform="translate(-690.029 -726.286)" fill="#a796c7"/>
          </g>
          <g id="Group_714" data-name="Group 714" transform="translate(23.108 19.216)">
            <path id="Path_730" data-name="Path 730" d="M492.911,697.881a26.6,26.6,0,0,1-1.065,2.8,2.6,2.6,0,0,1-2.507.112,9,9,0,0,1-.4-5.385l0-.016a2.026,2.026,0,0,1,1.9-1.608q.128-.011.252-.011a2.09,2.09,0,0,1,1.676.726C493.34,695.213,493.388,696.382,492.911,697.881Z" transform="translate(-488.69 -693.776)" fill="#8367ac"/>
          </g>
          <g id="Group_715" data-name="Group 715" transform="translate(20.432 46.786)">
            <path id="Path_731" data-name="Path 731" d="M484.656,875.433c-.121.891-.3,2.236-.559,4.415a46.837,46.837,0,0,0,.033,9.957,12.3,12.3,0,0,1,.082,3.085,16.354,16.354,0,0,0-.4,3.439v.033l.011.031c.464,1.345.6,3.561.076,4.3a.462.462,0,0,1-.392.226c-.851,0-1.011-.2-1.543-.85-.163-.2-.348-.427-.592-.7-.819-.9-.78-1.215-.745-1.488a1.673,1.673,0,0,0,.017-.216.406.406,0,0,1,.084-.206c.18-.3.313-.636-.045-1.432-.531-1.181-.72-2.928-.65-6.032.03-1.342.134-2.333.234-3.291a26.831,26.831,0,0,0,.155-5.009,13.045,13.045,0,0,0-2.038-6.329l-.311-.437-.043.535a5.2,5.2,0,0,1-.578,2.017,11.821,11.821,0,0,0-1.024,2.158l-.007.023c-.5,2.208-.891,6.5.07,14.428.017.14.03.246.038.316a11.415,11.415,0,0,0,.348,1.512,6.935,6.935,0,0,1,.31,1.459c-.4.152-.547,1.141-.6,1.976a2.657,2.657,0,0,1-1.671,1.809,1.134,1.134,0,0,1-1.115-.248,1.458,1.458,0,0,1-.356-1.62,2.426,2.426,0,0,0,.083-.7,6.086,6.086,0,0,1,.014-1.165c.013-.163.027-.351.042-.586a2.534,2.534,0,0,0-.13-1.265,5.3,5.3,0,0,1-.678-3.029,8.3,8.3,0,0,0-.2-2.651,49.892,49.892,0,0,1-.719-7.637l0-.023c-.007-.051-.654-5.109.051-7.821a14.408,14.408,0,0,0,.54-3.59,1.137,1.137,0,0,0,.387.2,2.287,2.287,0,0,0,.654.088,6.852,6.852,0,0,0,1.219-.153,6.619,6.619,0,0,1,1.934-.158l.5.054a7.481,7.481,0,0,0,3.136-.173,6.864,6.864,0,0,1,1.734-.079,3.6,3.6,0,0,0,2.621-.562,9.349,9.349,0,0,0,.067,2.289l.022.162A7.388,7.388,0,0,1,484.656,875.433Z" transform="translate(-471.585 -870.045)" fill="#652d90"/>
          </g>
          <g id="Group_716" data-name="Group 716" transform="translate(34.259 40.371)">
            <path id="Path_732" data-name="Path 732" d="M560.393,837.729c-.037-.142-.08-.272-.122-.4-.142-.43-.239-.722-.007-1.07a4.1,4.1,0,0,0,.056.515l.384-.073a3.456,3.456,0,0,1,.034-1.37,6.355,6.355,0,0,0,.161-2.724,9.4,9.4,0,0,0-.916-3.227,4.218,4.218,0,0,0,.7.062,4.313,4.313,0,0,0,1.843-.415,17.034,17.034,0,0,0-.134,3.109,19.661,19.661,0,0,0,.426,2.666c.09.427.175.83.229,1.2.163,1.1.217,1.785-.693,1.973C561.162,838.219,560.53,838.25,560.393,837.729Z" transform="translate(-559.983 -829.028)" fill="#8367ac"/>
          </g>
          <g id="Group_717" data-name="Group 717" transform="translate(16.425 41.324)">
            <path id="Path_733" data-name="Path 733" d="M448.8,837.429a6.824,6.824,0,0,0-.383,2.655l0,.069.046.051a2.3,2.3,0,0,1,.4,1.3h.391c0-.012,0-.109-.015-.254a.249.249,0,0,1,.054.051c.072.095.2.413-.137,1.318a.673.673,0,0,1-.408.423,2.772,2.772,0,0,1-1.879-.389,1.989,1.989,0,0,1-.73-.939,2.509,2.509,0,0,0-.088-.279c-.108-.3-.2-.563.173-1.6a34.427,34.427,0,0,0,.989-4.709c.173.013.381.022.63.029a8.659,8.659,0,0,1,1.5.124A8.489,8.489,0,0,1,448.8,837.429Z" transform="translate(-445.965 -835.121)" fill="#8367ac"/>
          </g>
        </g>
      </g>
    </g>
  </g>
</svg>
