<svg xmlns="http://www.w3.org/2000/svg" xmlns:xlink="http://www.w3.org/1999/xlink" width="95.868" height="110.52" viewBox="0 0 95.868 110.52">
  <defs>
    <clipPath id="clip-path">
      <path id="Path_709" data-name="Path 709" d="M1982.371,627.586a47.934,47.934,0,0,1-95.868,0c0-26.473,21.461-62.586,47.934-62.586S1982.371,601.113,1982.371,627.586Z" transform="translate(-1886.503 -565)" fill="none"/>
    </clipPath>
  </defs>
  <g id="Group_692" data-name="Group 692" transform="translate(-1886.503 -565)">
    <circle id="Ellipse_299" data-name="Ellipse 299" cx="47.934" cy="47.934" r="47.934" transform="translate(1886.503 579.652)" fill="#fff"/>
    <g id="Group_691" data-name="Group 691" transform="translate(1886.503 565)">
      <g id="Group_690" data-name="Group 690" transform="translate(0)" clip-path="url(#clip-path)">
        <g id="Group_689" data-name="Group 689" transform="translate(1.255 6.38)">
          <g id="Group_639" data-name="Group 639" transform="translate(29.634 27.483)">
            <path id="Path_662" data-name="Path 662" d="M2116.561,794.361a20.719,20.719,0,0,1-2.6-7.14c-.111-1.7-3.01-7-6.547-7.391s-18.136.994-18.136.994a14.288,14.288,0,0,0-3.955,7.422c-.759,4.49-1.67,6.874-2.44,7.891a3.575,3.575,0,0,0,.2,3.884c.425.678.635,1.488,1.647,2.011a14.966,14.966,0,0,0,6.966,1.432s-5.27,6.073-2.2,19.048.333,39.255.333,39.255a35.615,35.615,0,0,0,4.151,1.395,4.609,4.609,0,0,0-.192,2.2c.317.613,4.326,1.386,4.788.656,0,0,.438-1.078.7-1.81q.435.051.877.089c.161.754.484,1.979.484,1.979.345.772,3.923.321,4.25-.271a4.1,4.1,0,0,0,.064-1.791,13.7,13.7,0,0,0,4.321-1.287s-1.08-30.75,2.4-38.435-1.7-16.042-2.989-19.813l-.256-1.546s5.973.1,8.139-1.426S2117.624,795.941,2116.561,794.361Zm-28.171,3.307s.416-4.021,1.937-5.571c0,0,2.872,2.709,2.732,5.934A4.964,4.964,0,0,1,2088.39,797.668Zm18.95.737a34.465,34.465,0,0,1,.829-6.1c3.1,1.264,3.092,4.829,3.092,4.829C2109.891,798.93,2107.34,798.405,2107.34,798.405Z" transform="translate(-2082.407 -779.76)" fill="#652d90"/>
          </g>
          <g id="Group_640" data-name="Group 640" transform="translate(49.043 49.628)">
            <path id="Path_663" data-name="Path 663" d="M2210.048,923.9c-.124.25-.278.607-.457,1.02-.447,1.035-1.5,3.456-2,3.327l-.089-.023-.075.053c-.005,0-.542.375-.76.131a2.4,2.4,0,0,0-.317-1.034,4.8,4.8,0,0,1,1.345-1.8l-.246-.308a5.382,5.382,0,0,0-1.342,1.669,5.8,5.8,0,0,1-.536-1.174,1.43,1.43,0,0,0-.076-.2l.159.017c.362-3.436,4.441-5.228,4.791-5.375l2.245,1.236A8.922,8.922,0,0,0,2210.048,923.9Z" transform="translate(-2205.495 -920.207)" fill="#fff"/>
          </g>
          <g id="Group_641" data-name="Group 641" transform="translate(34.511 48.906)">
            <path id="Path_664" data-name="Path 664" d="M2120.235,920.288a5.042,5.042,0,0,0,3.646,1.25l.208.007a5.068,5.068,0,0,0,.849-.088c1.239-.188,2.373-.286,2.632.562a6.5,6.5,0,0,0,.609,1.324c.359.638.622,1.107.375,1.754a.879.879,0,0,1-.859-.452c-.078-.338-.177-.658-.266-.939a5.5,5.5,0,0,1-.2-.752c-.087-.627-1.056-.66-1.168-.66l-.005.394c.229.006.751.09.782.321a5.731,5.731,0,0,0,.218.816c.058.185.12.384.177.589l-.051.014a1.869,1.869,0,0,0,.146.366,2.338,2.338,0,0,1-.273,2.056,1.449,1.449,0,0,1-.612-1.033h-.041a3.051,3.051,0,0,0-1.428-2.494l-.2.342a2.549,2.549,0,0,1,.942,3.375,1.183,1.183,0,0,1-.55-.544l-.007,0a1.447,1.447,0,0,0,.055-.592,3.805,3.805,0,0,0-1.359-2.078l-.245.309a3.469,3.469,0,0,1,1.212,1.811,1.036,1.036,0,0,1-.194.741c-.1-.032-.376-.2-.752-1.009a2.521,2.521,0,0,0-1.967-1.518l-.026,0-.026,0a3.192,3.192,0,0,1-2.735-1.388,6.388,6.388,0,0,0-2.469-1.6,9.081,9.081,0,0,1-3.316-2.2l1.892-3.354C2116.277,916.571,2119.3,919.305,2120.235,920.288Z" transform="translate(-2113.338 -915.628)" fill="#fff"/>
          </g>
          <g id="Group_642" data-name="Group 642" transform="translate(37.559 22.635)">
            <path id="Path_665" data-name="Path 665" d="M2134.353,754.767a4.621,4.621,0,0,0,2.8-.936l.055-.037.021-.064c.008-.024.773-2.3,1.907-2.783a5.931,5.931,0,0,0,2.011,4.115l.113.094.122-.082a12.669,12.669,0,0,0,4.527-6.057,5.089,5.089,0,0,0,2.182,1.38,21.918,21.918,0,0,0-1.543,11.475l-13.872-2.751.12-.043c-.451-1.266.356-3.951.54-4.526A3.065,3.065,0,0,0,2134.353,754.767Z" transform="translate(-2132.665 -749.017)" fill="#a796c7"/>
          </g>
          <g id="Group_643" data-name="Group 643" transform="translate(51.593 24.133)">
            <path id="Path_666" data-name="Path 666" d="M2225.864,770.733l-3.926-.779a21.414,21.414,0,0,1,1.508-11.44,7.469,7.469,0,0,0,2.814.273l.067-.03a13.61,13.61,0,0,0,.942,5.224l.044-.02Z" transform="translate(-2221.673 -758.515)" fill="#a796c7"/>
          </g>
          <g id="Group_644" data-name="Group 644" transform="translate(37.559 22.635)">
            <path id="Path_667" data-name="Path 667" d="M2134.353,754.767a4.621,4.621,0,0,0,2.8-.936l.055-.037.021-.064c.008-.024.773-2.3,1.907-2.783a5.931,5.931,0,0,0,2.011,4.115l.113.094.122-.082a12.669,12.669,0,0,0,4.527-6.057,5.089,5.089,0,0,0,2.182,1.38,21.918,21.918,0,0,0-1.543,11.475l-13.872-2.751.12-.043c-.451-1.266.356-3.951.54-4.526A3.065,3.065,0,0,0,2134.353,754.767Z" transform="translate(-2132.665 -749.017)" fill="#8b83be"/>
          </g>
          <g id="Group_645" data-name="Group 645" transform="translate(51.593 24.133)">
            <path id="Path_668" data-name="Path 668" d="M2225.864,770.733l-3.926-.779a21.414,21.414,0,0,1,1.508-11.44,7.469,7.469,0,0,0,2.814.273l.067-.03a13.61,13.61,0,0,0,.942,5.224l.044-.02Z" transform="translate(-2221.673 -758.515)" fill="#8b83be"/>
          </g>
          <g id="Group_654" data-name="Group 654">
            <g id="Group_646" data-name="Group 646" transform="translate(24.35 57.518)">
              <path id="Path_669" data-name="Path 669" d="M2049.169,973.276a3.59,3.59,0,0,0,.788-3.029l-.386.079a3.25,3.25,0,0,1-.68,2.671Z" transform="translate(-2048.891 -970.247)" fill="#652d90"/>
            </g>
            <g id="Group_647" data-name="Group 647" transform="translate(23.71 56.808)">
              <path id="Path_670" data-name="Path 670" d="M2045.188,967.175a3.272,3.272,0,0,0,.426-1.433l-.394.02a3.107,3.107,0,0,1-.388,1.242Z" transform="translate(-2044.832 -965.742)" fill="#652d90"/>
            </g>
            <g id="Group_648" data-name="Group 648" transform="translate(22.624 58.175)">
              <path id="Path_671" data-name="Path 671" d="M2038.139,974.411a7.574,7.574,0,0,0-.147,2.61l.38-.105a7.947,7.947,0,0,1,.157-2.445Z" transform="translate(-2037.946 -974.411)" fill="#652d90"/>
            </g>
            <g id="Group_649" data-name="Group 649" transform="translate(0 39.236)">
              <path id="Path_672" data-name="Path 672" d="M1934.574,856.6l-3.815,6.763s-.227.3-.19.337l-2.5,4.438c-.347-.609-1.447-2.222-1.633-2.493a28.634,28.634,0,0,0-3.665-6.163,5.68,5.68,0,0,0-3.006-4.89l-.031-.011c-3.011-.778-4.141.154-6.014,1.7a25.674,25.674,0,0,1-5.776,3.773c-6.952,3.329-12.327,1.4-12.38,1.378l-.138.369a12.532,12.532,0,0,0,3.66.6,19.371,19.371,0,0,0,9.029-1.99,26.375,26.375,0,0,0,5.857-3.825c1.833-1.512,2.844-2.346,5.647-1.625a5.205,5.205,0,0,1,2.761,4.6l0,.065.041.051a28.648,28.648,0,0,1,3.569,5.928,1.247,1.247,0,0,0-.848.694l.375.12c.078-.243.43-.392.655-.457.318.466.885,1.308,1.261,1.9a3.1,3.1,0,0,0-1.869.166l.155.362a2.776,2.776,0,0,1,1.987-.038l.011-.026c.032.057.059.105.073.137l.123-.055-2.085,3.7a15.876,15.876,0,0,0-2.717-.825l.07-.033c-.5-1.066-.442-1.45-.426-1.516l.135-.14-.2-.126a7.927,7.927,0,0,1-3.888-7.145l-.392-.042a8.14,8.14,0,0,0,.678,3.668c-1.736-1.379-1.6-4.06-1.6-4.087l-.394-.023a6.7,6.7,0,0,0,.168,1.711,5.087,5.087,0,0,0,1,2.143,4.22,4.22,0,0,1-2.129-2.64,7.43,7.43,0,0,1-.321-2.542l-.393-.032a7.881,7.881,0,0,0,.209,2.191l-.007,0-.192-.045a3.242,3.242,0,0,0,.57,2.366l-.076.019a5.767,5.767,0,0,1-.244,3.728c-.922-.746-1.133-3.131-1.133-4.049h-.394c0,.147.017,3.447,1.353,4.409-.022.04-.043.078-.064.114-1.739-1-1.939-4.3-1.941-4.332l-.394.021c.008.149.213,3.53,2.121,4.641-.052.072-.09.117-.1.134a19.342,19.342,0,0,1-2.9-1.494l-.218.328a19.181,19.181,0,0,0,6.684,2.618l.012,0h.012c.073,0,6.427.2,9.034,2.6-.931-.265-2.547-.606-3.507-.126a1.35,1.35,0,0,0-.723.849,2.715,2.715,0,0,0,.112,2.26,4.422,4.422,0,0,0,2.867,1.658,5.606,5.606,0,0,1-1.056.136,34.472,34.472,0,0,1-7.468-1.6,12.875,12.875,0,0,0-3.648-.452l0-.008-.014.008q-.292,0-.6,0l0-.084c-5.211-.225-6.523-1.853-6.535-1.87l-.315.237c.046.061,1.006,1.29,4.552,1.816q-.577.043-1.171.1V876.6c-5.523.014-6.474-2.192-6.483-2.215l-.368.143c.034.089.792,1.922,4.9,2.368q-.3.045-.593.094c-2.719.456-5.876-.967-7.966-1.909a7.775,7.775,0,0,0-2-.748,8.57,8.57,0,0,1-1.075-.135,4.556,4.556,0,0,0-2.194.005l.113.377a4.183,4.183,0,0,1,2.015.006,8.881,8.881,0,0,0,1.124.141,8.4,8.4,0,0,1,1.858.713c2.133.962,5.357,2.415,8.193,1.939,1.328-.223,2.661-.378,3.919-.465-.684.558-1.811,1.688-1.311,2.762a2.435,2.435,0,0,0,1.9,1.522l.007-.094.042.063.064-.065a3.279,3.279,0,0,0,1.475.446,3.5,3.5,0,0,0,2.551-1.1c.067,0,.131,0,.2,0a6.249,6.249,0,0,0,4.565-2.263,25.374,25.374,0,0,0,4,.693c.1,0,.2.006.281,0a5.836,5.836,0,0,0,.832-.087,4.2,4.2,0,0,1-.572,1.685,1.922,1.922,0,0,0-1.213.888,3.08,3.08,0,0,0-.174,2.152l.373-.109a1.267,1.267,0,0,1-.125.1.868.868,0,0,1-.7.154c-2.469-.78-1.376-5.008-1.365-5.05l-.381-.1a9.178,9.178,0,0,0-.264,2.384c.054,1.683.708,2.77,1.89,3.144a.954.954,0,0,0,.231.035,1.317,1.317,0,0,0,.793-.231c.673-.449,1.09-1.477,1.24-3.055l20.565,10.551,12.123-21.461L1934.745,856.7Zm-23.839,22.912c-.542-1.163,1.621-2.6,1.643-2.619l-.011-.017c.437-.022.863-.036,1.273-.041a3.772,3.772,0,0,0-1.739,2.136,2.643,2.643,0,0,0,.175,1.789A2.173,2.173,0,0,1,1910.735,879.514Zm1.942,1.3c.8-.767,1.063-.716,1.821-.566a9.557,9.557,0,0,0,1.361.188A2.754,2.754,0,0,1,1912.677,880.818Zm3.931-.754a8.9,8.9,0,0,1-2.033-.2,1.911,1.911,0,0,0-2.17.668,2.256,2.256,0,0,1-.122-1.461,3.845,3.845,0,0,1,2.132-2.233,12.239,12.239,0,0,1,3.438.433c.739.25,1.791.548,2.9.819A5.894,5.894,0,0,1,1916.608,880.064Zm18.118-22.928,11.319,6.231a32.13,32.13,0,0,0-7.042.532c-2.159.343-4.06.749-4.821.917.7-3.9-.012-5.739-.268-6.242Zm14.865,26.538-.726,1.762-.358-1.161-.668,2.253-.443-1.249-.484,1.751-.6-1.95-.548,2.232-.818-2.36-.363,2.08-.552-1.755-.522,1.9-.666-2.2-.582,1.963-.628-1.88-.718,2.135-.784-1.83-.452,1.358-.737-1.3-.54,1.28-6.165-3.163.02,0a16.156,16.156,0,0,1-.266-1.9l.649-1.743.439,1.9.48-1.729.461,1.327.673-1.3.524,1.741.551-1.952.4,1.764.857-2.124.269,1.7.6-1.751.517,2.06.685-2.482.806,1.876.542-1.58.649,1.824.821-2,.837,2.026.768-2.176.823,2.03.532-2.442.977,2.16.442-2,.4,2.076,1.09-2.568.852,2.727.641-2.2.44,1.585.891-1.868.748,2.162.446-2.364.547,1.721.911-2.314c-.045.388-.1.764-.168,1.124l.1.019-3.431,6.075Zm-8.791,4.265-.95-.487.324-.973Zm-1.256-.644-.793-.407.24-.569Zm13.922-18.561a12.86,12.86,0,0,1,1.648,6.591l.075,0-1.591,2.817A43.014,43.014,0,0,0,1953.466,868.733Zm-.125,8.044-.117-.046-.844,2.141-.684-2.154-.461,2.443-.578-1.669-.851,1.784-.528-1.905-.726,2.494-.732-2.454-.948,2.318-.554-2.9-.6,2.711-.98-2.166-.514,2.36-.735-1.812-.772,2.185-.809-1.96-.794,1.936-.681-1.915-.577,1.68-.846-1.97-.586,2.123-.476-1.9-.518,1.509-.244-1.539-.917,2.273-.463-2.048-.6,2.145-.414-1.375-.7,1.347-.575-1.654-.4,1.449-.385-1.673-.8,2.151a56.942,56.942,0,0,1,.8-10.53,4.942,4.942,0,0,1,1.743,1.231,3.6,3.6,0,0,0,3.074,1.521,2.161,2.161,0,0,1,1.621,1.288c.479,1.036.886,1.239,1.118,1.249a.377.377,0,0,0,.17-.03l.043-.019.029-.036c.03-.036.057-.073.083-.111a1.177,1.177,0,0,0,.848.562h.024l.119,0,.052-.107a4.117,4.117,0,0,0,.284-.753,2.368,2.368,0,0,0,.686.682l.131.08.109-.108a2.268,2.268,0,0,0,.59-1.937,1.3,1.3,0,0,0,.609.18,1.218,1.218,0,0,0,.319-.027l.1-.022.04-.089a2,2,0,0,0,.125-.364.68.68,0,0,0,.209.041,1.388,1.388,0,0,0,.759-.244h.011c.736.032,1.474-1.533,2.354-3.569.176-.408.329-.76.448-1a9.308,9.308,0,0,1,2.678-2.421l1.779.979A52.153,52.153,0,0,1,1953.341,876.776Zm-5.281-8.385c-.124.25-.278.607-.456,1.02-.447,1.035-1.5,3.456-2,3.327l-.089-.023-.075.053c-.006,0-.542.375-.76.131a2.4,2.4,0,0,0-.317-1.034,4.8,4.8,0,0,1,1.345-1.8l-.246-.308a5.379,5.379,0,0,0-1.342,1.669,5.787,5.787,0,0,1-.536-1.174,1.4,1.4,0,0,0-.076-.2l.159.017c.362-3.436,4.441-5.228,4.79-5.375l2.245,1.236A8.928,8.928,0,0,0,1948.06,868.391Zm-2.094-2.672a6.543,6.543,0,0,0-2.655,4.039c-.614-.675-1.9-.481-2.8-.345a4.958,4.958,0,0,1-.773.084l-.212-.007a4.7,4.7,0,0,1-3.372-1.128c-.444-.468-1.333-1.307-2.264-2.167q.117-.5.208-.957c1.329-.3,9.483-2.067,12.872-1.345l0-.012,1.046.576A11.251,11.251,0,0,0,1945.967,865.719Zm-12.405.168c-1.009-.929-2.009-1.83-2.494-2.267l2.6-4.617C1933.97,859.772,1934.478,861.856,1933.561,865.887Zm2.312,2.746a5.041,5.041,0,0,0,3.645,1.25l.208.007a5.085,5.085,0,0,0,.849-.088c1.239-.188,2.373-.286,2.632.562a6.5,6.5,0,0,0,.61,1.323c.359.638.623,1.107.374,1.754a.879.879,0,0,1-.858-.452c-.078-.337-.178-.658-.266-.939a5.517,5.517,0,0,1-.2-.752c-.087-.627-1.056-.66-1.168-.66l-.005.394c.229.006.751.09.783.321a5.693,5.693,0,0,0,.218.816c.058.185.12.384.177.589l-.051.014a1.846,1.846,0,0,0,.147.366,2.339,2.339,0,0,1-.273,2.057,1.449,1.449,0,0,1-.612-1.033h-.041a3.051,3.051,0,0,0-1.428-2.494l-.2.342a2.549,2.549,0,0,1,.942,3.375,1.184,1.184,0,0,1-.55-.544l-.007,0a1.45,1.45,0,0,0,.055-.592,3.808,3.808,0,0,0-1.359-2.078l-.245.309a3.469,3.469,0,0,1,1.212,1.811,1.037,1.037,0,0,1-.194.741c-.1-.032-.375-.2-.752-1.009a2.52,2.52,0,0,0-1.967-1.518l-.026,0-.026,0a3.192,3.192,0,0,1-2.735-1.388,6.386,6.386,0,0,0-2.469-1.6,9.081,9.081,0,0,1-3.316-2.2l1.893-3.354C1931.916,864.915,1934.939,867.65,1935.873,868.633Zm-16.548-2.176a8.434,8.434,0,0,0,3.033,3.266,3.133,3.133,0,0,0,.371,1.476c-.717-.142-1.4-.242-1.994-.311q-.124-.131-.235-.269a3.733,3.733,0,0,0,1.579-.408l-.175-.353a3.038,3.038,0,0,1-1.668.356l-.006.036a6.574,6.574,0,0,1-1-3.1l0-.122-.11-.052c-2.784-1.318-3.275-2.936-3.329-3.752A4.54,4.54,0,0,0,1919.325,866.458Zm-2.889-.9a6.932,6.932,0,0,0,1.724,1.368,4.839,4.839,0,0,0,.189,3.742,15.953,15.953,0,0,1-2.84-.837A5.562,5.562,0,0,0,1916.436,865.553Zm2.306,5.178-.064-.011.115-.065a4.474,4.474,0,0,1-.282-3.54c.108.057.219.114.334.17a6.688,6.688,0,0,0,1.32,3.543C1919.393,870.753,1918.858,870.734,1918.742,870.731Zm5.232,5.772a2.356,2.356,0,0,1-.073-1.946.959.959,0,0,1,.521-.608c1.122-.561,3.45.211,3.849.351.056.077.11.156.159.238a2.427,2.427,0,0,1,.344,2.456,2.847,2.847,0,0,1-1.568,1.165l.007-.033C1925.459,877.751,1924.4,877.22,1923.974,876.5Zm5.145.68a2.784,2.784,0,0,0-.351-2.849,5.689,5.689,0,0,0-2.576-2.071l2.582-4.577a9.47,9.47,0,0,0,3.359,2.2l.217.1c-.226,1.337-1.394,8.7-.539,13.343l-5.616-2.881a4.594,4.594,0,0,0,.5-1.723A3.67,3.67,0,0,0,1929.119,877.183Zm-4.413,6.235a2.7,2.7,0,0,1,.138-1.842,1.476,1.476,0,0,1,.771-.638A3.828,3.828,0,0,1,1924.706,883.418Zm21.727,7.411-5.395-2.768.59-1.756.652,1.95.564-1.9.68,2.243.529-1.924.636,2.024.38-2.175.756,2.182.527-2.148.582,1.876.51-1.841.43,1.212.641-2.164.3.964.575-1.4.041.322Zm9.091-16.1a13.772,13.772,0,0,0-2.171-6.966c-.019-.154-.037-.29-.052-.406l4.872,2.682Z" transform="translate(-1894.465 -854.303)" fill="#652d90"/>
            </g>
            <g id="Group_650" data-name="Group 650" transform="translate(63.004 24.883)">
              <path id="Path_673" data-name="Path 673" d="M2295.461,763.272c-.929.277-1.376,2.3-1.424,2.526l.386.081c.163-.778.618-2.07,1.151-2.229Z" transform="translate(-2294.037 -763.272)" fill="#652d90"/>
            </g>
            <g id="Group_651" data-name="Group 651" transform="translate(63.433 25.829)">
              <path id="Path_674" data-name="Path 674" d="M2296.83,772.217a2.352,2.352,0,0,0,1.559-1.1,6.184,6.184,0,0,1,1.363-1.542l-.246-.308a6.457,6.457,0,0,0-1.466,1.666,1.987,1.987,0,0,1-1.281.893l.035.194Z" transform="translate(-2296.76 -769.27)" fill="#652d90"/>
            </g>
            <g id="Group_652" data-name="Group 652" transform="translate(65.273 27.65)">
              <path id="Path_675" data-name="Path 675" d="M2310.1,780.986l-.359-.163c-.318.7-.936,1.69-1.319,1.71l.021.393C2309.2,782.887,2309.96,781.3,2310.1,780.986Z" transform="translate(-2308.427 -780.823)" fill="#652d90"/>
            </g>
            <g id="Group_653" data-name="Group 653" transform="translate(33.13)">
              <path id="Path_676" data-name="Path 676" d="M2160.607,649.188a38.272,38.272,0,0,0-2.587-3.44c-.275-.344-.543-.678-.786-.986a37.716,37.716,0,0,1-5.451-13.753c-.853-5.654-3.728-7.159-5.816-7.8-.391-.12-.935-.268-1.564-.439a61.365,61.365,0,0,1-7.4-2.391,4.342,4.342,0,0,0-3.964.031,3.879,3.879,0,0,0-.9.7l2.122-12.233-24.83-3.412-4.863,32.26,22.959,4.554,1.72-8.034a12.566,12.566,0,0,0,.45,1.491,9.638,9.638,0,0,0,.577,1.277l-.143-.017a6.645,6.645,0,0,0,1.933,5.27,12.887,12.887,0,0,0,3,2.467l.1.056.465-.282c1.461-.341,1.591-1.976,1.54-3.365-.056-1.537-2.182-2.758-2.673-3.019a3.78,3.78,0,0,0,.554-1.466c.148.107.3.219.473.338,1.135.8,2.261,3.363,3.092,5.623l-.056.051c.01.011.052.057.122.127.424,1.166.766,2.237.986,2.925.114.357.2.615.248.758a3.536,3.536,0,0,1,.114.511c.272,1.5.907,5.014,8.328,9.539,8.314,5.07,10.545,11.443,10.567,11.507l.374-.126c-.022-.065-2.291-6.568-10.735-11.717-7.27-4.433-7.883-7.825-8.145-9.273a3.764,3.764,0,0,0-.131-.575c-.05-.135-.135-.4-.243-.743-.081-.254-.175-.547-.279-.867a12,12,0,0,0,3.153,3.376l.207-.336a13.809,13.809,0,0,1-3.533-4.056l-.138.079c-.049-.146-.1-.294-.153-.446a6.956,6.956,0,0,0,3.78,1.621l.026-.393a7.037,7.037,0,0,1-4.081-2q-.129-.353-.267-.713a7.587,7.587,0,0,0,1.68.775l.129-.373c-1.915-.663-2.118-1.236-2.12-1.241l-.02.005c-.77-1.876-1.7-3.667-2.676-4.358a18.9,18.9,0,0,1-3.326-2.726c-.156-.162-.254-.267-.338-.357-.315-.335-.446-.473-2.642-2.648-2.627-2.6-1.287-4.659-1.239-4.733a2.631,2.631,0,0,1,.877-.649,2.266,2.266,0,0,1,.721-.2,2.36,2.36,0,0,0-1.667,2.273l0,.044.016.041a7.275,7.275,0,0,0,2.727,2.677l.052.03.061,0a2.41,2.41,0,0,0,2.279-2.036l.005-.045-.015-.043a5.723,5.723,0,0,0-2.811-2.9,2.934,2.934,0,0,1,.945.379,16.8,16.8,0,0,1,2.486,1.8c.407.345.828.7,1.411,1.11l.331.231a19.726,19.726,0,0,1,4.292,3.711,9.882,9.882,0,0,0,4.206,2.707l.117-.376a10.887,10.887,0,0,1-2-.918,4.461,4.461,0,0,0,2.675-2.191,7.736,7.736,0,0,0,.841-2.044l-.385-.086c-.008.037-.854,3.645-3.62,4.014q-.079-.053-.157-.108l.254.011a4.128,4.128,0,0,0-2.245-3.583,2.319,2.319,0,0,0,.283-.727l-.385-.083c-.24,1.116-.984,1.137-1.016,1.137v.212a29.291,29.291,0,0,0-2.637-2l-.33-.231c-.511-.358-.882-.665-1.256-.98a2.449,2.449,0,0,1,1.755-.395,6.511,6.511,0,0,0,2.5.641l.068,0a6.772,6.772,0,0,0,3.164-.617l-.182-.35a6.47,6.47,0,0,1-2.967.572l-.062,0a6.11,6.11,0,0,1-2.054-.471l.021-.1c-.13-.027-.253-.046-.374-.061a6.766,6.766,0,0,1-.95-.572,5.156,5.156,0,0,0,.981-2.326l-.391-.049a5.98,5.98,0,0,1-1.984,3.323,16.525,16.525,0,0,0-2.187-1.548c-.063-.038-.126-.073-.189-.106l.622-3.585.068.041a3.319,3.319,0,0,1,1.131-1.034,3.976,3.976,0,0,1,3.618-.011,61.641,61.641,0,0,0,7.448,2.408c.627.17,1.167.318,1.552.436,1.266.388,4.627,1.419,5.542,7.481a38.247,38.247,0,0,0,5.531,13.939c.244.308.512.643.788.987a38.443,38.443,0,0,1,2.55,3.386,18.9,18.9,0,0,0,5.322,4.437l.154-.363A18.694,18.694,0,0,1,2160.607,649.188Zm-21.245-18.814a5.019,5.019,0,0,1,1.043.786,3.215,3.215,0,0,1,1.053,2.372,6.692,6.692,0,0,1-1.236-1.149,14.757,14.757,0,0,0-1.551-1.621A1.318,1.318,0,0,0,2139.362,630.374Zm-4.05-3.775a2.88,2.88,0,0,0-.738.176c.115-.123.24-.265.369-.425Q2135.125,626.48,2135.312,626.6Zm-23.735,5.53c-1.866-2.348-.277-3.87-.208-3.933l.222-.2-.275-.122a2.624,2.624,0,0,1-1.574-1.411,1.379,1.379,0,0,1,.077-1.05l.07-.12-.089-.106a1.179,1.179,0,0,1-.086-1.64.808.808,0,0,0,.864.055c.558-.317.79-1.327.6-2.636-.268-1.888-.307-3.14,1.983-6.926a4.563,4.563,0,0,1,5.66-2.2l.06.024.062-.015a3.519,3.519,0,0,1,2.476.515c1.273.8,2.174,2.357,2.678,4.638.778,3.523,1.379,5.116,1.948,5.164h.039a1.5,1.5,0,0,1-.208.915.894.894,0,0,1-.655.358l-.188.024.017.189c.01.115.262,2.787,1.361,3.534a.465.465,0,0,1,0,.363c-.072.106-.267.12-.417.114a.545.545,0,0,0-.328.071.351.351,0,0,0-.16.288c-.016.377.583,1.071,1.175,1.494a5.914,5.914,0,0,1-4.337-1.915l-.7-2a9.3,9.3,0,0,0,1.681-5.134,6.921,6.921,0,0,0-2.692-5.856,4.031,4.031,0,0,0-1.82-.71h-.014a2.687,2.687,0,0,0-2.871,2.3,14.411,14.411,0,0,1-1.63,4.537,3.85,3.85,0,0,0-.692,2.284,4.667,4.667,0,0,0,1.615,2.853,6.693,6.693,0,0,1,.287,3.729c-1.307.378-2.145,2.6-2.292,3.024a3.842,3.842,0,0,1-3,.766,2.4,2.4,0,0,0,1.377-1.041l.067-.116Zm4.251-5.748a9.372,9.372,0,0,0,1.811,1.069,2.952,2.952,0,0,0,1.089.274,3,3,0,0,0,2.644-1.714l.591,1.686a12.454,12.454,0,0,1-4.335,6.044,5.472,5.472,0,0,1-1.754-3.954A7.547,7.547,0,0,0,2115.829,626.38Zm-.3-.8-.027.013a4.274,4.274,0,0,1-1.5-2.61,3.522,3.522,0,0,1,.647-2.062,14.787,14.787,0,0,0,1.671-4.661,2.294,2.294,0,0,1,2.465-1.97,3.669,3.669,0,0,1,1.618.635,6.519,6.519,0,0,1,2.531,5.521,8.96,8.96,0,0,1-1.666,5.007c-.08.117-.148.219-.2.3-.6,1.01-1.656,2.062-3.267,1.336a8.653,8.653,0,0,1-2.246-1.445C2115.544,625.623,2115.535,625.6,2115.524,625.578Zm-4.833,8.27a4.622,4.622,0,0,0,2.8-.936l.055-.038.021-.064c.008-.024.773-2.3,1.907-2.783a5.929,5.929,0,0,0,2.011,4.115l.113.094.123-.082a12.671,12.671,0,0,0,4.527-6.057,5.087,5.087,0,0,0,2.182,1.38,21.915,21.915,0,0,0-1.543,11.475l-13.872-2.751.121-.043c-.452-1.266.356-3.951.54-4.526A3.062,3.062,0,0,0,2110.691,633.849Zm-1.97,4.3-2.269-.45c.08-.241,1.122-3.278,2.719-3.752A9.475,9.475,0,0,0,2108.721,638.144Zm18.508,3.671-3.926-.779a21.41,21.41,0,0,1,1.508-11.44,7.469,7.469,0,0,0,2.814.273l.067-.03a13.607,13.607,0,0,0,.942,5.224l.044-.02Zm5.208-3.117c-.073-.008-.127-.017-.156-.023a5.627,5.627,0,0,1-2.077-2.752c.834-.071,2.456-.041,2.9.734C2133.125,637.152,2133.048,638.366,2132.437,638.7Zm2.725,5.631a12.914,12.914,0,0,1-2.708-2.23l.062.016a1.3,1.3,0,0,1,.579-.877,1.118,1.118,0,0,1,.8-.071c.87.508,1.824,1.233,1.86,1.529l0,.018c.01.044.221,1.085-.576,1.481l.047.1Zm1.617-3.175c.056,1.514-.2,2.4-.8,2.788a2.044,2.044,0,0,0,.168-1.307c-.024-.14-.237-.755-2.071-1.821l-.034-.016a1.515,1.515,0,0,0-1.126.09,1.56,1.56,0,0,0-.713.917,6.288,6.288,0,0,1-1.7-4.419,4.79,4.79,0,0,0,1.608,1.644l.049.02a1.975,1.975,0,0,0,.391.052,2.225,2.225,0,0,0,1.346-.366,2.188,2.188,0,0,0,.352-.3C2134.464,638.546,2136.727,639.75,2136.778,641.154Zm-4.635-6.936a15.951,15.951,0,0,0,2.552,2.177,2.8,2.8,0,0,1-1.018,2.011,1.724,1.724,0,0,1-.639.264,3.768,3.768,0,0,0,.456-2.081l0-.041-.019-.036c-.6-1.167-2.829-1.029-3.418-.971a12.067,12.067,0,0,1-.558-2.086l-.077.011.353-1.648c1.615,1.6,1.749,1.743,2.029,2.041C2131.887,633.95,2131.987,634.055,2132.144,634.219Zm-2.973-3,.27.267-.633,2.955a14.081,14.081,0,0,1-.72-4.583A6.821,6.821,0,0,0,2129.171,631.222Zm3.7-2.839a1.98,1.98,0,0,1-1.849,1.641,6.923,6.923,0,0,1-2.489-2.409,3.085,3.085,0,0,1,.264-.964,1.471,1.471,0,0,1,1.407-.935A5.493,5.493,0,0,1,2132.875,628.383Zm-4.982-2.409a3.661,3.661,0,0,0,.05,3.627l-.215-.009a.267.267,0,0,0-.241-.116,2.864,2.864,0,0,1-1.311-.967,1.176,1.176,0,0,1-.27-.451.36.36,0,0,1,.076,0,.811.811,0,0,0,.76-.286.89.89,0,0,0,.016-.8l-.025-.057-.053-.032c-.754-.452-1.112-2.242-1.213-3.092a1.23,1.23,0,0,0,.737-.487,2.16,2.16,0,0,0,.24-1.514l-.125-.577-.249.541,0,0c-.121-.075-.649-.639-1.579-4.846-.529-2.393-1.492-4.039-2.863-4.892a3.9,3.9,0,0,0-2.707-.571,5.012,5.012,0,0,0-6.088,2.382c-2.241,3.7-2.341,5.033-2.036,7.185.181,1.282-.074,2.048-.409,2.238-.161.092-.353.049-.57-.125l-.129-.1-.125.109a1.588,1.588,0,0,0-.143,2.2,1.8,1.8,0,0,0-.053,1.237,2.8,2.8,0,0,0,1.55,1.544c-.424.542-1.3,2.08.266,4.144a1.64,1.64,0,0,1-1.941.675l-.977-.352.78.686a1.846,1.846,0,0,0,.276.191l-.016.05c-2,.32-3.181,3.922-3.232,4.079l.243.078-1.294-.257,4.748-31.5,24.04,3.3-2.767,15.951A2.765,2.765,0,0,0,2127.893,625.973Z" transform="translate(-2104.574 -605.464)" fill="#652d90"/>
            </g>
          </g>
          <g id="Group_655" data-name="Group 655" transform="translate(33.575 0.443)">
            <path id="Path_677" data-name="Path 677" d="M2130.275,628.342a3.66,3.66,0,0,0,.05,3.627l-.216-.009a.267.267,0,0,0-.241-.116,2.865,2.865,0,0,1-1.311-.967,1.174,1.174,0,0,1-.27-.451.356.356,0,0,1,.075,0,.811.811,0,0,0,.76-.286.89.89,0,0,0,.016-.795l-.025-.057-.053-.032c-.754-.452-1.112-2.242-1.213-3.092a1.232,1.232,0,0,0,.737-.487,2.16,2.16,0,0,0,.24-1.514l-.125-.577-.249.54a.01.01,0,0,1,0,0c-.121-.075-.649-.639-1.579-4.846-.529-2.393-1.492-4.039-2.864-4.893a3.9,3.9,0,0,0-2.707-.571,5.012,5.012,0,0,0-6.088,2.382c-2.241,3.7-2.341,5.033-2.036,7.185.181,1.282-.074,2.048-.409,2.238-.161.092-.353.049-.57-.125l-.128-.1-.125.109a1.587,1.587,0,0,0-.143,2.2,1.8,1.8,0,0,0-.053,1.237,2.8,2.8,0,0,0,1.55,1.544c-.424.542-1.3,2.08.266,4.144a1.64,1.64,0,0,1-1.941.675l-.977-.352.78.686a1.846,1.846,0,0,0,.276.191l-.016.05c-2,.32-3.181,3.922-3.231,4.079l.243.078-1.295-.257,4.748-31.5,24.04,3.3-2.767,15.951A2.765,2.765,0,0,0,2130.275,628.342Z" transform="translate(-2107.402 -608.276)" fill="#a796c7"/>
          </g>
          <g id="Group_656" data-name="Group 656" transform="translate(36.602 43.937)">
            <path id="Path_678" data-name="Path 678" d="M2129.093,891c-1.01-.929-2.009-1.83-2.494-2.266l2.6-4.617C2129.5,884.883,2130.01,886.967,2129.093,891Z" transform="translate(-2126.599 -884.114)" fill="#4e3c96"/>
          </g>
          <g id="Group_657" data-name="Group 657" transform="translate(31.727 52.619)">
            <path id="Path_679" data-name="Path 679" d="M2098.606,948.676a2.784,2.784,0,0,0-.351-2.849,5.692,5.692,0,0,0-2.576-2.071l2.582-4.576a9.469,9.469,0,0,0,3.359,2.2l.217.1c-.226,1.337-1.394,8.7-.539,13.343l-5.616-2.881a4.59,4.59,0,0,0,.5-1.723A3.671,3.671,0,0,0,2098.606,948.676Z" transform="translate(-2095.679 -939.179)" fill="#4e3c96"/>
          </g>
          <g id="Group_658" data-name="Group 658" transform="translate(58.836 52.295)">
            <path id="Path_680" data-name="Path 680" d="M2269.829,944.493a13.768,13.768,0,0,0-2.171-6.966c-.019-.154-.037-.29-.052-.406l4.872,2.682Z" transform="translate(-2267.606 -937.121)" fill="#4e3c96"/>
          </g>
          <g id="Group_659" data-name="Group 659" transform="translate(37.981 6.087)">
            <path id="Path_681" data-name="Path 681" d="M2137.493,664.646c-1.866-2.348-.277-3.87-.208-3.933l.222-.2-.275-.122a2.624,2.624,0,0,1-1.573-1.411,1.377,1.377,0,0,1,.077-1.05l.07-.12-.089-.106a1.179,1.179,0,0,1-.086-1.64.807.807,0,0,0,.864.055c.558-.317.79-1.327.6-2.636-.268-1.888-.308-3.14,1.983-6.926a4.563,4.563,0,0,1,5.661-2.2l.059.024.062-.015a3.519,3.519,0,0,1,2.476.515c1.273.8,2.175,2.357,2.678,4.638.779,3.524,1.379,5.116,1.948,5.164H2152a1.5,1.5,0,0,1-.209.915.894.894,0,0,1-.655.358l-.188.024.017.189c.01.115.262,2.787,1.361,3.534a.463.463,0,0,1,0,.363c-.073.105-.267.12-.417.114a.545.545,0,0,0-.327.071.351.351,0,0,0-.16.288c-.016.377.583,1.071,1.175,1.494a5.916,5.916,0,0,1-4.337-1.915l-.7-2a9.3,9.3,0,0,0,1.681-5.134,6.922,6.922,0,0,0-2.692-5.856,4.029,4.029,0,0,0-1.82-.71h-.014a2.687,2.687,0,0,0-2.871,2.3,14.41,14.41,0,0,1-1.63,4.537,3.854,3.854,0,0,0-.692,2.284,4.667,4.667,0,0,0,1.616,2.853,6.693,6.693,0,0,1,.287,3.729c-1.308.378-2.145,2.6-2.292,3.024a3.842,3.842,0,0,1-3,.766,2.4,2.4,0,0,0,1.377-1.041l.067-.116Z" transform="translate(-2135.341 -644.07)" fill="#652d90"/>
          </g>
          <g id="Group_660" data-name="Group 660" transform="translate(52.4 28.444)">
            <path id="Path_682" data-name="Path 682" d="M2227.4,787.124a.634.634,0,1,0-.607-.661A.635.635,0,0,0,2227.4,787.124Zm.037-.874a.24.24,0,1,1-.25.23A.24.24,0,0,1,2227.434,786.251Z" transform="translate(-2226.789 -785.856)" fill="#652d90"/>
          </g>
          <g id="Group_661" data-name="Group 661" transform="translate(52.368 30.077)">
            <path id="Path_683" data-name="Path 683" d="M2227.195,797.48a.634.634,0,1,0-.606-.661A.635.635,0,0,0,2227.195,797.48Zm.037-.874a.24.24,0,1,1-.25.23A.241.241,0,0,1,2227.232,796.606Z" transform="translate(-2226.588 -796.211)" fill="#652d90"/>
          </g>
          <g id="Group_662" data-name="Group 662" transform="translate(52.464 31.869)">
            <path id="Path_684" data-name="Path 684" d="M2228.461,808.238a.634.634,0,1,0-.661.606A.635.635,0,0,0,2228.461,808.238Zm-.874-.038a.24.24,0,1,1,.229.25A.24.24,0,0,1,2227.588,808.2Z" transform="translate(-2227.193 -807.576)" fill="#652d90"/>
          </g>
          <g id="Group_663" data-name="Group 663" transform="translate(52.573 33.796)">
            <path id="Path_685" data-name="Path 685" d="M2228.547,819.8a.634.634,0,1,0,.607.661A.635.635,0,0,0,2228.547,819.8Zm-.038.874a.24.24,0,1,1,.251-.23A.24.24,0,0,1,2228.509,820.674Z" transform="translate(-2227.885 -819.799)" fill="#652d90"/>
          </g>
          <g id="Group_664" data-name="Group 664" transform="translate(39.45 42.069)">
            <path id="Path_686" data-name="Path 686" d="M2145.467,872.268l11.319,6.231a32.13,32.13,0,0,0-7.041.532c-2.159.343-4.06.749-4.821.917.7-3.9-.012-5.739-.268-6.242Z" transform="translate(-2144.656 -872.268)" fill="#fff"/>
          </g>
          <g id="Group_670" data-name="Group 670" transform="translate(37.43 48.655)">
            <g id="Group_665" data-name="Group 665" transform="translate(7.955 22.757)">
              <path id="Path_687" data-name="Path 687" d="M2183.25,1059.819l-.95-.487.324-.973Z" transform="translate(-2182.299 -1058.359)" fill="#8367ac"/>
            </g>
            <g id="Group_666" data-name="Group 666" transform="translate(6.856 22.597)">
              <path id="Path_688" data-name="Path 688" d="M2176.119,1058.319l-.793-.407.24-.569Z" transform="translate(-2175.326 -1057.343)" fill="#8367ac"/>
            </g>
            <g id="Group_667" data-name="Group 667" transform="translate(0 2.424)">
              <path id="Path_689" data-name="Path 689" d="M2153.293,940.039l-.117-.046-.844,2.141-.684-2.154-.461,2.443-.578-1.669-.851,1.785-.528-1.905-.726,2.494-.732-2.454-.948,2.318-.554-2.9-.6,2.71-.979-2.166-.514,2.36-.735-1.812-.772,2.185-.809-1.96-.794,1.936-.681-1.915-.577,1.68-.846-1.97-.585,2.123-.477-1.9-.518,1.509-.244-1.539-.917,2.273-.463-2.048-.6,2.145-.414-1.375-.7,1.347-.575-1.654-.4,1.449-.385-1.673-.8,2.151a56.943,56.943,0,0,1,.8-10.53,4.939,4.939,0,0,1,1.743,1.231,3.6,3.6,0,0,0,3.074,1.521,2.161,2.161,0,0,1,1.621,1.288c.48,1.037.886,1.239,1.118,1.249a.373.373,0,0,0,.169-.03l.043-.019.029-.036c.03-.036.057-.074.083-.111a1.176,1.176,0,0,0,.848.562h.024l.12,0,.052-.107a4.118,4.118,0,0,0,.284-.753,2.365,2.365,0,0,0,.686.682l.131.08.109-.108a2.269,2.269,0,0,0,.59-1.937,1.3,1.3,0,0,0,.609.179,1.207,1.207,0,0,0,.319-.027l.1-.022.04-.089a2.006,2.006,0,0,0,.125-.364.672.672,0,0,0,.209.041,1.389,1.389,0,0,0,.759-.244h.011c.736.032,1.474-1.533,2.354-3.569.176-.408.328-.76.448-1a9.306,9.306,0,0,1,2.678-2.421l1.779.979A52.182,52.182,0,0,1,2153.293,940.039Z" transform="translate(-2131.847 -929.408)" fill="#8367ac"/>
            </g>
            <g id="Group_668" data-name="Group 668" transform="translate(2)">
              <path id="Path_690" data-name="Path 690" d="M2156.6,916.031a6.546,6.546,0,0,0-2.655,4.039c-.615-.675-1.9-.481-2.8-.345a4.967,4.967,0,0,1-.773.084l-.212-.007a4.7,4.7,0,0,1-3.372-1.128c-.445-.468-1.334-1.307-2.264-2.167q.117-.5.208-.957c1.33-.3,9.484-2.067,12.873-1.345l0-.012,1.046.576A11.255,11.255,0,0,0,2156.6,916.031Z" transform="translate(-2144.53 -914.033)" fill="#8367ac"/>
            </g>
            <g id="Group_669" data-name="Group 669" transform="translate(9.143 21.483)">
              <path id="Path_691" data-name="Path 691" d="M2195.23,1055.906l-5.395-2.768.59-1.756.652,1.95.564-1.9.68,2.243.529-1.924.636,2.024.38-2.176.757,2.182.527-2.149.582,1.876.509-1.841.43,1.212.641-2.164.3.964.575-1.4.041.322Z" transform="translate(-2189.835 -1050.282)" fill="#8367ac"/>
            </g>
          </g>
          <g id="Group_671" data-name="Group 671" transform="translate(59.001 53.666)">
            <path id="Path_692" data-name="Path 692" d="M2268.651,945.818a12.857,12.857,0,0,1,1.648,6.591l.074,0-1.591,2.817A42.992,42.992,0,0,0,2268.651,945.818Z" transform="translate(-2268.651 -945.818)" fill="#8367ac"/>
          </g>
          <g id="Group_672" data-name="Group 672" transform="translate(37.523 62.668)">
            <path id="Path_693" data-name="Path 693" d="M2150.04,1008.846l-.726,1.762-.357-1.161-.668,2.253-.443-1.249-.485,1.751-.6-1.95-.548,2.232-.818-2.36-.363,2.08-.552-1.755-.522,1.9-.666-2.2-.582,1.963-.628-1.88-.718,2.135-.784-1.83-.452,1.358-.737-1.3-.54,1.28-6.165-3.163.02,0a16.207,16.207,0,0,1-.266-1.9l.649-1.743.439,1.9.48-1.729.461,1.327.673-1.3.524,1.741.551-1.952.4,1.764.857-2.124.269,1.7.6-1.751.518,2.06.685-2.482.806,1.876.543-1.58.648,1.823.821-2,.837,2.026.768-2.176.823,2.03.532-2.442.977,2.16.442-2,.4,2.076,1.09-2.567.852,2.727.641-2.2.439,1.585.891-1.869.749,2.163.446-2.364.547,1.721.911-2.314c-.045.388-.1.764-.169,1.124l.1.019-3.431,6.075Z" transform="translate(-2132.437 -1002.906)" fill="#a796c7"/>
          </g>
          <g id="Group_673" data-name="Group 673" transform="translate(44.384 20.546)">
            <path id="Path_694" data-name="Path 694" d="M2175.952,736.137a9.371,9.371,0,0,0,1.81,1.069,2.956,2.956,0,0,0,1.089.274,3,3,0,0,0,2.644-1.714l.591,1.686a12.452,12.452,0,0,1-4.335,6.044,5.473,5.473,0,0,1-1.754-3.955A7.549,7.549,0,0,0,2175.952,736.137Z" transform="translate(-2175.952 -735.767)" fill="#fff"/>
          </g>
          <g id="Group_674" data-name="Group 674" transform="translate(42.546 8.824)">
            <path id="Path_695" data-name="Path 695" d="M2165.825,672.716l-.027.013a4.276,4.276,0,0,1-1.5-2.61,3.522,3.522,0,0,1,.647-2.062,14.776,14.776,0,0,0,1.671-4.661,2.3,2.3,0,0,1,2.465-1.97,3.67,3.67,0,0,1,1.618.635,6.52,6.52,0,0,1,2.531,5.521,8.962,8.962,0,0,1-1.666,5.007c-.079.117-.148.219-.2.3-.6,1.01-1.657,2.062-3.267,1.336a8.657,8.657,0,0,1-2.246-1.445C2165.846,672.76,2165.836,672.738,2165.825,672.716Z" transform="translate(-2164.292 -661.426)" fill="#fff"/>
          </g>
          <g id="Group_675" data-name="Group 675" transform="translate(35.008 28.479)">
            <path id="Path_696" data-name="Path 696" d="M2118.754,790.279l-2.269-.45c.08-.241,1.122-3.278,2.719-3.752A9.471,9.471,0,0,0,2118.754,790.279Z" transform="translate(-2116.485 -786.077)" fill="#fff"/>
          </g>
          <g id="Group_676" data-name="Group 676" transform="translate(56.643 24.397)">
            <path id="Path_697" data-name="Path 697" d="M2254.781,761.551l.27.267-.633,2.955a14.092,14.092,0,0,1-.72-4.583A6.836,6.836,0,0,0,2254.781,761.551Z" transform="translate(-2253.698 -760.19)" fill="#fff"/>
          </g>
          <g id="Group_685" data-name="Group 685" transform="translate(40.105 66.769)">
            <g id="Group_677" data-name="Group 677" transform="translate(3.711 1.001)">
              <path id="Path_698" data-name="Path 698" d="M2174.693,1035.771l-.247-.307c-.845.679-1.792-.163-1.833-.2l-.132.146-.133.146a2.211,2.211,0,0,0,1.308.561A1.509,1.509,0,0,0,2174.693,1035.771Z" transform="translate(-2172.348 -1035.265)" fill="#652d90"/>
            </g>
            <g id="Group_678" data-name="Group 678" transform="translate(4.408 2.468)">
              <path id="Path_699" data-name="Path 699" d="M2176.945,1044.663l-.09.175-.09.175a2.645,2.645,0,0,0,1,.26,1.572,1.572,0,0,0,1.187-.416l-.271-.286C2178.018,1045.2,2176.956,1044.668,2176.945,1044.663Z" transform="translate(-2176.765 -1044.57)" fill="#652d90"/>
            </g>
            <g id="Group_679" data-name="Group 679" transform="translate(8.236 0.192)">
              <path id="Path_700" data-name="Path 700" d="M2202.143,1030.555a1.143,1.143,0,0,1,.923.209l.215-.331a1.518,1.518,0,0,0-1.238-.26,1.762,1.762,0,0,0-1,.833l.35.181A1.364,1.364,0,0,1,2202.143,1030.555Z" transform="translate(-2201.043 -1030.131)" fill="#652d90"/>
            </g>
            <g id="Group_680" data-name="Group 680" transform="translate(8.676 1.285)">
              <path id="Path_701" data-name="Path 701" d="M2204.448,1037.161a1.154,1.154,0,0,0-.615.613l.37.137a.75.75,0,0,1,.4-.389,1.432,1.432,0,0,1,1.117.134l.163-.359A1.79,1.79,0,0,0,2204.448,1037.161Z" transform="translate(-2203.834 -1037.064)" fill="#652d90"/>
            </g>
            <g id="Group_681" data-name="Group 681" transform="translate(12.791)">
              <path id="Path_702" data-name="Path 702" d="M2232.194,1029.182l-.291-.267a1.7,1.7,0,0,1-1.817.26l-.078.181-.078.181a2.653,2.653,0,0,0,.863.187A1.732,1.732,0,0,0,2232.194,1029.182Z" transform="translate(-2229.93 -1028.915)" fill="#652d90"/>
            </g>
            <g id="Group_682" data-name="Group 682" transform="translate(12.909 0.834)">
              <path id="Path_703" data-name="Path 703" d="M2230.909,1034.4l-.227.322a1.933,1.933,0,0,0,.94.3,1.824,1.824,0,0,0,1.343-.527l-.266-.291A1.425,1.425,0,0,1,2230.909,1034.4Z" transform="translate(-2230.682 -1034.202)" fill="#652d90"/>
            </g>
            <g id="Group_683" data-name="Group 683" transform="translate(0 0.796)">
              <path id="Path_704" data-name="Path 704" d="M2150.576,1034.543l.194-.343a1.537,1.537,0,0,0-1.958.273l.3.256A1.147,1.147,0,0,1,2150.576,1034.543Z" transform="translate(-2148.812 -1033.966)" fill="#652d90"/>
            </g>
            <g id="Group_684" data-name="Group 684" transform="translate(0.587 1.772)">
              <path id="Path_705" data-name="Path 705" d="M2152.989,1040.192a.757.757,0,0,0-.453.38l.357.167a.37.37,0,0,1,.22-.173.9.9,0,0,1,.67.168l.2-.339A1.233,1.233,0,0,0,2152.989,1040.192Z" transform="translate(-2152.536 -1040.155)" fill="#652d90"/>
            </g>
          </g>
          <g id="Group_686" data-name="Group 686" transform="translate(61.009 35.66)">
            <path id="Path_706" data-name="Path 706" d="M2284.1,834.825a12.923,12.923,0,0,1-2.708-2.23l.063.016a1.3,1.3,0,0,1,.578-.877,1.118,1.118,0,0,1,.8-.071c.87.508,1.824,1.233,1.86,1.529l0,.018c.009.044.221,1.085-.577,1.481l.047.1Z" transform="translate(-2281.389 -831.62)" fill="#fff"/>
          </g>
          <g id="Group_687" data-name="Group 687" transform="translate(59.048 31.922)">
            <path id="Path_707" data-name="Path 707" d="M2275.234,811.684c.056,1.514-.2,2.4-.8,2.788a2.045,2.045,0,0,0,.168-1.307c-.024-.141-.237-.755-2.071-1.821l-.034-.016a1.515,1.515,0,0,0-1.126.09,1.558,1.558,0,0,0-.713.917,6.288,6.288,0,0,1-1.7-4.419,4.787,4.787,0,0,0,1.608,1.644l.049.02a1.965,1.965,0,0,0,.391.052,2.225,2.225,0,0,0,1.346-.366,2.171,2.171,0,0,0,.351-.3C2272.92,809.075,2275.183,810.28,2275.234,811.684Z" transform="translate(-2268.948 -807.916)" fill="#fff"/>
          </g>
          <g id="Group_688" data-name="Group 688" transform="translate(58.759 30.433)">
            <path id="Path_708" data-name="Path 708" d="M2269.35,801.275c-.073-.008-.127-.017-.156-.023a5.629,5.629,0,0,1-2.078-2.752c.834-.071,2.457-.041,2.9.733C2270.038,799.729,2269.961,800.943,2269.35,801.275Z" transform="translate(-2267.116 -798.474)" fill="#fff"/>
          </g>
        </g>
      </g>
    </g>
  </g>
</svg>
