<svg xmlns="http://www.w3.org/2000/svg" xmlns:xlink="http://www.w3.org/1999/xlink" width="95" height="95" viewBox="0 0 95 95">
  <defs>
    <clipPath id="clip-path">
      <circle id="Ellipse_302" data-name="Ellipse 302" cx="47.5" cy="47.5" r="47.5" transform="translate(0 -0.227)" fill="none"/>
    </clipPath>
    <clipPath id="clip-path-2">
      <path id="Path_780" data-name="Path 780" d="M2218.245,1917l-45.988,3.168V1938.5h45.988Z" transform="translate(-2172.257 -1917.003)" fill="none"/>
    </clipPath>
  </defs>
  <g id="Group_778" data-name="Group 778" transform="translate(-1919.086 -1414.731)">
    <circle id="Ellipse_301" data-name="Ellipse 301" cx="47.5" cy="47.5" r="47.5" transform="translate(1919.086 1414.731)" fill="#fff"/>
    <g id="Group_777" data-name="Group 777" transform="translate(1919.086 1414.958)">
      <g id="Group_776" data-name="Group 776" transform="translate(0 0)" clip-path="url(#clip-path)">
        <g id="Group_775" data-name="Group 775" transform="translate(10.875 2.265)">
          <g id="Group_771" data-name="Group 771">
            <g id="Group_722" data-name="Group 722" transform="translate(26.694 30.559)">
              <path id="Path_735" data-name="Path 735" d="M2172.067,1641.007c-1.733.132-3.466.266-5.2.391-.408.03-.82.021-1.228.046q-2.256.139-4.51.289a1.68,1.68,0,0,0-.235.033,13.954,13.954,0,0,0,.364-1.4,9.7,9.7,0,0,1,.24-1,9.734,9.734,0,0,0,.4-2.417c.087-1.393.032-2.789.067-4.182a9.6,9.6,0,0,1,.393-2.864c.3-.883.637-1.754.973-2.625a6.36,6.36,0,0,1,2.225-2.8,8.736,8.736,0,0,0,1.623,1.276,2.841,2.841,0,0,1,.7.535,2.718,2.718,0,0,0,.577.457,2.23,2.23,0,0,1,.6.575c.524.64.8,1.426,1.281,2.093a7.437,7.437,0,0,1,1.141,2.8,32.532,32.532,0,0,1,.471,3.5c.189,1.744.1,3.5.239,5.232A.5.5,0,0,1,2172.067,1641.007Z" transform="translate(-2160.894 -1624.484)" fill="#a796c7"/>
            </g>
            <g id="Group_723" data-name="Group 723" transform="translate(31.525 22.311)">
              <path id="Path_736" data-name="Path 736" d="M2230.481,1595.379c-.048.384-.052.388-.451.389-3.035,0-6.068,0-9.1-.182-2.41-.144-4.821-.034-7.231-.012-1.706.016-3.412.031-5.117.074-2.213.055-4.421.212-6.63.362-1.028.07-2.058.1-3.142.158,0-.715-.011-1.354,0-1.994a38.718,38.718,0,0,0-.316-5.052,20.271,20.271,0,0,0-.422-2.318,5.781,5.781,0,0,0-.875-2.12c-.552-.773-.911-1.666-1.5-2.421a5.163,5.163,0,0,0-.769-.746c-.752-.642-1.659-1.051-2.422-1.672a1.782,1.782,0,0,0-.524-.26c0-.153.136-.174.226-.218a3.774,3.774,0,0,1,1.779-.6.4.4,0,0,0,.182-.07,17.194,17.194,0,0,1,3.373-1.185c1.234-.383,2.5-.669,3.708-1.133.409-.157.736-.489,1.2-.532.085-.008.2-.17.214-.236.047-.278.282-.361.453-.506.576-.486,1.168-.955,1.74-1.445a5.605,5.605,0,0,1,2.052-1.022c.748-.232,1.5-.457,2.258-.657a6.784,6.784,0,0,1,1.627-.208,2.32,2.32,0,0,0,.9-.22c.261-.115.472-.266.776-.042.155.114.379-.1.535-.008v1.084c-.466-.17-.882-.35-1.357-.508a1.883,1.883,0,0,0-.677-.157c-.1,0-.194.01-.215.139s.065.18.162.214c.339.118.686.223,1.023.349a3.292,3.292,0,0,1,.824.377,4.188,4.188,0,0,1-.921-.082,15.884,15.884,0,0,0-6.549,1.061,5.973,5.973,0,0,0-.98.558c-.1.066-.194.156-.116.28.065.1.172.056.264.011.058-.029.125-.043.181-.075a10.941,10.941,0,0,1,4.978-1.336,10.014,10.014,0,0,1,2.5-.014,2.283,2.283,0,0,1,1.435.538c.4-.017.541.344.794.538a10.359,10.359,0,0,0,1.511,1.007,7.849,7.849,0,0,1,2.053,1.5,1.744,1.744,0,0,0,.334.289c.883.532,1.7,1.17,2.622,1.643a8.4,8.4,0,0,1,2.286,1.684,10.355,10.355,0,0,0,1.541,1.294,6.865,6.865,0,0,1,1.5,1.481,19.214,19.214,0,0,0,1.721,2.019,6.711,6.711,0,0,1,.848,1.145,11.745,11.745,0,0,1,1.679,4.163,6.668,6.668,0,0,1,.084,1.127A24.592,24.592,0,0,1,2230.481,1595.379Z" transform="translate(-2191.987 -1571.4)" fill="#a796c7"/>
            </g>
            <g id="Group_724" data-name="Group 724">
              <path id="Path_737" data-name="Path 737" d="M2071.964,1521.441q-.086-10.976-.172-21.953c-.043-5.874-.088-11.748-.193-17.621-.016-.9-.037-1.8-.015-2.706a12.041,12.041,0,0,0-.112-2.4,3.363,3.363,0,0,0-1.688-2.473,1.142,1.142,0,0,0-1.116-.15.944.944,0,0,1-.437.028,16.96,16.96,0,0,0-2.8.116,16.4,16.4,0,0,1-2.941.191c-.886-.014-1.772-.007-2.658-.01h-.4a3.528,3.528,0,0,0,.23-1.161c.015-.377.008-.755,0-1.132a18.014,18.014,0,0,0-.121-2.8,11.847,11.847,0,0,0-1.833-4.52,6.716,6.716,0,0,0-.826-1.1,16.1,16.1,0,0,1-1.551-1.842,7.5,7.5,0,0,0-1.706-1.689,10.444,10.444,0,0,1-1.578-1.327,8.138,8.138,0,0,0-2.2-1.636c-.938-.483-1.765-1.132-2.669-1.661a1.261,1.261,0,0,1-.261-.223,8.4,8.4,0,0,0-2.256-1.641,8.081,8.081,0,0,1-1.467-.985,2.416,2.416,0,0,1-1.137-2.437.609.609,0,0,1,.428-.632,5.3,5.3,0,0,0,2.05-1.4,1.9,1.9,0,0,0,.654-1.8,2.079,2.079,0,0,1-.009-.9,21.21,21.21,0,0,1,.9-3.618,1.952,1.952,0,0,0,.083-1.115,14.159,14.159,0,0,1-.251-3.277,7.206,7.206,0,0,0-.292-2.235,18.935,18.935,0,0,0-1.491-3.254,4.307,4.307,0,0,0-1.553-1.537,1.791,1.791,0,0,1-.246-.162,15.939,15.939,0,0,0-2.605-1.665,3.26,3.26,0,0,0-.715-.321,11.676,11.676,0,0,0-4.065-.581,3.919,3.919,0,0,1-.394.01,4.648,4.648,0,0,0-2.166.552c-.149.072-.148.271-.364.282a3.239,3.239,0,0,0-2.142,1.18c-.433.447-.818.942-1.259,1.381a5.594,5.594,0,0,0-1.156,1.7c-.242.537-.458,1.086-.691,1.627a18.034,18.034,0,0,0-.99,3.687,14.8,14.8,0,0,0-.126,2.01,2.861,2.861,0,0,0,.549,1.993c.118.153.074.307.084.466a9.141,9.141,0,0,1-.14,2.672.47.47,0,0,0,0,.1c-.013.8.412,1.176,1.211,1.052a5.02,5.02,0,0,0,.687,1.615,17.894,17.894,0,0,0,2.168,2.849c.012.011.019.027.031.038a1.064,1.064,0,0,1,.354.732c.076.668.143,1.337.225,2a.637.637,0,0,1-.435.719,27.315,27.315,0,0,1-3.8,1.2,18.621,18.621,0,0,0-3.862-14.44,18.21,18.21,0,0,0-13.1-7.111,18.786,18.786,0,0,0-11.483,34.769c0-.381,0-.738,0-1.1a15.255,15.255,0,0,1,.271-3.177,13.552,13.552,0,0,0,.323-3.37,3.414,3.414,0,0,1,.023-.835c.266-1.314.352-2.66.69-3.961a6.41,6.41,0,0,1,.4-1.312,10.138,10.138,0,0,1,2.791-3.26,1.6,1.6,0,0,1,.658-.323c.734-.157,1.43-.453,2.18-.563.4-.059.783-.22,1.186-.3.487-.1.623-.343.612-.837a1.088,1.088,0,0,1,.157-.789,6.562,6.562,0,0,1-.019.816,4.49,4.49,0,0,0,.177,1.989c.1.259.178.527.264.791a1.814,1.814,0,0,0,.594.943,3.188,3.188,0,0,0,2.006.695,5.421,5.421,0,0,0,2.3-.6,2.608,2.608,0,0,0,1.512-2.339c.009-.138.014-.277.022-.456.222.118.4.2.561.3a16.3,16.3,0,0,0,2.778,1.347,7.305,7.305,0,0,1,1.42.649,8.457,8.457,0,0,1,1.213.822,5.875,5.875,0,0,1,1.493,2.337c.071.2.128.421.43.353.1-.022.138.063.15.151s-.049.145-.137.167c-.032.007-.063.019-.095.028a6.271,6.271,0,0,0-3.035,1.911c-.076.082-.134.234-.315.183a5.039,5.039,0,0,0-.537-1.87,5.025,5.025,0,0,1-.6-1.8c-.015-.1,0-.2-.134-.229a.459.459,0,0,0-.123.494,4.809,4.809,0,0,0,.475,1.592,5.488,5.488,0,0,1,.514,1.628,1.644,1.644,0,0,1-.285,1.434,2.319,2.319,0,0,0-.283.571c-.349.9-.7,1.8-1.03,2.709a5.085,5.085,0,0,0-.221.955,26.916,26.916,0,0,0-.221,4.123,15.25,15.25,0,0,1-.52,4.672,10.161,10.161,0,0,0-.414,2.349c-.02.011-.041.02-.06.032a7.484,7.484,0,0,0-1.175.887,2.016,2.016,0,0,0-.658,1.379c-.029.369.122.7.108,1.06-.018.475-.03.951-.026,1.427.051,5.66-.168,11.32,0,16.98.067,2.247.185,4.491.283,6.736.053,1.213.1,2.426.14,3.638a.657.657,0,0,1-.1.457,8.863,8.863,0,0,0-1.465,3.508,21.211,21.211,0,0,0-.293,4.9,10.153,10.153,0,0,0,1.619,5.142c.091.142.131.345.343.386a.753.753,0,0,0-.031-.24c-.281-.573-.471-1.183-.727-1.767a12.018,12.018,0,0,1-1.013-3.725,1.337,1.337,0,0,1,.2-.984.86.86,0,0,0,.006-.848,1.176,1.176,0,0,1-.112-.711,24.245,24.245,0,0,1,.4-2.659,1.126,1.126,0,0,1,.109-.324,5.867,5.867,0,0,0,.686-1.877c.009-.031.019-.063.029-.094.054-.17.079-.383.324-.358s.326.208.322.423a22.661,22.661,0,0,1-.072,3.188,5.069,5.069,0,0,0,.114,1.413,13.819,13.819,0,0,1,.071,1.469c.008.721,0,1.442-.014,2.163a26.116,26.116,0,0,0,.2,3.376,12.26,12.26,0,0,0,.09,1.558c.293,0,.181-.222.18-.353-.014-1.345,0-2.69-.047-4.035-.088-2.656-.079-5.313-.18-7.97s-.191-5.31-.312-7.965c-.135-2.983-.246-5.966-.234-8.953.018-4.446-.006-8.893-.011-13.339a10.933,10.933,0,0,1,.022-1.524,1.868,1.868,0,0,1,.386-1.093,5.516,5.516,0,0,1,.972-.827,1.855,1.855,0,0,1,.868-.3c.768-.075,1.534-.124,2.306-.137,1.327-.022,2.655-.082,3.981-.152,1.866-.1,3.726-.312,5.6-.343.787-.013,1.574-.051,2.358-.115,1.929-.159,3.863-.259,5.8-.324,2.852-.1,5.708-.087,8.562-.13,2.248-.033,4.492.051,6.738.165,1.769.089,3.542.079,5.314.108,1.739.029,3.478-.06,5.217,0a14.622,14.622,0,0,0,2.8-.16,18.706,18.706,0,0,1,3.385-.193,4.322,4.322,0,0,0,.786-.032.574.574,0,0,1,.448.123,3,3,0,0,1,1.366,2.339,26.719,26.719,0,0,1,.21,3.678c-.047,1.048-.027,2.1-.025,3.15q.047,18.828.222,37.656c0,.1,0,.2.008.295a.274.274,0,0,0,.288.276.281.281,0,0,0,.292-.276A4.179,4.179,0,0,0,2071.964,1521.441Zm-65.767-75.5a.54.54,0,0,1-.635-.242,1.683,1.683,0,0,1-.132-.744c.556-.013.587.1.784-.468a.386.386,0,0,1,.229-.272,4.014,4.014,0,0,1,.179,1.224C2006.63,1445.716,2006.495,1445.864,2006.2,1445.937Zm7.231,6.718a.671.671,0,0,1-.136.14,3.724,3.724,0,0,1-1.907.931c-.209.027-.411.118-.621.139a3.045,3.045,0,0,1-2.072-.608,1.545,1.545,0,0,1-.466-.738,5.587,5.587,0,0,1-.452-2.824,4.671,4.671,0,0,0-.1-1.52,3.7,3.7,0,0,1,.83.894,2.775,2.775,0,0,0,1.023.895,2.215,2.215,0,0,1,.261.136,3.9,3.9,0,0,0,2.936.4,1.154,1.154,0,0,0,.7-.327.2.2,0,0,1,.357.109A3.24,3.24,0,0,1,2013.428,1452.656Zm2.237-7.334-.166.3a.339.339,0,0,1,.069-.395.851.851,0,0,1,.261-.377A.439.439,0,0,1,2015.665,1445.321Zm.352-1.665c-.2.217-.3.5-.506.775a.672.672,0,0,1-.074-.453,8.255,8.255,0,0,0-.218-2.048,2.719,2.719,0,0,0-1.632-2.022,6.538,6.538,0,0,0-1.1-.419,8.825,8.825,0,0,1-2.192-1.088,1.174,1.174,0,0,1-.242-.241c-.179-.192-.35-.392-.536-.576-.1-.1-.216-.243-.379-.121s.016.236.021.355c.273.145.362.46.6.643a2.612,2.612,0,0,0,.328.292,10.507,10.507,0,0,0,2.584,1.162,3.512,3.512,0,0,1,1.484.732,2.433,2.433,0,0,1,.811,1.479,13.1,13.1,0,0,1,.026,4.009,8.218,8.218,0,0,1-.2,1.45,4.141,4.141,0,0,1-1.062,1.849,2.246,2.246,0,0,1-1.7.729c-.261-.019-.525-.007-.787-.013a1.074,1.074,0,0,1-.342-.026,4.039,4.039,0,0,1-2.035-1.292,6.507,6.507,0,0,0-1.142-1.216,1.643,1.643,0,0,1-.62-1.181,20.449,20.449,0,0,0-.358-2.524.67.67,0,0,1,.062-.468,14.852,14.852,0,0,1,1.231-2.177,8,8,0,0,0,1.02-2.327,1.2,1.2,0,0,0-.069-1c-.16.038-.193.156-.193.3a4.563,4.563,0,0,1-.848,2.43c-.632,1-1.193,2.032-1.744,3.074-.115.217-.24.429-.361.642-.108.191-.185.2-.321.036a1.372,1.372,0,0,1-.307-.814,4.989,4.989,0,0,1,.529-2.709c.333-.616.547-1.3.9-1.912a6.749,6.749,0,0,1,2.008-2.249,1.418,1.418,0,0,1,.868-.3,3.24,3.24,0,0,0,.771-.142,4.574,4.574,0,0,1,3.048.462c.716.363,1.333.891,2.051,1.258a1.322,1.322,0,0,1,.593.818,3.648,3.648,0,0,1,.195,1.208,8.125,8.125,0,0,0,.184,2.147A1.525,1.525,0,0,1,2016.017,1443.656Zm14.754,7.073c-.206-.969-.257-1.963-.5-2.933a2.393,2.393,0,0,0-.083,1.314c.042.438.1.874.152,1.388a5.014,5.014,0,0,1-.938-1.064,15.61,15.61,0,0,0-.956-1.369,8.422,8.422,0,0,1-.787-1.411c-.177-.36.019-.552.213-.768s.4-.348.688-.182c.083.047.183.114.258,0a.193.193,0,0,0-.067-.294.189.189,0,0,1-.182-.106l-.013,0-.491.014a1.412,1.412,0,0,0-.686.6c-.124.158-.252.328-.479.258a.523.523,0,0,1-.354-.485,2.573,2.573,0,0,1,.105-1.064,1.872,1.872,0,0,0,.007-1.106,2.282,2.282,0,0,1-.057-.81c.275.192.5.34.717.505a1.267,1.267,0,0,0,.821.262,7.443,7.443,0,0,0,1.073-.084,3.02,3.02,0,0,1,1.774.183c.373.047.746.095,1.12.14a1.94,1.94,0,0,0,1.309-.261,7.147,7.147,0,0,1-1.341-.075,3.385,3.385,0,0,1-1.01-.2,4.1,4.1,0,0,0-2.035-.163c-.081.009-.161.027-.242.042a2.014,2.014,0,0,1-2.1-.937c-.028-.038-.043-.1-.08-.117-.28-.117-.349-.387-.428-.628a5.787,5.787,0,0,1-.057-2.143,3.905,3.905,0,0,0,3.526,1.506c-.209-.042-.417-.087-.627-.125a4.325,4.325,0,0,1-2.405-1.236,1.486,1.486,0,0,1-.406-1.521c.185-.748.336-1.508.581-2.236a17.334,17.334,0,0,1,1.426-3.286.3.3,0,0,1,.266-.2,8.014,8.014,0,0,0,2.385,4.288,3.046,3.046,0,0,0,.9.738.392.392,0,0,0-.177-.311,12.714,12.714,0,0,1-2.124-2.759,6.223,6.223,0,0,1-.737-2.126.443.443,0,0,1,.1-.411c.483-.536.938-1.1,1.441-1.613a3.076,3.076,0,0,1,1.8-1.027.517.517,0,0,0,.232-.077.936.936,0,0,1,1.058.019,5.149,5.149,0,0,1,3.021,3.925c.11.613.217,1.226.282,1.845a.241.241,0,0,0,.124.233,7.656,7.656,0,0,0-.577-3.875,5.476,5.476,0,0,0-2.865-2.566.523.523,0,0,1,.494-.175,13.709,13.709,0,0,1,2.555.04,9.6,9.6,0,0,1,3.669,1.186c.927.589,1.823,1.222,2.716,1.858a3.49,3.49,0,0,1,1.269,1.882,8.315,8.315,0,0,1,.364,2.11c.249-.4.027-.755.1-1.093.186.052.2.215.261.335a7.2,7.2,0,0,1,.635,2.957c.015.344.021.69,0,1.033a9.091,9.091,0,0,0,.246,2.39,1.309,1.309,0,0,1-.03.677,17.918,17.918,0,0,0-.907,3.944c-.422-.431-.8-.784-1.136-1.173a.757.757,0,0,1,.149-.95,5.542,5.542,0,0,0,1.354-1.809c-.147.026-.186.147-.257.23a2.827,2.827,0,0,0-.2.281,5.327,5.327,0,0,1-.843.958c-.185.172-.325.15-.364-.056a2.566,2.566,0,0,0-1.621-1.842c-.073-.036-.141-.079-.233-.131a6.676,6.676,0,0,0,1.471-2.627c-.2.34-.386.684-.589,1.02-.178.295-.358.589-.559.868-.457.639-.591.676-1.374.433-.043-.176.089-.3.156-.437a9.007,9.007,0,0,0,.895-2.746,2.761,2.761,0,0,0-.075-1.184,2,2,0,0,0-.051.727,9.955,9.955,0,0,1-1.1,3.344c-.109.228-.255.231-.48.182-.624-.134-1.259-.216-1.88-.358-.221-.05-.5.148-.64-.079a1.992,1.992,0,0,1-.131-.666c-.014-.078,0-.169-.092-.212,0,.017-.014.034-.011.049a1.557,1.557,0,0,1,.018.827c-.1.285-.453.2-.683.311-.472.228-.96.421-1.436.641a2.9,2.9,0,0,0-1.043.805,1.293,1.293,0,0,0-.348.89c.187.036.144-.116.173-.182a2.181,2.181,0,0,1,1.041-1.074,13.483,13.483,0,0,1,1.807-.771c.181-.062.369-.165.556-.005.035.029.073.062.115,0,.194-.272.482-.2.719-.138.97.237,1.965.363,2.927.64a4.266,4.266,0,0,1,1.432.74,1.754,1.754,0,0,1,.646,1.532,1.781,1.781,0,0,0,.706,1.624,5.7,5.7,0,0,1,.676.714,1.253,1.253,0,0,1,.1,1.661,4.439,4.439,0,0,1-1.963,1.58,1.953,1.953,0,0,0-.828.508c-.049.062-.143.077-.26.011.171-.293.508-.441.685-.772-.16-.024-.219.087-.285.152a4.675,4.675,0,0,1-1.44.926,2.666,2.666,0,0,1-1.631.214c-.225-.045-.462.03-.676-.082l-.006.006c-.005.1-.065.137-.158.142a4.143,4.143,0,0,1-3.1-.971,3.858,3.858,0,0,1-1.271-2.784,7.316,7.316,0,0,1,.5-3.22c.031-.071.087-.14.054-.239-.15-.076-.192.054-.244.145a4.393,4.393,0,0,0-.657,1.982.911.911,0,0,1-.136.512.878.878,0,0,1,.1.617,4.426,4.426,0,0,0,1.07,3.035,3.478,3.478,0,0,0,1.78,1.076.824.824,0,0,1,.376.151l-1.484.512a5.432,5.432,0,0,0-2,1.213c-.532.5-1.114.956-1.734,1.483C2031.064,1452.725,2030.981,1451.717,2030.771,1450.729Zm-3.825,24.146c-1.733.132-3.465.266-5.2.391-.409.03-.819.021-1.228.046q-2.256.139-4.51.29a1.694,1.694,0,0,0-.235.033,14.037,14.037,0,0,0,.364-1.4,9.47,9.47,0,0,1,.24-1,9.749,9.749,0,0,0,.4-2.417c.087-1.393.032-2.788.067-4.182a9.58,9.58,0,0,1,.393-2.864c.3-.883.637-1.754.972-2.625a6.364,6.364,0,0,1,2.226-2.8,8.717,8.717,0,0,0,1.623,1.276,2.837,2.837,0,0,1,.7.536,2.71,2.71,0,0,0,.577.456,2.235,2.235,0,0,1,.6.575c.525.64.805,1.426,1.281,2.093a7.433,7.433,0,0,1,1.141,2.8,32.44,32.44,0,0,1,.471,3.5c.189,1.744.1,3.5.239,5.232A.5.5,0,0,1,2026.946,1474.875Zm32.152-.791c-.049.384-.052.388-.451.389-3.035.005-6.069,0-9.1-.182-2.41-.144-4.821-.034-7.231-.012-1.706.016-3.412.031-5.116.074-2.213.055-4.421.212-6.63.362-1.028.07-2.057.1-3.142.158,0-.715-.011-1.354,0-1.993a38.743,38.743,0,0,0-.317-5.052,20.189,20.189,0,0,0-.422-2.318,5.783,5.783,0,0,0-.875-2.12c-.552-.773-.912-1.666-1.5-2.421a5.146,5.146,0,0,0-.769-.747c-.752-.642-1.66-1.051-2.422-1.672a1.776,1.776,0,0,0-.525-.26c0-.153.137-.174.226-.218a3.78,3.78,0,0,1,1.779-.6.4.4,0,0,0,.182-.07,17.2,17.2,0,0,1,3.372-1.185c1.234-.382,2.5-.669,3.708-1.132.409-.157.736-.49,1.2-.532.086-.008.2-.17.214-.236.047-.278.282-.361.453-.505.576-.486,1.167-.955,1.74-1.445a5.607,5.607,0,0,1,2.052-1.022c.748-.232,1.5-.457,2.258-.657a6.777,6.777,0,0,1,1.627-.208,2.318,2.318,0,0,0,.9-.22c.261-.115.472-.266.777-.042.155.114.379-.1.535-.008v1.084c-.466-.17-.882-.35-1.357-.508a1.878,1.878,0,0,0-.677-.157c-.1,0-.194.011-.215.139s.065.18.162.214c.34.118.686.223,1.023.349a3.275,3.275,0,0,1,.824.377,4.18,4.18,0,0,1-.921-.082,15.891,15.891,0,0,0-6.549,1.061,5.971,5.971,0,0,0-.979.558c-.1.066-.195.156-.116.28.065.1.172.056.264.011.058-.029.125-.043.181-.075a10.942,10.942,0,0,1,4.979-1.336,10.012,10.012,0,0,1,2.5-.014,2.282,2.282,0,0,1,1.435.538c.4-.017.541.344.794.538a10.351,10.351,0,0,0,1.511,1.007,7.84,7.84,0,0,1,2.053,1.5,1.743,1.743,0,0,0,.334.289c.883.532,1.7,1.17,2.622,1.643a8.4,8.4,0,0,1,2.286,1.684,10.385,10.385,0,0,0,1.54,1.294,6.855,6.855,0,0,1,1.5,1.481,19.2,19.2,0,0,0,1.721,2.019,6.686,6.686,0,0,1,.848,1.144,11.747,11.747,0,0,1,1.679,4.163,6.7,6.7,0,0,1,.083,1.127A24.557,24.557,0,0,1,2059.1,1474.084Z" transform="translate(-1989.08 -1427.793)" fill="#652d90"/>
            </g>
            <g id="Group_725" data-name="Group 725" transform="translate(29.529 71.97)">
              <path id="Path_738" data-name="Path 738" d="M2227.911,1912.759c-.022-.918,0-1.826-.06-2.742-.089-1.407-.172-2.814-.24-4.221-.12-2.472-.175-4.947-.27-7.42a42.3,42.3,0,0,0-.454-4.594c-.075-.5-.431-.911-.414-1.432a2.389,2.389,0,0,0-1.846-1.233,23.2,23.2,0,0,0-2.407-.083l-.747.026a.469.469,0,0,0-.126,0c-.349.011-.7.019-1.045.014-2.821-.042-5.641-.051-8.46.085-.9.044-1.806.024-2.7.091-1.831.137-3.659.309-5.494.4-2.358.12-4.714.295-7.078.278-.328,0-.657.006-.983.032-2.667.219-5.343.115-8.014.2-1.163.039-2.328-.018-3.488.126-.893.111-1.8.137-2.678.332a2.354,2.354,0,0,0-2.145,2.117,9.048,9.048,0,0,0-.064,2.449c.1,1.208.271,2.412.252,3.629-.008.524-.019,1.049-.005,1.573.055,2.115.157,4.229.109,6.345-.034,1.508-.045,3.015.007,4.523.009.249.059.379.329.336.081-.013.162-.02.243-.029-.466-.516-.255-1.111-.18-1.682a8.437,8.437,0,0,0,.011-1.9,3.03,3.03,0,0,1,.061-1.291c.183.005.2.141.268.227a1.957,1.957,0,0,0,1.041.694.337.337,0,0,1,.291.333,18.443,18.443,0,0,0,.566,3.268,1.584,1.584,0,0,1,.019.34.365.365,0,0,0,.284.011c-.188-.711-.27-1.442-.391-2.166a7.537,7.537,0,0,1-.108-1.27c0-.228.075-.34.315-.311.308.037.617.063.925.106.211.029.23.213.249.373a8.6,8.6,0,0,0,1,2.911c.035.069.058.153.161.178.056-.211-.066-.385-.125-.564a16.24,16.24,0,0,1-.6-1.974c-.052-.273-.091-.548-.135-.822a.159.159,0,0,1,.059-.173.179.179,0,0,1,.228.021,4.509,4.509,0,0,1,.634.682c.243.369.495.733.759,1.087a5.209,5.209,0,0,0,1.122,1.161,6.463,6.463,0,0,1,.542.5c.1.091.048.174,0,.261a2.4,2.4,0,0,0,.785.009c-.022-.192.136-.254.256-.322a9.326,9.326,0,0,0,2.372-1.954.716.716,0,0,1,.17-.09,8.151,8.151,0,0,0,1.137,2.367.513.513,0,0,0,.3,0c-.332-.746-.671-1.488-.945-2.259-.161-.455-.185-.463.186-.786q1.112-.969,2.127-2.036a.228.228,0,0,1,.182-.094,7.234,7.234,0,0,1,.519,1.1,12.081,12.081,0,0,0,1.211,2.621.349.349,0,0,1-.018.472c-.265.357-.619.631-.894.977a1.038,1.038,0,0,0,.576-.013c.077-.328.381-.47.578-.7a.141.141,0,0,1,.245.03c.129.222.351.393.376.672a.77.77,0,0,0,.48.012c-.2-.321-.392-.642-.59-.961a.3.3,0,0,1,.016-.4,18.659,18.659,0,0,0,2.027-3c.006-.011.028-.014.073-.034a13.4,13.4,0,0,1,.908,1.363,18.5,18.5,0,0,0,1.3,1.9c.378.507.38.382.055.876-.054.082-.1.17-.145.256h1.375c-.08-.123-.154-.251-.242-.368-.3-.406-.318-.413,0-.844.54-.741,1.094-1.471,1.647-2.2a7.064,7.064,0,0,0,.652-1.209.169.169,0,0,0-.038-.224c-.083-.051-.151.018-.2.087a2.6,2.6,0,0,0-.165.244,40.369,40.369,0,0,1-2.332,3.34c-.015.022-.051.03-.1.057a11.635,11.635,0,0,1-.942-1.3,14.228,14.228,0,0,0-.86-1.314c-.332-.4-.474-.95-1.008-1.281a21.031,21.031,0,0,1-2.367,3.516,17.227,17.227,0,0,1-.957-1.961,12.263,12.263,0,0,0-.615-1.446,1.413,1.413,0,0,1-.265-.878.207.207,0,0,0-.19-.244c-.127-.023-.169.076-.187.176a.575.575,0,0,1-.178.287,29.147,29.147,0,0,1-2.314,2.2c-.232.2-.3.173-.385-.135s-.17-.6-.229-.9c-.175-.905-.611-1.728-.814-2.624a4.739,4.739,0,0,0-.3-1.051,10.1,10.1,0,0,0-1.174,1.186,3.542,3.542,0,0,1-1.568,1.161c-.115-.313.006-.612-.058-.89-.2-.095-.2.126-.365.2a4.581,4.581,0,0,1-.6-1.4.582.582,0,0,0-.113-.309,3.31,3.31,0,0,1-.753-1.981,2,2,0,0,0-.093-.53,6.176,6.176,0,0,1-.213-1.333,1.633,1.633,0,0,0-.149-.51c-.2.067-.2.224-.226.362-.2,1.275-.413,2.548-.579,3.827-.083.642-.129,1.29-.234,1.981a1.232,1.232,0,0,1-.321-.534c-.234-.629-.453-1.264-.679-1.9a1.135,1.135,0,0,1-.071-.482c.007-.083-.007-.171-.106-.195-.127-.03-.181.066-.207.159a6.364,6.364,0,0,0-.157.667,15.125,15.125,0,0,0-.126,2.549c0,.443.01.886,0,1.329-.006.3-.082.357-.361.219a5.424,5.424,0,0,1-.835-.567,1.356,1.356,0,0,1-.492-1.23,10.064,10.064,0,0,1,.08-1.863,2.818,2.818,0,0,0,0-.98,7.4,7.4,0,0,1-.06-1.421,14.653,14.653,0,0,0-.166-2.1,15.054,15.054,0,0,1-.033-1.621,1.108,1.108,0,0,0-.182-.743.658.658,0,0,1,0-.786,1.123,1.123,0,0,0,.188-.342,7.142,7.142,0,0,1,.024-2.879,1.571,1.571,0,0,1,.812-1.173q.127-.061.257-.12c0,.02,0,.042-.007.065-.06.656.067,2.581.7,2.93a.538.538,0,0,1,.453.063,2.014,2.014,0,0,0-.386,1.337,4.159,4.159,0,0,0,.177.863,3.13,3.13,0,0,1,.148,1.64.149.149,0,0,0,.108.212.744.744,0,0,0,.357-.679,4.529,4.529,0,0,0-.31-1.73,1.542,1.542,0,0,1,.036-1.057c.13-.339.306-.384.652-.278.9.274,1.673.807,2.545,1.13.13.048.183.106.172.285a4.806,4.806,0,0,1-.3,1.283,2.061,2.061,0,0,1-.306.438c-.13.2-.385-.066-.469.143-.064.16-.029.349-.185.489-.125.112-.283.219-.308.4.349.331.489-.084.713-.179a.7.7,0,0,1,.237.257,3.459,3.459,0,0,0,1.086,1.12c.605.421,1.19.88,1.832,1.237a17.851,17.851,0,0,0,2.981,1.5,16.765,16.765,0,0,0,4.283.765c.315.02.633,0,1.007,0a.373.373,0,0,0-.293-.177c-.9-.156-1.807-.286-2.7-.486a11.9,11.9,0,0,1-3.37-1.178c-.8-.454-1.641-.819-2.4-1.346a7.263,7.263,0,0,1-2.123-1.79c-.172-.26-.124-.348.044-.556a2.447,2.447,0,0,0,.536-2c.05-.035.105.015.165.032.88.253,1.734.6,2.636.771,1.558.3,3.017.974,4.6,1.188a21.79,21.79,0,0,0,3.462.336c1.277-.033,2.553.008,3.832-.08,1.028-.071,2.066-.017,3.1-.019.508,0,1.021.033,1.525-.015.7-.067.9-.276.842-.876,0-.032,0-.066,0-.1-.014-.2.064-.3.282-.294a16.113,16.113,0,0,0,3.493-.457c.122-.025.2-.028.284.1.348.531.354.527.926.238l.876-.448a17.586,17.586,0,0,1,3.258-1.223,29.036,29.036,0,0,0,3.452-1.13c.663-.279,1.349-.5,2.034-.718.07-.128.207-.149.324-.2.365-.143.735-.276,1.1-.417.408-.157.475-.3.351-.713-.1-.343-.323-1.715-.484-2.306.5,0,.99-.008,1.486-.02a8.5,8.5,0,0,1,1.422.1,1.359,1.359,0,0,1,.984.583c.209.311.4.632.592.957a1.036,1.036,0,0,1,.124.368,25.455,25.455,0,0,1,.38,3.119c.029,1.7.161,3.4.149,5.108-.01,1.44.075,2.879.154,4.318.137,2.5.231,5.089.291,7.486h.59A4.13,4.13,0,0,1,2227.911,1912.759Zm-40.931-4.458a4.839,4.839,0,0,0,1.683-1.4c.184-.223.363-.449.588-.727.269,1.331.777,2.519,1.02,3.782a.588.588,0,0,0,.042.191c.277.463.043.755-.281,1.09a11.125,11.125,0,0,1-2.127,1.723c-.066.041-.122.114-.247.073a19.39,19.39,0,0,1-.954-3.909c-.01-.081-.02-.162-.033-.242C2186.6,1908.481,2186.6,1908.476,2186.979,1908.3Zm.19,4.334a3.8,3.8,0,0,1-1.2-1.075c-.438-.549-.77-1.178-1.251-1.7-.1-.106-.141-.244.039-.316a9.167,9.167,0,0,0,1.354-.792.193.193,0,0,1,.2-.025A19.512,19.512,0,0,0,2187.169,1912.634Zm-3.228-7.921c.1-.658.165-1.319.255-2.06a2.063,2.063,0,0,1,.257,1,3.754,3.754,0,0,0,.419,1.5c.271.522.5,1.066.753,1.6a2.791,2.791,0,0,0,.512.773.394.394,0,0,1-.044.636,8.219,8.219,0,0,1-1.661.939c-.209.066-.34.048-.445-.149a2.14,2.14,0,0,1-.316-1.014A21.221,21.221,0,0,1,2183.942,1904.714Zm-1.9.838a.7.7,0,0,1,.227.393,17.749,17.749,0,0,0,1,2.452,1.727,1.727,0,0,1,.1.721c0,.16-.07.246-.233.246l-.2,0c-1.021.006-1.033,0-1.03-1.014A15.57,15.57,0,0,1,2182.038,1905.551Zm23.428-11.072a10.925,10.925,0,0,0-.25,3.32c.048.39.088.782.107,1.175.03.64.09.638-.585.626-2.559-.047-5.115.062-7.673.08a18.846,18.846,0,0,1-6.561-1.049c-.153-.055-.314-.09-.473-.13-1.221-.308-2.451-.586-3.644-1a7.288,7.288,0,0,1-1.546-.614,4.983,4.983,0,0,0-1.147-.535,6.816,6.816,0,0,1-.912-.359,3.987,3.987,0,0,0-.928-.313c-.388-.08-.485-.182-.532-.574-.03-.247-.009-1.625.019-2.063a2.933,2.933,0,0,1,.623-.143c.847-.091,1.7-.139,2.547-.215,1.687-.152,3.377-.036,5.064-.045,3.362-.018,6.721-.135,10.081-.233,1.769-.051,3.537-.168,5.3-.279.216-.013.432-.03.648-.046C2205.607,1892.606,2205.514,1894.217,2205.466,1894.479Zm4.309,3.5a.5.5,0,0,1-.1.055,14.135,14.135,0,0,1-3.647.392c-.2-.011-.245-.12-.259-.278a10.835,10.835,0,0,1-.074-1.619c.047-.77.15-1.533.261-2.295a10.809,10.809,0,0,0-.09-2.17c1.028-.078,2.055-.167,3.083-.232.012.6.185,2.1.222,2.3.171.935.181,1.891.393,2.821A3.24,3.24,0,0,1,2209.775,1897.984Zm12.114-3.858c-1.5.554-2.966,1.117-4.446,1.631-.988.343-1.993.639-3.008.9a16.221,16.221,0,0,0-3.623,1.49c-.2.108-.3.128-.372-.145a15.694,15.694,0,0,1-.474-2.1c-.1-.829-.2-1.658-.3-2.487-.013-.107-.106-1.021-.221-1.611,1.613-.086,3.229-.13,4.845-.169,2.318-.056,4.636,0,6.954-.006C2221.451,1892.417,2221.713,1893.679,2221.888,1894.126Z" transform="translate(-2179.142 -1891.027)" fill="#652d90"/>
            </g>
            <g id="Group_726" data-name="Group 726" transform="translate(54.345 76.602)">
              <path id="Path_739" data-name="Path 739" d="M2340.148,1938.752c.172-.335.336-.675.518-1a.408.408,0,0,0-.037-.5,16.4,16.4,0,0,1-1.349-2.166,8.139,8.139,0,0,1-.361-.806.771.771,0,0,1-.048-.239c-.009-.1.021-.212.134-.23.087-.014.141.072.165.154a5.935,5.935,0,0,0,.592,1.184,18.33,18.33,0,0,0,1.052,1.717c.048.066.082.142.2.166.129-.255.273-.511.393-.779.334-.748.7-1.482,1.088-2.2a1.639,1.639,0,0,0,.329-1.242.172.172,0,0,1,.109-.2c.118-.052.182.033.241.112a16.83,16.83,0,0,1,1.317,1.952,10.9,10.9,0,0,0,1.137,1.538,23.042,23.042,0,0,0,1.856-4.428,7.942,7.942,0,0,1-1.477.3c.042-.151.164-.163.255-.19a36.2,36.2,0,0,0,7.305-2.987,5.532,5.532,0,0,0,2.2-2.181c.162-.285.318-.573.478-.859.056-.1.1-.244.214-.256.364-.04.269-.265.232-.488a9.279,9.279,0,0,0-.967-3.174,1.917,1.917,0,0,1-.32-.817c-.015-.216.074-.3.283-.287a12.322,12.322,0,0,1,1.6,4.646,23.633,23.633,0,0,1,.227,4.159,26.984,26.984,0,0,1-.626,5.3c-.219,1.021-.522,2.025-.793,3.035-.05.189-.137.368-.187.557-.061.231-.207.27-.41.22a1.778,1.778,0,0,1,.036-.339c.2-.639.313-1.3.5-1.941a.875.875,0,0,0-.145-.771c-.486-.8-1.118-1.487-1.616-2.274-.026-.041-.072-.058-.144-.025-.023.059-.06.132-.083.209-.393,1.3-.647,2.625-.978,3.937-.1.393-.147.8-.218,1.2a.913.913,0,0,1-.485-.025.311.311,0,0,0-.076-.273,7.483,7.483,0,0,1-.672-1.079,14.134,14.134,0,0,0-1.218-2.036.855.855,0,0,0-.083.122c-.307.666-.624,1.329-.915,2a5.992,5.992,0,0,0-.5,1.264.547.547,0,0,1-.291.031,1.368,1.368,0,0,1,.131-.619,28.79,28.79,0,0,1,1.242-2.884.835.835,0,0,0,.006-.79,15.711,15.711,0,0,0-2.105-2.679.993.993,0,0,0-.157.347,12.166,12.166,0,0,1-.964,2.563c-.291.49-.488,1.036-.736,1.552a.57.57,0,0,0,.055.639c.33.468.638.952.953,1.43a.9.9,0,0,1,.207.437.569.569,0,0,1-.3,0c-.477-.511-.8-1.152-1.333-1.689-.256.626-.667,1.085-.839,1.668a.608.608,0,0,1-.387.017c.287-.567.566-1.139.865-1.7a.459.459,0,0,0-.05-.612,12.212,12.212,0,0,1-1.637-2.374,1.81,1.81,0,0,0-.534-.694,5.776,5.776,0,0,1-.532,1.25c-.387.775-.763,1.556-1.16,2.327a.506.506,0,0,0,.052.667,2.121,2.121,0,0,1,.27.347c.175.273.46.467.563.79a.655.655,0,0,1-.39-.013c-.165-.427-.589-.64-.82-1.051-.295.341-.415.742-.66,1.064Zm12.455-.683c.144-.709.279-1.344.4-1.982a25.731,25.731,0,0,1,.672-2.71,1.183,1.183,0,0,0-.167-1.108c-.386-.547-.727-1.126-1.091-1.688-.056-.087-.061-.235-.224-.218-.091.415-.175.83-.293,1.239a19.069,19.069,0,0,1-1.052,2.536,1.063,1.063,0,0,0,.094,1.182,14.377,14.377,0,0,1,.9,1.516A6.869,6.869,0,0,0,2352.6,1938.069Zm2.449-8.946a2.551,2.551,0,0,0-.09.289,26.351,26.351,0,0,1-.625,3.064.566.566,0,0,0,.1.459c.48.82,1.2,1.47,1.65,2.309.036.066.1.15.19.1a.255.255,0,0,0,.1-.157c.246-1.033.318-2.093.5-3.136a.251.251,0,0,0-.069-.226,6.752,6.752,0,0,1-.976-1.576A5.124,5.124,0,0,0,2355.052,1929.123Zm-3.143,1.141c-1.224.617-2.489.9-3.73,1.381a16.412,16.412,0,0,0,1.2,1.237c.383.39.626.891,1.019,1.349A17.639,17.639,0,0,0,2351.909,1930.264Zm5.056,1.133a26.106,26.106,0,0,0-.153-5.6c-.062.023-.085.025-.091.035a10.281,10.281,0,0,1-1.659,2.588c-.088.089-.036.18.039.257a5.013,5.013,0,0,1,.5.536,9.277,9.277,0,0,1,.972,1.7A.74.74,0,0,0,2356.965,1931.4Zm-2.338-2.541a8.1,8.1,0,0,0-2.149,1.226l1.475,2.117A24.332,24.332,0,0,0,2354.627,1928.855Z" transform="translate(-2338.87 -1920.838)" fill="#652d90"/>
            </g>
            <g id="Group_727" data-name="Group 727" transform="translate(12.907 31.293)">
              <path id="Path_740" data-name="Path 740" d="M2072.648,1629.207c.137.1.094.245.1.369a7.529,7.529,0,0,1-.134,1.615,4.61,4.61,0,0,0,.539,3.223c.278.485.46,1.013.688,1.52a3.318,3.318,0,0,1,.257,1.2c.061,1.179.089,2.359.128,3.538,0,.066,0,.131,0,.2-.029.531-.081.569-.6.452a.641.641,0,0,0-.285-.055c-.238.051-.351-.1-.428-.283-.108-.256-.182-.527-.3-.778a4.72,4.72,0,0,1-.357-1.914c-.032-1.017.079-2.03.069-3.047a1.144,1.144,0,0,1,.121-.572.8.8,0,0,0,.015-.776,4.424,4.424,0,0,1-.206-2.56c.109-.662.249-1.318.294-1.989C2072.544,1629.292,2072.559,1629.245,2072.648,1629.207Z" transform="translate(-2072.153 -1629.207)" fill="#652d90"/>
            </g>
            <g id="Group_728" data-name="Group 728" transform="translate(18.659 37.493)">
              <path id="Path_741" data-name="Path 741" d="M2115.982,1669.145a1.892,1.892,0,0,1-1.464.679,3.347,3.347,0,0,1-.588.026,20.809,20.809,0,0,0-3.322.265,4.449,4.449,0,0,0-.8.213,1.092,1.092,0,0,1-.612.081c-.048-.169.076-.218.173-.252a6.329,6.329,0,0,1,1.752-.442c.422-.021.837-.158,1.259-.188.571-.04,1.146-.027,1.719-.036a3.622,3.622,0,0,0,1.707-.377Z" transform="translate(-2109.18 -1669.114)" fill="#652d90"/>
            </g>
            <g id="Group_729" data-name="Group 729" transform="translate(36.968 0.412)">
              <path id="Path_742" data-name="Path 742" d="M2231.961,1445.815c.373.047.746.1,1.119.14a1.939,1.939,0,0,0,1.309-.261,7.107,7.107,0,0,1-1.341-.075,3.377,3.377,0,0,1-1.01-.2,4.1,4.1,0,0,0-2.035-.163c-.081.009-.161.027-.242.042a2.014,2.014,0,0,1-2.1-.937c-.028-.038-.043-.1-.08-.117-.28-.118-.35-.387-.428-.628a5.79,5.79,0,0,1-.057-2.143,3.9,3.9,0,0,0,3.526,1.506c-.209-.042-.417-.087-.627-.125a4.325,4.325,0,0,1-2.405-1.236,1.485,1.485,0,0,1-.406-1.521c.185-.748.335-1.507.58-2.236a17.375,17.375,0,0,1,1.426-3.286.3.3,0,0,1,.266-.2,8.016,8.016,0,0,0,2.385,4.287,3.045,3.045,0,0,0,.9.738.392.392,0,0,0-.177-.311,12.73,12.73,0,0,1-2.124-2.759,6.216,6.216,0,0,1-.737-2.126.442.442,0,0,1,.1-.411c.483-.536.939-1.1,1.441-1.613a3.077,3.077,0,0,1,1.8-1.027.514.514,0,0,0,.232-.077.938.938,0,0,1,1.058.019,5.148,5.148,0,0,1,3.021,3.925c.11.613.217,1.226.282,1.845a.24.24,0,0,0,.124.232,7.657,7.657,0,0,0-.577-3.875,5.479,5.479,0,0,0-2.865-2.566.523.523,0,0,1,.494-.175,13.707,13.707,0,0,1,2.555.04,9.6,9.6,0,0,1,3.669,1.186c.928.59,1.823,1.222,2.716,1.859a3.491,3.491,0,0,1,1.269,1.881,8.3,8.3,0,0,1,.364,2.11c.25-.4.028-.755.1-1.094.186.052.2.215.261.336a7.2,7.2,0,0,1,.635,2.957c.015.344.021.69,0,1.033a9.091,9.091,0,0,0,.246,2.39,1.314,1.314,0,0,1-.03.677,17.949,17.949,0,0,0-.907,3.944c-.422-.431-.8-.784-1.136-1.173a.757.757,0,0,1,.15-.95,5.541,5.541,0,0,0,1.354-1.809c-.147.026-.186.147-.257.23a2.866,2.866,0,0,0-.2.281,5.324,5.324,0,0,1-.843.958c-.185.172-.325.15-.364-.056a2.566,2.566,0,0,0-1.621-1.842c-.073-.035-.141-.079-.233-.131a6.676,6.676,0,0,0,1.47-2.627c-.2.34-.386.684-.589,1.02-.178.295-.359.589-.559.868-.457.639-.591.676-1.373.434-.043-.176.089-.3.155-.438a9,9,0,0,0,.895-2.746,2.756,2.756,0,0,0-.075-1.184,2,2,0,0,0-.051.727,9.968,9.968,0,0,1-1.1,3.344c-.109.228-.255.231-.48.182-.624-.134-1.259-.216-1.88-.357-.221-.051-.5.147-.64-.079a1.987,1.987,0,0,1-.131-.666c-.013-.078,0-.168-.093-.212,0,.017-.014.034-.011.048a1.557,1.557,0,0,1,.018.827c-.1.285-.454.2-.683.311-.472.228-.96.421-1.437.641a2.907,2.907,0,0,0-1.043.806,1.292,1.292,0,0,0-.348.89c.187.036.143-.116.173-.182a2.18,2.18,0,0,1,1.041-1.074,13.48,13.48,0,0,1,1.807-.771c.181-.062.368-.165.556-.005.034.029.073.062.115,0,.194-.272.482-.2.719-.138.97.237,1.964.363,2.927.64a4.27,4.27,0,0,1,1.432.74,1.753,1.753,0,0,1,.647,1.532,1.78,1.78,0,0,0,.706,1.624,5.721,5.721,0,0,1,.676.714,1.253,1.253,0,0,1,.1,1.661,4.439,4.439,0,0,1-1.963,1.58,1.955,1.955,0,0,0-.828.508c-.049.062-.142.076-.26.011.17-.293.508-.441.685-.772-.16-.024-.219.086-.285.152a4.687,4.687,0,0,1-1.441.926,2.667,2.667,0,0,1-1.631.214c-.225-.045-.462.03-.677-.082a.241.241,0,0,0-.2-.185,2.632,2.632,0,0,1-1.162-.612,4.13,4.13,0,0,1-1.791-2.872,1.815,1.815,0,0,1,.952-1.93,5.3,5.3,0,0,1,1.186-.459c.075-.015.176-.046.176-.143,0-.136-.125-.126-.217-.139a1.138,1.138,0,0,0-.436.06,4.436,4.436,0,0,0-1.188.581,1.522,1.522,0,0,0-.7.972,3.083,3.083,0,0,0,.167,2.159,4.453,4.453,0,0,0,3.206,2.573c0,.1-.065.137-.158.142a4.144,4.144,0,0,1-3.1-.971,3.858,3.858,0,0,1-1.27-2.784,7.313,7.313,0,0,1,.5-3.22c.03-.072.087-.14.054-.239-.15-.076-.192.054-.245.145a4.391,4.391,0,0,0-.657,1.982.917.917,0,0,1-.135.512,6.019,6.019,0,0,0-1.215-1.123A2.251,2.251,0,0,1,2231.961,1445.815Zm7.656,4.963a.538.538,0,0,0,.5.372,1.5,1.5,0,0,0,1.065-.3,1.035,1.035,0,0,0,.1-1.688,1.374,1.374,0,0,0-.824-.44,1.871,1.871,0,0,0,.053-1.461.932.932,0,0,0-1.42-.4,1.206,1.206,0,0,0,.538.056.635.635,0,0,1,.675.525,1.367,1.367,0,0,1-.18,1.217c-.2.309-.157.427.189.413a1.091,1.091,0,0,1,.916.563.519.519,0,0,1,.048.508A1.305,1.305,0,0,1,2239.617,1450.778Zm-2.546-5.787a1.253,1.253,0,0,1,1.271-.572A.824.824,0,0,0,2237.071,1444.99Z" transform="translate(-2227.021 -1430.444)" fill="#6d52a1"/>
            </g>
            <g id="Group_730" data-name="Group 730" transform="translate(26.385 17.435)">
              <path id="Path_743" data-name="Path 743" d="M2159.106,1540.107l-.166.3a.339.339,0,0,1,.069-.394C2159.07,1540.015,2159.083,1540.066,2159.106,1540.107Z" transform="translate(-2158.906 -1540.014)" fill="#fff"/>
            </g>
            <g id="Group_731" data-name="Group 731" transform="translate(65.458 37.214)">
              <path id="Path_744" data-name="Path 744" d="M2413.223,1670.919a6.1,6.1,0,0,0-.9-2,4.622,4.622,0,0,1-.526-.941,1.783,1.783,0,0,1-.117-.373c-.02-.108-.039-.252.119-.276.193-.029.12.141.149.234a3.586,3.586,0,0,0,.583,1.073,8.881,8.881,0,0,1,1.388,3.737,1.529,1.529,0,0,1-.073.919,1.209,1.209,0,0,0-.082.527c.009.639-.013,1.277.055,1.915a.747.747,0,0,1-.234.79,5.371,5.371,0,0,1-.21-1.525c-.022-.507-.017-1.016-.018-1.523a4.258,4.258,0,0,0-.705-2.311,9.41,9.41,0,0,0-.778-1.191,6.346,6.346,0,0,0-1.208-1c-.153-.107-.338-.212-.255-.492a5.441,5.441,0,0,1,2.266,1.974,6.268,6.268,0,0,0,.411.608l.182.38a.392.392,0,0,0,.14.285c.076-.105.1-.2-.043-.262A1.807,1.807,0,0,0,2413.223,1670.919Zm.315,1-.03-.035a.446.446,0,0,0-.032.078c0,.009.017.023.027.035Z" transform="translate(-2410.396 -1667.322)" fill="#652d90"/>
            </g>
            <g id="Group_732" data-name="Group 732" transform="translate(51.091 24.475)">
              <path id="Path_745" data-name="Path 745" d="M2320,1587.668a4.509,4.509,0,0,1-1.454-1.381c-.186-.244-.281-.558-.568-.726a.114.114,0,0,1-.023-.172.167.167,0,0,1,.175-.057.307.307,0,0,1,.2.127C2318.837,1586.236,2319.435,1586.943,2320,1587.668Z" transform="translate(-2317.928 -1585.325)" fill="#652d90"/>
            </g>
            <g id="Group_733" data-name="Group 733" transform="translate(45.532 16.003)">
              <path id="Path_746" data-name="Path 746" d="M2285.637,1537.144a4.454,4.454,0,0,1-3.206-2.573,3.083,3.083,0,0,1-.167-2.159,1.519,1.519,0,0,1,.7-.972,4.42,4.42,0,0,1,1.188-.581,1.139,1.139,0,0,1,.436-.06c.092.013.216,0,.217.139,0,.1-.1.128-.176.143a5.3,5.3,0,0,0-1.186.459,1.814,1.814,0,0,0-.951,1.929,4.129,4.129,0,0,0,1.791,2.872,2.632,2.632,0,0,0,1.162.612.241.241,0,0,1,.2.185Z" transform="translate(-2282.147 -1530.794)" fill="#652d90"/>
            </g>
            <g id="Group_734" data-name="Group 734" transform="translate(49.044 16.657)">
              <path id="Path_747" data-name="Path 747" d="M2305.269,1539.1a1.305,1.305,0,0,0,1.667-.628.52.52,0,0,0-.048-.508c-.236-.294-.465-.581-.916-.563-.346.014-.391-.1-.189-.413a1.368,1.368,0,0,0,.18-1.217.636.636,0,0,0-.675-.525,1.2,1.2,0,0,1-.538-.056.932.932,0,0,1,1.42.4,1.873,1.873,0,0,1-.053,1.461,1.373,1.373,0,0,1,.824.44,1.035,1.035,0,0,1-.1,1.688,1.5,1.5,0,0,1-1.065.3A.537.537,0,0,1,2305.269,1539.1Z" transform="translate(-2304.749 -1535.007)" fill="#652d90"/>
            </g>
            <g id="Group_735" data-name="Group 735" transform="translate(47.018 14.24)">
              <path id="Path_748" data-name="Path 748" d="M2291.712,1520.165a.824.824,0,0,1,1.271-.572A1.253,1.253,0,0,0,2291.712,1520.165Z" transform="translate(-2291.712 -1519.446)" fill="#502c85"/>
            </g>
            <g id="Group_736" data-name="Group 736" transform="translate(68.155 40.811)">
              <path id="Path_749" data-name="Path 749" d="M2427.943,1690.993l-.182-.38.129-.141a1.807,1.807,0,0,1,.15.545Z" transform="translate(-2427.761 -1690.471)" fill="#59499d"/>
            </g>
            <g id="Group_737" data-name="Group 737" transform="translate(29.809 76.201)">
              <path id="Path_750" data-name="Path 750" d="M2203.309,1936.572c-.08-.123-.154-.251-.242-.368-.3-.406-.318-.413,0-.844.54-.741,1.094-1.471,1.647-2.2a6.98,6.98,0,0,0,.652-1.209.169.169,0,0,0-.037-.224c-.084-.051-.151.018-.2.087a2.782,2.782,0,0,0-.165.245,40.371,40.371,0,0,1-2.332,3.34c-.015.022-.051.03-.1.057a11.613,11.613,0,0,1-.942-1.3,14.309,14.309,0,0,0-.86-1.314c-.332-.4-.474-.95-1.008-1.281a21.052,21.052,0,0,1-2.367,3.516,17.255,17.255,0,0,1-.956-1.961,12.264,12.264,0,0,0-.615-1.446,1.416,1.416,0,0,1-.264-.878.207.207,0,0,0-.19-.244c-.127-.023-.169.075-.187.176a.571.571,0,0,1-.178.287,29.168,29.168,0,0,1-2.314,2.2c-.232.2-.3.173-.385-.135s-.169-.6-.229-.9c-.175-.905-.611-1.728-.815-2.624a4.743,4.743,0,0,0-.3-1.052,10.1,10.1,0,0,0-1.174,1.186,3.538,3.538,0,0,1-1.568,1.161c-.115-.313.007-.612-.058-.89-.2-.095-.2.126-.365.2a4.582,4.582,0,0,1-.6-1.4.582.582,0,0,0-.113-.309,3.306,3.306,0,0,1-.753-1.981,2.012,2.012,0,0,0-.093-.53,6.192,6.192,0,0,1-.214-1.333,1.612,1.612,0,0,0-.149-.51c-.2.067-.2.224-.226.362-.2,1.275-.412,2.548-.579,3.827-.084.642-.129,1.29-.234,1.981a1.235,1.235,0,0,1-.321-.534c-.234-.629-.453-1.264-.679-1.9a1.125,1.125,0,0,1-.071-.482c.007-.083-.007-.171-.107-.195-.127-.03-.181.066-.207.159a6.287,6.287,0,0,0-.157.667,15.1,15.1,0,0,0-.126,2.549c0,.443.01.886,0,1.329-.007.3-.082.357-.361.219a5.385,5.385,0,0,1-.835-.567,1.356,1.356,0,0,1-.493-1.23,10.022,10.022,0,0,1,.081-1.863,2.835,2.835,0,0,0,0-.98,7.28,7.28,0,0,1-.06-1.421,14.686,14.686,0,0,0-.167-2.1,15.118,15.118,0,0,1-.033-1.621,1.108,1.108,0,0,0-.181-.743.658.658,0,0,1,0-.786,1.127,1.127,0,0,0,.188-.342c.4-.3.786-.614,1.188-.907a.91.91,0,0,1,.6-.27.539.539,0,0,1,.454.063,2.013,2.013,0,0,0-.386,1.337,4.193,4.193,0,0,0,.177.863,3.132,3.132,0,0,1,.148,1.639.15.15,0,0,0,.108.212.744.744,0,0,0,.358-.679,4.535,4.535,0,0,0-.309-1.73,1.539,1.539,0,0,1,.036-1.057c.13-.339.306-.384.651-.278.9.274,1.673.807,2.545,1.13.13.048.184.106.172.285a4.785,4.785,0,0,1-.3,1.283,2.028,2.028,0,0,1-.306.438c-.13.2-.386-.066-.469.143-.064.16-.029.349-.184.489-.125.112-.282.219-.308.4.349.33.488-.085.713-.179a.694.694,0,0,1,.237.257,3.459,3.459,0,0,0,1.086,1.12c.605.421,1.19.88,1.831,1.237a17.855,17.855,0,0,0,2.981,1.5,16.764,16.764,0,0,0,4.283.765c.315.02.633,0,1.007,0a.372.372,0,0,0-.292-.177c-.9-.156-1.807-.286-2.7-.486a11.906,11.906,0,0,1-3.37-1.178c-.8-.454-1.641-.819-2.4-1.347a7.268,7.268,0,0,1-2.123-1.79c-.172-.26-.124-.348.044-.556a2.447,2.447,0,0,0,.537-2c.049-.035.1.015.165.033.88.253,1.734.6,2.636.771,1.558.3,3.018.974,4.6,1.188a21.776,21.776,0,0,0,3.461.336c1.277-.032,2.554.008,3.832-.08,1.029-.071,2.066-.017,3.1-.02.508,0,1.02.033,1.524-.015.7-.067.9-.276.843-.876,0-.032,0-.066,0-.1-.014-.2.064-.3.282-.294a16.119,16.119,0,0,0,3.492-.457c.123-.025.2-.028.285.1.348.531.354.527.926.238l.876-.448a17.58,17.58,0,0,1,3.258-1.223,29.033,29.033,0,0,0,3.452-1.13c.663-.279,1.349-.5,2.034-.718a.447.447,0,0,1,.264.4c-.208-.016-.3.071-.282.287a1.913,1.913,0,0,0,.32.817,9.283,9.283,0,0,1,.968,3.174c.037.223.132.448-.232.488-.114.013-.157.156-.213.256-.16.286-.316.574-.478.859a5.527,5.527,0,0,1-2.2,2.181,36.209,36.209,0,0,1-7.3,2.988c-.091.026-.214.038-.256.19a7.917,7.917,0,0,0,1.477-.3,23.012,23.012,0,0,1-1.856,4.428,10.863,10.863,0,0,1-1.137-1.538,16.9,16.9,0,0,0-1.317-1.952c-.059-.079-.122-.164-.241-.112a.172.172,0,0,0-.109.2,1.639,1.639,0,0,1-.329,1.242q-.589,1.08-1.088,2.2c-.12.268-.264.524-.393.779-.117-.024-.151-.1-.2-.167a18.312,18.312,0,0,1-1.052-1.717,5.908,5.908,0,0,1-.592-1.184c-.025-.082-.078-.168-.166-.154-.113.018-.142.125-.134.23a.774.774,0,0,0,.048.239,8.123,8.123,0,0,0,.361.806,16.322,16.322,0,0,0,1.35,2.166.409.409,0,0,1,.037.5c-.183.329-.346.669-.519,1C2205.607,1936.612,2204.458,1936.614,2203.309,1936.572Z" transform="translate(-2180.941 -1918.259)" fill="#8b83be"/>
            </g>
            <g id="Group_738" data-name="Group 738" transform="translate(23.223 80.935)">
              <path id="Path_751" data-name="Path 751" d="M2140.342,1962.318a.761.761,0,0,0-.031-.24c-.28-.573-.471-1.183-.727-1.767a12.008,12.008,0,0,1-1.013-3.725,1.337,1.337,0,0,1,.2-.984.857.857,0,0,0,.006-.847,1.178,1.178,0,0,1-.112-.711,24.329,24.329,0,0,1,.4-2.659,1.13,1.13,0,0,1,.109-.324,5.867,5.867,0,0,0,.686-1.877c.009-.031.019-.062.029-.094.054-.169.079-.383.324-.358s.326.208.322.423a22.625,22.625,0,0,1-.073,3.188,5.07,5.07,0,0,0,.114,1.413,13.786,13.786,0,0,1,.071,1.469c.008.721,0,1.442-.014,2.163a26.051,26.051,0,0,0,.2,3.376,12.239,12.239,0,0,0,.091,1.558A1.545,1.545,0,0,1,2140.342,1962.318Z" transform="translate(-2138.557 -1948.729)" fill="#8b83be"/>
            </g>
            <g id="Group_739" data-name="Group 739" transform="translate(61.428 87.554)">
              <path id="Path_752" data-name="Path 752" d="M2385.746,1998.3a.906.906,0,0,0-.206-.438c-.315-.478-.623-.962-.953-1.43a.57.57,0,0,1-.055-.639c.249-.516.446-1.061.737-1.552a12.2,12.2,0,0,0,.964-2.563,1,1,0,0,1,.156-.347,15.682,15.682,0,0,1,2.105,2.679.835.835,0,0,1-.005.79,28.719,28.719,0,0,0-1.241,2.884,1.366,1.366,0,0,0-.131.619Z" transform="translate(-2384.459 -1991.331)" fill="#8b83be"/>
            </g>
            <g id="Group_740" data-name="Group 740" transform="translate(41.474 89.343)">
              <path id="Path_753" data-name="Path 753" d="M2257.081,2008.022c-.332-.746-.671-1.488-.945-2.259-.161-.455-.185-.463.186-.786q1.111-.969,2.126-2.037a.227.227,0,0,1,.182-.094,7.214,7.214,0,0,1,.518,1.095,12.084,12.084,0,0,0,1.211,2.621.35.35,0,0,1-.018.472c-.265.357-.619.631-.894.977A21.965,21.965,0,0,1,2257.081,2008.022Z" transform="translate(-2256.024 -2002.847)" fill="#8b83be"/>
            </g>
            <g id="Group_741" data-name="Group 741" transform="translate(56.707 89.138)">
              <path id="Path_754" data-name="Path 754" d="M2355.058,2006.906c-.1-.323-.388-.517-.563-.79a2.174,2.174,0,0,0-.27-.348.506.506,0,0,1-.052-.666c.4-.771.773-1.552,1.16-2.327a5.776,5.776,0,0,0,.532-1.249,1.813,1.813,0,0,1,.534.694,12.234,12.234,0,0,0,1.637,2.374.459.459,0,0,1,.05.612c-.3.561-.578,1.133-.866,1.7Q2356.14,2006.958,2355.058,2006.906Z" transform="translate(-2354.073 -2001.526)" fill="#8b83be"/>
            </g>
            <g id="Group_742" data-name="Group 742" transform="translate(46.494 90.121)">
              <path id="Path_755" data-name="Path 755" d="M2288.994,2012.241c-.2-.321-.392-.642-.59-.961a.3.3,0,0,1,.016-.4,18.632,18.632,0,0,0,2.027-3c.006-.012.028-.014.073-.034a13.385,13.385,0,0,1,.908,1.363,18.5,18.5,0,0,0,1.3,1.9c.378.507.38.382.055.876-.054.082-.1.171-.145.256C2291.427,2012.286,2290.21,2012.291,2288.994,2012.241Z" transform="translate(-2288.336 -2007.852)" fill="#8b83be"/>
            </g>
            <g id="Group_743" data-name="Group 743" transform="translate(32.378 90.76)">
              <path id="Path_756" data-name="Path 756" d="M2197.977,2015.717c-.188-.711-.269-1.442-.391-2.166a7.534,7.534,0,0,1-.108-1.27c0-.229.075-.34.315-.311.308.037.617.063.925.106.211.029.23.213.25.373a8.59,8.59,0,0,0,1,2.911c.035.069.058.153.161.178.056-.211-.066-.384-.125-.564a16.293,16.293,0,0,1-.6-1.974c-.052-.273-.091-.548-.135-.822a.159.159,0,0,1,.059-.174.179.179,0,0,1,.227.021,4.481,4.481,0,0,1,.635.682c.243.369.495.733.759,1.087a5.236,5.236,0,0,0,1.123,1.161,6.409,6.409,0,0,1,.542.5c.1.091.048.174,0,.261a15.9,15.9,0,0,1-1.756.025C2199.9,2015.739,2198.936,2015.78,2197.977,2015.717Z" transform="translate(-2197.478 -2011.967)" fill="#8b83be"/>
            </g>
            <g id="Group_744" data-name="Group 744" transform="translate(68.325 89.157)">
              <path id="Path_757" data-name="Path 757" d="M2428.851,2007.013c.071-.4.119-.806.218-1.2.331-1.311.585-2.641.978-3.937.023-.077.06-.15.083-.208.072-.034.117-.017.144.025.5.787,1.13,1.477,1.616,2.273a.876.876,0,0,1,.146.771c-.183.642-.3,1.3-.5,1.942a1.737,1.737,0,0,0-.036.339C2430.619,2007.039,2429.735,2007.047,2428.851,2007.013Z" transform="translate(-2428.851 -2001.651)" fill="#8b83be"/>
            </g>
            <g id="Group_745" data-name="Group 745" transform="translate(30.222 89.639)">
              <path id="Path_758" data-name="Path 758" d="M2183.9,2009.625c-.466-.516-.254-1.111-.18-1.682a8.436,8.436,0,0,0,.012-1.9,3.019,3.019,0,0,1,.061-1.291c.183.005.2.141.268.227a1.958,1.958,0,0,0,1.041.694.337.337,0,0,1,.291.333,18.406,18.406,0,0,0,.566,3.268,1.649,1.649,0,0,1,.019.34A13.64,13.64,0,0,1,2183.9,2009.625Z" transform="translate(-2183.605 -2004.751)" fill="#8b83be"/>
            </g>
            <g id="Group_746" data-name="Group 746" transform="translate(64.375 91.106)">
              <path id="Path_759" data-name="Path 759" d="M2403.431,2017.581a6.005,6.005,0,0,1,.5-1.264c.291-.674.607-1.337.915-2a.9.9,0,0,1,.083-.122,14.163,14.163,0,0,1,1.219,2.036,7.412,7.412,0,0,0,.671,1.079.312.312,0,0,1,.076.273,1.693,1.693,0,0,1-.678.042C2405.289,2017.6,2404.358,2017.681,2403.431,2017.581Z" transform="translate(-2403.431 -2014.193)" fill="#8b83be"/>
            </g>
            <g id="Group_747" data-name="Group 747" transform="translate(38.294 92.153)">
              <path id="Path_760" data-name="Path 760" d="M2235.563,2023.3c-.022-.192.136-.254.256-.322a9.337,9.337,0,0,0,2.372-1.954.719.719,0,0,1,.169-.09,8.165,8.165,0,0,0,1.137,2.367C2238.186,2023.334,2236.874,2023.337,2235.563,2023.3Z" transform="translate(-2235.561 -2020.937)" fill="#8b83be"/>
            </g>
            <g id="Group_748" data-name="Group 748" transform="translate(60.243 92.832)">
              <path id="Path_761" data-name="Path 761" d="M2376.832,2026.973c.171-.584.582-1.042.838-1.668.534.537.856,1.178,1.333,1.689A16.951,16.951,0,0,1,2376.832,2026.973Z" transform="translate(-2376.832 -2025.305)" fill="#8b83be"/>
            </g>
            <g id="Group_749" data-name="Group 749" transform="translate(55.821 93.455)">
              <path id="Path_762" data-name="Path 762" d="M2348.369,2030.376c.246-.322.366-.724.661-1.064.231.411.655.624.82,1.051A8.5,8.5,0,0,1,2348.369,2030.376Z" transform="translate(-2348.369 -2029.312)" fill="#8b83be"/>
            </g>
            <g id="Group_750" data-name="Group 750" transform="translate(45.473 93.736)">
              <path id="Path_763" data-name="Path 763" d="M2281.766,2031.884c.077-.328.381-.47.578-.7a.14.14,0,0,1,.245.03c.129.222.351.393.376.672A3.492,3.492,0,0,1,2281.766,2031.884Z" transform="translate(-2281.766 -2031.126)" fill="#502c85"/>
            </g>
            <g id="Group_751" data-name="Group 751" transform="translate(25.28 37.313)">
              <path id="Path_764" data-name="Path 764" d="M2151.975,1668.167l-.182-.031c.027-.035.052-.071.08-.105.054-.064.143-.108.192-.043S2152.04,1668.122,2151.975,1668.167Z" transform="translate(-2151.793 -1667.955)" fill="#fff"/>
            </g>
            <g id="Group_752" data-name="Group 752" transform="translate(37.022 87.12)">
              <path id="Path_765" data-name="Path 765" d="M2229.99,1988.539c.268,1.331.776,2.519,1.02,3.782a.6.6,0,0,0,.041.19c.276.463.043.756-.281,1.09a11.159,11.159,0,0,1-2.127,1.723c-.067.042-.122.114-.248.073a19.41,19.41,0,0,1-.954-3.909c-.01-.081-.02-.162-.033-.242-.066-.4-.069-.408.311-.583a4.845,4.845,0,0,0,1.683-1.4C2229.585,1989.044,2229.764,1988.818,2229.99,1988.539Z" transform="translate(-2227.374 -1988.539)" fill="#8b83be"/>
            </g>
            <g id="Group_753" data-name="Group 753" transform="translate(34.059 83.597)">
              <path id="Path_766" data-name="Path 766" d="M2208.824,1965.865a2.065,2.065,0,0,1,.258,1,3.743,3.743,0,0,0,.419,1.5c.271.522.5,1.065.753,1.6a2.8,2.8,0,0,0,.512.773.394.394,0,0,1-.044.636,8.239,8.239,0,0,1-1.661.939c-.21.067-.34.048-.446-.148a2.14,2.14,0,0,1-.315-1.015,21.13,21.13,0,0,1,.27-3.217C2208.665,1967.267,2208.733,1966.6,2208.824,1965.865Z" transform="translate(-2208.299 -1965.865)" fill="#8b83be"/>
            </g>
            <g id="Group_754" data-name="Group 754" transform="translate(35.019 89.652)">
              <path id="Path_767" data-name="Path 767" d="M2216.161,2004.858a19.549,19.549,0,0,0,.857,3.906,3.8,3.8,0,0,1-1.2-1.075c-.438-.549-.77-1.178-1.25-1.7-.1-.106-.141-.244.039-.316a9.156,9.156,0,0,0,1.354-.792A.192.192,0,0,1,2216.161,2004.858Z" transform="translate(-2214.48 -2004.839)" fill="#8b83be"/>
            </g>
            <g id="Group_755" data-name="Group 755" transform="translate(32.294 86.494)">
              <path id="Path_768" data-name="Path 768" d="M2197.073,1984.512a.7.7,0,0,1,.228.393,17.74,17.74,0,0,0,1,2.452,1.731,1.731,0,0,1,.1.721c0,.16-.07.245-.234.245l-.2,0c-1.02.006-1.033,0-1.03-1.014A15.616,15.616,0,0,1,2197.073,1984.512Z" transform="translate(-2196.942 -1984.512)" fill="#8b83be"/>
            </g>
            <g id="Group_756" data-name="Group 756" transform="translate(38.269 16.582)">
              <path id="Path_769" data-name="Path 769" d="M2236.117,1535.468c.073-.145-.052-.2-.127-.277-.195-.189-.4-.372-.592-.556.044-.149.143-.116.231-.073a1.566,1.566,0,0,1,.589.563,1.012,1.012,0,0,0,.389.329Z" transform="translate(-2235.399 -1534.526)" fill="#502c85"/>
            </g>
            <g id="Group_757" data-name="Group 757" transform="translate(26.488 17.058)">
              <path id="Path_770" data-name="Path 770" d="M2159.664,1538.057c-.023-.041-.037-.091-.1-.093a.854.854,0,0,1,.261-.377A.439.439,0,0,1,2159.664,1538.057Z" transform="translate(-2159.567 -1537.587)" fill="#fff"/>
            </g>
            <g id="Group_758" data-name="Group 758" transform="translate(39.492 17.511)">
              <path id="Path_771" data-name="Path 771" d="M2243.27,1540.5a.149.149,0,0,1,.182.106A.189.189,0,0,1,2243.27,1540.5Z" transform="translate(-2243.27 -1540.502)" fill="#fff"/>
            </g>
            <g id="Group_759" data-name="Group 759" transform="translate(66.188 86.125)">
              <path id="Path_772" data-name="Path 772" d="M2416.985,1989.84a6.852,6.852,0,0,1-.757-1.234,14.355,14.355,0,0,0-.9-1.516,1.063,1.063,0,0,1-.094-1.182,19.065,19.065,0,0,0,1.053-2.536c.118-.409.2-.823.293-1.239.163-.017.168.131.224.218.364.562.7,1.141,1.09,1.688a1.182,1.182,0,0,1,.167,1.109,25.725,25.725,0,0,0-.672,2.71C2417.263,1988.5,2417.128,1989.131,2416.985,1989.84Z" transform="translate(-2415.094 -1982.132)" fill="#8b83be"/>
            </g>
            <g id="Group_760" data-name="Group 760" transform="translate(69.795 84.886)">
              <path id="Path_773" data-name="Path 773" d="M2439.046,1974.161a5.11,5.11,0,0,1,.782,1.13,6.734,6.734,0,0,0,.976,1.576.251.251,0,0,1,.069.226c-.181,1.043-.253,2.1-.5,3.136a.253.253,0,0,1-.1.157c-.091.046-.155-.038-.19-.1-.453-.839-1.17-1.489-1.65-2.309a.565.565,0,0,1-.1-.459,26.542,26.542,0,0,0,.624-3.063A2.45,2.45,0,0,1,2439.046,1974.161Z" transform="translate(-2438.315 -1974.161)" fill="#8b83be"/>
            </g>
            <g id="Group_761" data-name="Group 761" transform="translate(63.653 86.027)">
              <path id="Path_774" data-name="Path 774" d="M2402.512,1981.5a17.657,17.657,0,0,1-1.514,3.968c-.393-.459-.636-.959-1.019-1.35a16.488,16.488,0,0,1-1.2-1.237C2400.023,1982.4,2401.288,1982.12,2402.512,1981.5Z" transform="translate(-2398.781 -1981.503)" fill="#8b83be"/>
            </g>
            <g id="Group_762" data-name="Group 762" transform="translate(70.492 81.557)">
              <path id="Path_775" data-name="Path 775" d="M2444.746,1958.334a.739.739,0,0,1-.386-.486,9.249,9.249,0,0,0-.973-1.7,5.01,5.01,0,0,0-.5-.536c-.075-.077-.127-.168-.039-.257a10.286,10.286,0,0,0,1.659-2.588c.006-.01.028-.012.091-.035A26.122,26.122,0,0,1,2444.746,1958.334Z" transform="translate(-2442.798 -1952.731)" fill="#8b83be"/>
            </g>
            <g id="Group_763" data-name="Group 763" transform="translate(67.952 84.619)">
              <path id="Path_776" data-name="Path 776" d="M2428.6,1972.439a24.379,24.379,0,0,1-.674,3.343l-1.475-2.117A8.107,8.107,0,0,1,2428.6,1972.439Z" transform="translate(-2426.454 -1972.439)" fill="#8b83be"/>
            </g>
            <g id="Group_764" data-name="Group 764" transform="translate(68.338 41.332)">
              <path id="Path_777" data-name="Path 777" d="M2428.935,1693.828l.1.023c.139.065.12.157.043.262A.394.394,0,0,1,2428.935,1693.828Z" transform="translate(-2428.935 -1693.828)" fill="#fff"/>
            </g>
            <g id="Group_765" data-name="Group 765" transform="translate(68.539 41.776)">
              <path id="Path_778" data-name="Path 778" d="M2430.289,1696.72l-.034.078c-.01-.012-.03-.026-.027-.035a.431.431,0,0,1,.032-.078Z" transform="translate(-2430.227 -1696.685)" fill="#652d90"/>
            </g>
            <g id="Group_768" data-name="Group 768" transform="translate(28.459 76.006)">
              <g id="Group_767" data-name="Group 767" clip-path="url(#clip-path-2)">
                <g id="Group_766" data-name="Group 766" transform="translate(1.07 -4.036)">
                  <path id="Path_779" data-name="Path 779" d="M2187.909,1913.576a2.4,2.4,0,0,1-.785-.009c.051-.086.1-.169,0-.261a6.422,6.422,0,0,0-.542-.5,5.222,5.222,0,0,1-1.122-1.161c-.264-.354-.515-.719-.759-1.087a4.509,4.509,0,0,0-.634-.682.179.179,0,0,0-.228-.021.159.159,0,0,0-.059.173c.044.274.083.55.135.822a16.24,16.24,0,0,0,.6,1.974c.059.18.181.353.125.564-.1-.025-.126-.109-.161-.178a8.6,8.6,0,0,1-1-2.911c-.019-.161-.038-.344-.249-.373-.307-.043-.617-.068-.925-.106-.24-.029-.314.083-.315.311a7.537,7.537,0,0,0,.108,1.27c.121.724.2,1.454.391,2.166a.364.364,0,0,1-.284-.011,1.649,1.649,0,0,0-.019-.34,18.4,18.4,0,0,1-.566-3.268.337.337,0,0,0-.291-.333,1.957,1.957,0,0,1-1.041-.694c-.066-.085-.085-.221-.268-.227a3.026,3.026,0,0,0-.061,1.291,8.423,8.423,0,0,1-.011,1.9c-.074.571-.286,1.165.18,1.682-.081.01-.162.016-.243.029-.27.043-.32-.087-.329-.336-.052-1.508-.041-3.015-.007-4.523.048-2.115-.054-4.23-.109-6.345-.014-.524,0-1.048.005-1.573.019-1.217-.154-2.42-.252-3.629a9.048,9.048,0,0,1,.064-2.449,2.354,2.354,0,0,1,2.145-2.117c.874-.2,1.784-.222,2.678-.332,1.159-.144,2.325-.087,3.488-.126,2.671-.09,5.347.014,8.014-.2.326-.027.656-.035.983-.032,2.364.017,4.719-.158,7.078-.278,1.834-.094,3.663-.266,5.494-.4.9-.067,1.8-.047,2.7-.091,2.819-.136,5.639-.127,8.46-.085.639.01,1.279-.023,1.918-.043a23.2,23.2,0,0,1,2.407.083,2.389,2.389,0,0,1,1.846,1.233c-.017.521.339.932.414,1.432a42.3,42.3,0,0,1,.454,4.594c.1,2.473.15,4.948.27,7.42.068,1.407.151,2.814.24,4.221.058.916.038,1.805.06,2.723a4.02,4.02,0,0,0,.067.87h-.59c-.06-2.331-.154-4.97-.291-7.468-.079-1.44-.164-2.869-.154-4.309.011-1.707-.12-3.4-.149-5.1a25.412,25.412,0,0,0-.38-3.117,1.032,1.032,0,0,0-.124-.367c-.187-.324-.383-.644-.592-.956a1.358,1.358,0,0,0-.984-.583,8.475,8.475,0,0,0-1.422-.1c-3,.069-6-.044-9,.029-1.623.039-3.246.084-4.867.17-1.489.079-2.973.233-4.462.327-1.767.111-3.535.228-5.3.279-3.36.1-6.719.214-10.081.233-1.687.009-3.378-.108-5.064.045-.849.077-1.7.124-2.547.215a4.3,4.3,0,0,0-1.388.466,1.57,1.57,0,0,0-.812,1.173,7.142,7.142,0,0,0-.024,2.879,1.123,1.123,0,0,1-.188.342.658.658,0,0,0,0,.786,1.1,1.1,0,0,1,.181.743,15.117,15.117,0,0,0,.033,1.621,14.653,14.653,0,0,1,.166,2.1,7.4,7.4,0,0,0,.06,1.421,2.818,2.818,0,0,1,0,.98,10.064,10.064,0,0,0-.08,1.863,1.356,1.356,0,0,0,.492,1.23,5.424,5.424,0,0,0,.835.567c.279.138.355.085.361-.219.01-.443,0-.886,0-1.329a15.125,15.125,0,0,1,.126-2.549,6.356,6.356,0,0,1,.157-.667c.026-.094.08-.189.207-.159.1.024.113.112.106.195a1.126,1.126,0,0,0,.071.482c.226.632.445,1.267.679,1.9a1.234,1.234,0,0,0,.321.534c.1-.691.15-1.339.234-1.981.167-1.279.381-2.552.579-3.827.021-.138.028-.3.226-.362a1.633,1.633,0,0,1,.149.51,6.176,6.176,0,0,0,.213,1.333,2,2,0,0,1,.093.53,3.309,3.309,0,0,0,.753,1.981.582.582,0,0,1,.113.309,4.581,4.581,0,0,0,.6,1.4c.166-.078.164-.3.365-.2.064.278-.057.577.058.89a3.54,3.54,0,0,0,1.568-1.161,10.085,10.085,0,0,1,1.174-1.186,4.754,4.754,0,0,1,.3,1.051c.2.9.639,1.719.814,2.624.059.3.144.6.229.9s.153.334.385.135a29.106,29.106,0,0,0,2.314-2.2.575.575,0,0,0,.178-.287c.017-.1.06-.2.187-.176a.207.207,0,0,1,.189.244,1.414,1.414,0,0,0,.265.878,12.263,12.263,0,0,1,.615,1.446,17.227,17.227,0,0,0,.957,1.961,21.047,21.047,0,0,0,2.367-3.516c.533.331.676.879,1.008,1.281a14.243,14.243,0,0,1,.86,1.314,11.626,11.626,0,0,0,.942,1.3c.047-.027.083-.035.1-.057a40.348,40.348,0,0,0,2.332-3.34,2.6,2.6,0,0,1,.165-.244c.049-.07.116-.138.2-.087a.168.168,0,0,1,.038.224,7.021,7.021,0,0,1-.652,1.209c-.553.731-1.107,1.462-1.647,2.2-.314.431-.3.438,0,.844.088.117.162.245.242.368h-1.375c.048-.085.091-.174.145-.256.325-.494.323-.368-.055-.876a18.5,18.5,0,0,1-1.3-1.9,13.371,13.371,0,0,0-.908-1.363c-.044.02-.067.023-.073.034a18.645,18.645,0,0,1-2.027,3,.3.3,0,0,0-.016.4c.2.319.394.641.59.961a.77.77,0,0,1-.48-.012c-.025-.28-.248-.45-.377-.673a.14.14,0,0,0-.244-.03c-.2.229-.5.371-.578.7a1.038,1.038,0,0,1-.576.013c.275-.346.629-.62.894-.977a.349.349,0,0,0,.018-.472,12.081,12.081,0,0,1-1.211-2.621,7.234,7.234,0,0,0-.519-1.1.227.227,0,0,0-.182.094q-1.017,1.067-2.127,2.036c-.37.323-.347.331-.186.786.274.771.613,1.513.945,2.259a.513.513,0,0,1-.3,0,8.151,8.151,0,0,1-1.137-2.367c-.088.046-.141.057-.17.09a9.335,9.335,0,0,1-2.372,1.954C2188.045,1913.322,2187.887,1913.384,2187.909,1913.576Zm1.342-7.4c-.225.279-.4.5-.588.727a4.839,4.839,0,0,1-1.683,1.4c-.38.175-.377.18-.31.583.013.08.023.161.033.242a19.39,19.39,0,0,0,.954,3.909c.125.041.181-.032.247-.073a11.125,11.125,0,0,0,2.127-1.723c.324-.334.558-.627.281-1.09a.588.588,0,0,1-.042-.191C2190.028,1908.7,2189.519,1907.508,2189.251,1906.177Zm-5.054-3.523c-.09.74-.158,1.4-.255,2.06a21.221,21.221,0,0,0-.27,3.217,2.14,2.14,0,0,0,.316,1.014c.105.2.236.215.445.149a8.219,8.219,0,0,0,1.661-.939.394.394,0,0,0,.044-.636,2.791,2.791,0,0,1-.512-.773c-.252-.532-.482-1.076-.753-1.6a3.755,3.755,0,0,1-.419-1.5A2.062,2.062,0,0,0,2184.2,1902.654Zm2.116,6.074a.192.192,0,0,0-.2.025,9.192,9.192,0,0,1-1.354.792c-.18.072-.137.21-.039.316.48.52.813,1.149,1.251,1.7a3.8,3.8,0,0,0,1.2,1.075A19.513,19.513,0,0,1,2186.313,1908.729Zm-4.275-3.177a15.57,15.57,0,0,0-.127,2.8c0,1.009.01,1.02,1.03,1.014l.2,0c.164,0,.235-.086.234-.246a1.728,1.728,0,0,0-.1-.721,17.772,17.772,0,0,1-1-2.452A.7.7,0,0,0,2182.038,1905.551Z" transform="translate(-2179.142 -1891.027)" fill="#652d90"/>
                </g>
              </g>
            </g>
            <g id="Group_770" data-name="Group 770" transform="translate(29.697 78.44)">
              <g id="Group_769" data-name="Group 769" transform="translate(0 0)">
                <rect id="Rectangle_141" data-name="Rectangle 141" width="0.41" height="16.104" transform="matrix(1, -0.009, 0.009, 1, 0, 0.004)" fill="#652d90"/>
              </g>
            </g>
          </g>
          <g id="Group_772" data-name="Group 772" transform="translate(31.694 73.029)">
            <path id="Path_781" data-name="Path 781" d="M2217.237,1900.236a10.917,10.917,0,0,0-.249,3.32c.048.39.088.782.107,1.175.03.64.09.638-.585.625-2.559-.047-5.115.062-7.673.08a18.846,18.846,0,0,1-6.561-1.049c-.153-.055-.314-.09-.473-.13-1.221-.308-2.45-.586-3.644-1a7.294,7.294,0,0,1-1.546-.613,4.963,4.963,0,0,0-1.147-.535,6.881,6.881,0,0,1-.912-.359,3.961,3.961,0,0,0-.928-.313c-.388-.08-.485-.182-.532-.574-.03-.247-.009-1.625.019-2.063a2.945,2.945,0,0,1,.624-.143c.847-.091,1.7-.139,2.547-.215,1.686-.152,3.377-.036,5.063-.045,3.363-.019,6.722-.135,10.081-.233,1.769-.051,3.537-.168,5.3-.279.216-.014.432-.03.648-.046C2217.378,1898.363,2217.285,1899.975,2217.237,1900.236Z" transform="translate(-2193.078 -1897.843)" fill="#a796c7"/>
          </g>
          <g id="Group_773" data-name="Group 773" transform="translate(56.067 72.779)">
            <path id="Path_782" data-name="Path 782" d="M2354.05,1902.381a.488.488,0,0,1-.1.055,14.144,14.144,0,0,1-3.647.393c-.2-.012-.246-.12-.26-.278a10.838,10.838,0,0,1-.074-1.619c.047-.77.15-1.533.261-2.295a10.775,10.775,0,0,0-.09-2.171c1.028-.078,2.055-.167,3.083-.232.012.6.184,2.1.221,2.3.171.935.181,1.891.392,2.821A3.221,3.221,0,0,1,2354.05,1902.381Z" transform="translate(-2349.955 -1896.233)" fill="#a796c7"/>
          </g>
          <g id="Group_774" data-name="Group 774" transform="translate(59.831 72.553)">
            <path id="Path_783" data-name="Path 783" d="M2386.624,1897.294c-1.5.554-2.965,1.117-4.446,1.631-.989.344-1.994.639-3.008.9a16.232,16.232,0,0,0-3.623,1.491c-.2.108-.3.128-.373-.145a15.735,15.735,0,0,1-.474-2.1c-.1-.829-.2-1.658-.3-2.487-.013-.107-.106-1.02-.221-1.61,1.613-.086,3.229-.13,4.845-.169,2.318-.056,4.636,0,6.954-.006C2386.187,1895.584,2386.448,1896.846,2386.624,1897.294Z" transform="translate(-2374.179 -1894.777)" fill="#a796c7"/>
          </g>
        </g>
      </g>
    </g>
  </g>
</svg>
