<svg xmlns="http://www.w3.org/2000/svg" xmlns:xlink="http://www.w3.org/1999/xlink" width="96.065" height="95.817" viewBox="0 0 96.065 95.817">
  <defs>
    <clipPath id="clip-path">
      <circle id="Ellipse_305" data-name="Ellipse 305" cx="47.908" cy="47.908" r="47.908" fill="none"/>
    </clipPath>
    <clipPath id="clip-path-2">
      <path id="Path_1602" data-name="Path 1602" d="M444.17,1460.46c0,7.463.162,17.747-2.893,24.038-1.053,2.168-4.141,1.024-5.5,2.994a47.723,47.723,0,0,1-78.028.877c-1.424-1.971-6.694-2.914-7.808-5.094-.778-1.524,2.516-4.237,1.9-5.851a47.72,47.72,0,1,1,92.324-16.964Z" transform="translate(-348.742 -1412.746)" fill="none"/>
    </clipPath>
  </defs>
  <g id="Group_1666" data-name="Group 1666" transform="translate(-346.712 -1412.746)">
    <circle id="Ellipse_304" data-name="Ellipse 304" cx="47.714" cy="47.714" r="47.714" transform="translate(347.031 1412.746)" fill="#fff"/>
    <g id="Group_1633" data-name="Group 1633" transform="translate(346.836 1412.746)">
      <g id="Group_1632" data-name="Group 1632" transform="translate(0 0)" clip-path="url(#clip-path)">
        <g id="Group_1631" data-name="Group 1631" transform="translate(-2.805 12.502)">
          <g id="Group_1603" data-name="Group 1603" transform="translate(0 6.596)">
            <g id="Group_1596" data-name="Group 1596">
              <path id="Path_1541" data-name="Path 1541" d="M329.632,1561.279a11.837,11.837,0,0,1,5.239-3.985c.659-.266,1.345-.466,2.025-.677.3-.093.517-.168.244-.522a.728.728,0,0,1,.032-.879c.581-.924,1.189-1.831,1.775-2.751.294-.462.574-.545,1-.118.713.721.809.73,1.211-.217a6.153,6.153,0,0,0,.25-3.881,13.629,13.629,0,0,1,.842-9.008,5.772,5.772,0,0,1,1.513-2.255,14.621,14.621,0,0,1,2.685-1.991c.426-.2.231.216.336.357.3-.207.58-.424.883-.6.182-.107.4-.352.573.063.091.226.274.028.4-.01a9.061,9.061,0,0,1,7.559,1.158,2.653,2.653,0,0,0,.794.337,5.428,5.428,0,0,1,2.927,2.254c.484.583,1.012,1.129,1.5,1.706.592.693.487,1.642.849,2.427.059.128.057.561-.38.393-.021-.008-.043-.014-.064-.021-.229,1.067-1,.324-1.494.394-.794.114-.869.1-.7.927a7.968,7.968,0,0,1-.4,5.114c-.367.781.081,1.381.326,2.021a5.335,5.335,0,0,1,.5,1.722c.027.853-.163,1.132-1.027,1.411-.595.192-1.173.345-1.18,1.131,0,.058-.069.167-.1.165-.815-.1-.674.617-.88,1.028s-.55.113-.756.093c-.356-.037-.512.055-.576.352s-.169.641.292.749c.552.129.465.423.275.837a12.046,12.046,0,0,0-.7,1.887c-.194.726-.188,1.536-1.111,1.806a2.643,2.643,0,0,1-2.518-.713c-.411-.337-.72-.787-1.169-1.095-.5-.343-.886-.307-1.117.246a1.563,1.563,0,0,1-1.293,1.105,1.762,1.762,0,0,0-.744.428c-.3.222-.3.421-.161.776a7.745,7.745,0,0,1,.7,3.7,1.47,1.47,0,0,1-.808,1.289c-.955.44-1.072,1.243-1.089,2.153a47.817,47.817,0,0,0,.585,5.911,44.769,44.769,0,0,1,.43,9.943c-.218,1.86-.5,3.714-.728,5.573-.142,1.174-.224,2.355-.348,3.532-.018.169.111.49-.2.468s-.137-.312-.13-.485c.116-2.637.593-5.233.911-7.847a33.873,33.873,0,0,0-.04-9.012c-.183-1.257-.142-2.55-.373-3.8a33.707,33.707,0,0,1-.323-5.319c-.028-1.041-.911-1.593-1.682-2.119a5.579,5.579,0,0,0-2.274-.748,51.424,51.424,0,0,1-.189,8.765c0-1.442.019-2.884.009-4.327-.009-1.362-.058-2.723-.059-4.085,0-.365-.156-.448-.47-.476a3.341,3.341,0,0,0-3.56,1.707,25.226,25.226,0,0,0-2.859,6.312,12.669,12.669,0,0,1-.6,1.628,6.118,6.118,0,0,0-.348,3.8,14.349,14.349,0,0,1-.052,6.3,1.858,1.858,0,0,0,.194,1.531.7.7,0,0,1,.134.438c-.176,1.931.692,3.663,1.034,5.494.106.569.192,1.142.282,1.715.016.1.054.243-.107.265s-.167-.1-.18-.219a42,42,0,0,0-1.241-5.337,4.362,4.362,0,0,1-.072-1.133,2.208,2.208,0,0,0-.334-1.463,1.071,1.071,0,0,1-.11-.906,22.028,22.028,0,0,0,.442-3.382,7.294,7.294,0,0,0-.2-2.649,7.356,7.356,0,0,1,.4-4.892,13.568,13.568,0,0,0,.644-1.9,22.679,22.679,0,0,1,2.731-5.713,3.61,3.61,0,0,1,3.585-1.887c.491.032.512-.154.433-.519a14.36,14.36,0,0,0-1.529-4.117,11.8,11.8,0,0,1-.955-1.616,8.787,8.787,0,0,1,1.267,1.776,13.824,13.824,0,0,1,1.514,4.123c.04.234.083.434.369.475a5.749,5.749,0,0,1,3.473,1.708c.021.022.084,0,.145,0,.138-.222-.007-.423-.073-.617a19.426,19.426,0,0,0-3.928-6.707,42,42,0,0,0-3.63-3.75.9.9,0,0,0-1.025-.153,22.1,22.1,0,0,0-3.756,1.567,9.933,9.933,0,0,0-3.36,3.1c-.072.108-.08.322-.306.266Zm17.874-12.561c.359.212.59.355.508-.307-.057-.466-.053-1.052.574-1.272.239-.084.216-.246.164-.43-.119-.427-.2-.865-.666-1.1-.447-.222-.805-.01-1.293.313.569-.859,1.207-.506,1.82-.361-.165-.69-.547-.966-1.187-.873a1.585,1.585,0,0,0-1.1,1.848,6.434,6.434,0,0,1,.554,2.557,1,1,0,0,0,.894.995c.129-.007.285-.334.365-.03.047.179-.211.246-.391.265-.563.057-1.19-.708-1.14-1.4a1.247,1.247,0,0,0,.005-.589,7.6,7.6,0,0,1-.5-2.153,1.206,1.206,0,0,0-.369.742,18.074,18.074,0,0,0-.269,3.53c-.037.913-.334,1.242-1.233,1.37a5.3,5.3,0,0,1-1.792.11c-.919-.2-1.159.45-1.563.963-.142.181-.059.266.055.385a20.427,20.427,0,0,1,1.309,1.773,43.779,43.779,0,0,1,4.448,6.977c.1.2.135.466.236.53a5.188,5.188,0,0,0,2.954-2.345c-.278-.319-.642-.74-1.009-1.159a13.885,13.885,0,0,1-3.2-6.446,3.326,3.326,0,0,1,.488-2.552,6.935,6.935,0,0,0-.072,3.029c.886,3.728,3.282,6.416,6.078,8.8,1.392,1.188,2.641.649,2.954-1.164.03-.174.038-.417.151-.5.56-.423.229-.769-.021-1.177a1.914,1.914,0,0,1-.055-2.254c.505-.729,1.066-1.329,2.079-1.047.146.041.376.087.359-.139-.073-.951.63-1.071,1.283-1.225a1.025,1.025,0,0,0,.833-1.3,6.155,6.155,0,0,0-.446-1.463c-.261-.667-.751-1.334-.387-2.095a8.939,8.939,0,0,0,.364-5.768.654.654,0,0,0-.24-.456c-1.473-1.045-2.968-1.989-4.922-1.613a3.669,3.669,0,0,1-2.189.057,2.64,2.64,0,0,1-.349,1.6,6.068,6.068,0,0,0-.917,3.895c.01.308.1.707-.051.905-.3.391-.441-.286-.749-.229a.681.681,0,0,1-.329-.043c-.164-.057-.338-.1-.431-.283-.151-.3-.663-.344-.73-.046s-.3.553-.193.871c.081.24.192.493-.1.647s-.5-.039-.678-.259A1.062,1.062,0,0,0,347.505,1548.718Zm.2,17.739a2.565,2.565,0,0,0-.021-.333,16.616,16.616,0,0,0-1.375-4.034,47.569,47.569,0,0,0-6.464-9.46c-.319-.3-.477-.307-.7.048-.51.812-.993,1.645-1.563,2.413a.807.807,0,0,0,.209,1.3,28.628,28.628,0,0,1,8.441,11.694c.106.363.249.315.514.2A1.757,1.757,0,0,0,347.7,1566.457Zm7.911-9.855c1.031.4,1.161.31,1.194-.749A2.172,2.172,0,0,0,355.612,1556.6Zm-.339,1.584c.052.351.061.724.4.865.146.061.23-.186.258-.324C356.041,1558.184,355.382,1558.5,355.273,1558.186Zm-9.493,10-.082.046c.015.015.032.044.043.042a.417.417,0,0,0,.088-.041Zm2.865-22.53c-.013.014-.04.031-.038.043a.411.411,0,0,0,.037.087c.014-.014.04-.031.038-.042A.34.34,0,0,0,348.645,1545.651Z" transform="translate(-329.63 -1534.424)" fill="#4e008e"/>
            </g>
            <g id="Group_1597" data-name="Group 1597" transform="translate(11.185 7.189)">
              <path id="Path_1542" data-name="Path 1542" d="M407.493,1587.425c.176.219.381.417.678.259s.179-.407.1-.647c-.107-.318.128-.584.193-.871s.579-.255.73.046c.093.186.268.226.431.283a.678.678,0,0,0,.329.044c.309-.057.449.619.749.228.152-.2.061-.6.051-.9a6.068,6.068,0,0,1,.917-3.895,2.64,2.64,0,0,0,.349-1.6,3.669,3.669,0,0,0,2.189-.057c1.954-.376,3.449.568,4.922,1.613a.654.654,0,0,1,.24.456,8.939,8.939,0,0,1-.365,5.768c-.364.761.126,1.428.387,2.094a6.155,6.155,0,0,1,.446,1.463,1.025,1.025,0,0,1-.833,1.3c-.653.154-1.356.274-1.283,1.225.017.226-.213.179-.359.139-1.013-.282-1.574.318-2.079,1.046a1.915,1.915,0,0,0,.055,2.254c.25.408.58.754.021,1.177-.113.086-.121.328-.151.5-.313,1.813-1.562,2.352-2.954,1.164-2.8-2.387-5.193-5.075-6.078-8.8a6.936,6.936,0,0,1,.072-3.029,3.326,3.326,0,0,0-.488,2.552,13.887,13.887,0,0,0,3.2,6.446c.367.419.731.84,1.009,1.159a5.187,5.187,0,0,1-2.954,2.345c-.1-.064-.132-.325-.236-.529a43.792,43.792,0,0,0-4.448-6.978,20.429,20.429,0,0,0-1.309-1.773c-.114-.119-.2-.2-.055-.385.4-.513.644-1.162,1.563-.963a5.292,5.292,0,0,0,1.792-.11c.9-.128,1.2-.457,1.233-1.37a18.08,18.08,0,0,1,.269-3.53,1.205,1.205,0,0,1,.369-.742,7.606,7.606,0,0,0,.5,2.153,1.247,1.247,0,0,1-.005.589c-.05.691.576,1.456,1.14,1.4.18-.018.438-.085.391-.265-.079-.3-.235.023-.365.03a1,1,0,0,1-.894-.995,6.433,6.433,0,0,0-.554-2.557,1.585,1.585,0,0,1,1.1-1.848c.64-.093,1.022.183,1.187.874-.613-.146-1.251-.5-1.82.361.487-.323.846-.535,1.293-.313.465.231.547.668.666,1.1.051.183.074.346-.164.43-.626.22-.631.806-.574,1.272.081.663-.15.52-.508.307a2.079,2.079,0,0,1,.247-2.057A1.577,1.577,0,0,0,407.493,1587.425Z" transform="translate(-400.894 -1580.229)" fill="#fff"/>
            </g>
            <g id="Group_1598" data-name="Group 1598" transform="translate(25.982 21.429)">
              <path id="Path_1543" data-name="Path 1543" d="M495.169,1671.7a2.173,2.173,0,0,1,1.194-.749C496.33,1672.011,496.2,1672.1,495.169,1671.7Z" transform="translate(-495.169 -1670.952)" fill="#fff"/>
            </g>
            <g id="Group_1599" data-name="Group 1599" transform="translate(25.643 23.761)">
              <path id="Path_1544" data-name="Path 1544" d="M493.008,1685.814c.11.316.768,0,.658.541-.028.139-.112.386-.258.324C493.069,1686.538,493.06,1686.165,493.008,1685.814Z" transform="translate(-493.008 -1685.814)" fill="#fff"/>
            </g>
            <g id="Group_1600" data-name="Group 1600" transform="translate(16.068 33.756)">
              <path id="Path_1545" data-name="Path 1545" d="M432.083,1749.5l.049.046a.44.44,0,0,1-.088.041c-.011,0-.028-.027-.043-.042Z" transform="translate(-432.001 -1749.497)" fill="#fff"/>
            </g>
            <g id="Group_1601" data-name="Group 1601" transform="translate(18.976 11.226)">
              <path id="Path_1546" data-name="Path 1546" d="M450.573,1605.949a.367.367,0,0,1,.037.087c0,.012-.025.028-.038.043a.408.408,0,0,1-.037-.087C450.532,1605.98,450.559,1605.964,450.573,1605.949Z" transform="translate(-450.534 -1605.949)" fill="#fff"/>
            </g>
            <g id="Group_1602" data-name="Group 1602" transform="translate(17.519 12.237)">
              <path id="Path_1547" data-name="Path 1547" d="M441.512,1614.537a1.577,1.577,0,0,1,.338-2.148,2.078,2.078,0,0,0-.247,2.057A1.044,1.044,0,0,1,441.512,1614.537Z" transform="translate(-441.247 -1612.389)" fill="#414141"/>
            </g>
          </g>
          <g id="Group_1630" data-name="Group 1630" transform="translate(66.422)">
            <g id="Group_1604" data-name="Group 1604" transform="translate(14.654 24.776)">
              <path id="Path_1548" data-name="Path 1548" d="M863.641,1654a5.643,5.643,0,0,1,1.57,2.356,9.953,9.953,0,0,0,1.085,1.94l-.082,29.222-10.2-.045a1.013,1.013,0,0,0-.037-.262,20.454,20.454,0,0,0-4.1-6.058c-1.348-1.425-2.893-2.652-4.151-4.166a6.087,6.087,0,0,1-1.53-4.166,14.853,14.853,0,0,1,.532-3.431c.2-.737.516-1.441.807-2.232a2.1,2.1,0,0,1-.123,2.023,1.688,1.688,0,0,0-.068.189c-.051.137-.2.308.009.4.182.08.277-.119.341-.249.146-.3.263-.613.39-.921.085-.206.157-.5.389-.5.481,0,.676-.32.839-.656.437-.907,1.3-1.546,1.568-2.564.155-.588.562-1.065.76-1.665.189-.572.058-1.14.243-1.663.254-.717-.074-1.448.124-2.16a.387.387,0,0,0-.186-.329c-.775-.257-.34-.68-.16-1.063a38.529,38.529,0,0,0,2.432-5.274,9.25,9.25,0,0,1,.641-1.469c.342-.682.469-.692,1.109-.264a7,7,0,0,0,2.035,1.24l.036.046-.044-.039c-.627-.751-1.572-1.11-2.344-1.85a5.627,5.627,0,0,1,3.535.393,8.421,8.421,0,0,1,3.941,2.614C863.156,1653.621,863.229,1654.013,863.641,1654Zm-2.206,19.556a.293.293,0,0,0,.224.326l-.232-.32c-.087-.125-.114-.31-.33-.339C861.153,1673.409,861.233,1673.543,861.435,1673.552Zm-.479-.586c-4.686-5.37-6.213-11.328-3.42-18.131C854.9,1658.462,854.974,1667.3,860.957,1672.966Zm1.71-13.708a12.391,12.391,0,0,0-2.335-4.529c-.149-.175-.52-.266-.411-.53.086-.209.434-.16.668-.2a2.229,2.229,0,0,1,.532.009,5.073,5.073,0,0,1,2.55.878c.055-.216-.074-.293-.164-.374a4.381,4.381,0,0,0-4-.548c-.423.21-.09.357.042.461a6.969,6.969,0,0,1,1.736,2.268Q861.972,1657.976,862.667,1659.257Z" transform="translate(-846.189 -1650.258)" fill="#4e3c96"/>
            </g>
            <g id="Group_1605" data-name="Group 1605" transform="translate(0 5.611)">
              <path id="Path_1549" data-name="Path 1549" d="M784.929,1551.052c-.413.017-.485-.374-.643-.6a8.42,8.42,0,0,0-3.941-2.614,5.627,5.627,0,0,0-3.535-.393c.772.739,1.717,1.1,2.344,1.849l.008-.006a7,7,0,0,1-2.035-1.24c-.64-.428-.767-.418-1.109.264a9.268,9.268,0,0,0-.641,1.47,38.528,38.528,0,0,1-2.432,5.274c-.18.383-.615.806.16,1.063a.386.386,0,0,1,.186.329c-.2.712.129,1.443-.124,2.159-.185.524-.054,1.091-.243,1.663-.2.6-.605,1.077-.76,1.665-.268,1.018-1.131,1.656-1.568,2.564-.162.337-.357.655-.838.656-.232,0-.3.294-.389.5-.127.309-.245.622-.39.922-.063.13-.159.329-.341.249-.206-.091-.06-.262-.009-.4a1.667,1.667,0,0,1,.068-.189,2.1,2.1,0,0,0,.123-2.023c-.291.791-.61,1.495-.807,2.232a14.846,14.846,0,0,0-.532,3.431,6.087,6.087,0,0,0,1.53,4.166c1.258,1.514,2.8,2.74,4.151,4.166a20.449,20.449,0,0,1,4.1,6.058,1.014,1.014,0,0,1,.037.261c-.338.089-.418-.171-.515-.391a22.605,22.605,0,0,0-5.532-7.286,19.537,19.537,0,0,1-3.018-3.2,7.519,7.519,0,0,1-.879-5.849,26.365,26.365,0,0,1,1.262-3.991,15.98,15.98,0,0,0,1.314-5.065,6.961,6.961,0,0,0-3.185-6.364,8.207,8.207,0,0,0-2.651-1.367.912.912,0,0,0-.843.145,15.166,15.166,0,0,0-1.508,1.32,1.417,1.417,0,0,1-2.485-.367c-.13-.237-.253-.49-.537-.563-.7-.179-.816-.7-.76-1.295a3.575,3.575,0,0,0-.119-1.456c-.276-.846-.65-1.611-1.643-1.835-.24-.054-.57-.049-.631-.412.328-.026.56.324.915.236-.113-.238-.475-.216-.516-.512l1.33.542a2.479,2.479,0,0,1,1.115,3.594c-.294.442-.127.665.219.835a1.942,1.942,0,0,1,.874.881,1.067,1.067,0,0,0,1.72.4c1.138-1.141,2.548-1.966,3.6-3.193a7.7,7.7,0,0,0,1.408-2.183,2.8,2.8,0,0,0-1.028-3.455,2.063,2.063,0,0,0,1.923-.424,3.415,3.415,0,0,0,.681-3.93,1.287,1.287,0,0,0-1.421-.5.847.847,0,0,0-.763.915l.011-.01a5.625,5.625,0,0,0-1.032,2.222c-.136.535-.352.51-.738.394a3.863,3.863,0,0,1-2.793-3.456c-.019-.2.065-.507-.274-.51a5,5,0,0,1-1.387-.409c.013.4.512.413.557.833a3.97,3.97,0,0,1-2.481-1.251,3.758,3.758,0,0,0,2.013,2.728,5.366,5.366,0,0,1-1.7-.292,1.583,1.583,0,0,0-.365-.1c-.252.6-.5.053-.7-.025a6.942,6.942,0,0,1-2.056-1.618.842.842,0,0,0,.085.567,4.491,4.491,0,0,1-.474,4.149,1.447,1.447,0,0,0-.2.49c-.218.811-.053,1,.781.9.349-.041.38-.012.38.408,0,.438-.266,1.129.458,1.387-.119.038-.315-.089-.346.044-.023.1.136.24.214.363-.448-.169-.7-.48-.594-.882a.7.7,0,0,0-.612-.968c-.559-.113-.659-.452-.624-.923a3,3,0,0,1,.522-1.357,2.758,2.758,0,0,0,.52-1.354c.018-.5.089-.911-.522-1.291-1.2-.744-1.763-3.2-1.276-4.754a6.613,6.613,0,0,1,5.066-4.707,5.329,5.329,0,0,0,1.962-1.02,5.689,5.689,0,0,1,4.8-1.028,10.376,10.376,0,0,1,5.246,2.306,11.953,11.953,0,0,1,3.061,4.149c.263.583.647.568,1.1.446.856-.233,1.071-.172,1.517.6a.833.833,0,0,0,.484.408,7.275,7.275,0,0,1,2.765,1.932,7.04,7.04,0,0,1,1.637,3.1c.481,1.855,1.174,3.641,1.779,5.454.22.658.815,1.189,1.043,1.847a7.574,7.574,0,0,0,1.372,2.087A.758.758,0,0,1,784.929,1551.052Zm-30.609-12.208c-.053-.109-.1-.294-.252-.179-.12.092.087.191.1.3.1.287.116.626.5.8C754.731,1539.351,754.483,1539.114,754.32,1538.844Zm14.766,24.925a.979.979,0,0,1,.242-.1c.568-.067.552-.062.334-.675a2.766,2.766,0,0,1-.057-.722c.126-.018.15-.126.192-.218.436-.218.824-.419.429-1.03-.12-.185.037-.557.263-.71.594-.4.528-1.058.721-1.616a5.755,5.755,0,0,0-1.545,3.246.345.345,0,0,0-.069.32,5.872,5.872,0,0,0-.586,1.429c-.042.045-.08.093-.01.139C769.011,1563.839,769.057,1563.791,769.086,1563.769Zm3.481-6.052c-.191.519-.191.519.233.86.3-.586.251-.757-.242-.851-.068-.206.13-.433-.055-.638-.327.03-.427.276-.5.538-.186.66-.347,1.329-.555,1.982-.417,1.311-.86,2.614-1.291,3.92-.034.1-.092.229.017.306.139.1.259-.008.334-.11a.61.61,0,0,0,.15-.354c-.063-.676.9-1.091.472-1.861-.012-.021.147-.136.226-.208.374-.344.38-.941.844-1.229.029-.018.012-.2-.038-.242-.455-.4-.26-.671.16-.918a.2.2,0,0,0,.05-.34C771.826,1558.136,772.21,1557.934,772.567,1557.717Zm-4.1-16.6c.179,1.489-.8,2.226-1.839,2.864-.355.218-.376.345-.21.65a3.1,3.1,0,0,1-.2,3.233,10.549,10.549,0,0,1-2.389,2.893,5.316,5.316,0,0,1,2.571,1.039,9.792,9.792,0,0,1,3.3,3.351,1.809,1.809,0,0,1,.294,1.018c-.021,1.021.341,2,.271,3.215.259-.392.411-.624.565-.854a36.97,36.97,0,0,0,2.131-4.3,26.024,26.024,0,0,0,2.086-4.684,6.331,6.331,0,0,1,.819-1.671c.209-.328.193-.41-.167-.531a4.308,4.308,0,0,1-2.317-2.025c-.406-.685-.767-.871-1.49-.566-.64.27-1.22.635-1.9.867-.622.212-.756-.025-.954-.35A3.491,3.491,0,0,1,768.6,1543,4.062,4.062,0,0,0,768.463,1541.113Zm5.629-2.776a8.163,8.163,0,0,1-.094,5.37c-.184.423-.816.687-.513,1.31a5.857,5.857,0,0,0,.937,1.213,4.861,4.861,0,0,0,1.7,1.033c.206.1.33-.016.476-.123.19-.139.142-.291.075-.472a5.589,5.589,0,0,0-.631-1.242,5.876,5.876,0,0,1-1.1-3.777c.047-.734.14-1.466.195-2.2C775.205,1538.514,774.939,1538.263,774.092,1538.336Zm-1.432,17.9c-.265.009-.326.224-.344.411-.034.349.337.3.513.39s.169-.191.176-.331C773.016,1556.464,772.954,1556.26,772.66,1556.233Zm-.636,5.115c-.642.311-.642.311-.435,1.23C771.5,1562.1,772.013,1561.867,772.025,1561.348Zm.565-1.4c.261-.264.382-.56.168-.841-.108-.141-.307.024-.4.114C771.986,1559.589,772.708,1559.619,772.59,1559.944Zm-.49,1.281c.179-.2.457-.3.4-.621-.024-.132-.173-.091-.273-.043C771.933,1560.7,771.871,1560.9,772.1,1561.225Z" transform="translate(-752.823 -1528.15)" fill="#4e008e"/>
            </g>
            <g id="Group_1606" data-name="Group 1606" transform="translate(24.343 29.352)">
              <path id="Path_1550" data-name="Path 1550" d="M913,1697.545c-5.983-5.667-6.058-14.5-3.42-18.131C906.783,1686.217,908.311,1692.174,913,1697.545Z" transform="translate(-907.917 -1679.413)" fill="#652d90"/>
            </g>
            <g id="Group_1607" data-name="Group 1607" transform="translate(27.762 28.216)">
              <path id="Path_1551" data-name="Path 1551" d="M933.073,1677.733q-.693-1.283-1.384-2.566a6.963,6.963,0,0,0-1.736-2.268c-.132-.1-.465-.251-.042-.461a4.379,4.379,0,0,1,4,.548c.09.081.219.158.164.374a5.073,5.073,0,0,0-2.551-.879,2.26,2.26,0,0,0-.532-.009c-.234.042-.582-.007-.668.2-.109.264.262.356.411.53A12.4,12.4,0,0,1,933.073,1677.733Z" transform="translate(-929.703 -1672.174)" fill="#652d90"/>
            </g>
            <g id="Group_1608" data-name="Group 1608" transform="translate(29.563 47.737)">
              <path id="Path_1552" data-name="Path 1552" d="M941.513,1796.882c-.2-.008-.282-.143-.338-.332.216.028.242.214.33.339Z" transform="translate(-941.175 -1796.55)" fill="#414141"/>
            </g>
            <g id="Group_1609" data-name="Group 1609" transform="translate(29.892 48.069)">
              <path id="Path_1553" data-name="Path 1553" d="M943.276,1798.674l.232.32a.293.293,0,0,1-.224-.327Z" transform="translate(-943.276 -1798.667)" fill="#414141"/>
            </g>
            <g id="Group_1610" data-name="Group 1610" transform="translate(26.331 26.747)">
              <path id="Path_1554" data-name="Path 1554" d="M920.588,1662.824l.044.04-.036-.046Z" transform="translate(-920.588 -1662.818)" fill="#414141"/>
            </g>
            <g id="Group_1611" data-name="Group 1611" transform="translate(1.184 15.021)">
              <path id="Path_1555" data-name="Path 1555" d="M762.076,1596.7c-.724-.259-.459-.949-.458-1.387,0-.42-.031-.45-.38-.408-.834.1-1-.093-.781-.9a1.45,1.45,0,0,1,.2-.49,4.492,4.492,0,0,0,.474-4.149.841.841,0,0,1-.085-.567,6.944,6.944,0,0,0,2.056,1.618c.2.078.444.62.7.025a1.556,1.556,0,0,1,.365.1,5.36,5.36,0,0,0,1.7.293,3.757,3.757,0,0,1-2.013-2.728,3.971,3.971,0,0,0,2.481,1.251c-.045-.42-.544-.434-.557-.833a4.993,4.993,0,0,0,1.387.409c.339,0,.255.307.274.511a3.862,3.862,0,0,0,2.793,3.455c.386.117.6.141.738-.393a5.622,5.622,0,0,1,1.032-2.222c.01.485-.015.977.7.986.146,0,.307.169.432.291.466.453.34,1-.29,1.113-.369.068-.659.3-1.066.415a2.616,2.616,0,0,0-.058-1.428c-.075.285-.012.588-.089.851-.179.613.034.862.641.847.056.095-.013.157-.055.229-.145.248-.071.418.2.5a.331.331,0,0,0,.441-.176c.1-.26-.081-.406-.291-.5a1.1,1.1,0,0,0-.3-.045c.092-.315.092-.315.656-.448a.866.866,0,0,0,.446-1.549,1.634,1.634,0,0,0-.665-.433c-.164-.056-.449,0-.436-.3a.677.677,0,0,1,.38-.521.783.783,0,0,1,1.234.535c.127.443.047.909.146,1.354.235-.741.367-1.525-.3-2.07-.64-.526-1.208-.011-1.739.363a.847.847,0,0,1,.763-.915,1.286,1.286,0,0,1,1.421.5,3.415,3.415,0,0,1-.68,3.929,2.064,2.064,0,0,1-1.923.424,2.8,2.8,0,0,1,1.028,3.455,7.708,7.708,0,0,1-1.409,2.183c-1.056,1.227-2.466,2.052-3.6,3.193a1.067,1.067,0,0,1-1.72-.4,1.942,1.942,0,0,0-.874-.881c-.346-.17-.513-.393-.219-.835a2.479,2.479,0,0,0-1.115-3.594l-1.33-.543.014.015c-.016-.2-.129-.217-.284-.144Z" transform="translate(-760.37 -1588.104)" fill="#fff"/>
            </g>
            <g id="Group_1612" data-name="Group 1612" transform="translate(11.001 18.574)">
              <path id="Path_1556" data-name="Path 1556" d="M827.55,1610.742a4.06,4.06,0,0,1,.138,1.89,3.492,3.492,0,0,0,.432,2.256c.2.324.333.562.954.35.68-.232,1.26-.6,1.9-.867.722-.3,1.084-.118,1.49.566a4.306,4.306,0,0,0,2.317,2.025c.36.121.376.2.167.531a6.33,6.33,0,0,0-.819,1.671,26.024,26.024,0,0,1-2.086,4.684,36.983,36.983,0,0,1-2.131,4.3c-.155.23-.306.463-.565.854.07-1.217-.293-2.194-.271-3.215a1.808,1.808,0,0,0-.295-1.018,9.792,9.792,0,0,0-3.3-3.351,5.317,5.317,0,0,0-2.571-1.039,10.548,10.548,0,0,0,2.39-2.893,3.1,3.1,0,0,0,.2-3.233c-.166-.3-.144-.432.21-.65C826.749,1612.968,827.729,1612.231,827.55,1610.742Z" transform="translate(-822.911 -1610.742)" fill="#fff"/>
            </g>
            <g id="Group_1613" data-name="Group 1613" transform="translate(17.288 34.549)">
              <path id="Path_1557" data-name="Path 1557" d="M865.425,1713.153c-.357.217-.742.419-.195.853a.2.2,0,0,1-.05.34c-.42.247-.616.516-.16.918.049.044.067.224.038.242-.464.288-.47.885-.844,1.229-.079.072-.237.188-.226.209.429.77-.534,1.185-.472,1.862a.608.608,0,0,1-.15.354c-.075.1-.195.209-.334.111-.109-.077-.052-.2-.017-.306.431-1.306.874-2.609,1.291-3.92.208-.653.368-1.322.555-1.982.074-.263.175-.508.5-.539.185.2-.013.432.054.638Z" transform="translate(-862.969 -1712.524)" fill="#a6a5a5"/>
            </g>
            <g id="Group_1614" data-name="Group 1614" transform="translate(16.842 36.16)">
              <path id="Path_1558" data-name="Path 1558" d="M860.126,1726.031a5.76,5.76,0,0,1,1.546-3.246c-.193.558-.127,1.215-.721,1.616-.226.153-.383.525-.263.71.395.61.007.812-.429,1.03Z" transform="translate(-860.126 -1722.786)" fill="#a6a5a5"/>
            </g>
            <g id="Group_1615" data-name="Group 1615" transform="translate(16.187 39.726)">
              <path id="Path_1559" data-name="Path 1559" d="M856.55,1745.516a2.755,2.755,0,0,0,.057.723c.217.613.234.608-.335.675a.981.981,0,0,0-.242.1c-.025-.026-.05-.051-.076-.076a5.9,5.9,0,0,1,.587-1.428Z" transform="translate(-855.954 -1745.508)" fill="#a6a5a5"/>
            </g>
            <g id="Group_1616" data-name="Group 1616" transform="translate(19.491 33.695)">
              <path id="Path_1560" data-name="Path 1560" d="M877.353,1707.083c.293.026.355.23.344.47-.006.14,0,.417-.176.331s-.546-.042-.513-.39C877.027,1707.307,877.087,1707.091,877.353,1707.083Z" transform="translate(-877.007 -1707.083)" fill="#a6a5a5"/>
            </g>
            <g id="Group_1617" data-name="Group 1617" transform="translate(19.621 35.178)">
              <path id="Path_1561" data-name="Path 1561" d="M877.951,1716.542c.492.093.541.265.242.851-.424-.341-.424-.341-.233-.859Z" transform="translate(-877.837 -1716.533)" fill="#a6a5a5"/>
            </g>
            <g id="Group_1618" data-name="Group 1618" transform="translate(18.644 38.81)">
              <path id="Path_1562" data-name="Path 1562" d="M872.165,1739.669c-.012.518-.52.755-.435,1.23C871.523,1739.98,871.523,1739.98,872.165,1739.669Z" transform="translate(-871.607 -1739.669)" fill="#a6a5a5"/>
            </g>
            <g id="Group_1619" data-name="Group 1619" transform="translate(19.428 36.51)">
              <path id="Path_1563" data-name="Path 1563" d="M876.942,1725.911c.118-.325-.6-.355-.23-.727.091-.09.29-.255.4-.114C877.324,1725.351,877.2,1725.647,876.942,1725.911Z" transform="translate(-876.604 -1725.016)" fill="#a6a5a5"/>
            </g>
            <g id="Group_1620" data-name="Group 1620" transform="translate(2.543 23.596)">
              <path id="Path_1564" data-name="Path 1564" d="M769.245,1643.167c-.078-.123-.237-.263-.214-.363.03-.133.226-.007.346-.044l-.018-.012a.207.207,0,0,0,.285.144l-.014-.015c.042.3.4.273.516.512-.355.088-.587-.262-.915-.236Z" transform="translate(-769.028 -1642.741)" fill="#fff"/>
            </g>
            <g id="Group_1621" data-name="Group 1621" transform="translate(19.138 37.976)">
              <path id="Path_1565" data-name="Path 1565" d="M874.894,1735.066c-.229-.32-.167-.523.127-.664.1-.048.25-.089.273.043C875.35,1734.764,875.073,1734.87,874.894,1735.066Z" transform="translate(-874.755 -1734.356)" fill="#a6a5a5"/>
            </g>
            <g id="Group_1622" data-name="Group 1622" transform="translate(1.346 16.305)">
              <path id="Path_1566" data-name="Path 1566" d="M761.549,1596.287c.163.27.411.507.345.924-.38-.174-.4-.513-.5-.8Z" transform="translate(-761.398 -1596.287)" fill="#fff"/>
            </g>
            <g id="Group_1623" data-name="Group 1623" transform="translate(1.208 16.09)">
              <path id="Path_1567" data-name="Path 1567" d="M760.655,1595.254c-.014-.113-.221-.211-.1-.3.15-.115.2.07.252.179Z" transform="translate(-760.517 -1594.914)" fill="#fff"/>
            </g>
            <g id="Group_1624" data-name="Group 1624" transform="translate(16.762 39.405)">
              <path id="Path_1568" data-name="Path 1568" d="M859.83,1743.577c-.042.092-.066.2-.192.218l-.009-.008a.346.346,0,0,1,.069-.321Z" transform="translate(-859.617 -1743.466)" fill="#a6a5a5"/>
            </g>
            <g id="Group_1625" data-name="Group 1625" transform="translate(16.139 41.154)">
              <path id="Path_1569" data-name="Path 1569" d="M855.772,1754.684c-.029.022-.075.07-.085.064-.07-.046-.033-.094.009-.139Q855.735,1754.645,855.772,1754.684Z" transform="translate(-855.648 -1754.609)" fill="#a6a5a5"/>
            </g>
            <g id="Group_1626" data-name="Group 1626" transform="translate(12.384 16.621)">
              <path id="Path_1570" data-name="Path 1570" d="M832.148,1598.888c.531-.374,1.1-.889,1.739-.363.662.545.531,1.329.3,2.07-.1-.445-.019-.911-.146-1.354a.783.783,0,0,0-1.234-.535.676.676,0,0,0-.38.521c-.013.3.272.248.436.3a1.636,1.636,0,0,1,.665.433.867.867,0,0,1-.446,1.549c-.564.133-.564.133-.656.447l.009-.009c-.607.015-.82-.235-.641-.847.077-.263.014-.567.089-.851a2.616,2.616,0,0,1,.058,1.428c.406-.113.7-.347,1.065-.415.63-.117.756-.66.29-1.113-.125-.121-.286-.289-.432-.291-.715-.009-.69-.5-.7-.986Z" transform="translate(-831.726 -1598.301)" fill="#414141"/>
            </g>
            <g id="Group_1627" data-name="Group 1627" transform="translate(12.958 20.273)">
              <path id="Path_1571" data-name="Path 1571" d="M835.5,1621.577a1.113,1.113,0,0,1,.3.045c.209.094.393.24.291.5a.331.331,0,0,1-.441.176c-.268-.083-.342-.252-.2-.5.043-.073.111-.135.055-.229Z" transform="translate(-835.382 -1621.568)" fill="#414141"/>
            </g>
            <g id="Group_1628" data-name="Group 1628" transform="translate(2.874 23.562)">
              <path id="Path_1572" data-name="Path 1572" d="M771.417,1642.707a.207.207,0,0,1-.284-.145C771.288,1642.49,771.4,1642.5,771.417,1642.707Z" transform="translate(-771.132 -1642.522)" fill="#414141"/>
            </g>
            <g id="Group_1629" data-name="Group 1629" transform="translate(43.181)">
              <path id="Path_1573" data-name="Path 1573" d="M1028.1,1492.4c.122.1-.007.135-.06.179-.019.016-.067,0-.1-.006.028-.088.07-.162.177-.163Z" transform="translate(-1027.944 -1492.402)" fill="#414141"/>
            </g>
          </g>
        </g>
      </g>
    </g>
    <g id="Group_1634" data-name="Group 1634" transform="translate(346.712 1413.597)">
      <path id="Path_1574" data-name="Path 1574" d="M442.095,1465.03c0,7.46,2.079,18.833-1.022,25.094-.9,1.818-5.737-.752-6.857.924a46.818,46.818,0,0,1-38.984,20.846c-14.938,0-36.647-9.437-45.229-20.324-6.287-7.975-1.635-15.6-1.635-26.539a46.863,46.863,0,0,1,93.726,0Z" transform="translate(-346.712 -1418.167)" fill="none"/>
    </g>
    <g id="Group_1635" data-name="Group 1635" transform="translate(427.127 1459.215)">
      <path id="Path_1575" data-name="Path 1575" d="M861.461,1709.43c-.349.212-.725.41-.19.835a.2.2,0,0,1-.049.333c-.411.241-.6.5-.157.9.049.042.065.219.037.236-.454.282-.46.866-.825,1.2-.077.071-.232.183-.221.2.419.753-.523,1.16-.462,1.821a.6.6,0,0,1-.147.346c-.073.1-.19.2-.326.108-.107-.075-.051-.2-.017-.3.422-1.278.855-2.552,1.263-3.834.2-.639.36-1.293.543-1.939.072-.257.171-.5.491-.526.181.2-.013.422.053.624Z" transform="translate(-859.058 -1708.815)" fill="#fff"/>
    </g>
    <g id="Group_1636" data-name="Group 1636" transform="translate(426.69 1460.79)">
      <path id="Path_1576" data-name="Path 1576" d="M856.278,1722.027a5.634,5.634,0,0,1,1.512-3.175c-.188.546-.124,1.188-.705,1.581-.221.15-.374.514-.257.694.386.6.007.794-.42,1.008Z" transform="translate(-856.278 -1718.852)" fill="#fff"/>
    </g>
    <g id="Group_1637" data-name="Group 1637" transform="translate(426.05 1464.279)">
      <path id="Path_1577" data-name="Path 1577" d="M852.779,1741.088a2.7,2.7,0,0,0,.056.707c.213.6.229.594-.327.66a.962.962,0,0,0-.237.1c-.024-.026-.049-.05-.075-.074a5.766,5.766,0,0,1,.574-1.4Z" transform="translate(-852.196 -1741.08)" fill="#fff"/>
    </g>
    <g id="Group_1638" data-name="Group 1638" transform="translate(429.282 1458.38)">
      <path id="Path_1578" data-name="Path 1578" d="M873.129,1703.493c.287.026.347.225.336.46-.006.137,0,.407-.172.324s-.534-.04-.5-.382C872.81,1703.712,872.869,1703.5,873.129,1703.493Z" transform="translate(-872.79 -1703.493)" fill="#fff"/>
    </g>
    <g id="Group_1639" data-name="Group 1639" transform="translate(429.409 1459.831)">
      <path id="Path_1579" data-name="Path 1579" d="M873.714,1712.746c.482.091.529.26.237.832-.415-.333-.415-.333-.229-.841Z" transform="translate(-873.602 -1712.737)" fill="#fff"/>
    </g>
    <g id="Group_1640" data-name="Group 1640" transform="translate(428.453 1463.383)">
      <path id="Path_1580" data-name="Path 1580" d="M868.054,1735.368c-.012.507-.509.738-.426,1.2C867.426,1735.672,867.426,1735.672,868.054,1735.368Z" transform="translate(-867.508 -1735.368)" fill="#fff"/>
    </g>
    <g id="Group_1641" data-name="Group 1641" transform="translate(429.22 1461.133)">
      <path id="Path_1581" data-name="Path 1581" d="M872.726,1721.91c.115-.318-.591-.348-.225-.711.089-.088.284-.249.389-.111C873.1,1721.362,872.981,1721.652,872.726,1721.91Z" transform="translate(-872.395 -1721.034)" fill="#fff"/>
    </g>
    <g id="Group_1642" data-name="Group 1642" transform="translate(428.936 1462.567)">
      <path id="Path_1582" data-name="Path 1582" d="M870.723,1730.866c-.224-.313-.163-.511.124-.649.1-.047.244-.088.267.042C871.17,1730.569,870.9,1730.673,870.723,1730.866Z" transform="translate(-870.587 -1730.171)" fill="#fff"/>
    </g>
    <g id="Group_1665" data-name="Group 1665" transform="translate(347.031 1412.746)">
      <g id="Group_1664" data-name="Group 1664" transform="translate(0 0)" clip-path="url(#clip-path-2)">
        <g id="Group_1663" data-name="Group 1663" transform="translate(2.528 23.005)">
          <g id="Group_1643" data-name="Group 1643" transform="translate(72.65 34.217)">
            <path id="Path_1583" data-name="Path 1583" d="M840.973,1782.458c-2.731-3.383-11.382-5.132-11.382-5.132l-.372,0-1.5,2.6,1.539,4.547s6.99,8.312,10.287,7.992c0,0,3.031.132,4.283-1.549a5.948,5.948,0,0,0,.929-3.95A6.981,6.981,0,0,0,840.973,1782.458Z" transform="translate(-827.719 -1777.326)" fill="#fff"/>
          </g>
          <g id="Group_1662" data-name="Group 1662">
            <g id="Group_1644" data-name="Group 1644" transform="translate(6.955 35.201)">
              <path id="Path_1584" data-name="Path 1584" d="M465.353,1822.485q-6.534.044-13.069.088-10.535.063-21.069.116c-.261,0-.523-.015-.784-.023a34.981,34.981,0,0,1-1.363-4.5,45.891,45.891,0,0,1-2.059-11.184,27.567,27.567,0,0,1,.031-2.985,10,10,0,0,0-.479-4.565,10.073,10.073,0,0,1-.259-1.182c-.046-.188.126-.55-.137-.537-.36.017-.235.405-.21.638.044.4.174.791.211,1.192.031.335.276.651.109,1.084a5.324,5.324,0,0,0-1.169-.947c-2.872-1.392-5.894-1.154-8.9-.789-2.029.247-4.049.573-6.085.767a1.067,1.067,0,0,1-.967-.317c.451,0,.783.011,1.113-.009,1.848-.112,4.518-2.949,5.154-5.068a.683.683,0,0,1,.24-.342,48.529,48.529,0,0,0,4.932-3.979,25.031,25.031,0,0,1,3.034-2.7c1.133-.74,2.328-1.4,3.414-2.186a6.8,6.8,0,0,1,4.79-1.432c.266.024.454.09.543.359a13.4,13.4,0,0,0,3.14,4.708,19.593,19.593,0,0,0,12.76,6.7,11.147,11.147,0,0,0,8.272-2.472,31.533,31.533,0,0,0,4.959-5,9.522,9.522,0,0,0,1.5-2.414c.514-1.279.506-1.282,1.741-.6.042.023.083.046.123.072,2.2,1.418,4.437,2.77,6.574,4.271,3.154,2.215,6.583,4.044,9.406,6.732a7.753,7.753,0,0,0,3.958,1.915,16.632,16.632,0,0,1-5.559.06c-2.233-.392-4.409-1.109-6.74-.991a2.429,2.429,0,0,0-2.582,2.016c-.1.682-.209,1.367-.37,2.037-1.429,5.968-2.658,11.975-3.6,18.041C465.783,1820.2,465.557,1821.341,465.353,1822.485Z" transform="translate(-409.156 -1783.594)" fill="#7a71b3"/>
            </g>
            <g id="Group_1645" data-name="Group 1645" transform="translate(32.375 0.301)">
              <path id="Path_1585" data-name="Path 1585" d="M595.681,1579.6a3.445,3.445,0,0,1,0,.694,1.239,1.239,0,0,0,.335,1.3,1.733,1.733,0,0,1-.278-.05c-2.2-.767-3.046-2.749-4.2-4.543.667-.053,1.264.365,1.867-.1-.3-.184-.568-.075-.815-.115-.7-.115-1.409-.115-1.914-.812a6.954,6.954,0,0,0-4.473-2.82c-.48-.092-1.006-.268-1.466.3a6.53,6.53,0,0,1,4.934,2.108,15.807,15.807,0,0,1,2.057,2.731c.944,1.543,1.917,3.086,3.835,3.677a2.558,2.558,0,0,1-1.963,1.157c.46.317.994.107,1.562.256a5.848,5.848,0,0,1-2.825.086,6.5,6.5,0,0,1-4.634-2.2c-.83-1.01-1.707-1.982-2.555-2.978a.835.835,0,0,0-.824-.42l2.025,2.418a19.671,19.671,0,0,1-4.62,2.58,14.774,14.774,0,0,1-6.937.79,10.836,10.836,0,0,1-3.677-1.242c.1-.12.046-.249.019-.375a17.524,17.524,0,0,0,6.96.665,3.924,3.924,0,0,0,2.236-.548,12.669,12.669,0,0,1-2.328.183,15.032,15.032,0,0,1-6.452-.571l.715-.02c.447-.039.894-.11,1.341-.111,2.929,0,5.256-1.379,7.39-3.206a2.026,2.026,0,0,0,.2-.149c.01-.009-.024-.1-.047-.106-.144-.026-.191.082-.234.189a8.656,8.656,0,0,0-2.048,1.266,10.473,10.473,0,0,1-5.793,1.672c-.234.007-.536.043-.5-.323a21.3,21.3,0,0,0-.338-2.956c-.016-.485.273-.845.3-1.295a15.064,15.064,0,0,1,1.853-6.513,9.792,9.792,0,0,1,8.68-5.183,14.459,14.459,0,0,1,5.642,1.016c.125.047.28.23.452-.018a1.4,1.4,0,0,0-.759-.466,17.829,17.829,0,0,0-6.151-1.032c-.251,0-.581.26-.726.012a1.031,1.031,0,0,1,.141-1.013c.252-.444.524-.867,1.082-.95a7.95,7.95,0,0,1,2.479-.149,10.59,10.59,0,0,0,1.216.064c0-.059,0-.118,0-.176a11.74,11.74,0,0,0-3.967-.075,4.806,4.806,0,0,1,2.308-.464c-.608-.407-1.225-.095-1.811-.215a7.092,7.092,0,0,1,4.842.208,2.455,2.455,0,0,1,1.663,2.191c-.259.052-.4-.274-.716-.041a1.275,1.275,0,0,1,.83,1.874c-.18.411-.021.534.333.651a5.471,5.471,0,0,1,1.974,1.1,9.986,9.986,0,0,1,3.054,5.352,27.811,27.811,0,0,1,.43,6.6c0,.1-.177.3.1.295C595.556,1579.8,595.618,1579.673,595.681,1579.6Zm-8.135-2.363c.021.046.02.146.1.046l-.1-.055-.11-.178a1.906,1.906,0,0,0-1.867-.928,8.671,8.671,0,0,1,1.809.989Zm-2.116-2.45a4.226,4.226,0,0,1,2.216,1.46,11.349,11.349,0,0,1,1.431,1.768,10.491,10.491,0,0,0,3.051,2.949,1.824,1.824,0,0,0,1.451.405,10.383,10.383,0,0,1-4.263-3.742,11.264,11.264,0,0,0-2.348-2.467A1.53,1.53,0,0,0,585.43,1574.79Zm2.146,4.2c.552,1.428,3.982,4.11,5.224,3.629A13.9,13.9,0,0,1,587.576,1578.992Zm-10.019-8.905a2.482,2.482,0,0,0-.575,3.023A6.256,6.256,0,0,1,577.557,1570.087Z" transform="translate(-571.119 -1561.24)" fill="#6d52a1"/>
            </g>
            <g id="Group_1646" data-name="Group 1646">
              <path id="Path_1586" data-name="Path 1586" d="M421.784,1577.985c-.063.069-.125.2-.189.2-.274,0-.1-.19-.1-.294a27.8,27.8,0,0,0-.43-6.6,9.986,9.986,0,0,0-3.053-5.352,5.466,5.466,0,0,0-1.974-1.1c-.354-.118-.513-.24-.333-.651a1.275,1.275,0,0,0-.83-1.874c.317-.233.456.093.716.041a2.455,2.455,0,0,0-1.663-2.191,7.091,7.091,0,0,0-4.842-.208c.585.12,1.2-.192,1.811.215a4.8,4.8,0,0,0-2.308.463,11.741,11.741,0,0,1,3.967.075q0,.088,0,.176a10.619,10.619,0,0,1-1.216-.064,7.961,7.961,0,0,0-2.479.149c-.558.083-.83.506-1.082.95a1.031,1.031,0,0,0-.141,1.013c.145.248.475-.011.726-.012a17.835,17.835,0,0,1,6.151,1.032,1.406,1.406,0,0,1,.759.466c-.172.248-.327.065-.452.019a14.459,14.459,0,0,0-5.642-1.016,9.792,9.792,0,0,0-8.68,5.183,15.064,15.064,0,0,0-1.853,6.513c-.025.449-.314.81-.3,1.295a21.313,21.313,0,0,1,.338,2.956c-.038.366.264.33.5.323a10.475,10.475,0,0,0,5.793-1.672,10.971,10.971,0,0,1,2.275-1.48c.027.02.055.09.08.113a10.553,10.553,0,0,1-7.621,3.373c-.447,0-.894.072-1.341.111a2.517,2.517,0,0,1-.13-.529,19.556,19.556,0,0,1-.008-4.877c.154-.69.217-1.4.321-2.1.008-.054.04-.14.019-.156-.07-.052-.089.019-.106.073a2.828,2.828,0,0,0-1.722,2.987,9.8,9.8,0,0,1,.005,1.927,5.719,5.719,0,0,1-.338,2.081c-.38-.525.161-1.015-.2-1.441-.83.809-.572,1.96-.914,3.1-.34-.84-.033-1.5-.11-2.147a2.377,2.377,0,0,0-.413,1.352c-.071,1.262.265,2.506.135,3.773-.079.771,0,1.71-.711,2.1a10.807,10.807,0,0,0-1.854,1.373,9,9,0,0,1-2.464,1.553c-4.085,1.684-8.177,3.351-12.253,5.056a42,42,0,0,0-4.3,1.9,40.954,40.954,0,0,0-5.181,3.773,9.267,9.267,0,0,0-2.407,2.777,4.189,4.189,0,0,0,2.207,6.071,15.017,15.017,0,0,0,3.025.8,4.3,4.3,0,0,0,3.567-.429,13.211,13.211,0,0,0,2.371-2.55,2.351,2.351,0,0,0,.624-1.082c-.457.208-.847.5-1.277.72-.551.276-.951.823-1.613.892l.018.01c.1-.233.324-.339.512-.474a71.368,71.368,0,0,0,8.212-6.465,23.9,23.9,0,0,1,2.5-2.229,61.812,61.812,0,0,1,7.108-4.34,19.781,19.781,0,0,0,4.286-2.783,6.157,6.157,0,0,1,2.245-1.479c1.089-.36,1.077-.4.932-1.573-.015-.118-.01-.238-.025-.356a42.22,42.22,0,0,1-.171-4.276c-.013-.53-.151-.894-.788-.95a4.939,4.939,0,0,1-1.942-.851c-.163-.093-.558-.19-.31-.564a10.836,10.836,0,0,0,3.677,1.242,14.775,14.775,0,0,0,6.937-.79,19.674,19.674,0,0,0,4.62-2.58l-2.025-2.418a.835.835,0,0,1,.825.42c.848,1,1.725,1.968,2.555,2.978a6.5,6.5,0,0,0,4.634,2.2,5.845,5.845,0,0,0,2.825-.086c-.569-.149-1.1.061-1.563-.255a2.559,2.559,0,0,0,1.963-1.157c-1.917-.592-2.891-2.135-3.835-3.678a15.812,15.812,0,0,0-2.057-2.73,6.529,6.529,0,0,0-4.934-2.108c.46-.568.986-.391,1.467-.3a6.954,6.954,0,0,1,4.473,2.819c.5.7,1.211.7,1.914.812.247.04.513-.069.816.115-.6.469-1.2.051-1.867.1,1.154,1.794,2,3.776,4.2,4.543a1.759,1.759,0,0,0,.278.05c.3.174.309.227.12.268a.993.993,0,0,0-.549.413c-.315.359-.544.686.123.9-.135-.018-.277-.055-.354.112.128.106.261.049.394.017a.584.584,0,0,1-.619.388c-.623.018-.746.427-.9.906-.617,1.881-.637,3.882-1.181,5.776-.032.113-.027.238-.062.35-.112.361-.394.759-.316,1.068.12.47.665.1.994.244a4.034,4.034,0,0,1,1.027.873,21.553,21.553,0,0,0,5.5,3.517,52.481,52.481,0,0,1,5.684,3.39c2.489,1.618,4.956,3.271,7.414,4.936a21.329,21.329,0,0,0,3.784,2.391,12.91,12.91,0,0,0,2.335.564c-.73.425-1.42.1-2.22.022,1.681,1.763,3.826,2.161,6.026,2.56a2.958,2.958,0,0,1-1.973.754c-3.21.527-6.288-.154-9.379-.866a8.2,8.2,0,0,0-3.882-.019.806.806,0,0,0-.639.586,95.243,95.243,0,0,0-2.534,10.5c-.784,4.42-1.328,8.883-2.368,13.257-.077.324-.1.631-.551.522.2-1.144.43-2.285.608-3.433.939-6.066,2.168-12.073,3.6-18.041.161-.67.265-1.355.37-2.037a2.429,2.429,0,0,1,2.582-2.016c2.332-.118,4.507.6,6.741.991a16.635,16.635,0,0,0,5.559-.061,7.753,7.753,0,0,1-3.958-1.915c-2.823-2.688-6.251-4.517-9.406-6.731-2.137-1.5-4.379-2.853-6.574-4.271-.04-.026-.082-.049-.123-.072-1.235-.682-1.227-.678-1.741.6a9.526,9.526,0,0,1-1.5,2.413,31.538,31.538,0,0,1-4.959,5,11.147,11.147,0,0,1-8.272,2.472,19.6,19.6,0,0,1-12.76-6.7,13.4,13.4,0,0,1-3.14-4.708c-.089-.269-.277-.335-.543-.359a6.8,6.8,0,0,0-4.79,1.432c-1.086.788-2.281,1.445-3.414,2.185a25.011,25.011,0,0,0-3.034,2.7,48.588,48.588,0,0,1-4.932,3.98.682.682,0,0,0-.24.342c-.636,2.12-3.306,4.956-5.154,5.068-.33.02-.662.006-1.113.009a1.069,1.069,0,0,0,.967.317c2.036-.194,4.056-.521,6.085-.767,3.005-.365,6.027-.6,8.9.789a5.326,5.326,0,0,1,1.169.947c.167-.433-.078-.749-.109-1.084-.037-.4-.167-.792-.211-1.192-.026-.233-.15-.621.21-.638.263-.013.091.349.137.537a10.062,10.062,0,0,0,.259,1.182,9.994,9.994,0,0,1,.479,4.564,27.572,27.572,0,0,0-.031,2.986,45.892,45.892,0,0,0,2.059,11.184,34.983,34.983,0,0,0,1.363,4.5c-.557.167-.572-.308-.667-.61-.93-2.945-1.845-5.89-2.491-8.92a33.742,33.742,0,0,1-.654-9.717,3.835,3.835,0,0,1,.033-.57c.317-1.354-.441-2.069-1.522-2.6a12.2,12.2,0,0,0-6.168-1.121c-2.854.153-5.651.79-8.5.956a3.19,3.19,0,0,1-2.451-.737,2.988,2.988,0,0,0-1.4-.667,5.671,5.671,0,0,1-2.865-1.357,4.757,4.757,0,0,1-.727-6.193c.956-1.6,2.486-2.533,3.812-3.7a28.169,28.169,0,0,1,8.516-4.67c3.952-1.573,7.87-3.233,11.816-4.821,1.611-.648,2.763-1.923,4.127-2.9a2.017,2.017,0,0,0,.6-1.558,19.207,19.207,0,0,0-.077-2.778,3.446,3.446,0,0,1,1.176-3.521,2.275,2.275,0,0,0,.749-2.083,3.5,3.5,0,0,1,1.835-3.776,1.923,1.923,0,0,0,.841-1.251,11.257,11.257,0,0,1,3.68-5.795,12.227,12.227,0,0,1,3.92-1.819c.363-.117.549-.266.572-.67.064-1.14.92-1.9,1.465-2.79.282-.463.919-.522,1.48-.578a14,14,0,0,1,2.743.2,3.349,3.349,0,0,1,2,.915,3.618,3.618,0,0,1,1.214,3.245.792.792,0,0,0,.572.977,8.224,8.224,0,0,1,4.19,4.649,11.482,11.482,0,0,1,.781,2.955,3.424,3.424,0,0,0,.576,1.508,4.027,4.027,0,0,1,.817,2.545,9.553,9.553,0,0,0,.787,4.073,11,11,0,0,1,.439,4.227c-.062.979-.041,1.786.984,2.315,1.286.664,2.5,1.467,3.769,2.163a60.667,60.667,0,0,0,10.49,4,85.08,85.08,0,0,1,8.231,2.988,7.968,7.968,0,0,1,1.6.935,46.821,46.821,0,0,1,4.427,3.566,4.395,4.395,0,0,1,.986,4.4,6.23,6.23,0,0,1-.624,1.811c-.944,1.525-2.507,1.751-4.082,1.941-.2.025-.493-.049-.451-.325.039-.256.316-.1.484-.125,1.407-.239,2.974-.319,3.667-1.807,1.141-2.446,1.155-5.064-1.728-6.824a7.247,7.247,0,0,1-1.292-1,13.989,13.989,0,0,0-5.078-2.949c-3.675-1.355-7.412-2.529-11.13-3.757a39.311,39.311,0,0,1-10.617-5.576,1.728,1.728,0,0,1-.633-.74c.241-.12.306.206.53.166a16.76,16.76,0,0,0-.015-3.376,3.974,3.974,0,0,0-.5-2.348,7.73,7.73,0,0,1,.212,2.287,15.008,15.008,0,0,1-.831-3.394c-.106-1.227.2-2.473-.17-3.686a3.156,3.156,0,0,0-.577-1.245C421.885,1575.433,421.834,1576.709,421.784,1577.985Zm-1.472,4.306c-.2,0-.314.005-.423,0-2.433-.071-4.724-.462-6.4-2.512-.73-.894-.792-.857-1.774-.18a15.444,15.444,0,0,1-10.77,2.881c-.358-.04-.461.025-.412.394.165,1.229.114,2.471.186,3.706a10.526,10.526,0,0,0,.816,3.526,21.573,21.573,0,0,0,1.392,2.489,10.6,10.6,0,0,0,4.484,4.351,4.144,4.144,0,0,0,4.068.079,19.794,19.794,0,0,0,4.179-3.074,10.976,10.976,0,0,0,3.184-5.458C419.35,1586.454,419.383,1584.308,420.311,1582.291Zm-25.031,12.215a10.574,10.574,0,0,0,1.91,3.347,33.613,33.613,0,0,0,3.492,3.567,18.65,18.65,0,0,0,10.528,4.456,10.7,10.7,0,0,0,7.548-2.29,33.873,33.873,0,0,0,5.316-5.442,6.529,6.529,0,0,0,1.415-2.775,10.2,10.2,0,0,1-7.914-3.034c.045-.033-.029,0-.066.051a15.913,15.913,0,0,1-5.219,4.67,4.458,4.458,0,0,1-3.847.736,10.332,10.332,0,0,1-5.635-4.675c-.233-.377-.3-.519-.733-.158a10.534,10.534,0,0,1-3.42,1.876c-.148.051-.3.163-.475.08C397.287,1594.492,396.309,1594.856,395.28,1594.506Zm-2.324-.375a17.976,17.976,0,0,1,3.327.21,6.515,6.515,0,0,0,5.515-1.673c.22-.175.577-.319.284-.726a9.027,9.027,0,0,1-1.2-2.488c-.069-.212-.137-.273-.344-.164a9.3,9.3,0,0,0-2.368,1.266A22.941,22.941,0,0,1,392.956,1594.131Zm32.636.823a23.169,23.169,0,0,1-5.729-3.983,1.037,1.037,0,0,0-1.66.34c-.308.607-.154,1.187.58,1.686A10.393,10.393,0,0,0,425.592,1594.954Zm-2.372-15.234-.029-.053c-.014.01-.04.027-.039.031a.692.692,0,0,0,.049.078Z" transform="translate(-364.846 -1559.321)" fill="#652d90"/>
            </g>
            <g id="Group_1647" data-name="Group 1647" transform="translate(58.459 20.776)">
              <path id="Path_1587" data-name="Path 1587" d="M737.519,1693.979a7.73,7.73,0,0,0-.212-2.288,3.974,3.974,0,0,1,.5,2.348Z" transform="translate(-737.307 -1691.691)" fill="#a6a5a5"/>
            </g>
            <g id="Group_1648" data-name="Group 1648" transform="translate(56.616 22.227)">
              <path id="Path_1588" data-name="Path 1588" d="M725.958,1701.081c-.133.032-.266.09-.394-.017.078-.167.219-.13.354-.112Z" transform="translate(-725.564 -1700.936)" fill="#a6a5a5"/>
            </g>
            <g id="Group_1649" data-name="Group 1649" transform="translate(0.335 13.222)">
              <path id="Path_1589" data-name="Path 1589" d="M399.02,1651.823c-.247.375.147.471.31.564a4.934,4.934,0,0,0,1.942.851c.637.056.775.42.788.95a42.22,42.22,0,0,0,.171,4.276c.015.118.01.238.025.356.145,1.176.157,1.212-.932,1.572a6.155,6.155,0,0,0-2.245,1.479,19.785,19.785,0,0,1-4.286,2.783,61.874,61.874,0,0,0-7.108,4.34,23.9,23.9,0,0,0-2.5,2.229,71.372,71.372,0,0,1-8.212,6.465c-.189.135-.412.241-.512.474-.115,0-.158.082-.188.176.037,0,.088.023.108.006.056-.047.193-.08.062-.191.662-.069,1.062-.616,1.613-.893.43-.216.82-.512,1.277-.72a2.348,2.348,0,0,1-.624,1.082,13.209,13.209,0,0,1-2.371,2.55,4.3,4.3,0,0,1-3.567.428,14.988,14.988,0,0,1-3.025-.8,4.189,4.189,0,0,1-2.207-6.071,9.265,9.265,0,0,1,2.407-2.777,40.978,40.978,0,0,1,5.181-3.773,42.016,42.016,0,0,1,4.3-1.9c4.076-1.705,8.168-3.372,12.253-5.056a9,9,0,0,0,2.464-1.553A10.765,10.765,0,0,1,396,1657.3c.713-.392.632-1.331.711-2.1.13-1.267-.206-2.511-.135-3.773a2.378,2.378,0,0,1,.413-1.352c.077.646-.23,1.307.111,2.147.342-1.138.084-2.289.914-3.1.361.426-.18.916.2,1.441a5.721,5.721,0,0,0,.338-2.081,9.79,9.79,0,0,0-.005-1.927,2.828,2.828,0,0,1,1.722-2.987,1.181,1.181,0,0,0,.087.083c-.1.7-.168,1.412-.322,2.1a19.552,19.552,0,0,0,.008,4.877,2.519,2.519,0,0,0,.13.529l-.716.021c-.122.115-.605-.322-.415.271C399.066,1651.575,399.117,1651.7,399.02,1651.823Z" transform="translate(-366.98 -1643.564)" fill="#fff"/>
            </g>
            <g id="Group_1650" data-name="Group 1650" transform="translate(46.686 13.766)">
              <path id="Path_1590" data-name="Path 1590" d="M662.3,1647.115a1.53,1.53,0,0,1,1.539.374,11.259,11.259,0,0,1,2.348,2.466,10.383,10.383,0,0,0,4.263,3.742,1.824,1.824,0,0,1-1.451-.406,10.494,10.494,0,0,1-3.051-2.948,11.331,11.331,0,0,0-1.431-1.768A4.228,4.228,0,0,0,662.3,1647.115Z" transform="translate(-662.298 -1647.031)" fill="#652d90"/>
            </g>
            <g id="Group_1651" data-name="Group 1651" transform="translate(32.35 20.786)">
              <path id="Path_1591" data-name="Path 1591" d="M571,1692.077c-.19-.593.293-.156.415-.271a15.032,15.032,0,0,0,6.452.571,12.66,12.66,0,0,0,2.329-.183,3.927,3.927,0,0,1-2.236.548A17.526,17.526,0,0,1,571,1692.077Z" transform="translate(-570.958 -1691.757)" fill="#652d90"/>
            </g>
            <g id="Group_1652" data-name="Group 1652" transform="translate(48.832 18.053)">
              <path id="Path_1592" data-name="Path 1592" d="M675.97,1674.344a13.9,13.9,0,0,0,5.225,3.629C679.952,1678.455,676.522,1675.772,675.97,1674.344Z" transform="translate(-675.97 -1674.344)" fill="#652d90"/>
            </g>
            <g id="Group_1653" data-name="Group 1653" transform="translate(37.941 9.148)">
              <path id="Path_1593" data-name="Path 1593" d="M607.452,1617.608a6.255,6.255,0,0,0-.575,3.023A2.482,2.482,0,0,1,607.452,1617.608Z" transform="translate(-606.579 -1617.608)" fill="#652d90"/>
            </g>
            <g id="Group_1654" data-name="Group 1654" transform="translate(46.834 15.184)">
              <path id="Path_1594" data-name="Path 1594" d="M665.051,1657.056a8.653,8.653,0,0,0-1.809-.99,1.9,1.9,0,0,1,1.866.928Z" transform="translate(-663.242 -1656.063)" fill="#652d90"/>
            </g>
            <g id="Group_1655" data-name="Group 1655" transform="translate(42.179 17.238)">
              <path id="Path_1595" data-name="Path 1595" d="M633.583,1669.346c.043-.108.09-.216.234-.19.023,0,.057.1.047.106a1.994,1.994,0,0,1-.2.149A.774.774,0,0,0,633.583,1669.346Z" transform="translate(-633.583 -1669.152)" fill="#414141"/>
            </g>
            <g id="Group_1656" data-name="Group 1656" transform="translate(48.643 16.115)">
              <path id="Path_1596" data-name="Path 1596" d="M674.924,1662.18l-.16-.125.058-.062.111.178Z" transform="translate(-674.764 -1661.993)" fill="#414141"/>
            </g>
            <g id="Group_1657" data-name="Group 1657" transform="translate(48.803 16.292)">
              <path id="Path_1597" data-name="Path 1597" d="M675.791,1663.123l.1.055c-.085.1-.083,0-.1-.045Z" transform="translate(-675.782 -1663.123)" fill="#414141"/>
            </g>
            <g id="Group_1658" data-name="Group 1658" transform="translate(35.674 19.78)">
              <path id="Path_1598" data-name="Path 1598" d="M611.928,1688.534c-.928,2.016-.961,4.162-1.471,6.2a10.975,10.975,0,0,1-3.184,5.458,19.789,19.789,0,0,1-4.179,3.075,4.144,4.144,0,0,1-4.068-.079,10.594,10.594,0,0,1-4.484-4.351,21.553,21.553,0,0,1-1.392-2.489,10.522,10.522,0,0,1-.816-3.526c-.072-1.235-.021-2.477-.186-3.706-.05-.369.054-.434.412-.394a15.445,15.445,0,0,0,10.77-2.881c.983-.677,1.044-.713,1.774.18,1.676,2.051,3.967,2.442,6.4,2.512C611.614,1688.539,611.724,1688.535,611.928,1688.534Z" transform="translate(-592.137 -1685.343)" fill="#fff"/>
            </g>
            <g id="Group_1659" data-name="Group 1659" transform="translate(30.434 33)">
              <path id="Path_1599" data-name="Path 1599" d="M558.749,1771.76c1.029.35,2.007-.014,2.9.408.175.083.328-.029.475-.08a10.535,10.535,0,0,0,3.42-1.876c.429-.361.5-.219.733.158a10.331,10.331,0,0,0,5.635,4.675,4.457,4.457,0,0,0,3.847-.736,15.913,15.913,0,0,0,5.219-4.67c.037-.054.111-.083.066-.051a10.2,10.2,0,0,0,7.914,3.034,6.529,6.529,0,0,1-1.415,2.775,33.876,33.876,0,0,1-5.316,5.442,10.7,10.7,0,0,1-7.548,2.29,18.649,18.649,0,0,1-10.528-4.456,33.584,33.584,0,0,1-3.492-3.567A10.57,10.57,0,0,1,558.749,1771.76Z" transform="translate(-558.749 -1769.575)" fill="#fff"/>
            </g>
            <g id="Group_1660" data-name="Group 1660" transform="translate(58.306 20.346)">
              <path id="Path_1600" data-name="Path 1600" d="M736.4,1689.005l-.019.055a.682.682,0,0,1-.049-.078s.026-.02.039-.031Z" transform="translate(-736.331 -1688.952)" fill="#a6a5a5"/>
            </g>
            <g id="Group_1661" data-name="Group 1661" transform="translate(33.622 13.132)">
              <path id="Path_1601" data-name="Path 1601" d="M579.061,1643.077c.017-.054.036-.125.106-.073.021.015-.012.1-.019.156C579.117,1643.134,579.088,1643.106,579.061,1643.077Z" transform="translate(-579.061 -1642.986)" fill="#fff"/>
            </g>
          </g>
        </g>
      </g>
    </g>
  </g>
</svg>
