<svg id="Layer_1" data-name="Layer 1" xmlns="http://www.w3.org/2000/svg" viewBox="0 0 375 812"><defs><style>.cls-1{fill:#4e008e;}.cls-2{fill:#8a72f7;}.cls-3{fill:#5822cc;}.cls-4{fill:#a693f0;}</style></defs><title>Home</title><rect class="cls-1" x="-21.84" y="-18.98" width="418.22" height="852.35"/><polygon class="cls-2" points="129.67 719.98 133.67 712.81 140.34 701.81 148.34 692.98 154.51 686.48 159.84 682.81 167.84 679.81 179.84 676.31 200.67 671.48 214.67 668.48 223.17 666.65 232.17 666.31 238.01 666.98 253.51 672.02 260.51 675.52 275.63 682.77 284.76 688.02 288.38 691.27 288.63 694.52 288.63 697.27 276.63 691.15 259.63 682.52 247.01 678.65 234.26 677.77 222.51 677.65 204.17 679.23 187.09 682.48 174.17 687.23 157.17 697.23 148.34 704.23 138.42 712.4 132.26 719.06 129.84 721.73 129.67 719.98"/><polygon class="cls-3" points="35.76 811.15 56.51 787.65 76.26 764.4 90.26 751.9 104.26 743.4 106.92 741.4 109.76 738.31 114.09 734.73 119.26 732.9 124.09 730.06 130.42 721.4 137.42 713.31 146.34 705.48 154.76 698.9 164.01 692.56 171.34 688.31 179.94 685.02 189.63 681.9 200.82 679.96 214.19 678.15 226.44 677.27 237.76 677.27 247.01 678.65 255.26 681.65 267.88 686.77 277.88 691.65 291.51 698.65 302.13 706.4 318.13 719.27 330.13 729.77 340.26 735.9 349.13 742.15 358.76 754.52 373.01 778.15 375.88 780.9 380.76 789.15 385.13 800.4 393.01 825.15 136.01 846.15 45.51 836.15 35.76 811.15"/><path class="cls-4" d="M68.63,484.56C62.91,494.19,57,504.11,55,515.28a40,40,0,0,0-.13,14.39c1.18,6.28,6.92,13.83,1.69,19.53-4,4.32-12.64,7.31-11.24,14.55.84,4.31,4,8.51,6.6,11.92,3.41,4.43,9.26,8.21,10.25,14,.14.79,1.34.45,1.21-.33-.68-3.92-3.15-6.41-5.84-9.15a52.52,52.52,0,0,1-9.32-12.54c-6.09-11.83,8-12.12,11.42-20.74,1.34-3.42-.09-7-1.32-10.22A37.75,37.75,0,0,1,55.76,519c1.23-12.37,7.73-23.31,13.95-33.78a.63.63,0,0,0-1.08-.63Z"/><path class="cls-4" d="M57,581.39c-5.38,15.06.1,30.2,3.53,45a88,88,0,0,1,2.2,14.07c.23,3.41.25,6.89,1.2,10.2,1.51,5.24,5.17,9.25,9.76,12A36.81,36.81,0,0,0,91,667.84c8.2.43,16.64-.75,23.87,4,11.28,7.36,18.11,21.93,21.88,34.42.23.76,1.44.44,1.2-.34-3.27-10.84-8.54-21.8-16.43-30.06A28.56,28.56,0,0,0,110,668.07c-7.18-2.34-14.94-.83-22.31-1.79-7.83-1-16.7-4.77-20.84-11.88-3.88-6.65-2.63-15.57-4-23-3-16.46-10.64-33-4.66-49.7.27-.76-.94-1.08-1.21-.33Z"/><path class="cls-4" d="M108.33,661.36c22.49-3.28,42.36-13.62,64-20,9.65-2.84,17.94-5,22.22-15,2.27-5.3,3.48-10.83,6-16.08,2.2-4.59,4.29-9,4.83-14.12.09-.8-1.16-.8-1.25,0-.66,6.28-3.93,11.59-6.42,17.26-1.78,4-2.58,8.39-4.32,12.44C188.11,638.06,175,639,163.81,642.77c-18.64,6.35-36.14,14.52-55.82,17.39-.79.12-.45,1.32.34,1.2Z"/><path class="cls-4" d="M60.86,514.14c6.64-3.24,12.42,2.69,10.68,9.3a54,54,0,0,1-3.72,9.13,65,65,0,0,1-9.65,15.06c-.53.6.35,1.49.88.88a63.39,63.39,0,0,0,8.77-13.14c2.06-4,4.63-8.76,5.31-13.25,1.16-7.61-6.32-12.27-12.9-9.06-.73.35-.09,1.43.63,1.08Z"/><path class="cls-4" d="M216.19,550c2.67,3.65-3.4,8.87-5.54,11.46a14.28,14.28,0,0,0-3.37,6.91c-.1.46.52.92.47,1.36-.62,5.51-1.08,1.73-2.59,2.24-.94.32-1.52-.1-2.49.46a3.85,3.85,0,0,0-1.59,4.77c4,9.34,26.79-8.88,21.57-18.27-.39-.7-1.47-.07-1.08.63,3.82,6.87-8.7,17.6-14.56,18.65q-4.56,1.38-1.94-2.33-.18-3.17,2-2.17c-.15.14,3-1.4,1.44-.36.9-.6.85-1.38,1-2.25,0-.14.24-6.17.05-3.64.22-3,.49-3.34,2.31-5.51,1.26-1.51,2.61-2.95,3.78-4.53,1.73-2.36,3.61-5.33,1.62-8-.47-.64-1.55,0-1.08.63Z"/><path class="cls-4" d="M194.92,582.54c-1.66,10,11.28,12.27,18.27,8.84,6.44-3.16,11.44-9.27,15.79-14.79a107,107,0,0,0,11.46-18c4.31-8.56,10-23.75-1.63-29.5-9-4.45-18.54,5.68-22.95,12.38-.44.68.64,1.3,1.08.63,3.95-6,12.14-15.09,20.28-12.34,13.07,4.43,5.53,21.77,1.37,29.71a104.72,104.72,0,0,1-16,22.65c-3.55,3.81-7.65,7.8-12.8,9.25-5.62,1.58-14.91-1-13.67-8.51.13-.79-1.07-1.13-1.2-.34Z"/><path class="cls-4" d="M231.82,536.63q7.38-.63,7.13,5a16.16,16.16,0,0,1-.57,4.79,33.85,33.85,0,0,1-3.23,7.65c-2.32,4.37-4.92,8.59-7.56,12.77-.43.68.65,1.31,1.08.63,4.71-7.46,12.81-17.67,11.42-27.16-.64-4.38-5.32-8.58-9.16-4.52-.55.58.33,1.47.89.88Z"/><path class="cls-4" d="M234.73,574.68c-2.75,7.21-1.63,15.54-.22,22.91C236.7,609,240.59,620,245,630.73c7.42,18.11,16.32,37.84,29.55,52.55.54.6,1.42-.29.89-.88-13.07-14.52-21.9-34.12-29.24-52a184.39,184.39,0,0,1-9.93-30.55C234.54,592,233,582.8,235.94,575c.29-.75-.92-1.08-1.21-.34Z"/><path class="cls-4" d="M127.93,725.3c3.84-8.07,7.77-16,13.35-23.1,4.81-6.08,10.79-13.81,17.5-17.83,7.27-4.36,17.15-6,25.26-8.18q13.4-3.53,27-6.18c9.08-1.78,18.45-4.11,27.67-2.08,8.26,1.82,15.71,6.06,23.31,9.6,4.54,2.13,9.15,4.09,13.67,6.27,5.44,2.63,13.51,5.46,12.56,13-.1.8,1.16.79,1.25,0,1.16-9.24-10.32-12.78-16.89-15.85C262,676,251.23,669.67,239.83,666.91c-13.57-3.29-29,1.64-42.21,4.66q-12.1,2.76-24,6.21c-6.16,1.79-12.94,3.25-18.06,7.33-12.9,10.27-21.72,24.93-28.68,39.56-.34.72.73,1.36,1.08.63Z"/><path class="cls-4" d="M106.53,742.67c7.53-2.32,15.24-3.94,22.77-6.27,8.61-2.67,17.11-5.23,26.25-4.66,9.52.58,19.09,3.16,28.32,5.46,8.32,2.07,17,4.5,24.46,8.8,4.68,2.69,7.64,7.84,12.81,9.69,3.53,1.27,7.57.51,11,2s5.33,5.09,8.42,7.32c6,4.33,13.94,4.91,20.3,8.69,6.77,4,12.27,9.82,17.49,15.63,8.05,9,19.1,14.49,27.25,23.27.55.6,1.43-.29.88-.88-7.42-8-17.65-13-25.14-20.9-5.12-5.44-9.89-11.14-15.95-15.6s-12.78-6-19.68-8.89c-6.74-2.78-9.43-9.83-17-10.71-4.6-.54-8.22-.85-11.8-4.06-2.21-2-4.12-4.2-6.62-5.85-6.43-4.23-14.46-6.61-21.82-8.62a236.12,236.12,0,0,0-26.93-6c-9.53-1.43-18.34-.27-27.51,2.47s-18.62,5-27.82,7.86c-.76.23-.44,1.44.33,1.2Z"/><path class="cls-4" d="M34.62,814.07C45.87,800.82,57,787.5,68.36,774.3A179,179,0,0,1,84,757.74c6-5.45,12.58-9.34,19.63-13.25a25.75,25.75,0,0,0,7.24-5.93,15.58,15.58,0,0,1,5.77-4.54c1.61-.68,3.44-.67,5-1.48a13.3,13.3,0,0,0,4.68-4.51,89.65,89.65,0,0,1,7.75-10.24,168.78,168.78,0,0,1,17.57-15.58c6.54-5.26,13.43-10.25,21.09-13.77,15.73-7.23,34.31-9.15,51.4-10.42,17.75-1.31,33.6,4,49.22,12,6,3.1,12.18,6.22,18,9.6,6.81,3.93,12.84,9,18.82,14.11,5.43,4.61,10.67,9.49,16.13,14,4.45,3.71,9.71,6.41,14.58,9.5a46.36,46.36,0,0,1,8.59,6.38c3.24,3.32,5.76,7.54,8.48,11.29,4.93,6.78,8.58,14,13.06,21,2,3.08,4.66,5.56,6.58,8.65A53,53,0,0,1,382.37,795c2.12,5.94,3.67,12.14,6.44,17.84.36.72,1.43.09,1.08-.63-5.33-11-6.6-23.19-14.59-32.79-5.15-6.19-8-13.84-12.71-20.35-4.16-5.77-8-12.73-13.37-17.45-4.46-3.9-9.81-6.75-14.82-9.87-6.36-4-11.46-9.06-17.19-13.84-5.35-4.45-10.57-9.07-16.12-13.28-5.8-4.4-12.11-7.6-18.45-11.09C269,686,254.7,678.72,239,676.92c-8.71-1-17.43,0-26.08,1.05a231.28,231.28,0,0,0-24.41,3.89c-15.84,3.69-28.75,11.95-41.11,22.26-6.19,5.15-12.53,10.34-17.55,16.69-2.1,2.66-3.71,6.4-6.21,8.66-3.09,2.8-7.23,2.54-10.45,4.91-3.77,2.75-5.93,6.67-10.18,9-3.57,2-7.2,3.75-10.59,6.06a109.33,109.33,0,0,0-18.81,17C59.84,781.54,47,797.58,33.74,813.19c-.52.61.36,1.5.88.88Z"/><path class="cls-4" d="M69.3,472.86c6.32-22.78,25-38.44,47.22-45a152.39,152.39,0,0,1,15.08-3.31c5.22-1,10.16-3,15.14-4.74s9.87-3.45,15-3.53c6.67-.11,13.53,1.35,20.08,2.49,12.23,2.14,24.45,4.43,36.64,6.76,11.81,2.26,22.32,7.93,32.16,14.66s18.74,14,25.89,23.74c5.19,7,11.21,14.84,13.84,23.28s3.57,17.59,4.17,26.42c.58,8.65.86,17.53-.33,26.13-.11.79,1.09,1.13,1.2.34,2.21-15.9,1-33.57-2.74-49.16-2-8.61-6.71-15.48-11.63-22.76a95.86,95.86,0,0,0-22.56-23.9c-9.41-7-19.4-13.72-30.57-17.59-13-4.5-27.54-5.82-41-8.27-10.91-2-22.63-5-33.59-2.05-5.49,1.46-10.7,3.76-16.11,5.45-5.78,1.81-11.83,2.4-17.69,3.91-24,6.18-44.65,22.29-51.45,46.79a.63.63,0,0,0,1.21.33Z"/><path class="cls-4" d="M67.3,475c-7.64-2.61-15,3-19.72,8.56-6.08,7.11-8.82,15.66-10.57,24.7-1.59,8.21-2.23,16.52.64,24.5,2.63,7.34,6.75,14.59,12.4,20,.58.56,1.47-.32.89-.88A45.25,45.25,0,0,1,37.6,512.13c1.15-7.53,2.9-15.23,6.75-21.87C48.58,483,57.5,473,67,476.23c.76.26,1.09-1,.33-1.21Z"/><path class="cls-4" d="M68.48,478.45c-3.38,1-6,2.25-8.22,5.09-2.57,3.36-4.69,7.13-7,10.68-.44.68.64,1.31,1.08.64,1.83-2.85,3.63-5.71,5.49-8.54a14.48,14.48,0,0,1,9-6.66.63.63,0,0,0-.33-1.21Z"/><path class="cls-4" d="M88.52,667.46c6.47,26.06-4.15,54.61-26.12,70.07-.66.46,0,1.54.63,1.08a68.39,68.39,0,0,0,26.69-71.49c-.19-.78-1.4-.45-1.2.34Z"/><path class="cls-4" d="M102.28,667.68c3,16.35,1.35,32.83-9.63,45.93C84.33,723.56,73,730.3,62.4,737.53c-.66.45,0,1.53.63,1.08,11.29-7.71,23.51-14.92,32-25.93,10.14-13.2,11.42-29.39,8.49-45.33-.15-.79-1.35-.45-1.21.33Z"/><path class="cls-4" d="M76.73,483.23c3-6.5,15.29-8.59,21.64-9.1,7.17-.57,14.63.87,20.67,4.91,11.31,7.56,14.26,21.87,17.15,34.24,2.36,10.08,5.28,21,13,28.46,8.43,8.14,20.54,9.36,31.66,10.28.8.07.79-1.18,0-1.25-15.74-1.31-30.36-4.47-37.76-20-5.57-11.7-6.19-25-11.16-36.89-4.57-11-13-19-25.08-20.75A42.17,42.17,0,0,0,88,475c-4.42,1.4-10.25,3.07-12.32,7.62-.34.73.74,1.37,1.07.64Z"/><path class="cls-4" d="M181.22,550.06c-13.28-6.71-19.4-20.56-23.85-34-2.11-6.32-4.11-12.65-6.51-18.87-1.08-2.8-1.89-5.52-4.54-7.25-.67-.45-1.28.62-.63,1.08,4.21,2.9,8.16,5.41,11.8,9,7.5,7.47,15.42,14.68,22.15,22.87,4.15,5.05,8.14,10.46,13.63,14.16,6.62,4.46,14.38,5.19,22.15,4.36.79-.09.8-1.34,0-1.25-8.92.95-17.36-.38-24.32-6.34-5.2-4.46-9.06-10.25-13.57-15.36-3.2-3.63-6.75-7-10.18-10.37-4.06-4.05-8-8.8-12.43-12.4-2.67-2.15-5.78-3.84-8.6-5.78l-.63,1.08c4.08,2.67,5.7,10.85,7.13,15.1,2.29,6.82,4.26,13.77,7.06,20.42,4.26,10.14,10.68,19.52,20.71,24.59.71.36,1.35-.72.63-1.08Z"/><path class="cls-4" d="M246.37,634.23c4.1,3.47,9.14-.13,10.22-4.79.89-3.81-.54-8.29-.48-12.2,0-2.9.5-6.31-.41-9.11-4-12.2-11.82-26.18-3.83-38.66.44-.68-.64-1.3-1.08-.63-6,9.37-3.16,21.8.33,31.57,1,2.83,2.7,5.59,3.55,8.45,1.06,3.6,0,8.09.16,11.81.06,1.53.31,3,.5,4.51.35,2.84-1.73,13.55-8.08,8.16-.61-.52-1.49.36-.88.89Z"/><path class="cls-4" d="M208.84,496.05A64.74,64.74,0,0,1,226,513.39c3.23,4.89,5,10.63,8.63,15.23.5.63,1.38-.26.88-.89-4.58-5.78-6.73-13.11-11.34-19A66.89,66.89,0,0,0,209.47,495c-.66-.46-1.28.62-.63,1.08Z"/><path class="cls-4" d="M244.75,541.47c4.67,5,8.73,10,14.88,13.27.71.38,1.34-.7.63-1.08-6-3.25-10-8.14-14.62-13.08-.55-.59-1.43.3-.89.89Z"/><path class="cls-4" d="M219.79,465.69c2.92,4,7.06,7.08,10.79,10.32,5.78,5,11.19,10.45,15.16,17.05,5.83,9.67,6.57,19.54,8,30.45,1.21,9.55,3.71,20.22,12.3,25.76.68.44,1.31-.64.63-1.08-11.69-7.54-11-23.31-12.69-35.44a54.15,54.15,0,0,0-8.35-22.25A73.92,73.92,0,0,0,232.49,476c-3.94-3.47-8.52-6.66-11.62-11-.47-.65-1.55,0-1.08.63Z"/><path class="cls-4" d="M280,572.11c2,7.34.7,14.37-.41,21.75-.75,5-.34,10.76-2.71,15.3a32.68,32.68,0,0,1-6.07,7.91,59.73,59.73,0,0,1-5.07,3.93c-3.29,2.58-6.68,3.63-9.83,0-.53-.61-1.41.28-.88.88,2.78,3.18,6.58,4.31,9.91,1.64,3.84-3.08,7.41-5.76,10.4-9.79,3.89-5.25,4.26-9.74,5-16.09,1-8.77,3.3-17.12.89-25.89a.63.63,0,0,0-1.21.33Z"/><path class="cls-4" d="M255.05,631.32a51.05,51.05,0,0,0,19.85,7.76,14.71,14.71,0,0,0,7-.27c3.77-1.24,7.56-2.57,11.34-3.85a55.15,55.15,0,0,0,26.55-19.87c7.07-9.55,11.72-20.63,16.39-31.47,2.52-5.85,5.09-12.22,3.56-18.68-1.4-5.9-5.78-10.51-9.77-14.82-4.37-4.72-8.46-10.89-14.69-13.33s-14.23-.47-19.87,2.83a.63.63,0,0,0,.63,1.08,25.48,25.48,0,0,1,13.75-3.63c5.41.2,9.11,3,12.82,6.69,4.65,4.61,10.09,10.19,13.46,15.78,5.25,8.73,1.71,17.27-2,25.78-2.37,5.47-4.75,10.93-7.49,16.23-5.78,11.17-13.33,21.6-24.4,28-5.86,3.4-12.2,4.79-18.48,7-5.44,1.94-9.58,1.33-15-.29a49.08,49.08,0,0,1-13.05-6.06c-.67-.45-1.3.64-.63,1.08Z"/></svg>