<svg id="Layer_1" data-name="Layer 1" xmlns="http://www.w3.org/2000/svg" viewBox="0 0 375 375"><defs><style>.cls-1{fill:#efefef;}.cls-2{fill:#5822cc;}.cls-3{fill:#a693f0;}.cls-4{fill:#471188;}.cls-5{fill:#4e008e;}.cls-6{fill:#8a72f7;}</style></defs><title>Home</title><rect class="cls-1" x="-6.89" y="-5.82" width="392.21" height="386.63"/><polygon class="cls-2" points="327.41 349.89 327.73 348.63 328.86 348.96 330.63 353.3 331.62 357.83 333.91 369.18 335.07 374.41 332.14 374.41 329.37 368.02 326.38 360.55 320.9 351.99 318.35 348.67 318.77 348.09 321.15 349.37 323.2 350.39 325.25 350.61 326.46 350.65 327.41 349.89"/><polygon class="cls-3" points="212.02 374.88 212.41 372.59 212.85 367.67 214.33 355.45 214.88 350.06 215.27 343.83 216.39 339.8 219.45 336.49 222.28 329.06 225.14 318.53 229.23 302.54 232.2 295.86 234.65 292.24 238.99 289.89 245.83 287.68 249.66 287.2 255.83 286.48 261.33 286.22 265.4 286.19 268.6 287.08 272.88 289.46 278.73 294.23 284.63 300.22 288.95 304.82 295.65 311.13 298.44 313.24 300.12 315.95 303.48 324.8 304.41 329.32 305.87 333.26 309.01 336.94 313.27 342.08 320.06 351.38 324.58 357.15 332.81 375.43 212.02 374.88"/><polygon class="cls-3" points="335.38 375.8 334.07 369.93 331.22 356.39 329.44 350.97 327.89 347.96 326.6 344.68 323.57 339.28 318.8 328.32 316.7 316.78 314.44 305.85 312.84 301.17 310.62 298.13 305.63 293.65 301.77 287.59 300.93 283.09 301.64 282.46 307.35 288.38 315.48 299.55 319.72 305.94 322.11 309.86 322.96 313.61 324.09 319.76 324.66 327.42 325.58 331.94 327.61 336.72 333.64 348.32 336.75 353.38 337.96 356.88 339.24 359.63 340.06 364.93 339.33 370.47 339.07 374.72 335.38 375.8"/><path class="cls-4" d="M212.55,373.8c.65-7,1.71-13.9,2.42-20.86.33-3.17.15-6.59.68-9.72.35-2.07,1.6-3.18,2.84-4.71,1.07-1.32,1-1.93,1.8-3.72,4.66-11,6.19-22.83,9.92-34.13,1.36-4.12,2.95-7.28,7-9.45,5-2.66,10.89-3.51,16.41-4.13s11.6-1.55,16.84,1.3c4.24,2.3,7.85,5.8,11.19,9.23,3.07,3.14,5.95,6.45,9.07,9.52,2.6,2.57,6.61,4.77,8.53,7.81,3.07,4.84,3.56,11.51,5.62,16.82a11.73,11.73,0,0,0,3.12,4.67c3.46,3.4,6,7.52,9.08,11.27a82.61,82.61,0,0,1,13.66,24c.16.45.88.26.72-.2a79.92,79.92,0,0,0-11.37-21.26c-2.41-3.16-4.88-6.28-7.31-9.43s-5.72-5.46-7.18-9.21c-2.11-5.45-2.6-12.38-5.85-17.31-1.63-2.46-4.57-3.94-6.72-5.94-3.81-3.55-7.2-7.51-10.83-11.23a56.07,56.07,0,0,0-10-8.53c-4.37-2.75-8.57-3.08-13.64-2.69-7.7.6-17.55,1.12-24,6-4.66,3.54-5.87,10.87-7.23,16.16-1.85,7.18-3.23,14.56-5.64,21.58a34.54,34.54,0,0,1-5.65,10.32c-1.7,2.18-1.14,4.47-1.32,7.2-.58,8.94-2.11,17.78-2.94,26.7-.05.48.7.48.75,0Z"/><path class="cls-4" d="M316.75,347.3c2.26,1.68,6.16,4.28,9.2,3.8,4.33-.68,1.93-4.85.55-7.38-3.43-6.31-6.73-11.93-8.05-19-1.14-6.14-1.92-12.38-3.51-18.43-1.42-5.4-3.27-7.47-7.35-11.2-1-.93-8.6-10.9-5.87-12,1-.41,9.26,11,10,11.93,4.21,5.58,9.86,11.89,10.92,19,.76,5.06,1.05,10.2,1.92,15.25a17.48,17.48,0,0,0,2.14,5.51c2.25,4.46,3.49,9.06,6.27,13.26,2.51,3.8,4.76,6.86,5.65,11.38.76,3.87,1.42,8.36.5,12.26-.11.47.61.67.72.2,1.45-6.17.09-14.68-3.31-20-4.93-7.74-10.47-16.47-11.67-25.75-.66-5.14-.41-11.4-2.35-16.27-2.12-5.34-6.71-10.64-10.15-15.19a110.76,110.76,0,0,0-11.16-13.1.38.38,0,0,0-.64.26,20.33,20.33,0,0,0,3.07,9.84c2.15,3.35,5.91,5.1,8.1,8.29,3.57,5.17,4,13.31,5,19.33s1.92,11.62,4.78,17.08c1.24,2.37,2.62,4.65,3.9,7,1,1.84,2.74,3.52,1.62,5.64-.78,1.47-1,1.59-2.68,1.32-2.34-.37-5.33-2.21-7.24-3.63-.39-.29-.76.36-.38.65Z"/><path class="cls-4" d="M328.05,348.81c1.95,3,2.58,7.31,3.4,10.71a93.31,93.31,0,0,1,2.24,11.13c.06.47.81.48.75,0a94.65,94.65,0,0,0-2.27-11.33c-.84-3.5-1.46-7.82-3.48-10.88-.26-.41-.91,0-.64.37Z"/><path class="cls-4" d="M280.13,201.12c4.14,5.34,5.94,1.47,10.82-.39s10.34-1.82,14.65-5.33c5.47-4.46,9.76-10.2,14.82-15.09,2.86-2.77,7.35-5.1,9.65-8.23,1.42-1.92,1.19-3,.46-5.18-2.11-6.3-6.16-14.46-11.49-18.67-2.73-2.15-5.59-2.19-8.84-2.82-4.36-.86-8.29-3.06-12.55-4.26-13-3.64-28-4.72-40.51,1-6.93,3.15-12.53,9.32-17.3,15.08a90.06,90.06,0,0,0-6.5,8.81c-1.28,2-3.32,4.3-3.7,6.75-.08.47.64.67.72.2.39-2.5,2.62-5,4-7.09a91.66,91.66,0,0,1,8.05-10.48c5-5.69,10.64-11.14,17.89-13.73a55.85,55.85,0,0,1,24.26-2.47c7.93.87,15,3.66,22.47,6.16,5,1.68,9.76,1.08,13.64,5.43,2.89,3.24,5.08,7.49,7,11.37,2.44,5,4.06,6.43-.63,11.4-1.19,1.26-2.84,2.29-4.15,3.45a115.6,115.6,0,0,0-8.43,8.43c-4.52,4.9-8.89,10.59-15.54,12.47-2.91.82-6.18,1.11-8.94,2.37-3.65,1.68-5.63,5-9.26.28-.3-.38-.82.16-.53.53Z"/><path class="cls-4" d="M301.19,282.83c-6.94-6.51-9.1-14.23-6.64-23.41.64-2.4,1.39-6.13,2.87-8.09,2.45-3.25,5.39-2.27,8.73-1.87,2.65.33,5.3.48,8,.79,5,.58,11.34,1.86,13.86-4.07.61-1.43.2-2.74.3-4.21a6,6,0,0,1,1.84-5.54,5.11,5.11,0,0,0,.92-.94,7.43,7.43,0,0,0,.3-1.4c0,.81-1-3.57-1.12-2.32.12-1.31,1.48-2,1.95-3.36.16-.48-.56-1-.54-1.45.25-5.64-.78-4.33,2.46-6.1,4.15-2.27,4.93-4.73,2-8.66s-6.64-6.65-7-12.21c-.33-4.85,1.32-9,2.33-13.54,1.14-5.16-.71-12.28-4.77-15.76-.37-.31-.9.22-.53.53,11.42,9.8-3.15,24.89,4.69,36,1.45,2.05,4.68,4.18,5.51,6.54.71,2-.93,5.2-2.58,6.44-1,.73-2.29.94-3.17,1.83a3.74,3.74,0,0,0-1.36,2.4c-.13,2,3.51,4.49-.34,6.29a.37.37,0,0,0-.07.59l.82,4.58-1,.78c-.18.41-.59.73-.78,1.13a6.43,6.43,0,0,0-.39,2.75c0,3.3-.12,7-3.54,8.75-2.75,1.44-5.75.67-8.62.32-3.7-.45-7.43-.84-11.13-1.24-2.15-.24-4.54-.37-6.28,1.18-2.17,1.93-3,6.16-3.77,8.8a28.56,28.56,0,0,0-1.42,9.7c.4,6.24,3.57,11.12,8,15.29.35.33.89-.2.53-.53Z"/><polygon class="cls-2" points="290.02 362.05 288.82 357.24 285.09 347.37 281.75 337.91 275.11 319.61 271.6 311.15 269.68 305.97 269.59 303.01 269.68 302.86 267.52 298.73 264.75 296.09 260.63 294.42 258.03 294.23 258.36 292.48 260.84 284.96 259.49 284.35 257.34 283.45 254.41 278.37 251.53 274.87 251.48 275.01 249.51 278.01 249.08 285.63 249.14 288.93 245.87 285.08 240.23 280.42 230.49 272.6 221.75 264.75 216.21 258.95 209.44 252.23 206.67 250 205.87 250.14 199.47 259.21 198.52 261.24 198.52 263.02 200.47 265.8 200.94 267.01 196.54 269.9 193.97 271.36 192.16 273.11 191.56 276.08 191.69 281.43 192.14 284.13 194.27 286.92 196.97 291.24 200.67 297.71 206.14 311.05 209.82 322.26 215.45 337.49 219.2 347.4 222.38 362.54 224.2 374.96 292.24 374.36 292.24 373.27 291.24 367.24 290.02 362.05"/><polygon class="cls-5" points="165.7 290.96 166.06 290.47 167.35 291.09 169.56 292.11 174.78 294.52 181.49 299.33 186.36 303.34 190.05 309.18 193.53 318.37 195.69 325.92 198.28 336.21 199.82 337.33 202.12 337.72 203.84 336.68 202.73 333.52 202.12 326.78 202.12 326.78 201.38 312.96 201.21 306.22 199.91 300.2 197.38 297.06 194.22 292.05 192.38 287.12 191.92 284.71 192.56 284.3 195.89 288.97 197.5 291.7 200.25 296.65 202.46 301.38 210.8 325.07 217.22 342.64 220.05 350.42 221.85 359.37 224.2 374.61 192.46 374.61 191.92 372.8 187.42 352.97 183.14 335.72 179.13 321.18 174.35 307.29 172.17 301.3 170.39 297.88 166.88 294.26 164.94 292.8 165.7 290.96"/><polygon class="cls-3" points="191.92 376.8 191.61 372.31 186.66 349.69 182.74 333.94 176.9 314.26 173.35 304.88 171.14 299.36 168.12 294.74 164.56 292.51 165.84 288.71 167.52 283.36 167.76 280.8 167.14 280.32 165.27 279.77 163.83 277.1 161.54 273.66 159.11 270.95 158.52 271.33 157.27 274.67 156.52 279.2 157.93 284.85 158.33 285.48 157.46 285.61 155.85 283.6 152.05 279.7 145.81 274.86 135.82 266.4 128.86 260.28 122.36 253.79 118.78 250.8 116.9 250.22 114.97 251.2 112.61 255.88 110.91 262.71 109.82 269.78 109.82 278.38 110.05 280.76 111.32 283.18 116.47 288.38 121.66 295.49 127.27 303.5 131.24 309.86 132.08 313.61 133.51 325.29 134.35 330.81 137.42 337.21 139.7 342.47 143.19 349.63 147.22 355.79 149.19 363.88 148.2 374.72 191.92 376.8"/><polygon class="cls-3" points="136.53 349.89 136.85 348.63 137.98 348.96 139.75 353.3 140.75 357.83 143.03 369.18 144.19 374.41 141.26 374.41 138.5 368.02 135.5 360.55 130.02 351.99 127.47 348.67 127.89 348.09 130.28 349.37 132.33 350.39 134.37 350.61 135.58 350.65 136.53 349.89"/><polygon class="cls-2" points="21.15 374.88 21.53 372.59 21.97 367.67 23.45 355.45 24 350.06 24.39 343.83 25.52 339.8 28.57 336.49 31.4 329.06 34.27 318.53 38.35 302.54 41.32 295.86 43.78 292.24 48.12 289.89 54.95 287.68 58.78 287.2 64.95 286.48 70.45 286.22 74.53 286.19 77.72 287.08 82.01 289.46 87.86 294.23 93.76 300.22 98.07 304.82 104.78 311.13 107.56 313.24 109.25 315.95 112.61 324.8 113.53 329.32 114.99 333.26 118.14 336.94 122.39 342.08 129.18 351.38 133.71 357.15 141.93 375.43 21.15 374.88"/><polygon class="cls-2" points="144.5 375.8 143.19 369.93 140.34 356.39 138.57 350.97 137.01 347.96 135.72 344.68 132.7 339.28 127.92 328.32 125.83 316.78 123.57 305.85 121.96 301.17 119.74 298.13 114.75 293.65 110.89 287.59 110.05 283.09 110.77 282.46 116.47 288.38 124.6 299.55 128.84 305.94 131.24 309.86 132.08 313.61 133.22 319.76 133.78 327.42 134.71 331.94 136.74 336.72 142.76 348.32 145.88 353.38 147.08 356.88 148.37 359.63 149.19 364.93 148.46 370.47 148.2 374.72 144.5 375.8"/><path class="cls-4" d="M223.71,162.73a34.77,34.77,0,0,1,8.53,22.94c-.05,6.56-.89,12.08,2.18,18.18,1.45,2.88,3.76,5.22,5.28,8,1.92,2.08,2.08,4.66.51,7.74q-1.12.56-2.28,1a8.83,8.83,0,0,0-2.25,1.19c-3.4,3.14,2.82,8.14-2.67,10.71a.37.37,0,0,0,0,.64c1.92,1.35.4,3.86-.82,4.75-.07.06-.44-.45-.52-.37s-.53-.06-.66.13c-.85,1.16-.79,2.37-.69,3.85.17,2.33.39,2.91-.36,5.53-1.28,4.47-4.43,5.72-9.23,5.52s-8.94-2.9-13.58-3.28c-12.1-1-14.3,15.27-15.3,24-.73,6.37-1.11,12.67,1.44,18.76,1.41,3.37,4.58,5.25,6.31,8.36,2.05,3.66,1.11,9.12,1.45,13.25.41,5.09.68,10.19,1,15.25.1,1.66.39,3.4.39,5.05,0,2.07,2.21,2.31-2.28.4-3.12-1.32-3.06-2.07-3.78-4.92-.51-2-.94-4.07-1.39-6.11-1.44-6.52-2.9-13.52-7.37-18.72-5.94-6.9-13.19-10.36-21.09-14.37-.43-.21-.81.43-.38.65,6.87,3.49,13,6.39,18.65,11.89,5.13,5,7.23,11.07,8.83,17.92.7,3,3.43,23.07,10.49,16.25a.38.38,0,0,0,.06-.45c-2-4.16-1-8.73-1.52-13.08-.36-3.09-.61-6.16-.81-9.29-.24-3.61.4-7.77-.39-11.23-.71-3.17-3.16-5.15-5.14-7.52-6.73-8.06-4.53-22-2-31.24,1-3.64,2-8.61,4.75-11.37,5-5.08,12.05-1.38,17.8-.07,5.23,1.19,13.58.82,14.73-6a11.29,11.29,0,0,0-.26-3.28c-.13-1.3-1-2.93,0-4,3.11-3.31-1.06,1.34.95-.42.77-.67,1.4-.45,2-1.85.78-1.75-.35-2.73-.11-4,.18-1,2.19-1.6,2.54-3s-.2-1.07-.29-2.36c-.18-2.21-1.11-4.72,1.21-6.22.5-.32,1.39-.56,1.9-.82,1.85-.94,3.1-1.94,3.09-4.15,0-3.79-4.2-7.3-6.07-10.33-3.83-6.21-4-11.78-3.72-18.81a35.82,35.82,0,0,0-8.68-25.23c-.31-.37-.84.16-.53.53Z"/><path class="cls-4" d="M188.37,194.33c6.72-2.81,10.44-7.77,13.56-14.15,2.38-4.89,4.83-9,9.43-12.14a49.43,49.43,0,0,1,13.95-6.34.38.38,0,0,0,.26-.46c-1.21-4.74-6.7-8.37-10.46-11.13-5.36-4-11.47-6-18-7.19a104.88,104.88,0,0,0-19.64-2.16c-6.51.07-12.37,2.07-18.22,4.79-.44.2-.06.85.38.65,5.44-2.53,10.84-4.48,16.91-4.66A94.24,94.24,0,0,1,192.73,143c11.32,1.63,20,5.44,28.44,13.27,1.3,1.21,1.83,1.46,2,3.43.2,2.5-.09,1.88-2.19,2.67a50.21,50.21,0,0,0-4.88,2.11c-3.58,1.79-7.24,4-9.9,7-2.5,2.86-3.93,6.42-5.6,9.78-2.8,5.6-6.54,9.9-12.42,12.36-.44.18-.24.91.2.72Z"/><path class="cls-4" d="M21.67,373.8c.65-7,1.71-13.9,2.43-20.86.33-3.17.15-6.59.67-9.72.35-2.07,1.61-3.18,2.84-4.71,1.07-1.32,1-1.93,1.8-3.72,4.67-11,6.19-22.83,9.92-34.13,1.36-4.12,3-7.28,7-9.45,5-2.66,10.9-3.51,16.42-4.13,5.67-.64,11.6-1.55,16.83,1.3,4.24,2.3,7.85,5.8,11.2,9.23,3.06,3.14,5.94,6.45,9.06,9.52,2.6,2.57,6.61,4.77,8.54,7.81,3.06,4.84,3.55,11.51,5.61,16.82a11.73,11.73,0,0,0,3.12,4.67c3.47,3.4,6,7.52,9.08,11.27a82.16,82.16,0,0,1,13.66,24c.16.45.89.26.73-.2a80.21,80.21,0,0,0-11.37-21.26c-2.41-3.16-4.89-6.28-7.32-9.43s-5.72-5.46-7.17-9.21c-2.12-5.45-2.6-12.38-5.86-17.31-1.63-2.46-4.56-3.94-6.71-5.94-3.82-3.55-7.2-7.51-10.84-11.23a56.07,56.07,0,0,0-10-8.53c-4.37-2.75-8.56-3.08-13.63-2.69-7.7.6-17.56,1.12-24,6-4.65,3.54-5.86,10.87-7.22,16.16-1.85,7.18-3.24,14.56-5.65,21.58a34.32,34.32,0,0,1-5.65,10.32c-1.69,2.18-1.14,4.47-1.32,7.2-.58,8.94-2.11,17.78-2.94,26.7,0,.48.71.48.75,0Z"/><path class="cls-4" d="M125.88,347.3c2.25,1.68,6.16,4.28,9.2,3.8,4.33-.68,1.92-4.85.55-7.38-3.44-6.31-6.74-11.93-8-19-1.15-6.14-1.92-12.38-3.51-18.43-1.42-5.4-3.28-7.47-7.36-11.2-1-.93-8.6-10.9-5.87-12,1-.41,9.26,11,10,11.93,4.21,5.58,9.86,11.89,10.93,19,.76,5.06,1,10.2,1.91,15.25a17.48,17.48,0,0,0,2.14,5.51c2.26,4.46,3.5,9.06,6.27,13.26,2.51,3.8,4.76,6.86,5.65,11.38.77,3.87,1.42,8.36.51,12.26-.11.47.61.67.72.2,1.45-6.17.08-14.68-3.32-20-4.93-7.74-10.46-16.47-11.66-25.75-.67-5.14-.42-11.4-2.36-16.27-2.12-5.34-6.7-10.64-10.14-15.19a112.68,112.68,0,0,0-11.16-13.1.38.38,0,0,0-.64.26,20.33,20.33,0,0,0,3.07,9.84c2.15,3.35,5.9,5.1,8.1,8.29,3.56,5.17,4,13.31,5,19.33s1.93,11.62,4.79,17.08c1.23,2.37,2.62,4.65,3.89,7,1,1.84,2.75,3.52,1.62,5.64-.78,1.47-1,1.59-2.67,1.32-2.34-.37-5.34-2.21-7.24-3.63-.39-.29-.77.36-.38.65Z"/><path class="cls-4" d="M137.17,348.81c2,3,2.58,7.31,3.4,10.71a93.34,93.34,0,0,1,2.25,11.13c.05.47.8.48.75,0a94.68,94.68,0,0,0-2.28-11.33c-.84-3.5-1.46-7.82-3.47-10.88-.27-.41-.92,0-.65.37Z"/><path class="cls-4" d="M59.54,287.49c-4.62,6.5-.32,15.26,1.1,22.12,1.26,6.13,1.26,12.64,1.86,18.87,1.44,14.86,2.44,30.9,6.69,45.28a.38.38,0,0,0,.73-.2c-4.17-14.08-5.09-29.65-6.58-44.22-.58-5.64-.91-11.32-1.57-17-.92-7.74-6.64-17.4-1.58-24.51.28-.4-.37-.77-.65-.38Z"/><path class="cls-4" d="M46.79,290.79a37,37,0,0,0,13.83-21.47c1.84-9.54,3.16-19.71.1-29.11-.15-.45-.87-.26-.72.2,2.88,8.83,1.69,17.94.2,26.92-1.41,8.51-6.67,17.74-13.79,22.81-.39.28,0,.93.38.65Z"/><path class="cls-4" d="M88.89,201.27c-1.36-5-10.66-8.35-15.08-6-5,2.68-7.56,10.9-4.3,15.6,2.48,3.58,6.15,6.68,9.28,9.69,2.19,2.11,5.37,6.4,8.58,6.95,3.41.59,7.52-4,5.09-7-.3-.38-.83.16-.53.53q1.32,6.34-6.55,4.6L84,224.41a40.45,40.45,0,0,1-4-3.72c-2.63-2.5-5.29-5.05-7.69-7.78-2.67-3-4.28-5.15-3.13-9.59.72-2.77,3.33-7.32,6.25-7.88,3.66-.71,11.58,1.75,12.76,6a.37.37,0,0,0,.72-.2Z"/><path class="cls-4" d="M82.32,209.36c3.06-2.11,4.06-4.25,2.56-7.78-1.35-3.16-4.12-5.73-7.72-4.22-3.29,1.39-5.23,5.74-5.23,9.13,0,4.79,3.83,8.18,7.2,11,.36.31.9-.21.53-.53-3.89-3.28-8.09-7.22-6.65-12.86a12,12,0,0,1,1.39-3.23l1.3-1.65,4.74-1.47c1.51.43,3.29,2.69,3.75,4.19a6,6,0,0,1-2.25,6.74c-.39.28,0,.93.38.65Z"/><path class="cls-4" d="M86.9,209.36c-1.39-.06-2.85-.48-3.76.72a21.75,21.75,0,0,0-1.41,2.5,5.34,5.34,0,0,0-.93,1.88c-.13,2.66,5.22,3.89,7.08,4.06,1.21.11,5.3-.19,3.21-2.15a7.54,7.54,0,0,0-1.82-1c-1.88-.95-1.45-2.07-1.23-3.83.14-1.15.06-2.16-1.09-2.66-.44-.19-.82.45-.38.65,1.67.73-.16,3.86.7,5.28a3,3,0,0,0,1.2,1c.59.33,2.76.72,1.61,1.83-.67.65-3.28-.06-4-.25a10.05,10.05,0,0,1-3.14-1.39c-1.71-1.17-.75-2.92.15-4.33.35-.55.84-1.46,1.48-1.68a9.28,9.28,0,0,1,2.35.06c.48,0,.48-.73,0-.75Z"/><path class="cls-4" d="M88.56,201.55c2.67,3.36,4.66,3.46,8.14,1.11,4.36-2.94,9.5-2.93,14.27-4.91,5.12-2.11,9.29-7.19,13-11.15,2.26-2.41,4.48-4.88,6.82-7.21,2.53-2.51,6.26-4.61,8.43-7.35,2.73-3.43-1-8.67-2.67-11.86-2.47-4.76-5.58-11.09-10.78-13.44-2.52-1.14-5.37-.91-8-1.61-3.31-.88-6.39-2.56-9.66-3.58a72.11,72.11,0,0,0-16.58-3.24c-10.26-.66-22.25.63-30.66,7.09-9.65,7.4-16.85,17.68-23.06,28C31.87,183.28,34,196.47,36,207.24a106.13,106.13,0,0,0,5.61,20.12,43.54,43.54,0,0,1,2.55,7.71c1,5.15-1.35,7.9-4.31,11.76-1.26,1.65-1.87,4.66-3.25,6s-4.05.89-5.68,2.39c-3.71,3.39-4.35,11.9-4.47,16.6-.12,5.05,1.26,10.21,5.75,13.06,6,3.82,13.55,2.12,20,.56.47-.11.27-.83-.2-.72-8.86,2.14-21.57,3.82-24.35-7.82-.92-3.87-.32-8,.46-11.85,1.11-5.45,2.83-10.56,9.34-11a.38.38,0,0,0,.37-.38c.24-5.43,5.08-7.66,6.87-12.24a12,12,0,0,0,.07-7.16,77.92,77.92,0,0,0-3.62-10.1,90.16,90.16,0,0,1-3.86-14.28c-2-9.7-4.19-21.6-.9-31.21C39,170.9,44.76,163.42,50,157.17s11.44-12.63,19.38-15.47a54.86,54.86,0,0,1,26.79-2.12,97.57,97.57,0,0,1,11.06,2.48c4,1.2,7.8,3.25,11.93,4.15,3.63.79,6.79.82,9.61,3.56a30.19,30.19,0,0,1,4.45,6c1.27,2.08,2.45,4.22,3.51,6.41.67,1.36,2,3.4,2.2,4.91.4,2.81-.93,4.52-2.84,6.51-3.51,3.67-7.48,6.91-11,10.65-3.7,4-7.46,8.41-12,11.42-3.71,2.45-8.11,2.74-12.28,4s-7.73,6.35-11.74,1.3c-.3-.38-.83.15-.53.53Z"/><path class="cls-4" d="M60.46,240.67c4.51-.79,3.78-4.31,3.42-8.39-.71-8.17-2.55-17.77,5.26-23.31.4-.27,0-.92-.37-.64a15.21,15.21,0,0,0-6.26,11C62,223.69,66,239,60.26,240c-.47.08-.27.81.2.72Z"/><path class="cls-4" d="M110.43,281.78a54.08,54.08,0,0,1,.65-18.06c1-5.11,2.39-14.09,9-13.86,3.3.11,6.8.78,10.09,1.12,5.18.54,11.14,2.38,14.57-2.94a4.93,4.93,0,0,0,.93-2.4,13.19,13.19,0,0,0-.05-2.81,6,6,0,0,1,1.84-5.53c.86-1.82,1.17-1.38.85-3.56-.45-3.15-1,.71-.44-2.14-.77,3.62,2.75-5.41,1.62-2.23.18-.48-.48-1-.46-1.47.17-3.78-.81-4.06,1.32-5.66,3.22-2.42,6.74-3.3,3.92-8-2.24-3.72-6.15-6-7.42-10.36-1.37-4.77.21-10.11.24-15,.05-7-1.74-13.71-7.37-18.23-.37-.3-.91.23-.53.53,6.58,5.28,7.54,13.42,7,21.36-.39,5.5-1.4,10.78,2,15.55,1.54,2.16,4.83,4.39,5.69,6.87,2,5.93-3.55,5.43-6,7.93a3.41,3.41,0,0,0-1.26,3c.21,1.78,3.54,3.86-.4,5.69a.37.37,0,0,0-.07.59c2.71,2.86-1.24,6.12-1.34,9.25-.11,3.44.08,6.78-3.54,8.75-2.94,1.59-5.52.69-8.52.33-3.32-.4-6.65-.6-10-1-2.1-.29-4.45-.8-6.46.24-4.77,2.48-5.8,12.57-6.46,17.19a52.7,52.7,0,0,0-.12,14.89c.06.47.81.48.75,0Z"/><path class="cls-4" d="M160.11,286.85c-4.34-4.2-3.78-10.93-1-15.91,1.64-2.94,4.8-4.32,5.53-7.68.34-1.57-.09-3.36.27-4.86,1-4,3.05-3.63,6.46-3.17a37.36,37.36,0,0,0,10.56.07c6.25-.9,7.56-3.13,7.76-9.5,0-1.23-.22-2.07-.23-3.21a9.2,9.2,0,0,1,.79-4.16,6.89,6.89,0,0,0,.21-4.59c-.19-.85-.78-.69-.71-1.13s1.47-1.5,1.6-1.93c.26-.84,0-1.06,0-1.79-.08-1.4-1.93-2.87-1.34-4.45s2.88-1.53,4.17-2,1.89-.37,2.59-1.61c2.41-4.23-3.62-8.91-5.37-11.66-.82-1.29-1.84-2.46-2.66-3.75a13.62,13.62,0,0,1-1-1.67c-1.19-2.71.16-2.92.57-5.39a10,10,0,0,0,.05-2.62c-.81-8.1-3.36-19.49-10.49-24.27-.4-.27-.78.38-.38.65,5.62,3.76,7.71,11.59,9,17.85.33,1.54.65,3.11.9,4.66.36,2.31.05,2.77-.61,4.81a6.31,6.31,0,0,0-.46,2.42c.17,2.76,2.65,5,4.07,7.18,1.62,2.48,6.21,7.06,5.88,9.92-.45,3.88-4.78,1.67-6.53,4.09-1.95,2.7,2.36,7.7-1.48,9.45-.32.14-.19.59.09.68,4.57,1.48-.11,4.6-.17,6.89-.13,4.85,2.75,10.62-3,13.73-4.09,2.21-11,.88-15.33.3-1.49-.2-3.6-.79-4.88.37-1.8,1.62-.48,4.67-.85,6.7-.8,4.35-4.7,6.89-6.32,10.79-2.2,5.26-2.56,11.14,1.77,15.34.35.33.88-.2.53-.54Z"/><path class="cls-4" d="M120.3,146c2.25-1,4.83-3.08,7.2-3.47,1.11-.18,2,.51,3.08,0a.39.39,0,0,0,.18-.33l1.15.42a.38.38,0,0,0,.48-.36l2.71-.66a.38.38,0,0,0,.65,0l3.17-.4a.38.38,0,0,0,.46.06c.67-.88,1.33-.78,2,.32a.38.38,0,0,0,.51.14c2.41-1.76,5.34.84,7.6,1.88.49.22,6.19,2.76,4.6,1.61a.37.37,0,0,0,.38,0c2.27-1.74,2.34.4,4.64,1.06,1.88.53,3.63.38,5.5,1.31a30.45,30.45,0,0,1,6.82,5.19c1.58,1.44,3.86,2.37,5.25,3.91,1.07,1.19,1.88,2.7,3,3.93,4.93,5.63,9.23,11.21,4.4,18.7-.26.41.39.78.65.38a12.49,12.49,0,0,0,1.61-11.26c-1.59-4.42-5.67-7.42-8.33-11.15-2.42-3.38-5.51-5-8.79-7.62-1.6-1.28-4.31-3.46-6.23-4.1s-5.38,1.06-6-2.54a.37.37,0,0,0-.55-.22c-3.4,2.61-9.6-1.45-12.68-3a.37.37,0,0,0-.38,0c-.7.94-1.42.88-2.15-.18a.38.38,0,0,0-.52-.13c-1.2.87-2.54.27-4,.28-.55,0-.93.62-1.4.6-1.29,0-.6-1.11-2.2-.61-1.3.41-1,2.17-2.56,1.56a.38.38,0,0,0-.48.36c0,.34-3.42.26-3.58.31-2.09.66-4.45,2.49-6.52,3.43-.44.2-.06.84.38.65Z"/><path class="cls-4" d="M176.56,171c1.12,2.53,1.32,1.55-.43,1.07a43.83,43.83,0,0,0-5.23-1.5,36.41,36.41,0,0,0-11.83-.06.38.38,0,0,0-.23.55l-.23.66a.42.42,0,0,0-.28.37c.06,4.16-.8,8-1.47,12.11-.52,3.16-.78,9.5-3.23,11.61-3.57,3.07-7.48,4-7,9.67,0,.48.79.48.75,0-.33-3.86,2-6.56,5.25-8.36,1.39-.78,3-.94,3.92-2.32.74-1.12.41-1.81.57-3.09.39-3.19.41-6,.71-9,.26-2.64,1-5.25,1.24-7.93a5.93,5.93,0,0,1,.51-2.75c1-1.62,3-1.2,5.16-1.2,4.6,0,9.73.52,13.34,3.61a.38.38,0,0,0,.59-.46l-1.46-3.31c-.2-.44-.84-.06-.65.38Z"/><path class="cls-4" d="M117.12,250c7.44,5.54,14.18,12.65,20.95,19,6.05,5.66,14.68,9.59,18.92,16.91,1.62,2.81.59,2.47-1.88,2.3a73.33,73.33,0,0,0-8.38-.38c-2.24.1-4.38.54-6.59.78-4,.43-5.59-.62-8.68-3.13-7.73-6.28-14.31-13.77-20.68-21.38-.31-.37-.84.16-.53.53,6.37,7.61,13,15.1,20.68,21.38,2.11,1.71,4.07,3.92,6.69,4,3.22,0,6.7-1.33,10-1.43a47.5,47.5,0,0,1,11,1.1.38.38,0,0,0,.46-.47c-2.76-8.86-11.77-13-18.35-18.68-7.9-6.82-14.93-14.89-23.29-21.12-.39-.29-.76.36-.38.65Z"/><path class="cls-4" d="M158.64,286.49a4.09,4.09,0,0,0,1.58,2.47c1.53,1.51,3.31,2.91,4.79,4.59.23.27.62,0,.64-.26a31.09,31.09,0,0,1,1.09-6.58c.36-1.27,1.89-3.9,1.89-4.88,0-1.58.55-.46-.39-1.69-.07-.1-.2-.05-.26-.11a5.15,5.15,0,0,1-2.67-.81l-.66-1.39c-2-2.54-3.25-5.12-5.62-7.47a.38.38,0,0,0-.53.53,28.8,28.8,0,0,1,4.76,6c.42.71,1.18,3.08,2,3.57,1.49.94,2.56-.92,2.1,2.45a21.87,21.87,0,0,1-1.1,2.92c-.4,1.28-.42,3.36-1,4.5-.75,1.4.86,1.73-1.2.7-1-.51-4.64-4.75-4.63-4.7-.09-.47-.82-.27-.72.2Z"/><path class="cls-4" d="M165.17,293.65c5.18,2.12,7.83,11.09,9.58,15.73a257.9,257.9,0,0,1,7.9,25.67c3.38,12.85,6.12,25.83,8.91,38.81.1.47.82.28.72-.2-3.09-14.4-6.14-28.79-10-43A198.33,198.33,0,0,0,173.81,305c-1.71-4-4-10.27-8.44-12.08-.44-.19-.64.54-.2.72Z"/><path class="cls-4" d="M269.82,176.25c6,4.05,8.06,12.73,9.37,19.47.56,2.88.88,5.07,0,7.8a4.84,4.84,0,0,0,.51,4.79c1.76,2.93,4.68,5,6.52,7.93,1.09,1.71,2.26,3.19,3.46,4.8,2.47,3.29,2,4.89-1.78,6.25-1.83.65-3.93,1.05-4.56,3.29-.35,1.23.13-.1-.05,1.39-.12,1.08.46,2.35-.32,3.44-.37.51-3.9,2-3.9,2a.38.38,0,0,0-.37-.37,1,1,0,0,0-.57.19.38.38,0,0,0-.14.51h.12a.41.41,0,0,0-.37.28l-.06.29a.37.37,0,0,0,.36.47c3.51.27.11,3.55-.14,5.42-.21,1.54,1.88,3.23,1.92,4.6.12,4.23-4.06,8-7.81,9-3.2.78-13.47-2.12-15.35,1.7-.21.43.44.81.65.38,1.47-3,11.18-.71,13.88-1.13,3.59-.57,8.16-3.54,9.27-7.21.54-1.77-.11-2.62-.52-4.35-.58-2.47-.27-2.76.48-5a12.63,12.63,0,0,0,.5-1.2,3.23,3.23,0,0,0-.29-2.36c-1.1-1.18-1.63-.08-2.23-.07a.36.36,0,0,0,.36-.28c.2-.86-.4-.15-.43-.7a.39.39,0,0,0,.27.36c2.58.39,4.77-.72,5.48-3.2a12.85,12.85,0,0,0,.16-2.54c.27-3.23,2.08-3.07,5.34-4.26,2.28-.83,3.13-2.32,2.59-5.11-.39-2-2.77-3-3.88-4.48s-1.77-3.11-2.93-4.54c-1.6-2-3.72-3.65-5-5.84-1.45-2.44,0-3.4.4-5.84s-.49-4.89-.93-7.16c-1.32-6.75-3.55-15.27-9.6-19.33-.41-.27-.78.38-.38.65Z"/><path class="cls-4" d="M252.46,290.89c-3.21-3.11-3.71-7.26-2.65-11.46s2.81-5.88,5.46-8.92c2.8-3.21,1.34-6.76,2.06-10.73.09-.47-.64-.68-.72-.2a30.16,30.16,0,0,0-.06,3.81,14.91,14.91,0,0,1-2.75,7.28c-1.63,2.41-3.28,4.11-4.24,7-1.64,4.91-1.51,10,2.37,13.73.35.34.88-.19.53-.53Z"/><path class="cls-4" d="M213.76,149.48c2.28-1,4.6-2.43,6.94-2.86.85-.16,1.4.29,2.23-.13a.38.38,0,0,0,.19-.32l1.15.42a.37.37,0,0,0,.47-.36l2.72-.66a.38.38,0,0,0,.65,0l3.16-.4a.38.38,0,0,0,.46.06c.67-.89,1.33-.78,2,.32a.38.38,0,0,0,.52.13c2.41-1.75,5.33.85,7.59,1.88.5.23,6.19,2.76,4.61,1.62a.35.35,0,0,0,.37,0c2.27-1.74,2.34.4,4.65,1.06,1.88.53,3.62.38,5.49,1.3a30.8,30.8,0,0,1,6.82,5.2c1.59,1.43,3.87,2.37,5.25,3.9,1.07,1.2,1.88,2.71,3,3.94,4.92,5.62,9.22,11.2,4.39,18.7-.26.4.39.78.65.37a12.49,12.49,0,0,0,1.62-11.25c-1.6-4.42-5.67-7.42-8.34-11.15-2.42-3.38-5.5-5-8.78-7.62-1.6-1.29-4.32-3.46-6.24-4.1s-5.38,1.06-6-2.54a.38.38,0,0,0-.55-.22c-3.41,2.6-9.6-1.45-12.68-3.06a.42.42,0,0,0-.38,0c-.7.95-1.42.89-2.16-.17a.38.38,0,0,0-.51-.14c-1.2.87-2.54.28-4,.29-.56,0-.94.61-1.4.6-1.3,0-.61-1.11-2.21-.61-1.3.41-1,2.17-2.56,1.56a.38.38,0,0,0-.47.36c0-1.44-9.74,3.57-9,3.23-.44.2-.06.85.38.65Z"/><path class="cls-4" d="M268.91,175.06c1.12,2.53,1.32,1.55-.42,1.06a46,46,0,0,0-5.24-1.5,36.69,36.69,0,0,0-11.83-.05.38.38,0,0,0-.22.55l-.24.66a.37.37,0,0,0-.27.36c.06,4.17-.81,8.06-1.47,12.12-.52,3.15-.78,9.5-3.23,11.6-3.58,3.07-7.49,4-7,9.68,0,.47.79.48.75,0-.33-3.86,2-6.56,5.26-8.37,1.39-.77,3-.93,3.92-2.31.74-1.13.4-1.81.56-3.1.39-3.18.41-5.95.71-9,.26-2.64,1-5.25,1.25-7.93a6,6,0,0,1,.5-2.76c1-1.61,3.06-1.2,5.17-1.19,4.59,0,9.72.52,13.34,3.61A.38.38,0,0,0,271,178l-1.47-3.31c-.19-.44-.84-.06-.65.38Z"/><path class="cls-4" d="M206.07,250c6.27,4.74,11,10.94,16.73,16.24a179.51,179.51,0,0,0,13.69,11.86c2.78,2.09,5.67,4.06,8.25,6.41a24.19,24.19,0,0,1,3.92,4.35c1,1.44,2.42,2.57.75,3.69.13-.09-3.92-.55-3.8-.53a47.58,47.58,0,0,0-5.6-.21c-3.27.08-7.46,1.59-10.62,1.1s-6.51-4.33-8.83-6.5-4.51-4.36-6.67-6.63c-4.43-4.64-8.66-9.47-12.8-14.37-.51-.61-2.44-2.21-2.54-2.89s-.06-.19.27-1.22c.44-1.36,1.91-2.82,2.73-4l5-7.43c.27-.4-.38-.77-.65-.38l-8.44,12.43a.39.39,0,0,0,.06.46c7.11,8.51,14.35,17,22.47,24.57,2,1.91,6,6.74,8.94,7.3a15.31,15.31,0,0,0,2.81-.68,42.86,42.86,0,0,1,6.37-.91,47.66,47.66,0,0,1,12.88,1,.37.37,0,0,0,.46-.46c-2.82-9.07-12.2-13.26-18.86-19.13-4.79-4.22-9.64-8.47-14-13.11-3.88-4.11-7.64-8.18-12.16-11.6C206.07,249.09,205.69,249.74,206.07,250Z"/><path class="cls-4" d="M250.85,274.93a28.92,28.92,0,0,1,4.77,6c.41.71,1.17,3.08,1.95,3.56,1.49.94,2.56-.91,2.11,2.46a23.34,23.34,0,0,1-1.1,2.92c-.41,1.27-.43,3.36-1,4.5-.75,1.4.86,1.73-1.19.69-1-.5-4.64-4.74-4.63-4.69-.1-.47-.82-.27-.73.2a4.06,4.06,0,0,0,1.59,2.46c1.52,1.52,3.3,2.92,4.78,4.6a.38.38,0,0,0,.64-.26,31.74,31.74,0,0,1,1.09-6.58c.37-1.27,1.89-3.9,1.9-4.88,0-1.58.54-.46-.4-1.7-.07-.09-.2,0-.26-.11a5.14,5.14,0,0,1-2.67-.8l-.66-1.4c-2-2.53-3.24-5.11-5.62-7.47-.34-.34-.87.19-.53.54Z"/><path class="cls-4" d="M257.53,297.69c5.2,2.13,7.89,11.12,9.67,15.77A255.24,255.24,0,0,1,275,338.58c3.38,12.68,6.14,25.49,8.9,38.32.1.47.82.27.72-.2-3.06-14.24-6.14-28.45-10-42.49a197.24,197.24,0,0,0-8.36-25.12c-1.73-4-4.06-10.3-8.51-12.13-.45-.18-.64.55-.2.73Z"/><path class="cls-4" d="M191.42,283.86c10.93,12.89,15.4,31.05,20.88,46.69,2.22,6.32,5.39,12.54,7.13,19a162,162,0,0,1,3.68,20.53c.06.48.79.28.72-.2-1-7-1.87-14.21-3.81-21-2-7.14-5.45-14-7.9-21.08-5.19-14.94-9.74-32.12-20.17-44.42-.31-.37-.84.16-.53.53Z"/><path class="cls-4" d="M192.49,274.09c.87-1.93,3.46-3.34,5.12-4.48,1.31-.89,2.64-1.76,4-2.57a.38.38,0,0,0-.38-.65c-1.59.95-3.14,2-4.66,3s-3.9,2.46-4.73,4.29c-.2.44.45.82.65.38Z"/><path class="cls-4" d="M258.36,294.27c4.86.25,9.89,3.67,10.85,8.77-.18-1,0,2.37.09,3,1.34,5.56,4.2,11.05,6.24,16.38,3.6,9.39,7.12,18.81,10.29,28.36,2.55,7.69,5.58,15.89,6.06,24.05,0,.48.78.48.75,0-.79-13.35-6.87-27-11.42-39.42-.64-1.75-12.18-31.83-11.53-32a.39.39,0,0,0,.26-.46,12.41,12.41,0,0,0-11.59-9.39c-.49,0-.49.72,0,.75Z"/><path class="cls-6" d="M85.88,220.36a1.67,1.67,0,0,1,1.28-.37,2.13,2.13,0,0,1,2.13,2.63,1.93,1.93,0,0,1-.28.88,1.53,1.53,0,0,1-1,.6,3,3,0,0,1-1.34-.1,1.85,1.85,0,0,1-.67-.27,1,1,0,0,1-.32-.41,4.46,4.46,0,0,1-.49-2,1.2,1.2,0,0,1,.14-.64,1,1,0,0,1,.69-.44"/><path class="cls-5" d="M86.15,220.63a1.87,1.87,0,0,1,2.14.13,1.94,1.94,0,0,1,.44,2.42,1.71,1.71,0,0,1-2.44.17c-.6-.5-1.21-2.44-.15-2.74a.37.37,0,0,0-.2-.72c-1.51.43-1.2,2.21-.69,3.34a2.58,2.58,0,0,0,3.69.87,2.68,2.68,0,0,0,.18-3.59,2.64,2.64,0,0,0-3.5-.41c-.36.32.17.85.53.53Z"/><polygon class="cls-5" points="30.25 257.24 31.9 254.89 33.89 254.43 35.62 253.78 37.43 252.74 38.52 249.93 40.1 247.1 42.42 244.29 43.84 241.09 44.65 238.3 44.49 234.81 42.22 227.91 38.39 216.44 35.64 204.3 35.03 198.11 34.26 191.01 34.78 183.76 36 178.57 37.16 175.27 39.47 171.47 41.8 167.83 46.53 160.9 50.46 156.05 54.44 151.26 59.03 147.09 63.66 143.93 66.52 142.45 70.41 140.68 75.95 139.34 82.6 138.57 86.98 138.26 94.62 138.97 103.68 140.76 109.84 142.51 117.24 145.37 120.75 146.04 125.83 147.18 128.5 149 134.16 156.62 138.67 164.18 139.44 168.43 137.81 172.75 131.03 178.63 123.27 186.81 117.9 192.19 112.98 196.3 103.66 199.39 97.49 201.63 94.36 203.97 90.74 203.38 88.43 200.75 85.21 197.26 80.6 195.31 75.66 194.98 72.64 196.59 70.53 199.36 68.95 202.34 68.32 206.66 68.46 208.97 64.74 213.27 63.84 215.31 62.84 219.74 62.9 226.37 63.61 233.51 63.11 238.3 60.36 240.68 61.81 246.25 62.18 250.8 61.7 259.44 60.71 266.54 59.13 273.59 56.03 279.41 52.79 284.93 50.41 285.44 44.34 286.6 38.32 286.6 33.88 285.32 30.19 282.72 27.64 278.35 26.81 273.55 26.81 268.05 28.39 261.97 30.25 257.24"/><path class="cls-5" d="M119.79,147.11a22.16,22.16,0,0,1,1.37-2l5.45-2.63,3.51-.56,2.29-.5,8.05-1,3.51.25,3.62,1.4,4.17,1.66h4.76l2,1.56,2.73.3,4.73-2.52,7.55-1.78,10-.22,13.69,2.17,10.52,3,4.77,2.47.45.5.63.31.91-1,7.3-2.6,4.85-.92,7-.41L238,145l6.7,3.18L249,148l2.49,1.84,5.36,1,4.05,2.79,7.25,5.92,5.61,6.47,4.18,5.72,1,3.49-.79,5.47L276.11,184l-.65-2.18-1.83-2.66-2.82-2.67-.86,0,.07,1.07-2.29-1.38-7.82-1.73h-4.09l-3.54.5-1.22,1.18-.68,7-1.3,10.52-1.2,4.5L246.59,200l-2.19,1.56-3.28,2.48-1.53,2.3-.32,1.93-.33,1.95-2.44-4.06-2.25-4.5-1.75-4.53-.27-4.6.39-6.87-.13-3.5L231.22,177l-3.39-8.46-2.35-4.23-2-2.62-4.08,1.67L215,165.43l-3.92,2.62-3.35,2.37-2.06,3.19-1.3,1.75-2.73,4.58-1.76,3.53-3.2,4.64-3.35,3.08-3.43,2.09-2.25.69-.85-5.46-1.89-5.65-1.25-3.15-2.48-4.42-2.82-2.94-.62,0,.09,1.26-2.18-1.37-2.82-1-5.65-.9h-5.24l-2,.32-1.23,1.37v2.19l-1,6.06-.3,5.92-.53,3.77-.84,3.31-.75,2.22-2.95,1.31-3,2.17-2,2.94-1.13,2.36-.22-3.69-.16-4.68.81-5.44,0-4.82-.58-4-1.59-4.59L142,173.32l-4.18-3.6L128,164.55Z"/><polygon class="cls-5" points="329.54 164.18 325.04 156.62 319.37 149 316.7 147.18 311.63 146.04 308.12 145.37 300.72 142.51 294.55 140.76 285.5 138.97 277.86 138.26 273.48 138.57 266.82 139.34 261.28 140.68 257.39 142.45 254.54 143.93 249.91 147.09 245.31 151.26 256.97 159.56 266.77 166.23 274 173.23 278.76 192 279.8 197.4 280.46 200.61 281.61 203.38 285.24 203.97 288.37 201.63 294.53 199.39 303.86 196.3 308.78 192.19 314.14 186.81 321.9 178.63 328.68 172.75 330.31 168.43 329.54 164.18"/></svg>