<svg id="Layer_1" data-name="Layer 1" xmlns="http://www.w3.org/2000/svg" xmlns:xlink="http://www.w3.org/1999/xlink" viewBox="0 0 375 375"><defs><style>.cls-1{fill:none;}.cls-2{fill:#efefef;}.cls-3{fill:#a693f0;}.cls-4{fill:#5822cc;}.cls-5,.cls-8{fill:#8a72f7;}.cls-6{fill:#471188;}.cls-7{clip-path:url(#clip-path);}.cls-8{stroke:#4e008e;stroke-miterlimit:10;stroke-width:0.15px;}.cls-9{fill:#4e008e;}</style><clipPath id="clip-path"><rect class="cls-1" x="436.9" y="32.37" width="214.2" height="348.3"/></clipPath></defs><title>Home</title><rect class="cls-2" x="-7.09" y="-5.82" width="392.21" height="386.63"/><polygon class="cls-3" points="103.97 227.62 103.37 222.32 103.37 215.98 104.35 210.3 107.81 206.84 111.11 205.24 116.55 205.24 126.19 205.19 128.84 205.09 131.95 206.12 134.69 206.84 138.52 206.83 141.99 206.5 145.5 205.66 148.98 204.25 195.42 202.11 207.75 201.56 212.82 202.27 216.28 205.24 218.06 210.7 218.54 229.3 219.48 243.91 219.85 250 218.7 253.85 216.76 256.49 213.73 258.26 206.21 259.26 192.49 259.54 158.72 260.57 153.34 261.32 151.98 260.38 150.52 259.83 147.77 260.12 145.27 261.08 144.18 262.02 138.79 261.87 137.54 262.02 134.65 261 133.47 260.57 130.47 261.39 128.55 262.46 125.8 262.51 119.95 262.77 115.24 262.98 110.38 262.43 106.32 259.57 105.12 253.48 104.85 247.4 105.24 242.96 113.32 240.89 118.42 239.91 124.08 239.33 131.04 239.23 134.97 238.29 137.79 235.65 138.39 233.85 138.04 231.63 136.21 229.39 134.53 228.63 130.06 227.72 125.31 227.62 119.23 227.62 111.61 227.69 103.97 227.62"/><polygon class="cls-4" points="117.4 210.2 169.36 207.87 204.65 206.29 206.84 255.34 120.57 259.26 119.25 259.03 118.5 248.86 118.42 239.91 122.12 239.39 125.68 239.09 128.75 239.09 132.99 238.97 135.36 238.2 136.82 236.56 138.22 234.98 138.51 232.27 138.04 231.08 137.09 229.94 135.5 228.81 131.97 227.69 117.85 227.5 117.4 210.2"/><polygon class="cls-4" points="282.35 135.58 283.16 130.3 283.41 123.97 282.66 118.26 279.35 114.66 276.11 112.92 270.67 112.71 261.05 112.27 258.4 112.07 255.25 112.98 252.48 113.58 248.66 113.42 245.21 112.95 241.74 111.97 238.31 110.42 192 106.43 179.7 105.38 174.6 105.89 171.03 108.72 169.02 114.11 167.8 132.67 166.28 147.23 165.67 153.3 166.66 157.19 168.5 159.91 171.45 161.8 178.92 163.1 192.63 163.93 226.32 166.31 231.67 167.28 233.06 166.39 234.55 165.9 237.28 166.29 239.74 167.35 240.79 168.34 246.19 168.41 247.43 168.6 250.36 167.7 251.55 167.32 254.51 168.26 256.39 169.4 259.14 169.56 264.97 170.06 269.68 170.46 274.56 170.1 278.73 167.41 280.17 161.37 280.68 155.31 280.47 150.86 272.47 148.46 267.42 147.28 261.78 146.47 254.84 146.09 250.95 145 248.23 142.24 247.71 140.43 248.15 138.22 250.07 136.05 251.78 135.36 256.27 134.63 261.02 134.72 267.11 134.97 274.71 135.34 282.35 135.58"/><polygon class="cls-5" points="269.63 117.63 217.8 113.23 182.6 110.24 178.45 159.16 264.5 166.53 265.82 166.35 266.99 156.22 267.42 147.28 263.75 146.61 260.2 146.16 257.13 146.04 252.9 145.75 250.56 144.9 249.16 143.19 247.83 141.56 247.65 138.84 248.17 137.67 249.16 136.56 250.79 135.5 254.37 134.53 268.48 134.9 269.63 117.63"/><path class="cls-6" d="M127.26,199.15l.59,5.81a.38.38,0,0,0,.27.36c6.07,2.27,16.77,3.53,22.12-1.4,2-1.83,2.39-5.61.36-7.49-2.2-2-4-1-6.63-.89-5.18.3-9-3.34-14-4.29-5.17-1-9.35-1.71-14.27-3.8-3.07-1.3-5.26-2-8.57-1.13-5.34,1.32-10.3,3.05-15.84,3.68-4.4.49-8.92.09-13.28.87-3.11.55-4.63,1.92-7.18,3.46-3.36,2,1,.82.16.62,1.6.37-2.27-2-1.19-1.39-2.51-1.38-7.93-.57-10.68-.66-6-.18-12.06-.29-18.09-.43-12.48-.29-26.09.52-38.33-2.26-.47-.11-.67.61-.2.72,10.42,2.37,21.86,1.87,32.48,2.14,6.56.18,13.13.3,19.69.46,2.79.07,5.58.15,8.37.26.55,0,7.79.21,6.86,1.72-.22.35.32.79.59.45,3.8-4.82,9.66-4.6,15.24-4.82a71.9,71.9,0,0,0,13-1.63c2.44-.54,4.78-1.31,7.16-2a12.11,12.11,0,0,1,9.44.58A39.79,39.79,0,0,0,126,191.54c4.84.65,8.44,2.39,12.89,4.1,3.33,1.27,9.2-.67,11.31,1.84,4.38,5.2-5,8.12-8.74,8.67a25.5,25.5,0,0,1-9.09-.29c-3.79-.81-4-3.24-4.34-6.71,0-.48-.8-.48-.75,0Z"/><path class="cls-6" d="M127.78,204.1c-1.68,1.09-4.76.9-6.64.49-2.8-.59-3.18-1.76-4.4-3.87a11.91,11.91,0,0,0-5.44-4.8c-.43-.21-.82.44-.38.64a11.62,11.62,0,0,1,5.64,5.45c.55,1.06.84,2.2,1.93,2.83,1.4.82,3.66.59,5.17.68,1.76.11,3,.19,4.49-.77.41-.27,0-.92-.37-.65Z"/><path class="cls-6" d="M117.48,204.06c-.71,1.23-3.68,1.06-4.93,1.21l-4.09.48c-.47.05-.48.8,0,.75l6.81-.81c1.13-.13,2.24-.19,2.86-1.25a.38.38,0,0,0-.65-.38Z"/><path class="cls-6" d="M84,221c4.29,2.32,9.16,2.26,13-.91,2-1.61,3.34-3.84,4.8-5.9a103.83,103.83,0,0,1,8.5-10.23c.32-.35-.21-.88-.53-.53a96.71,96.71,0,0,0-8.19,9.77c-4.21,6-9.46,11.36-17.24,7.16-.42-.23-.8.41-.38.64Z"/><path class="cls-6" d="M105.43,257.21c-3.47-1.88-6.42-3.72-10.29-4.7-.46-.12-.66.61-.2.72,3.79,1,6.71,2.78,10.11,4.62.42.23.8-.41.38-.64Z"/><path class="cls-6" d="M127.15,267.64c0-2,2.95-5.7,4.82-6.35,4.5-1.56,7.29,3.82,3.9,6.19-.48.34-2.36,1.16-3,1.49-3.45,1.68-5.19,1.51-8.42.19-3.51-1.43-6-3.57-8.92-6-.36-.31-.9.22-.53.53,3.9,3.23,8.84,7.52,14.27,7.71,2.92.1,3.34-1.94,5.71-3,1.26-.58,2.45-.17,3.24-1.58a4.61,4.61,0,0,0-4.3-6.76c-4.64.31-7.48,3-7.49,7.57a.38.38,0,0,0,.75,0Z"/><path class="cls-6" d="M143.56,264.27c.62-2.73,4.17-4.61,6.91-4.06,2.38.47,2.7,2.26,3.05,4,.43,2.11,0,3.26-2.2,4.56-4.6,2.72-9.61,1.49-14-.91-.42-.24-.8.41-.38.64,3.28,1.78,7.74,3.52,11.49,2.38,3.13-1,6.47-2.19,6.07-5.87-.34-3.06-1.06-5.58-4.45-5.54-3.16,0-6.42,1.27-7.17,4.59-.11.47.61.67.72.2Z"/><path class="cls-6" d="M155.53,261.38c4.18,3.41,10.39,9,16.28,8.31,4.17-.49,5.83-6.16,3.41-9.31-.29-.38-.94,0-.64.38,2.69,3.51-.22,8.39-5,8a14.91,14.91,0,0,1-4.73-1.79,50.7,50.7,0,0,1-8.76-6.14c-.37-.31-.91.22-.53.53Z"/><path class="cls-6" d="M104,243.34c.26,5.87-1.15,15,4.47,18.77,2.9,2,6.16,1.52,9.45,1.37l10.48-.47c.8,0,.81-1.28,0-1.25-5.07.23-10.62,1.2-15.66.54-8.74-1.13-7.2-12.46-7.49-19,0-.8-1.29-.81-1.25,0Z"/><path class="cls-6" d="M128.84,204.46l-11.15.5c-3.14.14-7-.21-9.86,1.19-7.6,3.68-4.79,14.77-4.49,21.47,0,.8,1.29.81,1.25,0-.32-7.25-3.3-19.82,6.93-21.13,5.67-.73,11.6-.52,17.32-.78.8,0,.8-1.28,0-1.25Z"/><path class="cls-6" d="M153.34,262l37.88-1.73c6.25-.28,12.51-.48,18.75-.85,5.65-.34,10-3.37,10.12-9.49.24-12.93-1-26.21-1.75-39.12-.83-13.32-16.11-9.58-25.28-9.17l-43.66,1.95c-.8,0-.8,1.29,0,1.25l33.24-1.48,20.73-.93c6-.27,12.65-.86,13.67,7.38,1.53,12.22,1.12,25,1.67,37.29a17.45,17.45,0,0,1-.15,5.4c-1.27,4.46-5.22,5.52-9.14,5.69l-17.26.79-38.82,1.77c-.8,0-.8,1.28,0,1.25Z"/><path class="cls-6" d="M138,262.64l6.41-.29c.81,0,.81-1.28,0-1.25l-6.41.29c-.8,0-.81,1.29,0,1.25Z"/><path class="cls-6" d="M117.78,240.12l.86,19.14a.65.65,0,0,0,.63.63l76.4-3.42,11.17-.5a.65.65,0,0,0,.63-.63l-2.2-49.05a.62.62,0,0,0-.62-.62l-76.41,3.42-11.17.5a.62.62,0,0,0-.62.62l.78,17.29c0,.8,1.28.8,1.25,0l-.64-14.2a13.83,13.83,0,0,1-.13-2.8c.12-.67-1,.54-.5.33a7.59,7.59,0,0,1,2.24-.1l26.74-1.2,36.63-1.63c7-.32,14.52-1.55,21.46-1,.62.05-.31-1.14-.23,0,.11,1.52.14,3.06.21,4.58l.73,16.32.8,17.89c.11,2.52,1.25,7.09.42,9.51.27-.8.94-.44-.29-.48s-2.36.11-3.52.16l-12.34.55-35.42,1.58L122.4,258.5a11.33,11.33,0,0,1-2.9.13c-.63-.18.59.93.38.37a9.42,9.42,0,0,1-.12-2.55L119,240.12c0-.8-1.28-.8-1.25,0Z"/><path class="cls-6" d="M-9.68,258.43c4.9-6.34,13-8.86,19-14,7.16-6.16,15.42-10.7,23.46-15.61,4.29-2.63,8.32-5.1,13.37-6,4.5-.82,9.54-2.19,14.12-2.12,4.1.06,8,1.48,11.9,2.73,4.43,1.44,9.62,2.25,12.25,6.52.26.41.91,0,.65-.38-1.68-2.71-4-4-7-5.06-4.09-1.41-8.32-2.86-12.53-3.85a27.06,27.06,0,0,0-11.61.05c-4.61.88-9.56,1.18-13.87,3.11-5.18,2.32-10,5.78-14.78,8.74-4.36,2.66-8.94,5.15-13,8.32S4.65,247.2.21,249.77c-3.93,2.28-7.6,4.48-10.42,8.13-.29.37.24.91.53.53Z"/><path class="cls-6" d="M47.18,229.25c12,1.3,25.31,2.93,37.36,1.16,3.14-.46,6.13-1.53,9.27-1.94a75.41,75.41,0,0,1,9.63-.3l20.64-.08c4.38,0,15.24-.75,13.81,6.29-1.27,6.25-13.77,4.37-18.62,5-6,.81-11.71,2.92-17.68,3.83-6.54,1-13.19.88-19.77,1.57-.47.05-.48.8,0,.75,7.21-.75,14.56-.5,21.7-1.86,8.51-1.61,16.3-3.76,25-4.23,3.73-.2,8-.07,9.76-4.05,1-2.23.78-4.22-1-5.79-4.1-3.5-11.37-2.3-16.14-2.28-8.3,0-16.67-.25-24.95.13-3.21.14-6.1,1.06-9.22,1.72a63.46,63.46,0,0,1-13.84.86c-8.67-.08-17.32-.63-25.94-1.56-.48-.05-.48.7,0,.75Z"/><path class="cls-6" d="M95.43,244.58c1,4,.8,7.65-3,10a42.58,42.58,0,0,1-8,3.51c-3,1.1-7,2-8.89,4.69-.28.39.37.77.64.38,2.23-3.15,7.57-4,11-5.29a26.19,26.19,0,0,0,7.13-3.62c3.25-2.64,2.81-6.14,1.87-9.89a.37.37,0,0,0-.72.2Z"/><path class="cls-6" d="M87.17,257.85c1.52,1.54,4.15,4.28,3.65,6.68a9.48,9.48,0,0,1-3.75,5.05c-2.19,1.51-4.9,2.39-7.28,3.55-3.46,1.69-6.46,3.7-8.61,6.94-.27.4.38.78.64.38,2.54-3.82,6.34-5.73,10.36-7.61,2.57-1.2,5.86-2.3,7.83-4.46,3.37-3.68.58-8.13-2.31-11.06a.38.38,0,0,0-.53.53Z"/><path class="cls-6" d="M-6.9,302c5.14-3.36,10.23-7.4,15.78-10.06,4.69-2.25,10.18-1.25,14.75-3.68,3.64-1.94,5.67-4.14,10.34-3.43,2.57.4,5.37,1.05,7.9,1.68,4.53,1.14,8.77,3,13.46,3.78a35.38,35.38,0,0,0,25.72-6c4.13-2.78,10.14-9.68,3.48-13.43a.38.38,0,0,0-.38.65c8.83,5-4.56,13.15-8.57,15.06a33.85,33.85,0,0,1-16,3.44c-8.19-.39-15.87-3.91-23.81-5.6-2.66-.56-5.31-1-7.89.13-1.71.74-3,2.18-4.6,3-2.67,1.42-5.5,1.36-8.39,1.81-8.3,1.3-15.27,7.45-22.14,11.93-.4.27,0,.92.38.65Z"/><path class="cls-6" d="M259.48,106.08c-.45,3.22-.47,5.25-3.8,6.46-2.78,1-7.07.67-9.89.14-2.41-.44-5.4-1.14-7.36-2.62-3.86-2.9-2.08-7.22,3.51-7.71,1.52-.13,2.95.71,4.63.47a13.72,13.72,0,0,0,2.89-.85c1.9-.69,3.65-1.76,5.58-2.38,2.48-.79,5-.69,7.56-1,4-.5,7.39-2.33,11.22-3.45,5.06-1.48,8.73.68,13.52,2.08a70.15,70.15,0,0,0,12.85,2.49c6.06.6,12.8,0,16.83,5.52.28.38.89,0,.65-.38-.9-1.6,5.72-1.43,6.16-1.43,2.54,0,5.08,0,7.62.06,6.88.09,13.75.24,20.62.34,10.82.15,22.45,1.15,33.15-.84.48-.09.28-.81-.2-.72-10.62,2-22.21,1-32.95.81-6.53-.09-13.06-.23-19.6-.33-4.26-.06-8.87-.55-13.11,0a6.36,6.36,0,0,0-2.43.76c1.23-.57-.82,1-.28,1.06,1.27.07-2-2.78-2.07-2.81-2.73-1.75-6-2.15-9.14-2.43a92.24,92.24,0,0,1-17-2.58c-3.58-1-7.55-3.38-11.33-3.18s-7.49,2.76-11.25,3.66c-4.19,1-8.36.61-12.42,2.19-2.3.9-4.42,2.26-6.91,2.56s-4.81-1-7.24-.56c-3.59.7-4.78,4.68-3,7.73,1.49,2.61,6.75,3.78,9.35,4.27a26.93,26.93,0,0,0,13.53-1.09.37.37,0,0,0,.27-.26l.82-5.78c.06-.47-.66-.68-.73-.2Z"/><path class="cls-6" d="M259.11,111.76a5.83,5.83,0,0,0,3.83,1c1.71,0,4.21.35,5.78-.48a4.44,4.44,0,0,0,1.72-2c1.58-2.73,3.07-4.64,6.13-5.92.44-.19.24-.92-.2-.73a12,12,0,0,0-5.42,4.2c-1.3,1.88-1.62,3.41-4.21,4.09-1.9.5-5.68.36-7.25-.75-.39-.28-.77.37-.38.65Z"/><path class="cls-6" d="M269.14,111.86c.61,1.15,1.87,1.21,3.05,1.4l6.43,1c.47.07.68-.65.2-.73l-4.4-.7c-1.15-.18-4-.17-4.63-1.37-.23-.43-.88,0-.65.38Z"/><path class="cls-6" d="M302.19,129.11c-7.87,3.85-13-1.76-16.94-7.87a97,97,0,0,0-7.78-10.08c-.32-.37-.85.17-.53.53A98.37,98.37,0,0,1,285,122.26c1.5,2.33,2.9,4.76,5.1,6.52,3.7,2.94,8.33,3,12.46,1,.43-.22.05-.86-.38-.65Z"/><path class="cls-6" d="M280.08,165.73c3.46-1.7,6.46-3.4,10.28-4.2.47-.1.27-.83-.2-.73-3.91.83-6.92,2.54-10.46,4.29-.44.21-.06.86.38.64Z"/><path class="cls-6" d="M258.34,174.65c.17-4.48-2.44-7.38-7.1-7.84-3.31-.32-5.39,2-4.8,5.46.26,1.52.57,1.54,1.69,2.38,1.3,1,4.09,3.16,6,3.62,5.3,1.26,12-4.14,15.69-7,.38-.29,0-.94-.37-.65-5.06,3.87-11.07,8.79-17.61,5.14-.71-.4-1.73-1.06-2.44-1.51-1.39-.17-2.13-1.2-2.21-3.11l5.22-3.24c3.11-.16,5.26,4.18,5.16,6.75,0,.48.73.48.75,0Z"/><path class="cls-6" d="M242.05,170.43c-.58-3.19-3.5-4.57-6.53-4.83-3.79-.34-4.78,2.27-5.17,5.77-.38,3.34,3.14,4.69,5.85,5.65,3.72,1.31,8.26-.26,11.62-1.91.43-.21.05-.86-.38-.65-4.31,2.13-9.87,3.49-14.07.34a4.58,4.58,0,0,1-.11-7.54c1.52-1.12,2.47-1.07,4.22-.53a5,5,0,0,1,3.85,3.9c.09.47.81.27.72-.2Z"/><path class="cls-6" d="M229,166.64a54,54,0,0,1-7.88,5.25,23.4,23.4,0,0,1-4.89,1.94c-4.25,1.06-8.92-4.21-5.85-7.9.31-.37-.22-.91-.53-.53-2.37,2.85-1.41,8.4,2.45,9.37,5.86,1.48,12.84-4.29,17.08-7.48.38-.29,0-.94-.38-.65Z"/><path class="cls-6" d="M280.4,151.25c-.59,7,.53,18.78-9.44,18.69-4.79-.05-9.68-.82-14.45-1.23-.81-.07-.8,1.18,0,1.25l9.57.82c3.24.27,6.68,1,9.71-.57,6.45-3.31,5.34-12.86,5.86-19,.07-.8-1.18-.79-1.25,0Z"/><path class="cls-6" d="M258.4,112.69c5.71.49,11.63.53,17.27,1.47,10.12,1.68,6.67,14.21,6.06,21.42-.07.8,1.18.79,1.25,0,.57-6.68,3.81-17.66-3.65-21.62-2.84-1.51-6.7-1.31-9.81-1.57l-11.12-1c-.8-.07-.79,1.18,0,1.25Z"/><path class="cls-6" d="M231.67,166.65l-33.44-2.87-20.08-1.72c-6-.51-11.72-1.75-11.41-9.55.5-12.55,2-25.22,3.2-37.71.37-3.87,1.62-7.65,6.07-8.71a17.34,17.34,0,0,1,5.38.06l18,1.53L237.89,111c.8.07.8-1.18,0-1.25l-37.53-3.19-19.61-1.66c-5.77-.49-10.9,1.56-11.88,8-1.93,12.59-2.18,25.64-3.26,38.33-.5,5.87,1.74,10.86,8.14,11.8,4.68.68,9.52.81,14.23,1.21l43.69,3.75c.8.07.79-1.18,0-1.25Z"/><path class="cls-6" d="M246.93,168l-6.4-.55c-.8-.07-.79,1.18,0,1.25l6.4.55c.8.07.8-1.18,0-1.25Z"/><path class="cls-6" d="M266.8,147.49l-1.18,13.84c-.11,1.26.2,4.07-.44,5.18.65-1.12.39-.35-.81-.68-2.86-.78-6.42-.54-9.37-.79l-15.45-1.32-36.67-3.11c-7.66-.65-15.81-2.21-23.51-2-1.28,0-.45-.28-.29.45a13.48,13.48,0,0,1,.29-3.34l1.28-15.12c.84-9.86,1.14-19.93,2.53-29.72.17-1.21-.91,0-.21,0a25.48,25.48,0,0,1,2.76.24l11.28,1L231.73,115l33.8,2.87c1.23.11,2.48.18,3.71.32,1,.12.43-.74,0,.53-.94,2.73-.57,6.63-.81,9.5l-.57,6.65c-.07.8,1.18.79,1.25,0l1.47-17.24A.64.64,0,0,0,270,117l-76.2-6.47-11.14-1a.65.65,0,0,0-.63.63l-4.15,48.92a.64.64,0,0,0,.62.63l76.21,6.47,11.14.94a.64.64,0,0,0,.63-.62l1.62-19.09c.06-.8-1.19-.8-1.25,0Z"/><path class="cls-6" d="M395.27,170.46a30.32,30.32,0,0,0-8.87-7.81A95.54,95.54,0,0,1,374,153c-3.57-3.2-7.71-5.7-11.68-8.35-5-3.33-9.89-7.13-15.19-10-4.28-2.29-9.15-2.75-13.81-3.88a27.77,27.77,0,0,0-10.91-.92,107.33,107.33,0,0,0-13.4,3.4c-3.23.93-5.95,2.12-7.87,5-.27.4.38.77.65.37,2.83-4.19,8-4.75,12.51-6,3.9-1.09,7.91-2.39,12-2.25a52.44,52.44,0,0,1,26.37,8.72c7.58,5.06,15.82,9.73,22.48,16,6,5.67,14.64,9,19.46,15.74.27.39.92,0,.64-.38Z"/><path class="cls-6" d="M339,138.72c-8.33.57-16.67.78-25,.56-4.63-.12-9.4-.15-13.92-1.24-3.09-.75-6-1.88-9.2-2.24-8.15-.9-16.54-.78-24.73-1.14-5-.22-12.83-1.93-17.19,1.6-1.85,1.49-2.16,3.39-1.3,5.66,1.3,3.43,4.47,4,7.75,4.34a160.05,160.05,0,0,1,25,5c7.59,2,15.53,2,23.26,3.14.47.07.67-.65.2-.72-6-.86-12-1.06-18-2-6.25-1-12.12-3.49-18.34-4.69-5.18-1-14.92.25-18.35-3.88-2.43-2.94-.73-6.24,2.63-7.32s7-.65,10.41-.49l19.64.86c3,.13,6,.11,9,.45,3.42.41,6.5,1.71,9.84,2.42,12.14,2.61,26,1.34,38.29.5.48,0,.49-.78,0-.75Z"/><path class="cls-6" d="M289.49,152.65c-1.16,4-1.64,7.52,1.92,10.28a32,32,0,0,0,7.19,3.83c3.07,1.31,8.21,2.47,10.16,5.47.26.4.91,0,.65-.38-1.85-2.83-5.82-3.83-8.81-5.07a44.91,44.91,0,0,1-7.31-3.48c-4.24-2.72-4.35-6.11-3.08-10.45a.37.37,0,0,0-.72-.2Z"/><path class="cls-6" d="M297.41,165.91c-3,2.82-6,7.12-2.73,11,1.72,2.05,4.67,3.24,7,4.43,4.18,2.13,8.14,4.23,10.69,8.35.26.41.91,0,.65-.38a20.61,20.61,0,0,0-8.34-7.27c-1.94-1-4-1.94-5.87-3.08a13.17,13.17,0,0,1-3.23-2.2c-3.63-4.2-.23-7.87,2.37-10.29.35-.33-.18-.86-.53-.53Z"/><path class="cls-6" d="M390.55,213.69c-7.24-5.15-14.05-11.5-23-13-2.43-.4-4.75-.66-6.94-1.94-1.58-.92-2.8-2.43-4.47-3.23-2.56-1.22-5.19-.88-7.88-.42-8,1.36-15.83,4.55-24,4.63a33.63,33.63,0,0,1-15.87-4.08c-3.83-2-17-10.75-7.94-15.4.43-.22,0-.87-.38-.65-6.36,3.26-1.6,10.07,2.28,13.07a35.55,35.55,0,0,0,26.15,7.48c5.19-.67,10-2.55,15.09-3.38,2.59-.43,5.3-1.31,7.93-1.36,3.35-.07,5.54,1.84,8.17,3.59,4.07,2.71,9.21,2.08,13.6,4,6.09,2.64,11.53,7.53,16.92,11.37.39.28.77-.37.38-.65Z"/><g class="cls-7"><polygon class="cls-4" points="308.88 375.68 618.86 375.68 618.95 374.61 618.04 372.84 615.48 366.86 614.33 363.32 610.64 351.37 607.7 342.46 605.68 337.85 602.85 332.79 601.2 330.23 599.71 328.38 597.76 326.21 593.82 323.07 591.54 321.43 588.33 319.96 584.83 318.87 581.13 317.76 574.12 316.61 569.09 315.56 564.09 314.28 560.41 312.21 554.3 307.8 549.26 305.81 544.75 304.37 536.76 302.62 535.71 302.69 530.15 297.89 526.93 295.71 524.35 294.47 520.79 293.45 516.81 289.9 513.91 288.28 511.97 287.72 508.79 285.56 507.32 285.27 504.96 280.16 503.72 278.44 503.03 291.58 502.61 295.09 499.91 299.11 497.65 300.9 494.15 302.79 490.22 305.16 486.25 309.32 483.97 313.26 482.48 316.99 481.16 322 481.24 324.59 479.25 327.89 476.64 330.53 471.03 334.91 466.23 340.21 459.82 349.37 452.59 358.54 450.32 358.17 446.55 352.44 444.06 346.65 439.9 338.89 431.85 328.32 429.52 324.31 430.33 319.49 431.67 316.31 432.19 313.15 431.39 310.17 429.19 306.88 425.88 302.99 423.05 297.9 422.17 294.94 421.62 290.76 421.35 284.86 420.93 279.08 418.08 279.87 408.44 284.3 399.07 292.38 395.71 296.01 394.27 297.32 393.74 297.27 383.56 302.99 368.34 311.6 361.06 313.7 346.83 317.68 337.97 322.7 336.52 324.33 329.06 329.8 322.32 336.9 318.67 342.13 314.29 350.37 310.47 359.48 309.49 365.72 308.88 375.68"/><path class="cls-8" d="M326,375.68s10.46-31.47,35.24-46.41L368,326l6.54-4.62,5.07-4.95,6.62-9.46,4.55-6,3.5-3.65,5.83-5.88,6-5.86,4.6-3.29,5.13-2,4.85-1.25.31,3.21.84,10.06,1,4.76v3.76l.35,10.68.15,7-.75,8.72.49,2.95-.78,2.69-2.53,16.69-1.62,11.12-.75,14.92Z"/><path class="cls-9" d="M419.72,284c-5.75,5-11.38,10.06-15.18,16.75-2.6,4.59-4.82,8.94-8.43,12.9-2.26,2.47-4.8,4.72-6.89,7.34-4.8,6.05-4.83,14.79-7.05,22a114.32,114.32,0,0,1-11.5,25.36c-.25.41.4.79.65.38a115.68,115.68,0,0,0,10.49-22.22,112,112,0,0,0,3.34-11.78c1-4.2,1.3-8.52,3.82-12.17s6-6.38,8.84-9.65a46.14,46.14,0,0,0,5.78-8.72c4.26-8,9.88-13.75,16.66-19.63.37-.31-.16-.84-.53-.53Z"/><path class="cls-9" d="M420.43,278.72a36,36,0,0,0-15.32,7.22c-2.94,2.41-5.28,5.35-7.83,8.14-2.33,2.55-5.06,4.7-7.38,7.25-4.26,4.7-6.77,10.65-11,15.37a47.55,47.55,0,0,1-19.08,12.69c-.45.16-.26.89.2.72,11.37-4.17,19.51-11.76,25.9-21.87,3.93-6.24,9.4-10.85,14.28-16.3,5.67-6.33,12.08-10.67,20.47-12.5.47-.1.27-.82-.2-.72Z"/><path class="cls-9" d="M378.77,321.65A150.49,150.49,0,0,0,365,333.7c-.35.34.18.87.53.53a151.88,151.88,0,0,1,13.65-11.94c.38-.29,0-.94-.38-.64Z"/><path class="cls-9" d="M394.08,296.7c-8,3.74-15.11,9.06-23,13-8.11,4.08-17.08,4.69-25.33,8.38-4.15,1.85-10.8,3.7-8.77,9.62,1.52,4.43,6.78,7.91,9.87,11.28.32.35.85-.18.53-.54-2.65-2.89-6.59-5.61-8.56-9-5.35-9.19,14.45-13.67,19.8-14.69,13.43-2.55,23.71-11.77,35.83-17.42.44-.21.06-.85-.38-.65Z"/><path class="cls-9" d="M337.86,323.11c-16.77,9.81-30.07,31.2-29.23,50.8,0,.48.77.49.75,0-.83-19.28,12.35-40.5,28.86-50.16a.37.37,0,0,0-.38-.64Z"/></g></svg>