<svg id="Layer_1" data-name="Layer 1" xmlns="http://www.w3.org/2000/svg" xmlns:xlink="http://www.w3.org/1999/xlink" viewBox="0 0 375 375"><defs><style>.cls-1{fill:none;}.cls-2{fill:#efefef;}.cls-3{clip-path:url(#clip-path);}.cls-4{fill:#5822cc;}.cls-5{fill:#8a72f7;}.cls-6{fill:#4e008e;}.cls-7{clip-path:url(#clip-path-2);}.cls-8{fill:#a693f0;}</style><clipPath id="clip-path"><rect class="cls-1" x="-9.1" y="32.37" width="214.2" height="348.3"/></clipPath><clipPath id="clip-path-2"><rect class="cls-1" x="206.27" y="37.19" width="176.9" height="347.97"/></clipPath></defs><title>Home</title><rect class="cls-2" x="-8.61" y="-5.82" width="392.21" height="386.63"/><g class="cls-3"><polygon class="cls-4" points="-137.12 375.68 172.86 375.68 172.95 374.61 172.04 372.84 169.48 366.86 168.33 363.32 164.65 351.37 161.7 342.46 159.69 337.85 156.84 332.79 155.2 330.23 153.71 328.38 151.76 326.21 147.82 323.07 145.54 321.43 142.33 319.96 138.83 318.87 135.13 317.76 128.12 316.61 123.09 315.56 118.09 314.28 114.41 312.21 108.31 307.8 103.26 305.81 98.75 304.37 90.76 302.62 89.71 302.69 84.15 297.89 80.93 295.71 78.35 294.47 74.79 293.45 70.81 289.9 67.91 288.28 65.97 287.72 62.79 285.56 61.33 285.27 58.97 280.16 57.72 278.44 57.03 291.58 56.61 295.09 53.91 299.11 51.65 300.9 48.15 302.79 44.22 305.16 40.25 309.32 37.97 313.26 36.48 316.99 35.16 322 35.24 324.59 33.25 327.89 30.64 330.53 25.03 334.91 20.23 340.21 13.82 349.37 6.59 358.54 4.32 358.17 0.55 352.44 -1.94 346.65 -6.1 338.89 -14.15 328.32 -16.48 324.31 -15.67 319.49 -14.33 316.31 -13.81 313.15 -14.61 310.17 -16.8 306.88 -20.12 302.99 -22.95 297.9 -23.83 294.94 -24.38 290.76 -24.65 284.86 -25.07 279.08 -27.92 279.87 -37.56 284.3 -46.93 292.38 -50.29 296.01 -51.73 297.32 -52.26 297.27 -62.44 302.99 -77.66 311.6 -84.94 313.7 -99.17 317.68 -108.03 322.7 -109.48 324.33 -116.94 329.8 -123.67 336.9 -127.33 342.13 -131.71 350.37 -135.53 359.48 -136.51 365.72 -137.12 375.68"/><polygon class="cls-5" points="37.42 375.68 42.19 355.6 47.02 334.69 48.55 326.13 50.19 317.02 54.04 305.1 53.91 299.11 55.95 296.32 56.78 294 57.41 284.67 57.66 279.76 57.68 279.05 58.17 279.14 58.55 279.56 60.22 282.94 61.12 284.96 62.41 285.43 65.52 287.09 66.33 288.07 67.14 287.96 70.51 289.48 72.85 291.64 74.79 293.45 77.64 294.23 83.5 297.5 87.86 300.92 93.05 305.64 98.53 311.9 102.48 317.9 108.76 328.56 120.78 351.81 127.75 366.29 132.91 377.85 37.42 375.68"/><path class="cls-6" d="M-52.51,177.71c-3.2-10.19,3.27-23.23,8.32-31.74,5.67-9.52,11.84-18.85,22.08-23.87C-13.76,118-4.25,116.59,5,116.26c7.43-.28,14.5.16,19.7,5.88a.39.39,0,0,0,.53,0c5.66-5.12,15.48,2.13,20.77,5.12a68.61,68.61,0,0,1,6.78,4.1c2.81,2.08,4.45,5,6.52,7.7,3.59,4.69,7.28,8.51,9,14.33.92,3.09,1.53,6.07,2.66,9.09.17.45.89.25.72-.2-1.74-4.65-2.3-9.75-4.62-14.16-1.6-3.05-4-5.54-6.12-8.19s-3.84-5.9-6.46-8.19c-5.39-4.68-13.58-8.91-20.26-11.35a10.8,10.8,0,0,0-6-.74c-.91.2-1.62.82-2.47,1-1.45.37-.2.6-1.65-.34s-2.1-2.1-3.77-2.87a21.68,21.68,0,0,0-5.8-1.57c-6.31-1-12.87-.38-19.15.49-12.46,1.7-24,6.41-31.83,16.63a102.76,102.76,0,0,0-13.59,22.89c-2.57,6.27-5.27,15.23-3.14,22,.14.46.87.27.72-.2Z"/><path class="cls-6" d="M68.14,194.83q1.42-2.39,4.2-.23,4.14-.54,3.65,3.24a45.16,45.16,0,0,1,.32,4.8c.12,3.53,0,7.06-.21,10.58-.37,7-.29,14.22-1.72,21.09-.1.47.62.67.72.19,1.07-5.13,1.09-10.27,1.4-15.49.38-6.41.9-12.84.42-19.25-.47-6.18-3.81-11.23-9.31-5.46-.34.35.19.88.53.53Z"/><path class="cls-6" d="M-51.06,206l1.58,2.33,2.54,1,3.43.63,3.16-.44L-38,208l2.31-2,2.23-2.61,1.64-2.87,1.77-5.25.88-3.65,1-9.26.69-7.25.61-5.91.79-3.31,1.56-4.89,2.1-3.45,2.95-3.07,2.52-1.53.41-1.14,7.38-5,5.73-3,.77-.4s9.73-2.11,9.58.84-5.18,6,2.23,4.89l7-.61,6.31.06L29.06,150l7.13,3.23,3,1.31,2.08,1s-3.71-.23-2.23.79l.74.7,2.45,2.45,1.07,1.24-.91,2.64-.28,1.4.59,2.14,2.43,4.45,4.29,6.09,2.14,2.26.46.45,3.2,2.07,2.67.6L57.55,185l1.17,0,1,.13,2.45-1.39.66,0v.76l-1,1.83-2.43,2.61-.7,1.13,0,3.55.72,2.79.38,1.42,1.16,2.79,1.41,1.84.76.63,2,.53,1.36.15.58-.79.56-4.89v-4.36l.23.5.38-.19,1.62-.8,2.43-.54,1.64.75,2.34,2.49.38,2.86.31,4.82,1-1.94.6-5.38v-4.52l-.5-3.42-.55-3.7-.84-3.47-1.65-6.44-.92-1.85-.25-4.11-.44-2.46L71.75,163l-.86-2.33-2.18-6.55-1.26-5-1.94-2.91-4.63-6.08-3.06-3.8-3.52-4.51L49,128.31l-6.86-4-5-2.52-3.63-1.5-3.31-.66-2,.39-1.57.57-.68.7-1.29.14-3-2.88-2.84-1.15-3.44-1.16-4.18-.44H3.85l-8.78,1-5.19.85-9.07,2.93-4.57,2.16-3.37,2.13-6.07,4.81-3.66,4.71-4.94,7L-46.34,149l-4.45,9.29L-52.91,167l-.75,6.32.58,2.11.19,3.1-1.19,1.84-.89,3v6l1.34,9.47,1,4.47Z"/><path class="cls-6" d="M67.78,161.07c9.26,3.58,4.81,13.39,4.1,20.27a17.68,17.68,0,0,1-2.66,8,16.75,16.75,0,0,0-1.62,2.23,7.86,7.86,0,0,0-.5,1.86c-.2,1.08,1.33,13.14-4.57,9.15-.4-.27-.77.38-.38.65,2.29,1.54,4.68.25,5.58-2.23,1.51-4.19-1.24-6.55,2-11.13,1.18-1.67,2.57-2.36,3.14-4.45a33.07,33.07,0,0,0,0-3.89c-.08-2.43.69-3.82,1.24-6.11a16.85,16.85,0,0,0,.27-6.17c-.31-2.21-1.11-5.36-2.72-7-1.45-1.49-1.76-1.1-3.66-1.84-.45-.18-.65.55-.2.72Z"/><path class="cls-6" d="M52.21,178.53a6.16,6.16,0,0,0,6-.24.38.38,0,0,0-.29-.69c-2.73.91-5.78,1.66-8.17-.55a19.76,19.76,0,0,1-3.19-4.54c-1.06-1.78-2-3.63-3.18-5.35-1-1.5.64,1.07.95,1.42,3.66,4.23,10.64,4.36,15.28,1.78.42-.23,0-.88-.38-.64-5.24,2.91-13.4,2-15.78-4.14-.09-.23-.43-.41-.63-.17-.63.78-.44,1.24-.09,2.13a42.9,42.9,0,0,0,5,8.29c2.75,3.87,6.11,3.91,10.37,2.5l-.29-.69a5,5,0,0,1-5.22.24c-.43-.19-.81.45-.37.65Z"/><path class="cls-6" d="M59.91,196.82a19.68,19.68,0,0,1-1.2-4.85c0-3.16.72-2.82,2.19-4.12a8.06,8.06,0,0,0,2.56-4.79c0-.25-.17-.59-.46-.47-.88.36-1.51,1-2.34,1.39q-1.21,1.25-2.94.09l.94-1.6a.37.37,0,0,0-.32-.56,7.66,7.66,0,0,1-6.07-2.16c-.35-.32-.88.21-.53.53a8.72,8.72,0,0,0,3.54,2.14c2,.56,2.68-.23,1.33,2.06a.38.38,0,0,0,.06.46,2.71,2.71,0,0,0,2.73.62c.93-.25,1.5-1.21,2.35-1.47,2.31-.69-1.1,2.95-1.75,3.47-1.08.87-2,1.09-2.31,2.51-.4,2,1,5.07,1.5,7a.37.37,0,0,0,.72-.2Z"/><path class="cls-6" d="M55.59,163c-6.69,3.19-11.31-2.18-15.89-6.23-.36-.32-.89.21-.53.53,4.93,4.35,9.77,9.7,16.8,6.35.43-.21.05-.86-.38-.65Z"/><path class="cls-6" d="M43.58,155.53c-6.4-1.4-11.68-5.58-18.23-6.86a39.24,39.24,0,0,0-16.5.42c-.47.11-.27.83.2.72a38.1,38.1,0,0,1,19.46.4c5.18,1.53,9.58,4.89,14.87,6,.47.1.67-.62.2-.73Z"/><path class="cls-6" d="M20.92,144.1c4.7-1.46,7.15-6.83,1.85-9.42C16,131.4,6.52,134.38.54,137.91a.38.38,0,0,0,.38.65,29.55,29.55,0,0,1,12.14-4.14,27,27,0,0,1,4.92,0l2.74.39q6.36,1,0,8.6c-.46.15-.26.87.2.73Z"/><path class="cls-6" d="M26.41,137.36c4.25-8.2-7.24-13.09-13.63-13.24-11.11-.25-22.07,5.86-29.9,13.31-.35.33.18.86.53.53a48.25,48.25,0,0,1,21-12,29.68,29.68,0,0,1,9.79-1c5.26.43,15.43,4.58,11.56,12-.22.43.43.81.65.38Z"/><path class="cls-6" d="M.08,131.26c-4.36,2.94-9.25,5.13-13.29,8.52-4.21,3.55-6.44,8.35-8.56,13.32-.18.44.46.83.65.38,2.18-5.13,4.48-10,8.94-13.54,3.91-3.13,8.5-5.24,12.64-8,.39-.27,0-.92-.38-.65Z"/><path class="cls-6" d="M-17.41,152.67C-30.8,160.81-27,179.1-29.87,192.12c-.89,4.09-2.05,8.45-4.44,11.94-3.77,5.54-12.64,8.7-16.77,1.59-2.27-3.92-2.57-9.69-3.09-14.1-.63-5.25-1.29-10.44,2.86-14.48,2.24-2.18,4.46-3.74,5.82-6.64s2-6.06,3.17-9A104,104,0,0,1-30,138.28c5.56-7.87,11.31-13.09,20.75-15.78,7.45-2.11,30.21-8.17,33.64,2.31.15.46.87.26.72-.2-2-6-8.26-6.26-13.69-6.08a81.5,81.5,0,0,0-25.59,4.76c-13.45,5-21.87,21.36-27.18,33.77-1.47,3.43-2.61,6.95-3.85,10.47-1.64,4.63-4.51,6.53-7.57,10-4,4.52-2.56,11.28-1.79,16.74.75,5.29,1.21,13.28,7,15.67,4.67,1.93,9.93-.49,12.94-4.16C-22.55,191-34.64,164-17,153.31a.37.37,0,0,0-.38-.64Z"/><path class="cls-6" d="M65.36,231.26c-.26,2.2-.32,10.41,4,8.43.44-.2.06-.84-.38-.64-3.24,1.48-3.08-6.12-2.88-7.79,0-.48-.7-.48-.75,0Z"/><path class="cls-6" d="M66.83,201.33c-.34,2.42.14,5.08,2.66,6.07.45.17.64-.55.2-.73-2.1-.82-2.41-3.18-2.14-5.14.06-.47-.66-.68-.72-.2Z"/><path class="cls-6" d="M69.25,197.89a3.23,3.23,0,0,1,4.82.62c.35.53-.15,2.63-.16,3.29a41,41,0,0,0,.71,6.79c.69,5.07-.66,10-.56,15.12a.38.38,0,0,0,.75,0c-.09-4.5,1.13-9,.82-13.46-.16-2.31-.88-4.49-1-6.81-.09-1.92.33-3.84.18-5.75-.38-4.92-3.68-2.84-6.09-.33-.33.35.2.88.53.53Z"/><path class="cls-6" d="M71.21,211.09c1.3,4.48.3,7.44-1.44,11.46-.81,1.88-1.88,3.42-1.54.07.2-1.86.74-3.81.3-5.67a23.09,23.09,0,0,0-1-2.18c-1.06-3.15-.66-4.13-.65-6.77a.38.38,0,0,0-.75,0c0,2.39-.64,3.78.07,6,.24.75.93,1.85,1.19,2.61.68,2,.41,3.19.15,5.27-.2,1.62-1,4.76,1.19,5.23a.4.4,0,0,0,.42-.18A10.51,10.51,0,0,0,70,224.2c.5-1.57,1.4-2.93,1.92-4.5a14.71,14.71,0,0,0,0-8.81.38.38,0,0,0-.73.2Z"/><path class="cls-5" d="M69.45,232.32a2,2,0,0,1,2-.88,3.69,3.69,0,0,1,2.87,2.39,8.58,8.58,0,0,1,.4,3.87,6.19,6.19,0,0,1-.43,2.09,2.51,2.51,0,0,1-1.5,1.44,3.24,3.24,0,0,1-2.07-.24,2.72,2.72,0,0,1-1-.64,2.91,2.91,0,0,1-.49-1,15.33,15.33,0,0,1-.76-4.75,4.15,4.15,0,0,1,.22-1.53,1.68,1.68,0,0,1,1.06-1"/><path class="cls-6" d="M69.78,232.51c1.5-2,3.89.41,4.36,2a7.77,7.77,0,0,1-.38,5.17c-.9,1.71-3.28,1.27-4.22-.45a6.33,6.33,0,0,1-.44-1.67c-.27-1.34-.88-4.4.79-5.23.43-.21,0-.86-.38-.65-2.47,1.23-1.43,5.37-.79,7.42s3.64,3.61,5.37,1.6,1.43-6.12,0-8.08c-1.21-1.61-3.58-2.31-4.93-.53-.29.39.36.76.65.38Z"/><path class="cls-6" d="M-43.36,210.44c-3.44,6.68-.11,15.74,1.09,22.66,1.44,8.27,2.63,16.74,5.8,24.56C-30.2,273.16-17,281.33-1.6,286.13c8.05,2.5,14.91,2.45,22.73-.7s16.52-5.85,23.65-10.23c5.71-3.51,10.95-9.93,15-15.2a28.33,28.33,0,0,0,5-9.07c1.19-4,.57-8.19,2-12.11.17-.45-.56-.65-.72-.2-1.13,3-1,6-1.45,9.22a23.25,23.25,0,0,1-4.18,10c-3.88,5.58-9.79,12.54-15.46,16.35-6.09,4.09-14.1,6.35-20.87,9.19-8.18,3.43-15,5-23.88,2.56-14.53-4.09-27.79-11.38-34.68-25.39-3.4-6.91-4.87-14.55-6.2-22.08-.66-3.73-1.3-7.47-2-11.21-.92-5.32-2.81-11.31-.18-16.41.22-.43-.43-.81-.65-.38Z"/><path class="cls-6" d="M58.25,260.54l-1.31,26c-.27,5.34-.21,10.63-5.39,13.75-2.48,1.5-5.08,2.56-7.36,4.41A26.18,26.18,0,0,0,35.53,318c-1,3.71-.34,7.21-3.13,10.19-2.36,2.53-5.44,4.29-7.92,6.71-4.91,4.79-8.61,11-12.63,16.52-1.23,1.69-2.38,3.63-3.78,5.2s-1.85,2.38-3.72,1c-3.13-2.31-4.59-8.05-6-11.39-2.55-5.86-6.34-10.72-10.25-15.72-1.47-1.88-3.06-3.55-3.73-5.87-.74-2.59,0-4.14,1-6.59.82-2,1.48-3.91,1-6.12-.52-2.55-2.26-4.58-3.9-6.51-3.32-3.93-5.55-7.48-6.25-12.64-1-7.17,0-14.39-3.07-21.15-.2-.44-.84-.05-.64.38,3.9,8.48.88,18.16,4.38,26.69,1.26,3.07,3.46,5.27,5.52,7.79,2.31,2.84,3.9,5.61,3,9.39-.49,2-1.82,3.7-2.18,5.72-.45,2.48.35,4.1,1.74,6.09,2.68,3.84,5.89,7.3,8.52,11.19C-2,345.66-.64,354.87,6,360.07a.38.38,0,0,0,.59-.08c5.86-8.06,11.3-17.56,18.45-24.53,2.34-2.28,12.3-7.86,10.83-12.12a.37.37,0,0,0-.36-.27l-.43.05a.38.38,0,0,0-.37.37l0,.34c0,.48.72.48.75,0a25.75,25.75,0,0,1,8.18-17.63c3.59-3.28,9.38-4.45,12.06-8.6s2-10.27,2.24-14.91L59,260.54c0-.48-.73-.48-.75,0Z"/><path class="cls-6" d="M-23.8,296.2c.33,8,1.34,16.4.64,24.42-.57,6.61-.65,11.14,3.67,16.61,4.16,5.25,9.47,9.9,14.07,14.8,2.93,3.12,7.76,8.91,12.52,8.63.48,0,.48-.78,0-.75-5.72.34-11.79-8.21-15.21-12-4.09-4.48-9.39-8.4-12.53-13.63-3.59-6-1.54-11.93-1.63-18.39s-.51-13.17-.78-19.74c0-.48-.77-.48-.75,0Z"/><path class="cls-6" d="M6.77,360.13c6.93-3.43,12.62-9.2,18.45-14.16l21.46-18.24c.36-.31-.17-.84-.53-.53l-20,17c-6.26,5.32-12.37,11.63-19.77,15.3-.44.21-.06.86.37.65Z"/><path class="cls-6" d="M65.92,241.64c4.38,5,6,10.28,8.14,16.37,2,5.64,1.94,9.15-2.1,13.42-3.46,3.66-8.93,3.95-13.74,3.67-.48,0-.48.72,0,.75,8.13.48,18-2.3,18.52-12.18a8,8,0,0,0-.63-3.32c-1-2.74-2.11-5.42-3.06-8.19a32.46,32.46,0,0,0-6.6-11c-.32-.36-.85.17-.53.53Z"/><path class="cls-6" d="M58,279.46c12.35,22.9,13.9,49.15,16,74.55,0,.48.79.48.75,0-2.12-25.53-3.71-51.92-16.11-74.93-.23-.42-.88,0-.65.38Z"/><path class="cls-6" d="M61.49,285.63c6.74,2.28,8.54,9.07,10.42,15.18q2.19,7.11,4.37,14.24c.15.46.87.26.73-.2-2.14-7-3.82-14.36-6.65-21.09-1.76-4.18-4.32-7.38-8.68-8.85-.45-.15-.65.57-.19.72Z"/><path class="cls-6" d="M66.65,288.17c11.58,4.79,14.62,17.35,18.73,27.94,3.78,9.73,8.78,18.92,13.76,28.07.23.43.88.05.65-.38a279.12,279.12,0,0,1-16.67-36c-3.17-8.48-7.49-16.7-16.27-20.33-.44-.18-.64.54-.2.72Z"/><path class="cls-6" d="M114.66,364.18c-2-5.41-4-10.81-5.74-16.33-1.41-4.6-2.33-9.39-4.19-13.84C100.45,323.74,93,314.29,87,304.91c-.25-.41-.9,0-.64.38,5.67,9,12.42,17.85,16.95,27.46,2.29,4.86,3.28,10.2,4.84,15.3,1.7,5.52,3.72,10.92,5.74,16.33.17.45.9.25.73-.2Z"/><path class="cls-6" d="M74.43,293.47c7.16,2,13.49,7.7,18.74,12.8,5.43,5.28,9.25,12,13,18.54,7.41,12.76,13.77,26.08,20.13,39.38.21.44.85.06.65-.38-7.15-14.95-14.31-30-23-44.12-3.69-6.05-7.52-11.58-12.88-16.28-4.92-4.3-10.11-8.88-16.52-10.66a.37.37,0,0,0-.19.72Z"/><path class="cls-6" d="M56.23,297.36c.52,26.51,1.08,53,3.42,79.46,0,.48.79.48.75,0-2.34-26.43-2.9-52.95-3.42-79.46a.38.38,0,0,0-.75,0Z"/><path class="cls-6" d="M53.11,307.68c-3.71,7.49-4.41,15.84-5.9,23.95-1.71,9.32-3.88,18.54-6.42,27.67a.37.37,0,0,0,.72.2c2.37-8.52,4.43-17.12,6.08-25.81s2.23-17.66,6.16-25.63c.22-.43-.43-.81-.64-.38Z"/><path class="cls-6" d="M173.18,374.78c-8.56-16.8-8.68-40.32-25.33-52.15-8.51-6-18.58-5.43-28.15-8.25-5.2-1.53-8.12-5.56-12.82-7.75-5.19-2.42-11.61-3.19-17.14-4.56a.37.37,0,0,0-.2.72c4.87,1.21,9.92,2.15,14.7,3.7,5,1.63,8.11,5.94,13,7.87,9.51,3.75,20,2.33,29,8.08,17.61,11.29,17.63,35.67,26.32,52.72.22.43.86,0,.64-.38Z"/><path class="cls-6" d="M130.09,324.9A158.76,158.76,0,0,0,135,367.15a.37.37,0,0,0,.72-.2,158.08,158.08,0,0,1-4.92-42.05.38.38,0,0,0-.75,0Z"/><path class="cls-6" d="M74.5,174c2.31,9.19,6.3,21.41,1.91,30.42-.21.44.43.82.65.38,4.47-9.19.5-21.68-1.84-31-.11-.47-.84-.27-.72.2Z"/><polygon class="cls-6" points="59.26 260.12 58.56 261.78 58.63 264.13 58.22 272.12 57.9 274.93 58.97 275.59 61.45 275.59 64.94 275.22 67.63 274.61 70.95 273.2 73.11 271.13 74.68 268.45 75.91 265.7 76.39 261.5 75.02 259.08 73.16 253.78 70.94 248.13 68.42 244.07 65.74 241.12 65.59 243.88 64.68 250.09 63.3 253.85 61.05 257.71 59.26 260.12"/></g><g class="cls-7"><polyline class="cls-8" points="335.51 325.19 336.31 320.37 337.65 317.18 338.18 314.02 337.38 311.05 335.18 307.75 331.87 303.87 329.04 298.78 328.15 295.81 327.6 291.64 327.33 285.74 326.91 279.96 324.07 280.74 314.42 285.17 305.06 293.26 301.69 296.89 300.26 298.2 299.72 298.15 289.55 303.87 274.32 312.48 267.04 314.58 252.81 318.55 243.96 323.58 242.51 325.2 235.04 330.67 228.31 337.77 224.65 343 220.27 351.24 216.45 360.36 215.47 366.6 214.86 376.55 524.84 376.55 524.94 375.49 524.03 373.71 521.47 367.74 520.31 364.2 516.63 352.24 513.68 343.34 511.67 338.73 508.83 333.66 507.18 331.1 505.69 329.26 503.75 327.09 499.8 323.95 497.52 322.3 494.31 320.83 490.81 319.74 487.11 318.64 480.1 317.48 475.08 316.44 470.08 315.16 466.39 313.08 460.29 308.67 455.25 306.69 450.74 305.25 442.75 303.5 441.69 303.56 436.14 298.76 432.91 296.59 430.34 295.34 426.78 294.33 422.79 290.78 419.9 289.16 417.96 288.6 414.77 286.44 413.31 286.15 410.95 281.04 409.71 279.32 409.01 292.46 408.59 295.97 405.89 299.98 403.63 301.78 400.13 303.67 396.2 306.04 392.23 310.19 389.96 314.13 388.46 317.87 387.14 322.88 387.22 325.47"/><path class="cls-6" d="M299.48,178.59c-3.21-10.2,3.27-23.24,8.32-31.74,5.66-9.53,11.84-18.85,22.07-23.87,8.35-4.09,17.86-5.51,27.08-5.85,7.44-.27,14.5.16,19.7,5.88a.38.38,0,0,0,.53,0c5.66-5.11,15.48,2.14,20.77,5.13a65.57,65.57,0,0,1,6.78,4.09c2.82,2.08,4.45,5,6.53,7.71,3.59,4.69,7.28,8.51,9,14.33.92,3.09,1.53,6.07,2.66,9.08.17.45.9.26.73-.19-1.75-4.65-2.31-9.76-4.63-14.16-1.6-3.05-4-5.54-6.12-8.19s-3.84-5.91-6.46-8.19c-5.38-4.69-13.58-8.91-20.25-11.35a10.83,10.83,0,0,0-6.05-.75c-.91.21-1.61.82-2.47,1-1.44.36-.19.59-1.65-.34s-2.09-2.1-3.77-2.87a21.48,21.48,0,0,0-5.8-1.57c-6.3-1-12.87-.38-19.15.48-12.45,1.71-24,6.42-31.83,16.63a102.63,102.63,0,0,0-13.58,22.9c-2.57,6.27-5.28,15.23-3.15,22,.15.46.87.26.73-.2Z"/><path class="cls-6" d="M300.92,206.84l1.58,2.34,2.54,1,3.44.63,3.15-.43,2.39-1.55,2.32-2,2.22-2.6,1.64-2.88,1.77-5.25.88-3.64,1-9.26.69-7.25.6-5.91.79-3.31,1.56-4.89,2.1-3.45,2.95-3.07,2.52-1.53.42-1.14,7.38-5,5.73-3,.77-.41s9.73-2.1,9.57.84c-.14,2.67,14.53.09,11,.93a.68.68,0,0,0-.18,1.25l1.77,1,2.9,1.18,6.55,1.39,7.13,3.24,3,1.31,2.08,1s-3.7-.24-2.23.79l.75.69,2.44,2.46,1.08,1.24-.91,2.64-.28,1.4.59,2.14,2.42,4.45,4.3,6.08,2.13,2.26.46.46,3.21,2.07,2.66.59-.32,2.12,1.16,0,1,.12,2.45-1.38.66,0v.77l-1,1.83-2.44,2.61-.69,1.13,0,3.54.72,2.79.39,1.43,1.15,2.78,1.42,1.84.75.63,2,.53,1.36.16.58-.79.57-4.89v-4.37l.22.5.38-.18,1.62-.8,2.44-.54,1.64.75,2.34,2.48.38,2.87.3,4.81L430,202.5l.61-5.37v-4.52l-.5-3.42-.55-3.71-.84-3.47-1.66-6.43-.92-1.85-.25-4.12-.44-2.45-1.72-3.24-.85-2.33L420.69,155l-1.26-5-1.94-2.91-4.63-6.09-3.05-3.79-3.52-4.51L401,129.19l-6.86-4-5-2.52-3.62-1.5-3.32-.66-2,.38-1.57.58-.67.7-1.3.13-3-2.87-2.83-1.16-3.45-1.15-4.18-.45h-7.28l-8.78,1-5.19.86-9.06,2.93-4.58,2.16-3.36,2.13-6.08,4.8-3.65,4.71-4.95,7.05-4.53,7.54-4.46,9.29-2.11,8.76-.75,6.33.58,2.1.18,3.11-1.18,1.84-.9,3v6l1.34,9.46,1,4.47Z"/><path class="cls-6" d="M372.9,145c4.71-1.46,7.15-6.82,1.85-9.41-6.73-3.29-16.24-.3-22.22,3.23a.37.37,0,0,0,.38.64,29.34,29.34,0,0,1,12.14-4.13,27,27,0,0,1,4.92-.05l2.74.4q6.36,1,0,8.6c-.46.14-.26.87.2.72Z"/><path class="cls-6" d="M378.39,138.24c4.25-8.21-7.23-13.09-13.62-13.24-11.12-.26-22.08,5.86-29.91,13.3-.35.34.18.87.53.53a48.31,48.31,0,0,1,21-12,29.36,29.36,0,0,1,9.78-1c5.26.43,15.43,4.58,11.57,12-.23.43.42.81.64.38Z"/><path class="cls-6" d="M352.06,132.14c-4.35,2.94-9.25,5.13-13.28,8.52-4.22,3.54-6.45,8.34-8.56,13.32-.19.44.46.82.65.38,2.17-5.13,4.48-10,8.94-13.55,3.9-3.12,8.5-5.23,12.63-8,.4-.27,0-.92-.38-.65Z"/><path class="cls-6" d="M349.36,143.7a108.39,108.39,0,0,0-14.23,8.52c-.39.27,0,.92.38.64a107.67,107.67,0,0,1,14.23-8.51c.43-.21.05-.86-.38-.65Z"/><path class="cls-6" d="M334.58,153.54C321.18,161.69,325,180,322.12,193c-.9,4.09-2.06,8.44-4.44,11.94-3.78,5.54-12.65,8.7-16.78,1.58-2.27-3.91-2.57-9.68-3.09-14.1-.62-5.24-1.28-10.43,2.87-14.47,2.24-2.19,4.45-3.75,5.81-6.65s2.05-6.05,3.17-9A104.74,104.74,0,0,1,322,139.15c5.57-7.86,11.31-13.08,20.76-15.77,7.44-2.12,30.21-8.18,33.63,2.31.15.46.88.26.73-.2-2-6-8.26-6.26-13.7-6.09a81.56,81.56,0,0,0-25.59,4.77c-13.45,5-21.87,21.35-27.18,33.76-1.47,3.44-2.6,7-3.85,10.48-1.63,4.63-4.51,6.53-7.57,10-4.05,4.53-2.56,11.29-1.79,16.75.75,5.28,1.22,13.27,7,15.67,4.67,1.93,9.93-.49,12.93-4.16,12.06-14.75,0-41.72,17.59-52.43.41-.25,0-.9-.38-.65Z"/><path class="cls-5" d="M303.68,235.58a1.6,1.6,0,0,1,1.25-.37,2.34,2.34,0,0,1,1.81,1,2.48,2.48,0,0,1,.25,1.62,1.92,1.92,0,0,1-.27.88,1.51,1.51,0,0,1-1,.6,2.86,2.86,0,0,1-1.3-.1,1.82,1.82,0,0,1-.65-.27,1,1,0,0,1-.31-.41,4.59,4.59,0,0,1-.48-2,1.2,1.2,0,0,1,.14-.64,1,1,0,0,1,.67-.44"/><path class="cls-6" d="M304,235.85a1.79,1.79,0,0,1,2.26.31,2.09,2.09,0,0,1,.11,2.45,1.8,1.8,0,0,1-2.48-.26c-.41-.6-.82-2.25.1-2.52a.37.37,0,0,0-.2-.72c-1.49.43-1.17,2.22-.68,3.34a2.49,2.49,0,0,0,3.56.9,2.73,2.73,0,0,0,.29-3.53,2.55,2.55,0,0,0-3.49-.5c-.36.33.17.86.53.53Z"/><path class="cls-6" d="M308.63,211.31c-2.62,4.64-1,9.77-.06,14.7,1.25,6.58,2.37,13.15,3.42,19.77,1.49,9.38,2.93,18.65,12.79,21.92,6.59,2.19,11.14,6.5,17.15,9.67a45.76,45.76,0,0,0,18,5c6.76.38,12.8-2.3,19-4.67s12.92-4.09,18.48-7.49,11.15-9.43,15.25-14.59a24.48,24.48,0,0,0,3.84-6.42c1.47-3.85.86-8,2.33-11.89.18-.45-.55-.64-.72-.19-1.41,3.65-.84,7.52-2.08,11.22s-3.77,6.81-6.39,9.62c-5.28,5.66-10.77,11.16-18,14.07s-14.42,6-21.79,8.26c-8.49,2.65-18.13.88-26.11-2.82-5.68-2.64-10-7.33-15.92-9.52-2.35-.87-5-1.31-7.12-2.66-3.55-2.23-5-6.32-6-10.16-1.69-6.07-2.25-12.38-3.32-18.57-1.21-7-5.7-18.35-2.05-24.83.24-.42-.41-.8-.64-.38Z"/><path class="cls-6" d="M324.5,267.57c4.34,9.33,1.17,20.24,3.8,30,1.09,4,3.49,6.69,6.1,9.86,3.53,4.29,3.65,7.51,1.71,12.49a10.3,10.3,0,0,0-1,5.29.4.4,0,0,0,.38.38l52,.07a.38.38,0,0,0,.36-.27,1.26,1.26,0,0,0,0-1.15.4.4,0,0,0-.36-.28L387,324a.4.4,0,0,0-.38.38l0,.34c0,.48.73.48.75,0a25.76,25.76,0,0,1,8.19-17.63c3.58-3.28,9.37-4.45,12.06-8.61s2-10.26,2.23-14.9L411,261.42c0-.49-.72-.49-.75,0l-.77,15.4c-.29,5.74.26,12.34-1.15,17.93-1.44,5.75-6.11,6.65-10.35,9.51A25.72,25.72,0,0,0,391.2,311a26.31,26.31,0,0,0-4,9.33c-.11.54-.18,5,.29,4.58-.15.14-.67-.1-.85,0-1.86,1-7.08,0-9.19,0L346,324.83c-2.4,0-7.37,1-9.61,0-.15-.07-.65.11-.77,0-.6-.63,1.55-5.42,1.7-5.81,1-2.56,1.67-4.74.69-7.4-1.4-3.81-5-6.27-7.06-9.64-2.37-3.82-2.77-8.47-3-12.86-.41-7.26.37-15.14-2.78-21.92-.21-.44-.85-.06-.65.38Z"/><path class="cls-6" d="M326.41,279.6C313,282.52,305,292.85,295.89,302.21c-.34.35.19.88.53.53,9-9.22,17-19.54,30.19-22.42.47-.1.27-.83-.2-.72Z"/><path class="cls-6" d="M300.07,297.58c-10.54,4.91-19.69,12.89-30.94,16.26-4.84,1.45-9.71,1.8-14.42,3.81-3.85,1.64-9,3-11.6,6.51-.29.39.36.76.64.38,1.89-2.56,5.57-3.67,8.37-4.92a49.39,49.39,0,0,1,8.38-3.2c4.57-1.1,9-1.66,13.37-3.51,9.36-3.94,17.39-10.4,26.58-14.69.43-.2.05-.85-.38-.64Z"/><path class="cls-6" d="M243.84,324c-16.77,9.81-30.07,31.2-29.23,50.81,0,.48.77.48.75,0-.83-19.28,12.36-40.51,28.86-50.16a.38.38,0,0,0-.38-.65Z"/><path class="cls-6" d="M335.67,324.84q-15.54.07-31.07.71c-4.23.18-8.9-.1-13.06.7-3.51.68-4.1,3.27-6.43,5.67-1.74,1.79-3,2.41-3.27,5-.44,3.67.43,7.86.74,11.52.76,9.1,1.55,18.4-.74,27.34a.37.37,0,0,0,.72.2c1.71-6.67,1.71-13.52,1.31-20.35-.21-3.68-.57-7.35-.86-11-.37-4.67-1-7.38,2.18-11.51,2.57-3.3,5.48-5.58,9.72-6.3s9.16-.46,13.58-.62q13.58-.51,27.18-.56a.38.38,0,0,0,0-.75Z"/><path class="cls-6" d="M296.91,337.11c-1.44,0-3.27,0-4.22,1.29a2.46,2.46,0,1,0,3.17-.65c-.41-.27-.78.38-.38.64a1.76,1.76,0,0,1,.31,2.77,1.7,1.7,0,0,1-2.67-.57c-1.05-2.41,2.24-2.77,3.79-2.73a.38.38,0,0,0,0-.75Z"/><path class="cls-6" d="M294.28,362.79a1.15,1.15,0,0,1-.75-1.88,1.58,1.58,0,0,1,2-.21,1.7,1.7,0,0,1-1.45,3,.37.37,0,0,0-.2.72,2.44,2.44,0,0,0,1.59-4.61A2.25,2.25,0,0,0,292.6,361a1.92,1.92,0,0,0,1.68,2.52c.48,0,.48-.72,0-.75Z"/><path class="cls-6" d="M303,242.25l-3.7,3.83-3.18,4.2s-5.12,9,0,15.9c0,0,1.53,4.5,3.33,6s1.18,3,1.34,4.29,1.27,3.09,2.21,3.45,2.14-.65,3.65.23,7.33,6,16.09.76l4.66-1.59-.58-4.38L325.13,268l-.93-.78-2.82-1-1.5-1.05-2.1-1.88-1.58-3.15-2.76-8.46-1.75-10.4-.59-3.19-.32,1.23-1,1.16-.92,1.35-1.33,1-1.06.21h-1.54l-1.88-.87"/><path class="cls-6" d="M306.41,215.43c-1.4,1.12-1.39,2.95-1.3,4.62.05,1.11.35,2.25.3,3.36a9.89,9.89,0,0,1-1,3.5c-.13.31-.57.52-.61.87-.07.71.63,1.31.62,1.54l-1.21,2.07a4.9,4.9,0,0,1-1-1.76,11.24,11.24,0,0,1-.74-2.46c-.43-2.34-.59-5.61,1.26-7.42.35-.33-.18-.86-.53-.53-2.45,2.39-2,6.91-1,9.9.57,1.7,2.1,4.72,4.3,3.18,1.09-.77.88-1.85.76-2.93,0-.3-.67-.46-.72-.63a3.68,3.68,0,0,1,.08-2,11.42,11.42,0,0,0,.55-3.62c-.11-2.13-1.18-5.55.8-7.13.38-.3-.16-.83-.53-.53Z"/><path class="cls-6" d="M310.74,237.21c-.4,2-2.09,5-4.45,5.42-3.56.55-5.05-3.48-6-6a55.58,55.58,0,0,1-2.9-12c-.6-4.32-1-8.77.09-13,.47-1.79,2.27-8.48,4.63-7.83a.38.38,0,0,0,.19-.73c-2.89-.79-3.86,3.5-4.57,5.46-2.45,6.82-1.79,13.75-.3,20.77.79,3.78,2.19,12.69,7,14.06,3.54,1,6.46-2.91,7-5.9.09-.48-.63-.68-.72-.2Z"/><path class="cls-6" d="M303.36,210.27c-1.18-2.64-3.49-.57-4.28,1.22-2.07,4.72-.35,11,.46,15.85.08.48.8.28.72-.2-.49-2.93-1-5.89-1.21-8.86a17.18,17.18,0,0,1,.16-4.53l.28-1.16q.3-2.64,3.22-1.94c.2.44.84.06.65-.38Z"/></g></svg>