<svg xmlns="http://www.w3.org/2000/svg" width="23.243" height="23.243" viewBox="0 0 23.243 23.243">
  <g id="Group_114" data-name="Group 114" transform="translate(0.5 0.5)">
    <ellipse id="Ellipse_261" data-name="Ellipse 261" cx="11.122" cy="11.122" rx="11.122" ry="11.122" transform="translate(0)" fill="none" stroke="#fff" stroke-miterlimit="10" stroke-width="1"/>
    <g id="Group_104" data-name="Group 104" transform="translate(0.56 7.014)">
      <path id="Path_230" data-name="Path 230" d="M0,0H8.948" transform="translate(0.495)" fill="none" stroke="#fff" stroke-width="1"/>
      <path id="Path_231" data-name="Path 231" d="M0,0H9.114" transform="translate(11.825)" fill="none" stroke="#fff" stroke-width="1"/>
      <path id="Path_232" data-name="Path 232" d="M0,0H7.1" transform="translate(0 7.921)" fill="none" stroke="#fff" stroke-width="1"/>
      <path id="Path_233" data-name="Path 233" d="M0,0H7.1" transform="translate(14.123 7.921)" fill="none" stroke="#fff" stroke-width="1"/>
    </g>
    <g id="Path_228" data-name="Path 228" transform="translate(-3033.944 -811.213)" fill="none" stroke-miterlimit="10">
      <path d="M3045.065,814.88l2.28,4.619,5.1.74-3.688,3.6.871,5.077-4.559-2.4-4.56,2.4.871-5.077-3.688-3.6,5.1-.74Z" stroke="none"/>
      <path d="M 3045.06494140625 817.1390991210938 L 3043.682373046875 819.9410400390625 L 3043.44970703125 820.4125366210938 L 3042.929443359375 820.4881591796875 L 3039.837158203125 820.9373168945313 L 3042.074462890625 823.1182861328125 L 3042.450927734375 823.4852905273438 L 3042.362060546875 824.0034790039063 L 3041.833740234375 827.0830078125 L 3044.599609375 825.6290283203125 L 3045.06494140625 825.3843994140625 L 3045.5302734375 825.6290283203125 L 3048.2958984375 827.0830078125 L 3047.767822265625 824.0033569335938 L 3047.678955078125 823.4852294921875 L 3048.055419921875 823.1182861328125 L 3050.29296875 820.9373168945313 L 3047.200927734375 820.4881591796875 L 3046.6806640625 820.4125366210938 L 3046.447998046875 819.9411010742188 L 3045.06494140625 817.1390991210938 M 3045.06494140625 814.8795166015625 L 3047.3447265625 819.49853515625 L 3052.44189453125 820.239013671875 L 3048.75341796875 823.8343505859375 L 3049.6240234375 828.9110107421875 L 3045.06494140625 826.51416015625 L 3040.50537109375 828.9110107421875 L 3041.37646484375 823.8343505859375 L 3037.68798828125 820.239013671875 L 3042.78564453125 819.49853515625 L 3045.06494140625 814.8795166015625 Z" stroke="none" fill="#fff"/>
    </g>
  </g>
</svg>
