<svg xmlns="http://www.w3.org/2000/svg" xmlns:xlink="http://www.w3.org/1999/xlink" viewBox="0 0 800 500"><defs><style>.cls-1{fill:none;}.cls-2{clip-path:url(#clip-path);}.cls-3{fill:#efefef;}.cls-4{fill:#a693f0;}.cls-5{fill:#8a72f7;}.cls-6{fill:#471188;}.cls-7{fill:#7837f1;}.cls-8{fill:#4e008e;}</style><clipPath id="clip-path"><rect class="cls-1" width="800" height="500"/></clipPath></defs><title>Wall of Support</title><g id="Drawing_1"><g class="cls-2"><rect class="cls-3" width="800" height="500"/><polygon class="cls-4" points="284.52 320.73 281.32 321.58 277.45 322.57 269 321.78 261.27 319.81 254.07 315.1 248.31 309.01 242.48 295.65 241.76 285.63 242.48 275.93 247.72 267.75 252.76 262.77 256.49 260.54 260.55 261.79 278.32 310.86 284.52 320.73"/><polygon class="cls-5" points="359.01 193.32 353.6 203.28 345.74 212.71 333.51 222.84 322.69 228.08 312.56 231.57 307.84 231.4 275.88 249.21 257.02 260.74 252.3 268.95 250.03 280.48 249.86 287.11 253 297.59 259.29 307.2 265.75 313.13 272.56 316.8 279.02 319.25 286.18 320.12 295.62 317.85 296.31 320.82 295.79 326.58 292.12 336.19 288.45 344.75 288.45 350.51 290.55 352.78 295.96 348.59 301.03 347.37 303.3 346.14 306.62 341.08 310.11 337.76 313.08 338.29 315.31 339.33 317.14 340.77 318.19 345.1 317.8 350.33 317.53 352.3 318.84 352.69 321.07 347.45 326.57 341.04 335.61 336.06 340.19 333.83 344.78 322.7 343.73 318.77 346.75 311.04 349.1 297.55 370.45 291.78 379.88 291.65 386.83 291.52 394.16 293.36 396.52 294.01 384.6 277.24 378.84 265.72 371.24 247.12 366.52 230.35 361.02 202.06 359.01 193.32"/><polygon class="cls-5" points="352.12 409.8 352.77 413.34 352.51 416.88 351.85 419.1 349.5 420.94 345.7 422.77 340.46 424.08 335.22 423.69 331.94 420.81 320.02 404.83 319.89 403.25 325.52 403.78 329.19 403.39 328.8 405.74 329.19 408.89 332.07 411.9 337.31 412.56 344.39 412.69 352.12 409.8"/><polygon class="cls-5" points="314.91 395.79 309.15 385.96 303.26 374.57 306.01 371.82 308.63 367.23 309.41 363.3 315.7 355.97 317.53 353.48 318.19 355.71 318.32 358.72 319.89 360.55 323.95 363.56 325.79 363.96 325.79 365.4 314.65 371.95 311.12 376.8 310.2 379.55 310.07 383.21 311.38 386.36 315.18 388.58 319.5 388.98 318.98 390.29 316.36 394.35 315.7 397.36 314.91 395.79"/><path class="cls-4" d="M358,168.57s-.79-41.41,21.3-57.18,48.89.39,48.89.39,47.72,26.82,68.23,87.55c0,0,23.66,53.23,12.22,97.79,0,0-11.44,47.72-55.6,35.5,0,0-74.61-14.42-90.7-123.43C362.31,209.19,356.39,181.58,358,168.57Z"/><path class="cls-6" d="M358.6,168.57c-.3-17.74,3.69-39.5,16.38-52.64,14.56-15.08,38.42-12.77,55-2.33,15.63,9.86,29.28,23.4,40.41,38.05,13.73,18.08,22.85,38.81,30.11,60.19,9.06,26.66,14.92,57.47,7.52,85.21-3.4,12.76-11.24,25.65-22.92,32.27-22.68,12.85-52.91-3.06-70.61-17.72-37-30.67-50-79.3-55.27-125.25-.67-5.88-1.21-11.87-.58-17.78.08-.8-1.17-.79-1.25,0-1.27,12,1.25,24.69,3.49,36.45,2.47,12.95,4.6,25.85,8.59,38.46,7.31,23.15,19.18,45.1,36.6,62.21,16.64,16.33,44.5,34,69.3,28.66,16.59-3.6,27.69-18.34,32.88-33.71,8.05-23.88,4-51.73-2.39-75.5-11.65-43.24-34.2-84.31-71.66-110.24-12.67-8.77-29-14-44.25-9.41-24,7.18-31.11,35.06-32.39,57.21-.12,2-.21,3.91-.17,5.87A.63.63,0,0,0,358.6,168.57Z"/><path class="cls-5" d="M376.11,146.88s7.49-19.72,15-24.45,25.63-8.28,45.74,6.31,77.69,81.63,65.07,151c0,0-1.58,53.63-55.21,35.1S362.31,187.5,376.11,146.88Z"/><path class="cls-6" d="M376.71,147.05c2.58-6.72,5.77-13.63,10.09-19.41,5.51-7.36,14.92-9.25,23.71-8.6,18.89,1.4,33.12,15,44.9,28.5,28.27,32.46,50.42,76,47.39,120-1.38,20.07-5.67,46.37-29.75,50.15-17.28,2.71-35.47-5.53-48.08-16.87-13.31-12-23.05-27.62-30.65-43.66a224.2,224.2,0,0,1-18.56-59.66c-2.67-16.28-4.32-34.52.95-50.47.26-.77-.95-1.1-1.2-.34-4.78,14.47-3.8,30.73-1.79,45.59A225.32,225.32,0,0,0,389.32,249c13.48,32.12,37.66,69.17,76.49,70.34,13.55.4,25.05-6.24,31.17-18.34,3.41-6.76,4.66-13.82,5.55-21.23,1.48-12.24,2.33-24,.72-36.27a152.55,152.55,0,0,0-9.4-35.68,211.67,211.67,0,0,0-33.64-56.57c-11-13.43-24-27.42-41.39-32.07-8.31-2.22-17.8-2.32-25.7,1.42-7.5,3.55-11.49,12.29-14.78,19.45-1,2.18-2,4.39-2.83,6.63C375.22,147.47,376.43,147.79,376.71,147.05Z"/><polygon class="cls-7" points="545.47 75.13 527.3 119.74 520.07 106.48 500.77 147.9 523.12 125.77 530.92 133.01 545.47 75.13"/><path class="cls-6" d="M544.87,75,526.7,119.58l1.14-.15-7.23-13.27a.63.63,0,0,0-1.08,0l-19.3,41.43a.63.63,0,0,0,1,.75l16.24-16.08c1.33-1.31,4.22-5.52,6.08-6-1.31.35-.28.22.36,1.1a19.81,19.81,0,0,0,2.68,2.49l3.9,3.62a.63.63,0,0,0,1-.28l14.56-57.88a.63.63,0,0,0-1.21-.33l-9.08,36.11L531,130.24a12.66,12.66,0,0,0-.52,2.08c-.07,1,.84.46.38-.24-1.64-2.54-5-4.68-7.26-6.75a.64.64,0,0,0-.89,0l-22.35,22.13,1,.76,14.11-30.28c1.72-3.71,3.5-7.39,5.18-11.12-.39.86-1-.76-.74.59a5.1,5.1,0,0,0,.72,1.31l2.33,4.27,3.85,7.07a.63.63,0,0,0,1.14-.15l18.18-44.62C546.38,74.55,545.17,74.22,544.87,75Z"/><polygon class="cls-7" points="604.97 130.77 569.58 179.47 565.27 164.6 516.38 218.13 557.24 184.92 564.21 207.57 604.97 130.77"/><path class="cls-6" d="M604.43,130.46,569,179.16l1.15.15-4.32-14.88a.63.63,0,0,0-1-.28l-48.9,53.54a.63.63,0,0,0,.89.89l33.12-26.93c2-1.65,4.93-3.29,6.57-5.34a4.42,4.42,0,0,1,1.15-.94c-1.6.73-.79-.91-.78.49a6.85,6.85,0,0,0,.45,1.46l6.28,20.42a.63.63,0,0,0,1.14.15l35.65-67.18,5.11-9.62c.38-.71-.7-1.35-1.08-.63l-35.65,67.17-5.11,9.63,1.14.15-7-22.66a.63.63,0,0,0-1-.28l-40.87,33.22.89.89L539.25,194l16.3-17.85c2.91-3.19,7.56-6.76,9.66-10.58.67-1.22-.38,0-.46-.53a36.34,36.34,0,0,0,1.28,4.41l3,10.17a.63.63,0,0,0,1.14.15l35.39-48.7C606,130.43,604.9,129.81,604.43,130.46Z"/><path class="cls-6" d="M263.45,256.24c-10.72,4.6-15,16.9-14.19,27.86a39.29,39.29,0,0,0,18.14,30.44c5,3.17,11.35,5.74,17.4,5.72,7.17,0,14.86-3.56,21.69-5.54l24-7c4.59-1.33,11.85-2.06,13.47-7.48a.62.62,0,0,0-.76-.77c-9.67,3.2-19.19,4.67-28.33-.78-8.45-5.05-14-13.46-17.36-22.56a44.73,44.73,0,0,1-1-26.07,26.73,26.73,0,0,1,5.77-11.79c3.12-3.42,7.26-4.53,11.13-6.77a.63.63,0,0,0-.31-1.16c-8.62-.67-16.12,5.81-23.07,10q-13.56,8.2-27.68,15.45c-.72.37-.09,1.45.63,1.08q12.44-6.42,24.48-13.53c7.54-4.48,16.43-12.48,25.64-11.77l-.32-1.17c-6.42,3.7-11.7,5.53-15.13,12.61-2.86,5.91-3.84,12.88-3.82,19.39,0,14.37,8,29.9,20.46,37.35a27.08,27.08,0,0,0,18.15,3.71,59.81,59.81,0,0,0,5.91-1.28c-.3.08,3.55-.93,3.53-1,.45,1.39-3.3,2.77-4.28,3.13-4.78,1.75-9.89,2.88-14.78,4.3Q308,313,293.22,317.27c-5.06,1.47-9.5,2.13-14.71.78a37.9,37.9,0,0,1-28.07-35.59c-.26-10.09,3.85-20.93,13.64-25.14.73-.31.1-1.39-.63-1.08Z"/><path class="cls-6" d="M286,253.69l-2.38,1c-.46.19-1.67,1-2.21.9-1.4-1.47-1.51-2.48-.31-3l.65-.41c.77-.47,1.56-.91,2.36-1.33s1.38-.69,2.09-1c.53-.24,1.08-.47,1.63-.68.86-.6,1.18-.25.94,1.06q.85,1.5-.69,2a8.52,8.52,0,0,1-1.1.52c-.78.35-1.59.66-2.38,1s-.42,1.51.33,1.21c2.31-.94,6.38-2.08,6.13-5.32-.29-3.66-4.37-1.4-6.2-.54-2.12,1-7.23,2.9-6.81,6,.55,4.08,6.48.57,8.28-.18.73-.31.41-1.52-.33-1.21Z"/><path class="cls-6" d="M284.28,319.65c-15.46,7.06-34-4-39.46-19.1-2.43-6.72-3.33-16-1.53-23,2.1-8.13,8.52-13.67,15.65-17.47.71-.38.08-1.46-.63-1.08-7.22,3.85-13.54,9.35-16,17.43s-1.23,19.12,2.23,26.84c6.58,14.74,25,24.49,40.35,17.5.74-.33.1-1.41-.63-1.08Z"/><path class="cls-8" d="M438.37,168.61C415,161.38,390.27,167,373.13,182c.47,2.75,1.1,9.93,1.63,12.66,5.2,26.86,12.1,51.09,24.85,74.05,2.2,3.95,4.74,7.9,7.25,11.68,4.95,7.47,11.15,14.17,17.41,20.52a67.8,67.8,0,0,0,14.1-132.31"/><path class="cls-6" d="M358.54,191.67a66.16,66.16,0,0,1-19.46,26.05c-7.54,6.14-16.93,9.39-25.78,13.09-.74.31-.42,1.52.33,1.21,9.07-3.79,18.63-7.12,26.34-13.42A67.12,67.12,0,0,0,359.75,192c.29-.75-.91-1.07-1.21-.33Z"/><path class="cls-6" d="M344,299.91a151.77,151.77,0,0,1,25.34-6.51c8.8-1.38,18-2.32,26.45.86.75.29,1.08-.92.33-1.2C388,290,379.5,290.71,371,291.89a150,150,0,0,0-27.36,6.82c-.75.26-.43,1.46.34,1.2Z"/><path class="cls-6" d="M322.24,346.63c-.46-.5-.93-1-1.39-1.52-.09-.1-.29-.34-.15-.16-.54-.66-1.14-1.29-1.72-1.92s-1.43.29-.88.88.93,1,1.38,1.52c.1.11.3.35.15.16.55.67,1.14,1.29,1.73,1.93s1.42-.3.88-.89Z"/><path class="cls-6" d="M348.1,298.54c-1.2,6.28-1.37,15-5.29,20.28a.61.61,0,0,0,.09.75c2.89,2.9-1.95,11-3.52,13.74a.63.63,0,0,0,1.08.63,37.74,37.74,0,0,0,4-9.41c.53-2.21-.29-3.7-.21-5.59,0-.82,1.17-2.49,1.45-3.31a54.34,54.34,0,0,0,1.49-5.6c.82-3.7,1.4-7.44,2.11-11.16.15-.79-1.06-1.12-1.21-.33Z"/><path class="cls-6" d="M294.52,318.07c4.17,4.8-2.58,15.9-4.41,20.68-1.54,4-4.26,10.18-.93,14,.53.6,1.41-.28.88-.89-4.17-4.79,2.58-15.9,4.42-20.68,1.54-4,4.25-10.17.93-14-.53-.61-1.41.28-.89.88Z"/><path class="cls-6" d="M319,342.62c-1.35-1.2.93-7,1.33-8.38,1.12-3.93,2.41-7.8,3.61-11.7.79-2.55,4.82-11.31,2.3-13.77-.58-.56-1.46.32-.89.88,1.33,1.29-1,7-1.39,8.48-1.12,3.93-2.41,7.8-3.61,11.71-.75,2.43-4.81,11.37-2.23,13.67.59.53,1.48-.35.88-.89Z"/><path class="cls-6" d="M244.36,300.05l8.34-3.77c.73-.33.1-1.4-.63-1.08L243.73,299c-.73.33-.1,1.4.63,1.07Z"/><path class="cls-6" d="M242.68,290.79l7.85-3.67c.73-.35.1-1.42-.63-1.08l-7.85,3.67c-.73.34-.09,1.42.63,1.08Z"/><path class="cls-6" d="M242.39,280.83l7.85-3.57c.73-.34.09-1.41-.63-1.08l-7.85,3.57c-.73.33-.1,1.41.63,1.08Z"/><path class="cls-6" d="M246.33,270.18l6.1-2.73c.73-.33.1-1.41-.63-1.08l-6.1,2.73c-.73.33-.1,1.41.63,1.08Z"/><path class="cls-6" d="M248.3,308.53l9-4c.73-.33.1-1.41-.63-1.08l-9,4c-.73.33-.1,1.4.63,1.08Z"/><path class="cls-6" d="M254.51,315.34l8.54-4.27c.72-.36.09-1.44-.63-1.08l-8.54,4.27c-.72.36-.08,1.43.63,1.08Z"/><path class="cls-6" d="M263.49,320.66l7.25-4.17a.63.63,0,0,0-.63-1.08l-7.26,4.17a.63.63,0,0,0,.64,1.08Z"/><path class="cls-6" d="M275.12,322.73l6.1-2.74c.73-.32.1-1.4-.63-1.08l-6.1,2.74c-.74.33-.1,1.41.63,1.08Z"/><path class="cls-6" d="M298.37,375.91a13,13,0,0,0,11.74-11c.11-.79-1.09-1.13-1.2-.34a11.75,11.75,0,0,1-10.54,10.12c-.8.06-.8,1.31,0,1.25Z"/><path class="cls-6" d="M298.05,363.73a11.75,11.75,0,0,0,11.45.66c4.55-2.28,6.3-7.38,7.74-11.93,1.33-4.24,2.27-9.34-.86-13.06-2.14-2.52-6.31-3.5-8.92-1-1.22,1.18-1.07,2.57-1.81,4-2,3.88-5.1,3.44-8.53,5-4.76,2.16-8.29,6.22-11.19,10.45-2.77,4.05-6.31,8.94-7.1,13.88-.48,3,.3,6,1,8.9a51.36,51.36,0,0,1,1.48,12.94c-.09,7.28-1,14.89,1.81,21.81,2.65,6.46,8.08,11.15,13.26,15.57.61.52,1.5-.36.88-.88-4.49-3.84-9.21-7.82-12-13.13-3.39-6.42-2.94-13.69-2.74-20.71A60,60,0,0,0,281,380.28c-1-4.38-1.59-8.25.44-12.5a69.88,69.88,0,0,1,4-6.92c2.85-4.56,6.26-9.2,11.1-11.8,3.18-1.71,8-1.28,9.85-4.87.35-.68.34-1.46.62-2.16,1.52-3.78,4.7-4.47,8-2.27,3.68,2.42,2,9.14,1,12.37-2.46,7.79-8.25,16-17.35,10.52a.63.63,0,0,0-.63,1.08Z"/><path class="cls-6" d="M325.41,361.82c-4.33.8-6.2-3.75-5-7.19a9.6,9.6,0,0,1,4.79-5.22c3.61-1.57,5.66,2.81,5.52,5.87s-3.51,5.33-5.82,6.87c-.67.44-.05,1.52.63,1.08,3.69-2.45,7.22-5.19,6.17-10-.72-3.33-2.5-6.6-6.43-5.18-3.67,1.33-6.78,5.4-6.53,9.36a5.86,5.86,0,0,0,7,5.64c.79-.15.46-1.35-.33-1.21Z"/><path class="cls-6" d="M327.41,364.22c8.87-1.34,13.58-10.34,22.25-12.1.79-.16.46-1.37-.33-1.21-8.69,1.77-13.45,10.77-22.25,12.11-.8.12-.46,1.32.33,1.2Z"/><path class="cls-6" d="M346.07,353.1v.65a.63.63,0,0,0,1.25,0v-.65a.63.63,0,0,0-1.25,0Z"/><path class="cls-6" d="M326.92,363.27c-6.93.25-10.4-6.52-7.14-12.48,1.47-2.69,3.87-5.15,5.82-7.51,3.76-4.58,8.27-6.73,13.82-8.51,4.74-1.52,9.5-4,13.52.15,5.17,5.35,1.95,11.66-.06,17.75-.25.77,1,1.1,1.21.34,1.92-5.83,6.33-13.79.56-18.41-2-1.63-3.84-3.68-6.62-3.64-4.38.07-10.15,2.77-14.17,4.44a21.49,21.49,0,0,0-8.69,6.44c-2.61,3.13-6.16,6.62-7.6,10.54-2.44,6.6,2.74,12.37,9.35,12.14.81,0,.81-1.28,0-1.25Z"/><path class="cls-6" d="M318,386.64c-7.33,1.35-5.57-12,.78-12,3.05,0,5.6,4.91,4.91,7.53s-3.49,3.9-5.81,4.73c-.75.27-.43,1.48.33,1.21,3.34-1.21,7.19-3.42,6.85-7.54-.28-3.37-3.38-7.78-7.15-7.1-7.42,1.34-8.4,16,.43,14.34.79-.15.45-1.35-.34-1.21Z"/><path class="cls-6" d="M320.23,388.18c-3.87.19-7.8.34-9.23-4.88-.92-3.39.58-7,3-9.38,3.51-3.45,8.42-6,12.48-8.71.66-.44,0-1.53-.63-1.07-5.63,3.79-14.92,7.72-16.16,15.28-1.2,7.38,4,10.33,10.55,10,.8,0,.8-1.28,0-1.25Z"/><path class="cls-6" d="M345.59,354.84a25.26,25.26,0,0,1,8.63.11c3.48.85,4.92,3.16,7,5.75,3.63,4.6,4.66,8.86,5.65,14.54.14.79,1.34.45,1.21-.34-.6-3.39-1-7.27-2.47-10.42-1.11-2.39-3.21-4.55-4.86-6.56-4-4.86-9.19-4.93-15.13-4.33-.79.08-.8,1.34,0,1.25Z"/><path class="cls-6" d="M321,389.47c12.37-7.92,30.95-23.09,45.8-13.36.68.44,1.31-.64.64-1.08-6.41-4.2-14.19-4.29-20.95-1.4-9.22,3.94-17.7,9.37-26.12,14.76-.68.43-.05,1.51.63,1.08Z"/><path class="cls-6" d="M320.7,388.14c-3.54,2.21-6.45,6.84-4.89,11.13,1.78,4.9,9.46,6.05,13.82,4.76,2.85-.85,4.64-2.89,6.81-4.8,3.25-2.87,6.87-3.82,10.78-5.45,4.83-2,8.51-3.95,13.86-4,4.68,0,9.33.95,14,1.33a.63.63,0,0,0,.6-.46c1.85-8,0-12.8-8.11-15a.63.63,0,0,0-.33,1.21,16.46,16.46,0,0,1,4.86,1.77c2.08,1.39,4.9,7.15,2.79,9.87-1.72,2.23-6.15.62-8.56.37-5.77-.6-10.75-.31-16.07,2.11-4.79,2.16-10.17,3.28-14.15,6.84-3.69,3.31-6.94,6.11-12.37,5.1-3.81-.71-7.85-2.1-6.79-7.94a9.25,9.25,0,0,1,4.4-5.79c.68-.42.05-1.5-.63-1.08Z"/><path class="cls-6" d="M318.65,394.46a17.49,17.49,0,0,1,3-2.43c1.93-1.07,3.43,0,4.36,1.64,1.14,2.05,3.57,6.21.08,7.42-2.14.74-6.47,1.44-7.82-.68-1.15-1.81-.67-4.26.41-6,.43-.68-.65-1.31-1.08-.63-1.51,2.38-1.88,6.09.38,8.17,1.33,1.22,2.76,1.13,4.42.91s4.31-.16,5.7-1.28c2.82-2.28-.19-7.37-1.62-9.6-2.62-4.09-6-.88-8.66,1.55-.6.54.28,1.42.88.88Z"/><path class="cls-6" d="M330.23,403.18c-.91,1.92-1.27,4.76.37,6.47s4.07,1,5.79.13,3.79-3,4-5.18-2.66-4.59-4.24-5.88c-.62-.5-1.51.38-.88.89a20.33,20.33,0,0,1,2.6,2.48c1.58,1.82,1.27,3.6-.32,5.26a6.15,6.15,0,0,1-3.6,1.93c-3.53.39-3.73-3.2-2.66-5.47.34-.73-.73-1.36-1.08-.63Z"/><path class="cls-6" d="M329.05,404.17c-2.65,5.37,2.81,8.38,7.49,8.76A28.3,28.3,0,0,0,349,411.27c5.43-2.09,11-6,16.74-2.31.67.44,1.3-.64.63-1.08-4.23-2.77-8.72-1.72-13.13.14-3.65,1.54-6.92,3.17-10.94,3.61a31.57,31.57,0,0,1-4.24.13c-2.67-.1-11.08-.61-7.94-7,.35-.72-.73-1.35-1.08-.63Z"/><path class="cls-6" d="M374.1,391.15c4.46,3.41,6.17,6.57,4.83,12.49a27.49,27.49,0,0,1-4,9c-2.91,4.62-3.71,10.49-6.22,15.44-2.92,5.75-5.95,12.15-11.89,15.31a19.46,19.46,0,0,1-9.94,2.32c-.16,0-11.2-2.37-10.87-2.7.57-.57-.32-1.45-.89-.88-3,3,10,4.76,11.76,4.83,8.33.34,15-4.41,19.18-11.31a87.27,87.27,0,0,0,6.44-12.77c1.15-2.91,1.56-6,3.15-8.67a47,47,0,0,0,2.72-4.7c1.5-3.36,3-8,2.35-11.67-.6-3.53-3.32-5.7-6-7.76-.64-.49-1.26.59-.63,1.07Z"/><path class="cls-6" d="M286.47,421.82c1.86,8.69.2,17.21-1.42,25.79-1.39,7.36-2.71,14.73-4.19,22.07-2.9,14.35-9.72,27.8-15.31,41.25-.31.74.9,1.06,1.2.33,6.1-14.66,13-29,16-44.67,2.74-14.34,8.08-30.48,5-45.1-.17-.78-1.37-.45-1.21.33Z"/><path class="cls-6" d="M350.87,445.63c-6.36,3.91-9.91,7.73-10.76,15.18s-1.38,15.06-1.86,22.61c-1.05,16.35-1.69,32.76-3.62,49-.1.8,1.15.79,1.25,0,1.68-14.16,2.36-28.42,3.22-42.64.42-6.94.85-13.89,1.45-20.82.27-3.16.55-6.33,1-9.47.82-6.22,4.85-9.66,10-12.82.68-.42.05-1.5-.64-1.08Z"/><path class="cls-6" d="M302.53,374.77l12.18,21.74c.39.7,1.47.07,1.08-.63l-12.18-21.75a.63.63,0,0,0-1.08.64Z"/><path class="cls-6" d="M319.42,404l7.79,11.09c1.73,2.47,3.84,7.26,6.4,8.94,4.41,2.89,11.08.07,15.11-1.83,5.59-2.64,5.28-7.11,3.55-12.53-.25-.76-1.46-.44-1.21.33,1.05,3.29,2.28,7.38-.93,10a23.34,23.34,0,0,1-7.83,3.53c-4.16,1-7.45.23-9.4-2.54l-12.4-17.66c-.45-.66-1.54,0-1.08.63Z"/></g></g></svg>