<svg xmlns="http://www.w3.org/2000/svg" xmlns:xlink="http://www.w3.org/1999/xlink" viewBox="0 0 800 500"><defs><style>.cls-1{fill:none;}.cls-2{clip-path:url(#clip-path);}.cls-3{fill:#efefef;}.cls-4{fill:#5822cc;}.cls-5{fill:#a693f0;}.cls-6{fill:#471188;}.cls-7{fill:#7837f1;}.cls-8{fill:#8a72f7;}.cls-9{fill:#4e008e;}</style><clipPath id="clip-path"><rect class="cls-1" width="800" height="500"/></clipPath></defs><title>Wall of Support</title><g id="Drawing_1"><g class="cls-2"><rect class="cls-3" width="800" height="500"/><polygon class="cls-4" points="646.1 463.84 646.63 461.81 648.49 462.34 651.4 469.29 653.04 476.54 656.8 494.7 658.71 503.07 653.89 503.07 649.33 492.85 644.4 480.89 635.39 467.2 631.2 461.89 631.89 460.96 635.81 463.01 639.18 464.64 642.55 464.99 644.54 465.06 646.1 463.84"/><polygon class="cls-5" points="456.2 503.83 456.83 500.16 457.56 492.29 460 472.74 460.9 464.11 461.54 454.14 463.39 447.69 468.42 442.39 473.07 430.5 477.79 413.66 484.52 388.06 489.41 377.38 493.44 371.59 500.59 367.83 511.84 364.29 518.14 363.52 528.3 362.37 537.35 361.95 544.05 361.9 549.31 363.33 556.36 367.14 565.99 374.77 575.7 384.36 582.81 391.72 593.84 401.82 598.42 405.2 601.19 409.52 606.73 423.69 608.25 430.93 610.65 437.23 615.83 443.11 622.83 451.35 634 466.23 641.46 475.46 654.99 504.7 456.2 503.83"/><polygon class="cls-5" points="659.23 505.3 657.06 495.9 652.38 474.24 649.45 465.56 646.9 460.74 644.77 455.49 639.79 446.86 631.93 429.32 628.48 410.85 624.77 393.36 622.12 385.88 618.47 381.01 610.26 373.84 603.9 364.15 602.52 356.95 603.69 355.94 613.09 365.42 626.47 383.29 633.45 393.51 637.39 399.78 638.77 405.79 640.64 415.62 641.58 427.89 643.1 435.11 646.44 442.76 656.35 461.32 661.49 469.43 663.46 475.03 665.58 479.43 666.93 487.89 665.73 496.76 665.3 503.56 659.23 505.3"/><path class="cls-6" d="M457.07,502.1c1.07-11.38,2.88-22.68,4.07-34.05.55-5.26.11-11.08,1-16.23.55-3.11,3.28-4.36,5.09-6.64,1.41-1.78,1.77-3.89,2.77-5.95,8.71-18,9.94-38.5,17.12-57,2.93-7.59,7.74-11.53,15.32-14.32S518,364,525.87,363.23c8.87-.89,17.76-2.2,26,2,6.74,3.41,12.54,8.76,17.89,14S580,390,585.34,395.11c2.56,2.48,5.2,4.88,8,7.1,2,1.61,4.52,2.87,6,5,2.31,3.33,3.34,7.9,4.54,11.73,1.46,4.65,2.76,9.35,4.39,14,1.24,3.49,2.41,6.29,5.16,8.79,6.08,5.5,10.44,12.47,15.68,18.71a128.11,128.11,0,0,1,22.43,38.27c.27.75,1.48.43,1.2-.33A125.86,125.86,0,0,0,634,464.23c-4.2-5.37-8.5-10.71-12.78-16-3.74-4.63-8.68-7.88-10.91-13.49-3.48-8.76-4.82-18.55-9.2-26.94-2.24-4.31-7.07-6.49-10.62-9.64-6-5.27-11.3-11.19-16.86-16.87-10.32-10.54-21.54-21-37.2-20.19-13.91.76-31.81,1.59-43.49,10.16-7.46,5.48-9.52,18.08-11.7,26.42-2.92,11.19-5.23,22.65-9,33.59-1.94,5.57-4.37,11.64-8.5,15.74-3.83,3.82-2.68,8-3.06,13.14-1,14.06-3.46,27.95-4.78,42-.08.8,1.18.79,1.25,0Z"/><path class="cls-6" d="M628.44,459.61c3.86,3,10.62,7.05,15.81,6.12,2.37-.42,3.84-1.77,3.71-4.26-.12-2.17-1.59-4.36-2.59-6.18-2.08-3.77-4.32-7.44-6.43-11.19-5.17-9.14-7.11-17.75-8.9-28-1.65-9.42-2.91-19.3-6.4-28.26-1.64-4.21-3.82-6.59-7.33-9.45-7.57-6.16-12.64-13.57-13.16-23.56l-1.07.44c7.31,6.83,13.72,14.85,19.77,22.8q3.76,4.95,7.29,10.09c2.56,3.72,5.94,7.76,7.71,11.92,1.54,3.62,1.67,8.09,2.15,11.94.62,5,1.15,10,1.83,15,.5,3.64.89,6.87,2.68,10.08,4.46,8,6.77,16.6,12,24.13,4.14,5.94,7.59,10.77,9,17.94,1.22,6,2.42,13.36.8,19.46a.62.62,0,0,0,1.2.33c2.11-7.93.27-18.48-2.35-26.09-1.77-5.14-5.61-9.25-8.61-13.71-4.23-6.29-6.06-13.56-9.61-20.19a28.44,28.44,0,0,1-3.7-10.46c-.71-4.76-1.21-9.55-1.78-14.33-.44-3.65-.84-7.32-1.53-10.92-.73-3.81-2.7-6.51-4.82-9.79-8.92-13.8-19.15-27.8-31.2-39a.63.63,0,0,0-1.06.44,30.91,30.91,0,0,0,6.5,17.75c3.78,4.82,10.06,7.55,12.91,13,4.77,9.19,5.77,20.76,7.53,30.81.84,4.82,1.61,9.68,2.82,14.42,1.35,5.26,4,10,6.65,14.67,2.12,3.73,4.43,7.37,6.42,11.18,1.26,2.41,3.55,6.5-.43,7.75a8.46,8.46,0,0,1-3.61,0c-3.6-.77-8.49-3.45-11.37-5.7-.63-.49-1.52.39-.88.88Z"/><path class="cls-6" d="M647.15,462.13c3.26,4.64,4.26,11.73,5.59,17.12a140.6,140.6,0,0,1,3.7,17.8c.09.79,1.34.8,1.25,0A143.61,143.61,0,0,0,654,478.92c-1.36-5.52-2.38-12.66-5.72-17.42-.46-.66-1.55,0-1.08.63Z"/><path class="cls-6" d="M568.19,225.68c1.84,2.44,4.07,5.23,7.46,4.95,4-.32,7.12-4.36,10.9-5.58,9.08-2.94,17.74-3.33,25.27-9.72,8.32-7.07,15.15-15.69,23.11-23.14,4.7-4.4,10.43-7.86,15-12.33,4-3.88,1.85-7.85-.17-12.3-4.36-9.66-10.61-23.68-20.85-28.59-5.47-2.62-11.93-2-17.64-4.12s-11.46-4.5-17.57-5.92c-20.92-4.85-44.31-6.42-64.32,3-10.7,5-19.61,14.54-27.17,23.41a142.39,142.39,0,0,0-11.45,15.19c-1.92,3-5.05,6.32-5.56,10-.11.78,1.09,1.12,1.2.33.37-2.6,2.27-4.75,3.66-6.89,2.88-4.42,5.78-8.75,9.06-12.88a144.59,144.59,0,0,1,20.47-21.21c15.49-13,39-15.46,58.44-12.71a126.33,126.33,0,0,1,28.93,7.37,54.46,54.46,0,0,0,13.94,3.88c7.68.94,12.52,4.42,17,10.65a112,112,0,0,1,8.5,14.3c1.37,2.71,3.76,6.53,4.26,9.49,1,5.64-4.71,8.47-8.15,11.23-8.12,6.52-15.18,14-22.34,21.57A114.3,114.3,0,0,1,610,215.26c-4.22,3.45-8.65,4.91-13.89,6.17-3.9.94-8.11,1.5-11.82,3.1-6,2.61-9.15,8.23-15,.52-.48-.63-1.57,0-1.08.63Z"/><path class="cls-6" d="M603,356.51c-7.17-6.54-12.45-14.33-12.88-24.35-.21-4.77.9-9.44,2.21-14,1.84-6.42,3.64-15.57,11.76-15.8,3.7-.1,7.55.9,11.25,1.24,4.72.45,9.4.85,14.08,1.56,6.53,1,13.37,0,17.11-6.27,1.66-2.76,1.1-5.84.93-8.89a15.46,15.46,0,0,1-.08-2.55c.65-4.95,1.25-2.92,3.68-5.52a4.1,4.1,0,0,0,1.54-2.63,5.26,5.26,0,0,0-.62-2.72c-.82-1.79-2-1.66-.86-3.32s3.71-2.26,2.68-5c-.28-.74-.93-1-1.26-1.51-3.51-5.85,0-7.15,4-9.08,2.55-1.24,5.88-2.73,6.86-5.68,2-6-6.6-12.13-9.79-16-4.87-5.9-5.14-12.63-4.41-19.91.57-5.73,3.38-10.75,4-16.38.81-7.43-2.38-17.95-8.37-22.64-.62-.49-1.51.38-.88.88,4.47,3.51,5.89,8.46,7,13.8,1.29,6,.49,10.21-1.37,15.85-2.6,7.87-3.7,18.73.79,26.1,2.3,3.78,5.75,6.64,8.56,10,2.41,2.9,4.3,7,1.32,10.26-1.55,1.69-4.27,2.46-6.24,3.49-2.35,1.22-5,3.07-5,6a4.6,4.6,0,0,0,.74,2.63c.22.32.76.6.93.93,1.42.47,1.43,1.46,0,3,.1,1.8-.64,2.82-2.2,3.09a.63.63,0,0,0-.13,1c5.19,5.09-.24,7.08-1.69,10.68a11.92,11.92,0,0,0-.44,5.21c.21,3.69.65,7-2.16,9.94-3.58,3.73-7.46,4.74-12.5,4.22-5.41-.56-10.79-1.3-16.21-1.81-4.82-.45-10.7-2.4-15.4-.54-4.34,1.72-5.67,6.61-7.09,10.61-2,5.78-4,12-4,18.22-.07,10.94,5.46,19.62,13.28,26.74.59.54,1.48-.34.88-.88Z"/><polygon class="cls-4" points="584.56 483.3 582.6 475.59 576.45 459.81 570.96 444.67 560.03 415.39 554.25 401.85 551.09 393.55 550.94 388.82 551.09 388.58 547.54 381.97 542.98 377.74 536.2 375.08 531.92 374.78 532.45 371.98 536.54 359.94 534.32 358.97 530.78 357.52 525.96 349.4 521.23 343.8 521.14 344.02 517.9 348.82 517.19 361.02 517.28 366.29 511.91 360.13 502.62 352.68 486.59 340.16 472.2 327.6 463.08 318.32 451.95 307.57 447.38 304 446.07 304.23 435.53 318.73 433.98 321.98 433.98 324.83 437.18 329.28 437.95 331.21 430.71 335.85 426.49 338.18 423.51 340.98 422.51 345.73 422.73 354.28 423.48 358.61 426.98 363.08 431.43 369.98 437.51 380.34 446.52 401.69 452.58 419.63 461.83 443.99 468.01 459.85 473.24 484.07 476.25 503.95 588.23 502.99 588.23 501.25 586.58 491.6 584.56 483.3"/><polygon class="cls-7" points="379.96 369.54 380.55 368.76 382.68 369.75 386.31 371.38 394.91 375.24 405.95 382.93 413.96 389.35 420.04 398.69 425.76 413.4 429.32 425.49 433.58 441.95 436.12 443.74 439.9 444.37 442.73 442.69 440.9 437.65 439.9 426.86 439.9 426.86 438.68 404.75 438.41 393.96 436.27 384.33 432.09 379.3 426.17 371.57 423.86 363.4 423.11 359.53 424.18 358.88 429.65 366.35 433.34 369.33 438.75 375.25 445.44 382.79 465.1 408.31 475.98 430.58 478 447.4 484.04 479.43 486.92 503.86 424 503.4 423.11 500.5 415.71 468.76 408.67 441.16 402.06 417.89 394.19 395.67 390.61 386.09 387.68 380.62 381.9 374.83 378.71 372.49 379.96 369.54"/><polygon class="cls-5" points="423.11 506.9 422.61 499.71 414.46 463.52 408.01 438.31 398.39 406.83 392.55 391.82 388.92 382.99 383.94 375.58 378.08 372.02 380.2 365.95 382.95 357.38 383.35 353.28 382.32 352.51 379.26 351.63 376.89 347.36 373.12 341.86 369.11 337.52 368.14 338.13 366.09 343.48 364.85 350.73 367.16 359.77 367.82 360.77 366.4 360.98 363.75 357.75 357.5 351.52 347.22 343.78 330.79 330.25 319.33 320.44 308.63 310.06 302.74 305.28 299.64 304.35 296.47 305.92 292.58 313.41 289.79 324.34 287.99 335.65 287.99 349.42 288.37 353.22 290.46 357.08 298.94 365.42 307.48 376.79 316.71 389.6 323.24 399.78 324.63 405.79 326.97 424.48 328.36 433.3 333.41 443.55 337.16 451.96 342.92 463.43 349.54 473.27 352.78 486.23 351.15 503.56 423.11 506.9"/><polygon class="cls-5" points="331.95 463.84 332.48 461.81 334.34 462.34 337.25 469.29 338.89 476.54 342.66 494.7 344.57 503.07 339.74 503.07 335.19 492.85 330.26 480.89 321.24 467.2 317.05 461.89 317.74 460.96 321.66 463.01 325.03 464.64 328.4 464.99 330.39 465.06 331.95 463.84"/><polygon class="cls-4" points="142.05 503.83 142.69 500.16 143.41 492.29 145.85 472.74 146.75 464.11 147.39 454.14 149.24 447.69 154.27 442.39 158.92 430.5 163.64 413.66 170.37 388.06 175.26 377.38 179.29 371.59 186.44 367.83 197.69 364.29 204 363.52 214.15 362.37 223.2 361.95 229.91 361.9 235.17 363.33 242.22 367.14 251.84 374.77 261.55 384.36 268.66 391.72 279.69 401.82 284.27 405.2 287.05 409.52 292.58 423.69 294.1 430.93 296.5 437.23 301.68 443.11 308.68 451.35 319.85 466.23 327.31 475.46 340.84 504.7 142.05 503.83"/><polygon class="cls-4" points="345.08 505.3 342.92 495.9 338.23 474.24 335.3 465.56 332.75 460.74 330.62 455.49 325.65 446.86 317.78 429.32 314.34 410.85 310.62 393.36 307.97 385.88 304.32 381.01 296.11 373.84 289.75 364.15 288.37 356.95 289.55 355.94 298.94 365.42 312.32 383.29 319.3 393.51 323.24 399.78 324.63 405.79 326.49 415.62 327.43 427.89 328.95 435.11 332.29 442.76 342.21 461.32 347.34 469.43 349.32 475.03 351.44 479.43 352.78 487.89 351.58 496.76 351.15 503.56 345.08 505.3"/><path class="cls-6" d="M475.43,164.37a54.42,54.42,0,0,1,14,33.46c.28,6.09-.93,12.15-.55,18.24a35.17,35.17,0,0,0,4,13.75c2.43,4.77,5.67,9,8.88,13.2,2.6,3.45,5.14,9.85.44,12.5-1.59.89-3.39,1.32-5,2.14-2.05,1-3.77,2.29-4,4.71a7.78,7.78,0,0,0,.88,3.8c.44,1.06,1.7,2.7,1.67,3.87-.07,2.79-2.76,5-5,6a.63.63,0,0,0,0,1.08c1.7,1,2.42,5.4.56,6.83l-2.1.55a3,3,0,0,0-.73-.44c-.34.13-.74,0-1.18.28-2.3,1.29-.89,6.89-.55,8.89.72,4.26.61,7.86-2.85,11a16.36,16.36,0,0,1-10.9,3.94c-7.81.18-14.83-3.3-22.29-4.92-7.77-1.68-16.09,1.49-19.72,8.69-5.05,10-7.28,21.84-8.35,32.89-1,10.25-1.21,22.63,5.59,31.24,4.18,5.28,9.54,8.66,9.65,16.07.05,3-.7,6-.36,9,.23,2,.58,4,.7,6,.23,3.84.2,7.74.72,11.56.63,4.57.68,8.88,1,13.51.16,2.57.72,5.17.87,7.69-.4-6.5.58,1.75.62,1.6-1.3,5.12-6.65.68-7.87-1.26-2.92-4.66-3.71-11.55-4.91-16.87-2.4-10.63-4.55-22.56-11.79-31.15-4.46-5.3-10.12-9.79-15.7-13.84C395,374,388,371.71,381.29,368.36c-.72-.36-1.35.71-.63,1.08,4.83,2.42,10,4.17,14.74,6.77a79,79,0,0,1,14.65,11c8.05,7.32,12.13,15.59,14.88,26,2.22,8.42,3.27,17.44,6.55,25.55,1.81,4.47,7.49,9,11.69,4.31a.65.65,0,0,0,.1-.75c-2.16-4-1.93-8.17-2.3-12.53-.23-2.65.39-5.38-.05-8a106.48,106.48,0,0,1-1.35-12.52c-.26-5.22-.8-10.2-.53-15.45.32-6.18-2-10.27-6.16-14.68-2.61-2.76-5.11-5.35-6.54-8.94-1.34-3.37-1.8-7-2.55-10.5-1.67-7.93,0-17.26,1.45-25.15,2.24-12.16,5.93-30.76,21.59-30.6,7.56.08,14.82,4.34,22.38,5.17,5.33.59,10.79-.13,15-3.64,3.55-3,4.68-6.48,4-10.91-.34-2.35-2.22-7.55.82-8.65.52-.19,1.15.53,2.07.09,2.14-1,3.2-5.83,2.38-7.86-.87-2.18-1.74-1,.48-2.45a6.19,6.19,0,0,0,3-3.59c.45-1.75-.33-3.37-1-4.93-1.25-2.91-2.84-5.25.93-8.05,1.21-.9,2.93-1.26,4.3-1.86,3.37-1.47,6.08-3.67,5.5-7.7-.41-2.77-2.31-5.21-3.93-7.37a111.51,111.51,0,0,1-7.21-10.19c-5.3-8.93-5.65-17.2-5-27.28a56.18,56.18,0,0,0-14.23-41.32c-.53-.61-1.41.28-.88.88Z"/><path class="cls-6" d="M417.28,214.94c12.34-4.83,18.11-14.38,23.81-25.7,3.58-7.09,8.06-12.62,14.82-16.89a83.81,83.81,0,0,1,22.16-9.62.65.65,0,0,0,.44-.77c-.7-3.73-3.25-6.06-6-8.52a133.76,133.76,0,0,0-11.32-9.38c-8.67-6.2-18.62-9.44-29-11.34s-21.3-3.47-31.9-3.54c-11-.06-21,3.15-30.9,7.66-.73.34-.09,1.41.63,1.08,8.84-4,17.73-7.14,27.53-7.46,8.91-.29,17.91,1,26.71,2.26,7.82,1.09,15.68,2.5,23.09,5.3,8.83,3.34,16,8.95,23,15.17,1.33,1.18,2.72,2.33,3.94,3.62,1.93,2.06,3.94,3.94.89,5.44s-6.8,2.31-10,3.76c-6.46,2.89-13.13,6.54-18,11.74s-7.42,11.89-10.73,18.09c-4.38,8.21-10.72,14.47-19.46,17.9-.74.29-.41,1.5.34,1.2Z"/><path class="cls-6" d="M142.92,502.1c1.07-11.38,2.88-22.68,4.07-34.05.55-5.26.12-11.08,1-16.23.55-3.11,3.28-4.36,5.09-6.64,1.41-1.78,1.77-3.89,2.77-5.95,8.71-18,9.94-38.5,17.12-57,2.94-7.59,7.74-11.53,15.33-14.32s15.48-3.87,23.38-4.66c8.87-.89,17.76-2.2,26,2,6.75,3.41,12.54,8.76,17.89,14s10.23,10.73,15.55,15.88c2.56,2.48,5.2,4.88,8,7.1,2,1.61,4.52,2.87,6,5,2.32,3.33,3.34,7.9,4.54,11.73,1.46,4.65,2.76,9.35,4.39,14,1.24,3.49,2.41,6.29,5.16,8.79,6.08,5.5,10.44,12.47,15.68,18.71a128.11,128.11,0,0,1,22.43,38.27c.27.75,1.48.43,1.21-.33a126.16,126.16,0,0,0-18.79-34.12c-4.2-5.37-8.5-10.71-12.78-16-3.74-4.63-8.68-7.88-10.91-13.49-3.47-8.76-4.82-18.55-9.2-26.94-2.24-4.31-7.07-6.49-10.62-9.64-6-5.27-11.3-11.19-16.86-16.87-10.32-10.54-21.54-21-37.2-20.19-13.91.76-31.81,1.59-43.48,10.16-7.47,5.48-9.52,18.08-11.7,26.42-2.93,11.19-5.24,22.65-9,33.59-1.93,5.57-4.37,11.64-8.5,15.74-3.83,3.82-2.68,8-3,13.14-1,14.06-3.47,27.95-4.79,42-.07.8,1.18.79,1.25,0Z"/><path class="cls-6" d="M314.29,459.61c3.86,3,10.62,7.05,15.81,6.12,2.38-.42,3.84-1.77,3.71-4.26-.12-2.17-1.59-4.36-2.59-6.18-2.07-3.77-4.32-7.44-6.43-11.19-5.17-9.14-7.11-17.75-8.9-28-1.64-9.42-2.91-19.3-6.4-28.26-1.64-4.21-3.82-6.59-7.33-9.45-7.57-6.16-12.63-13.57-13.16-23.56l-1.07.44c7.31,6.83,13.72,14.85,19.77,22.8q3.76,4.95,7.29,10.09c2.56,3.72,5.94,7.76,7.71,11.92,1.54,3.62,1.67,8.09,2.15,11.94.62,5,1.15,10,1.83,15,.5,3.64.89,6.87,2.69,10.08,4.45,8,6.76,16.6,12,24.13,4.14,5.94,7.59,10.77,9,17.94,1.22,6,2.42,13.36.8,19.46a.62.62,0,0,0,1.2.33c2.11-7.93.27-18.48-2.35-26.09-1.77-5.14-5.61-9.25-8.61-13.71-4.23-6.29-6.06-13.56-9.61-20.19a28.44,28.44,0,0,1-3.7-10.46c-.71-4.76-1.21-9.55-1.78-14.33-.44-3.65-.84-7.32-1.53-10.92-.73-3.81-2.7-6.51-4.82-9.79-8.92-13.8-19.15-27.8-31.2-39a.63.63,0,0,0-1.06.44,30.91,30.91,0,0,0,6.5,17.75c3.78,4.82,10.06,7.55,12.91,13,4.77,9.19,5.77,20.76,7.53,30.81.84,4.82,1.61,9.68,2.82,14.42,1.35,5.26,4,10,6.65,14.67,2.13,3.73,4.44,7.37,6.42,11.18,1.26,2.41,3.55,6.5-.43,7.75a8.46,8.46,0,0,1-3.61,0c-3.6-.77-8.49-3.45-11.37-5.7-.63-.49-1.52.39-.88.88Z"/><path class="cls-6" d="M333,462.13c3.26,4.64,4.26,11.73,5.59,17.12a140.6,140.6,0,0,1,3.7,17.8c.09.79,1.34.8,1.25,0a141.87,141.87,0,0,0-3.74-18.13c-1.36-5.52-2.38-12.66-5.72-17.42-.46-.66-1.55,0-1.08.63Z"/><path class="cls-6" d="M205.33,363.84c-8,10.1-.56,24.73,1.71,35.55,2,9.69,2.07,20,3,29.81,1.09,11.22,2.76,22.39,4.06,33.59,1.53,13.12,3.07,26.59,7,39.26a.63.63,0,0,0,1.21-.34c-3.82-12.33-5.36-25.45-6.87-38.23-1.27-10.84-2.84-21.68-4-32.51-1-9.28-1.52-18.6-2.66-27.85-1.45-11.7-11-27.79-2.61-38.39.49-.63-.39-1.52-.89-.89Z"/><path class="cls-6" d="M184.25,369.28c5.52-3.67,9.44-8.7,13.17-14.09,4.5-6.51,8.16-12.61,9.65-20.48,2.87-15.14,5.31-31.49.12-46.38-.26-.75-1.47-.43-1.2.33,5,14.29,2.67,29.54.16,44.09a47.48,47.48,0,0,1-8,19.08c-4.13,6.15-8.33,12.21-14.58,16.37-.67.45,0,1.53.63,1.08Z"/><path class="cls-6" d="M253.55,226c-1.1-3.91-7.25-7.33-10.69-9-3.94-1.9-8.68-2.75-12.87-1.16-8.08,3.07-13.88,16.68-9.26,24.29,3.08,5.08,8.49,9.43,12.72,13.52,4.5,4.35,9.47,10.22,14.91,13.36,3.76,2.16,7.69,1.11,10.31-2.34,1.78-2.35,3.07-5.61.76-7.93a.62.62,0,0,0-.88.88q1.4,3.69-.9,6.17-2.77,4.81-9.89,1.15a33.72,33.72,0,0,1-4.11-3.56q-3.39-3-6.69-6.11c-4.9-4.62-11-9.55-14.7-15.21-4.67-7.18.48-20,8.32-23,4.36-1.66,9.08-.41,13,1.75,2.79,1.54,7.85,4.35,8.74,7.53a.63.63,0,0,0,1.21-.33Z"/><path class="cls-6" d="M242.74,239c5.48-3.66,6.81-7.72,3.6-13.76-2.55-4.81-7.21-7.84-12.59-5.28-5.61,2.68-8.82,10.47-8,16.4.94,6.81,6.72,11.6,11.71,15.69.62.51,1.5-.37.88-.88-6.53-5.36-13.6-11.85-10.75-21.21,1.62-5.29,5.89-10.54,12-9.49,2.68.46,4.45,3.22,5.62,5.4,2.6,4.85,1.13,9.19-3.15,12-.67.44,0,1.52.63,1.08Z"/><path class="cls-6" d="M250.27,238.94c-2.28-.09-4.69-.78-6.2,1.17a35,35,0,0,0-2.31,4c-.47.81-1.5,2-1.55,3-.2,4.34,8.68,6.27,11.67,6.53,1.93.18,8.77-.3,5.29-3.48a11.83,11.83,0,0,0-3-1.54c-2.83-1.39-2.4-3.45-2-6.11.27-1.86.06-3.49-1.8-4.28-.73-.31-1.37.77-.63,1.08,2.77,1.18-.3,6.11,1.15,8.44a4.93,4.93,0,0,0,2,1.65c1,.52,4.48,1.12,2.66,2.88-1.09,1.05-5.4-.1-6.62-.41a16.51,16.51,0,0,1-5.16-2.21c-2.8-1.86-1.24-4.64.25-6.9.58-.88,1.39-2.31,2.43-2.67.86-.29,3,.06,3.87.09s.8-1.22,0-1.25Z"/><path class="cls-6" d="M252.9,226.36c4.61,6,8.54,5.3,14.31,1.34,6.59-4.52,15.18-4.41,22.53-7.21,7.95-3,14.61-10.76,20.4-16.72,3.58-3.69,7.07-7.47,10.71-11.1,4.62-4.6,10.18-8.19,14.78-12.71,5.79-5.67-1-14.84-4.05-20.5-4-7.34-8.9-16.68-16.83-20.49-4.54-2.17-9.72-1.65-14.48-3-5.27-1.53-10.21-4.06-15.48-5.63a126.25,126.25,0,0,0-24.88-4.91c-16.8-1.44-37.1.29-51.29,10.32C194,146.09,183,160.85,173.24,175.66c-4.58,6.93-8.37,13.38-9.32,21.8-1.28,11.43,0,23,1.88,34.35,1.8,10.78,4.15,21.84,8.27,32,3.2,7.91,9.43,18.87,4.87,27.29-2.7,5-7.83,8.37-9.88,13.78-1,2.57-.27,3.82-3,4.52-1.91.48-3.72.44-5.58,1.33-3.41,1.65-4.81,4.7-5.92,8.14a79.89,79.89,0,0,0-3.6,17.16c-.83,9,1,18.63,9.28,23.73,9.94,6.16,22.31,3.42,32.91.91.78-.18.45-1.39-.33-1.2-14.21,3.35-35.89,6.2-40.13-12.69-1.51-6.7-.34-13.8,1.16-20.39.8-3.52,1.52-7.95,3.44-11.05,2.59-4.19,7.12-4.63,11.57-4.89a.65.65,0,0,0,.63-.62c.09-8.92,9.23-12.87,11.72-20.72,1.46-4.58,0-9.83-1.43-14.2-1.84-5.55-4.52-10.79-6.35-16.34a181.47,181.47,0,0,1-6.08-25.21c-2.68-15.12-5.89-34.64,1.73-48.83a163.73,163.73,0,0,1,25.48-34.59c9.41-9.89,19.61-17.82,33.1-21a99.31,99.31,0,0,1,42.38-.68,135.19,135.19,0,0,1,18.72,4.68c3.5,1.25,6.87,2.84,10.4,4,4.1,1.3,8.34,1.08,12.44,2.22,8,2.21,12.74,10.38,16.68,17q3,5.07,5.5,10.4c.38.82.76,1.64,1.12,2.46,1.6,3.66,1.73,3.36.21,7.31-1.35,3.52-1.88,3.86-4.36,5.82-6.79,5.34-12.72,11.59-18.67,17.82S299.68,213.74,292.13,218c-5.71,3.24-12.79,3.75-19,5.51a21.31,21.31,0,0,0-6.54,3.08c-4.74,3.26-8.41,4.56-12.59-.89-.49-.63-1.57,0-1.08.63Z"/><path class="cls-6" d="M206.75,289.1c2.83-.54,4.51-.48,5.46-3.36,1.55-4.68.15-10.51-.37-15.26-1.26-11.5-1.73-25,9.21-32.11.67-.43,0-1.52-.63-1.07-6.22,4.06-9.44,10.65-10.33,17.91-.65,5.4,0,10.84.61,16.21.62,5.63,3.07,15.07-4.28,16.48-.79.15-.45,1.35.33,1.2Z"/><path class="cls-6" d="M289,354.85c-.67-5.23-1.31-9.86-.8-15.12a116.84,116.84,0,0,1,2.72-17.45c1.38-5.46,3.18-15.36,8.8-17.81,3.85-1.68,8.44-.17,12.44.28,4.31.48,8.65.66,12.95,1.22,7.75,1,14.62,2.14,20-4.73,1.9-2.41,2-4.9,1.81-7.86s-.95-5.84,1.32-8.45c.94-1.07,2.58-1.52,3.21-2.91a4,4,0,0,0,.12-3.3c-.16-.47-2.1-2.89-2.06-3.12.4-2.25,4.65-2.31,3.6-5.79-.15-.49-.58-.85-.75-1.31l-.13-.1q-2-.88-1-3.5c-.31-3.75.34-3.66,3.44-5.3,2.61-1.38,5.92-2.42,7.51-5.13,3.42-5.8-5-12.27-8.25-15.93-9.78-11.09-3.6-25.13-4.85-38.36-.87-9.16-4.57-17.59-12-23.2-.64-.48-1.27.6-.63,1.08,10.19,7.66,12.21,20.33,11.47,32.33-.57,9.18-2.83,18.61,3.1,26.57,2.71,3.62,6.85,6.5,9.06,10.46,4.17,7.47-2.68,9.07-7.38,11.78-2.3,1.34-4.58,3.35-4.29,6.25a3.82,3.82,0,0,0,.69,2.06c.2.29.8.62.92.93,1.43.47,1.43,1.47,0,3,.09,1.79-.65,2.82-2.21,3.08a.63.63,0,0,0-.13,1c4.48,4.39.74,6.67-1.16,9.63-1.09,1.7-1.05,3.67-1,5.62.09,3.55,1,6.64-1.42,9.74a13.29,13.29,0,0,1-10.47,5.28c-5.66.09-11.92-1.4-17.6-1.9-4.58-.41-9.55-1.84-14.14-1.26-4.27.53-6.37,3-8,6.78a85.17,85.17,0,0,0-5.88,21.3c-.71,4.87-1.71,10.17-1.4,15.08.19,3,.77,6.07,1.16,9.08.1.79,1.35.8,1.25,0Z"/><path class="cls-6" d="M370.77,363c-7.23-6.43-5.87-16.41-2.13-24.42,1.83-3.93,4.26-5.5,7.12-8.44a7.75,7.75,0,0,0,2-3c.94-2.5,1-5.82,1-8.44,0-2,0-5.66,2-7,1.29-.86,4.32-.05,5.76.19a65,65,0,0,0,20.31.61c3.72-.53,8.79-.83,10.67-4.62s2.58-10.24,1.93-14.46c-.17-1.07-.67-2.12-.79-3.19-.3-2.57-.06-2.22,1.29-4.2a7.25,7.25,0,0,0,1.53-3.28c.53-3.07-.62-6-3.82-6.69v1.21c2.75-1,5.46-3.4,4.73-6.61-.56-2.42-3.07-4-2.44-6.71,1.08-4.69,4.82-3.13,8.16-4.1,3.12-.91,3.54-3.09,3.51-6.19,0-4.91-3.18-6.3-6.1-10-1.71-2.14-2.91-4.57-4.52-6.79s-3.64-4.48-4.88-7c-2-4.17,1.37-6.72,1.31-10.7-.08-5.55-1.94-12-3.45-17.33-2.44-8.5-6.09-18.45-14-23.36-.69-.43-1.32.65-.63,1.08,8.79,5.49,12.29,17.53,14.54,27.06.5,2.11.88,4.24,1.28,6.37.44,2.34,1.57,5.26.93,7.64-.5,1.83-1.88,3.18-2.1,5.2-.46,4.33,3.11,8,5.5,11.2,1.77,2.39,3.07,5,4.9,7.38,2.07,2.62,5.42,4.71,5.89,8.13.69,4.94-2.08,6.29-6.61,6.51-1.77.09-2.52-.08-3.73,1.41a7.39,7.39,0,0,0-1.47,4.43c.1,3.7,6.79,8.18-1.19,11.17-.53.2-.65,1.06,0,1.21,7.38,1.63.73,6.89,0,9.23a6,6,0,0,0-.13,2.95c.85,5.82,3.14,17.29-3.77,20.39-6,2.7-14.81,2.4-21.28,1.69-3.41-.38-9.55-2.71-12.92-.52s-1.57,8.82-2,12.15c-.68,5.92-6.75,8.84-9.32,14.08-4.24,8.63-5.89,19.59,2,26.61.6.53,1.49-.35.89-.89Z"/><path class="cls-6" d="M305.24,137.52c2.51-1.13,5.07-2.09,7.48-3.4,1.53-.83,2.16-1.85,4.24-2.14a20.88,20.88,0,0,1,2.84.3,14.34,14.34,0,0,0,2.36-.3c1.4-.19-.89-1,2.19.11a.62.62,0,0,0,.79-.6l4.46-1.05c.24.54,1,.31,1.14-.14q2.34-3.39,5-.61a.63.63,0,0,0,.86.22c1.71-1.2,2.21-1.38,3.22.51a.63.63,0,0,0,.86.22c3.93-2.78,7.73.61,11.45,2.49,2.62,1.32,6.55,1.54,8.62,3.1a.6.6,0,0,0,.63,0c3.92-2.93,1.95-1.65,4.77.58,1.75,1.39,3.33.92,5.34,1,7.65.19,13.15,7.54,18.92,11.57,1.3.9,1.07.45,2.54,1.19,3.11,1.58,4.13,2.93,6,5.6a72.32,72.32,0,0,0,6.57,7.64c7.35,7.84,11.32,17.25,4.5,27-.47.66.62,1.28,1.08.63,4-5.65,5.09-12.77,2.22-19.18-3.07-6.86-9.69-11.69-14-17.74a14.52,14.52,0,0,0-4.71-4.68c-2.26-1.35-4.27-2.24-6.23-4.07a44.08,44.08,0,0,0-3.8-3.15,67,67,0,0,0-8.81-5.54c-3.05-1.52-9.57,1.55-10.32-4.16-.05-.41-.51-.86-.94-.54-2.45,1.82-2.72,1.89-5.49,1.25-1.15-.27-1.72-.5-2.88-.72-4.47-.86-8.41-3.35-12.49-5.41a.6.6,0,0,0-.63,0c-1.77,1.24-2.47,1.73-3.54-.28a.63.63,0,0,0-.86-.22c-3,2.14-2.57,0-5.71.29a3.82,3.82,0,0,0-3.44,2.72l1.15-.15c-.77-1.71-2.34-3-4.38-2.45-2.72.77-1.43,3.6-4.28,2.52a.63.63,0,0,0-.79.61c.08.64-5.38.21-6.37.62-1.42.58-2.62,1.84-4,2.58-2,1.09-4.19,1.82-6.27,2.75-.73.33-.1,1.41.63,1.08Z"/><path class="cls-6" d="M397.83,177.64l2.41,5.29,1-.75c-7.87-7.05-22.4-7.2-32.18-5.37a.64.64,0,0,0-.37.92l-.38,1a.65.65,0,0,0-.46.61c.16,6.71-1.71,12.78-2.43,19.3a24.13,24.13,0,0,1-.59,5.06,16.58,16.58,0,0,0-.89,2.22c-.88,4.77,3.87,5.9-2.88,11-3.43,2.58-7.27,3.22-10.06,6.89a12.12,12.12,0,0,0-2.42,9c.09.79,1.34.8,1.25,0a11.57,11.57,0,0,1,4-10.21c3-2.83,8.12-3.28,10.69-6.25,1.58-1.82,1.36-3.87,1.23-6.06-.18-2.91.84-5.37,1.16-8.18.23-2-.21-3.74.11-5.8.76-4.79,1.68-9.25,2.1-14.11.05-.61.41-3.57,1.11-4.17,2.36-2,11.24-.62,14.34-.32,5.67.54,11.38,1.43,15.78,5.37a.63.63,0,0,0,1-.76l-2.41-5.3c-.34-.73-1.41-.09-1.08.64Z"/><path class="cls-6" d="M300,304.06c6.19,4.44,11.44,9.57,16.85,14.87s11.76,10.12,17.47,15.37c9.82,9,23.81,15.14,31,26.68.44.71,2.71,4.27,2.32,4.85s-4-.53-4.47-.6a77,77,0,0,0-12.87-.76,76.14,76.14,0,0,0-11.17,1.1c-2.66.46-5.47,1.72-8.15.66-1.92-.76-3.91-2.81-5.54-4.06-13.44-10.3-24.84-22.81-35.84-35.6-.53-.61-1.41.28-.88.89,10.45,12.16,21.26,24.07,33.86,34.07,2.54,2,5.51,5.11,8.5,6.28,2.4.95,4.86-.39,7.48-.87a76.81,76.81,0,0,1,29.87.52.63.63,0,0,0,.77-.77c-4.28-14.29-19.58-21-30.21-29.91-7-5.87-14.19-11.89-20.74-18.27-5.67-5.51-11.14-10.9-17.59-15.53-.65-.47-1.28.62-.63,1.08Z"/><path class="cls-6" d="M368.33,362.4a5.21,5.21,0,0,0,2.26,3.69c1.67,1.32,3.2,1.9,4.7,3.52,1.24,1.34,2.26,2.78,3.53,4.1a.63.63,0,0,0,1.06-.45c.41-6.34,2.18-11.6,4.49-17.44.53-1.33,1.33-2.42,0-3.52-.64-.54-1.4-.22-2.08-.42-3.34-1-3.58-2.62-5.19-5.34a46.6,46.6,0,0,0-8.15-10c-.59-.56-1.47.33-.89.88a44.61,44.61,0,0,1,8.74,11.11c1,1.75,1.32,3.91,3.32,4.57s3.1-1.54,2.74,2.86c-.11,1.44-1.57,3.72-2,5.07a48.35,48.35,0,0,0-2.25,12.21l1.07-.44c-1.45-1.5-2.38-3.49-3.93-4.89-2.12-1.93-5.72-2.36-6.23-5.87-.12-.79-1.32-.45-1.21.34Z"/><path class="cls-6" d="M379.09,373.87c5.89,2.23,9.33,10.52,11.78,15.74A234.22,234.22,0,0,1,402,419.7c6.56,21.14,11.79,42.7,16.6,64.3,1.35,6.06,2.6,12.14,3.94,18.2.18.79,1.38.46,1.21-.33-3.5-15.8-6.87-31.61-10.81-47.32C407.36,432.46,401.65,409.68,392,389c-2.63-5.61-6.22-13.92-12.53-16.32-.75-.28-1.07.92-.33,1.21Z"/><path class="cls-6" d="M551.31,186c8.1,5.05,11.58,15.73,13.9,24.48,1.14,4.29,4,12.75,2.78,17-.89,3.16-3,4.76-1.45,8.16,1.82,4.08,5.88,7.29,8.79,10.55a33.66,33.66,0,0,1,3.92,5.59c1.52,2.6,3.41,4.25,5.39,6.42,1.73,1.89,3.45,5.35,1.55,7.91-1.54,2.09-4.8,1.22-7.06,1.86-2.49.7-6,3.38-6.11,6.26-.07,1.9,1.27,2.93.44,5.18a4.73,4.73,0,0,1-2.59,3c-.47.23-4.38,1-4.34,1.54a.64.64,0,0,0-.63-.62,1.69,1.69,0,0,0-.94.3.63.63,0,0,0-.22.85h.19a.63.63,0,0,0-.61.46l-.1.46a.63.63,0,0,0,.29.71c1.8.78,3.77-.34,3.91,2.57.11,2.44-3.41,3.76-3.82,6-.3,1.63,1.31,3.43,1.9,4.78,2.23,5.06,1.35,7.29-2,11.09a22.1,22.1,0,0,1-4.68,4.08c-9.33,5.68-21-1.69-30,4.05a.67.67,0,0,0-.29.71l.05.34c.11.79,1.31.46,1.2-.33-.32-2.39,19-1.05,20.62-1.12A20.65,20.65,0,0,0,568,308a7.69,7.69,0,0,0,.6-7.06c-.82-2.24-3.23-4.77-1.94-7.33.53-1.07,2-1.68,2.5-2.87s1-3.63,0-4.87c-.36-.46-1.1-.57-1.61-.75-2.6-.89-1.22.54-2.16.55a.64.64,0,0,0,.61-.46c.33-1.42-.68-.24-.73-1.13a.62.62,0,0,0,.45.6c3.08.46,6.79-.6,8.26-3.39,1.6-3,0-6.5,1.49-9,2-3.3,5-3.14,8.37-3.63,1.33-.2,2.41-.39,3.22-1.49,1.65-2.24,1.59-6.91-.13-9-1-1.15-2.53-1.75-3.6-2.86a27.66,27.66,0,0,1-3.69-5.41,29.34,29.34,0,0,0-3.82-5.06c-1.91-2.09-3.92-4.08-5.72-6.27-3.13-3.78-3.21-5.29-1.49-9.84,1.84-4.89-.52-11.79-1.77-16.85-2.35-9.6-6.05-21.45-14.91-27-.69-.43-1.32.65-.64,1.08Z"/><path class="cls-6" d="M522.76,369.42c-8.46-7.53-5.83-23.15,1.92-30.49,2.28-2.17,4.33-2.86,5.29-6,1.35-4.34,0-8.95.8-13.3.15-.78-1-1.12-1.2-.33-.42,2.26-.05,4.42-.09,6.72-.08,5.07-.65,7.34-4.41,10.93a24.63,24.63,0,0,0-6.17,8.91c-3.44,8.27-4.25,18,3,24.42.6.53,1.49-.35.88-.88Z"/><path class="cls-6" d="M459.07,143.18c2.28-1,4.41-2,6.6-3.17,3.91-2.11,3.58-.63,6.93-1.19.46-.07,1.14-.35,1.56-.38,1.37-.11-1-1.09,2.19.11a.62.62,0,0,0,.79-.6l4.46-1c.23.53,1,.3,1.14-.15q2.34-3.39,5-.61a.63.63,0,0,0,.86.22c1.71-1.2,2.21-1.38,3.22.51a.62.62,0,0,0,.85.22c3.93-2.78,7.74.61,11.46,2.49,2.62,1.32,6.54,1.54,8.61,3.1a.61.61,0,0,0,.64,0c3.92-2.92,2-1.65,4.76.58,1.76,1.4,3.33.93,5.34,1,7.66.19,13.16,7.54,18.93,11.57,1.3.91,1.07.45,2.53,1.2,3.12,1.58,4.13,2.92,6,5.59a71.17,71.17,0,0,0,6.57,7.64c7.34,7.84,11.31,17.25,4.49,27-.46.66.62,1.28,1.08.63,4-5.65,5.1-12.77,2.23-19.18-3.08-6.86-9.69-11.69-14-17.74a14.72,14.72,0,0,0-4.71-4.68c-2.26-1.34-4.27-2.24-6.23-4.07a42.21,42.21,0,0,0-3.8-3.14,64.48,64.48,0,0,0-8.82-5.54c-3-1.53-9.57,1.55-10.31-4.17,0-.41-.51-.86-.94-.54-2.45,1.82-2.72,1.89-5.49,1.25-1.15-.27-1.72-.5-2.88-.72-4.47-.86-8.41-3.35-12.49-5.41a.62.62,0,0,0-.63,0c-1.77,1.25-2.47,1.73-3.55-.28a.62.62,0,0,0-.85-.22c-3,2.14-2.58,0-5.71.3a3.8,3.8,0,0,0-3.44,2.71l1.15-.15c-.77-1.71-2.35-3-4.38-2.45-2.72.77-1.43,3.6-4.28,2.53a.62.62,0,0,0-.79.6c.08.66-5.34.27-6.22.56a22,22,0,0,0-3.24,2.22,50.07,50.07,0,0,1-5.34,2.37c-.73.32-.09,1.4.64,1.08Z"/><path class="cls-6" d="M549.82,184.1l2.42,5.29,1-.75c-7.87-7-22.4-7.2-32.18-5.37a.63.63,0,0,0-.37.92l-.39,1a.63.63,0,0,0-.45.6c.15,6.71-1.71,12.78-2.43,19.31a24.14,24.14,0,0,1-.6,5.05,18.69,18.69,0,0,0-.89,2.22c-.88,4.77,3.88,5.9-2.87,11-3.43,2.58-7.27,3.23-10.06,6.89a12.12,12.12,0,0,0-2.42,9c.09.79,1.34.8,1.25,0a11.57,11.57,0,0,1,4-10.21c3-2.83,8.11-3.28,10.69-6.25,1.58-1.82,1.36-3.87,1.23-6.06-.18-2.91.83-5.37,1.16-8.18.23-2-.22-3.74.11-5.8.76-4.79,1.67-9.25,2.1-14.11,0-.61.4-3.56,1.11-4.17,2.36-2,11.24-.62,14.33-.32,5.67.55,11.39,1.43,15.78,5.37a.63.63,0,0,0,1-.76l-2.42-5.29c-.33-.73-1.41-.1-1.08.63Z"/><path class="cls-6" d="M446.4,304.06c7.93,5.74,14.39,12.9,21.2,19.85,6.58,6.73,13.94,12.69,21,18.94,5.16,4.57,11,8.26,16.49,12.41a61.16,61.16,0,0,1,8.88,7.82,30.56,30.56,0,0,1,3.66,4.89,23.91,23.91,0,0,1,1.15,2.18c1,2.17,1.11,1.78-.73,2-1.46.19-4.14-.66-5.64-.82-2.44-.26-4.9-.41-7.36-.44A77.46,77.46,0,0,0,491.1,372c-2.31.39-5.45,1.76-7.77.92-1.86-.67-3.84-2.82-5.37-4-3.13-2.51-6.14-5.16-9.08-7.87-6.48-6-12.63-12.35-18.61-18.85q-4.2-4.56-8.31-9.22l-3.38-3.85c-1.2-1.38-3.88-3.46-4.47-5.17-.39-1.15-.54.38-.17-1a9.31,9.31,0,0,1,1.5-2.14l4.59-6.58,7.23-10.35c.46-.66-.62-1.29-1.08-.63L432.29,323.1a.64.64,0,0,0,.1.76C444,337.42,455.91,350.92,469.14,363c3.1,2.83,6.29,5.56,9.6,8.13,1.59,1.23,3.58,3.4,5.51,3.74s5.86-1.41,8.09-1.75a76.83,76.83,0,0,1,9.93-.91,79,79,0,0,1,18.13,1.74.63.63,0,0,0,.77-.77c-4.41-14.72-20.45-21.41-31.21-30.76-7.46-6.48-15.16-12.86-22.06-19.95-6.67-6.86-13.08-13.82-20.87-19.46C446.38,302.51,445.76,303.59,446.4,304.06Z"/><path class="cls-6" d="M520.1,343.9A44.8,44.8,0,0,1,528.84,355c1,1.76,1.31,3.91,3.32,4.57s3.09-1.53,2.74,2.86c-.12,1.45-1.57,3.72-2,5.07a48.43,48.43,0,0,0-2.25,12.22l1.07-.45c-1.45-1.5-2.39-3.48-3.93-4.89-2.12-1.93-5.73-2.36-6.24-5.86-.11-.8-1.31-.46-1.2.33a5.18,5.18,0,0,0,2.26,3.69c1.67,1.32,3.2,1.91,4.69,3.52,1.25,1.34,2.27,2.78,3.53,4.1a.64.64,0,0,0,1.07-.44c.41-6.34,2.17-11.6,4.49-17.45.53-1.33,1.33-2.42,0-3.52-.64-.54-1.4-.22-2.09-.41-3.33-1-3.57-2.63-5.19-5.35A46,46,0,0,0,521,343c-.58-.56-1.47.33-.88.88Z"/><path class="cls-6" d="M531.09,380.33c5.84,2.22,9.28,10.32,11.75,15.5a228.32,228.32,0,0,1,11.06,29.56c6.55,20.82,11.78,42.05,16.59,63.33,1.37,6.11,2.66,12.23,4,18.34.18.79,1.38.46,1.21-.33-3.45-15.55-6.84-31.11-10.76-46.55-5.56-21.9-11.29-44.49-21-65-2.64-5.56-6.24-13.7-12.49-16.08-.75-.28-1.08.93-.33,1.21Z"/><path class="cls-6" d="M422.29,358.2c18.49,20.46,40.36,40.78,51,66.77,3.22,7.86,4.17,16,5.33,24.34q2,14.61,4.1,29.21c1.2,8.5,2.41,17,3.58,25.5.11.79,1.31.46,1.21-.33-2.41-17.48-4.93-34.94-7.37-52.42-1.16-8.34-1.9-16.75-4.89-24.69-4.65-12.38-12.42-23.44-20.6-33.72-9.87-12.4-20.88-23.8-31.5-35.55-.54-.59-1.42.29-.88.89Z"/><path class="cls-6" d="M424.05,342.56c1.46-3.11,5.7-5.34,8.44-7.16,2.15-1.43,4.34-2.81,6.58-4.12a.63.63,0,0,0-.64-1.08q-3.92,2.3-7.67,4.86c-2.58,1.76-6.41,3.91-7.79,6.87-.34.72.74,1.36,1.08.63Z"/><path class="cls-6" d="M532.45,374.86a18.44,18.44,0,0,1,16.32,10.29,15.89,15.89,0,0,1,1.52,3.67c.14.57.32-1.16.29-.53,0,.12-.48.41-.51.66-.64,5.17,2.72,10.9,4.56,15.53,8.77,22.07,17.64,44.14,25,66.72,3.41,10.41,7.36,21.47,8,32.5,0,.8,1.29.8,1.25,0-.9-16-7.65-32.33-13-47.28-6.19-17.35-13-34.47-19.8-51.58-.2-.49-5.94-15.3-5.17-15.4a.64.64,0,0,0,.61-.79,20.26,20.26,0,0,0-19.1-15,.63.63,0,0,0,0,1.25Z"/><path class="cls-8" d="M248.59,256.58a2.78,2.78,0,0,1,2.11-.6,4,4,0,0,1,3.07,1.61,3.78,3.78,0,0,1,.43,2.6,2.85,2.85,0,0,1-.47,1.4,2.53,2.53,0,0,1-1.6,1,5.49,5.49,0,0,1-2.21-.16,3.66,3.66,0,0,1-1.1-.43,1.77,1.77,0,0,1-.52-.66,6.84,6.84,0,0,1-.81-3.19,1.9,1.9,0,0,1,.23-1,1.65,1.65,0,0,1,1.13-.7"/><path class="cls-9" d="M248.86,256.84c1-.88,2.8-.51,3.81.18a3.23,3.23,0,0,1,.81,4.17c-.88,1.46-3.17,1.29-4.36.33s-2.15-4.22-.17-4.77a.37.37,0,0,0-.2-.72c-2.29.63-1.76,3.32-1,5a4,4,0,0,0,5.71,1.33c1.56-1.16,1.53-4.06.28-5.41s-3.92-2-5.42-.66c-.37.32.16.85.53.53Z"/><polygon class="cls-9" points="157.03 315.58 159.74 311.82 163.02 311.08 165.86 310.04 168.84 308.39 170.65 303.88 173.25 299.35 177.07 294.87 179.39 289.75 180.73 285.28 180.47 279.69 176.74 268.65 170.43 250.31 165.9 230.87 164.91 220.96 163.63 209.6 164.49 198.01 166.49 189.71 168.41 184.42 172.21 178.34 176.05 172.51 183.83 161.43 190.29 153.66 196.84 146 204.4 139.33 212.03 134.27 216.72 131.91 223.13 129.06 232.24 126.93 243.19 125.69 250.4 125.2 262.97 126.34 277.88 129.2 288.03 132.01 300.2 136.57 305.98 137.65 314.34 139.47 318.73 142.39 328.05 154.58 335.47 166.67 336.74 173.47 334.05 180.39 322.89 189.81 310.12 202.89 301.29 211.5 293.19 218.08 277.85 223.01 267.7 226.6 262.55 230.34 256.59 229.4 252.78 225.2 247.49 219.61 239.9 216.49 231.77 215.97 226.8 218.54 223.32 222.97 220.73 227.74 219.68 234.65 219.92 238.35 213.79 245.23 212.31 248.49 210.67 255.59 210.76 266.19 211.94 277.61 211.12 285.28 206.59 289.08 208.98 298 209.58 305.28 208.8 319.11 207.16 330.47 204.56 341.74 199.47 351.06 194.12 359.88 190.21 360.72 180.22 362.56 170.31 362.56 163 360.51 156.93 356.36 152.73 349.37 151.36 341.68 151.36 332.88 153.97 323.16 157.03 315.58"/><path class="cls-9" d="M304.4,139.36a34.13,34.13,0,0,1,2.25-3.14l9-4.21,5.78-.9,3.76-.8,13.25-1.55,5.77.4,6,2.25,6.87,2.65h7.83l3.3,2.5,4.48.49,7.79-4,12.42-2.85,16.43-.36,22.53,3.48,17.31,4.77L457,142l.73.81,1.05.5,1.49-1.63,12-4.17,8-1.47,11.52-.65,7.2.65,11,5.09,7.13-.28,4.09,2.95,8.83,1.61,6.66,4.46,11.92,9.47,9.25,10.35,6.87,9.15,1.62,5.59-1.31,8.76-3.39,5.18-1.06-3.49-3-4.25L553,186.34l-1.41,0,.12,1.71-3.78-2.2L535,183.11h-6.74l-5.82.8-2,1.9L519.33,197l-2.14,16.83-2,7.21-2.12,3-3.6,2.5-5.4,4-2.51,3.68-.53,3.09-.56,3.12-4-6.49-3.71-7.2-2.89-7.26-.43-7.35.63-11-.2-5.6-2.1-8.3-5.57-13.54-3.87-6.77-3.29-4.19-6.71,2.66-7.28,3.36-6.44,4.19-5.51,3.78-3.4,5.12-2.13,2.79-4.5,7.33-2.9,5.64L430.93,205l-5.51,4.94-5.65,3.34-3.69,1.1-1.41-8.74-3.12-9-2.05-5-4.08-7.08-4.64-4.7-1,.05.14,2-3.57-2.2-4.65-1.52-9.3-1.45h-8.62l-3.28.52-2,2.19,0,3.5-1.71,9.71-.5,9.47-.88,6-1.38,5.3-1.23,3.55L357.92,219,353,222.48l-3.23,4.71L347.9,231l-.37-5.91-.26-7.49,1.33-8.71-.07-7.7-.95-6.47-2.6-7.34-4-6.06-6.89-5.76L318,167.27Z"/><polygon class="cls-9" points="649.62 166.67 642.2 154.58 632.88 142.39 628.49 139.47 620.13 137.65 614.35 136.57 602.18 132.01 592.03 129.2 577.12 126.34 564.55 125.2 557.34 125.69 546.39 126.93 537.27 129.06 530.87 131.91 526.17 134.27 518.55 139.33 510.99 146 530.17 159.28 546.3 169.96 558.2 181.16 566.04 211.18 567.75 219.83 568.84 224.96 570.74 229.4 576.7 230.34 581.85 226.6 592 223.01 607.34 218.08 615.44 211.5 624.27 202.89 637.04 189.81 648.2 180.39 650.89 173.47 649.62 166.67"/><circle class="cls-9" cx="282.13" cy="448.86" r="11"/><circle class="cls-9" cx="380.71" cy="426.65" r="11"/><circle class="cls-9" cx="520.54" cy="422.3" r="11"/><circle class="cls-9" cx="456.45" cy="425.15" r="11"/><circle class="cls-9" cx="589.42" cy="426.86" r="11"/></g></g></svg>