<svg xmlns="http://www.w3.org/2000/svg" viewBox="0 0 800 500"><defs><style>.cls-1{fill:#efefef;}.cls-2{fill:#471188;}.cls-3{fill:#7837f1;}.cls-4{fill:#a693f0;}</style></defs><title>Wall of Support</title><g id="Drawing_1"><rect class="cls-1" width="800" height="500"/><circle class="cls-2" cx="418.19" cy="249.15" r="149.41"/><path class="cls-3" d="M420.19,290.46c-9.26-4.92-18.6-9.89-26.54-16.74s-14.46-15.82-16.42-26.12,1.33-21.92,9.73-28.19c10.48-7.83,27.46-4.47,34.16,6.77,7.6-6.57,16.75-13.59,26.6-11.65a21.19,21.19,0,0,1,11.37,6.89c8.68,9.67,9.5,25.26,2.5,36.21-3,4.64-7.09,8.41-11.17,12.11q-9.6,8.7-19.3,17.27c-2.88,2.55-6.89,5.24-10.25,3.37"/><path class="cls-4" d="M420.5,289.92c-18.85-10-43.6-24.08-43.18-48.74.18-10.8,6.2-21.68,17.1-24.64a24.08,24.08,0,0,1,26.17,10,.64.64,0,0,0,1,.12c8.37-7.18,19.33-15.56,30.74-9.77,9.46,4.79,14.06,16.37,13.26,26.52-.87,11.15-7.68,18.73-15.6,25.93-3.87,3.53-7.77,7-11.68,10.51-4.21,3.75-11,12.4-17.25,10-.75-.29-1.08.92-.34,1.21,3.63,1.4,6.68-.23,9.61-2.48,4.55-3.5,8.72-7.67,13-11.5,7.52-6.75,16.67-13.45,20.89-22.94,6.46-14.54.48-38.34-17.86-40.37-9.53-1.05-15.85,5.26-23.21,10-2.41,1.54-2.14.91-3.78-1a22.27,22.27,0,0,0-3.83-3.43A25.74,25.74,0,0,0,405,214.92c-16.67-2.88-29,10.91-28.94,27,.13,24.78,24.73,39,43.81,49.09.71.38,1.34-.7.63-1.07Z"/><path class="cls-1" d="M254.44,334.44l22.25-9.38,24.15-10,19.23-8.42,16.21-6,14.62-2.06,11.6,1.9L374.42,305l13,5.88,11.12,2.86,4.06.24S412.88,313,413.35,313s12-2.62,12-2.62l8.34-.36,7.51,1.31,5.16,4.4,2.71,5.25-.95,4.89-5.25,4.77-9.44,2.24-23.22,3,3.46,1.19,5.25,2.62,11.48-.87,6.87.36,8.22-6.93,4-2.92,1.9-.24,1-8.23,3.09-5.78,4.24-6.19,3.87-2.51,3.4.6,4.11,2.48-2,5.21-2.8,3.69-3.52,14.78-.47,4,8.76-8,4.29-3.66,5.44-8.62,7.07-6.71,5.84-1.43,4.29,1.74,2.15,2.67-3.58,5.64-10.49,15.85,1,0,.95.68,7.19-7.71,8.34-5.72,5.33-1.12,4,1.59,3.34,3.86,2.62.51L493.8,348.94l-16.15,11.38,11.68-.47,12.93.12,8.41,2,5.18,3.52.78,7,.41,1.66-9.21,1.67-3.06-.12-5.41-.76-20.81,3.8-13.35,2.44-9,.42-7.39-1.31-22.74-5.35-4.69-.39-3.1,2.14-7.91,2-8.46.59L387,374.45,364.73,364l-10.85-3.1-11.68-1.55-17.64.24-24.19,4.17-25,8.1-28.6,15.26-.72-32.9Z"/><path class="cls-2" d="M168.54,364.73a1360,1360,0,0,0,142.55-53.88c12.4-5.5,24.44-11.67,38.34-11.54a54.34,54.34,0,0,1,17.42,3c6.14,2.14,11.61,5.68,17.55,8.23a50.72,50.72,0,0,0,30.92,2.66c5.92-1.24,11.88-3.06,18-2.65a20.59,20.59,0,0,1,8.85,2.46c4.32,2.5,8.21,8.29,5,13.16-3.68,5.6-12.82,5.9-18.67,6.64L405.7,335.7c-15,1.89-30,4.07-45.12,5.22-.8.06-.8,1.31,0,1.25,15.09-1.15,30.11-3.33,45.12-5.22l21.82-2.75c5-.63,10.27-.94,15-3,8.09-3.5,9.46-12.36,2.27-18-8.34-6.55-19.62-3.43-28.9-1.41a51.57,51.57,0,0,1-21.17.63c-7.58-1.48-14.06-5.27-20.92-8.57a56.63,56.63,0,0,0-33.84-5.1c-13.37,2.2-25.87,9.46-38.17,14.81q-20.43,8.91-41.16,17.12Q215,348.79,168.21,363.53c-.76.24-.44,1.44.33,1.2Z"/><path class="cls-2" d="M403.41,339c5.43-.34,9.8,2.95,14.65,4.85s10,2.92,14.06,6.54c.59.53,1.48-.35.88-.89-3.83-3.44-8.49-4.63-13.23-6.35-5.47-2-10.31-5.78-16.36-5.4-.8.05-.8,1.3,0,1.25Z"/><path class="cls-2" d="M429,351a82.78,82.78,0,0,1,19,3.18c6,1.77,15.59,3.42,13.14,11.51-.24.77,1,1.1,1.2.33,2-6.44-.79-8.1-6.49-10.41A82.91,82.91,0,0,0,429,349.74c-.8,0-.8,1.21,0,1.25Z"/><path class="cls-2" d="M462.28,360.9c3.71.28,7.42.44,11.14.37,2,0,15.28-2.07,12.91,4.27-.29.75.92,1.08,1.2.33,1.2-3.21-.58-5.81-3.91-6.3-2.68-.39-5.63.31-8.34.4a115.1,115.1,0,0,1-13-.32c-.81-.07-.8,1.18,0,1.25Z"/><path class="cls-2" d="M484.58,360.8c8.62,0,33.81-3.69,31.45,11.46-.12.79,1.08,1.13,1.2.33,2.61-16.7-23.46-13-32.65-13a.63.63,0,0,0,0,1.25Z"/><path class="cls-2" d="M170.87,434c31.95-11.08,55.93-35.93,85-52.15,17.19-9.58,36.31-16.8,55.81-19.74a182.8,182.8,0,0,1,30.73-2.15c10.22.21,19.13,3.68,28.49,7.43,5.67,2.27,11.24,4.73,16.68,7.5,4.16,2.12,8.2,4.06,12.89,4.67,7.68,1,15-1.68,22.2-3.89.77-.23.44-1.44-.33-1.2-8.06,2.46-16,5.31-24.53,3.33-4.91-1.14-9.23-3.88-13.73-6-3.93-1.88-7.94-3.6-12-5.23-8.49-3.43-16.91-7-26.13-7.67s-18.86.16-28.06,1.18c-18.48,2.05-35.87,7.81-52.68,15.64-15.67,7.29-29.65,17.47-43.6,27.55-16,11.57-32.3,23-51.12,29.56-.76.27-.43,1.47.33,1.21Z"/><path class="cls-2" d="M498.58,376.12A50.11,50.11,0,0,0,517.89,374a.63.63,0,0,0,.27-1c-4.34-4.1-11.82-.53-16.68.59-9.14,2.1-18.36,3.84-27.59,5.52-4.86.88-9.84,2.12-14.8,2.1s-9.88-1.45-14.71-2.76c-8.62-2.34-17.16-4.57-26.16-4.19-.81,0-.81,1.29,0,1.25,10.91-.46,20.92,3.11,31.37,5.62,8.19,2,15.49.85,23.68-.64,9.54-1.74,19.08-3.52,28.54-5.7,2.51-.58,5-1.31,7.54-1.83a18.53,18.53,0,0,1,3.84-.62c3.26.64,3.58,1.13,1,1.47-4.16,2.14-11,1.48-15.59,1.1-.8-.06-.8,1.19,0,1.25Z"/><path class="cls-2" d="M443.52,351.71a39.08,39.08,0,0,0,7.93-.73c4-.81,10.86-4.75,12.39,1.66.18.79,1.39.46,1.2-.33a5.7,5.7,0,0,0-5.16-4.75c-2-.13-3.9.92-5.73,1.45a37.1,37.1,0,0,1-10.63,1.45.63.63,0,0,0,0,1.25Z"/><path class="cls-2" d="M461,349.09a98.38,98.38,0,0,0,16.3-8.46c2.06-1.34,5.87-5.15,8.43-5.22l5.17,2.07a8.08,8.08,0,0,0,1.19,2,6.28,6.28,0,0,0,1.13.77.63.63,0,0,0,.63-1.08c-2.14-1.29-2.16-3.93-4.68-4.87a7.21,7.21,0,0,0-5.27.49c-3.34,1.46-6.31,4.27-9.43,6.18a96.29,96.29,0,0,1-13.8,6.94c-.73.3-.41,1.51.33,1.21Z"/><path class="cls-2" d="M488.49,334.91c5.59-5.29,19.77-21.5,26.44-9.08.38.71,1.46.08,1.08-.63-7.22-13.45-22.49,3.22-28.41,8.82-.58.56.3,1.44.89.89Z"/><path class="cls-2" d="M476.4,361.22c16.71-8.45,28.67-23.24,43.12-34.73.47-.37,0-1-.44-1.07a12.25,12.25,0,0,0-13.16,9.49c-.19.78,1,1.12,1.21.33a11,11,0,0,1,12-8.57l-.44-1.06c-14.37,11.42-26.26,26.13-42.87,34.53-.72.36-.09,1.44.63,1.08Z"/><path class="cls-2" d="M430.2,347.55c5-.64,10-1.43,15-1.9,3.55-.34,4.75-.15,8.22,1.39,1.07.48.85.68,2,.94.78.18,1.12-1,.33-1.2-1.45-.33-2.48-1.84-3.9-2.29a14,14,0,0,0-5.08-.23c-5.54.36-11.07,1.33-16.57,2-.79.1-.8,1.35,0,1.25Z"/><path class="cls-2" d="M451.09,345.1c4.48-.76,8-4.79,11.39-7.61,2.58-2.18,4.51-4.7,7.67-6,3.36-1.37,5.3.22,8.46.5.8.07.8-1.18,0-1.25-4.38-.38-7-2.71-11.1.36-5.16,3.89-10,11.65-16.75,12.8-.79.13-.46,1.33.33,1.2Z"/><path class="cls-2" d="M470.91,329.87c4-2,5.79-5.77,8.15-9.43,3.7-5.76,12.77-16.31,19.67-8.27.52.61,1.4-.28.88-.89-3.76-4.38-9.51-3.63-13.83-.44-6.39,4.7-8.57,14.44-15.5,18-.71.36-.08,1.44.63,1.07Z"/><path class="cls-2" d="M486.6,334.38c3.38-5.31,6.52-10.88,10.63-15.66,1.56-1.81,4.93-4.36,3.64-7a.62.62,0,0,0-.54-.31c-3.16,0-13.44,8.76-7,10.92.76.26,1.09-.95.33-1.2-3.44-1.16,4-7.7,4.6-7.29,1.61,1-3.27,5.58-3.86,6.34-3.3,4.24-6,9.05-8.87,13.58-.43.68.65,1.31,1.08.63Z"/><path class="cls-2" d="M411.52,337.19c3.55.34,6.21,2.69,8.74,5,.59.54,1.48-.34.88-.88-2.8-2.56-5.71-5-9.62-5.36-.8-.07-.79,1.18,0,1.25Z"/><path class="cls-2" d="M418.6,340.53c5.87-.35,12.21-1.39,18.06-.68.8.1.79-1.15,0-1.25-5.85-.71-12.19.33-18.06.68-.8,0-.81,1.29,0,1.25Z"/><path class="cls-2" d="M437.22,341.08c.48-2.66,5.07-5.59,7.1-7.31,3.25-2.76,6.88-5.21,11.28-3.48.75.3,1.08-.91.34-1.2-3.85-1.51-7.41-.18-10.58,2.2-1.94,1.45-3.7,3.18-5.5,4.79-1.61,1.44-3.45,2.49-3.85,4.67-.14.78,1.06,1.12,1.21.33Z"/><path class="cls-2" d="M451.53,328.77c.52-5,2.51-9.38,5-13.69,1-1.64,1.91-3.37,3-4.91,2.74-3.8,6.78-3.83,10.23-1,.62.51,1.5-.37.88-.88-3.61-3-8.28-3.62-11.48.25-4.53,5.49-8.18,13.14-8.92,20.22-.08.8,1.17.8,1.25,0Z"/><path class="cls-2" d="M470.17,308.41c-2.52.34-3.94,2.46-4.9,4.61-.68,1.54-1.2,4.52,1.44,4.4a2.73,2.73,0,0,0,2.1-1.55c.81-1.33,1.46-2.8,2.18-4.18.39-.76,1-1.7.71-2.59a1.31,1.31,0,0,0-1.64-.83c-.78.19-.45,1.4.34,1.2.21-.05-.52,1.64-.63,1.84l-.78,1.51-.79,1.52c-.15.3-.31.6-.47.9-.29.83-.65.8-1.08-.07-.76-.38-.86-.88-.3-1.52.1-.23.21-.46.32-.69a10.11,10.11,0,0,1,.85-1.46,4.27,4.27,0,0,1,3-1.88c.79-.11.45-1.31-.33-1.21Z"/><path class="cls-2" d="M466.14,316.79c-.91,3.36-2,6.72-2.68,10.14s-.57,6.9-2.44,9.94a.63.63,0,0,0,1.08.63c1.74-2.83,1.8-5.83,2.34-9,.65-3.84,1.89-7.6,2.91-11.35a.63.63,0,0,0-1.21-.34Z"/><path class="cls-2" d="M443.86,314.43c-4.32-2.6-11.36-1.9-15.15,1.53-3.28,3-2.6,9.16,1,11.65,2.32,1.62,6,1,8.6.77,2.27-.16,5.87-.06,7.83-1.52,4.14-3.08.54-10.05-2.25-12.63-.59-.54-1.47.34-.88.89a10.34,10.34,0,0,1,3.25,5,5.46,5.46,0,0,1-2.58,6.34c-1.35.74-4.45.58-6,.68a14.27,14.27,0,0,1-5.92-.52c-5.76-1.89-4.6-9.17.52-11.27,3.55-1.45,7.57-1.93,11,.12a.63.63,0,0,0,.63-1.08Z"/><path class="cls-1" d="M545.46,158.21l-22.25,9.38-24.15,10L479.83,186l-16.21,6L449,194.13l-11.6-1.91-11.92-4.61-13-5.88-11.12-2.86-4.06-.24S387,179.7,386.55,179.7s-12,2.63-12,2.63l-8.34.35-7.51-1.31L353.5,177l-2.71-5.25,1-4.89,5.24-4.76,9.44-2.24,23.22-3-3.46-1.19L381,153l-11.49.87-6.87-.36-8.22,6.94-4,2.92-1.91.23-1,8.23-3.1,5.78-4.23,6.2-3.88,2.5-3.39-.6-4.12-2.48,2-5.2,2.8-3.7L337,159.56l.47-4-8.76,8-4.29,3.66L319,175.89l-7.07,6.71L306.1,184l-4.29-1.75-2.15-2.66,3.58-5.65,10.49-15.85-1,0-1-.67-7.19,7.7-8.34,5.72L290.92,172l-4-1.59-3.34-3.86-2.62-.51,25.11-22.37,16.15-11.38-11.68.48-12.93-.12-8.41-2-5.18-3.52-.78-7-.41-1.66,9.21-1.66,3.06.11,5.41.76L321.35,114l13.35-2.45,9-.42,7.39,1.32,22.74,5.34,4.69.4,3.1-2.15,7.91-2,8.46-.59,14.9,4.77,22.28,10.48,10.85,3.1,11.68,1.55,17.64-.24,24.19-4.17,25-8.1,28.61-15.26.71,32.9Z"/><path class="cls-2" d="M631.36,127.92A1362.26,1362.26,0,0,0,488.81,181.8c-12.39,5.5-24.43,11.68-38.34,11.55a54.73,54.73,0,0,1-17.42-3c-6.14-2.13-11.6-5.68-17.55-8.23-9.93-4.25-20.42-4.86-30.92-2.66-5.92,1.25-11.88,3.06-18,2.65a20.6,20.6,0,0,1-8.86-2.46c-4.32-2.49-8.21-8.29-5-13.16,3.68-5.59,12.82-5.9,18.67-6.63L394.2,157c15-1.89,30-4.07,45.12-5.22.8-.06.8-1.31,0-1.25-15.09,1.15-30.11,3.33-45.12,5.22l-21.82,2.75c-5,.63-10.27.94-14.95,3-8.09,3.51-9.46,12.36-2.27,18,8.34,6.54,19.62,3.42,28.9,1.4a51.57,51.57,0,0,1,21.17-.63c7.58,1.48,14.06,5.27,20.92,8.57A56.71,56.71,0,0,0,460,193.87c13.37-2.21,25.87-9.46,38.17-14.82q20.43-8.9,41.16-17.12,45.57-18.08,92.37-32.8c.77-.24.44-1.45-.33-1.21Z"/><path class="cls-2" d="M396.49,153.7c-5.43.34-9.8-2.95-14.65-4.85s-10-2.92-14.06-6.53c-.59-.54-1.48.34-.88.88,3.83,3.44,8.49,4.64,13.23,6.35,5.47,2,10.31,5.78,16.36,5.4.8,0,.8-1.3,0-1.25Z"/><path class="cls-2" d="M370.88,141.66a82.78,82.78,0,0,1-19-3.18c-6-1.77-15.59-3.42-13.14-11.51.24-.77-1-1.1-1.2-.33-2,6.44.79,8.1,6.49,10.42a83.16,83.16,0,0,0,26.86,5.85c.81,0,.8-1.21,0-1.25Z"/><path class="cls-2" d="M337.62,131.76c-3.71-.29-7.42-.45-11.14-.38-2,0-15.28,2.07-12.91-4.27.29-.75-.92-1.08-1.2-.33-1.2,3.22.58,5.82,3.91,6.3,2.69.4,5.63-.31,8.34-.4a112.81,112.81,0,0,1,13,.33c.81.06.8-1.19,0-1.25Z"/><path class="cls-2" d="M315.32,131.85c-8.62,0-33.81,3.69-31.45-11.46.12-.79-1.08-1.13-1.2-.33-2.61,16.7,23.46,13,32.65,13a.63.63,0,0,0,0-1.25Z"/><path class="cls-2" d="M629,58.7c-31.95,11.09-55.92,35.93-85,52.15-17.19,9.58-36.31,16.8-55.81,19.75a183.85,183.85,0,0,1-30.73,2.14c-10.22-.21-19.13-3.68-28.49-7.43-5.67-2.27-11.24-4.73-16.68-7.5-4.16-2.12-8.2-4.06-12.89-4.67-7.68-1-15,1.68-22.2,3.89a.63.63,0,0,0,.33,1.21c8.06-2.47,16-5.32,24.53-3.34,4.91,1.14,9.23,3.89,13.73,6,3.94,1.89,8,3.6,12,5.23,8.49,3.43,16.91,7,26.13,7.67s18.86-.16,28.06-1.18c18.48-2,35.87-7.81,52.68-15.63,15.67-7.3,29.65-17.48,43.6-27.56,16-11.57,32.3-23,51.12-29.56.76-.26.43-1.47-.33-1.21Z"/><path class="cls-2" d="M301.32,116.53a50,50,0,0,0-19.3,2.12.64.64,0,0,0-.28,1c4.34,4.09,11.82.52,16.69-.6,9.14-2.1,18.36-3.83,27.58-5.52,4.86-.88,9.85-2.12,14.81-2.1s9.87,1.46,14.7,2.76c8.62,2.34,17.16,4.57,26.17,4.19.8,0,.8-1.28,0-1.25-10.92.46-20.93-3.11-31.38-5.61-8.19-2-15.49-.86-23.68.63-9.54,1.74-19.08,3.52-28.54,5.7-2.51.58-5,1.31-7.54,1.83a19.24,19.24,0,0,1-3.84.63q-4.89-1-1-1.48c4.15-2.14,11-1.48,15.58-1.1.8.06.8-1.19,0-1.25Z"/><path class="cls-2" d="M356.38,140.94a39.81,39.81,0,0,0-7.93.73c-4,.81-10.86,4.76-12.39-1.66-.18-.78-1.39-.45-1.2.33A5.73,5.73,0,0,0,340,145.1c2,.13,3.9-.93,5.73-1.46a37.51,37.51,0,0,1,10.63-1.45.63.63,0,0,0,0-1.25Z"/><path class="cls-2" d="M338.88,143.56a98.43,98.43,0,0,0-16.3,8.47c-2.06,1.34-5.87,5.14-8.43,5.22L309,155.17a7.84,7.84,0,0,0-1.19-2,5.75,5.75,0,0,0-1.13-.78.63.63,0,0,0-.63,1.08c2.14,1.29,2.16,3.93,4.68,4.87a7.1,7.1,0,0,0,5.27-.49c3.34-1.45,6.31-4.27,9.43-6.18a97.34,97.34,0,0,1,13.8-6.94c.73-.3.41-1.51-.33-1.21Z"/><path class="cls-2" d="M311.41,157.75c-5.59,5.29-19.77,21.5-26.44,9.07-.38-.71-1.46-.08-1.08.63,7.22,13.46,22.49-3.22,28.41-8.82.58-.55-.3-1.44-.89-.88Z"/><path class="cls-2" d="M323.5,131.43c-16.7,8.45-28.66,23.24-43.12,34.73-.47.37,0,1,.44,1.07A12.24,12.24,0,0,0,294,157.74c.19-.78-1-1.12-1.21-.33A11,11,0,0,1,280.82,166l.44,1.07c14.38-11.43,26.27-26.14,42.88-34.54.71-.36.08-1.44-.64-1.08Z"/><path class="cls-2" d="M369.7,145.1c-5,.65-10,1.43-15,1.9-3.56.34-4.76.15-8.23-1.39-1.07-.47-.85-.68-2-.94-.78-.18-1.12,1-.33,1.2,1.45.33,2.48,1.85,3.9,2.29a14,14,0,0,0,5.08.23c5.54-.36,11.07-1.33,16.57-2,.79-.1.8-1.35,0-1.25Z"/><path class="cls-2" d="M348.81,147.55c-4.48.76-8,4.79-11.39,7.61-2.58,2.18-4.51,4.71-7.67,6-3.36,1.38-5.3-.22-8.46-.5-.8-.07-.79,1.18,0,1.25,4.38.39,7,2.71,11.1-.36,5.16-3.88,10-11.65,16.75-12.79.79-.14.46-1.34-.33-1.21Z"/><path class="cls-2" d="M329,162.78c-4,2-5.79,5.77-8.15,9.44-3.7,5.75-12.77,16.31-19.67,8.26-.52-.61-1.4.28-.88.89,3.76,4.38,9.51,3.63,13.84.44,6.38-4.7,8.56-14.44,15.49-17.95.72-.37.08-1.45-.63-1.08Z"/><path class="cls-2" d="M313.3,158.27c-3.38,5.31-6.52,10.88-10.63,15.66-1.56,1.81-4.93,4.36-3.64,7a.6.6,0,0,0,.54.31c3.16,0,13.44-8.76,7-10.92-.77-.26-1.1.95-.34,1.2,3.44,1.16-4,7.7-4.6,7.3-1.61-1,3.27-5.59,3.86-6.35,3.3-4.24,6-9,8.87-13.57.43-.69-.65-1.31-1.08-.64Z"/><path class="cls-2" d="M388.38,155.46c-3.55-.34-6.21-2.69-8.73-5-.6-.54-1.49.34-.89.89,2.81,2.55,5.71,5,9.62,5.35.8.07.8-1.18,0-1.25Z"/><path class="cls-2" d="M381.3,152.12c-5.87.35-12.21,1.39-18.06.68-.8-.1-.79,1.15,0,1.25,5.85.71,12.19-.33,18.06-.68.8,0,.81-1.29,0-1.25Z"/><path class="cls-2" d="M362.68,151.57c-.48,2.66-5.07,5.59-7.1,7.32-3.25,2.75-6.88,5.2-11.28,3.47-.75-.29-1.08.91-.34,1.21,3.85,1.51,7.41.17,10.58-2.21,1.94-1.45,3.7-3.18,5.5-4.79,1.61-1.44,3.45-2.49,3.85-4.66.14-.79-1.06-1.13-1.21-.34Z"/><path class="cls-2" d="M348.37,163.88c-.52,5-2.51,9.39-5,13.69a54.85,54.85,0,0,1-3,4.91c-2.74,3.8-6.78,3.84-10.23,1-.61-.51-1.5.37-.88.88,3.61,3,8.28,3.63,11.48-.25,4.53-5.49,8.18-13.14,8.92-20.22.08-.8-1.17-.8-1.25,0Z"/><path class="cls-2" d="M329.73,184.24c2.52-.34,3.94-2.45,4.9-4.61.68-1.54,1.2-4.52-1.44-4.39a2.7,2.7,0,0,0-2.1,1.54c-.81,1.34-1.46,2.8-2.17,4.18-.4.76-1.05,1.7-.72,2.6a1.3,1.3,0,0,0,1.64.82.62.62,0,0,0-.33-1.2c-.22,0,.51-1.64.62-1.84l.78-1.51c.26-.51.52-1,.79-1.51.15-.31.31-.61.47-.9q.43-1.24,1.08.06c.76.38.86.89.3,1.52-.1.23-.21.46-.32.69a10.11,10.11,0,0,1-.85,1.46,4.27,4.27,0,0,1-3,1.88c-.79.11-.45,1.31.33,1.21Z"/><path class="cls-2" d="M333.76,175.86c.91-3.36,2-6.72,2.68-10.14s.57-6.89,2.44-9.94c.42-.69-.66-1.31-1.08-.63-1.74,2.83-1.8,5.83-2.34,9-.65,3.84-1.89,7.6-2.91,11.36a.63.63,0,0,0,1.21.33Z"/><path class="cls-2" d="M356,178.22c4.32,2.6,11.36,1.9,15.15-1.53,3.28-3,2.6-9.16-1-11.65-2.32-1.62-6-1-8.6-.77-2.27.16-5.87.07-7.83,1.52-4.14,3.08-.54,10.05,2.25,12.63.59.55,1.47-.34.88-.88a10.44,10.44,0,0,1-3.25-5,5.47,5.47,0,0,1,2.58-6.35c1.35-.74,4.45-.58,6-.68a14.08,14.08,0,0,1,5.91.53c5.76,1.88,4.6,9.16-.52,11.26-3.55,1.46-7.57,1.93-11-.12a.63.63,0,0,0-.63,1.08Z"/></g></svg>