<svg xmlns="http://www.w3.org/2000/svg" xmlns:xlink="http://www.w3.org/1999/xlink" viewBox="0 0 800 500"><defs><style>.cls-1{fill:none;}.cls-2{clip-path:url(#clip-path);}.cls-3{fill:#efefef;}.cls-4{fill:#471188;}.cls-5{fill:#996be5;}.cls-6{fill:#5822cc;}.cls-7{fill:#a693f0;}</style><clipPath id="clip-path"><rect class="cls-1" width="800" height="500"/></clipPath></defs><title>Wall of Support</title><g id="Drawing_1"><g class="cls-2"><rect class="cls-3" width="800" height="500"/><circle class="cls-4" cx="378.9" cy="109.46" r="9.43"/><circle class="cls-4" cx="412.09" cy="109.46" r="9.43"/><circle class="cls-4" cx="445.1" cy="109.46" r="9.43"/><polygon class="cls-5" points="569.67 393.87 555.72 377.82 548.22 368.87 543.63 355.72 543.95 348.38 550.24 352.01 557.53 354 558.63 357.01 556.29 361.61 556.21 365 559.35 366.85 568.22 370.8 570 376.04 569.67 393.87"/><polygon class="cls-5" points="420.8 480.87 418.55 502.92 505.89 502.62 600.37 500 601.67 468.12 600.82 459.95 599.67 451.37 597.82 444.27 594.67 433.3 591.77 427.17 583.22 412.58 578.75 406.49 568.1 397.29 558.91 391.37 546.93 385.2 541.13 382.54 537.86 378.91 531.69 368.99 522.5 356.29 512.82 348.18 500.12 340.56 495.88 339.59 493.95 350.96 488.14 363.06 483.79 367.9 479.59 371.77 462.01 384.35 445.4 398.54 437.66 411.29 432.38 421.25 426.08 439.87 422.21 463.83 420.8 480.87"/><polygon class="cls-6" points="732.17 312.83 728.38 312.59 721.51 314.21 710.18 317.32 707.69 318.79 706.39 320.96 705.15 326.84 694.94 377 692.75 388.45 692.6 390.47 694.65 392.27 700.05 392.87 712.02 391.37 717.67 389.86 720.61 386.25 722.52 377.14 722.83 373.84 722.17 371.68 722.63 369.6 724.58 367.32 726.03 360.73 725.29 358.12 725.97 355.13 727.84 352.92 731.8 330.45 734.18 317.34 733.98 313.7 732.17 312.83"/><polyline class="cls-7" points="714.78 387.01 705.92 388.21 698 388.81 695.06 388 694.73 386.5 706.94 324.25 708.92 319.32 713.11 317.89 723.27 315.56 728.6 314.09 729.82 314.04 730.43 314.83 731.03 317.53 718.54 376.31 716.86 383.88"/><path class="cls-4" d="M440.56,402.82l.48,1.37,8.71-10,23.07-17.58,11-8.71,3.87-3.71,6.77-16.29,5.49-16.62,5.64-46.61,6.29-24.35,4.24-9.88.42-1.81,3.33,3.62,1.08,9.23a23.56,23.56,0,0,0,.69,3.54l.77,2.72,1.08.24,2.79,1.21.44-5.1,1.31-9.54c5.62.23,10.73-.74,14.18-5.55a33.17,33.17,0,0,0,4-8.57,43.57,43.57,0,0,1,3.69-8.72c2.24-3.63,5.56-6.45,7.81-10.07,2.37-3.81,3.37-8.32,6.06-12a17.73,17.73,0,0,1,13.28-7l5.84,2.95,5.37,1.5-6.43-7.23-8-7.2L567.16,187l-12.61-5.75-11.21-3-10-1.33-6.45.08-9.86.54-9.68,2.3-11.49,5-3.75,2.3-8.86,7-6.76,8.83-9,14.59-9.6,23.31-8.95,50.57-3.79,32.5Z"/><path class="cls-4" d="M268,236.87c1.23,9.28-1.07,19.3,4.62,27.46.45.66,1.54,0,1.08-.63-5.54-7.95-3.25-17.8-4.45-26.83-.1-.79-1.36-.8-1.25,0Z"/><polygon class="cls-4" points="331.67 306.38 332.33 307.78 334.87 305.36 339.95 283.95 349.75 263.62 359.55 248.5 362.82 238.82 362.94 229.87 353.87 208.7 352.54 206.41 355.4 205.72 356.85 205.96 351.85 201.85 350.16 195.56 349.11 200.24 343.3 187.25 334.67 174.91 326.82 171.46 318.7 164.19 312.25 159.91 299.19 156.04 286.04 155.24 266.04 156.12 257.01 158.78 252.01 161.53 244.83 163.7 242.45 165.44 238.34 166.32 235.88 167.66 232.21 168.54 230.07 171.81 228.82 178.46 230.12 182.94 233.14 186.28 237.49 189.03 243.22 190.07 256.12 191.53 254.85 193.22 253.95 194.51 267.19 189.29 257.27 198.48 272.27 192.98 263.26 202.23 272.94 198.36 262.98 206.36 260.64 209.75 258.79 213.46 257.66 218.62 256.85 222.98 257.41 224.19 262.33 218.54 261.61 222.25 262.98 227.71 268.54 235.8 268.7 242.17 270.16 255.32 272.66 262.41 275.32 256.93 277.98 247.98 280.07 245.96 286.85 241.24 290 238.94 295.68 236.25 298.74 235.47 298.82 236.22 299.07 237.58 300.37 238.1 304.51 238.1 307.17 240.28 309.35 243.3 311.53 249.11 311.04 256.24 311.16 261.2 308.46 281.85 309.03 286.53 321.05 292.56 328.04 298.52 329.79 301.12 331.67 306.38"/><polygon class="cls-6" points="69.76 299.97 74.02 299.47 81.86 300.88 94.82 303.69 97.72 305.18 99.33 307.55 101.08 314.11 115.67 370.04 118.84 382.82 119.14 385.09 116.94 387.24 110.89 388.25 97.29 387.3 90.83 385.94 87.3 382.05 84.58 371.9 84.03 368.19 84.65 365.71 84 363.4 81.65 360.95 79.61 353.61 80.29 350.62 79.34 347.29 77.1 344.91 71.25 319.82 67.76 305.18 67.76 301.06 69.76 299.97"/><path class="cls-6" d="M211.45,516.61l-1-11.29.8-6.13,1.37-9.19,7.34-33.88,11.78-28.87,15.7-22.35,17.28-21.84,1.53,1.45,1.13-.16,2.48-.84,4.46-3.27,7.5-5.57,8.35-5,9.43-5,8.83-5.08L320,355l10.89-4.59,8.83-2.91,2.18-2.78,2.06.85,4.71,11.37,6.47,12.39,6.48,6,5.56,9.07,4.6,11.85,6.53,16.46,4.36,14.75,2.17,12.83L387,459.59v22.26l-1.21,31.69,1.27,7.13S209.59,516.61,211.45,516.61Z"/><path class="cls-4" d="M505.46,483.15c.25-14.86-4.86-27.09-11.53-40.13-.36-.71-1.44-.08-1.08.63,6.58,12.87,11.6,24.83,11.36,39.5a.63.63,0,0,0,1.25,0Z"/><path class="cls-4" d="M588.76,206.78c-22.09-28.61-70.47-40.08-100.45-17.62-15.24,11.41-24.55,31-30.19,48.65-3.66,11.52-5.39,23.61-7.27,35.52q-3,19.29-5.16,38.72c-3.35,30.62-5.06,61.39-5.87,92.17a.63.63,0,0,0,1.25,0c1.31-50.19,5.14-100.39,14.29-149.81,3.61-19.51,11.23-39.21,23.93-54.66s31.92-22.62,51.68-20.93c21.13,1.8,43.54,11.53,56.71,28.59.49.63,1.57,0,1.08-.63Z"/><path class="cls-4" d="M511.75,267.51c2.21-2.56,4.53-5.25,5.41-8.6.76-2.92,0-5-1.14-7.64-.32-.74-1.39-.1-1.08.63,1.16,2.7,1.74,4.74.72,7.64-1,2.72-2.94,4.94-4.79,7.09-.53.6.35,1.49.88.88Z"/><path class="cls-4" d="M522.14,261.74c.08-4.78-1-9.62-4.09-13.38-.51-.62-1.39.27-.89.88,2.85,3.5,3.8,8.09,3.73,12.5a.63.63,0,0,0,1.25,0Z"/><path class="cls-4" d="M513.4,267.79c1.83-1.14,4.39-3.3,5.88-.62.66,1.19.42,2.61,1.32,3.7a4.55,4.55,0,0,0,.64.6c.31.24.63.46,1,.68-.4,1.31-.74,1.52-1,.63a9.87,9.87,0,0,1-1.09-2.58l-1.25-3c-.3-.73-1.51-.41-1.2.33.74,1.78,1.46,3.57,2.24,5.33a3.82,3.82,0,0,0,2,2.41c2,.67,3.15-1.34,2.17-3-.85-1.43-2.49-1.78-3-3.51-.38-1.2-.46-2.3-1.36-3.28-2.16-2.36-4.85-.11-6.92,1.18-.68.42,0,1.51.64,1.08Z"/><path class="cls-4" d="M512.44,271.37c1.82-.33,4.81-.68,5.19,1.82.12.79,1.32.45,1.2-.34-.49-3.25-4.27-3.14-6.72-2.68-.79.14-.45,1.35.33,1.2Z"/><path class="cls-4" d="M507.36,275.81c3.65,4.38,3.12,9.72,9.84,10.46,2.16.24,5.73.63,7.7-.54s2.24-3.65,2.32-5.8c0-.8-1.22-.8-1.25,0-.27,7.34-11.31,6.19-14.11,1.76-1.37-2.19-1.93-4.75-3.62-6.77-.52-.61-1.4.28-.88.89Z"/><path class="cls-4" d="M517.13,285.87a65.19,65.19,0,0,0,4,13.3c.29.74,1.49.42,1.2-.33a65.35,65.35,0,0,1-4-13.3c-.13-.79-1.34-.45-1.21.33Z"/><path class="cls-4" d="M489.23,361.1c17.75,7.44,28.11,25,37.22,41a.63.63,0,0,0,1,.12q8.68-8.64,18.1-16.46c.62-.52-.27-1.4-.88-.89-3.38,2.81-6.71,5.68-9.95,8.65-1.39,1.28-2.76,2.56-4.12,3.87-.91.87-1.81,1.74-2.7,2.62-1.15.34-1.82-.14-2-1.45-2.12-2.34-3.45-6-5.13-8.67-2.06-3.32-4.22-6.57-6.59-9.68-6.61-8.69-14.5-16.13-24.6-20.37-.74-.31-1.06.9-.33,1.21Z"/><path class="cls-4" d="M497.41,340.32a69,69,0,0,1,26.89,19.3,99.41,99.41,0,0,1,9.83,14.31c2.31,4,4.38,7.76,8.13,10.54.65.48,1.27-.61.63-1.08-5.23-3.87-7.77-10.58-11.25-15.91a86.31,86.31,0,0,0-9.19-11.83,70.25,70.25,0,0,0-24.71-16.54c-.75-.31-1.07.9-.33,1.21Z"/><path class="cls-4" d="M545.26,388a18,18,0,0,1,6.62,9.08.65.65,0,0,0,.77.44c11.87-1.61,21,6.34,25.94,16.35.36.72,1.44.09,1.08-.63-3.59-7.22-9.14-13.63-17-16.16a22.91,22.91,0,0,0-5.12-1c-1.74-.13-3.56.51-4.94-.79-.87-.83-1.48-3-2.27-4.12a19.84,19.84,0,0,0-4.41-4.22c-.64-.48-1.27.6-.63,1.08Z"/><path class="cls-4" d="M573,402.8c-2.52-4.3-6.27-7.16-10.41-9.81a138.88,138.88,0,0,0-16.67-9.44c-.73-.33-1.36.75-.63,1.08a126,126,0,0,1,13.83,7.67c4.9,3,9.82,6,12.8,11.13a.63.63,0,0,0,1.08-.63Z"/><path class="cls-4" d="M570.67,399.56c-.19-5.19-.25-10.36-.29-15.55,0-2.78-.06-5.57-.14-8.35,0-1.27.42-3.93-.5-5-.79-1-2-1-3.07-1.35a39.9,39.9,0,0,1-8.2-4.13c-4.39-2.69-8.65-5.68-13.67-7a.63.63,0,0,0-.77.77c3.6,14.14,16.28,25.42,25.27,36.3.52.62,1.4-.26.89-.88-4.88-5.9-10.06-11.54-14.73-17.61a81.84,81.84,0,0,1-7.14-10.56c-.82-1.49-2.44-3.77-2.49-5.46,0-.59-.46-.79-.12-1s3.77,1.6,4.3,1.88c3.59,1.88,6.9,4.25,10.43,6.25A33.86,33.86,0,0,0,565,370a15.18,15.18,0,0,1,2.57.81c1.19,1,1.28,3.43,1.41,4.85.75,7.87.15,16,.43,23.9,0,.8,1.28.8,1.25,0Z"/><path class="cls-4" d="M542.74,348a30.28,30.28,0,0,0,10.66,5.4c1.21.35,4.09.74,4.27,2.34a7.06,7.06,0,0,1-.72,2.13c-.63,1.82-1.3,3.63-1.89,5.48-.24.76,1,1.09,1.21.33.79-2.5,4.44-8.42,1.58-10.22-2-1.27-5.11-1.42-7.38-2.22a27.07,27.07,0,0,1-7.1-4.32c-.64-.49-1.26.6-.63,1.08Z"/><path class="cls-4" d="M487.8,379.75c-8.87,6.37-13.05,15.48-17.36,25.34-.32.73.76,1.36,1.08.63,4.18-9.56,8.26-18.67,16.91-24.89.65-.47,0-1.55-.63-1.08Z"/><path class="cls-4" d="M531.3,216.14c-12.2,23-23.23,47.1-27,73.07-1.92,13.18-2.12,26.57-4.63,39.67a105.05,105.05,0,0,1-5.34,18.38c-1.29,3.33-2.73,6.61-4.23,9.85-1.15,2.47-2.26,6.1-4,8.19-1.62,1.89-4.22,3.41-6.14,4.95q-7.39,5.89-14.91,11.61c-7.55,5.73-15.28,10.63-21,18.27-7.42,9.84-14.54,22.63-17.34,34.78-4.89,21.29-5.87,43.48-8.68,65.09-.1.8,1.15.79,1.25,0,2.64-20.29,4-40.82,7.88-60.92,2.44-12.54,8.62-24.77,15.77-35.26,6.42-9.4,15.25-15.12,24.18-21.94,6.33-4.83,13.88-9.48,19.38-15.26,2.27-2.38,3.39-5.89,4.77-8.88a141.05,141.05,0,0,0,7.06-17.84c3.77-12.21,4.65-24.94,5.83-37.59,2.88-30.85,13.9-58.36,28.33-85.54.37-.71-.7-1.34-1.08-.63Z"/><path class="cls-4" d="M600.69,499.19c14.68-10.53,26.38-25.46,38.35-38.82,5.75-6.41,11.48-12.91,17.78-18.8,3.77-3.53,7.74-6.89,10.86-11,3.67-4.88,5.81-10.69,10.31-14.94.58-.55-.3-1.43-.89-.88-3.6,3.41-5.69,7.68-8.25,11.86-3.33,5.41-8,9.5-12.56,13.78-6.09,5.66-11.64,11.91-17.19,18.09C626.89,472,615,487.39,600.05,498.11c-.64.47,0,1.55.64,1.08Z"/><path class="cls-4" d="M663.21,495.57c8.47-11.58,13.86-25.36,21.58-37.48,3.84-6,8.42-11.62,12.27-17.65,4.24-6.65,7.72-13.89,11.5-20.81.39-.7-.69-1.33-1.08-.63-3.78,6.92-7.26,14.16-11.5,20.81-3.83,6-8.44,11.59-12.27,17.65-7.7,12.13-13.11,25.9-21.58,37.48-.47.65.61,1.28,1.08.63Z"/><path class="cls-4" d="M709.88,419.57c6-6.6,11.73-13.68,18.22-19.82,4.44-4.2,11.28-5.88,11.56-12.78.22-5.44-1.12-10.86-5.61-14.11a35.9,35.9,0,0,1-5.22-4.34,5,5,0,0,0-2-1.65,2.83,2.83,0,0,0-3.31.81c-.57.57.31,1.46.88.89,1.25-1.27,5.32,3.08,6.39,3.85,2.85,2.09,5.48,3.14,6.65,6.91a19.07,19.07,0,0,1,1,7.64c-.7,4.84-3.91,6.17-7.33,8.63C722.64,401.67,716,411,709,418.69c-.54.59.35,1.48.89.88Z"/><path class="cls-4" d="M723.14,368.2c-4.22,5.53,3.69,12.09,8.23,13.79.75.28,1.08-.93.33-1.21-3.9-1.46-11.14-7.15-7.48-11.95.49-.64-.6-1.26-1.08-.63Z"/><path class="cls-4" d="M728.33,380.13a3.48,3.48,0,0,0-.31,2.21,21.9,21.9,0,0,0,.26,3.13,4.72,4.72,0,0,0,2.82,3.7c.75.31,1.07-.9.34-1.21-1.52-.62-1.92-2.24-2.06-3.71-.08-.84-.45-2.74,0-3.49s-.65-1.3-1.08-.63Z"/><path class="cls-4" d="M728.26,384.76a10.27,10.27,0,0,0-6,4c-.48.65.61,1.27,1.08.63a8.87,8.87,0,0,1,5.2-3.4c.79-.18.46-1.39-.33-1.21Z"/><path class="cls-4" d="M733.06,372.43c-.43-1.72-1.12-4.35-.13-6a.63.63,0,0,0-1.08-.63c-1.2,2-.52,4.85,0,6.94.19.79,1.4.45,1.21-.33Z"/><path class="cls-4" d="M731.82,367.79a27.31,27.31,0,0,1-4.46-7.05,3.83,3.83,0,0,1-.86-4.24c.12-2.8,1.31-3.32,3.56-1.58,3.56,1.22,2.43,1.46,3.88,4.37.74,1.49,1.83,2.83,2.69,4.25a63.79,63.79,0,0,1,5,10.38c.5,1.35,1.54,3.29,1.58,4.77.09,3.46-2.19,4.93-4.44,6.75-.62.51.27,1.39.89.88,1.69-1.36,4.29-3,4.87-5.3.71-2.76-1.29-6.47-2.31-9a64.68,64.68,0,0,0-4.56-9.12,47.79,47.79,0,0,1-3.2-5.66c-.64-1.47-.92-3.39-1.93-4.7-2.47-3.25-5.5-1-6.81,2.11-2.59,6.12,1.53,9.4,5.17,14,.49.63,1.37-.26.88-.89Z"/><path class="cls-4" d="M734.49,357.32a119.31,119.31,0,0,1,2.13-12c.52-2.26,2.2-5.82,1.24-8.17-1.32-3.22-5.52-1.86-7.4,0-.58.56.31,1.45.88.88q6.55.06,4.82,4l-.39,1.5c-.42,1.76-.82,3.52-1.17,5.29-.56,2.84-1,5.69-1.36,8.56-.1.8,1.15.79,1.25,0Z"/><path class="cls-4" d="M675.05,417.89c1.2-5.58-.79-11.24.47-16.67,1.3-5.59,5.34-10.89,7.76-16.07q3.18-6.76,5.72-13.82c1.36-3.76,4.39-19.5,10.68-17.23.76.27,1.08-.94.33-1.21-4-1.44-6.14,1.91-7.65,5.19-2.8,6.08-4.35,12.76-6.88,19-2.91,7.15-7,13.68-10.07,20.75-2.75,6.41-.12,13.05-1.57,19.76-.17.78,1,1.11,1.21.33Z"/><path class="cls-4" d="M728.39,352.32c2-10.24,4.05-20.49,5.82-30.77.47-2.73,2.3-7.45-.85-9.16s-8.3.64-11.32,1.27c-4.35.92-13.38,1.12-15.75,5.64-.89,1.68-1,4-1.39,5.86l-7,34.62L692.23,388c-.15.78,1,1.12,1.21.33l10.76-53.45,2.27-11.26c.71-3.53,1.59-5.32,5.72-6.57,5.46-1.65,11.34-2.54,16.93-3.63,1.92-.37,4-1,4.78,1.87.4,1.5-.64,4.38-.89,5.88-1.78,10.29-3.8,20.54-5.83,30.78-.15.78,1.05,1.12,1.21.33Z"/><path class="cls-4" d="M725.78,367.36l1-5.33c.15-.79-1.05-1.12-1.21-.33l-1,5.33c-.15.78,1,1.12,1.21.33Z"/><path class="cls-4" d="M692.18,390c.42,4,3.55,4.13,6.83,3.73,5.33-.65,10.68-1.23,16-2,8.39-1.26,7.77-10,9.1-16.86.15-.79-1.06-1.13-1.21-.34l-1.66,8.61c-.75,3.88-1.58,6.57-6.11,7.33-3.68.61-21.14,4.7-21.68-.44-.08-.8-1.33-.8-1.25,0Z"/><path class="cls-4" d="M728.78,313.71c-3.67.75-7.35,1.51-11,2.3-3.2.69-8,.92-9.86,4.05-1.78,3-1.85,7.64-2.52,10.93l-10.1,49.65c-.42,2.07-2.4,6.84-.47,8.7,1.77,1.71,5.9.38,8.07.09,3.29-.42,6.62-.73,9.89-1.26,5.57-.89,5.24-4.33,6.22-9.08q2.49-12,4.92-24.12,3-14.61,5.89-29.23c.49-2.46,3.45-10.17.7-12-.67-.45-1.3.63-.63,1.08,1.83,1.24-1.07,9.58-1.34,11q-2.22,11-4.43,22-2.37,11.73-4.76,23.45c-.58,2.82-1.15,5.64-1.74,8.46-.31,1.51-.37,3.78-1.09,5.16-1.19,2.25-4,2.13-6.31,2.42-3.45.45-7.15,1.37-10.63,1.38-6.3,0-3.83-4-3-8.25l9-44c.93-4.58,1.23-10.16,3-14.53,1.45-3.68,6.71-4,10.09-4.71s7-1.47,10.49-2.19c.79-.16.46-1.36-.33-1.2Z"/><path class="cls-4" d="M436.84,414c8.63-2.9,17.59-5.89,26.83-5.08,10.3.89,17.48,6.95,22.16,15.92a81,81,0,0,1,6.95,54.11c-.16.79,1,1.12,1.21.33,4.11-19.24,1.7-40.73-8.59-57.77C474.25,403,454,406.87,436.51,412.74c-.76.26-.44,1.46.33,1.21Z"/><path class="cls-4" d="M580.4,417.88c3.45,10.35,7.85,19.49,8.43,30.62.28,5.4.74,10.78.95,16.19.45,11.62-.06,23.26.34,34.88,0,.8,1.28.81,1.26,0-.42-11.95.14-23.92-.39-35.88-.25-5.66-.58-11.41-1-17-.84-10.54-5.07-19.26-8.34-29.1-.25-.76-1.46-.44-1.21.33Z"/><path class="cls-4" d="M568.6,397.87c16.43,14.1,25.25,32.15,30,52.9,3.51,15.27,2,32.37,1.12,47.88,0,.81,1.21.8,1.25,0,.91-15.93,2.41-33.42-1.37-49.07-2.24-9.29-4.71-18.18-9.24-26.68A90,90,0,0,0,569.49,397c-.61-.52-1.5.36-.89.89Z"/><path class="cls-4" d="M262.59,187c-6.52-1.69-13.17,2.69-19.87,2.24-10.32-.69-17.64-11.5-9.75-20.09.54-.59-.34-1.47-.89-.88-4.69,5.11-5.05,13.44.33,18.28a16.88,16.88,0,0,0,10.31,3.94c6.42.4,13.43-3.87,19.54-2.28a.63.63,0,0,0,.33-1.21Z"/><path class="cls-4" d="M235.91,166.45a14.94,14.94,0,0,0-1.44,13.81c.29.73,1.42.47,1.21-.33a13.62,13.62,0,0,1,3-12.75c.54-.6-.35-1.48-.88-.88a15,15,0,0,0-3.36,14l1.21-.33A13.74,13.74,0,0,1,237,167.08c.44-.67-.64-1.3-1.08-.63Z"/><path class="cls-4" d="M245.39,161c-4.71,1.68-5.53,6.72-5.9,11.11h1.25a8.19,8.19,0,0,1,4.32-7.35c.71-.39.08-1.47-.63-1.08a9.45,9.45,0,0,0-4.94,8.43.63.63,0,0,0,1.25,0c.32-3.74.87-8.44,5-9.9.75-.27.43-1.48-.33-1.21Z"/><path class="cls-4" d="M253.42,157.61A6.68,6.68,0,0,0,250,163c-.07.59.71.76,1.07.44,9-7.94,22.56-7.34,33.86-7.37,12,0,24.3,1.28,34.12,8.8.64.49,1.26-.59.63-1.07-10.43-8-23.65-9.12-36.36-9-11.27.13-24.17-.17-33.13,7.73l1.06.44,2.85-4.26a.63.63,0,0,0-.63-1.08Z"/><path class="cls-4" d="M245.31,181.7c3.21,3.7,7.79,4.33,12.45,3.43,8.9-1.73,16.35-5.67,25.73-3.58.79.17,1.12-1,.33-1.21-5.61-1.25-11.07-.69-16.6.76-6.75,1.76-15.35,6.26-21-.29-.53-.6-1.41.28-.89.89Z"/><path class="cls-4" d="M264.51,171.83c8.79,1.84,17.66,1.65,26.6,1.51,8.48-.14,21.49-1.72,27.39,5.77.5.63,1.38-.26.88-.89-4.83-6.13-13.79-6.05-20.91-6.17-11.27-.18-22.5.91-33.63-1.43-.78-.16-1.12,1-.33,1.21Z"/><path class="cls-4" d="M331,173.22l-3.87-2.3-.48,1.14c12.86,4.34,18,17.35,21.81,29.24a.63.63,0,0,0,1.21,0,20.89,20.89,0,0,0,.67-7.08l-1.16.31a13.57,13.57,0,0,1,1,7.68.6.6,0,0,0,.45.6,11,11,0,0,1,7.69,4.92l.86-.85a9.06,9.06,0,0,0-7.84-1.73.63.63,0,0,0-.38.92c5.14,8.3,10.68,17.31,11.29,27.31s-5,17.88-10.24,25.86a118.88,118.88,0,0,0-17.92,46.44c-.13.78,1.08,1.12,1.21.33A117.16,117.16,0,0,1,344,276.45c4-9,9.72-16.66,14.61-25.1,4-7,5.91-14.38,4.32-22.4a50.67,50.67,0,0,0-4.58-12.59c-1.21-2.42-2.56-4.78-3.95-7.11-.87-1.47-1.95-1.88-.27-2.66s3.19.41,4.44,1.37c.5.38,1.2-.36.86-.86-1.63-2.39-3.38-3.25-5.68-4.81-2.13-1.44-1.52-.92-2.11-3.52a24.67,24.67,0,0,0-1.39-4.87c-.25-.57-1.21-.28-1.17.32a20.5,20.5,0,0,1-.63,6.75h1.21c-3.95-12.37-9.38-25.62-22.69-30.12-.68-.23-1.08.79-.48,1.15l3.87,2.3a.63.63,0,0,0,.63-1.08Z"/><path class="cls-4" d="M252.62,195.38l18.4-5.75a.63.63,0,0,0-.33-1.21,29.92,29.92,0,0,0-15.93,10.85c-.4.52.35,1.14.85.85a55,55,0,0,1,15.22-6l-.61-1.05a46.6,46.6,0,0,0-9.38,12.27c-.31.59.52,1.33,1,.75a20.93,20.93,0,0,1,12.05-7.62l-.48-1.14a29.18,29.18,0,0,0-17.09,27.78.63.63,0,0,0,1.16.32,14.4,14.4,0,0,1,4.89-5.45l-.91-.71c-1.43,6.24,2.35,10.91,5.2,16.11.39.71,1.47.08,1.08-.63-2.63-4.8-6.43-9.23-5.08-15.15.11-.49-.44-1-.92-.7a15.56,15.56,0,0,0-5.34,5.9l1.17.31A28,28,0,0,1,274,198.44c.67-.31.18-1.3-.48-1.15a21.92,21.92,0,0,0-12.6,8l1,.76a45.58,45.58,0,0,1,9.19-12,.63.63,0,0,0-.61-1A56,56,0,0,0,255,199l.86.86A28.52,28.52,0,0,1,271,189.63l-.33-1.21-18.4,5.76c-.77.23-.44,1.44.33,1.2Z"/><path class="cls-4" d="M276.15,255.36c1.65-9.12,10-13.68,17.55-17.52.71-.36.08-1.44-.63-1.08-7.87,4-16.42,8.82-18.12,18.27-.14.78,1.06,1.12,1.2.33Z"/><path class="cls-4" d="M295,241.43c-1.88.75-2.78,1.52-2.84,3.62a11,11,0,0,0,3.26,8c.56.58,1.44-.3.88-.88a9.75,9.75,0,0,1-2.8-5.59c-.27-2-.12-3.18,1.83-4,.74-.29.42-1.5-.33-1.2Z"/><path class="cls-4" d="M294.83,254.75A13.33,13.33,0,0,1,291.9,250c-.27-.76-1.47-.43-1.2.33a14.69,14.69,0,0,0,3.25,5.27c.55.58,1.44-.3.88-.88Z"/><path class="cls-4" d="M290.78,245.55c-1.23-4.9,5.51-6.53,8.61-6.69,3.73-.19,6.54,1.45,8.58,4.71,3.59,5.75,2.95,11,.2,16.95a94.91,94.91,0,0,1-5.68,10.8c-1.61,2.55-3.39,5.15-6.1,6.65-4.21,2.32-13.26.37-9.72-6.55.37-.71-.71-1.35-1.08-.63-3,5.85,3,10.78,8.7,9.36,8.69-2.15,13.5-15,16.42-22.3a14.23,14.23,0,0,0-.12-11.74c-1.39-3.34-3.06-7.55-7-8.37-4.88-1-15.83,1-14.06,8.15a.63.63,0,0,0,1.21-.34Z"/><path class="cls-4" d="M288,269.12c-1-2.59-.45-3.45,1.45-5.46a9.47,9.47,0,0,0,1.25-1.28c1.3-2,.31-5.94,3.16-6.94.75-.26.43-1.47-.33-1.21-3.84,1.35-2,5.52-4.28,8-.94,1-2.28,1.23-2.89,2.57s-.09,3.27.44,4.66c.28.74,1.49.42,1.2-.33Z"/><path class="cls-4" d="M292,266.47c2.06-2.07,5.37-.9,7.71-2.51a6.39,6.39,0,0,0,2.59-4.61c.39-3.83-2.58-7.08-6.2-7.8-.78-.15-1.12,1-.33,1.21,4.45.88,7.85,7.41,3,10.34-2.48,1.49-5.46.28-7.66,2.49-.56.57.32,1.46.89.88Z"/><path class="cls-4" d="M293,257a3.18,3.18,0,0,0,2.31,2c1.46.46,3.14,1,2.55,2.94-.24.77,1,1.1,1.21.33a3.26,3.26,0,0,0-.76-3.27c-1.06-1.06-3.62-.84-4.11-2.34-.25-.77-1.45-.44-1.2.33Z"/><path class="cls-4" d="M294.1,269.84c4.94-.33,7.76-4.39,10-8.34a.63.63,0,0,0-1.08-.63c-2,3.5-4.49,7.43-8.93,7.72-.79.06-.8,1.31,0,1.25Z"/><path class="cls-4" d="M295.26,242.52c4.71-1.39,8.43-.82,10.88,3.94,2.06,4,.63,8.25-.84,12.2-.28.75.93,1.08,1.21.33,1.93-5.22,3.07-10.08-.4-14.88-3-4.14-6.55-4.17-11.18-2.8a.63.63,0,0,0,.33,1.21Z"/><path class="cls-4" d="M310.68,259.94,308,278.56c-.4,2.74-1.81,6.22.29,8.5,2.54,2.75,8.38,4.09,11.62,6,6.14,3.54,11.48,9,11.05,16.56,0,.66.85.8,1.17.32a8.7,8.7,0,0,0,1.45-3.49c.15-.79-1.05-1.13-1.21-.34a5.82,5.82,0,0,1-1.32,3.2l1.16.31c.48-8.34-5.58-14.26-12.4-18-2.21-1.22-4.5-2.27-6.77-3.37-.75-.37-2.48-.85-3-1.5-1.53-1.9-1.15-5.57-.83-7.78l2.7-18.61c.11-.79-1.09-1.13-1.21-.34Z"/><path class="cls-4" d="M331.49,309.69c-1.46,12.2,3.31,24.56,8.69,35.3.36.72,1.44.08,1.08-.63-5.27-10.52-9.95-22.7-8.52-34.67.1-.8-1.15-.79-1.25,0Z"/><path class="cls-4" d="M259.24,320.34c4.05-1.6,7.53-4.26,11.12-6.68,4.29-2.9,8.79-5.63,12.88-8.81,6.77-5.27,9.23-12.79,10.74-21,.15-.79-1.05-1.13-1.2-.34-1.73,9.28-4.8,16.45-12.69,22-6.56,4.63-13.7,10.6-21.18,13.56-.74.29-.42,1.5.33,1.2Z"/><path class="cls-4" d="M223.21,255.66a115.91,115.91,0,0,0-2.15-29.33c-.15-.72-1.18-.5-1.23.17a133,133,0,0,0,1.58,30.87.63.63,0,0,0,.92.38c.89-.59.92-.55,1.1-1.63.13-.78-1.08-1.12-1.21-.33.43-2.54-.63-5.56-.88-8.12q-.33-3.36-.47-6.73a133.77,133.77,0,0,1,.21-14.44l-1.23.16a114.29,114.29,0,0,1,2.11,29c0,.8,1.21.8,1.25,0Z"/><path class="cls-4" d="M222.4,235.15q18.58-.3,37.18-.43,9.53-.08,19.06-.11c4.65,0,17.51-2.12,20,2.88.36.72,1.44.08,1.08-.63-2.08-4.16-7.28-3.55-11.2-3.54q-11,0-21.94.1-22.09.14-44.19.48a.63.63,0,0,0,0,1.25Z"/><path class="cls-4" d="M271.7,371.38a76.2,76.2,0,0,0-5.06,6.52c-1.12,1.55-3,3.13-2.92,5.16,0,2.49,2.07,2.9,4.23,2.18,2.39-.79,4.42-2.94,6.36-4.37q3.88-2.85,7.92-5.5c5.61-3.68,11.42-7.07,17.36-10.2,12.47-6.56,25.48-11.42,38.58-16.48,2.17-.84,5.4-2,5.35-4.89a3,3,0,0,0-3.92-3c-.76.25-.43,1.46.34,1.21,1.42,3.23.72,5.05-2.1,5.43l-3.31,1.18c-1.65.59-3.3,1.2-4.94,1.81q-5.76,2.17-11.43,4.57-10.19,4.31-20,9.46A204.66,204.66,0,0,0,278,376.74q-2.16,1.49-4.28,3.05c-.8.58-4.2,3.75-5.14,3.81-5.68.36-1.52-4.1-.82-5.07a72,72,0,0,1,4.87-6.27c.53-.6-.35-1.48-.89-.88Z"/><path class="cls-4" d="M263.11,383.71c-4.6,11.13-15.06,18.6-22.21,28a128.47,128.47,0,0,0-16.79,30.42,202.21,202.21,0,0,0-10.32,37.26c-2.19,11.65-5.51,24.89-3.15,36.71.16.79,1.36.45,1.21-.34-1.42-7.09-.34-14.11.69-21.19,1-6.51,2-13,3.36-19.46a186.94,186.94,0,0,1,11.3-37.19,119.54,119.54,0,0,1,18.39-30.05c6.62-7.74,14.75-14.21,18.72-23.84.31-.74-.9-1.07-1.2-.33Z"/><path class="cls-4" d="M261.55,514.45c2.15-17.36-4.68-35,.62-52.06,4.88-15.73,17.15-30.26,28.3-42.05,6.13-6.47,14.23-13.84,23.56-14.5,8.7-.61,18.76,4,26.12,8.17,8.7,5,11.84,13.1,15.09,22.15a48.37,48.37,0,0,1,1.64,28c-4.49,20.17-9.79,39.86-12.72,60.37-.11.78,1.1,1.12,1.21.33q2.29-16.1,5.73-32c2.2-10.11,5.32-20,7.37-30.17a48.55,48.55,0,0,0-2-26.92c-2.62-7.29-5.26-15.55-11.7-20.37-6.61-4.95-15.27-8.34-23.3-10.12-8.4-1.85-15.45.56-22.29,5.55-7.17,5.22-12.91,12.07-18.42,18.95-5.63,7-11.31,14.16-15.53,22.16a54.87,54.87,0,0,0-6.34,28.34c.42,11.43,2.85,22.66,1.43,34.11-.1.8,1.15.79,1.25,0Z"/><path class="cls-4" d="M320.55,404.73a106.93,106.93,0,0,0,3.67-23.32c.22-4.09.29-8.19.3-12.28,0-2.33.68-6.2-.36-8.36a.63.63,0,0,0-1-.13l-.14.16a.62.62,0,0,0,0,.88l.11.11c.6.54,1.49-.34.89-.88s-.77,6.12-.77,6.33c0,1.57,0,3.15,0,4.73,0,3.46-.13,6.92-.33,10.38a104.7,104.7,0,0,1-3.57,22,.62.62,0,0,0,1.2.33Z"/><path class="cls-4" d="M262.15,389.32c6.66,2.5,10.89-3.09,15.45-7C284,376.88,291.7,373,299.1,369c7.82-4.18,15.84-7.9,24.56-9.75,7.71-1.63,15.45-2.41,22.64-5.89a.61.61,0,0,0,.29-.7,7.56,7.56,0,0,0-1.9-3.5c-.54-.6-1.42.29-.89.89,3.36,3.72-9.27,5.9-10.59,6.16-3.29.66-6.61,1.15-9.89,1.84a82.8,82.8,0,0,0-20.06,7.38,207.94,207.94,0,0,0-19.7,11,63.59,63.59,0,0,0-6.85,5c-4.09,3.5-8.07,9-14.23,6.66-.75-.28-1.08.92-.33,1.2Z"/><path class="cls-4" d="M342.84,344c.35,4.06,2.51,8.15,4.18,11.82,2,4.4,4.05,9.17,7,13.06a50.41,50.41,0,0,0,5.14,5.3,39.5,39.5,0,0,1,8,11.44A229.08,229.08,0,0,1,378,413a178.7,178.7,0,0,1,8.76,57.54c-.14,9.87-1.11,19.71-1.45,29.57a144.62,144.62,0,0,0,.2,15.72c.13,1.72-.27,4.19,1.25,5.35a.63.63,0,0,0,.86-.22l.21-.35a.63.63,0,0,0-.22-.86l-.26-.14a.63.63,0,0,0-.63,1.08c-.1-.06-.15-8-.18-8.78-.1-2.62-.12-5.24-.08-7.87.07-4.6.32-9.19.6-13.78.54-9.09,1.15-18.18.89-27.3a180.69,180.69,0,0,0-9.33-52.07c-2.59-7.75-5.64-15.35-9-22.81a53.55,53.55,0,0,0-5.43-10.19c-2.2-3-5-5.29-7.57-7.95-3.14-3.31-5.1-7.61-7.08-11.69-2.08-4.31-5.06-9.47-5.48-14.33-.07-.8-1.32-.81-1.25,0Z"/><path class="cls-4" d="M261.78,500.81a283.81,283.81,0,0,1,44.41.55c15.35,1.46,27.91,7.42,41,15.11a.63.63,0,0,0,.63-1.08c-12.05-7.06-23.81-13.13-37.87-14.87a261.44,261.44,0,0,0-48.21-1c-.8.05-.8,1.3,0,1.25Z"/><path class="cls-4" d="M308.74,498.65c.72-10.37,1.43-20.78,3.46-31,1.34-6.72,2.91-13.4,4.32-20.11,2.51-12,6.42-26.22,3.84-38.53-.17-.78-1.37-.45-1.21.33,1.33,6.36.4,13.23-.5,19.58-1.06,7.44-2.58,14.81-4.16,22.14a332.82,332.82,0,0,0-7,47.58c-.05.8,1.2.8,1.25,0Z"/><path class="cls-4" d="M229.36,499.79c-17.32-11-31.5-27.39-45.91-41.8-6.62-6.61-13.23-13.31-20.42-19.31-5.23-4.37-10.63-8.52-14.65-14.11-3.4-4.72-6-9.8-10.53-13.6-.61-.52-1.5.36-.88.88,4.87,4.1,7.51,9.79,11.35,14.74,4,5.18,9.22,9.1,14.2,13.29,7.4,6.22,14.21,13.16,21,20,14.17,14.18,28.13,30.16,45.17,41,.68.43,1.31-.65.63-1.08Z"/><path class="cls-4" d="M159.42,499.89c-5.52-6.73-9.33-14.43-14-21.72-4.23-6.59-8.35-13.34-13-19.67-4.38-6-9.36-11.6-13.78-17.56-5.43-7.32-9.86-15.58-14.65-23.31-.43-.68-1.51-.06-1.08.63,4.8,7.75,9.23,16,14.65,23.31,4.72,6.39,10.09,12.32,14.7,18.84,4.87,6.89,9.48,14.11,13.86,21.33,4,6.5,7.52,13.12,12.38,19,.51.62,1.39-.26.88-.88Z"/><path class="cls-4" d="M102.33,417.37l-14.9-14.7c-3.79-3.73-7.54-7.6-12.13-10.36-3.43-2.06-6.92-3.27-7.79-7.86a24.54,24.54,0,0,1,.47-9.54c1-4,3.15-5.31,6.23-7.63,1.63-1.24,6.47-6.59,7.86-5.33.6.54,1.48-.34.89-.88a3.14,3.14,0,0,0-3.67-.74,6.24,6.24,0,0,0-2.16,1.93,41.83,41.83,0,0,1-5.88,5.41c-4.94,3.62-5.54,10.44-5.12,16.14.55,7.38,8.75,9.18,13.68,13.34,7.64,6.47,14.51,14.07,21.64,21.11a.63.63,0,0,0,.88-.89Z"/><path class="cls-4" d="M82.39,362.37c4.45,5.23-3.69,12.08-7.9,13.93-.74.33-.1,1.4.63,1.08,5.08-2.23,13.17-10,8.15-15.89-.52-.62-1.4.27-.88.88Z"/><path class="cls-4" d="M77.2,375.94c.63.88.32,3.23.26,4.24-.1,1.73-.56,3.35-2.24,4.16-.72.35-.09,1.42.64,1.08a5.23,5.23,0,0,0,2.77-4.26,23.09,23.09,0,0,0,.09-3.43,3.79,3.79,0,0,0-.44-2.42c-.47-.64-1.55,0-1.08.63Z"/><path class="cls-4" d="M78.36,381.72a10.17,10.17,0,0,1,6.21,3.63c.51.62,1.39-.27.88-.88a11.22,11.22,0,0,0-6.75-4c-.79-.14-1.13,1.07-.34,1.21Z"/><path class="cls-4" d="M73.84,367.21c.44-2.33,1.09-5.64-.38-7.73-.46-.66-1.55,0-1.08.63,1.23,1.76.63,4.81.26,6.77-.15.78,1,1.12,1.2.33Z"/><path class="cls-4" d="M74.71,362.4c4-5.62,8.86-10.37,4.14-17.19-2.56-3.71-5.75-3.19-7.5.73-.93,2.09-1.2,4.4-2.17,6.48-.87,1.84-2.08,3.55-3,5.37a73.09,73.09,0,0,0-4.61,11.4c-.79,2.56-2.34,5.9-1.14,8.55,1,2.23,3.76,3.77,5.67,5.16.66.47,1.28-.62.63-1.08-3.35-2.43-5.49-4.4-4.9-8.95a32.68,32.68,0,0,1,2-6.64c1.65-4.54,3.95-8.52,6.15-12.77,1.44-2.8,1.87-11.06,6.88-8.71,3.58,1.68,2.44,8.2,1.33,10.48s-3.13,4.46-4.59,6.54c-.47.66.62,1.29,1.07.63Z"/><path class="cls-4" d="M71.32,349.84C70.7,346.42,70,343,69.1,339.66c-.44-1.68-.93-3.35-1.43-5L67.15,333q-2.19-4.32,5.25-4.87c.6.53,1.49-.35.88-.88-2.31-2-7.53-3.25-8.31.92-.49,2.6,1.29,6.08,2,8.49a136.14,136.14,0,0,1,3.16,13.53c.14.79,1.35.45,1.2-.33Z"/><path class="cls-4" d="M141.64,413.94c-2-7.1.51-14.62-2.61-21.37-3.28-7.1-8.09-13.54-11.57-20.59-3.6-7.27-6.08-15-9.57-22.31-1.9-4-4.59-8.69-9.57-6.58-.74.31-.1,1.39.63,1.08,6.94-2.94,11.31,14.78,13.13,19.07q3.45,8.14,7.71,15.93c2.92,5.33,7.56,10.76,9.17,16.68s-.25,12.27,1.48,18.42a.62.62,0,0,0,1.2-.33Z"/><path class="cls-4" d="M70.36,300.14a.63.63,0,0,0,0-1.25.63.63,0,0,0,0,1.25Z"/><path class="cls-4" d="M77.83,343.67c-2.58-10.08-5.12-20.18-7.51-30.3-.8-3.39-4.83-12.61,1.08-13.21,1.8-.19,4.22.63,6,.9q5.79.87,11.58,1.81c4.38.72,8.68,1.24,10,6,1,3.48,1.81,7,2.72,10.51l9.58,37L118,382.29a.63.63,0,0,0,1.21-.33l-17.07-66c-.73-2.8-1.26-5.76-2.2-8.51-1.74-5.06-7-5.2-11.64-5.95-5.37-.87-11.73-2.91-17.17-2.59-4.46.25-4.52,3.51-3.83,6.88C70,318.62,73.38,331.31,76.62,344a.63.63,0,0,0,1.21-.33Z"/><path class="cls-4" d="M81.67,360.37l-1.49-5.91a.63.63,0,0,0-1.21.33l1.5,5.92c.19.78,1.4.45,1.2-.34Z"/><path class="cls-4" d="M118.13,384.18c-.23,5.19-10.24,2.95-13.32,2.73-3.7-.26-7.46-.38-11.15-.81-5.16-.61-6.15-3.48-7.22-7.76L84,368.7a.63.63,0,0,0-1.21.33c1.86,7.42,1.73,17.45,11.05,18.33,5.72.54,11.48.86,17.21,1.24,3.77.26,8.08.49,8.3-4.42,0-.81-1.21-.8-1.25,0Z"/><path class="cls-4" d="M71.9,300.93c-2.73,1.68.21,8.35.8,10.62q3.45,13.41,6.93,26.8,3.81,14.68,7.64,29.36c.85,3.25,1.7,6.5,2.58,9.74.35,1.32.55,3.19,1.52,4.24,1.76,1.9,5.51,1.57,7.92,1.75,4,.3,8.1.66,12.15.91,5.61.33,6.1-2.05,5-6.43l-13.68-52.47c-1.46-5.61-2.32-12-4.53-17.39-1.59-3.84-5.5-4.23-9.15-4.84-5.08-.84-10.17-1.6-15.26-2.36-.79-.11-1.13,1.09-.34,1.21q5.25.78,10.5,1.6c4,.63,11,.56,13,4.72,1.63,3.35,2.07,7.92,3,11.51l13,49.86,2.11,8.09c.21.8.91,2.22.8,3.06-.53,4.12-16.27,1.35-19.28,1.09-3.5-.31-4.54-1.13-5.34-4.07-.69-2.54-1.36-5.09-2-7.64q-3.27-12.45-6.5-24.92L75.3,316.64c-.39-1.52-4.91-13.31-2.77-14.63.68-.43,0-1.51-.63-1.08Z"/><polyline class="cls-7" points="93.91 382.55 103.98 383.37 112.95 383.55 116.21 382.46 116.49 380.75 98.9 311.3 96.36 305.86 91.56 304.5 79.95 302.51 73.86 301.17 72.48 301.19 71.84 302.12 71.32 305.2 89.02 370.72 91.38 379.15"/><path class="cls-4" d="M272.59,372.26c2.61-2.42,2.2-4.31,2.09-7.64a38.54,38.54,0,0,0-3.19-15.36c-2.38-5.26-8.68-8.84-9.33-14.54-.39-3.35,1.54-9.88-1.87-12.14-2.93-1.94-7.78-.17-10.79.27-6.73,1-15.79,1.43-22.08-1.48s-4.85-13.88-3.84-19.61a7.71,7.71,0,0,0,0-3.48c-.62-2.32-7.13-7.54,0-9.15.65-.15.53-1,0-1.21-7.58-2.92-1.26-7.41-1.13-11.07a7.62,7.62,0,0,0-1.83-4.91c-1.13-1-1.88-.79-3.21-.89-2.66-.19-5.42-.12-6.24-3.28a9.79,9.79,0,0,1,.16-5c1.09-2.55,4.21-4.63,5.84-6.86s2.9-4.79,4.55-7.07c2.36-3.28,5.7-7,5-11.32-.3-1.8-1.62-3.14-2-4.84-.48-2.34.52-5.13.94-7.38s.78-4.37,1.28-6.54c2.16-9.28,5.47-21.11,14-26.57.67-.43,0-1.52-.64-1.08-8.57,5.51-12.06,17.11-14.32,26.47-.6,2.46-1,4.94-1.5,7.43s-1.34,5.2-1,7.67c.33,2.15,2,3.44,2.12,5.86.15,3.61-3,6.91-4.94,9.66-2.36,3.28-4.1,6.82-6.84,9.83-3,3.34-5.4,5.9-3.72,11,2.1,6.35,14.58,0,10,10.71-1,2.23-2.22,3.4-1.07,5.88a7.16,7.16,0,0,0,4.22,3.5v-1.21c-3.13.71-4.2,3.65-3.7,6.64a6.92,6.92,0,0,0,1.48,3.25c2,3.07,1.13,3.51.59,6.84a28.68,28.68,0,0,0,1.51,14.27c1.81,4.17,6.46,4.54,10.54,5.15a56.62,56.62,0,0,0,18.73-.44c1.68-.31,3.66-1,5.35-.48,2.95.89,2.71,3.63,3,6.12.29,2.87-.11,5.86.72,8.68a7.52,7.52,0,0,0,2.15,3.56c2.74,2.71,5.22,4.77,6.85,8.38a34.34,34.34,0,0,1,3,13.41c.11,3,.73,5.78-1.74,8.08-.59.54.3,1.43.89.88Z"/><path class="cls-4" d="M545.26,358.7c-.57-4.9-2.06-9.64-.73-14.46,1.62-5.85,3.92-16.37,11.16-16.76,4.48-.24,8.83,1.72,13.12,2.68,6.41,1.44,13.3,1.3,17.28-4.92,1.8-2.82,1-5.85,1.14-9,.09-2.53-.33-2.63,2.43-5.91-1.18,1.41,1-.65,1.14-.81.79-1.32,1.23-.79,1.44-2.62.18-1.61-1-2.23-1.33-3.64-.56-2.09-.89-.35.73-2,1.16-1.22,2.51-2.21,2-4.15-.72-2.66-1.44-.6-1.6-4.6-.14-3.43.43-3.32,3.28-4.77.79-.41,1.64-.7,2.44-1.1,2.31-1.16,4.93-2.78,5.29-5.6s-1.75-5.55-3.29-7.58c-3.08-4.05-7.22-7.54-8.6-12.64-2.68-9.87,3.82-19.43,4.29-29.08.56-11.51-8-27.44-19.61-30.48a.62.62,0,0,0-.33,1.2c9.37,2.46,14.91,12.62,17.47,21.29,2.94,9.93-2,19.42-3.24,29.31-.63,4.87-.1,9.09,2.65,13.26,3,4.52,13.45,12.35,6.93,17.92-2.94,2.5-8.34,2.67-9.73,6.88a4.51,4.51,0,0,0,.19,3.53c1.14,2.09,6.66,3.5-1.06,6.6a.64.64,0,0,0-.27,1.05c4.35,4.77-1.42,7-2.32,11.38-1,5.15,1.27,9.53-3.65,13.46-8.86,7.09-18.59-2.34-28.24-.75-7.56,1.25-9.89,13.14-11.36,19.25-1,4.19.65,8.87,1.14,13.1.09.79,1.34.8,1.25,0Z"/><polygon class="cls-4" points="582.85 205.6 587.67 210.39 588.79 211.74 588.79 209.56 588.58 208.72 588.22 207.1 583.17 204.35 580.53 203.87 582.85 205.6"/></g></g></svg>