<svg xmlns="http://www.w3.org/2000/svg" xmlns:xlink="http://www.w3.org/1999/xlink" viewBox="0 0 800 500"><defs><style>.cls-1{fill:none;}.cls-2{clip-path:url(#clip-path);}.cls-3{fill:#efefef;}.cls-4{fill:#4e008e;}.cls-5{fill:#8a72f7;}.cls-6{fill:#7837f1;}.cls-7{fill:#996be5;}</style><clipPath id="clip-path"><rect class="cls-1" width="800" height="500"/></clipPath></defs><title>Wall of Support</title><g id="Drawing_1"><g class="cls-2"><rect class="cls-3" width="800" height="500"/><circle class="cls-4" cx="381.84" cy="264.71" r="149.41"/><polygon class="cls-3" points="320.73 368.94 303.51 368.16 295.73 365.94 288.53 360.5 285.02 352.94 283.4 340.1 279.85 324.47 276.93 310.63 277.89 297.65 279.52 293.92 273.6 287.64 269.1 279.64 269.86 274.06 273.84 270.58 278.21 266.85 280.69 263.33 280.29 257.92 277.7 251.52 276.67 244.5 277.33 236.49 280.39 226.81 288.11 211.89 288.7 210.88 291.57 209.08 295.43 207.9 300.21 203.94 310.32 201.18 318.84 200.38 327.21 202.06 335.41 207.19 341.71 215.23 346.65 230.31 349.52 242.56 354.33 253.56 358.46 258.69 364.9 263.13 373.33 266.47 382.9 267.88 384.9 268.1 385.56 266.97 378.66 262.3 373.04 255.47 367.62 244.79 362.29 229.1 358.27 217.56 369.15 225.88 386.82 244.9 393.84 252.81 403.52 258.25 417.6 258.6 426.21 250 432.82 248.42 439.34 251.16 441.81 260.92 438.8 270.77 432.99 281.74 432.88 289.45 431.96 300.88 435.96 319.63 441.07 334.17 452.9 359.62 458.71 370.63 465.91 381.3 446.59 372.06 436.27 368.5 431.86 368.03 422.91 368.56 395.13 374.23 374.24 379.97 364.01 384.63 356.58 392.41 348.46 402.32 347.21 400.31 340.84 384.19 333.09 375.56 329.96 372.75 326.02 370.38 320.73 368.94"/><polygon class="cls-5" points="342.75 413.32 346.17 407.18 351.88 397.76 358.73 390.19 364.01 384.63 368.58 381.49 375.43 378.92 385.71 375.92 403.55 371.78 415.54 369.21 422.82 367.64 430.53 367.36 435.52 367.93 448.8 372.24 454.79 375.24 467.75 381.45 475.56 385.95 478.67 388.73 478.88 391.51 478.88 393.87 468.6 388.62 454.05 381.24 443.23 377.92 432.31 377.17 422.25 377.06 406.55 378.42 391.92 381.2 380.86 385.27 366.3 393.83 358.73 399.83 350.24 406.82 344.96 412.53 342.89 414.81 342.75 413.32"/><polygon class="cls-6" points="258.65 495.12 280.08 471.27 297 451.36 308.99 440.65 320.98 433.37 323.26 431.66 325.69 429.02 329.4 425.95 333.82 424.38 337.96 421.95 343.39 414.53 349.38 407.61 357.02 400.9 364.23 395.26 372.15 389.84 378.43 386.2 385.8 383.38 394.1 380.7 403.68 379.04 415.13 377.49 425.62 376.74 435.31 376.74 443.23 377.92 450.3 380.49 461.11 384.88 469.67 389.05 481.34 395.05 490.44 401.68 504.14 412.71 514.42 421.7 523.09 426.95 530.69 432.3 538.94 442.9 551.2 461.5 553.6 465.49 559.04 472.35 562.78 481.99 569.53 503.18 348.17 521.37 270.67 512.8 258.65 495.12"/><polygon class="cls-7" points="306.86 368.94 312.52 369.01 317.85 369.3 319.07 372.17 319.5 383.47 318.31 391.1 315.52 400.9 310.92 408 307.28 412.14 299.7 418.94 291.74 424.92 290.67 424.92 292.07 422.63 295.6 418.42 299.53 412.63 302.52 405.9 305.06 399.33 307.49 391.26 308.13 382.61 307.42 375.53 306.86 368.94"/><polygon class="cls-7" points="273.53 270.03 272.46 268.64 267.74 263.17 264.09 256.52 261.09 248.8 260.77 241.5 261.52 231.85 264.2 221.45 267.09 214.16 271.04 208.87 274.92 205.15 278.25 203.11 282.64 202.25 285.43 202.04 287.36 202.57 289.26 197.71 294.41 185.56 301.84 176.69 307.13 171.54 316.71 165.53 327.73 161.1 336.45 158.38 345.17 156.96 352.04 154.85 360.62 151.84 367.96 150.34 376.76 150.88 399.33 154.52 417.75 157.46 435.26 163.68 453.93 176.12 465.08 186.27 475.23 199.86 479.67 207.86 482.81 217.52 484.53 226.24 485.53 241.18 485.74 248.19 485.1 256.99 485.89 258.56 489.53 256.34 493.47 255.27 498.04 255.2 501.97 255.98 506.26 258.49 512.34 264.28 518.63 271.64 522.42 277.22 523.5 281.01 523.35 287.01 520.85 295.02 513.27 311.4 508.62 319.19 500.9 329.06 494.47 334.49 480.6 341 475.23 342.57 470.66 344.07 462.08 342.36 455.79 339.71 451.14 337.14 450.14 338.64 447.28 339.86 443.84 339.5 442.77 338.78 437.52 325.38 434.08 311.97 431.51 299.63 431.73 294.27 433.33 288.7 432.37 282.8 436.98 274.97 439.88 268.21 441.81 260.92 441.59 255.45 439.34 251.16 435.37 249.01 432.58 248.58 428.83 248.69 421.75 253.41 417.03 258.77 414.46 259.09 410.92 259.42 406.2 258.88 399.76 256.63 392.79 252.12 387.21 245.69 381.21 238.29 374.56 231.64 367.16 223.7 359.76 218.12 357.51 217.05 359.22 220.06 361.05 225.95 366.52 242.36 372.2 253.95 377.13 261.35 383.35 265.85 386.36 267.35 385.82 268.43 383.68 268 374.02 266.82 367.91 264.46 360.08 260.81 355.36 255.23 350.32 245.15 348.18 236.36 345.17 224.99 342.71 217.27 338.2 209.65 335.41 207.19 328.98 202.57 323.19 200.96 317.29 200.43 310.32 201.18 302.27 203.22 298.41 204.82 294.98 208.36 289.19 210.4 286.51 214.8 280.39 226.81 277.82 233.46 276.43 242.15 276.96 248.91 278.89 254.05 280.29 257.92 280.5 262.1 278.89 266.07 273.53 270.03"/><path class="cls-4" d="M288.47,210c-5,8.38-10.09,17-11.82,26.75a35.56,35.56,0,0,0-.23,11.78c.91,5.58,5.94,12.24,1.7,17.48-3.23,4-10.83,6.08-10,12.41.53,3.89,3.67,8,6,11,3,3.79,7.8,7,8.72,11.89.15.79,1.35.45,1.21-.33-.59-3.15-2.36-5.15-4.51-7.4-3.34-3.51-7.21-7.44-9-12.05-4-10.42,7.42-9.93,10.27-17.4,1.21-3.16-.28-6.36-1.36-9.31a33.08,33.08,0,0,1-2-15.23c1.16-10.58,6.73-19.94,12.06-28.92a.63.63,0,0,0-1.08-.63Z"/><path class="cls-4" d="M278.35,294.11c-4.55,12.87-.1,25.78,2.91,38.45,2.69,11.33,0,24.8,11.13,31.95a31.39,31.39,0,0,0,14.75,4.69c7.13.48,14.62-.76,21,3.2,10.08,6.23,16.1,19.19,19.41,30.11.23.77,1.44.44,1.2-.33-2.77-9.16-7.15-18.3-13.64-25.42a26.31,26.31,0,0,0-9.6-7.09c-5.85-2.29-12.29-1.29-18.39-1.72-7-.49-14.81-3.32-19.13-9.15s-3.1-13.61-4.25-20.38c-2.49-14.63-9.46-29.13-4.21-44,.27-.76-.93-1.09-1.2-.33Z"/><path class="cls-4" d="M323,363.62c19.62-2.88,37-11.91,55.8-17.42,8.45-2.47,15.44-4.45,19.13-13.15,2-4.71,3.11-9.58,5.35-14.24,1.85-3.84,3.5-7.57,4-11.85.09-.79-1.16-.79-1.25,0-.61,5.49-3.45,10-5.59,15-1.67,3.87-2.35,8.08-4.2,11.87-4.78,9.78-16.63,10.58-25.88,13.77-15.9,5.49-30.87,12.36-47.67,14.83-.79.11-.45,1.32.33,1.2Z"/><path class="cls-4" d="M281.84,235.83l6.38-.12,3.21,5.52c.18,1.17-.52,2.78-.89,3.91a53.82,53.82,0,0,1-3.22,7.49,55.94,55.94,0,0,1-7.91,12.14c-.53.6.35,1.49.88.88,5.26-6,11-14.9,12.25-22.95,1-6.75-5.55-10.64-11.33-7.95-.73.34-.09,1.42.63,1.08Z"/><path class="cls-4" d="M418.42,265c2.4,3.41-3.64,8.24-5.5,10.68a9.75,9.75,0,0,0-2.24,5.31c-.05.41.5.85.43,1.2-.37,1.81-1.21,1.46-2.18,1.76-.78.25-1.33,0-2.09.4a3.36,3.36,0,0,0-1.47,4.42c4,8.09,23.24-8.1,18.79-16.1-.39-.7-1.47-.07-1.08.63,2.19,3.93-2.35,8.94-4.9,11.37a21.39,21.39,0,0,1-4.34,3.29c-2.07,1.14-2.93,2.42-3.75-.58-1-3.61.12-.83,1.88-2.14,1.19-.89.53-1.38.74-2.45.92-4.73-.46-4.35,2.05-7.36,1.11-1.33,2.3-2.59,3.32-4,1.54-2.1,3.13-4.65,1.41-7.07-.46-.65-1.54,0-1.07.63Z"/><path class="cls-4" d="M398.08,295.11c-1.31,8.34,9.07,10.77,15.25,8.1,5.4-2.33,9.57-7.24,13.22-11.66A92.17,92.17,0,0,0,437.46,275c3.89-7.58,9.38-21.88-1.71-26.52-7.76-3.25-15.71,5.33-19.48,11-.44.67.64,1.3,1.08.63,3.18-4.81,9.08-11.54,15.47-11,7.56.58,9.21,9.13,7.76,15.06a51.45,51.45,0,0,1-5,11.74,90.4,90.4,0,0,1-13.89,19.33c-2.85,3-6.18,6.16-10.22,7.43-4.73,1.48-13.27-.3-12.19-7.16.12-.79-1.08-1.13-1.21-.33Z"/><path class="cls-4" d="M430.25,255.34q7.62,1.44,5.8,7.32l-.39,1.59a30.2,30.2,0,0,1-3,6.65c-1.95,3.59-4.08,7.07-6.25,10.52-.43.69.65,1.32,1.08.64,4.06-6.45,11.39-15.65,9.87-23.91-.72-3.9-4.7-7-8-3.69-.57.56.31,1.45.89.88Z"/><path class="cls-4" d="M432.64,288.29c-2.39,6.31-1.41,13.55-.17,20A151.22,151.22,0,0,0,441.53,337c6.46,15.74,14.19,32.85,25.68,45.65.53.6,1.42-.29.88-.89-11.33-12.62-19-29.58-25.35-45.09a160.62,160.62,0,0,1-8.53-26.08c-1.54-7-3-15.06-.37-21.95.29-.75-.92-1.08-1.2-.33Z"/><path class="cls-4" d="M340.09,419.08c2.94-6.19,5.92-12.4,10-18,4.43-6,10.43-13.84,17-17.66s15-5.21,22.15-7.09q11.16-2.92,22.49-5.15c8.08-1.6,16.43-3.7,24.64-1.86,7.18,1.6,13.65,5.34,20.27,8.41,3.69,1.7,7.42,3.3,11.08,5.06,4.85,2.33,12.12,4.78,11.4,11.48-.08.8,1.17.79,1.25,0,1-9.37-12.95-13.11-19.54-16-6.94-3.07-13.63-7-20.9-9.24-7.1-2.23-13.78-1.7-21-.44q-13.25,2.32-26.31,5.61c-8.1,2-17.21,3.75-24.76,7.43-6.64,3.25-11.89,10.16-16.47,15.8-5.19,6.39-8.83,13.61-12.35,21-.34.72.73,1.36,1.08.63Z"/><path class="cls-4" d="M321.47,434.2c8.27-2.56,16.71-4.67,25-7.09,11.22-3.25,21.12-2.39,32.38.1,9.72,2.15,19.71,4.28,28.69,8.73,5.69,2.81,9.2,9,15.64,10.14,1.37.25,2.77.2,4.14.43,4.19.7,5.26,2.05,7.84,4.77A19.12,19.12,0,0,0,442.4,456c4.15,1.63,8.44,2.56,12.36,4.79a51.93,51.93,0,0,1,11,8.84c4.79,4.83,9,9.62,14.38,13.81,4.71,3.66,9.9,7.06,14,11.44.55.59,1.43-.29.89-.88-6.65-7.12-15.76-11.56-22.36-18.74-4.38-4.78-8.66-9.64-14-13.41s-11.33-4.94-17.2-7.6c-5.25-2.38-7.41-8-13.37-8.89-4.47-.67-7.71-.74-11.19-3.91a42.48,42.48,0,0,0-5.79-5c-5.9-3.73-13.13-5.8-19.81-7.57a195.6,195.6,0,0,0-23.06-5c-8.32-1.15-15.93.11-23.89,2.54-7.71,2.35-15.56,4.17-23.26,6.55a.63.63,0,0,0,.33,1.21Z"/><path class="cls-4" d="M259.09,496.15c9.87-11.64,19.67-23.35,29.62-34.92A150.3,150.3,0,0,1,302.3,447c5.34-4.76,11.19-7.92,17.28-11.51a22.46,22.46,0,0,0,5.71-4.84c2.26-2.56,4.68-3.49,7.84-4.63,5.53-2,7.79-8.35,11.48-12.48a117.84,117.84,0,0,1,32-25.23c13.83-7.17,30.63-8.85,46-10.1,16.15-1.31,30.26,3.36,44.44,10.72,4.74,2.46,9.55,4.94,14.21,7.55,6.64,3.72,12.38,8.75,18.18,13.63,4.39,3.7,8.57,7.69,13,11.33,3.74,3.06,8.1,5.33,12.17,7.9,7,4.4,11,9.81,15.77,16.42,4.17,5.74,7.12,12,11.06,17.88,1.73,2.59,4,4.7,5.6,7.39a47.77,47.77,0,0,1,3.71,8.41C562.6,484.61,564,490,566.38,495c.35.73,1.43.09,1.08-.63-4.47-9.24-5.54-19.86-12.23-28-4.45-5.4-7-11.87-11-17.53-3.73-5.23-7.2-11.46-12-15.74-3.85-3.41-8.51-5.88-12.86-8.58-5.44-3.39-9.79-7.73-14.69-11.82s-9.41-8.09-14.35-11.82-10.22-6.41-15.57-9.36c-11.86-6.52-24.28-12.93-37.91-14.58-8.25-1-16.51.06-24.7,1.09a177.3,177.3,0,0,0-20.86,3.49c-13.35,3.33-24.25,10.57-34.68,19.28-5.34,4.46-10.82,9-15.11,14.48-2.27,2.91-3.79,6.44-7,8.42-2.3,1.43-5.06,1.5-7.28,3.1-3.09,2.22-4.83,5.47-8.23,7.5s-7.09,3.7-10.42,6a96.75,96.75,0,0,0-15.8,14.4c-11.93,13.09-23.07,27-34.52,40.47-.52.61.36,1.5.88.89Z"/><path class="cls-4" d="M289.2,200c5.61-20,22.05-33.57,41.59-39.19,8.55-2.46,17-3.77,25.47-6.75,4.36-1.54,8.91-3.14,13.59-3.12,5.89,0,11.88,1.29,17.65,2.3,10.66,1.88,21.36,3.74,32,5.9,9.82,2,18.63,6.82,26.84,12.42,8.7,5.93,16.44,12.28,22.71,20.8,4.48,6.09,9.69,12.85,12,20.16,4.34,13.95,5.31,31.05,3.32,45.51-.11.79,1.09,1.13,1.2.34a119.88,119.88,0,0,0-2.36-42.62c-1.72-7.27-5.53-13-9.67-19.2a82.83,82.83,0,0,0-19.25-20.83c-8.54-6.41-17.63-12.62-27.83-16-10.72-3.61-22.66-4.73-33.77-6.77-9.84-1.8-20.59-4.68-30.49-2-4.73,1.26-9.22,3.25-13.88,4.71-5.26,1.65-10.78,2.17-16.11,3.59-20.64,5.48-38.23,19.46-44.13,40.52a.62.62,0,0,0,1.2.33Z"/><path class="cls-4" d="M287.42,201.72c-6.38-2.11-12.48,2.2-16.59,6.76-5.52,6.11-8.07,13.54-9.67,21.48-1.47,7.28-2.16,14.73.36,21.84a45.8,45.8,0,0,0,10.85,17.57c.57.56,1.46-.33.88-.89a39.33,39.33,0,0,1-11.54-34.58c1-6.46,2.51-13.15,5.84-18.83,3.68-6.3,11.29-14.87,19.53-12.14.77.25,1.1-1,.34-1.21Z"/><path class="cls-4" d="M288.4,204.71c-2.95.86-5.28,2-7.18,4.44-2.24,2.91-4.08,6.19-6.06,9.28-.44.68.64,1.31,1.08.63,1.59-2.47,3.16-4.95,4.77-7.41a12.49,12.49,0,0,1,7.72-5.74.62.62,0,0,0-.33-1.2Z"/><path class="cls-4" d="M305.73,368.85a58.21,58.21,0,0,1-22.63,60.73c-.66.46,0,1.55.63,1.08a59.48,59.48,0,0,0,23.2-62.14c-.19-.78-1.39-.45-1.2.33Z"/><path class="cls-4" d="M317.68,369.05c2.6,14.26,1.14,28.54-8.46,39.94-7.2,8.54-17,14.36-26.12,20.59-.66.45,0,1.54.63,1.08,9.82-6.71,20.46-13,27.82-22.58,8.79-11.48,9.86-25.52,7.33-39.36-.14-.79-1.34-.46-1.2.33Z"/><path class="cls-4" d="M295.65,209c2.83-5.86,14.11-7.68,19.91-7.93,7-.29,14.15,1.66,19.38,6.41,8.36,7.59,10.17,19.54,12.73,30,2.12,8.58,5.06,17.73,12.1,23.59,7.28,6.05,17.09,7,26.16,7.73.8.07.8-1.18,0-1.25-13.46-1.12-26.18-3.78-32.58-17.05-5-10.42-5.46-22.31-10.06-32.88-4.06-9.31-11.37-15.93-21.63-17.44a36.55,36.55,0,0,0-16.05,1.49c-4,1.24-9.09,2.71-11,6.75-.34.72.73,1.35,1.08.63Z"/><path class="cls-4" d="M386.31,266.86c-11.5-5.85-16.79-17.8-20.66-29.44-2-5.94-3.77-11.92-6.2-17.7-.85-2-1.48-3.77-3.42-5-.68-.44-1.29.63-.63,1.08,11.26,7.66,21.23,17.65,29.87,28.2,3.58,4.37,7.08,9,11.91,12.1,5.66,3.62,12.23,4.15,18.77,3.47.79-.08.8-1.33,0-1.25-7.91.83-15.28-.4-21.39-5.77-4.34-3.82-7.6-8.69-11.4-13-8.16-9.23-17-17.91-27.13-24.83l-.63,1.08c3.68,2.38,5.18,10.15,6.43,13.94,1.89,5.69,3.56,11.46,5.9,17,3.72,8.78,9.28,16.83,17.95,21.24.72.37,1.35-.71.63-1.08Z"/><path class="cls-4" d="M442.76,340.05c3.29,2.69,7.22.53,8.67-3.17,1.18-3,0-6.43-.1-9.52s.64-6.81-.26-9.89c-1.11-3.87-3.26-7.5-4.38-11.43-2-7.19-3.23-15.56,1-22.21.43-.68-.65-1.31-1.08-.63-5.16,8.14-2.8,18.78.22,27.29.88,2.5,2.37,4.95,3.12,7.48.91,3.1,0,7.06.15,10.25.07,1.44.14,1.73.31,3.13a9.9,9.9,0,0,1,.1,4.56q-1.71,5.49-6.84,3.25c-.62-.5-1.51.38-.89.89Z"/><path class="cls-4" d="M410.21,220.13a57,57,0,0,1,14.64,14.7c2.93,4.33,4.5,9.42,7.71,13.55.5.64,1.37-.25.89-.88-3.83-4.93-5.69-11.06-9.52-16.07a58.5,58.5,0,0,0-13.09-12.38c-.66-.47-1.29.62-.63,1.08Z"/><path class="cls-4" d="M441.36,259.54c4.06,4.37,7.58,8.66,12.93,11.53.71.38,1.34-.7.63-1.08-5.25-2.82-8.7-7.05-12.68-11.34-.55-.59-1.43.3-.88.89Z"/><path class="cls-4" d="M419.68,193.75c2.55,3.52,6.15,6.16,9.41,9,5.11,4.45,9.89,9.27,13.35,15.15,4.82,8.21,5.51,16.54,6.63,25.77,1,8.41,3.23,17.76,10.76,22.66.67.44,1.3-.64.63-1.08-9.88-6.43-9.53-19.71-10.89-30.05a47.33,47.33,0,0,0-7.26-19.86A63.86,63.86,0,0,0,431,202.75c-3.46-3.06-7.49-5.86-10.23-9.63-.47-.65-1.55,0-1.08.63Z"/><path class="cls-4" d="M471.91,286.1c1.67,6.21.68,12.06-.27,18.3-.72,4.66-.34,10-2.67,14.21a28.33,28.33,0,0,1-5.47,6.95,52.71,52.71,0,0,1-4.56,3.38c-2.81,2-5,2.65-7.8-.47-.53-.6-1.42.29-.88.89,2,2.27,5.14,3.72,8,2.13a39.79,39.79,0,0,0,6.15-5.07,31.33,31.33,0,0,0,3.14-3.57c3.64-4.74,4.1-8.77,4.78-14.59.88-7.65,2.81-14.86.76-22.5a.63.63,0,0,0-1.21.34Z"/><path class="cls-4" d="M450.31,337.53a44.54,44.54,0,0,0,17.33,6.76,13.16,13.16,0,0,0,6.27-.33c3.46-1.1,7-2.31,10.46-3.55a48.23,48.23,0,0,0,22.68-17.57c6.12-8.49,10.25-18.31,14.3-27.9,2.25-5.32,4.14-11.12,2.08-16.81-1.78-4.92-5.68-8.62-9.1-12.41s-7-8.82-12.23-10.56c-5.46-1.82-11.93-.16-16.75,2.64a.63.63,0,0,0,.63,1.08c7.93-4.61,16.08-4.06,22.69,2.38A102.8,102.8,0,0,1,519.2,273.2c5.79,7.8,3.55,15.37,0,23.6-2,4.71-4.08,9.42-6.4,14-4.94,9.72-11.35,18.91-20.84,24.65-5,3-10.42,4.45-15.95,6.15-3,.91-5.1,1.89-8.19,1.43a41,41,0,0,1-5.57-1.32,42.59,42.59,0,0,1-11.3-5.25c-.68-.44-1.31.65-.64,1.08Z"/></g></g></svg>