<svg xmlns="http://www.w3.org/2000/svg" xmlns:xlink="http://www.w3.org/1999/xlink" viewBox="0 0 800 500"><defs><style>.cls-1{fill:none;}.cls-2{clip-path:url(#clip-path);}.cls-3{fill:#efefef;}.cls-4{fill:#471188;}.cls-5{fill:#a693f0;}.cls-6{fill:#996be5;}</style><clipPath id="clip-path"><rect class="cls-1" x="0.25" width="800" height="500"/></clipPath></defs><title>Wall of Support</title><g id="Drawing_1"><g class="cls-2"><rect class="cls-3" width="800" height="500"/><circle class="cls-4" cx="395.23" cy="238.78" r="149.41"/><path class="cls-5" d="M273.45,270.51a.63.63,0,0,0,0-1.25.63.63,0,0,0,0,1.25Z"/><path class="cls-5" d="M273.89,270.33c16.56-16.4,33.19-32.74,49.63-49.26,8-8,16-16.09,24.08-24,7.19-7,14.93-12.76,24.37-16.3,35.43-13.27,75.45,8.8,83.54,45.68A62.89,62.89,0,0,1,449.23,270c-2.72,5-6.14,11.15-11.43,13.58-.73.34-.1,1.42.63,1.08,7.35-3.38,12.11-13.53,15-20.63a64.13,64.13,0,0,0,4.7-26.75,64.3,64.3,0,0,0-72.81-61.12,63.78,63.78,0,0,0-24.07,8.4c-9.27,5.53-16.64,13.63-24.23,21.18q-32,31.86-64,63.71a.62.62,0,0,0,.88.88Z"/><path class="cls-5" d="M445.43,136.12c8.56,5.59,17.3,10.72,25,17.54a115,115,0,0,1,18.95,150.89c-13,19.1-31.59,34.55-47.86,50.77a.63.63,0,0,0,.89.89c15.1-15.07,32-29.41,44.82-46.51a116.21,116.21,0,0,0-13.83-155c-8.32-7.74-17.86-13.45-27.32-19.62-.68-.45-1.31.64-.63,1.07Z"/><path class="cls-5" d="M327,292.13a.63.63,0,0,0,0-1.25.63.63,0,0,0,0,1.25Z"/><path class="cls-5" d="M327.54,291.82c2.87-4.32,7.18-7.84,10.84-11.5L349,269.74,368.7,250l9.87-9.88c3.16-3.16,6.69-7.92,10.81-9.85,5.51-2.58,13.18.25,14.79,6.36s-2.91,10.85-6.92,14.88q-20,20.12-40,40.16l-19.71,19.7-9.85,9.84L322,326.83c-1.84,1.83-5.17,6.27-8,6.25a.63.63,0,0,0,0,1.25c2.27,0,3-.83,4.63-2.4,3.54-3.5,7-7,10.56-10.55L349,301.69Q369,281.64,389,261.55C395.51,255,414,241.14,402,231a12.27,12.27,0,0,0-13.23-1.83c-3.27,1.64-5.7,4.69-8.23,7.22L369.93,247l-22.56,22.57-11.28,11.29c-3.3,3.3-7,6.44-9.63,10.34-.45.67.64,1.3,1.08.63Z"/><path class="cls-5" d="M270.3,245.36c6-7.92,14-14.68,21.05-21.72s13.77-13.83,20.67-20.73c12.18-12.18,23.91-26.13,38.82-35.08A83.65,83.65,0,0,1,466,197.05c.42.68,1.5,0,1.08-.63-14.92-24.39-40.44-40.32-69.2-41.67a85.22,85.22,0,0,0-39.54,7.7c-15.88,7.31-27.42,19.85-39.62,32q-12.8,12.74-25.51,25.54c-8,8-17.13,15.72-24,24.74-.48.64.6,1.26,1.08.63Z"/><path class="cls-5" d="M466.55,197.36a.63.63,0,0,0,0-1.25.63.63,0,0,0,0,1.25Z"/><path class="cls-5" d="M433.1,179a.63.63,0,0,0,0-1.25.63.63,0,0,0,0,1.25Z"/><path class="cls-5" d="M432.78,179c24.57,12.74,37.29,42.11,34.27,69a72.11,72.11,0,0,1-15.7,37.63C441.23,298,428.89,309,417.6,320.25q-10.1,10.08-20.22,20.14l-10.47,10.4c-2.23,2.22-8.84,11-12.19,10.58-.8-.11-.79,1.14,0,1.25,2,.27,2.58-.48,4-1.91l11.15-11.11,20.23-20.13c13.45-13.39,27.52-26.5,40.16-40.67,18.55-20.82,23.42-51.25,12.92-77-5.86-14.39-15.9-26.73-29.79-33.93-.71-.37-1.34.71-.63,1.08Z"/><path class="cls-5" d="M293.3,311.09c5.77-7.18,12.91-13.44,19.42-19.95l19.54-19.55q20.6-20.59,41.21-41.17c6.91-6.89,14-13.4,24.53-11.32,8.61,1.69,15.67,8.75,16.75,17.53,1.23,10.09-4.94,17-11.43,23.73-3,3.13-6.11,6.2-9.2,9.26l-5.32,5.24c-1.69,1.66-4,4.89-6.34,5.64-.76.25-.43,1.46.33,1.21,2.34-.76,3.87-3,5.56-4.66,3.1-3.06,6.22-6.1,9.3-9.17,5.21-5.19,11.89-10.52,15.43-17,5.43-10,3.42-22.4-6-29.13-10.95-7.82-23-3.66-31.69,5q-19.92,19.86-39.81,39.76l-21.64,21.65c-7.19,7.2-15.13,14.11-21.51,22-.5.62.37,1.51.88.88Z"/><path class="cls-5" d="M358.33,216.32a.63.63,0,0,0,0-1.25.63.63,0,0,0,0,1.25Z"/><path class="cls-5" d="M358.77,216.14c14.15-17.39,39.37-24.59,58.85-11.31,10.63,7.24,17.4,19.77,18.53,32.51,1.51,16.91-8.65,28.16-19.61,39.48-6.45,6.66-13,13.21-19.61,19.72l-10.25,10.11c-3.33,3.3-6.74,7.75-10.85,10-.7.39-.07,1.47.63,1.08,3.29-1.83,5.73-4.91,8.38-7.53l10.92-10.78c7.06-7,14.1-13.94,21-21.05,10.83-11.16,21.31-22.17,20.78-38.78-.79-24.34-21.15-44.63-45.79-42.87-13.5,1-25.42,8.13-33.86,18.51-.51.61.37,1.5.88.88Z"/><path class="cls-5" d="M311.36,175.41a.63.63,0,0,0,0-1.25.63.63,0,0,0,0,1.25Z"/><path class="cls-5" d="M311.8,175.23c21.28-25.37,50.37-40.35,83.77-40.11,16.78.11,33.08,4.79,47.91,12.54,13.24,6.91,26.65,16.56,33.68,30.11.37.71,1.45.08,1.08-.64-11.13-21.44-37.37-34.8-59.87-40.43a104.59,104.59,0,0,0-73.84,9.4c-13,7.05-24.13,16.94-33.61,28.24-.51.62.37,1.51.88.89Z"/><path class="cls-5" d="M400.47,115.42c51.61-.4,98.5,38.34,113.46,86.8a113.67,113.67,0,0,1,4.47,44.63c-.07.8,1.18.8,1.25,0,5.14-52.9-28.36-104.28-77-124.37a108.37,108.37,0,0,0-42.16-8.31.63.63,0,0,0,0,1.25Z"/><path class="cls-5" d="M519,247.48a.63.63,0,0,0,0-1.25.63.63,0,0,0,0,1.25Z"/><path class="cls-5" d="M473.56,215.53a.63.63,0,0,0,0-1.25.63.63,0,0,0,0,1.25Z"/><path class="cls-5" d="M473,215.07c10.74,27.64,2.75,60.22-17.26,81.62-10.58,11.3-21.84,22-32.79,33l-16.64,16.61-8.31,8.3c-2.15,2.15-6.54,8.3-9.79,8.07-.8-.06-.8,1.19,0,1.25,2.31.16,2.8-.6,4.44-2.2,3.26-3.2,6.46-6.47,9.7-9.7l19.4-19.37c12.18-12.17,25.11-24,36.51-36.86,19.12-21.65,26.53-53.81,16-81-.29-.75-1.5-.42-1.21.33Z"/><path class="cls-5" d="M269.79,230.7a.63.63,0,0,0,0-1.25.63.63,0,0,0,0,1.25Z"/><path class="cls-5" d="M270.24,230.51c8.09-9.61,17.67-18.16,26.55-27s18-18,27-26.92c16.33-16.23,35-27.08,58.07-30.16.79-.1.8-1.35,0-1.25a96.11,96.11,0,0,0-54.91,26.52c-9.77,9.49-19.32,19.22-28.95,28.85s-19.91,18.78-28.63,29.13c-.51.61.37,1.5.89.88Z"/><path class="cls-5" d="M399,208.63a.63.63,0,0,0,0-1.25.63.63,0,0,0,0,1.25Z"/><path class="cls-5" d="M398.82,208.61c13.35,3.21,23.17,11.41,26,25.24a29.8,29.8,0,0,1-4.07,22.72c-4.52,6.81-11.27,12.48-17,18.23q-17.46,17.44-35,34.87l-17.61,17.61-8.46,8.46c-3.4,3.4-7,8.43-11.75,9.77a.63.63,0,0,0,.33,1.21c3.52-1,5.53-3.33,8.08-5.87q4.94-4.94,9.86-9.86l21.14-21.14c14.17-14.17,28.5-28.18,42.52-42.5,5.22-5.35,10.31-10.51,12.59-17.83a33.16,33.16,0,0,0-.49-19.93c-3.93-12.31-13.62-19.25-25.85-22.19-.79-.19-1.12,1-.34,1.21Z"/><path class="cls-5" d="M301.71,258.16a.63.63,0,0,0,0-1.25.63.63,0,0,0,0,1.25Z"/><path class="cls-5" d="M302.25,257.85c5.14-7.41,13-13.67,19.36-20.08s12.61-12.75,19-19.07c10.54-10.47,20.85-22.91,35.15-28.23a52.75,52.75,0,0,1,52.17,9.28c5,4.23,12.13,11.14,12.42,18,0,.8,1.29.81,1.25,0-.38-9-10.58-17.76-17.47-22.44A54.38,54.38,0,0,0,397,186.09a52.92,52.92,0,0,0-28.67,6.42c-11.58,6.41-20.71,17.43-30,26.66-6.58,6.55-13.11,13.16-19.64,19.76-5.8,5.86-12.83,11.51-17.53,18.29-.46.66.63,1.29,1.08.63Z"/><path class="cls-5" d="M277.66,192.12a.63.63,0,0,0,0-1.25.63.63,0,0,0,0,1.25Z"/><path class="cls-5" d="M278.1,191.94c10.9-10.61,21.93-21.06,33-31.48,11.39-10.69,23.32-20.23,37.66-26.69a106.44,106.44,0,0,1,43.32-9.4,118.35,118.35,0,0,1,22.46,2.13q5.13,1,10.18,2.36c4,1.08,9.15,2,12.26,4.71.6.53,1.49-.35.88-.88-4.52-4-12.25-5-17.91-6.32a125,125,0,0,0-22-3.12A107.81,107.81,0,0,0,353,130.63c-14.4,5.7-26.85,14.35-38.25,24.74C302,167,289.59,179,277.22,191.06c-.58.56.3,1.44.88.88Z"/><path class="cls-5" d="M445.17,229.75a.63.63,0,0,0,0-1.25.63.63,0,0,0,0,1.25Z"/><path class="cls-5" d="M444.57,229.29c2.59,12.2,1.64,24.64-4.49,35.67-6.55,11.77-17.82,21-27.27,30.36q-15,14.9-29.89,29.85l-15.07,15.07-7.53,7.53c-2.82,2.82-5.4,6.12-9.32,7.34-.77.24-.44,1.44.33,1.2,5.79-1.79,9.84-7.62,14-11.76l16.44-16.44q17.31-17.31,34.64-34.59c9.54-9.51,20.67-18.73,26.43-31.2,4.88-10.58,5.35-22.08,3-33.36-.17-.79-1.38-.45-1.21.33Z"/><path class="cls-5" d="M400.23,146.23a.63.63,0,0,0,0-1.25.63.63,0,0,0,0,1.25Z"/><path class="cls-5" d="M400.23,146.23c54.15.29,98.81,57.41,86,109.94a.63.63,0,0,0,1.21.33c13-53.32-32.23-111.23-87.2-111.52a.63.63,0,0,0,0,1.25Z"/><path class="cls-5" d="M483.15,270.18a88.78,88.78,0,0,1-12.68,25.05c-6.24,8.57-14.23,15.78-21.69,23.27S434,333.3,426.62,340.69l-11.09,11.08c-3.89,3.88-7.62,8.37-12,11.68-.63.48,0,1.57.63,1.08,8-6.06,14.85-14.47,21.95-21.57q12.48-12.48,24.94-25c7.08-7.11,14.59-14,20.5-22.12a90.36,90.36,0,0,0,12.81-25.36c.24-.77-1-1.1-1.21-.33Z"/><path class="cls-5" d="M401.67,362.5a.63.63,0,0,0,0-1.25.63.63,0,0,0,0,1.25Z"/><path class="cls-5" d="M483.64,187.25C500.3,205.31,501.42,233.12,497,256c-4.92,25.48-17.7,51-39,66.59-.64.47,0,1.55.63,1.08,32.43-23.78,48.83-72.53,39.27-111.38-2.36-9.6-6.65-18.66-13.38-26-.55-.6-1.43.29-.89.88Z"/><path class="cls-5" d="M458.32,323.79a.63.63,0,0,0,0-1.25.63.63,0,0,0,0,1.25Z"/><path class="cls-5" d="M287.4,302.25c6.92-8.74,15.74-16.29,23.62-24.18l25.16-25.17,24.47-24.46c8.24-8.23,16-18.51,28.6-18.88.8,0,.81-1.28,0-1.25-9.67.28-15.94,5.73-22.49,12.26l-27.27,27.26q-13.29,13.28-26.56,26.56c-8.79,8.8-18.7,17.23-26.42,27-.49.62.39,1.51.89.88Z"/><path class="cls-5" d="M389.25,209.56a.63.63,0,0,0,0-1.25.63.63,0,0,0,0,1.25Z"/><path class="cls-5" d="M366.34,264.85Q336,295.23,305.55,325.57a.63.63,0,0,0,.89.89l60.78-60.72c.57-.57-.31-1.46-.88-.89Z"/><path class="cls-5" d="M271.31,258.42c27.44-26.63,53.56-54.66,82.52-79.7.61-.53-.28-1.41-.88-.89-29,25-55.08,53.07-82.52,79.71-.58.56.3,1.44.88.88Z"/><path class="cls-5" d="M353.39,178.9a.63.63,0,0,0,0-1.25.63.63,0,0,0,0,1.25Z"/><path class="cls-5" d="M289.63,166.58a.63.63,0,0,0,0-1.25.63.63,0,0,0,0,1.25Z"/><path class="cls-5" d="M290.07,166.4c22-25.46,49.3-45.11,83.26-49.82.8-.11.46-1.31-.33-1.2-34.16,4.73-61.71,24.53-83.81,50.13-.52.61.36,1.5.88.89Z"/><path class="cls-5" d="M282.24,293.38a.63.63,0,0,0,0-1.25.63.63,0,0,0,0,1.25Z"/><path class="cls-5" d="M282.68,293.19l64.22-64.13a.62.62,0,0,0-.88-.88L281.8,292.31a.62.62,0,0,0,.88.88Z"/><path class="cls-5" d="M363.24,360.46a.63.63,0,0,0,0-1.25.63.63,0,0,0,0,1.25Z"/><path class="cls-5" d="M363.69,360.28l59.73-59.46c.58-.56-.31-1.45-.88-.88L362.8,359.4c-.57.56.31,1.45.89.88Z"/><path class="cls-5" d="M514.49,272.58c-6,25-20.05,46.21-39.59,62.79-.61.52.28,1.4.89.89,19.68-16.71,33.82-38.15,39.91-63.35.19-.78-1-1.12-1.21-.33Z"/><path class="cls-5" d="M323.05,341.4a.63.63,0,0,0,0-1.25.63.63,0,0,0,0,1.25Z"/><path class="cls-5" d="M323.49,341.22l49.21-49.15c.57-.57-.31-1.46-.88-.89l-49.21,49.15a.63.63,0,0,0,.88.89Z"/><path class="cls-5" d="M366.93,173.13c6.82-5.7,17.79-6.36,26.26-6.41s18.81.61,26.17,5.57c.66.45,1.29-.63.63-1.08-7.85-5.29-18.91-5.92-28.07-5.72-8.52.18-19,1-25.87,6.76-.62.52.27,1.4.88.88Z"/><path class="cls-5" d="M419.67,172.38a.63.63,0,0,0,0-1.25.63.63,0,0,0,0,1.25Z"/><path class="cls-5" d="M421.8,362.55l26.46-26c.58-.56-.31-1.45-.88-.88l-26.46,26c-.58.56.31,1.45.88.88Z"/><path class="cls-5" d="M297.25,188.55a.63.63,0,0,0,0-1.25.63.63,0,0,0,0,1.25Z"/><path class="cls-5" d="M296.81,187.48l-25.05,25a.63.63,0,0,0,.89.89l25-25a.62.62,0,0,0-.88-.88Z"/><path class="cls-5" d="M341.77,352.84a.63.63,0,0,0,0-1.25.63.63,0,0,0,0,1.25Z"/><path class="cls-5" d="M342.21,352.66l25.53-25.4c.57-.57-.31-1.46-.88-.89l-25.53,25.4c-.57.57.31,1.46.88.89Z"/><path class="cls-5" d="M389.48,244.38a.63.63,0,0,0,0-1.25.63.63,0,0,0,0,1.25Z"/><path class="cls-5" d="M389,243.32q-6.69,7.22-13.37,14.42c-.55.59.34,1.48.88.89l13.37-14.43c.55-.59-.34-1.47-.88-.88Z"/><path class="cls-5" d="M316.7,302.19a.63.63,0,0,0,0-1.25.63.63,0,0,0,0,1.25Z"/><path class="cls-5" d="M316.26,301.13,298.9,318.51a.62.62,0,0,0,.88.88L317.14,302a.62.62,0,0,0-.88-.88Z"/><polygon class="cls-3" points="412.67 550.95 389.74 462.7 372.29 395.39 367.34 376.52 364.02 365.01 359.82 348.4 357.45 336.85 356.22 326.97 357.05 317.44 359.32 304.64 363.48 290.85 365.64 282.21 368.91 266.42 370.35 248.36 371.9 231.74 374.39 217.06 377.27 206.59 380.21 201.33 384.25 198.48 388.13 198.5 391.46 199.83 395.41 205.1 396.72 209.47 396.77 216.51 392.9 251.96 390.69 277.18 390.54 278.61 396.91 274.43 400.87 273.59 403.75 273.62 408.71 274.56 412.17 276.03 414.33 272.53 418.86 267.87 424.18 264.63 428.75 264.05 435.03 267.04 438.85 270.04 441.59 265.81 445.47 261.99 449.79 259.83 455.44 259.11 461.36 259.78 464.77 264.15 470.13 273.11 471.15 274.68 474.29 274.81 481.73 275.85 486.26 277.39 489.45 280.46 491.73 284.81 493.44 294.12 494.05 303.43 495.88 311.24 499.81 321.76 500.87 328.19 499.98 333.62 495.83 340.99 491.12 345.69 485.74 353.51 474.05 372.62 463.64 386.75 459.87 396.16 459.43 403.31 461.53 415.77 468.79 443.75 499.7 537.82 508.12 556.54 445.86 574.49 415.77 563.8 412.67 550.95"/><path class="cls-6" d="M372.34,232.5s2.55-2.94,8.53-2.77a51,51,0,0,1,12.8,2.49l1.16.83,1.22-10.36.56-7.81-.45-6.81-.75-3-2-3.4-2.88-2.27-2.83-1.06-3.49.11L380.71,201l-3,4.88-3.6,12.91-1.77,11.91Z"/><path class="cls-4" d="M390.93,278.64l5-50.28c.88-8.9,5.22-27.69-7.76-30.48-11.07-2.37-13.38,15.6-14.84,22.57-3.39,16.11-2.73,32.48-5.36,48.63-2.41,14.79-8.25,28.77-10.89,43.51-2.75,15.36.47,29,4.32,43.83l25.28,97.74,28.67,110.89a.63.63,0,0,0,1.21-.34l-45.77-177c-3.78-14.64-7.81-29.23-11.33-43.94-3.61-15.07-2.24-28.83,1.8-43.67,3.53-13,7.77-25.68,8.94-39.17,1.34-15.45,1.88-30.58,5.59-45.74,1.73-7.09,7.18-23.89,17-13.21,5.91,6.45,2.69,18.53,1.92,26.33l-5,50.28c-.08.8,1.17.79,1.25,0Z"/><path class="cls-4" d="M416.53,351.74c-3.63,1.35-7.61,2.78-11.53,1.81-5.14-1.26-6.51-5.8-7-10.4-.6-5.28-2.06-10.16-3.39-15.29-1.43-5.53-1.41-11.27-2.85-16.8-1.8-6.92-4.64-13.49-3.61-20.8.11-.79-1.1-1.13-1.21-.33-1,7.27,1.52,13.69,3.39,20.61a95,95,0,0,1,1.93,11.85,98.09,98.09,0,0,0,3,12.31c1.41,5.25.52,13.16,4.62,17.38,4.61,4.76,11.64,2.88,17,.86.75-.28.42-1.49-.33-1.2Z"/><path class="cls-4" d="M387.84,297.88c-2.29-5.17-2.11-13.48,2-17.53,4.53-4.4,10.48-7,16.74-5.49,4.24,1,7.57,2.34,8.35,7.59a22.73,22.73,0,0,1-.25,5.08c-.48,5.45-1.58,10.81-2.29,16.22-1.18,9-.29,17.93-.54,27-.17,6.23-2.63,15.08,2.95,19.86,3.71,3.18,10.86,3,15,.77,5.25-2.86,6.39-9.23,7-14.59,2-17,2.53-34.09,4.27-51.09.08-.8-1.17-.8-1.25,0-1.79,17.54-2.28,35.21-4.47,52.72-.82,6.56-3.71,12.49-11,13.15-7.83.7-12-3.89-11.88-11.6.05-5,.69-10,.6-15-.08-4.84-.34-9.69-.08-14.53.49-9.21,3.75-18.66,3.17-27.92-.41-6.6-6.92-9.08-12.91-9.54-5.46-.42-12.2,3.64-15.5,7.83-3.62,4.59-3.32,12.65-1.05,17.77.33.73,1.4.1,1.08-.63Z"/><path class="cls-4" d="M412.81,276.7c1.54-4.25,6.54-9.15,10.73-10.95,6.75-2.88,12,2.88,17,6.53.65.48,1.27-.6.63-1.07-4.78-3.51-10.36-9.5-16.83-7.18-5.19,1.86-10.84,7.2-12.7,12.33-.28.76.93,1.09,1.2.34Z"/><path class="cls-4" d="M439.67,269.87c4.34-6.37,9.9-11.24,18.14-10,6.26.93,10.05,10,12.6,15.25.36.72,1.44.09,1.08-.63a70.58,70.58,0,0,0-7.91-13.13c-2.06-2.57-3.2-2.65-6.54-2.77-8.72-.31-13.64,3.61-18.45,10.67-.45.67.63,1.29,1.08.63Z"/><path class="cls-4" d="M403.23,351.75c.26-2.33-.47-4.91.18-7.18.92-3.2,5.14-5.05,8.17-3.81.74.31,1.07-.9.33-1.2-2.85-1.17-6.54,0-8.51,2.34-2.34,2.74-1.06,6.61-1.42,9.85-.09.79,1.16.79,1.25,0Z"/><path class="cls-4" d="M402.6,352.51c2.89,1,5.48,1.55,8.51.84,1.62-.38,4.44-.78,4.92-2.7a.63.63,0,0,0-1.21-.33c-.38,1.52-4.92,2.1-6.11,2.16a15.38,15.38,0,0,1-5.78-1.17c-.76-.26-1.09.94-.33,1.2Z"/><path class="cls-4" d="M414,347c2.44,4.79,9.29,5.5,13.87,3.57,5.14-2.17,5.74-8.08,4.82-13-1-5.34-6.36-7.42-11.39-6.47-6.45,1.23-7,10.05-7.33,15.43-.05.81,1.2.8,1.25,0,.24-3.55.7-9.31,2.92-12.34,3.58-4.86,12.29-1.37,13.29,3.65.76,3.81.55,9-3.16,11.16-4,2.31-10.93,1.8-13.19-2.62-.37-.72-1.45-.09-1.08.63Z"/><path class="cls-4" d="M460.45,303.94a71.1,71.1,0,0,1-5.05,18.72c-1.14,2.66-2.36,5.84-4.52,7.87-3,2.78-11.27,5.94-13.43.6-.3-.73-1.51-.41-1.21.34,2.6,6.41,11.59,3.63,15.52-.06,2.93-2.74,4.44-7.17,5.84-10.83a73.91,73.91,0,0,0,4.1-16.64c.11-.8-1.15-.79-1.25,0Z"/><path class="cls-4" d="M436.53,330.33c2.45,3.65,6.89,3.92,10.69,2.15,4.32-2,4.43-5.32,4.49-9.65.06-4.12-1.15-7.41-5.63-8.24-3.15-.58-7.73.13-8.71,3.67a.63.63,0,0,0,1.21.33c.87-3.14,5.24-3.13,7.69-2.52,3.94,1,4.24,4.46,4.17,7.94-.06,2.78-.19,5.29-2.88,6.9-3.11,1.86-7.72,2.12-9.95-1.21-.45-.66-1.53,0-1.08.63Z"/><path class="cls-4" d="M462.79,274.57c-4.79-.2-9.08-1.83-13.65-3-1.92-.51-4.72-1.57-6.69-.54-4.06,2.14-1,7.07.81,9.49,1.16,1.54,2.47,3.53,4.19,4.49,2.66,1.49,6.93,1.29,9.83,1.2,5.22-.16,5.39-6.79,6.68-10.9.24-.77-1-1.1-1.2-.33-.61,1.92-1.22,3.84-1.86,5.76-.94,2.81-1.37,3.8-4.44,4.23-4.19.59-8.33-.47-11-3.68-.69-.82-1.36-1.68-2-2.55q-2.89-3.17,2.25-6.69c1.58-.32,4.59,1.17,6.12,1.62a45.09,45.09,0,0,0,10.94,2.19c.8,0,.8-1.22,0-1.25Z"/><path class="cls-4" d="M442,271.48c-5,.61-4.16,6.59-3.07,10.27a21.58,21.58,0,0,0,4.4,8c1.38,1.59,3.15,2.8,4.5,4.41,1.1,1.3,1.73,3,2.88,4.2,6.47,7,26.55,11.2,30.26-.69.24-.77-1-1.1-1.2-.33-3.7,11.85-23.53,5.36-29-1.14-2-2.31-3.92-4.53-6-6.79-1.7-1.84-10.05-15.79-2.72-16.68.79-.1.8-1.35,0-1.25Z"/><path class="cls-4" d="M460.79,303.79a21.49,21.49,0,0,0,2.4,10.8c1.77,3.12,4.87,4.82,8,6.4.72.36,1.35-.72.63-1.08-2.91-1.49-5.82-3-7.52-6A19.92,19.92,0,0,1,462,303.79a.63.63,0,0,0-1.25,0Z"/><path class="cls-4" d="M463.38,315.36c-.78,1.6-1.88,4.65-.76,6.34a9.11,9.11,0,0,0,2.68,2.05l4.48,3c.68.44,1.3-.64.63-1.08-1.71-1.13-3.43-2.23-5.12-3.38-1.36-.91-2-1.6-1.69-3.37a10.13,10.13,0,0,1,.86-2.89c.35-.72-.72-1.35-1.08-.63Z"/><path class="cls-4" d="M463.81,275.42a95.46,95.46,0,0,1,13.31.62c3,.37,5.74.69,8.41,2.15,3.19,1.73,4.54,4.67,5.48,8.1,2.33,8.56,1.71,17.53,4.65,26,3.1,8.91,7.06,17.18,1,25.9-4.59,6.6-10,12.13-14.08,19.16a194.61,194.61,0,0,1-13.43,20.45c-4.35,5.7-8.54,11.68-9.8,18.89-1.65,9.44,1.53,18.42,3.79,27.45,8.93,35.74,19.57,71.1,32.87,105.48,10.22,26.44,21.91,52.75,37.79,76.34.45.66,1.53,0,1.08-.63-14.8-22-25.92-46.36-35.67-70.93-9.14-23.07-17-46.66-24-70.46-3.89-13.22-7.45-26.53-10.79-39.9-3-11.82-6.93-23.55-1.08-35.24,3.41-6.81,8.83-12.38,13.07-18.66,5.22-7.75,9-16.4,15-23.64,4.44-5.39,9.87-10.45,10-17.94.16-9.24-5.72-17.88-6.91-27-.94-7.2-.43-17.81-6.25-23.22-2.46-2.29-5.85-2.76-9.05-3.23a95.18,95.18,0,0,0-15.37-.89.63.63,0,0,0,0,1.25Z"/><path class="cls-4" d="M367.94,317.33c8.88-2.29,16.76,2.31,24.63,5.77.73.33,1.36-.75.63-1.07-8.21-3.62-16.37-8.28-25.59-5.9a.62.62,0,0,0,.33,1.2Z"/><path class="cls-4" d="M391.69,315l-4.11-2.73c-.67-.45-1.3.63-.63,1.08l4.11,2.73c.67.45,1.3-.63.63-1.08Z"/><path class="cls-4" d="M364,290.66a15.67,15.67,0,0,1,4.63-1c.8-.06.8-1.31,0-1.25a17.16,17.16,0,0,0-5,1.05c-.75.28-.43,1.49.33,1.21Z"/><path class="cls-4" d="M386,288.35a23.65,23.65,0,0,0-6.13-2c-.78-.14-1.12,1.06-.33,1.21a22.53,22.53,0,0,1,5.83,1.86c.72.35,1.35-.73.63-1.08Z"/><path class="cls-4" d="M372.25,258.55a32.34,32.34,0,0,0,16,3.68.63.63,0,0,0,0-1.25,31,31,0,0,1-15.36-3.51c-.72-.37-1.35.71-.63,1.08Z"/><path class="cls-4" d="M391.53,258a6.76,6.76,0,0,1-4.5.29.62.62,0,0,0-.33,1.2,8.12,8.12,0,0,0,5.47-.41c.73-.31.1-1.39-.64-1.08Z"/><path class="cls-4" d="M372.83,255.2a19.88,19.88,0,0,0,7.57,1c3.89-.5,6.85-1.19,10.85-.51.78.14,1.12-1.07.33-1.2a22.06,22.06,0,0,0-7.33-.43,41.23,41.23,0,0,1-5.09,1,20.81,20.81,0,0,1-6-1,.63.63,0,0,0-.33,1.21Z"/><path class="cls-4" d="M374,234.72c5.51-2.09,11.21-1.48,16.9-.62.79.12,1.13-1.09.34-1.21-5.91-.89-11.87-1.54-17.57.63-.75.28-.42,1.49.33,1.2Z"/><path class="cls-4" d="M380.48,234.83c4.41.53,9.29,1.75,13.73,1.43.79-.06.8-1.31,0-1.25-4.44.32-9.32-.9-13.73-1.43-.8-.1-.79,1.16,0,1.25Z"/><path class="cls-4" d="M374.49,404.88c6.31,10.82,20.18,8.15,30.57,6.09.79-.15.46-1.36-.33-1.2-9.64,1.9-23.24,4.64-29.16-5.52a.63.63,0,0,0-1.08.63Z"/><path class="cls-4" d="M425.88,408.2c11.68-1.37,23.57-3.07,32.73-11.05.61-.53-.27-1.41-.88-.89-8.9,7.75-20.54,9.37-31.85,10.69-.79.09-.8,1.34,0,1.25Z"/></g></g></svg>