<svg xmlns="http://www.w3.org/2000/svg" xmlns:xlink="http://www.w3.org/1999/xlink" viewBox="0 0 800 500"><defs><style>.cls-1{fill:none;}.cls-2{clip-path:url(#clip-path);}.cls-3{fill:#efefef;}.cls-4{fill:#a693f0;}.cls-5{fill:#471188;}.cls-6{fill:#4e008e;}.cls-7{fill:#7837f1;}.cls-8{fill:#996be5;}.cls-9{fill:#5822cc;}</style><clipPath id="clip-path"><rect class="cls-1" width="800" height="500"/></clipPath></defs><title>Wall of Support</title><g id="Drawing_1"><g class="cls-2"><rect class="cls-3" width="800" height="500"/><polyline class="cls-4" points="109.7 337.35 113.83 329.29 126.32 305.75 130.72 298.8 133.01 294.81 136.25 290.24 141.28 288.77 147.71 285.43 154.16 282.17 175.53 270.15 180.92 260.38 171 246.66 174.11 226.15 173.96 220.84 171.76 206.44 164.1 192.52 156.43 181.09 150.96 177.03 144.54 175.93 142.66 177.34 138.81 178.89 133.75 178.91 131.75 180.13 129.05 183.6 128.47 190.58 127.64 194.24 127.02 198.78 122.48 193.3 116.54 190.48 109.34 187.04 102.61 183.6 95.88 177.65 96.2 174.84 99.8 168.42 99.64 164.2 94.16 167.17 90.25 171.24 87.44 180.16 85.56 180.47 82.74 182.66 80.86 185.48 67.72 194.08 57.71 200.5 50.82 208.79 47.85 215.83 48.63 225.69 46.29 235.54 45.51 248.37 46.91 256.19 46.6 271.21 44.57 284.36 44.57 290.3 45.04 293.27 49.1 301.88 52.7 300.16 60.68 300.63 69.6 300.63 69.6 307.98 70.38 312.99 70.13 316.68 69.75 324.05 69.44 329.42 71.01 340.05 81.65 348.19 94.48 351.79 100.16 352.31 104.61 346.48"/><path class="cls-5" d="M748.19,425.82c-1,16.84-8.63,32.17-12.15,48.49s-4.52,33.05-6.08,49.5c-.08.8,1.17.79,1.25,0,1.65-17.44,2.58-35.54,6.83-52.57,3.79-15.17,10.44-29.64,11.4-45.42,0-.81-1.21-.8-1.25,0Z"/><polygon class="cls-6" points="102.3 159.56 101.88 156.01 103.03 153.61 105.01 151.84 107.31 151.21 110.95 151.94 114.71 155.07 115.02 156.53 116.9 153.3 117 148.92 118.15 144.43 123.47 139.01 129.52 135.98 134.74 133.9 135.78 133.59 137.45 135.57 140.37 133.27 143.39 129.1 145.27 123.47 144.65 119.4 144.23 117.63 143.39 113.25 139.53 110.01 136.61 108.24 131.71 106.99 127.96 106.99 122.85 106.99 118.47 107.72 114.81 107.82 109.39 107.82 104.8 107.41 101.46 107.2 98.75 107.82 96.35 108.55 94.37 110.43 91.24 114.92 85.19 125.87 81.44 134.11 80.71 138.38 82.79 142.87 91.14 151 101.67 158.83 102.3 159.56"/><polygon class="cls-6" points="379.69 206.6 379.54 210.04 380.32 213.95 380.79 219.43 383.45 226.94 386.11 232.72 389.86 237.42 394.87 242.43 400.03 243.99 405.51 247.43 410.36 251.19 416.77 254.63 415.52 242.74 415.37 228.19 414.74 211.6 418.02 187.2 418.81 175.93 423.5 162.01 423.66 159.35 418.5 155.12 403.63 150.27 396.28 149.65 389.71 151.37 382.51 159.97 377.66 171.08 375.16 184.38 372.18 195.02 370.31 205.66 366.08 214.58 364.36 218.18 367.18 216.77 370.31 215.67 373.44 214.26 376.41 212.23 378.13 210.2 379.69 206.6"/><polygon class="cls-6" points="438.13 241.1 440.63 242.97 443.53 243.83 444.39 244.07 441.1 240.78 437.82 236.25 434.84 230.14 432.03 217.31 430.54 210.98 430.7 202.37 431.64 196.97 432.97 190.25 433.83 185.79 433.75 180.31 433.67 175.15 431.56 167.95 428.51 162.71 426.63 160.68 425.46 160.13 424.28 161.3 425.69 163.1 426.94 164.9 429.06 168.89 429.99 171.24 430.62 174.45 430.23 176.56 429.29 179.14 428.74 181.09 428.9 183.6 429.99 184.93 431.56 187.28 431.95 189.31 431.17 190.95 429.52 192.13 427.57 193.53 426.79 196.19 426.32 199.4 426.79 204.17 426.79 207.07 425.77 208.87 422.25 210.12 415.83 211.45 414.11 213.48 414.74 220.52 415.99 223.57 425.3 230.22 429.68 233.66 435.39 238.75 438.13 241.1"/><polygon class="cls-6" points="501.88 87.48 507.52 81.02 511.06 79.97 516.17 80.81 524.41 82.27 529.84 83 532.76 85.61 534.22 88.94 534.53 96.35 535.47 100.1 537.45 105.11 538.39 105.94 540.89 104.28 542.15 104.69 544.96 106.15 545.28 101.88 546.32 96.77 546.63 91.03 546.53 86.13 544.65 81.22 540.06 76.74 536.2 74.76 532.34 73.19 525.14 72.25 520.14 72.25 512.52 74.24 507.2 77.36 503.66 81.43 502.3 84.67 501.88 87.48"/><polygon class="cls-6" points="609.29 122.03 610.62 120 614.14 118.12 616.25 117.57 617.74 118.9 619.85 118.83 622.75 118.67 633.07 121.02 638.16 123.05 640.9 125.08 645.2 130.48 647.23 136.74 648.64 144.95 646.37 152.93 640.74 162.48 638.47 166.94 637.06 162.87 638.39 161.38 640.5 159.03 641.68 156.38 641.68 152.62 638.24 150.98 634.09 151.76 633.78 152.31 629.4 144.88 627.05 141.9 628.07 136.66 625.95 132.59 622.36 131.11 612.58 128.68 609.06 126.02 609.29 122.03"/><polygon class="cls-6" points="676.8 189.39 680.56 187.93 682.23 187.41 685.46 182.4 687.44 176.87 693.28 173.12 698.91 172.28 702.04 172.28 704.34 173.01 714.77 185.01 720.51 192.41 721.13 203.36 720.09 212.23 724.16 204.3 725.2 191.89 727.91 190.12 730 190.85 731.98 191.89 731.88 196.9 726.24 203.05 724.89 205.03 725.1 207.43 722.8 219.63 723.63 230.38 729.58 235.8 733.13 235.7 737.3 227.67 742.2 231.63 743.35 227.56 742.93 217.55 740.12 208.89 736.88 199.92 736.67 196.17 734.79 181.77 735.21 176.77 733.13 171.45 726.97 164.67 719.04 161.96 716.65 161.33 712.89 162.37 710.49 163.21 703.4 161.54 696.52 161.75 692.03 163.83 687.96 166.75 685.25 173.01 682.75 177.5 679.2 185.94 676.8 188.55 676.8 189.39"/><polygon class="cls-7" points="219.7 224.75 224.06 219.06 231.11 202.82 233.92 196.18 238.31 187.7 242.32 183.19 244.24 182.21 253.25 178.63 263.15 175.97 269.34 173.5 276.78 169.88 282.19 168.06 286 167.3 288.92 171.77 289.79 175.9 293.75 179.44 301.31 182.19 303.96 187.69 307.15 194.47 312.33 187.88 314.87 183.62 319.03 177.5 321.13 174.44 323 170.9 322.38 165.05 321.33 163.61 332.89 172.3 352.9 179.38 359.26 182.54 365.56 191.34 370.57 200.94 368.06 209.7 364.79 217.88 354.7 221.63 349.33 224.89 345.12 230.35 341.36 239.11 338.65 254.55 338.02 269.77 336.56 281.67 338.65 293.76 342.4 308.16 343.66 311.91 349.08 325.89 348.45 334.86 347.62 339.45 344.4 344.03 326.88 357.75 306.07 363.99 304.86 362.81 298.6 330.48 289.29 361.92 285.25 362.81 271.06 353.22 258.34 344.12 248.57 318.49 247.75 298.17 248.25 276.34 250.32 244.83 253.17 232.52 254.81 227.75 233.69 254.04 231.04 253.13 227.67 252.58 223.93 249.44 218.81 243.7 217 236.1 219.7 224.75"/><polygon class="cls-8" points="340.11 270.43 345.12 272.62 350.28 274.97 355.91 279.66 359.35 282.63 358.88 286.55 359.67 288.89 360.14 290.3 367.18 288.89 373.59 286.86 377.5 285.45 384.07 284.98 385.95 281.85 389.24 275.59 390.96 273.56 397.53 272.31 402.69 271.53 404.1 274.34 404.73 277.16 404.1 279.66 405.2 282.63 404.57 285.14 404.73 287.01 403.94 289.05 405.2 290.14 404.57 293.27 400.81 296.4 397.06 299.22 389.08 298.59 379.85 301.72 359.62 309.91 362.13 316.48 362.75 328.22 371.25 333.01 381.57 334.89 392.99 334.73 402.85 334.58 419.59 333.01 433.63 330.25 432.58 322.69 436.8 303.13 444 281.07 453.59 272.41 445.67 245.5 438.13 241.1 428.35 232.1 423.19 228.81 419.75 232.41 415.21 234.13 416.77 254.63 404.28 246.68 394.87 242.43 389.86 237.42 383.14 228.34 376.1 223.34 373.44 214.26 365.77 218.33 358.73 220.05 352.31 223.18 348.09 226.62 343.87 233.19 341.36 242.27 339.17 253.22 338.86 259.79 338.7 268.87 340.11 270.43"/><polygon class="cls-4" points="454.64 296.4 472.79 297.34 484.36 298.91 490.31 303.29 495.31 305.16 500.01 303.29 505.95 303.6 508.77 305.79 513.78 308.29 518.47 309.55 529.73 306.42 555.71 300.47 559.77 302.04 554.77 350.85 554.14 395.91 557.58 484.15 558.21 501.05 450.25 500.42 452.76 316.43 454.64 296.4"/><polygon class="cls-8" points="563.95 321.02 569.58 323.94 588.98 330.2 599.62 334.58 607.13 332.07 609.63 331.87 611.51 329.36 614.64 329.36 619.43 330.82 621.73 332.49 625.69 331.24 630.7 327.69 650.93 328.11 661.78 328.74 657.61 364.83 650.1 434.5 648.72 502.01 564.95 502.9 567.05 444.5 562.84 411.51 562.9 360.65 562.9 338.96 563.74 333.54 561.23 325.61 563.95 321.02"/><path class="cls-7" d="M688.54,228.81l2.34,2.82,2,2.35,5.32,2,9.54-.47,8.45-2.81,7.4-2.35,4.18,4.07s2.81,1.09,3.6.94a3.16,3.16,0,0,1,1.72.31l-.63,3-1.41,2.19-2.66,2-.31,2.65,2.66,3.92-.47,2.81-1.25,2.51-8,2.5L718.26,260l-1.87,3.13.62,14.55-.62,53-27.85.62-12.36-1.09-5.32-3.6.47-11.89-2.82-7.2-3.75-25.66,1.25-5.63,3.6-3.29,3.75-2.81v-3.91l2-5.79,2-5,2.81-6.1.32-4.07Z"/><path class="cls-5" d="M129.25,191.3c.13-2.91-.14-6.46,1.53-9,2.31-3.52,5.8-2.54,9.33-3.14a5.87,5.87,0,0,0,4.34-2.74c1.57-2.43.92-5.27,1.15-7.95a22.82,22.82,0,0,1,.81-4.61,10.35,10.35,0,0,1,2.54-4.74c.66-.76,1.2-.61,1.67-1.65,1.07-2.39-.85-3.87-2.19-5.55-4.6-5.77.29-10.73-.56-16.82a9,9,0,0,0-3.77-6.56c-.67-.46-1.29.63-.63,1.08,5.85,4,2.05,10.65,1.56,16a9,9,0,0,0,.37,4.16c.31.83,6,8.5,2.38,8.06a.6.6,0,0,0-.54.31,23.26,23.26,0,0,0-2.82,7.06c-.5,3.07.39,9.22-1.68,11.34-3.11,3.18-8.31.2-11.74,3.55-3,3-2.83,7.27-3,11.23,0,.8,1.22.8,1.25,0Z"/><path class="cls-5" d="M143.48,118.92a12.7,12.7,0,0,1-.61,10.46c-.78,1.47-5.26,7.42-5.82,3.73a.63.63,0,0,0-.77-.44c-6.31,2-13.2,4.31-17.26,9.93a14.64,14.64,0,0,0-2.65,5.94c-.27,1.45,0,3-.26,4.41-.76,3.89-.89,1.79-2,.53-5.5-6.28-16.72-.5-11.64,7.08l1-.76-11.62-9.71c-3.09-2.58-7-5.18-8.84-8.84-2.91-5.64,1.32-11.3,3.89-16.21C89,121,91,116.78,93.28,112.82c5.6-9.62,16.11-3.15,24.76-4.13,5-.57,9.69-2.55,14.72-1.31a16.78,16.78,0,0,1,7,3.67c.23.21,6,6.47,3.54,7-.78.19-.45,1.4.34,1.21,2.37-.56,1.41-3.18.58-4.74a17.56,17.56,0,0,0-9.81-8c-6.35-2.1-12,.91-18.38,1-6.05.11-12.22-2.91-18.19-.72-4.74,1.74-6.42,6.77-8.57,10.89-2.82,5.38-7.7,11.77-8.52,17.91-.56,4.2,1.62,7.53,4.49,10.36,5.34,5.27,11.57,9.83,17.32,14.64.51.43,1.41-.12,1-.75-2.74-4.09.74-8.42,5.14-7.79,3.15.45,4.79,1.91,6.07,4.84a.62.62,0,0,0,1,.12,5.62,5.62,0,0,0,1.45-2.74c1-4.05.12-7.13,2.82-10.9,1.81-2.53,14.57-12.41,16.46-7.75a.64.64,0,0,0,.92.37,13.92,13.92,0,0,0,7.3-17.49c-.28-.75-1.49-.43-1.21.33Z"/><path class="cls-5" d="M102.15,160.16c1,2.08,3.41,3.6,5.42,4.81a6.48,6.48,0,0,0,3,1.16c1.1.05,3.37-1.66,4.1-1.19s1.3-.65.63-1.08c-2.05-1.32-3.57,1.5-5.84.66s-5.22-2.9-6.19-5c-.34-.73-1.42-.09-1.08.63Z"/><path class="cls-5" d="M108.79,161.87c-1.54-.85-3.14-2-3.65-3.79a3.62,3.62,0,0,1,.36-2.84c.82-1.33,2.1-1.33,3.5-1a7.89,7.89,0,0,1,2.71,1.22c1.53,1.38.2.69.39,1.67.23,1.17.73,1.46,1.46,2.46.48.65,1.56,0,1.08-.63-.26-.36-.86-.79-1-1.17-.39-.82.11-.8.1-1.45a2,2,0,0,0-.94-1.7c-1.71-1.3-4.92-2.6-7-1.45a4.53,4.53,0,0,0-2,4.71c.42,2.32,2.37,3.93,4.33,5,.7.39,1.33-.69.63-1.08Z"/><path class="cls-5" d="M107.54,154.51c-1.14,1.36-2.37,3.1-1.51,4.93a2.36,2.36,0,0,0,1.48,1.32c1.07.33,2.36-.35,3.29.4.57.46.9,1.12,1.76,1a1.35,1.35,0,0,0,1.13-1.24,2.47,2.47,0,0,0-.88-2.1c-.77-.71-3.08-1.29-2.66-2.71a.63.63,0,0,0-1.21-.33,2.44,2.44,0,0,0,.88,2.6,8.54,8.54,0,0,0,1.44.88c.43.26.86.36.74.93s-.23.11-.58-.16a3.66,3.66,0,0,0-2.68-.42A1.48,1.48,0,0,1,107,158a5,5,0,0,1,1.41-2.57c.51-.61-.36-1.5-.88-.88Z"/><path class="cls-5" d="M114.61,167.62a8.35,8.35,0,0,0,4.11,6.63.63.63,0,0,0,.63-1.08,7.06,7.06,0,0,1-3.49-5.55c-.06-.8-1.31-.8-1.25,0Z"/><path class="cls-5" d="M99.59,156.9l-.53-.4c-.56-.43-1.07.36-.85.85a16.48,16.48,0,0,1,1,10.61c-.6,2.44-2.59,4.45-3,6.83-.12.79,1.09,1.13,1.21.33.23-1.5,1.52-2.88,2.11-4.27a17.29,17.29,0,0,0,1.24-4.86,17.82,17.82,0,0,0-1.54-9.27l-.86.86.53.4c.64.49,1.26-.6.63-1.08Z"/><path class="cls-5" d="M99.48,163.54c-3.2,1.13-7.48,3.35-7.85,7.2s3.64,7.38,6.34,9.47c5.51,4.27,10.49,8.73,15.68,13.36.95.84,1.94,2,3.33,2,1.15,0,1.06-.45,1.9-.6,5.17-.92,6.45,1.69,7.48,5.44a.62.62,0,0,0,1.2-.33c-.72-2.66-1.69-5.86-4.55-6.94a5.85,5.85,0,0,0-3-.15c-2,.15-.42.72-3,.46-2.3-.22-2.61-.86-4.25-2.43a99.8,99.8,0,0,0-9.92-8.8A51,51,0,0,1,96,176.85l-1.72-2.09-.07-6.6c.83-1.55,4.18-2.9,5.62-3.42.75-.26.43-1.47-.33-1.2Z"/><path class="cls-5" d="M108.34,187.67a37.92,37.92,0,0,0,7.23,3.56c2.93,1.06,5.91,1.75,8.32,3.83.61.53,1.5-.35.89-.88a17.81,17.81,0,0,0-6.13-3.24,45.17,45.17,0,0,1-9.67-4.35c-.69-.43-1.32.65-.64,1.08Z"/><path class="cls-5" d="M134.47,184.82c-4,3.94-1.88,7.49-3.13,12.33-1.52,5.9-4.64,9.81-4,16.29.07.8,1.32.81,1.25,0a20.61,20.61,0,0,1,.65-7.81c.77-2.67,2.54-4.79,3.42-7.36,1.54-4.55-1.37-8.52,2.71-12.57a.63.63,0,0,0-.89-.88Z"/><path class="cls-5" d="M127.83,191.38a51.56,51.56,0,0,0-1.65,16.36c0,.8,1.28.8,1.25,0a50.55,50.55,0,0,1,1.61-16,.63.63,0,0,0-1.21-.34Z"/><path class="cls-5" d="M133,180.27c.8,5,4.09,9.81,6.28,14.28a.64.64,0,0,0,1.15-.15c.52-2.1-.24-3.71-1.1-5.63a66.9,66.9,0,0,1-3.38-9.32.62.62,0,0,0-1.2.33,65.1,65.1,0,0,0,2.18,6.54c.94,2.37,2.94,5.17,2.29,7.75l1.14-.15c-2.13-4.35-5.38-9.16-6.16-14-.13-.79-1.33-.45-1.2.33Z"/><path class="cls-5" d="M144,177.05c3.11.07,6.79.23,9.35,2.29,1.87,1.5,3.6,4.3,5,6.15A124,124,0,0,1,166,197c2.89,4.91,5.08,9.84,5.71,15.56.47,4.19.54,8.13,2.06,12.11.28.75,1.49.43,1.21-.33-2.2-5.76-1.39-12-3.16-17.86-1.57-5.22-4.53-10-7.48-14.51a91.42,91.42,0,0,0-9.36-12.6c-2.9-3.1-6.91-3.43-11-3.53a.63.63,0,0,0,0,1.25Z"/><path class="cls-5" d="M92.92,167.37c-4.14,2.79-7.18,10.44-5.58,15.29,1.23,3.7,5.14,6.81,7.5,9.75a163.41,163.41,0,0,1,10.26,14.4.63.63,0,0,0,1.08,0l7.41-13.21a.63.63,0,0,0-1.08-.63c-1,1.73-5.47,12-7.29,11.71-.39-.06-2.72-4.07-3-4.45-1.36-2-2.77-3.88-4.21-5.77-2.21-2.88-4.6-5.59-6.91-8.39-3.94-4.77-3.12-13.87,2.43-17.63.66-.44,0-1.53-.63-1.07Z"/><path class="cls-5" d="M127.33,214c-.24,8.91,3.67,16.73,1.19,25.69-2.13,7.68-1.32,15-2.35,22.79-.34,2.62-.67,5,.09,7.57,1,3.37,3.37,6.42,3.46,10.05s-2.11,6.65-2.65,10.12.87,6.09,2.07,9.26c.29.74,1.5.42,1.21-.34-1.92-5-2.45-7.84-.71-13.06.82-2.46,1.58-4.78,1.18-7.4s-1.68-4.71-2.6-7c-1.74-4.33-.7-8-.25-12.44.39-3.69-.28-7.38,0-11.07.3-4.51,2.38-8.56,2.9-13,.83-7.15-2.44-14-2.25-21.15a.63.63,0,0,0-1.25,0Z"/><path class="cls-5" d="M88,185.38A83.65,83.65,0,0,1,62.61,204a.63.63,0,0,0-.12,1,84.38,84.38,0,0,1,19.36,39c.14.71,1.21.52,1.22-.16l0-1.55a.63.63,0,0,0-1.25,0l0,1.55,1.23-.17a84.86,84.86,0,0,0-15.39-34.4,25,25,0,0,1-2.14-2.71c-1.06-2-1.43-1.37.74-3,2.63-2,5.9-3.29,8.63-5.17a84.49,84.49,0,0,0,14-12.21c.55-.59-.33-1.47-.88-.88Z"/><path class="cls-5" d="M64,204.41c-6.3-3.22-12.49,5.74-16.12,9.74l1,.61c2.95-9.23,10.16-15.51,18.36-20.16a92.07,92.07,0,0,0,9.83-5.87c2.75-2,6.44-8.15,10.15-8.06a.63.63,0,0,0,0-1.25c-3.66-.09-5.22,3-7.51,5.37-4,4.22-9.48,6.58-14.43,9.5-8,4.68-14.74,11.17-17.6,20.13a.63.63,0,0,0,1,.61c2.94-3.24,9.43-12.18,14.61-9.54.71.37,1.35-.71.63-1.08Z"/><path class="cls-5" d="M46.88,214.25A53.47,53.47,0,0,1,46.71,231a86.06,86.06,0,0,0-1.59,9.55c-.49,8.22,1.84,16.28,1.11,24.53-.65,7.4-2.25,14.62-2.36,22,0,1.61-.57,3.09-.11,4.68A8.68,8.68,0,0,0,45,293.94c1.76,2.77,2.88,5,3,8.44a.63.63,0,0,0,1.07.44c5-5.75,15.58.44,22.16-2.29,4.11-1.7,2.54-9,2.68-12.54a.63.63,0,0,0-.79-.6c-9.43,3.41-19.06-2.56-28.67-.25-.78.19-.45,1.4.33,1.21,6.09-1.47,11.95.37,18,1.14a27.29,27.29,0,0,0,6.19.21c3.36-.35,3.67-1.08,3.52,2.88-.18,4.88-.48,7-6.16,7.36a57,57,0,0,1-9-.66c-3.56-.34-6.65-.17-9.1,2.66l1.07.44a15.41,15.41,0,0,0-2.49-8.12c-1.8-2.8-.87-.85-1.27-5.55,0-.14.09-.31.07-.48a32.73,32.73,0,0,1,0-9.63c.26-1.88.53-3.75.79-5.62a101.41,101.41,0,0,0,1.21-10.85c.28-8.81-2.26-17.29-.7-26.11,1.33-7.52,2.2-14.45,1.12-22.11-.11-.79-1.32-.45-1.21.34Z"/><path class="cls-5" d="M74.1,286.91c1.45-8.12-2.45-16.47,1.39-24.05,1.43-2.83,3.89-4.66,4.78-7.88,1.21-4.37-.78-9.18,1.93-13.14.46-.66-.63-1.29-1.08-.63-2,2.95-1.58,5.92-1.63,9.36A12.63,12.63,0,0,1,77,258.64c-1.06,1.41-2.32,2.36-3,4a27.1,27.1,0,0,0-2.06,8.61c0,1.79.9,3.4,1.18,5.15a30.65,30.65,0,0,1-.18,10.16c-.14.79,1.07,1.13,1.21.34Z"/><path class="cls-5" d="M70.52,299.51c-3.08,5.27-.65,11.24-.94,17-.17,3.51-.87,7-1,10.48-.19,3.94,1.19,7.22,1.59,11.11.08.79,1.33.8,1.25,0-.3-2.89-1.4-5.65-1.62-8.54-.25-3.19.45-6.42.79-9.58a45.39,45.39,0,0,0,.25-8.56c-.33-4-1.41-7.49.78-11.26a.62.62,0,0,0-1.07-.63Z"/><path class="cls-5" d="M70.36,339.31c7.7,9.12,18.17,12.93,29.8,13.63.8.05.8-1.2,0-1.25-11.32-.68-21.42-4.38-28.92-13.26-.52-.62-1.4.27-.88.88Z"/><path class="cls-5" d="M48.4,302.45c.11,15.94,5.92,31.11,8.27,46.76,1.27,8.4,2.23,16.86,3.32,25.29.72,5.56,1.52,11,5.27,15.34.53.62,1.41-.27.89-.88-5.14-6-5-15-5.93-22.46-.84-6.5-1.6-13-2.63-19.5-2.37-14.91-7.84-29.34-7.94-44.55a.63.63,0,0,0-1.25,0Z"/><path class="cls-5" d="M63.15,384.28,66.81,391a9.62,9.62,0,0,0,3.31,4,.63.63,0,0,0,.63-1.08c-1.82-1.1-2.65-3.17-3.63-5l-2.89-5.31c-.39-.7-1.47-.07-1.08.64Z"/><path class="cls-5" d="M66.39,384.34c2.19,6.5,4.71,11.84,10.39,16,1.3.94,3.64,3,5.28,1.49a1.7,1.7,0,0,0-.1-2.67c-.6-.52-1.49.36-.88.88a2.47,2.47,0,0,1-3.19-.44c-.92-.64-1.82-1.32-2.68-2a19,19,0,0,1-3.65-4.2,42.3,42.3,0,0,1-4-9.31c-.25-.76-1.46-.43-1.2.33Z"/><path class="cls-5" d="M69.42,385.23c2.55,5.2,6.78,14.93,13.77,14.67a.64.64,0,0,0,.6-.79c-.88-4.58-4.09-8.22-5.11-12.85-1.13-5.1-1.06-10.33-1-15.51a.63.63,0,0,0-1.25,0c-.12,6.62-.24,13.54,2.2,19.82A46.7,46.7,0,0,0,80.91,395l1.37,2.81a4.79,4.79,0,0,1-4.64-1.9c-3.08-2.8-5.35-7.69-7.14-11.35-.36-.72-1.44-.09-1.08.63Z"/><path class="cls-5" d="M76.72,375.21c2.56,3.17,2.87,12.4,7.39,14,4,1.43,2.68-4,2.37-6.16-1.07-7.36-2.51-14.75-6.23-21.28-2.33-4.09-4.93-7.65-6.38-12.21a80.82,80.82,0,0,1-2.58-13.18c-.11-.79-1.31-.45-1.2.33.78,5.57,1.57,11.24,3.77,16.46,2.6,6.18,6.89,11.11,8.86,17.65a72,72,0,0,1,1.89,8.32,22.79,22.79,0,0,1,.66,4.24c-.06,1.82-.62,6-2.75,2.28s-2.17-8-4.92-11.36c-.5-.62-1.38.27-.88.89Z"/><path class="cls-5" d="M64.57,388.14a272.62,272.62,0,0,0,2.12,33.79c.65,5.07,1.65,10.09,2.24,15.16.67,5.88,0,11.64-.81,17.48-3,20.54-8.12,41.14-3.87,61.9.17.79,1.37.46,1.21-.33-4.48-21.86,1.65-43.41,4.39-65.05,1.24-9.75-.53-18.65-1.79-28.28a273.35,273.35,0,0,1-2.24-34.67.63.63,0,0,0-1.25,0Z"/><path class="cls-5" d="M114.53,408c.11,4.7.9,9.37.93,14.07.07,8.88-1.14,17.41,0,26.3,1.15,9,2.83,19.15,1.53,28.23-.55,3.86-1.84,7.41-1.76,11.36.12,5.45,1.75,10.6-.51,15.88a.62.62,0,0,0,.22.85c1.2.54,1.08.56,2.29,0,.72-.36.08-1.44-.63-1.08,0,0,.51-3.6.54-3.85a26,26,0,0,0-.06-5.07c-.4-5.11-.69-9.46.5-14.52,2.08-8.86.73-18.91-.36-27.87A106.25,106.25,0,0,1,116,437.06c.1-4.47.61-8.92.71-13.39.12-5.22-.79-10.43-.91-15.66a.63.63,0,0,0-1.25,0Z"/><path class="cls-5" d="M149.71,503.78c.34-15.81,6-30.71,5.49-46.67-.25-8.13-1.15-16.28-.68-24.42.4-7.1,2.69-13.2,4.34-20,.19-.78-1-1.11-1.2-.33-1.52,6.21-3.72,12-4.27,18.44-.68,8.13.16,16.28.49,24.4a106.62,106.62,0,0,1-2,25.39c-1.53,7.69-3.22,15.29-3.39,23.16a.63.63,0,0,0,1.25,0Z"/><path class="cls-5" d="M249.17,318.32c-2.32-15.81-.76-32.75,0-48.63.31-7.1.62-14.23,1.36-21.3a97.17,97.17,0,0,1,1.69-10.45c1-4.79,4.22-9.23,3.2-14.27-.16-.79-1.37-.46-1.21.33.81,4-1.41,7.21-2.51,10.81a72.87,72.87,0,0,0-1.7,8.54c-.36,2.1-.65,4.18-.84,6.3-.69,7.41-1,14.87-1.34,22.31-.64,15.29-2,31.49.19,46.69.12.8,1.32.46,1.21-.33Z"/><path class="cls-5" d="M244.55,182.75a63.53,63.53,0,0,1,12.54-4.88c3.09-.82,6.57-.88,9.55-2s5.39-3.73,8.63-4.86c3.53-1.25,7.29-2.06,10.9-3.08a.62.62,0,0,0-.34-1.2c-3.62,1-7.33,1.86-10.9,3.07-3,1-5,3-7.73,4.43-3.8,1.94-9,1.93-13.06,3.22a67.57,67.57,0,0,0-10.22,4.25c-.72.36-.08,1.44.63,1.08Z"/><path class="cls-5" d="M323.44,168c-2.47-1.78-2.53-7.05-2.15-9.53.33-2.24,1-4.23,1-6.51,0-.81-1.28-.81-1.25,0,.15,5.11-3.58,13.25,1.79,17.12.65.47,1.28-.62.63-1.08Z"/><path class="cls-5" d="M316.91,154.15c8.51,2.1,11.68-9.81,9.53-16-.83-2.4-2.62-3.69-5.08-2.49-3.23,1.56-4.44,5.4-4.26,8.73,0,.8,1.29.8,1.25,0-.11-2,.18-4.45,1.68-6,.51-1,1.4-1.26,2.67-.8,1.4-.76,2.2-.57,2.39.55.71,1,.67,3.11.67,4.29,0,4.76-2.35,12-8.51,10.5-.78-.2-1.12,1-.34,1.2Z"/><path class="cls-5" d="M319,149.46c1.36-.66,1.5-2,1.67-3.37a17.21,17.21,0,0,1,1-3.93,8.26,8.26,0,0,1,.89-2.19l.26-.55c1.29.32,1.78,1,1.49,2-.07.8,1.18.8,1.25,0,.11-1.23.13-2.67-1.06-3.42a1.82,1.82,0,0,0-2.3.21c-.94.89-1.45,2.82-1.86,4s-.6,5.57-1.93,6.21c-.72.35-.09,1.43.64,1.08Z"/><path class="cls-5" d="M321.07,142.44a3.39,3.39,0,0,0,.92,1.44c.63.68,1.15,1.39,0,1.89-.88.39-2.82.46-2.16,1.93.32.74,1.4.1,1.08-.63.24.55,1.63-.14,2-.35a2.17,2.17,0,0,0,1.07-1.34c.33-1.54-1.33-2-1.7-3.27a.62.62,0,0,0-1.2.33Z"/><path class="cls-5" d="M323.31,148.63a4.22,4.22,0,0,0,2.27-4.24c-.1-.79-1.35-.8-1.25,0a3,3,0,0,1-1.65,3.16c-.71.36-.08,1.44.63,1.08Z"/><path class="cls-5" d="M325,135.32c1.5-11.69-5.16-23.49-16.8-26.78a24,24,0,0,0-16.9,1.42c-4.75,2.34-10.71,6.92-12,12.33a48.4,48.4,0,0,0-1.13,16.86,34.42,34.42,0,0,1,.7,5.79c-.1,2-.75,3.75-.37,5.86.59,3.32,2.64,6,4.2,8.9s2.2,6.14,3.59,9.14a8.74,8.74,0,0,0,4.33,4.77c3.67,1.68,10.08-.27,11.66,4.9.23.77,1.44.44,1.2-.33-.89-2.92-3.15-4.06-6-4.62-4.71-.91-8.25-1-10.27-5.89-.85-2-1.34-4.24-2.22-6.28-1.15-2.67-3-5-4.17-7.61-1.42-3.18-.52-5.3-.6-8.37-.07-2.54-.65-5.12-.92-7.64-.55-5.09-.34-13.75,2.43-18.19,3.78-6,11.74-10.34,18.73-10.68,14.64-.71,25.11,12.38,23.3,26.42-.11.79,1.14.78,1.25,0Z"/><path class="cls-5" d="M289.16,172.9c.16,4.15,3,6.52,6.68,8s5.29,2.05,6.79,5.61,3.68,6.26,4.63,10.13a.62.62,0,0,0,1.2-.33,25.53,25.53,0,0,0-2.19-6.06c-.68-1.27-1.66-2.44-2.28-3.74-.46-1-.44-3-1-3.82a5,5,0,0,0-2.23-1.39c-4.16-1.88-10.08-2.29-10.31-8.41,0-.81-1.28-.81-1.25,0Z"/><path class="cls-5" d="M347.22,340a72.54,72.54,0,0,1-18.32,15.24,67.64,67.64,0,0,1-11,5.06q-2.56.9-5.19,1.61c-1.18.31-4.95,1.8-6.15,1.35-2.64-1-3-10-3.46-12.57-1.07-5.65-2-11.31-2.77-17a138.34,138.34,0,0,1-1-27.81c.71-9.27,2.75-18.39,3.17-27.69.4-9.13-.62-18.24,0-27.37a190.39,190.39,0,0,1,3.95-26.76c1.6-7.51,1.12-15.26,1.8-22.92.23-2.62.18-5.62,1-8.12s2.49-3.71,4.38-5.35,2-2.73,2.83-5.05c2.06-5.94,11.26-10,6.06-17.25-.47-.64-1.55,0-1.08.63,4.27,5.91-1.9,9.09-4.83,13-1.87,2.47-1.52,5.51-3.86,7.8-2.07,2-3.85,3-4.7,5.91-.95,3.24-.92,7-1.19,10.29-.34,4.3-.52,8.61-.64,12.92-.13,4.46-1.14,8.54-2,12.91a177,177,0,0,0-3.07,23.71c-.48,9.2.61,18.39,0,27.59-.63,9.6-2.77,19-3.25,28.65-.94,18.73,2.89,37.29,6.64,55.54a.65.65,0,0,0,.77.43,71.74,71.74,0,0,0,42.8-23.83c.53-.6-.35-1.49-.89-.89Z"/><path class="cls-5" d="M296.57,333.41c-1.15,5.35-2.45,10.67-4,15.93q-1.2,4.17-2.56,8.3c-.23.72-.65,3.23-1.24,3.66-2.07,1.52-4.68.16-6.37-1q-12-8.15-23.79-16.6c-.65-.47-1.28.61-.63,1.08q7.73,5.55,15.53,11,3.75,2.58,7.51,5.13c1.51,1,4,3.49,6.09,3.29,3.48-.33,3.89-5.5,4.7-8,2.35-7.37,4.3-14.84,5.92-22.39.17-.79-1-1.12-1.2-.34Z"/><path class="cls-5" d="M320.89,164.05a77.76,77.76,0,0,0,11,8.42c4.31,2.54,9,3.66,13.72,5,5.35,1.53,13,3.69,16.21,8.56s5.47,11.2,8.09,16.57c.35.72,1.43.09,1.08-.63-2.72-5.58-5-12.07-8.42-17.21-2.06-3.06-6-4.49-9.26-5.9-4.79-2.06-9.86-3-14.75-4.69-6.48-2.27-11.69-6.63-16.83-11-.61-.52-1.5.36-.88.88Z"/><path class="cls-5" d="M352.79,222.63A67.46,67.46,0,0,0,358,206.44c1.2-5.87,1.71-12.68,5-17.82.44-.67-.64-1.3-1.08-.63-2.79,4.33-3.48,9.68-4.46,14.64-1.33,6.69-2.72,13.19-5.73,19.37-.35.72.73,1.35,1.08.63Z"/><path class="cls-5" d="M298.66,501.66c.39-10.93.8-21.86,1.16-32.78a62.36,62.36,0,0,0-.53-13.17c-1-5.67-2.47-11-2.84-16.83-1.37-21.13-2.13-43.12,4.94-63.39l-1.14.15c6.87,10,9.48,21.71,11.24,33.54s3.63,23.58,6.47,35.33c4.55,18.85.73,38.4,4.46,57.31.16.79,1.36.46,1.21-.33-3.85-19.52-.06-39.57-4.9-59-3-11.94-4.48-23.9-6.41-36-1.77-11.13-4.54-22-11-31.42a.63.63,0,0,0-1.14.15c-6.94,19.89-6.24,41.19-5.09,61.93.56,10.18,3.8,19.82,3.53,30.06-.31,11.5-.81,23-1.22,34.51a.63.63,0,0,0,1.25,0Z"/><path class="cls-5" d="M352.78,502.75c-.27-53.82-3.19-107.66-4.49-161.45a.63.63,0,0,0-1.25,0c1.3,53.79,4.22,107.63,4.49,161.45a.63.63,0,0,0,1.25,0Z"/><path class="cls-5" d="M342.52,311.53c1.19,4.48,3.27,8.38,4.87,12.67,1.81,4.85.7,11.26-.31,16.37-.15.79,1.05,1.12,1.21.33.79-4,2.35-9.26,1.72-13.28-.31-2-1.44-3.79-2.28-5.58a62.15,62.15,0,0,1-4-10.84.63.63,0,0,0-1.21.33Z"/><path class="cls-5" d="M424.57,159.46c-4.69,5.53-5.49,12.25-6,19.25-.62,8.62-2.75,16.88-3.93,25.41s.62,16.85.5,25.39-.85,16.89,1.91,25.11c.25.76,1.46.44,1.2-.33-2.61-7.8-2.05-15.79-1.88-23.87.16-7.58-1.5-15.11-.89-22.66.6-7.35,2.72-14.46,3.69-21.76,1.18-8.83.12-18.39,6.29-25.65.52-.61-.36-1.5-.89-.89Z"/><path class="cls-5" d="M378.92,202.15c.32,12.27,1.59,25.45,9.9,35.18,3.92,4.59,8.57,6.37,13.77,9.13s8.87,8.09,15.32,8.36c.81,0,.8-1.21,0-1.25-6.28-.26-10.08-5.93-15.41-8.53-4.85-2.37-9.19-4.36-12.8-8.6-8.07-9.46-9.21-22.38-9.53-34.29a.63.63,0,0,0-1.25,0Z"/><path class="cls-5" d="M379.17,207.71c-5.19,9.38-16.79,9.52-25.49,13.71-8.5,4.1-11.42,12.44-13.31,21.16a112,112,0,0,0-2,14.59c-.28,3.29-1.92,9.65,0,12.55,1.54,2.37,5.48,2.92,7.9,3.75,6,2,10.42,6.94,15.09,11.08.6.53,1.48-.35.88-.89-3-2.64-5.88-5.45-9-7.91-3.4-2.68-7.14-3-10.83-4.91-5.19-2.74-3.06-10.49-2.6-15.49a93.17,93.17,0,0,1,2.92-16.84c1.54-5.43,3.68-10.92,8.5-14.24,3.59-2.47,7.89-3.66,12-4.92,6.71-2,13.49-4.55,17.06-11,.39-.71-.69-1.34-1.08-.63Z"/><path class="cls-5" d="M362.92,219.38c5.44-4.49,7.59-14.37,9.56-20.78,2.71-8.83,4-17.83,5.79-26.85,1.64-8.2,8.46-20.68,18-21.08,4.74-.2,10,1.33,14.58,2.53s10.64,2.59,12.38,7.85c.25.76,1.45.43,1.2-.34-2.44-7.38-12.59-8.76-19.13-10.08-3.85-.77-8.33-1.88-12.23-.79s-6.59,4.09-8.95,7.13a36.17,36.17,0,0,0-5.95,10.08c-1.87,5.41-2.2,11.41-3.34,17a145.13,145.13,0,0,1-4.68,17.65c-1.82,5.42-3.58,13-8.13,16.78-.62.52.27,1.4.89.89Z"/><path class="cls-5" d="M424,160.22c5.35,1.7,6.83,8.22,8.19,13a31.83,31.83,0,0,1,.35,16.33c-1.63,7.25-3.26,13.73-2.34,21.23,1.49,12.13,3.74,30,17,34.87l.33-1.2c-7.52-1.07-12.27-6.52-17.35-11.63a51.3,51.3,0,0,0-13.62-9.94c-.72-.36-1.35.72-.63,1.08,6.82,3.41,11.79,8.35,17.16,13.63,4,4,8.37,7.25,14.11,8.06a.62.62,0,0,0,.33-1.2c-9.88-3.61-12.24-14.22-14.17-23.38-2-9.73-2.82-18.06-.45-27.78,1.82-7.46,2.45-13.83.23-21.29-1.51-5.07-3.23-11.2-8.81-13-.77-.24-1.1,1-.33,1.21Z"/><path class="cls-5" d="M337.47,270.2c-1.83,7.57-1.09,15.19.17,22.78.78,4.67,1.72,9.35,2.92,13.94.49,1.86.71,3.48,2.43,4.52,5.48,3.33,15.73-.94,21-2.57a234.92,234.92,0,0,0,24.05-9c.73-.33.1-1.4-.63-1.08-6.64,2.89-13.4,5.51-20.28,7.77-6,2-14.7,5.89-21,4.25-4.23-1.11-4.48-4.68-5.36-8.56q-1.07-4.77-1.88-9.6c-1.24-7.4-2-14.75-.18-22.11.19-.79-1-1.12-1.2-.34Z"/><path class="cls-5" d="M379.88,301.78a15.08,15.08,0,0,1,.47-16,.63.63,0,0,0-.54-.94,21.22,21.22,0,0,0-9.52,2.41,33.34,33.34,0,0,1-6.14,2c-1.84.42-2.31.93-3.61-.77-1.46-1.91-1.11-2.86-.47-5.33a.62.62,0,0,0-1.2-.33c-.66,2.52-1.63,7.72,1.61,8.43,2.15.47,6.44-1.34,8.46-2.09,3.75-1.4,6.73-3,10.87-3.06l-.54-.94a16.33,16.33,0,0,0-.47,17.25.63.63,0,0,0,1.08-.63Z"/><path class="cls-5" d="M380.25,286.21c1.45-.43,4-.72,5.24-1.78,2-1.74,2.49-5.41,3.95-7.55,1.92-2.82,3.82-2.92,6.59-3.24,1.16-.13,2.69-1,3.71-.88,1.27-.74,1.86-.05,1.77,2.05l-2.87.56-6.7,1.31c-.79.15-.46,1.36.33,1.2,3.25-.63,7-.89,10.09-2,.86-.31,2.1-.63,2.55-1.55.81-1.63-.32-3.1-2-3.45-2.44-.51-5.39,1.37-7.79,1.62-1.86.19-3.11-.2-4.67.94s-2.33,3.26-3.16,4.91c-.58,1.15-1.36,3.56-2.23,4.49-1.17,1.26-3.59,1.7-5.15,2.16a.63.63,0,0,0,.33,1.21Z"/><path class="cls-5" d="M403.77,275.65c.84,1.6.66,2.68-.52,3.24-.41.28-.82.55-1.24.81a12.3,12.3,0,0,1-3.17,1.45c-1.69.47-3.35.51-4.9,1.41a.62.62,0,0,0,.63,1.07c1.86-1.06,4.09-.95,6.06-1.78a17.32,17.32,0,0,0,4.8-3c1.79-1.7,1-4.55-1.66-4.42-.8,0-.8,1.29,0,1.25Z"/><path class="cls-5" d="M402.89,280.65c.57.37,1.85,1.1,1.88,1.89a2.63,2.63,0,0,1-1,1.73,6.19,6.19,0,0,1-1.17.61l-4.5,2.33c-.71.38-.08,1.45.63,1.08l4.24-2.2a6.32,6.32,0,0,0,2.74-1.9c1.17-1.95-.74-3.66-2.23-4.62-.67-.44-1.3.64-.63,1.08Z"/><path class="cls-5" d="M403.56,285.83l.66,1.29-.94,1.09a8.12,8.12,0,0,1-1.13.69,13.38,13.38,0,0,0-1.74,1.24,12.32,12.32,0,0,0-2.89,3.72c-.37.72.71,1.35,1.08.64a11,11,0,0,1,3.48-4.07,11.93,11.93,0,0,0,2.83-2c1-1.27.74-3.4-1-3.77-.79-.16-1.12,1-.33,1.21Z"/><path class="cls-5" d="M403.33,289.7c4.33,1.08-3.25,6.94-3.78,7.25-2.85,1.68-5.26.85-8.31.54-2.27-.23-4-.2-6,1-.68.42,0,1.51.63,1.08,3.64-2.26,7.23.29,11-.31a11.9,11.9,0,0,0,6.05-3.44c2-1.82,5.07-6.24.68-7.33a.62.62,0,0,0-.33,1.2Z"/><path class="cls-5" d="M444.15,246.76a165.38,165.38,0,0,1,5.69,15.91c.75,2.52,1.17,5.25,2.09,7.72.15.41,1,2.43,1.15,1.64-.24,1.19-3.86,3.49-4.73,4.27l-4.8,4.33c-.59.54.29,1.42.89.88l9.59-8.66a.62.62,0,0,0,.1-.75c-1.74-3.59-2.42-7.66-3.6-11.47-1.5-4.82-3.25-9.54-5.18-14.2-.3-.73-1.51-.41-1.2.33Z"/><path class="cls-5" d="M359.43,310.77a47.67,47.67,0,0,1,3.37,18.32.63.63,0,0,0,1.25,0,48.39,48.39,0,0,0-3.42-18.65c-.29-.74-1.5-.42-1.2.33Z"/><path class="cls-5" d="M434.16,329.93c-2.49-5.79,0-12.25,1.15-18.2,1.12-5.78,3-11,4.93-16.53,2.09-6.13,4.3-12.73,3.85-19.3-.42-6.14-3-11.86-5.54-17.38-.33-.73-1.41-.1-1.08.63,3.79,8.38,6.57,16.17,4.56,25.44-1.42,6.54-4.21,12.57-6.14,18.94-1.54,5.05-2.16,10.35-3.26,15.5-.94,4.4-1.37,7.31.46,11.54.31.73,1.39.1,1.07-.64Z"/><path class="cls-5" d="M363.11,329.63c10.54,5.6,22.7,6.22,34.41,5.64,12-.59,24.62-1.35,36.27-4.42a.62.62,0,0,0-.33-1.2c-11,2.89-22.77,3.58-34.09,4.27-12.05.73-24.74.41-35.63-5.37-.71-.38-1.34.7-.63,1.08Z"/><path class="cls-5" d="M357.53,500.63c1.57-32-2.57-63.78-2.15-95.75.2-15.37-1.74-30.64,0-46A122.53,122.53,0,0,1,364.05,325c.31-.74-.9-1.06-1.21-.33a119.22,119.22,0,0,0-8.25,30.73c-2.1,15.95-.27,31.59-.44,47.59-.33,32.57,3.73,65,2.13,97.61,0,.8,1.21.8,1.25,0Z"/><path class="cls-5" d="M433.18,330.69c6.06,7.77,7.34,17.74,8.09,27.28.7,8.95.63,17.95.52,26.92-.26,20.66-2.51,41.18-4.72,61.71-2.18,20.32-4.15,40.71-4.27,61.16q0,3.47,0,6.93c0,1.43,1,6.85.24,7.92-1.88,2.58-11.56-.21-14.58-.6L387.9,518.1c-.79-.1-.79,1.15,0,1.25l45.88,5.87a.63.63,0,0,0,.63-.63c-1.69-35.71,3.67-71,6.84-106.46A429.46,429.46,0,0,0,443,366.9c-.37-12.53-.88-26.79-8.91-37.09-.5-.64-1.38.25-.89.88Z"/><path class="cls-5" d="M420.7,332.51c1.07,30.37,2.86,60.82,1.62,91.21a526.34,526.34,0,0,1-11.91,91.43c-.17.78,1,1.12,1.21.33a530,530,0,0,0,11.87-89.83c1.39-31-.44-62.13-1.54-93.14,0-.8-1.28-.81-1.25,0Z"/><path class="cls-5" d="M373.31,216.63c.56,2.62,1.17,5.36,2.72,7.61s3.68,3.33,5.92,4.47c.72.36,1.35-.72.63-1.08-2.28-1.16-4.48-2.37-5.85-4.62a21.44,21.44,0,0,1-2.22-6.72c-.17-.78-1.37-.45-1.2.34Z"/><path class="cls-5" d="M415.27,234.64c4,.34,6.89-3.49,9.41-6a.62.62,0,0,0-.88-.88c-2.27,2.27-4.95,6-8.53,5.65-.8-.07-.79,1.18,0,1.25Z"/><path class="cls-5" d="M424.76,162.64c2.13,3.36,5.24,7.68,4.83,11.88-.23,2.33-2,4.56-2,6.86s1.66,3.32,2.55,5.09c1.07,2.14,1.35.15.29,3.12-1,2.78-1.1,1.11-2.36,2.57-2.26,2.62-2.43,6-2.16,9.47.1,1.18.6,2.64.39,3.82-.78,4.53-3.11,3.6-6.21,4.09a13.63,13.63,0,0,0-5.59,1.94c-.68.43-.05,1.51.63,1.08,3.75-2.38,11.33-.28,12.38-5.58.58-2.92-.66-6.11-.37-9.11.35-3.85,3.14-4.17,5.1-6.49a3.45,3.45,0,0,0,.69-3.39c-.15-.63-2.56-3.27-2.58-3.32-1.29-2.43-.6-4.35-.06-6.88,1.27-6-1.21-10.71-4.42-15.78-.43-.68-1.51,0-1.08.63Z"/><path class="cls-5" d="M435.69,232.5c3.66-22.33,10.89-44.33,17.37-66,1.78-6,4.7-10.71,10.57-13.2,4.11-1.76,8.59-2.36,12.94-3.28,4-.84,8-1.91,11.49-4.14,5.61-3.58,9.26-7.57,16.49-6.84.8.08.8-1.17,0-1.25-5.09-.52-9,1-13.12,3.95a37,37,0,0,1-15.2,7.08c-8.54,1.81-17.76,3-22.19,11.59-2.42,4.69-3.35,10.13-4.78,15.17-1.77,6.27-3.66,12.51-5.49,18.76-3.65,12.46-7.18,25-9.29,37.81-.13.78,1.08,1.12,1.21.33Z"/><path class="cls-5" d="M536.2,140.43c6.09,2.94,12.28,5.68,18.57,8.16q4.69,1.84,9.44,3.49c4.09,1.42,9.91,1.76,9.64,7.5-.24,5-2.3,10.47-3.19,15.46a75.49,75.49,0,0,0-1.54,14.83.63.63,0,0,0,1.25,0c-.13-6.84,1.25-13.65,2.62-20.32.54-2.65,1.13-5.29,1.7-7.94.36-1.67,1.27-4.14.56-5.89a3.84,3.84,0,0,0-2.38-2.09c-3.41-1.58-7.35-2.39-10.91-3.67a259,259,0,0,1-25.13-10.61c-.72-.35-1.35.73-.63,1.08Z"/><path class="cls-5" d="M573.49,155.16c1.66,11.62,14.35,19,14.76,30.87,0,.8,1.28.8,1.25,0-.41-12.11-13.13-19.46-14.81-31.2-.11-.8-1.32-.46-1.2.33Z"/><path class="cls-5" d="M490.68,143.4c1.4,4.37,7.41,5.63,11.15,7.22,4.87,2.07,11.05,5.81,16.45,6,4.36.13,10.46-3.11,13.78-5.74,3.51-2.78,5.35-6.62,4.61-11.07-.14-.79-1.34-.46-1.21.33,1.66,9.89-13.13,16.81-21,14.24-3.54-1.15-7-2.71-10.44-4.14-3.23-1.35-10.94-3.37-12.15-7.14-.25-.76-1.46-.43-1.21.33Z"/><path class="cls-5" d="M448.32,256c7.75-2.09,11-10.81,13.87-17.46.31-.74-.77-1.37-1.08-.64-2.69,6.31-5.77,14.92-13.12,16.89a.63.63,0,0,0,.33,1.21Z"/><path class="cls-5" d="M463,230.6a63.86,63.86,0,0,0,3.11-11.54c.76-4.27.26-8.37.67-12.6.42-4.39,3.9-7.39,4.7-11.63.87-4.6-3.58-8.22-2.14-12.82.24-.77-1-1.1-1.21-.33-1.22,3.91,1.24,6.19,2,9.86,1.15,5.34-3.76,8.81-4.61,13.7-.72,4.15.19,8.5-.52,12.77a63.27,63.27,0,0,1-3.23,12.26c-.28.75.92,1.08,1.21.33Z"/><path class="cls-5" d="M463.11,229.9A5.52,5.52,0,0,0,462,238c.52.62,1.4-.27.88-.88a4.25,4.25,0,0,1,.91-6.15c.67-.44,0-1.53-.63-1.08Z"/><path class="cls-5" d="M464.46,233.74A8.44,8.44,0,0,0,462.35,245c.43.68,1.51.05,1.08-.63a7.17,7.17,0,0,1,1.66-9.55c.64-.48,0-1.56-.63-1.08Z"/><path class="cls-5" d="M464.07,240.93c-.94,1.57-2,3.41-1.47,5.3a3.3,3.3,0,0,0,2.87,2.58c.8.1.79-1.15,0-1.25-1.34-.16-1.84-1.61-1.71-2.76a8.47,8.47,0,0,1,1.38-3.24.62.62,0,0,0-1.07-.63Z"/><path class="cls-5" d="M464.82,218.94c-.06,4.49-.2,9,0,13.47.18,5,1.69,10.12.17,15a59.93,59.93,0,0,1-5.86,12.86,41.16,41.16,0,0,0-5,12.62c-.15.78,1.05,1.12,1.21.33,1.1-5.52,3.64-10.45,6.65-15.17a40,40,0,0,0,4.67-11.75c1.06-4.05-.27-8.16-.5-12.26-.28-5-.1-10.07,0-15.1a.63.63,0,0,0-1.25,0Z"/><path class="cls-5" d="M453.92,273.13c-.66,5.12-1.37,10.26-1.74,15.41-.13,1.9-.52,4.4.11,6.28.71,2.13,2.08,2.23,4,2.83.77.24,1.1-1,.34-1.2-2.26-.7-3.13-.79-3.36-3.44-.58-6.46,1-13.53,1.86-19.88.11-.8-1.14-.79-1.25,0Z"/><path class="cls-5" d="M560.43,304l.16-33.59c.06-10.64,1.34-22.14-.29-32.67-.75-4.84-3.4-8.93-3.06-13.94.37-5.36,2.19-10.83,3.91-15.89s3.69-10.62,6.87-15.06c4.27-6,10.31-6.77,17.17-6.32.81.06.8-1.19,0-1.25-10.05-.66-16.34,2.26-20.87,11.48A95.67,95.67,0,0,0,558.55,212c-1.39,4.75-3.31,10.32-2.56,15.35.37,2.5,1.58,4.75,2.31,7.15a36.34,36.34,0,0,1,1.17,10.23c.06,6.32-.06,12.66-.09,19l-.2,40.29a.63.63,0,0,0,1.25,0Z"/><path class="cls-5" d="M498.64,143.71c1.87-.91,4.81-1.65,5.65-3.79s.3-5,.27-7.16a.63.63,0,0,0-1.25,0,34.27,34.27,0,0,1,0,5.64c-.41,2.53-3.28,3.24-5.31,4.23-.73.36-.09,1.44.63,1.08Z"/><path class="cls-5" d="M512.31,79.87c-3.81-1.17-5.9,1.17-8,4.13-2.57,3.65-5.56,7.43-6.18,12-.78,5.79-.61,12.27-.44,18.11.15,5.21,2.43,10.3,4.44,15.05,1.24,2.94,3.07,7.19,6.18,8.66,3.76,1.78,9.33-.82,12.77-2.21,3.85-1.56,7.67-3,10-6.62,3.06-4.59,4.44-10.67,6.34-15.79.28-.75-.93-1.08-1.21-.33-2.83,7.66-4.52,16.66-12.6,20.3-4,1.82-11.92,5.79-16.22,2.4-2.87-2.26-4.25-7-5.48-10.27-1.39-3.7-2.9-7.18-3-11.19-.12-3.71.12-7.46.2-11.17.08-4.23,0-8.16,2.09-12,1.89-3.38,6.09-11.28,10.73-9.86.78.24,1.1-1,.34-1.2Z"/><path class="cls-5" d="M535.79,138.25a.85.85,0,0,0-.25,1,.62.62,0,0,0,1.2-.33c-.91-3.61-1.5-6.55-.64-10.3.61-2.63.3-5.67,1.66-8a.63.63,0,0,0-1.08-.64c-1.63,2.81-1.4,6.47-2.09,9.57-.78,3.47.09,6.33.95,9.72l1.2-.33-.07.22c.55-.59-.33-1.47-.88-.88Z"/><path class="cls-5" d="M535.73,118c2.64,6.61,9.29-3.78,10-6.91.62-2.61.24-6-2.5-7.27a3.67,3.67,0,0,0-5.11,2.17c-.28.75.92,1.08,1.21.33q1.71-3.6,5.23.93l.21,2a10.86,10.86,0,0,1-1.57,4.78c-.62,1.09-4.91,7.07-6.3,3.61-.29-.74-1.5-.42-1.2.33Z"/><path class="cls-5" d="M538.32,113a2.2,2.2,0,0,0-.89,2.58c.47,1.31,1.66.33,2.48.2,1.07-.17,2.18.37,3-.61s1.15-3.12,1.36-4.48c.13-.78-1.08-1.12-1.2-.33a19,19,0,0,1-.54,2.46,6.14,6.14,0,0,1-.39,1.19,1.08,1.08,0,0,1-1.09.56,7.86,7.86,0,0,0-1.68,0,4.7,4.7,0,0,1-.57.25.86.86,0,0,0-.2.13A.93.93,0,0,1,539,114c.71-.36.08-1.44-.64-1.08Z"/><path class="cls-5" d="M539.46,112.09c-.14-1.41-.37-3.58,1.28-4.23.74-.29.42-1.5-.33-1.21-2.28.9-2.41,3.32-2.2,5.44.08.79,1.33.8,1.25,0Z"/><path class="cls-5" d="M545.91,106.68c-1.2-4,1.21-9.42,1.42-13.65.15-3,.37-6.31-.57-9.26-1.77-5.5-7.13-8.73-12.34-10.42-12.92-4.19-28.52-.42-33.67,13.21-.28.76.93,1.08,1.21.34,5.37-14.23,23.44-17.16,35.94-10.79,6.83,3.48,8.49,8.9,8.21,16.12-.18,4.77-2.79,10.12-1.41,14.78a.63.63,0,0,0,1.21-.33Z"/><path class="cls-5" d="M514.51,80.88c3.83,1.27,7.39,1.25,11.35,1.73,3.49.43,6.78,1.48,7.85,5.52.59,2.24,0,4.73,0,7a14,14,0,0,0,1.62,6.62c.91,2.09.83,3.69,3,4.54.75.3,1.07-.91.33-1.2-2.94-1.15-3.71-9.4-3.63-11.42.11-2.88.53-6-1.2-8.54-3.81-5.58-13.42-3.62-19-5.46-.76-.25-1.09,1-.33,1.21Z"/><path class="cls-5" d="M453.27,297.49c-2.57,72-3.53,144.27-3.87,216.35a.63.63,0,0,0,1.25,0c.34-72.08,1.3-144.31,3.87-216.35a.63.63,0,0,0-1.25,0Z"/><path class="cls-5" d="M557.75,302.94c-.19,18.2-2.6,36.26-3.71,54.41-1.07,17.66-1,35.37-.39,53,.29,9.13,5.07,109.55,3.3,109.54a.63.63,0,0,0,0-1.25h-.31a.65.65,0,0,0-.63.62c-.1.76,0,.85.59,1.31a.64.64,0,0,0,.76-.1c1.77-1.58,1-4.71,1.06-6.86q.11-7.36,0-14.75c-.1-9.18-.39-18.36-.76-27.54-.77-18.69-1.92-37.36-2.61-56.05s-.94-37.36.11-56c1.05-18.82,3.62-37.52,3.82-56.38a.63.63,0,0,0-1.25,0Z"/><path class="cls-5" d="M585.63,186.6a31.28,31.28,0,0,0,17.23-4.13l-.86-.85c-2.51,3.66-1.79,8,.75,11.47,4.1,5.65,10.38,9.14,14.5,15a.63.63,0,0,0,1,.12c4.18-4,9.42-6.23,14.09-9.52a40.37,40.37,0,0,0,8.78-9.06c4.85-6.47.76-10.43-6.35-11.34-.8-.1-.79,1.15,0,1.25l2.58.4q3.66.12,3.27,4c1,4.05.59,3.69-2,6.94a35.45,35.45,0,0,1-5.72,5.83,106.86,106.86,0,0,1-13.07,8.46c-2.14,1.2-1.83,1-3.63-.64s-3.19-3.61-5-5.22c-4.67-4.16-13-9.85-8.09-17,.37-.54-.34-1.15-.85-.86a30.15,30.15,0,0,1-16.6,4c-.8,0-.8,1.21,0,1.25Z"/><path class="cls-5" d="M639.69,180.17c5.19,1.86,10.39,3.72,15.52,5.76,5.48,2.18,12,4.27,16.68,8,8.48,6.77,13.35,19.87,15.77,30.06.19.78,1.39.45,1.21-.33-2.49-10.45-7.34-23-15.62-30.29-3.7-3.24-9-5-13.46-6.9-6.49-2.74-13.14-5.12-19.77-7.5-.76-.27-1.09.94-.33,1.21Z"/><path class="cls-5" d="M641.49,181.79a8.2,8.2,0,0,1-2.44-.64l-3.32-6.51,1.25-3.28a47.38,47.38,0,0,1,3.26-7.12c1.86-2.92,4.36-4.94,5.32-8.38a.62.62,0,0,0-1.2-.33c-1,3.5-3.77,5.62-5.57,8.63A33.23,33.23,0,0,0,634.41,175c-.79,4.93,2.39,7,6.74,8,.79.18,1.12-1,.34-1.2Z"/><path class="cls-5" d="M646,155.87c1.39-5.81,3.56-9.59,2.54-15.77a28,28,0,0,0-6.81-14.83c-2.72-3.33-6.09-4.26-10.15-5.41a41.87,41.87,0,0,0-7.79-1.86c-.92-.07-2.65.21-3.52.11-1.12-.14-2.36-.86-3.23-1-5-.89-12.37,5.49-7.67,10.41,4,4.16,13.29,1.46,16.34,6.15,1.83,2.83.41,6.61,1.36,9.65.85,2.77,3.71,5.9,5.27,8.31.43.67,1.52,0,1.08-.64-1.2-1.84-2.57-3.66-3.62-5.59-1.55-2.85-1.15-4.62-1-7.51a7.09,7.09,0,0,0-3.52-6.14c-3.3-2.15-7.43-1.78-11-3-2.73-1-3.91-1.53-4.24-4.45-.28-2.44.39-4,2.86-5.1,2.28-1,3.24.18,5,.34,3.38.32,6.53-.29,10,.6,5,1.29,9.72,2.27,13.18,6.29a24.46,24.46,0,0,1,6,12.36c.67,3.56,1.11,7,0,10.51-.67,2.14-1.7,4.09-2.22,6.28-.19.78,1,1.12,1.2.34Z"/><path class="cls-5" d="M608.17,125.19a17.47,17.47,0,0,0-8.26,6.58c-2.57,3.94-2.6,8.63-4,13-1.2,3.81-5.25,6.57-5.09,10.73a11.72,11.72,0,0,0,1.24,4.28c1.7,3.89,2.49,6.45,1.67,10.73-.52,2.74-1.34,5.65.27,8.2s5,3.3,7.88,2.94c4.78-.6,10-3.08,14.59-4.52,3.5-1.08,6.44-2.63,8.64-5.61.48-.65-.6-1.27-1.08-.63-2.81,3.8-6.87,4.71-11.14,5.91-3.23.91-6.29,2.47-9.54,3.27-2.41.59-5.83.71-7.74-1.32-2.43-2.57-1-5.88-.51-8.64a13.1,13.1,0,0,0-.14-6.78c-1.36-4.22-4.09-7.1-1.45-11.79,1.13-2,2.59-3.49,3.37-5.74,2.79-8,2.41-15.57,11.6-19.39.74-.31.42-1.52-.33-1.21Z"/><path class="cls-5" d="M630.79,156.68a2.12,2.12,0,0,1-.53,2.51c-.35.34-.79.57-1,1.06a1.3,1.3,0,0,0,1.11,1.67c.59.11,1.13-.19,1.7-.09s.76.53,1.31.72c1.2.44,2.25-.57,3.35-.81.79-.16.46-1.37-.33-1.2a6.77,6.77,0,0,0-1.36.51,1.61,1.61,0,0,1-1.92-.25,1.68,1.68,0,0,0-.8-.31c-.42-.05-1.52.36-1.53,0s.61-.71.83-1a3.21,3.21,0,0,0,.47-1,3.47,3.47,0,0,0-.27-2.41c-.34-.73-1.41-.09-1.08.64Z"/><path class="cls-5" d="M633.34,156.51c-.15-1.41-.35-3.19,1-4.09s3-.59,4.45-.33c.79.14,1.13-1.07.34-1.21-1.86-.32-3.92-.62-5.56.54s-1.68,3.24-1.48,5.09c.08.79,1.33.8,1.25,0Z"/><path class="cls-5" d="M636,150.85c2.17.55,4.8,1.18,5.06,4.13.18,2.05-1.4,3.79-2.71,5.11-.81.82-1.63,1.65-2.48,2.42a7.27,7.27,0,0,1-3.06,2.28c-1.69.74-2.88-.11-3.55-2.54.54-.59-.34-1.47-.89-.88-1.44,1.55-1.47,4.08.77,5,2.74,1.14,5.84-1.15,7.62-3,2.27-2.32,5.68-4.77,5.55-8.42-.11-3.37-3.14-4.61-6-5.34a.63.63,0,0,0-.33,1.21Z"/><path class="cls-5" d="M634,155.82a3.56,3.56,0,0,1,1.55,2.61c.07.8,1.32.8,1.25,0a4.91,4.91,0,0,0-2.17-3.69c-.67-.45-1.29.63-.63,1.08Z"/><path class="cls-5" d="M638,161.21c1.15-1.93,2.24-4.07,1.55-6.36a.63.63,0,0,0-1.21.34c.59,1.94-.45,3.76-1.42,5.39a.63.63,0,0,0,1.08.63Z"/><path class="cls-5" d="M561.84,255.57a127,127,0,0,0,11.68-14.88l-1.16-.31q.09,13.76,1.32,27.45c.07.8,1.32.81,1.25,0q-1.23-13.69-1.32-27.45a.63.63,0,0,0-1.17-.32A124.62,124.62,0,0,1,561,254.68c-.54.6.34,1.48.89.89Z"/><path class="cls-5" d="M673.67,229.76a242.49,242.49,0,0,0-9.88,54.42c-1.25,19.72-1.11,39.1-4.49,58.67-.13.79,1.07,1.12,1.21.33,3.17-18.38,3.44-36.63,4.32-55.2a240.68,240.68,0,0,1,10-57.89.62.62,0,0,0-1.2-.33Z"/><path class="cls-5" d="M563.56,333c-3.84-.58,2.56-19.65,3.26-22.17,1.67-6.06,3.88-12.13,5.08-18.3,1.58-8.08,1-16.57,3-24.56a.63.63,0,0,0-1.21-.33c-2.62,10.16-1.8,20.79-4.72,31-2.36,8.23-4.69,16.46-6.78,24.76-.7,2.79-3.9,10.1,1,10.84.78.12,1.12-1.09.33-1.2Z"/><path class="cls-5" d="M563.83,355.84a.63.63,0,0,0,0-1.25.63.63,0,0,0,0,1.25Z"/><path class="cls-5" d="M566.85,526.22c-4.46-32.93,4.16-66-1.64-98.87a116,116,0,0,1-1.94-25.63c.35-8.46,0-16.66,1-25.09.86-7.05-.32-14.16-.42-21.24-.11-7.29,0-14.59.47-21.86.06-.8-1.19-.79-1.25,0-.48,7.27-.58,14.57-.47,21.86.12,8.26,1.05,16.14,0,24.38-1,7.58-.32,15.25-.65,22.89a104.08,104.08,0,0,0,1.71,23.18c3.1,17.39,2.92,34.43,1.84,52-1,16.25-2.07,32.5.13,48.71.1.79,1.31.45,1.2-.33Z"/><path class="cls-5" d="M659.28,343c-2.58,26-6.28,51.87-8.43,77.91-1.53,18.4-1.54,36.95-2.05,55.4l-1.59,57.79a.63.63,0,0,0,1.25,0L650,477.31c.52-18.77.53-37.66,2.08-56.38,2.15-26,5.85-51.92,8.43-77.91.08-.8-1.17-.8-1.25,0Z"/><path class="cls-5" d="M702.29,166.67c.4,5.77,3.7,10.1,7.68,14.08,2.65,2.66,5.58,5.16,7.71,8.3,3.26,4.78,3.11,10,2.34,15.49-.11.79,1.09,1.13,1.2.33.94-6.71.88-12.18-3.4-17.73-5.12-6.65-13.65-11.23-14.28-20.47,0-.8-1.3-.8-1.25,0Z"/><path class="cls-5" d="M724.82,204.58a45.6,45.6,0,0,0-5.23-32c-2.15-3.65-5.41-9-10-9.84a5.45,5.45,0,0,0-6.51,4,.62.62,0,0,0,1.2.33c2.17-8.2,9-1,10.77,1.14a37.89,37.89,0,0,1,3.44,5,43.73,43.73,0,0,1,5.1,31c-.15.79,1,1.12,1.21.33Z"/><path class="cls-5" d="M700.38,171.53c-4.15.27-8.77.83-12,3.79-3.62,3.37-3.93,8.74-6.59,12.71-.45.67.63,1.3,1.07.63,2.13-3.16,2.68-7,4.61-10.22,2.7-4.5,8.08-5.35,12.88-5.66.8-.05.81-1.3,0-1.25Z"/><path class="cls-5" d="M676.67,189.87c4.34-3.81,6.07-9.05,8.09-14.29,3.64-9.43,9.6-15.39,20.48-13.38.79.15,1.13-1.06.34-1.2-6.81-1.26-13.68.1-17.93,5.94-5,6.87-5.25,16.23-11.87,22.05-.6.53.29,1.41.89.88Z"/><path class="cls-5" d="M712.57,163.22C721,159,734,168.13,734.29,177.14c.22,6.93-1,13.63-.32,20.64.08.79,1.33.8,1.25,0a94.5,94.5,0,0,1,.12-17.56c.33-4,0-7.31-2.54-10.56-4.8-6-13.28-11.35-20.86-7.51-.72.36-.09,1.44.63,1.07Z"/><path class="cls-5" d="M725.14,211.11a13.41,13.41,0,0,0,6.33-6.35c.34-.73-.73-1.36-1.08-.63a12.39,12.39,0,0,1-5.88,5.9c-.72.35-.09,1.43.63,1.08Z"/><path class="cls-5" d="M725.09,192.38a12.82,12.82,0,0,1,1.62-1q2.22-1.68,3.75.38c1,.26,1.52.83,1.49,1.71.38,1.76-.76,3.7-1.73,5.09a17.56,17.56,0,0,1-7.4,5.91c-.73.32-.09,1.4.63,1.07,4.23-1.87,9.82-6.28,9.84-11.44a4.7,4.7,0,0,0-2.21-4.18c-2.23-1.24-4.77.14-6.63,1.38-.66.45,0,1.53.64,1.08Z"/><path class="cls-5" d="M726.75,195.17c.2-1.44,1.85-3.4,3.34-1.95,1,1,.27,2.91-.19,4-.3.74.91,1.06,1.21.33.76-1.88,1.4-4.75-1-5.8s-4.32.91-4.62,3.06c-.11.78,1.09,1.12,1.21.33Z"/><path class="cls-5" d="M726.37,194.82c2.11,1,.08,3.28-1,4.13-.62.51.27,1.39.88.88a5.12,5.12,0,0,0,2.19-3.28,2.75,2.75,0,0,0-1.48-2.81c-.73-.33-1.36.74-.63,1.08Z"/><path class="cls-5" d="M735.79,196.39c.6,4.85,2.61,9,4.31,13.57a41.26,41.26,0,0,1,2.54,17.47c0,.81,1.2.8,1.25,0A41.29,41.29,0,0,0,742.46,213c-1.64-5.65-4.69-10.7-5.42-16.62-.09-.79-1.35-.8-1.25,0Z"/><path class="cls-5" d="M724.63,206.67c1.09,10-9.42,24.16,4.75,29.38.76.28,1.08-.93.33-1.2-13.07-4.83-2.81-18.79-3.83-28.18-.08-.79-1.33-.8-1.25,0Z"/><path class="cls-5" d="M685.69,183.12c-1.43,5.81-3.53,12.14-3.39,18.19.11,5.27,2.91,9.55,6,13.67,2.14,2.89,4.49,5.85,8.28,6.38,5.53.77,11.61-3.19,16-6,.68-.42,0-1.51-.63-1.08-4,2.46-8.94,5.84-13.79,5.86-5.51,0-8.91-5.54-11.49-9.68-5.33-8.57-2-18,.24-27.06.19-.78-1-1.12-1.21-.33Z"/><path class="cls-5" d="M719.48,211.88a30.86,30.86,0,0,0,5.5-6.35c.45-.68-.64-1.31-1.08-.64a30,30,0,0,1-5.3,6.11c-.61.53.28,1.41.88.88Z"/><path class="cls-5" d="M694,219.71a15.7,15.7,0,0,1-3.61,10.57c-.51.62.37,1.51.88.88a17,17,0,0,0,4-11.45.63.63,0,0,0-1.25,0Z"/><path class="cls-5" d="M688.4,228.46c5.09,16.17,31.9,4.57,41.64.26.73-.33.1-1.41-.63-1.08-9,4-35.13,15.32-39.81.49-.24-.77-1.44-.44-1.2.33Z"/><path class="cls-5" d="M671.24,243.88a30.1,30.1,0,0,0,8.55-7.78l-1.15-.15c1.49,6.71,1.77,12.06-1.38,18.31-1.53,3.05-3.06,5.81-3.86,9.16-.47,2-.73,4.14-1.77,5.94-1.15,2-3.07,3-4.48,4.71-.85,1.05-1.78,2.08-1.16,3.35a.62.62,0,0,0,.7.29l.17-.07c.74-.29.42-1.5-.33-1.2,1.48-.59,3.27-2.95,4.42-4.18a11.21,11.21,0,0,0,2.34-3.53c1.55-3.64,1.82-7.5,3.6-11.13,1.68-3.41,3.69-6.49,4.19-10.36s-.39-7.83-1.23-11.62a.63.63,0,0,0-1.14-.15,28.36,28.36,0,0,1-8.1,7.33.63.63,0,0,0,.63,1.08Z"/><path class="cls-5" d="M680.21,247c2.74-6.89,5.57-13.72,10.24-19.56.49-.62-.39-1.51-.89-.88-4.8,6-7.73,13-10.55,20.11-.3.75.91,1.07,1.2.33Z"/><path class="cls-5" d="M679.07,237.64a19,19,0,0,1,10-8.11c.75-.26.43-1.47-.34-1.2A20.29,20.29,0,0,0,678,237a.63.63,0,0,0,1.08.63Z"/><path class="cls-5" d="M737,226.66l-6.76,13.4a.64.64,0,0,0,.23.86,115.32,115.32,0,0,0,14.12,7,.63.63,0,0,0,.79-.61c-.06-3.83,1.12-6.71,2.14-10.27.21-.74.55-1.06.34-1.91s-1.73-1.58-2.27-1.94c-2.37-1.6-4.77-3.16-7.15-4.74-.67-.45-1.3.64-.63,1.08l5.36,3.55c2.24,1.48,3.41,1.79,2.7,4.57-.41,1.61-1.1,3.07-1.4,4.73-.33,1.84.47,4-2,3.29a32.93,32.93,0,0,1-5.13-2.43c-1.34-.68-4.72-1.85-5.16-3.32s1.84-4.56,2.54-6l3.38-6.7c.36-.72-.72-1.35-1.08-.63Z"/><path class="cls-5" d="M747.37,236.33c5.57,4.83,13.93,5.9,16.24,13.57,2,6.73,1,14,3,20.82,2.09,7.29,4.8,14.38,6.77,21.72s8.86,25.72-4.7,25.52a.63.63,0,0,0-.44,1.06c1.71,1.75,5.2,4.37,4.38,7.25,0-.12-1.51,1.69-1.53,1.73-.71,1.23-.55,3-1.46,4.33s-2.24,2.36-3.06,4-.72,6.36-1.63,7.15-4-.17-5.15-.19a42.57,42.57,0,0,0-6.58.47c-.79.11-.46,1.31.33,1.2a40.56,40.56,0,0,1,12.49.22.64.64,0,0,0,.77-.77,11.93,11.93,0,0,1,2.84-10.35,14.6,14.6,0,0,0,1.77-1.92,11.91,11.91,0,0,0,.61-1.39,5.22,5.22,0,0,1,1.23-3.43,2.31,2.31,0,0,0,.92-.44c.74-1.5,1.15-.31.76-2.48s-4.41-4.86-5.8-6.29l-.45,1.07c6.39.09,10.12-4.78,9.54-10.93-.92-9.67-4.4-19.72-7.44-28.91C769,274.12,767,269,766.38,263.43c-.48-4.1-.3-8.27-1.18-12.32-.66-3.06-1.94-6.44-4.55-8.39a20.3,20.3,0,0,0-4.13-2,31.77,31.77,0,0,1-8.26-5.24c-.61-.53-1.5.35-.89.88Z"/><path class="cls-5" d="M753.89,342.38c1-14.7,2.56-29.25,2.33-44-.22-14,.54-28,1.25-42,0-.8-1.21-.8-1.25,0-.71,14-1.47,28-1.25,42,.23,14.75-1.37,29.3-2.33,44,0,.8,1.2.8,1.25,0Z"/><path class="cls-5" d="M730.69,240.44c-1.46,1.4-3.77,2.18-3.59,4.57a5.18,5.18,0,0,0,1.15,2.26c1.59,2.46,4.69,3.7-.94,7.5-1,.7-2.65.86-3.86,1.21-7.47,2.2-7.75,7.11-7.37,14.19,1.2,22.49.48,45-.29,67.51,0,.8,1.22.8,1.25,0,.71-20.84,1.42-41.71.53-62.55-.2-4.74-2.22-13.35,2.51-16.58,2.79-1.91,6.52-1.38,9.2-3.57,1.6-1.31,2.68-3.08,2.14-5.2-.26-1-1.1-1.48-1.44-2.36-1.76-4.58-.45-4.13,1.59-6.1.58-.55-.3-1.44-.88-.88Z"/><path class="cls-5" d="M716,338.17c3.46,21.68-1.82,43.44-.44,65.2a.64.64,0,0,0,.79.6c10.15-2.43,20.38-4.66,30.68-1.74a.62.62,0,0,0,.7-.28c3.72-7.71,3.18-16.91,3.66-25.26L753.23,345c0-.8-1.21-.8-1.25,0q-1.14,19.71-2.27,39.43c-.18,3.13-.29,6.27-.77,9.38-.21,1.38-.28,3.46-1.05,4.7-1.75,2.83-2.68,1.9-5,1.52a48.92,48.92,0,0,0-15.92.42c-1.75.29-7.52,2.54-9.16,1.92-2.16-.82-1.3-6.37-1.29-8.31,0-6.26.49-12.5.94-18.74.91-12.51,1.72-25-.27-37.44-.12-.79-1.33-.46-1.2.33Z"/><path class="cls-5" d="M742.48,401.54c-1.3,4.22-.54,7,.3,11.19.25,1.24-.27,4,2,3.62,1.48-.29,2.47-4.16,2.79-5.34a17.68,17.68,0,0,0-.69-11l-1.14.48c4.38,7.38,0,12.39-2.81,19.12-.53,1.28-.86,3.74,1,4.2,2.13.52,5.45-4.46,6.43-5.75A34.9,34.9,0,0,0,756,406.3a.63.63,0,0,0-1.21-.33,33.17,33.17,0,0,1-6.28,12.33c-.29.35-2.46,3.13-2.94,3.11-3.21-.14.43-4.67.81-5.42,2.72-5.48,3.54-10.75.36-16.12-.35-.59-1.4-.2-1.15.48a17.22,17.22,0,0,1,1.24,6.92c0,.51-.85,7.34-2.23,6.59-.75-.41-.85-1.66-1.07-2.66a16.91,16.91,0,0,1,.11-9.33c.24-.77-1-1.1-1.2-.33Z"/><path class="cls-5" d="M745.72,421.25c-1.71,3.95.72,6.95,4.07,3.38a33.49,33.49,0,0,0,8.47-19c.09-.79-1.16-.79-1.25,0a33,33,0,0,1-3.26,11,31.41,31.41,0,0,1-4.42,6.61q-1.44,2.49-2.53-1.39c.32-.73-.76-1.37-1.08-.64Z"/><path class="cls-5" d="M749.81,424.47c6.09,4.27,9.85-13.19,10.59-16.09a.62.62,0,0,0-1.2-.33c-.57,2.22-4.42,18.38-8.76,15.34-.66-.46-1.28.62-.63,1.08Z"/><path class="cls-5" d="M756.55,420.87c4.13-2.74,4.94-8.78,5.78-13.3,1.2-6.47.11-12-1.2-18.34-3.1-15,4.14-28.71,3.77-43.56a.63.63,0,0,0-1.25,0c.3,12-4.93,23.28-4.76,35.25.07,5,1.48,9.68,2.35,14.59a34.18,34.18,0,0,1-.31,12.67c-.71,3.62-1.73,9.44-5,11.61-.67.44,0,1.53.63,1.08Z"/><path class="cls-5" d="M665.05,287.77a119.16,119.16,0,0,0,2.08,15.15c.73,4.26,1.42,8.41,3.47,12.26.38.71,1.46.08,1.08-.63-2-3.78-2.63-7.8-3.34-12a116,116,0,0,1-2-14.82c0-.81-1.28-.81-1.25,0Z"/><path class="cls-5" d="M676.47,281.15c5.33,7.8,12.17,14.24,19.1,20.6.59.54,1.48-.34.89-.89-6.85-6.28-13.64-12.62-18.91-20.34-.45-.66-1.54,0-1.08.63Z"/><path class="cls-5" d="M716,297c-2.12-2.88-4.3-6-3.92-9.74.08-.8-1.17-.79-1.25,0-.4,4,1.84,7.31,4.1,10.37.47.64,1.55,0,1.07-.63Z"/><path class="cls-5" d="M715.26,310.45a29.74,29.74,0,0,1-13.59.58c-2.43-.49-5.83-2.51-8.36-2.11-3.29.52-1.93,3.37.25,4.54.71.38,1.34-.7.63-1.08q.12-3.09,2.48-1.48c1,.37,2.09.7,3.15,1a31,31,0,0,0,4.78.83,31.6,31.6,0,0,0,11-1,.63.63,0,0,0-.33-1.21Z"/><path class="cls-5" d="M699,314.44c-6.65-1.3-13.55-1-20-3.35-.75-.27-1.08.94-.33,1.21,6.46,2.31,13.33,2,20,3.35.79.15,1.12-1,.33-1.21Z"/><path class="cls-5" d="M677.43,316.51a59.61,59.61,0,0,1,13.9,1.42c.78.17,1.11-1,.33-1.21a61.3,61.3,0,0,0-14.23-1.46.63.63,0,0,0,0,1.25Z"/><path class="cls-5" d="M671.16,315.19c-.41,3.43-2.35,8.94-.57,12.11,1.54,2.73,5.55,3.74,8.37,4.09,5.29.66,10.85.07,16.17,0l20.13-.42a.63.63,0,0,0,0-1.25l-27.8.58c-4,.08-8.43.52-12.22-1.1-5.86-2.51-3.44-8.88-2.83-14,.1-.8-1.15-.79-1.25,0Z"/><path class="cls-5" d="M692,316.59a67.8,67.8,0,0,0,13,.64c1.44-.08,11.59-.49,11.92-2.17-.16.79,1.05,1.12,1.2.33l.13-.66a.64.64,0,0,0-.77-.77,64.46,64.46,0,0,1-25.12,1.42c-.78-.11-1.12,1.1-.33,1.21Z"/><path class="cls-5" d="M668.82,520c0-15.91-2-31.67-3.86-47.45-1.86-16.08-2.36-32.17-3.6-48.29-1.22-15.87-2.59-31.5-1.43-47.41,1.07-14.63,1.74-30,8.81-43.21.38-.71-.7-1.34-1.08-.63-6.27,11.7-7.56,25.11-8.55,38.14-1.27,16.63-.62,32.71.7,49.32,1.31,16.42,1.72,32.86,3.57,49.25,1.89,16.73,4.16,33.41,4.19,50.28a.63.63,0,0,0,1.25,0Z"/><path class="cls-5" d="M668.74,333.64a16.68,16.68,0,0,1,4.22-5.12c.62-.5-.26-1.38-.88-.88a17.5,17.5,0,0,0-4.42,5.37c-.38.71.7,1.34,1.08.63Z"/><path class="cls-5" d="M564,321.51c5.52,4.42,14.47,6.05,21,8.2,3.36,1.09,7,1.94,10.2,3.35,3,1.32,4.17,3.55,6.65,5.33a14.55,14.55,0,0,0,6.68,2.5c4,.51,10.13.09,13-3.15,2.24-2.54,1.7-5.76-1.24-7.36-1.83-1-9.39-3.4-10.42.14-1.13,3.88,7,2.81,8.51,2.87l-.17-1.23a22.13,22.13,0,0,1-7.08.55c-.8-.06-.8,1.19,0,1.25a25,25,0,0,0,7.42-.59.63.63,0,0,0-.17-1.23l-3.92-.15c.37-1.81,1.31-2.26,2.8-1.33q3.33.21.85,4.21,1.23,3.9-1.75,4.18c-2.14,1.56-7.63.85-10,.14a13.71,13.71,0,0,1-5.92-3.8c-2.84-2.89-5.55-3.78-9.35-5-4.82-1.57-9.65-3.11-14.43-4.77-3.78-1.31-8.65-2.43-11.83-5-.62-.5-1.51.38-.88.88Z"/><path class="cls-5" d="M609.89,331.42l-4.59.84a.63.63,0,0,0-.44.77,4.51,4.51,0,0,0,4.14,3l-.17-1.22c-1.68.43-2-.61-2.88-1.59-.13-.15-.18-.38-.34-.52a2.25,2.25,0,0,0-1.53-.34,1.48,1.48,0,0,0-1.25,2.28l.7-.92a7.59,7.59,0,0,0-2.18-.78.62.62,0,0,0-.54.31,4.59,4.59,0,0,0-.41,1.12l.92-.38a12.33,12.33,0,0,0-1.84-.68.62.62,0,0,0-.79.6,1.17,1.17,0,0,0,.35.94c.51.62,1.39-.26.88-.88l0-.06-.8.6a7.76,7.76,0,0,1,1.55.56.64.64,0,0,0,.92-.37c.18-.61,1.35.12,1.59.22.54.23.93-.48.71-.91.55-.41.88-.41,1,0a2.46,2.46,0,0,0,.54.94,3.45,3.45,0,0,0,.87.74,3.55,3.55,0,0,0,2.85.33.63.63,0,0,0-.17-1.23,3.28,3.28,0,0,1-2.94-2.07l-.43.77,4.59-.85c.79-.14.45-1.35-.33-1.2Z"/><path class="cls-5" d="M620.88,332.36a11.32,11.32,0,0,0,6.34-1.16c1.64-.81,3.08-2.46,4.79-2.95,2.89-.83,6.91-.15,9.88-.08,6.48.16,13.1.19,19.56.93.79.09.79-1.16,0-1.25-6.46-.74-13.08-.77-19.56-.93-3.09-.08-6.48-.44-9.55,0-4.35.69-6.28,4.59-11.46,4.15-.81-.07-.8,1.18,0,1.25Z"/><path class="cls-5" d="M586.43,333.5a121.55,121.55,0,0,0,12,3c.78.16,1.12-1.05.33-1.2a120.71,120.71,0,0,1-12-3,.63.63,0,0,0-.34,1.21Z"/><path class="cls-5" d="M600.59,336.56a97.06,97.06,0,0,1-10.15,1.78c-.78.1-.79,1.35,0,1.25a102.93,102.93,0,0,0,10.48-1.82c.78-.18.45-1.39-.33-1.21Z"/><path class="cls-5" d="M611.38,340.38c.66,7.85-2.19,16.8-3.89,24.38s-3,16.87-6.85,23.74c-.39.7.69,1.33,1.08.63,4-7,5.25-16.33,7-24s4.6-16.74,3.93-24.71c-.07-.8-1.32-.81-1.25,0Z"/><path class="cls-5" d="M616.84,341.84c-2.36,7.64-1.48,17.11-1.43,25s-.7,17.31,1.68,25a.63.63,0,0,0,1.21-.33c-2.35-7.54-1.6-16.86-1.64-24.65s-.93-17.13,1.38-24.65c.24-.77-1-1.1-1.2-.33Z"/><path class="cls-5" d="M618.06,343.09a33.36,33.36,0,0,0,12.67,2.06.63.63,0,0,0,0-1.25,32.23,32.23,0,0,1-12.34-2c-.76-.28-1.08.93-.33,1.21Z"/><path class="cls-5" d="M623.2,337a87.75,87.75,0,0,0,11.28,1.71c.8.06.8-1.19,0-1.25a85.71,85.71,0,0,1-10.94-1.66c-.79-.18-1.12,1-.34,1.2Z"/><path class="cls-5" d="M628.25,335.41q3.93-1.16,7.93-2c.79-.16.46-1.37-.33-1.2-2.67.57-5.31,1.24-7.94,2a.63.63,0,0,0,.34,1.21Z"/><path class="cls-5" d="M602.5,344l-11.42,33c-3.12,9-6.77,18.27-4,27.84a.63.63,0,0,0,1.21-.34c-3-10.48,1.9-21,5.3-30.83l10.15-29.29c.26-.76-.94-1.08-1.21-.33Z"/><path class="cls-5" d="M555.21,299.26c-3.38,2.17-8.2,2.8-12,3.7-5.43,1.28-10.88,2.39-16.33,3.54-1.63.34-3.27.65-4.88,1.07-3,.78-4.19,2.27-6.6,4-4.48,3.28-13.44,3.91-18,0-2.34-4.7-1.95-7.24,1.2-7.59q3.48-1.48,5.84,1.7c-.28.41-5.45-.37-6.12-.42s-.8,1-.17,1.23a23.89,23.89,0,0,0,7.62,1.41.63.63,0,0,0,0-1.25,23.24,23.24,0,0,1-7.29-1.37l-.16,1.23c1.67.11,9.78,2.08,9-2-.65-3.61-8.15-2.2-10.26-1.48-2.94,1-4.56,3.5-3.23,6.57,1.88,4.32,8.79,5.68,12.89,5.78a15.81,15.81,0,0,0,7.42-1.56c3-1.49,4.89-4,8.18-5.11s6.85-1.48,10.18-2.19c4.74-1,9.47-2,14.16-3.18,3-.76,6.56-1.37,9.21-3.07.67-.44,0-1.52-.64-1.08Z"/><path class="cls-5" d="M506.82,306.69l4.67,1.39-.38-.92a3.4,3.4,0,0,1-3.41,1.92c-.75,0-.78,1-.16,1.23a3.54,3.54,0,0,0,2.87,0,3.63,3.63,0,0,0,1-.69c.15-.17.29-.34.42-.52.17-.64.59-.7,1.25-.18a.64.64,0,0,0,.71.92c.38-.12,1.51-.73,1.66,0a.63.63,0,0,0,.77.44,11.28,11.28,0,0,1,1.82-.46l-.79-.6,0,0c-.57.57.31,1.46.88.89a1.19,1.19,0,0,0,.42-.94c0-.44-.43-.67-.79-.61a12.9,12.9,0,0,0-1.83.46l.77.44a3.86,3.86,0,0,0-.32-1.19.59.59,0,0,0-.53-.31,8,8,0,0,0-2.34.58l.7.92c.8-1.17-.07-2.3-1.37-2.44a1.78,1.78,0,0,0-1.45.38c-.28.23-.36.61-.58.89a2.37,2.37,0,0,1-2.93.76l-.17,1.22a4.63,4.63,0,0,0,4.49-2.54.64.64,0,0,0-.37-.92l-4.67-1.38a.62.62,0,0,0-.33,1.2Z"/><path class="cls-5" d="M495.8,304c-5.42-.11-7.13-4.62-11.65-5.61a74.13,74.13,0,0,0-9.86-1.07c-6.68-.54-13.49-1.25-20.2-1.19a.63.63,0,0,0,0,1.25c6.71-.06,13.52.65,20.2,1.19,3.14.26,7.51,0,10.45,1.21,1.55.66,2.57,2.24,4,3.22a12.15,12.15,0,0,0,7.06,2.25.63.63,0,0,0,0-1.25Z"/><path class="cls-5" d="M531,309a122,122,0,0,1-12.64,1.77c-.79.07-.8,1.32,0,1.25a128.42,128.42,0,0,0,13-1.81c.79-.15.46-1.36-.33-1.21Z"/><path class="cls-5" d="M515.89,313.06a103.67,103.67,0,0,0,10.49,3c.78.18,1.12-1,.33-1.21a103.67,103.67,0,0,1-10.49-3c-.76-.26-1.09.94-.33,1.21Z"/><path class="cls-5" d="M503.43,314.37c-1.44,6.68-1.42,13.77-1.59,20.57-.3,11.52-.19,23.05.05,34.57.5,24.52,1.48,49.08,3.71,73.5.71,7.71,1.08,16,3.39,23.45.23.77,1.44.44,1.2-.33-2-6.42-2.4-13.47-3.05-20.12-1.09-11.06-1.8-22.15-2.4-33.25-1.31-24.29-2.12-48.67-1.75-73,.12-8.23-.09-16.95,1.65-25.05.16-.78-1-1.12-1.21-.33Z"/><path class="cls-5" d="M497.62,315.79c1.54,7.87-.38,17.3-1.26,25.15-.9,8.16-1.12,18.13-4.45,25.79-.31.73.76,1.37,1.08.63,3.29-7.57,3.57-17.19,4.5-25.29.95-8.34,3-18.25,1.33-26.62-.15-.79-1.36-.45-1.2.34Z"/><path class="cls-5" d="M497.19,315.43a33.38,33.38,0,0,1-12.86.73c-.79-.11-1.13,1.09-.33,1.2a35,35,0,0,0,13.52-.73.62.62,0,0,0-.33-1.2Z"/><path class="cls-5" d="M492.7,308.48A91.53,91.53,0,0,1,481,309a.63.63,0,0,0,0,1.25,91.53,91.53,0,0,0,11.71-.51c.79-.09.8-1.34,0-1.25Z"/><path class="cls-5" d="M488.15,306.37q-3.94-1.62-8-3c-.77-.25-1.1.95-.33,1.2q4.05,1.33,8,3c.74.3,1.07-.91.33-1.21Z"/><path class="cls-5" d="M512.24,319.58l7.37,31.87c2.41,10.42,6.21,21.77,1.95,32.18-.31.75.9,1.07,1.2.34,3.9-9.51,1.13-19.53-1.08-29.11l-8.23-35.61c-.18-.79-1.39-.46-1.21.33Z"/><circle class="cls-5" cx="97.52" cy="228.1" r="5.56"/><circle class="cls-5" cx="277.53" cy="218.1" r="5.56"/><circle class="cls-5" cx="542.55" cy="185.87" r="5.56"/><circle class="cls-5" cx="649.78" cy="225.32" r="5.56"/><circle class="cls-5" cx="741.45" cy="268.1" r="5.56"/><circle class="cls-5" cx="376.42" cy="254.77" r="5.56"/><path class="cls-5" d="M441.12,288.22c.46,7.48,2.15,24.56,12.3,24.86a.63.63,0,0,0,0-1.25c-9.05-.27-10.64-16.89-11.05-23.61-.05-.8-1.3-.8-1.25,0Z"/><path class="cls-5" d="M149.19,219.5c9.37,19.09-2.11,41,6.28,60.39.32.73,1.4.1,1.08-.64-8.38-19.36,3.13-41.2-6.29-60.39-.35-.72-1.43-.08-1.07.64Z"/><circle class="cls-5" cx="169.07" cy="317.33" r="5.56"/><path class="cls-5" d="M255.25,222.88a13.11,13.11,0,0,1-5.15-10.68c-.06-2.59.26-5.18-.12-7.76-.78-5.29-3.95-9.64-7.22-13.7-.51-.63-1.39.26-.89.88,2.47,3.06,5,6.38,6.22,10.19,1.06,3.44.71,6.87.76,10.39.06,5.12,1.66,8.26,5.52,11.57.6.52,1.49-.36.88-.89Z"/><path class="cls-5" d="M244,181.69c-6.2,2.19-9.12,10.68-11.46,16.13-3.46,8-6.19,19.34-13.27,25.08-.63.51.26,1.39.88.89,5.64-4.57,8.26-12.8,10.94-19.29,2.57-6.21,6-19.05,13.24-21.6.75-.27.43-1.48-.33-1.21Z"/><path class="cls-5" d="M254.88,223.7A106.73,106.73,0,0,1,240.42,245c-1.7,1.94-3.51,3.89-5,6a13.73,13.73,0,0,1-1.83,2.41c-.38.1-1.09-.45-1.45-.49-4.24-.37-10.46-5.16-11.92-8.86-.29-.74-1.5-.42-1.2.33,2.25,5.72,9,8.69,14.54,10.32a.64.64,0,0,0,.61-.16c4-5,8.31-9.61,12.3-14.55,3.83-4.77,6.69-10.21,9.53-15.61.37-.71-.71-1.34-1.08-.63Z"/><path class="cls-5" d="M226.9,251.2c-2.72,4.47-7.33,7.23-10.63,11.21-.52.61.36,1.5.88.88,3.38-4.06,8-6.88,10.83-11.46a.63.63,0,0,0-1.08-.63Z"/><path class="cls-5" d="M210.81,269.27c-2.88,2.37-6,4.54-8.59,7.29-.54.59.34,1.47.89.88,2.54-2.74,5.7-4.92,8.58-7.29.62-.51-.27-1.39-.88-.88Z"/><polygon class="cls-8" points="322.43 465.38 322.58 457.97 321 450.14 317.98 436.66 304.93 403.62 298.11 387.6 293 380.45 287.39 377.04 275.59 375.19 248.81 372.74 230.31 372.12 224.32 374.21 214.31 376.28 205.25 377.62 198.71 380.6 194.33 381.17 190.13 381.17 189.83 381.79 190.71 384.81 192.71 394.75 192.71 412.6 193.36 425.94 194.82 425.63 204.98 429.82 216.04 435.41 224.38 437.63 230.64 441.29 235.53 451.3 239.31 464.93 242.84 489.41 245.25 504.29 247.33 508.38 251.42 509.94 255.88 508.85 265.99 503.56 279.03 495.92 287.17 493.99 299.16 494.9 315.08 495.1 322.85 495.1 324.82 491.38 324.82 482.95 323.93 473.84 322.43 465.38"/><polygon class="cls-9" points="194.64 425.96 193.79 426.13 193.79 427.5 194.4 428.98 198.96 428.71 202.02 431.05 203.08 433.94 203.76 442.82 204.18 452.09 204.18 457.32 205.44 459.02 208.23 459.59 211.69 461.31 214.94 464.94 217.42 465.51 222.52 466.96 229.43 466.09 239.46 463.84 237.04 453.47 233.31 446.03 228.75 440.32 224.38 438.09 215.34 435.09 206.96 430.82 199.15 427.57 194.85 425.96 194.64 425.96"/><polygon class="cls-9" points="193.91 435.66 195.28 434.42 197.94 436.44 198.84 450.6 197.82 451.13 195.58 451.13 194.86 451.07 193.91 442.53 193.91 435.66"/><polygon class="cls-9" points="182.13 451.07 183.84 451.89 189.83 451.54 189.31 449.5 188.87 445.07 188.21 442.82 186.54 444.36 182.13 451.07"/><polygon class="cls-9" points="160.63 435.84 161.62 433.71 164.58 433.71 175 433.71 182.44 433.41 185.08 433.41 184.25 436.21 183.11 442.47 182.44 445.72 178.44 451.59 167.03 451.5 160.63 435.84"/><polygon class="cls-8" points="166.81 463.28 171.62 459.92 180.03 458.67 186.7 458.55 187.82 461.25 187.82 466.01 187.19 468.96 184.69 471.84 176.21 473.72 170.56 472.91 166.41 465.82 166.81 463.28"/><path class="cls-5" d="M198.53,450.67a20.9,20.9,0,0,1-3.71.12c-.8,0-.8,1.21,0,1.25a20.9,20.9,0,0,0,3.71-.12c.79-.09.8-1.34,0-1.25Z"/><polygon class="cls-9" points="219.53 348.86 220.5 346.45 223.91 344.71 226 340.93 227.24 337.79 227.61 335.93 229.45 331 230.84 339.13 233.59 358.43 233.08 360.73 234.5 371.62 228.69 372.52 227.5 372.8 221.03 359.99 218.97 355.25 219.53 348.86"/><path class="cls-8" d="M119.58,413.63s-20.72,28.89-11,73c0,0,5.54,38.3,14.82,48.53,0,0,6.45,10.66,10.67,12l-.94,2.11h-5.88L122,547.14l-8-9-8.69-19.45L99,493.44l-2.8-35.23L99,436.08l5-14.5,8.14-7.25,3.59-3.25h1.85Z"/><polygon class="cls-5" points="108.14 410.34 108.72 411.7 113.72 409.11 115.16 407.45 112.82 404.42 111.51 404.53 110.42 405.85 108.5 408.95 108.14 410.34"/><path class="cls-5" d="M215.4,465.38c3.38,1.3,5.38,2.41,9.07,2.08a84.14,84.14,0,0,0,14.38-3,.63.63,0,0,0-.33-1.21,80.59,80.59,0,0,1-14.05,3c-3.36.29-5.71-.87-8.74-2-.75-.28-1.08.92-.33,1.21Z"/><path class="cls-5" d="M204.77,454.12c9.86,3.29,22.18.68,32.1-1.43.78-.17.45-1.37-.34-1.2-9.62,2-21.82,4.63-31.43,1.42-.76-.25-1.09,1-.33,1.21Z"/><polygon class="cls-8" points="167.02 388.13 167.62 387.35 177.54 384 183.21 383.02 183.81 384.59 185.73 397.5 186.56 406.48 185.44 407.72 182.08 407.72 179.13 406.29 176.26 399.48 172.42 394.24 167.02 388.13"/><polygon class="cls-7" points="124.33 479.75 124.08 481.39 125.06 484.85 126.35 485.29 128.45 482.79 138.12 482.66 140.08 484.12 142.19 481.79 142.19 475.75 140.69 472.47 139.24 472.47 136.9 474.09 132.77 474.7 126.58 474.51 125.06 474.2 124.28 475.03 124.33 479.75"/><polygon class="cls-9" points="135.52 344.13 136.49 340.69 142.23 332.63 144.79 328.3 148.43 336.01 148.75 348.01 149.08 359.99 150.42 366.42 159.9 367.08 136.4 367.72 136.76 364.28 136.25 350.22 135.52 344.13"/><polyline class="cls-9" points="135.43 382.25 136.5 380.58 145.71 379.83 165 379.83 155.24 380.22 156.15 382.5 155.75 388.19 165.99 388.19 167.27 389.01 170.96 391.86 176.26 399.48 179.08 405.75 182.08 407.72 186.56 407.88 187.56 427.05 187.98 432.91 188.23 433.94 186.52 434.42 179.79 433.71 174.46 433.71 170.21 434.23 163.71 434.05 161.62 433.71 158.71 424.62 155.61 417.99 152.11 412.35 146.15 404.94 141.23 401.5 135.78 397.81 135.43 382.25"/><polygon class="cls-6" points="178.72 261.41 180.78 257.47 180.59 256.39 176.55 252.84 173.59 246.44 174.78 244.57 176.94 245.55 178.91 248.8 183.54 249.29 185.81 249.1 187.29 246.34 187.78 243.78 188.96 241.02 191.82 239.94 193.69 236.98 193.3 232.94 193.99 231.27 195.37 228.41 197.53 226.93 199.7 225.94 201.77 225.65 206.5 226.73 210.64 228.51 214.58 230.28 215.76 232.45 216.55 232.55 218.42 230.97 219.8 228.21 220.19 224.86 219.7 222.79 219.5 221.61 216.25 219.05 214.48 217.18 209.06 214.52 206.5 213.14 201.57 212.15 194.38 210.18 190.24 209.69 186.7 210.08 179.7 212.15 173.89 216.39 170.15 220.23 167.09 226.14 165.32 232.45 164.73 240.33 164.04 245.85 163.25 249.99 164.53 253.43 167.49 256.29 173.79 259.94 176.06 260.82 178.72 261.41"/><path class="cls-5" d="M166.4,275.62a20.5,20.5,0,0,0,15.15-19.52.63.63,0,0,0-1.25,0,19.24,19.24,0,0,1-14.23,18.31.63.63,0,0,0,.33,1.21Z"/><path class="cls-5" d="M173.61,241.54c-1.24,1.25-.73,3.61-.45,5.19a15.4,15.4,0,0,0,3.19,6.9c2.23,2.73,6.72,5.44,9.27,1.6.45-.68-.64-1.3-1.08-.64-2.66,4-7.21-1.36-8.5-3.62-.9-1.58-3.22-6.86-1.54-8.55.56-.57-.32-1.46-.89-.88Z"/><path class="cls-5" d="M182.47,251.63c.08.11.76,1.07.29.7-.18-.13-.28-.53-.45-.71a2.37,2.37,0,0,0-1.5-.7,3.45,3.45,0,0,1-3-1.82,9.89,9.89,0,0,1-.86-3.16c-.13-.79-1.33-.46-1.2.33a8.07,8.07,0,0,0,1.85,4.64,4.2,4.2,0,0,0,1.71,1.07c.35.1.69.08,1,.15,1.32.3,1,.48,1.55,1.19s1.7,1.19,2.33.27-.31-2.11-.89-2.84-1.38.26-.88.88Z"/><path class="cls-5" d="M204,270a17.11,17.11,0,0,0-2.17,9.15c0,.8,1.29.81,1.25,0a15.8,15.8,0,0,1,2-8.51c.39-.71-.69-1.34-1.08-.64Z"/><path class="cls-5" d="M166.23,274.39c-2.4.28-4.31,2.56-3.09,4.86,2.24,4.22,10.82,6.17,15.05,6.89,7.32,1.23,23.37,3.55,24.83-6.78.11-.79-1.09-1.13-1.21-.33-1.05,7.47-10.6,6.8-16.47,6.55a47.3,47.3,0,0,1-10.52-1.47,30.64,30.64,0,0,1-5.63-2.14,22,22,0,0,1-2.13-1.17q-3.33-1.23-.83-5.16c.79-.09.8-1.34,0-1.25Z"/><path class="cls-5" d="M185.15,255.46a38.69,38.69,0,0,0,1.75,5.47c.29.74,1.5.41,1.2-.33a40.43,40.43,0,0,1-1.74-5.47c-.19-.78-1.4-.45-1.21.33Z"/><path class="cls-5" d="M191.84,265.47c4.16,4.65,11.73,4.63,17.52,4.62,3.85,0,7.84.32,7.92-4.78,0-1.56-.92-3-1.05-4.49-.29-3.51,1.35-5.23,2.54-8a13.12,13.12,0,0,0,1.16-8.35c-.28-1.13-.86-1.8-1.2-2.84-.72-2.24-.34-3.93-.65-6.14-.23-1.62-.44-3.7-2.22-4.11-.79-.18-1.12,1-.34,1.21,2.12.49,1.24,6.75,1.54,8.22.63,3,2.14,5.08,1.61,8.48-.58,3.74-4,6.53-3.85,10.4.08,2.68,2.09,5.8,0,8.36-1.06,1.31-3.18.74-4.65.75-5.62.06-13.39.32-17.47-4.24-.54-.6-1.42.28-.89.88Z"/><path class="cls-5" d="M179.24,249c2.09,1.07,5,2.4,7.16.61,1-.83.94-1.48,1.3-2.62s.1-2.77,1-4c.66-.92,2-1.47,2.83-2.18,2.92-2.46,1.8-3,2.43-6.45,1-5.62,5.52-9.16,11.14-7.68,3.52.93,8.74,2.75,9.92,6.53.24.76,1.45.44,1.21-.33-1.37-4.39-5.51-5.49-9.47-6.91-4.14-1.5-6.84-1.75-10.29,1.26a12.39,12.39,0,0,0-3.34,4c-1.41,3.35.52,6-2.67,8.79-1.14,1-2.57,1.57-3.36,3-.19.35-.26.83-.47,1.16-.06.46-.11.93-.15,1.39q-2.79,5.34-6.6,2.34c-.72-.36-1.35.72-.63,1.08Z"/><path class="cls-5" d="M217.15,233.27a10.77,10.77,0,0,0,3.93-9.85c-.68-4.08-7.22-7.39-10.46-9.15-5.24-2.85-11.64-3.69-17.4-5-5.23-1.21-11.28.9-15.74,3.63S169.29,220.41,167,225c-3,6-1.91,12.42-3.12,18.8-.8,4.19-2,8.58,1.7,11.72,2.18,1.87,5.09,3.26,7.55,4.72,2.27,1.34,3.68,2.48,6.2,1.6.76-.26.43-1.47-.33-1.21-3.4,1.18-13.72-6-14.6-9.1-1.08-3.9,1.26-8.83,1.49-12.83.26-4.57.1-8.84,2.19-13.06a33.37,33.37,0,0,1,7.14-9.5,24.3,24.3,0,0,1,13.21-5.84c4.16-.47,8.06,1.38,12.13,2.07a30.42,30.42,0,0,1,12.34,4.73c1.5,1,4.32,2.7,5.35,4,2.57,3.16,1.61,8.74-1.71,11.1-.65.46,0,1.55.63,1.08Z"/><path class="cls-5" d="M162.84,276.3,146,285.05c-2.5,1.3-6.66,2.13-6.47,5.48.11,1.87,3,5.57,3.59,7.33a34.53,34.53,0,0,1,1.7,8.89c.48,7-1.16,13.84-3.22,20.44-.24.77,1,1.1,1.2.33,2.94-9.41,4.81-19.55,1.77-29.19-.6-1.92-1.74-3.65-2.35-5.53l-.86-1.43,1.9-3.49c1-1,3-1.55,4.21-2.19l16-8.31c.72-.37.08-1.45-.63-1.08Z"/><path class="cls-5" d="M140.11,288.17c-4-.8-5.91,2.8-7.68,5.82-3.72,6.4-7.35,12.85-11,19.32-7.19,12.93-13,27.07-22.25,38.65-3.29,4.09-5.43,8.07-5.81,13.37S93,377,95.16,381.8c2.8,6.25,8.41,11.82,12.53,17.23l13.88,18.25a.63.63,0,0,0,1.14-.48c-1.24-6.9,7.54-6.64,11.28-8.05.78-.3,1.62-.34,2-1.27.53-1.34-.83-3.31-1.32-4.37-1.6-3.45-3.49-6.75-5.32-10.09-1.69-3.1-3.18-6.26-4.69-9.44-1.68-3.51-4.39-6.78-5.58-10.5-.9-2.84,1.57-9.58-3.43-9.42a.63.63,0,0,0,0,1.25c1.72-.06,1.79,7.1,2.23,8.5.77,2.48,2.32,4.67,3.62,6.89,3.39,5.78,6.12,12.05,9.31,18a32,32,0,0,1,2.41,4.69l.75,1.59c.75,2.21.27,3.27-1.44,3.21-1.85,1.1-4.69,1.07-6.73,2-3,1.46-4.9,3.91-4.29,7.34l1.15-.48-22-28.89c-1.9-2.5-4-5-5-8s-1-6.65-1.1-9.91c-.18-7.88,2.22-12.93,7.07-18.92,6.88-8.49,11.07-19,16.24-28.53q4.35-8.07,8.9-16c2.05-3.62,7.83-18,13-17,.79.16,1.12-1.05.33-1.2Z"/><path class="cls-5" d="M118.86,367.44c1.19-1.86,3.17-4.83,1.24-6.77l-.88.89,1.22,1c.51.41,1.41-.11,1-.76a15,15,0,0,1-2.5-6.64l-1.15.48a17.57,17.57,0,0,1,2.93,8.86.63.63,0,0,0,1.17.31l15.67-23.88c2.64-4,9.7-11,6.09-16.09-.46-.66-1.55,0-1.08.63,2.64,3.75-2.66,9.6-4.53,12.44l-5.74,8.76L120.8,364.15l1.16.32a19.33,19.33,0,0,0-3.1-9.49.63.63,0,0,0-1.14.48,15.57,15.57,0,0,0,2.63,7l1-.76-1.23-1c-.61-.49-1.46.3-.88.89,1.39,1.4-.66,4-1.44,5.25-.43.68.65,1.31,1.08.63Z"/><path class="cls-5" d="M144,328c2.3,5.85,4.6,12.76,4.3,19.11a96.31,96.31,0,0,0,1.53,19.46c.13.79,1.34.46,1.21-.33a123.65,123.65,0,0,1-1.41-20.95,20,20,0,0,0-.52-6.18c-1.18-3.72-2.46-7.78-3.9-11.44-.29-.74-1.5-.42-1.21.33Z"/><path class="cls-5" d="M166.15,388c5.69-.92,10.91-3.87,16.67-4.44.79-.08.8-1.33,0-1.25-5.88.58-11.2,3.54-17,4.48-.79.13-.46,1.34.33,1.21Z"/><path class="cls-5" d="M211.91,348.33c3.72-.29,8.24-.46,11.39-2.71,2.5-1.78,3.36-4.7,4.26-7.5,2.4-7.49,4.47-15.9,3-23.85-.32-1.7-1.31-3.35-1.46-5.08-.23-2.73,1.08-6,1.7-8.62.66-2.85,2.11-7.53.14-10.17s-7.41-3.38-10.32-4.28c-6.11-1.89-12.28-3.55-18.32-5.62-.77-.27-1.09.94-.34,1.2,4.25,1.46,8.55,2.73,12.86,4s14.24,2.79,15.75,7.64c.93,3-1.28,7.79-1.93,10.84-.48,2.24-1.11,4.59-.5,6.83a38.42,38.42,0,0,1,.82,17.46,70.24,70.24,0,0,1-3.28,11.45c-2.31,6.1-7.94,6.71-13.75,7.17-.8.06-.81,1.31,0,1.25Z"/><path class="cls-5" d="M219.25,347c-.92,4.81-1.3,8.15.82,12.45,2.23,4.49,5,8.81,6.83,13.49.28.74,1.49.42,1.2-.33a98,98,0,0,0-5-10.1c-.91-1.73-1.87-3.46-2.66-5.24-1.41-3.18-.59-6.57,0-9.93.15-.79-1-1.13-1.2-.34Z"/><path class="cls-5" d="M229.87,335.63c2.53,4,4.47,8.58,6.92,12.72a64.59,64.59,0,0,1,4,9.18c1.83,4.7,3.07,11.16,6.49,15,.53.61,1.41-.28.88-.88-3.73-4.24-5-11.6-7.08-16.78-.86-2.09-1.37-4.31-2.49-6.26s-2.82-3.91-4-6c-1.38-2.52-2.17-5.18-3.7-7.62-.43-.68-1.51-.06-1.08.63Z"/><path class="cls-5" d="M228.93,290.65a40.45,40.45,0,0,1,14.37,18.08c4.6,10.6,9.4,21.06,12.47,32.21,1.09,4,3.54,6.94,4.85,10.7.71,2,1.21,4.07,2.11,6.05,2.63,5.8,6.43,11.16,8.67,17.12.28.75,1.49.43,1.2-.33-2.16-5.74-5.74-10.93-8.35-16.47-1.18-2.52-1.57-5.15-2.65-7.62s-2.74-4.21-3.67-6.64-1.42-5.31-2.21-7.93C252.56,325.3,247.56,315,243,305c-3-6.6-7.61-11.24-13.47-15.44-.66-.47-1.28.61-.63,1.08Z"/><path class="cls-5" d="M135.08,342.94c.24,7.92,1.8,16.47.74,24.3-.11.79,1.1,1.13,1.21.33,1.08-8-.45-16.54-.7-24.63a.63.63,0,0,0-1.25,0Z"/><path class="cls-5" d="M141.38,333.68c1.18,5.07.68,10.78.77,15.95l.33,17.31a.63.63,0,0,0,1.25,0l-.36-19.13c-.09-4.74.3-9.81-.79-14.47-.18-.78-1.39-.45-1.2.34Z"/><path class="cls-7" d="M131.71,374.57a7.75,7.75,0,0,1-3.29-.42,2.67,2.67,0,0,1-1.73-2.59c.16-1.21,1.37-2,2.51-2.44a30.35,30.35,0,0,1,9.18-1.74,200.59,200.59,0,0,1,35.68.44,11.7,11.7,0,0,1,4.34,1,4.16,4.16,0,0,1,2.38,3.54,4.21,4.21,0,0,1-3.06,3.57,13.15,13.15,0,0,1-5,.31c-13.83-.86-27.77.18-41.52-1.57"/><path class="cls-5" d="M131.71,374q-3.35-4.9.63-5.15l1.53-.3a59.39,59.39,0,0,1,6.38-.63c3.76-.26,7.52-.4,11.28-.44s7.52,0,11.28.19,9.22-.34,12.64,1.06q5.2.15-1,7.05l-2.62-.14c-1.89-.1-3.77-.18-5.66-.23-3.79-.1-7.57-.12-11.35-.15a210.87,210.87,0,0,1-23.57-1.14c-.79-.09-.79,1.16,0,1.25a196.28,196.28,0,0,0,21.68,1.13c7.15.06,14.39.65,21.52.53,7.83-.14,9.17-8,1.12-9.61-6.48-1.29-13.67-1.15-20.26-1.2a148.1,148.1,0,0,0-20.2.9c-2.46.32-8.49.91-9,4.33-.49,3.21,3.41,3.75,5.62,3.8a.63.63,0,0,0,0-1.25Z"/><path class="cls-5" d="M121.85,415.3a19.8,19.8,0,0,1,5.27,9.52c.65,3,0,6.07.72,9,.65,2.71,2.75,6.63,5,8.22.66.46,1.29-.62.63-1.08-1-.71-3-3.94-3.51-4.89-1.68-3.18-.92-6.71-1.41-10.12a20.81,20.81,0,0,0-5.86-11.57c-.55-.58-1.44.31-.88.89Z"/><path class="cls-5" d="M132.59,438.09c.29,1.14-.25,2.37.15,3.51.48,1.4,2.31,1.4,3.47,1.94.72.35,1.36-.73.63-1.08a14.72,14.72,0,0,0-1.44-.55c-.78-.26-1.52-.31-1.57-1.29a14.38,14.38,0,0,0,0-2.86.63.63,0,0,0-1.21.33Z"/><path class="cls-5" d="M135.52,438.64c.3,1.68-.49,3.66.77,5.09,1,1.15,2.76,1.73,4.08,2.41.72.36,1.35-.72.63-1.08a15.13,15.13,0,0,1-3.57-2c-1.18-1.13-.44-3.31-.71-4.78-.14-.79-1.35-.46-1.2.33Z"/><path class="cls-5" d="M139.12,439.68c.41,2.31.19,5.41,1.58,7.43,1,1.44,4.6,3.19,6.28,2.35s.83-6.25.89-7.75c.17-4.85.78-10.17-.77-14.84-.25-.76-1.46-.44-1.21.33,1.78,5.35.87,12.1.59,17.67-.07,1.45.43,4-2.53,2.9-1.44-.53-2.59-2.66-3-4a40.05,40.05,0,0,1-.64-4.45c-.14-.79-1.34-.45-1.2.34Z"/><path class="cls-5" d="M146.72,440.69c.57,2.74,2.13,8.5,6.14,8,4.54-.6-.43-8.47-.66-10.37-.69-5.62,1.35-10.87-3.16-15.28-5-4.89-8.75-10.76-14.23-15.21-.62-.51-1.51.37-.89.88,3.8,3.08,6.52,6.64,9.51,10.46,2.21,2.83,6,4.91,7.14,8.44s-.08,7.36.32,11a14.84,14.84,0,0,0,1.42,4.69q3.19,4.33-3,1.7a17.28,17.28,0,0,1-1.4-4.59c-.17-.79-1.37-.46-1.21.33Z"/><path class="cls-5" d="M189.34,381.56c2.27-.11,4.59.31,6.85.08,3.43-.36,6.22-2.64,9.54-3.49,6.88-1.76,13.67-1.38,20.39-4,6.54-2.58,13.09-1.1,20-.84a165.42,165.42,0,0,1,19,1.9c7.31,1.1,14.79,0,21.91,2.38s11.71,11.06,14.22,17.72,4.86,13.06,7.45,19.53c2.66,6.66,5.32,13.33,7.53,20.15q1.71,5.31,3.08,10.73c1.16,4.65,3.35,10.68,2.08,15.39a.63.63,0,0,0,1.21.33c1.66-6.19-1.49-14.09-3.14-20a209.36,209.36,0,0,0-6.8-20c-2.67-6.84-5.48-13.62-8.05-20.5-2.64-7.08-5.19-13.37-9.88-19.41-3.41-4.39-8.44-5.88-13.8-6.57-7.19-.94-14.27-.81-21.47-2.08-6.23-1.1-12.6-.68-18.9-1.12-3.2-.22-6.53-.79-9.74-.33a20.89,20.89,0,0,0-4.32,1.23,51.83,51.83,0,0,1-13.31,3.13c-3.76.42-7.52.8-11.05,2.27-2.07.87-3.89,2-6.16,2.31s-4.41-.15-6.6,0c-.8,0-.8,1.29,0,1.25Z"/><path class="cls-5" d="M193.37,426.23c7.83,1.88,14.44,6.07,21.67,9.4a51.85,51.85,0,0,0,9.07,3.25c6.7,1.69,8.68,6.86,10.88,12.74,5.88,15.71,6,32.81,8.94,49.16,1,5.35,1.3,10.32,7.84,9.69,5.39-.52,10.39-3.79,14.86-6.57,5.69-3.56,11.7-8.31,18.55-9.12,4.11-.48,8.27.26,12.36.61q7.21.62,14.45.64c2.57,0,5.14,0,7.7-.15,1.31-.05,3.55.37,4.7-.31,1.56-.93,1.35-2.3,1.34-4.07a144.71,144.71,0,0,0-3.5-30.83c-.17-.79-1.38-.46-1.21.33a146.59,146.59,0,0,1,3.4,26.64c.1,3.31-.15,5.86-3.76,6.95-1.65.49-4.06.15-5.78.17q-6.75.09-13.49-.33c-6.35-.4-13.21-2.12-19.45-.28-5.35,1.57-10.09,5-14.74,7.91-4,2.51-12,8.74-17,7.25-2-.59-3.79-3.74-4.36-5.47a19.79,19.79,0,0,1-.49-2.55q-.48-2.55-.88-5.12c-.7-4.53-1.25-9.08-1.82-13.63-1.66-13.27-3-29.12-10.7-40.54a9.07,9.07,0,0,0-5.9-3.95,65.41,65.41,0,0,1-11.7-4.15c-6.81-3.3-13.16-7.09-20.6-8.87-.78-.19-1.11,1-.33,1.2Z"/><path class="cls-5" d="M225,374.48c8.51,3.14,18.1,4.08,26.95,5.86,5.32,1.06,10.66,2.13,15.89,3.59,4.6,1.27,8.27,3.48,12.51,5.62,3.47,1.76,7.11,3.53,9.19,7,2.31,3.84,3.3,8.92,4.54,13.17,2.58,8.76,4.67,17.66,6.43,26.62,3.71,18.86,6,38,8.21,57,.09.79,1.34.8,1.25,0-2.29-19.5-4.59-39-8.44-58.3a292,292,0,0,0-7.33-29.31c-2.06-6.63-3.56-11.8-9.73-15.45-9.32-5.52-18.15-8.28-28.71-10.47-10-2.07-20.83-3-30.43-6.57-.75-.28-1.08.93-.33,1.21Z"/><path class="cls-5" d="M224.92,342.32c.42,10.12,2.72,20.08,3.14,30.2,0,.8,1.28.8,1.25,0-.42-10.12-2.72-20.08-3.14-30.2,0-.8-1.28-.8-1.25,0Z"/><path class="cls-5" d="M235.12,371.62c-.24-14.38-3.87-28.6-5-42.93-.06-.79-1.31-.8-1.25,0,1.09,14.33,4.72,28.55,5,42.93a.62.62,0,0,0,1.24,0Z"/><path class="cls-5" d="M132.44,396.38c-2-3.67-5.08-8.38-4-12.71.63-2.53,5-6.69,7.59-8,.73-.35.1-1.42-.63-1.08a27,27,0,0,0-5.83,4.59,7.54,7.54,0,0,0-2.56,4.09c-1,4.67,2.2,9.82,4.37,13.7a.62.62,0,0,0,1.07-.63Z"/><path class="cls-5" d="M136.22,391.49a19.32,19.32,0,0,1-4-7.2.63.63,0,0,0-1.21.33,20.72,20.72,0,0,0,4.31,7.75c.53.61,1.41-.28.88-.88Z"/><path class="cls-5" d="M131.17,386.73c1.55-7.08,12-6.17,17.48-5.92,7.92.35,15.89-.52,23.82-.66,1.75,0,4-.4,5.69,0,4.63,1,5.29,4.83,5.84,8.61.14,1,.24,1.86.33,2.82.22,2.37.36,4.76.53,7.13,1.18,15.9,2.29,31.8,3.49,47.69.33,4.51.69,8.4,6.6,5.67a.6.6,0,0,0,.31-.54c0-13.46-1.35-27.07-2-40.53-.58-11.93,1.79-35.33-13.37-38.77-.79-.17-1.12,1-.34,1.21,10,2.25,11.25,13.63,11.7,22.24q.51,9.74,1,19.47.56,11.53,1.12,23.07c.13,2.7.26,5.4.41,8.1,0,1,.72,3.79.27,4.78-.73,1.59-3.61.54-4.08-.42a6.7,6.7,0,0,1-.16-2q-.26-3.36-.5-6.74-.81-10.87-1.59-21.77c-.76-10.51-.93-21.27-2.44-31.7-.57-4-1.63-8.72-6.09-9.58-3.16-.6-7.2,0-10.42.1-3.74.1-7.47.27-11.21.48-4.12.22-8.17-.14-12.28,0-2.75.09-7.39-.38-9.84.52-2.29.85-4.92,4.09-5.43,6.43-.18.79,1,1.12,1.2.33Z"/><path class="cls-5" d="M136.7,397.81c-.08-5.74-.6-11.47-.68-17.21a.63.63,0,0,0-1.25,0c.08,5.74.6,11.47.68,17.21a.63.63,0,0,0,1.25,0Z"/><path class="cls-5" d="M155.55,380.43c-.27,1.42-1.19,7.35-.19,8.36,1.51,1.54,6.61-.47,8.43-.25,5.32.64,9.22,6.72,11.83,11.09a42,42,0,0,1,2.89,5.82c.15.37.51,2.23,1,2.65,1.41,1.14,4.62.35,6.19.22.8-.07.8-1.32,0-1.25-4.51.38-5.59-1.56-7.39-5.16a58.06,58.06,0,0,0-5-8.12c-1.69-2.31-4.39-5.18-7.12-6.25-2.2-.88-5.16,0-7.44.21-1.91.14-1.79.54-2.23-.81s0-4.74.23-6.17c.15-.79-1.06-1.13-1.2-.34Z"/><path class="cls-5" d="M187.72,433.62a45.88,45.88,0,0,0-10.9-1c-4.8.23-9.38,1.3-14.21.54-.79-.13-1.13,1.08-.34,1.2a41.32,41.32,0,0,0,10.94-.16,46.91,46.91,0,0,1,14.18.63c.78.15,1.12-1.05.33-1.21Z"/><path class="cls-5" d="M183.93,433.77c-.54,2.51-1.12,5-1.62,7.52-.25,1.24-.64,2.72.45,3.68,2.87,2.55,5.17-.79,6.21-3.07.33-.73-.74-1.36-1.08-.63a8.35,8.35,0,0,1-1.41,2.57c-.41.38-1.66.88-2.22.5-1-.65-.85-2.21-.66-3.14.5-2.37,1-4.73,1.54-7.1.17-.78-1-1.12-1.21-.33Z"/><path class="cls-5" d="M194.4,435.38c4.12-.43,3.25,7.48,3.37,9.71.25,5,.46,9.92.67,14.88.32,7.6,1,15.3.77,22.91a.63.63,0,0,0,1.25,0c.25-9.37-.58-18.86-1-28.21-.21-4.87-.41-9.73-.72-14.59-.2-3.24-.16-6.38-4.34-5.95-.8.08-.8,1.33,0,1.25Z"/><path class="cls-5" d="M194.08,429.55c1.89-.55,6-.06,7.36,1.36.71.73,1,2.75,1.15,3.78.07.44.09.89.14,1.33.18,1.72.23,3.47.33,5.2.28,5.29.49,10.58.69,15.87.31,8.44,1.32,17.35.54,25.79-.08.8,1.17.79,1.25,0,1-10.65-.36-21.94-.81-32.59-.2-4.87-.23-9.83-.79-14.67-.73-6.42-3.82-9.13-10.19-7.27a.62.62,0,0,0,.33,1.2Z"/><path class="cls-5" d="M199,483.58a29.41,29.41,0,0,0,5.14,0,6.32,6.32,0,0,1,1.94,0,3,3,0,0,1,.68,2.65c-.49.81-3.31.56-4.31.57-.82,0-2.43.24-3-.45s-.18-2.39,0-3.08-1-1.12-1.21-.33c-.35,1.58-.65,4.7,1.51,5a23.56,23.56,0,0,0,4.75,0c.86,0,2.3.1,3.05-.46s.52-1.74.46-2.62,0-1.71-.69-2.24-2.19-.36-3.1-.32a29.41,29.41,0,0,1-5.14,0c-.8-.1-.79,1.15,0,1.25Z"/><path class="cls-5" d="M182.67,444c-3.37,4.25-5,9.78-7.06,14.74-.31.74.9,1.07,1.2.33,1.95-4.75,3.52-10.12,6.74-14.18.5-.63-.38-1.52-.88-.89Z"/><path class="cls-5" d="M185.11,444.79a114.26,114.26,0,0,0-7.21,13.56c-.33.73.75,1.37,1.08.63a114.26,114.26,0,0,1,7.21-13.56c.42-.68-.66-1.31-1.08-.63Z"/><path class="cls-5" d="M168.87,462.26a10.89,10.89,0,0,1,7.47-2.43c.43,0,1.48-.14,1.82.18s.21,2.1.22,2.65a21.62,21.62,0,0,1-.5,4.88,4.33,4.33,0,0,1-3.77,3.3c-1.84.27-3.82.58-4.65-1.5a14.27,14.27,0,0,1-.34-3.65l-.34-4c-.07-.8-1.32-.8-1.25,0,.22,2.56.27,5.21.67,7.75a3.36,3.36,0,0,0,1.72,2.87c1.47.61,3.76,0,5.26-.35a4.33,4.33,0,0,0,3.48-2.66,17.61,17.61,0,0,0,1-7.1c0-1.06.14-2.83-.89-3.49s-4.27,0-5.52.19a10.27,10.27,0,0,0-5.22,2.5c-.6.54.29,1.42.89.88Z"/><path class="cls-5" d="M178.42,459.57c2.07-.22,5.65-1.3,7.39-.14,2,1.31,1.68,6,1,8.24-.91,3.13-3.41,3.47-6.14,4.26-3.28,1-7.17,2.38-9.89-.58-.55-.6-1.43.29-.89.88,2.36,2.57,5.45,2.4,8.62,1.63,2.93-.72,7.83-1.1,9.09-4.28,1-2.6,1.61-8.18.05-10.7s-6.81-.82-9.27-.56c-.79.09-.8,1.34,0,1.25Z"/><path class="cls-5" d="M167,452.12l11.88.08a.63.63,0,0,0,0-1.25L167,450.87a.63.63,0,0,0,0,1.25Z"/><path class="cls-5" d="M189.31,450.87l-6.87.09a.63.63,0,0,0,0,1.25l6.87-.09a.63.63,0,0,0,0-1.25Z"/><path class="cls-5" d="M168.33,458.18h8.17a.63.63,0,0,0,0-1.25h-8.17a.63.63,0,0,0,0,1.25Z"/><path class="cls-5" d="M179.22,458.27q9.81-.11,19.63.06a.63.63,0,0,0,0-1.25q-9.82-.16-19.63-.06a.63.63,0,0,0,0,1.25Z"/><path class="cls-5" d="M117.67,411c-19.18,10.37-20.26,38.36-19,57.44a274.66,274.66,0,0,0,5.19,38.64c2.26,10.51,5.16,21.5,10.88,30.72,2.95,4.73,7.45,10.11,13.36,10.89,8.91,1.18,15.19-8,18.09-15.08,6-14.56,6.25-31.55,5.92-47-.27-12.46-.9-26-4.69-37.92-.24-.77-1.45-.44-1.21.33,3.34,10.5,3.94,22.19,4.5,33.14.69,13.61.38,27.81-2.64,41.15-2,8.85-7.21,24.61-18.92,24.23-4.92-.16-9-4.24-11.73-8-6-8.22-9-18.64-11.36-28.42-3-12.66-4.53-25.52-5.77-38.45-1.89-19.63-2-49.8,18-60.6.71-.38.08-1.46-.63-1.08Z"/><path class="cls-5" d="M115.2,407.26c-3.32.44-6.39,3-8.6,5.29-8,8.44-10.72,21.21-12.16,32.31a177.25,177.25,0,0,0,3.92,64.82,104.88,104.88,0,0,0,12.09,29.1c4.25,7,11,15.49,20,15.42,6.51-.06,11.76-4.9,15.38-9.87,7.66-10.53,10.62-24.12,10.91-36.94.19-8.83-.09-17.71-.5-26.52-.32-6.83-.78-13.67-1.72-20.44-.62-4.52-1.28-9.42-3.46-13.5-.38-.71-1.46-.08-1.08.63,4.34,8.12,4.19,19.39,4.74,28.34.57,9.25.78,18.52.78,27.79,0,15.33-2.89,34.37-15.27,45-18.67,16-33.88-17.74-38.36-31.34-6.87-20.82-8.41-44-6.89-65.78.81-11.5,2.91-24.26,9.34-34.11,2.35-3.58,6.68-8.42,10.86-9,.79-.1.8-1.36,0-1.25Z"/><path class="cls-5" d="M111.88,403.39c-2.82,1.9-4.19,6-5.06,9.05a.62.62,0,0,0,1.2.33c.77-2.69,2-6.61,4.49-8.3.66-.45,0-1.53-.63-1.08Z"/><path class="cls-5" d="M130.5,397.31c11.7,2,20.93,13.38,25.77,23.34,2.6,5.35,4.29,11.13,6.08,16.79,2.44,7.75,5.08,15.72,6.09,23.81.1.79,1.35.8,1.25,0-1-8.21-3.66-16.27-6.14-24.15-2-6.27-3.86-12.62-6.9-18.47-5-9.71-14.35-20.54-25.82-22.52-.78-.14-1.12,1.07-.33,1.2Z"/><path class="cls-5" d="M171.52,473.22c1.08,21.77-.21,45.15-7.14,65.9-2,6-4.92,11.92-9.42,16.42-9.18,9.18-23.92,6.25-31-4.19-.45-.66-1.53,0-1.08.63,4.68,6.89,13.76,11.73,22.22,10.34,6.9-1.14,12.07-6.44,15.6-12.15,9.21-14.92,10.78-34.51,11.79-51.51a234.68,234.68,0,0,0,.29-25.44c0-.8-1.29-.81-1.25,0Z"/><path class="cls-5" d="M151.05,436.4c7,14.74,9.24,32.61,10.45,48.61a137,137,0,0,1-3.74,44.66c-1.21,4.58-2.75,9.52-5.8,13.25-2.88,3.52-8.21,8-12.93,7.06-.78-.15-1.12,1.06-.33,1.21,6.54,1.24,13.52-5.49,16.42-10.84,4.42-8.16,5.78-18,6.83-27.13a168.65,168.65,0,0,0-4-59.49,93.56,93.56,0,0,0-5.82-18c-.34-.72-1.42-.09-1.08.64Z"/><path class="cls-5" d="M119,413.32c-10.07,14.16-13.81,33.77-13.67,50.75.09,10.13,2,20.07,3.84,30,1.94,10.71,4.23,21.63,8.3,31.76a56.47,56.47,0,0,0,6.14,10.84c2.7,4,5.65,9.12,10.27,11.07.74.31,1.06-.9.33-1.21-4.61-1.94-7.37-7.49-10.09-11.39a48.77,48.77,0,0,1-5.82-10.6c-3.68-9.48-5.84-19.59-7.7-29.57-1.65-8.91-3.49-17.93-3.91-27a99.4,99.4,0,0,1,5.46-37.7c2-5.62,4.44-11.44,7.93-16.34.46-.66-.62-1.28-1.08-.63Z"/><path class="cls-5" d="M127,484.31c-1.8,1.37-2.35-4.16-2.38-4.68a17.11,17.11,0,0,1,0-2.48l.2-1.47q-.12-1.38.84-.45c2.16,1,.88,7.88.54,9.81-.14.78,1.06,1.12,1.2.33.56-3.14,1.32-7.61-.05-10.65-.58-1.32-2.18-2.43-3.26-1-1.55,2.12-1,15,3.51,11.63.63-.49,0-1.57-.63-1.08Z"/><path class="cls-5" d="M127.32,475.18c3.4,0,7.1.26,10.37-.5.91-.22,1.39-3.22,3.25.19.6,1.11.55,2.91.62,4.11.1,1.75.53,2.61-1.25,3.29-2.22.85-.64,0-2.25-.06-2.06-.12-4.14,0-6.21,0-1,0-3.15-.46-4.06.12-.59.38-.44,1.51-.85,1.77-.67.44,0,1.52.63,1.08a4.21,4.21,0,0,0,.69-.63c1.51-1.4-1.3.31.73-.91a4.66,4.66,0,0,1,2.29-.18h4.54a3.15,3.15,0,0,1,2.57.73c.2.14.28.46.49.58,3,1.77,3.93-1.76,4-4.06.05-2.48.09-8.82-3.46-9.14-1.37-.12-1.51.55-2.27,1.33s-.49.68-1.69.92a17.42,17.42,0,0,1-2.89.07c-1.74,0-3.48.07-5.22.08a.63.63,0,0,0,0,1.25Z"/><path class="cls-5" d="M156.59,450.81h-4.33a.63.63,0,0,0,0,1.25h4.33a.63.63,0,0,0,0-1.25Z"/><path class="cls-5" d="M158,456.73c-1.45.12-2.91.17-4.37.17a.63.63,0,0,0,0,1.25c1.46,0,2.92,0,4.37-.17.8-.07.81-1.32,0-1.25Z"/><path class="cls-5" d="M147.49,450.3h-5.08c-.44,0-.86-.25-1.2,0-1.61,1.17-1.16,4.48-1.15,6.18,0,5.72.33,11.45.49,17.17,0,.81,1.28.81,1.25,0-.14-5.18-.32-10.36-.44-15.55,0-.54,0-1.08-.05-1.62,0-.82.25-5.41-.18-5,.61-.58,5.32.08,6.36.08a.63.63,0,0,0,0-1.25Z"/><path class="cls-5" d="M148.88,457h-1.51a.63.63,0,0,0-.62.62L149.14,518c0,.8,1.28.8,1.25,0l-1.23-31.19-.82-20.68-.26-6.49A5.37,5.37,0,0,1,148,458c.18-.4-.57.29.87.29a.63.63,0,0,0,0-1.25Z"/><path class="cls-5" d="M145.94,534.22l-3.29-51.29c-.05-.8-1.3-.81-1.25,0l3.29,51.29c.05.79,1.3.8,1.25,0Z"/><path class="cls-5" d="M111.87,422.24,134.54,474c.19.44.83.06.64-.38l-22.66-51.76c-.2-.44-.84-.06-.65.38Z"/><path class="cls-5" d="M114.78,415.9l13.59,115.78,1.92,16.37c.06.48.81.48.75,0L117.45,432.27l-1.92-16.37c-.06-.47-.81-.48-.75,0Z"/><path class="cls-5" d="M127,483.16l17.76,51.71c.15.46.88.26.72-.2L127.68,483c-.16-.45-.88-.25-.73.2Z"/><path class="cls-5" d="M108.73,430.07l15.18,44.23c.16.46.88.26.73-.2l-15.19-44.23c-.15-.45-.88-.26-.72.2Z"/><path class="cls-5" d="M107.61,496.32l17.89-11.15c.41-.25,0-.9-.37-.65l-17.9,11.16c-.41.25,0,.9.38.64Z"/><path class="cls-5" d="M105.47,484.48l18.16-5.76c.45-.14.26-.87-.2-.72l-18.15,5.75c-.46.15-.27.87.19.73Z"/><path class="cls-5" d="M103.72,472.49l20.69,2.59c.48.06.48-.69,0-.75l-20.69-2.59c-.47-.06-.47.69,0,.75Z"/><path class="cls-5" d="M103.73,449.09l35.8,69.38,5.07,9.83c.22.43.87.05.65-.38l-35.8-69.38-5.07-9.82c-.22-.43-.87-.05-.65.37Z"/><path class="cls-5" d="M103.54,460.26l21.93,14.15c.4.26.78-.39.38-.65l-21.94-14.15c-.4-.26-.78.39-.37.65Z"/><path class="cls-5" d="M113.25,518.14l18.28-79.24c.1-.47-.62-.67-.73-.2l-18.28,79.24c-.1.47.62.67.73.2Z"/><path class="cls-5" d="M110.07,506.33l27.71-23.26c.37-.31-.16-.84-.53-.53L109.54,505.8c-.37.31.17.84.53.53Z"/><path class="cls-5" d="M107.16,439.77l33.7,32.34c.26.24.76,0,.63-.37l-19.66-55.51c-.16-.45-.88-.25-.72.2l15.33,43.29,3.43,9.68a21.62,21.62,0,0,0,.78,2.22c.27.55.69.09.27-.5-1.6-2.24-4.36-4.18-6.34-6.08l-10.4-10-16.49-15.83c-.35-.34-.88.19-.53.53Z"/><path class="cls-5" d="M118,528.21,135.22,483c.17-.45-.55-.65-.72-.2L117.31,528c-.17.45.55.65.72.2Z"/><path class="cls-5" d="M121.18,535.45l5.38-50c.06-.48-.69-.48-.75,0l-5.38,50c-.05.48.7.48.75,0Z"/><path class="cls-5" d="M126,542,140.65,485a.37.37,0,0,0-.72-.2L125.3,541.83a.37.37,0,0,0,.72.2Z"/><path class="cls-5" d="M136.33,545.69l-.28-62.76a.38.38,0,0,0-.75,0l.28,62.76a.38.38,0,0,0,.75,0Z"/><path class="cls-5" d="M151.86,501.64l-2.64-2.06c-.37-.29-.91.23-.53.53l2.64,2.07c.38.29.91-.24.53-.54Z"/><path class="cls-5" d="M143.42,497.28l-15.84-12.7c-.37-.3-.91.23-.53.53l15.84,12.7c.37.29.9-.23.53-.53Z"/><path class="cls-5" d="M148.42,489.21l3,1.91c.4.27.78-.38.37-.64l-3-1.92c-.41-.26-.78.39-.38.65Z"/><path class="cls-5" d="M148.51,481.6c.92.28,1.84.6,2.77.83.47.11.67-.61.2-.72-.93-.23-1.85-.55-2.77-.83-.46-.15-.66.58-.2.72Z"/><path class="cls-5" d="M148,473.1h2.73a.38.38,0,0,0,0-.75H148a.38.38,0,0,0,0,.75Z"/><path class="cls-5" d="M155.39,473.1h5.46a.38.38,0,0,0,0-.75h-5.46a.38.38,0,0,0,0,.75Z"/><path class="cls-5" d="M155.64,483.52l6.42,2.32c.45.16.65-.56.2-.73l-6.42-2.32c-.46-.16-.66.57-.2.73Z"/><path class="cls-5" d="M155.85,493.48l6.56,4.08c.41.26.79-.39.38-.65l-6.56-4.08c-.41-.26-.79.39-.38.65Z"/><path class="cls-5" d="M199.05,487.35a166.34,166.34,0,0,1,.32,23.52c-.22,4.18.56,6.62,5.56,5.4,3.75-.92,3.42-3.91,3.31-7.28-.23-7.38-.36-14.75-.24-22.14a.63.63,0,0,0-1.25,0q-.1,6.47,0,12.92c0,2.46.11,4.92.19,7.38.11,3.15.83,4.36-1.68,6.48-4.25,3.59-4.67-1.5-4.5-4.72.13-2.28.19-4.57.21-6.86,0-4.92-.22-9.81-.65-14.7-.07-.8-1.32-.81-1.25,0Z"/><path class="cls-5" d="M195.07,515.19c-.07-3.44-.22-6.87-.5-10.3-.12-1.35-1-4.24.36-5.21.91-.63,3.69-.24,4.78-.19.81,0,.8-1.21,0-1.25-2.11-.09-6.1-.68-6.78,2-.43,1.7.35,4.14.49,5.91.22,3,.34,6,.4,9a.63.63,0,0,0,1.25,0Z"/><path class="cls-5" d="M195.89,498.35a5.41,5.41,0,0,1,3.86-5.35c.76-.25.44-1.46-.33-1.2a6.67,6.67,0,0,0-4.78,6.55c0,.8,1.29.81,1.25,0Z"/><path class="cls-5" d="M205.52,467c2,0,5.22,4.57,5.94,6.35a36.42,36.42,0,0,1,1.25,4.44c.64,2.37,1.23,4.76,1.8,7.15,1.28,5.39,2.42,10.81,3.57,16.23a283.7,283.7,0,0,0,8,31.23c.26.76,1.46.44,1.21-.33-4.41-13.15-7-26.74-10-40.26a183.39,183.39,0,0,0-4.94-19.62c-1.18-3.49-2.91-6.35-6.89-6.44a.63.63,0,0,0,0,1.25Z"/><path class="cls-5" d="M204.48,459.32c14.39.91,15.83,22.64,18.39,33.32,2.91,12.2,5.48,24.56,9.33,36.51.25.76,1.45.43,1.21-.33-4.86-15.07-8-30.75-11.64-46.14-2.34-9.79-4.79-23.82-17.29-24.61-.81-.05-.8,1.2,0,1.25Z"/><path class="cls-5" d="M150.54,447.24c6.19,10.93,5.59,60.15,5.59,60.15-.82,30.37-15.44,41.76-15.44,41.76-18.25,15.85-32.59-16-32.59-16-18.16-31.69-13.62-82.95-13.62-82.95,3.59-40.23,20.72-42.31,20.72-42.31l1.75.91.38.54.58,1.21.07,1c-24.78,12.77-18.13,62.27-18.13,62.27s4.29,68.74,27.89,74.19c0,0,26.17,6.29,23.69-65.07,0,0-1.19-24-4.56-34.11l.16-1.55.75-1.13.82-.43,1.18.37Z"/><polygon class="cls-5" points="125.06 553.93 126.35 551.92 137.47 550.67 141.66 550.39 145.71 549.04 151.81 544.05 154.03 541.01 156.15 536.65 158.8 528.11 160.15 521.5 161.62 513.91 162.22 506.08 162.44 494.67 161.81 481.24 160.26 468.66 158.91 459.75 157.12 451.7 154.58 443.23 152.19 437.44 151.32 437.05 151.64 431.91 150.92 426.68 147.99 422.91 143.55 418.49 137.85 411.3 135.08 408.81 134.86 407.13 134.37 403.49 131.27 397.81 132.5 397.18 138.47 399.24 144.97 404.17 151.75 411.33 158.24 423.48 163.43 438.8 166.12 447.93 168.33 454.86 169.35 461.25 168.16 462.69 168.42 464.83 168.72 468.41 171.06 472.73 172.17 473.81 172.43 481.77 172.14 492.6 171.91 501.2 171.12 511.73 169.74 521.08 168.28 529.33 164.51 540.7 159.47 550.91 153.72 557.53 147.87 560.73 142.7 561.56 137.68 561.23 130.71 558.46 126.66 555.62 125.06 554.16 125.06 553.93"/></g></g></svg>