<svg xmlns="http://www.w3.org/2000/svg" viewBox="0 0 800 500"><defs><style>.cls-1{fill:#efefef;}.cls-2{fill:#7837f1;}.cls-3{fill:#a693f0;}.cls-4{fill:#5822cc;}.cls-5{fill:#8a72f7;}.cls-6{fill:#471188;}.cls-7{fill:#4e008e;}</style></defs><title>Wall of Support</title><g id="Drawing_1"><rect class="cls-1" width="800" height="500"/><polygon class="cls-2" points="252.09 318.83 251.11 309.97 251.11 299.38 252.74 289.9 258.51 284.12 264.03 281.43 273.12 281.43 289.22 281.35 293.64 281.19 298.85 282.92 303.42 284.12 309.81 284.1 315.62 283.54 321.47 282.13 327.29 279.78 404.87 276.21 425.47 275.29 433.93 276.47 439.71 281.43 442.7 290.57 443.5 321.63 445.06 346.04 445.69 356.21 443.76 362.64 440.52 367.06 435.46 370.02 422.9 371.68 399.97 372.15 343.57 373.87 334.58 375.13 332.31 373.55 329.87 372.64 325.28 373.11 321.1 374.72 319.28 376.29 310.27 376.05 308.18 376.29 303.36 374.58 301.39 373.87 296.38 375.25 293.17 377.02 288.56 377.11 278.81 377.54 270.93 377.9 262.81 376.97 256.02 372.21 254.03 362.03 253.56 351.87 254.22 344.46 267.73 341 276.25 339.36 285.7 338.39 297.32 338.22 303.88 336.66 308.61 332.23 309.61 329.24 309.01 325.52 305.96 321.78 303.15 320.51 295.69 318.99 287.76 318.83 277.59 318.83 264.87 318.95 252.09 318.83"/><polygon class="cls-3" points="274.54 289.72 361.34 285.84 420.29 283.2 423.95 365.14 279.82 371.68 277.64 371.31 276.37 354.31 276.25 339.36 282.42 338.49 288.37 337.98 293.51 337.98 300.57 337.78 304.54 336.51 306.99 333.75 309.32 331.12 309.8 326.59 309.01 324.61 307.44 322.7 304.78 320.81 298.88 318.95 275.29 318.62 274.54 289.72"/><polygon class="cls-4" points="550.1 165.07 551.44 156.25 551.87 145.67 550.62 136.13 545.08 130.12 539.67 127.22 530.59 126.86 514.5 126.13 510.09 125.79 504.82 127.31 500.2 128.33 493.82 128.05 488.04 127.26 482.25 125.62 476.52 123.04 399.15 116.37 378.61 114.63 370.1 115.47 364.13 120.19 360.77 129.2 358.73 160.21 356.2 184.53 355.17 194.67 356.83 201.17 359.89 205.72 364.83 208.88 377.31 211.04 400.2 212.43 456.5 216.4 465.43 218.02 467.76 216.53 470.24 215.72 474.81 216.38 478.91 218.15 480.67 219.79 489.68 219.91 491.76 220.24 496.65 218.72 498.64 218.09 503.59 219.66 506.73 221.57 511.33 221.84 521.06 222.66 528.92 223.33 537.07 222.73 544.04 218.24 546.44 208.15 547.31 198.02 546.95 190.59 533.59 186.59 525.15 184.61 515.74 183.26 504.13 182.63 497.64 180.81 493.1 176.2 492.22 173.16 492.96 169.47 496.16 165.86 499.02 164.71 506.53 163.48 514.46 163.64 524.63 164.05 537.33 164.67 550.1 165.07"/><polygon class="cls-5" points="528.84 135.08 442.26 127.73 383.46 122.74 376.52 204.46 520.28 216.77 522.48 216.48 524.43 199.54 525.15 184.61 519.01 183.5 513.09 182.75 507.95 182.54 500.9 182.06 496.99 180.63 494.65 177.78 492.43 175.05 492.13 170.51 492.99 168.56 494.65 166.72 497.38 164.94 503.35 163.31 526.93 163.93 528.84 135.08"/><path class="cls-6" d="M291,271.26l1,9.71a.67.67,0,0,0,.46.6,43.93,43.93,0,0,0,21.79,2.8c4.73-.61,12.91-2,16.13-6.07,4.27-5.34,1.34-13.76-5.92-13.93-3.62-.08-6.72,1.65-10.48.88s-7.3-3-10.83-4.68c-6.8-3.18-14.15-2.59-21.23-4.76-6.26-1.92-12.71-6.82-19.43-6.89-2.91,0-5.69,1.12-8.41,2a119,119,0,0,1-13.77,3.59c-9.77,1.93-19.48,1.46-29.3,2.57-6.23.7-12,2.91-15.81,8.09-.42.58.51,1.28,1,.76,4.84-5.25-12.88-4.9-14.94-5-11.42-.4-22.85-.58-34.27-.85-12.58-.29-25.16-.6-37.73-1.22-8.7-.43-17.79-.57-26.31-2.56-.78-.18-1.12,1-.33,1.2,7,1.63,14.31,1.91,21.42,2.33,11.07.65,22.16,1,33.25,1.27s22.35.5,33.52.78c4.32.11,8.63.23,12.94.4,1.71.06,3.41.14,5.11.23.53,0,8.31.51,6.46,2.51l1,.76c6-8.14,16.33-7.61,25.37-7.92a119,119,0,0,0,24.55-3.4c4.07-1,8-2.56,12-3.6,5.43-1.4,9.52.43,14.44,2.63a62.59,62.59,0,0,0,19.27,5.36c8,.88,13.59,5.41,21,7.41,5.73,1.55,17.47-3.84,17.91,5.22.46,9.5-12.71,11.56-20,11.92A41.85,41.85,0,0,1,297.59,282c-2-.55-3.63-.72-4.55-3-.84-2.09-.56-5.52-.78-7.77-.09-.79-1.34-.8-1.25,0Z"/><path class="cls-6" d="M291.87,279.54c-2.65,1.86-5.95,1.19-9,1-2.71-.19-5.49,0-7.52-2.58a19.08,19.08,0,0,1-1.5-3.2,19.64,19.64,0,0,0-9.52-8.87c-.73-.33-1.36.75-.63,1.08a19.19,19.19,0,0,1,9.41,9.1c.9,1.8,1.44,3.75,3.3,4.77,2.61,1.43,6.8,1.06,9.63,1.18,2.41.09,4.41.05,6.44-1.38.66-.45,0-1.54-.63-1.07Z"/><path class="cls-6" d="M274.67,279.47c-1.19,2.06-6.14,1.77-8.24,2l-6.82.81c-.79.09-.8,1.34,0,1.25L271,282.2c1.88-.23,3.74-.32,4.77-2.1a.63.63,0,0,0-1.08-.63Z"/><path class="cls-6" d="M218.76,307.77a18.9,18.9,0,0,0,22.36-2c3.42-3.05,5.81-7.06,8.42-10.77a150.91,150.91,0,0,1,13.21-15.68c.55-.59-.34-1.48-.88-.89a178.17,178.17,0,0,0-15.68,19.24c-6.36,9.12-15.8,15.4-26.79,9a.63.63,0,0,0-.64,1.08Z"/><path class="cls-6" d="M254.53,368.25c-5.79-3.13-10.72-6.21-17.17-7.84-.78-.2-1.12,1-.34,1.2,6.34,1.6,11.21,4.65,16.88,7.72.71.38,1.34-.69.63-1.08Z"/><path class="cls-6" d="M290.82,385.68c0-4.38,1.24-7.69,5.37-9.63,3.37-1.58,4.91-1.71,8.44-.1,2.82,1.28,4.4,1.87,3.76,5.14a6.32,6.32,0,0,1-3,4.33c-1.1.63-2.59.46-3.78,1.17-2.48,1.46-3.33,3.73-6.56,4-2.82.22-5.33-1-7.9-2-6.19-2.42-10.72-6.09-15.78-10.29-.62-.51-1.51.37-.89.88,6.67,5.54,14.64,12.38,23.84,12.89,3.94.21,5.46-2.14,8.4-4.06,2.44-1.6,5.87-1.3,6.79-4.54,1.48-5.19-1.35-10.88-7-10.46-7.87.58-13,4.79-12.91,12.69a.63.63,0,0,0,1.25,0Z"/><path class="cls-6" d="M318.23,380.05c1.41-6.21,12.15-10,15.86-3.31,2,3.65.92,9.1-2.88,10.84-4.26,1.95-7.89,3.25-12.63,2.42a35.32,35.32,0,0,1-10.83-3.94c-.7-.39-1.34.69-.63,1.08,5.49,3,12.92,5.88,19.19,4,4.44-1.36,10.51-3.38,10.26-8.84-.21-4.48-1.38-9.81-6.47-10.22-5.5-.45-11.77,1.89-13.07,7.67-.18.78,1,1.12,1.2.33Z"/><path class="cls-6" d="M338.23,375.22c7.06,5.78,17.3,14.95,27.2,13.89,7-.75,9.86-10.55,5.6-15.68-.51-.62-1.39.27-.88.88,1.89,2.28,1.8,6.66.72,9.35-2.82,7-11.57,3.62-16.24,1.37-5.69-2.74-10.66-6.72-15.51-10.7-.62-.5-1.51.38-.89.89Z"/><path class="cls-6" d="M252.63,345.08l.75,16.53c.28,6.13,1.73,11.87,7.52,15.14,4.78,2.69,10.38,1.76,15.6,1.52l16.48-.73c.81,0,.81-1.29,0-1.25l-13.12.58c-4.62.21-10.35,1.3-14.93.14-13.18-3.35-10.57-21.47-11.05-31.93,0-.8-1.28-.8-1.25,0Z"/><path class="cls-6" d="M293.64,280.56l-17.57.79c-5.33.24-12.05-.44-17,1.81-7.11,3.2-8.71,10.06-8.39,17.11l.83,18.56c0,.8,1.29.81,1.25,0L252,302.7c-.09-1.87-.28-3.77-.26-5.65.1-7.49,5.17-13.25,12.69-13.93,9.68-.88,19.51-.87,29.21-1.31.8,0,.81-1.28,0-1.25Z"/><path class="cls-6" d="M334.58,375.75,397,372.91l31.53-1.43c9.43-.43,17.27-5.2,17.16-15.72-.22-21.67-1.94-43.41-2.91-65.06-.42-9.53-6.31-16.4-16.31-16.08-9,.29-18,.81-27,1.21L328,279c-.8,0-.8,1.28,0,1.25l56.67-2.54L419,276.21c2.67-.12,5.37-.36,8-.36,7.76,0,13.75,4.93,14.41,12.84,1.74,20.71,1.87,41.68,2.8,62.44.14,3.31.6,6.84-.5,10-2.23,6.4-8,8.75-14.14,9l-27.87,1.27-67.11,3.05c-.8,0-.8,1.29,0,1.25Z"/><path class="cls-6" d="M309,376.92l10.71-.49c.8,0,.81-1.29,0-1.25l-10.71.49c-.81,0-.81,1.28,0,1.25Z"/><path class="cls-6" d="M275.6,339.71l1.43,32a.63.63,0,0,0,.62.63l128.11-5.73,18.19-.82a.63.63,0,0,0,.63-.62l-3.67-81.94a.62.62,0,0,0-.62-.62l-128.11,5.73-18.19.81a.63.63,0,0,0-.63.62l1.31,28.88c0,.8,1.29.81,1.25,0L274.85,295c-.06-1.45,0-3-.2-4.42-.17-1.25-.46-.23-.44-.24a14.75,14.75,0,0,1,3.52-.16l44.43-2c32.52-1.45,65-3,97.56-4.36.4,0,.79.12.25-.33s-.16.38-.25.91c-.39,2.26.23,5.14.33,7.42l1.2,26.88,1.35,30.11.48,10.86c.08,1.57.56,3.68.24,5.24.17-.82.86-.13-.84-.36a32.5,32.5,0,0,0-5.48.25l-20.55.92-60.52,2.7-50.14,2.24-6.06.28c-1.61.07-1.92-.36-1.46.62-1-2.08-.29-6.53-.39-8.78l-.67-15.1-.36-8c0-.8-1.29-.8-1.25,0Z"/><path class="cls-6" d="M62.35,370.16c4.5-6.05,10.9-9.73,17.33-13.41a94.14,94.14,0,0,0,15.93-11.3c12.27-10.84,27.57-18.57,41.52-27.06a65.23,65.23,0,0,1,10.93-5.78c4-1.47,8.05-1.87,12.19-2.51,7.09-1.11,14.16-3.41,21.41-2.77,6.87.61,13.52,3.28,20,5.36s14,3.49,17.73,10a.63.63,0,0,0,1.08-.63c-2.9-5.1-7.9-7.25-13.27-9-7-2.23-14-4.86-21.16-6.33-6.72-1.38-13.15-.42-19.79.93-8.11,1.65-16.12,2.1-23.59,6-8.39,4.38-16.35,9.82-24.42,14.76-7.06,4.32-14.44,8.36-20.81,13.7a147.92,147.92,0,0,1-21.07,15c-5.75,3.34-11.12,6.95-15.13,12.34-.48.65.6,1.27,1.08.63Z"/><path class="cls-6" d="M157.23,321.55a417.58,417.58,0,0,0,53.15,2.59c7.81-.15,14.68-2.17,22.27-3.58,9.1-1.69,18.87-.82,28.09-.86l25.61-.1c5.95,0,21.7-1.41,22.83,7.24,1.06,8.08-7.58,10.08-13.63,10.41-8,.43-15.85.73-23.69,2.24-9.52,1.83-18.63,5-28.31,6.05-9.46,1-19,1-28.45,2-.79.08-.8,1.33,0,1.25,9.76-1.06,19.61-1,29.36-2.09,8.87-1,17.26-3.84,26-5.65,10.15-2.11,20.46-1.24,30.58-2.95a10.69,10.69,0,0,0,8.8-7.12c4.27-12.74-14.79-12.66-22.47-12.63l-31.52.12c-9.43,0-18.7-.4-27.91,1.92-11.61,2.93-23.24,2.7-35.14,2.38s-23.73-1.18-35.54-2.47c-.8-.09-.79,1.16,0,1.25Z"/><path class="cls-6" d="M237.83,347.17c1.61,6.32,2,12.14-4.05,16.14A60.62,60.62,0,0,1,221.52,369c-5.28,2-13.78,3.58-17,8.61-.43.68.65,1.31,1.08.63,3-4.68,11.31-6.2,16.27-8a61.42,61.42,0,0,0,12.56-5.8c6.64-4.36,6.44-10.45,4.63-17.56a.63.63,0,0,0-1.21.34Z"/><path class="cls-6" d="M224,369.33c4.27,4.22,9.31,11.46,3.69,16.94-3.31,3.22-8.32,5-12.44,6.92-7,3.21-13.69,6.62-18,13.25-.44.68.64,1.31,1.08.63,6.91-10.73,20-11.62,29.28-19.15,7.12-5.77,2.48-14.3-2.76-19.48-.58-.56-1.46.32-.89.89Z"/><path class="cls-6" d="M66.89,443.08c8-5.25,16-11,24.34-15.73a35,35,0,0,1,13.66-4.22c3.83-.45,7.79-.66,11.38-2.22,3.82-1.65,6.58-5.1,10.6-6.36,4.47-1.4,9.18,0,13.55,1.07,2.11.52,4.21,1,6.35,1.39a37.05,37.05,0,0,1,7.21,2.34,93.62,93.62,0,0,0,10.75,2.91c15.24,3.73,30.28,2,44.07-5.62,5.54-3.07,12.68-7.26,15-13.57,1.7-4.58.28-9.72-4.21-12-.72-.36-1.35.72-.63,1.08,6.35,3.16,4.65,10.66.75,15-2.78,3.09-6.55,5.48-10.11,7.56a60.14,60.14,0,0,1-23.38,8.08,60.78,60.78,0,0,1-21.88-1.91,129.42,129.42,0,0,1-12.58-4c-2.82-1-5.74-1.22-8.66-1.91-5.84-1.37-12.18-3.65-18-1.1-2.44,1.06-4.3,2.94-6.52,4.34-4.25,2.68-8.82,3.08-13.67,3.64C90.24,423.59,78.25,434.17,66.26,442c-.68.44-.05,1.52.63,1.08Z"/><path class="cls-6" d="M511.9,115.79c-.33,2.27-.19,5.63-1.1,7.72-1,2.36-2.57,2.46-4.71,2.95a42,42,0,0,1-13.32.89,39.85,39.85,0,0,1-14.3-4c-3.73-1.92-5.14-3.55-5.11-7.71,0-5.34,4.21-7,9.23-6.07,2.66.48,4.64,1.23,7.43.84a32.35,32.35,0,0,0,8.52-2.94,39.28,39.28,0,0,1,14.21-3.89c7.75-.5,14.44-2.58,21.63-5.48,4.5-1.82,8.33-2.55,13.08-.89,3.84,1.34,7.6,2.81,11.52,3.93a117.13,117.13,0,0,0,23.12,4.19c9.26.74,20.08.37,25.91,9l1-.76c-1.78-2.09,5.54-2.22,6-2.22,1.68,0,3.35-.05,5-.05,4.29,0,8.58.05,12.87.11,11.23.16,22.47.4,33.7.56s22.42.29,33.63.08c7.21-.13,14.64-.12,21.75-1.48.79-.15.45-1.35-.34-1.2-8.69,1.66-17.89,1.42-26.7,1.5-12.51.11-25-.08-37.52-.29-11.35-.19-22.7-.46-34.06-.52-2.1,0-19.9-1.11-15.22,4.39.46.54,1.38-.17,1-.76-7.93-11.78-25.38-8.86-37.52-11-8.22-1.42-15.93-4-23.78-6.75-6.87-2.4-12,.34-18.46,2.78a54,54,0,0,1-10.7,3c-4,.63-8.13.34-12.09,1.24-7.64,1.74-14,7.71-22.23,5.72-4-1-8.87-1.61-11.61,2.61-1.35,2.08-.82,6.34,0,8.59,1.73,4.8,10.57,6.91,14.87,7.84a44,44,0,0,0,23.72-1.6.62.62,0,0,0,.44-.43l1.37-9.66c.11-.79-1.09-1.13-1.2-.33Z"/><path class="cls-6" d="M511.27,125.28c2,1.52,4,1.63,6.39,1.61,2.79,0,6.28.37,8.9-.56,1.94-.69,2.62-1.86,3.64-3.63,2.6-4.52,5.2-7.81,10.24-9.89.73-.31.41-1.52-.34-1.21a20,20,0,0,0-9.64,7.89c-2.18,3.52-3,5.55-8,6-3.28.3-7.8.78-10.52-1.3-.63-.49-1.26.59-.63,1.08Z"/><path class="cls-6" d="M528,125.44c1,1.93,3.12,2,5.1,2.33l10.74,1.71c.79.13,1.13-1.08.34-1.2l-7.36-1.17c-1.92-.31-6.68-.3-7.74-2.3-.37-.71-1.45-.08-1.08.63Z"/><path class="cls-6" d="M583.24,154.26c-10.74,5.7-20.06-.26-26-9.45a186.61,186.61,0,0,0-15.33-20.53c-.52-.61-1.4.28-.88.88a155.44,155.44,0,0,1,12.14,15.53c2.78,4.24,5.18,8.87,9,12.3a18.84,18.84,0,0,0,21.68,2.35c.71-.38.08-1.46-.63-1.08Z"/><path class="cls-6" d="M546.29,215.44c5.79-2.84,10.8-5.68,17.18-7,.79-.16.45-1.37-.33-1.2-6.53,1.37-11.56,4.24-17.48,7.15-.72.36-.09,1.44.63,1.08Z"/><path class="cls-6" d="M510,230.33c.36-7.81-4.11-11.62-11.62-13-6-1.11-9.55,4.22-8.22,10,.58,2.52,2.12,2.69,4.3,3.52,3.6,1.38,5.11,5.14,9.11,5.67s8.69-1.66,12.4-3.07c5-1.91,9-5.48,13.25-8.71.63-.48,0-1.57-.63-1.08-4.68,3.58-8.91,7.1-14.51,9.13-2.37.86-6.49,2.86-9.06,2.54-3.32-.4-4.82-2.83-7.11-4.51-1.15-.84-2.62-.61-3.74-1.31a5.87,5.87,0,0,1,.06-10.09c2.94-1.68,6.56-.48,9.52,1,3.93,2,5.19,5.68,5,9.92,0,.81,1.21.81,1.25,0Z"/><path class="cls-6" d="M482.77,223.29c-1-5.64-6.8-8.15-12.14-8.18-5.6,0-7.41,5.5-7.52,10.55s5.91,7.25,10,8.66c6.21,2.16,13.72-.43,19.33-3.21.72-.36.08-1.44-.63-1.08a33.79,33.79,0,0,1-12.49,3.66c-4.29.31-7.29-1.22-11-3.11-3.43-1.73-4.75-7.58-2.42-11,4.15-6,14.51-2.51,15.71,4,.14.79,1.35.45,1.2-.33Z"/><path class="cls-6" d="M461,217c-4.62,3.48-9.32,7-14.57,9.47-3.37,1.59-8.13,3.76-11.91,3-5.19-1.05-8.79-9-4.62-13.67.53-.59-.35-1.48-.89-.88-4.24,4.71-2.16,14.3,4.32,15.74,9.78,2.16,21.16-7.2,28.3-12.58.63-.48,0-1.56-.63-1.08Z"/><path class="cls-6" d="M547.26,191.25c-.89,10.43,1,28.65-12.34,31.44-4.49.94-9.95-.32-14.42-.7l-13.58-1.15c-.8-.07-.8,1.18,0,1.25l16,1.35c5.32.46,11.15,1.71,16.12-.87,5.76-3,7.55-8.46,8.06-14.47l1.44-16.85c.07-.8-1.18-.79-1.25,0Z"/><path class="cls-6" d="M510.09,126.42c9.68.82,19.51,1.17,29.13,2.47,7.5,1,12.33,7,12.1,14.46-.06,1.87-.32,3.76-.48,5.63l-1.37,16.09c-.06.8,1.19.79,1.25,0l1.58-18.51c.6-7.06-.74-13.92-7.73-17.43-4.88-2.45-11.66-2-17-2.48l-17.53-1.48c-.8-.07-.8,1.18,0,1.25Z"/><path class="cls-6" d="M465.42,217.39l-57.36-4.91L375,209.64c-2.13-.18-4.29-.27-6.41-.55-8-1-12.63-7.55-12.07-15.37,1.52-21.19,3.6-42.36,5.4-63.54.47-5.6,1.93-10.86,7.47-13.69,3.54-1.82,7.06-1.42,10.77-1.11l29.49,2.51,66.18,5.62c.8.06.8-1.19,0-1.25L414.42,117l-33-2.8a40.74,40.74,0,0,0-7.48-.38c-7.15.72-12.18,6.41-13,13.33-2.64,21-3.6,42.38-5.39,63.49-.31,3.65-.74,7.14.71,10.67,2.2,5.36,7,8.36,12.63,9,8.18,1,16.45,1.41,24.65,2.12l71.91,6.16c.81.07.8-1.18,0-1.25Z"/><path class="cls-6" d="M490.92,219.58l-10.69-.92c-.8-.07-.79,1.19,0,1.25l10.69.92c.81.07.8-1.18,0-1.25Z"/><path class="cls-6" d="M524.53,185l-2,23c-.17,2,.37,7.08-.75,8.82.71-1.1-.2-.66-1.58-.78l-41.19-3.5-61.41-5.21-25.3-2.15c-4.58-.39-9.74-1.53-14.35-1.22-1.81.13-.9-.39-.82.25-.2-1.68.32-3.75.46-5.44l2.12-24.89,2.6-30.68,1-12.15c.19-2.2.94-5,.62-7.21-.23-1.57-.51-.46,0-.43,1.42.06,2.85.24,4.27.36L407,125.36l59.33,5,52.32,4.44c3,.26,7.7-.25,10.53.9.09,0-.35-1-.5.06-.2,1.51-.26,3.06-.39,4.59L527,155.27l-.74,8.66c-.07.8,1.18.8,1.25,0l2.46-28.8a.64.64,0,0,0-.62-.63L401.62,123.65l-18.15-1.54a.64.64,0,0,0-.63.63l-6.94,81.72a.64.64,0,0,0,.63.63L504.3,215.94l18.15,1.54c.35,0,.59-.31.62-.63L525.78,185c.07-.81-1.18-.8-1.25,0Z"/><path class="cls-6" d="M738.73,223.34c-3.79-5.54-9-9.38-14.64-12.93a148.08,148.08,0,0,1-20.44-15.87C697.5,189,690.28,184.62,683.4,180c-7.87-5.26-15.61-11-23.81-15.73-7.31-4.2-15.28-5-23.34-6.93-6.58-1.62-13-2.82-19.74-1.71-7.23,1.19-14.33,3.53-21.39,5.48-5.45,1.5-10.5,3.45-13.61,8.44-.42.68.66,1.31,1.08.63,4-6.34,11.48-7.43,18.14-9.27s13.33-4.2,20.23-4.55c7.27-.37,14.25,2.24,21.28,3.63,4.1.81,8.1,1.4,12,3A64.84,64.84,0,0,1,665,169.24c13.6,9,28.55,17.39,40.4,28.7a94.75,94.75,0,0,0,15.47,11.93c6.29,3.95,12.51,7.86,16.77,14.1.46.66,1.54,0,1.08-.63Z"/><path class="cls-6" d="M644.8,170.32c-10.2.71-20.42,1.09-30.66,1.08s-21.1.32-31.24-1.52c-4.76-.86-9.25-2.7-14-3.72-4.5-1-9.12-1-13.71-1.21l-30.5-1.35c-7-.3-33.88-4.85-33.23,8.48a10.68,10.68,0,0,0,5.28,9c2.49,1.4,5.39,1.56,8.16,1.83,5.72.55,11.47.91,17.15,1.81,10.53,1.67,20.35,5.9,30.78,7.88,10.85,2.06,21.95,2.25,32.86,3.88.79.11,1.13-1.09.33-1.21-7.65-1.14-15.36-1.62-23-2.46-9-1-17.09-3.28-25.68-5.8a123,123,0,0,0-22.57-4.45c-7.14-.7-19,.69-21.6-7.95s8.64-10.55,14.91-10.46c8.82.13,17.67.77,26.49,1.16s17.72.61,26.56,1.17c8.41.54,16,4,24.26,5,19.45,2.48,39.92,1.42,59.42.07.8,0,.81-1.3,0-1.25Z"/><path class="cls-6" d="M562,193.59c-2.09,7-2.51,13.12,4,17.72a59.11,59.11,0,0,0,11.53,6c5,2.11,13.75,4,16.71,9a.63.63,0,0,0,1.08-.63c-3-5.17-11.42-7.08-16.67-9.26a59.86,59.86,0,0,1-12-6.17c-5.94-4.28-5.25-10-3.38-16.31a.62.62,0,0,0-1.2-.33Z"/><path class="cls-6" d="M575.25,215.74c-5.4,4.94-10.44,13.38-3.5,19.35,9,7.81,22,9.33,28.48,20.32a.63.63,0,0,0,1.08-.63c-4-6.8-10.6-10.47-17.43-14-4-2-9-4-12.14-7.41-5.32-5.75-.07-12.71,4.4-16.78.59-.55-.29-1.43-.89-.89Z"/><path class="cls-6" d="M730.84,295.56c-7-5-13.88-10.07-21-14.89a41.61,41.61,0,0,0-18.32-7c-4.27-.66-8.31-1.45-11.94-4-2.57-1.79-4.73-4-7.72-5.14-5.44-2-11.38-.09-16.8.94-3,.56-5.87.62-8.72,1.56a114,114,0,0,1-12.74,3.47c-7.77,1.62-15.58,2.24-23.42.76a61.28,61.28,0,0,1-21.55-8.75c-3.46-2.22-7.14-4.77-9.8-8-3.73-4.5-5.09-12,1.4-14.93.73-.33.09-1.41-.64-1.08-5.06,2.27-6.33,8.13-4.18,13,2.57,5.77,8.82,9.81,14,13,13.46,8.18,28.44,10.47,43.81,7.36a92.84,92.84,0,0,0,10.86-2.48,113.49,113.49,0,0,1,13.7-3.19c4.91-1,10.08-2.23,14.86,0,3.82,1.82,6.38,5.24,10.39,6.81,3.65,1.42,7.6,1.66,11.43,2.33a33.3,33.3,0,0,1,12,4.54c8.2,5,15.86,11.12,23.7,16.69.66.47,1.28-.62.63-1.08Z"/><path class="cls-7" d="M310.82,310a17.46,17.46,0,0,0-15.41,9.24l2.54.12,5.2,1.18,4.29,2.19,1.58,1.91,1,5.31-3,3.83-5.16,3.56-5,.58a17.47,17.47,0,1,0,14-27.92Z"/><path class="cls-7" d="M491.16,191.5a17.48,17.48,0,0,0,15.42-9.24l-2.54-.12L498.83,181l-4.28-2.19L493,176.86l-1-5.31,2.66-4.83,5.52-2.56,5-.58a17.47,17.47,0,1,0-14,27.92Z"/><g id="Background"><polyline class="cls-1" points="293.64 319.13 298.91 319.5 305.95 321.21 308.1 323.23 309.99 327.44 308.95 332.21 306.33 335.16 297.82 337.75 295.16 338.08 289.99 328.6 293.64 319.13"/></g></g></svg>