<svg xmlns="http://www.w3.org/2000/svg" xmlns:xlink="http://www.w3.org/1999/xlink" viewBox="0 0 800 500"><defs><style>.cls-1{fill:none;}.cls-2{clip-path:url(#clip-path);}.cls-3{fill:#efefef;}.cls-4{fill:#471188;}.cls-5{fill:#5822cc;}.cls-6{fill:#a693f0;}</style><clipPath id="clip-path"><rect class="cls-1" width="800" height="500"/></clipPath></defs><title>Wall of Support</title><g id="Drawing_1"><g class="cls-2"><rect class="cls-3" width="800" height="500"/><path class="cls-4" d="M213.26,184.31c.79,7.62,6.28,13,12.92,16.27,9.19,4.53,19.08,6.42,27.71,12.27,7.95,5.38,23.18,17.24,17.62,28.55-3,6-12.57,5.22-17.68,3.69s-9.67-4.4-14.16-7.16c-4.13-2.55-8.34-4.87-12.6-7.21-4.72-2.59-8.38-6.32-12.84-9.22-7.82-5.11-18.26-6.75-27-9.65-10.11-3.34-20.14-7.13-29.41-12.43-10-5.7-18.26-13.39-26.54-21.25-4.49-4.26-9.06-8.46-13.47-12.8-4.56-4.49-6.54-9.86-10.14-14.94-3.46-4.88-9.35-7.43-10.29-13.73-.67-4.49,1.68-6.09,4.62-8.73a17.61,17.61,0,0,0,3.81-4.41.63.63,0,0,0-1.08-.63c-2.12,3.71-6.6,5.45-8.45,9.28-1.59,3.26-.56,6.68,1.42,9.52,3.34,4.8,8.14,7.61,11,13a47.74,47.74,0,0,0,9.39,12.7c9.32,8.94,18.46,18.47,28.75,26.3,8.41,6.4,17.9,11.13,27.72,15,11.3,4.43,23.41,6.9,34.56,11.62,5.19,2.2,8.81,6.15,13.41,9.22,5.28,3.5,11.13,6.18,16.53,9.5,7.4,4.56,16.17,9.94,25.28,8.16,8.34-1.62,11.28-8.68,8.23-16.28-4.09-10.21-15.17-18.15-24.6-23-11.47-6-31.77-7.41-33.44-23.53-.08-.79-1.33-.8-1.25,0Z"/><path class="cls-4" d="M114.94,162c-8.76-1.81-16.52-6.57-24.68-10a228.56,228.56,0,0,0-26-9.11c-15-4.34-30.35-7.63-45.71-10.46-26.82-4.92-53.91-8.64-81-11.33a404.11,404.11,0,0,0-41.88-2.48.63.63,0,0,0,0,1.25c26.57-.13,53.31,3.37,79.58,7,27.71,3.8,55.47,8.3,82.52,15.52a248.29,248.29,0,0,1,28.79,9.43c9.32,3.76,18.17,9.4,28.08,11.46.79.16,1.12-1,.33-1.21Z"/><path class="cls-4" d="M214.45,183.89c2.14-7.48,12.91-10.54,19.73-11A30.89,30.89,0,0,1,253,178c.68.44,1.31-.64.64-1.08A32.19,32.19,0,0,0,231,172c-6.59,1-15.77,4.47-17.8,11.54a.63.63,0,0,0,1.21.33Z"/><path class="cls-4" d="M251.52,146.61A39.52,39.52,0,0,0,252,159.4c.72,3.87,1.26,8.59,3.71,11.79.49.63,1.57,0,1.08-.63-2.06-2.69-2.54-6.46-3.23-9.72a39.86,39.86,0,0,1-.79-13.89c.11-.79-1.09-1.13-1.2-.34Z"/><path class="cls-4" d="M262.3,172.12c-3.25-1-5.77-1-7.53,2.2-2.59,4.67-4.43,11-5.8,16.11-1.93,7.26-.53,17.18,8.39,18.5.79.12,1.13-1.09.34-1.2-8.69-1.29-9.24-11.06-7.29-17.83,1.41-4.9,4.56-18.62,11.56-16.58a.62.62,0,0,0,.33-1.2Z"/><path class="cls-4" d="M266.31,194c-.57,2.53-1.21,5-2,7.52s-1.56,7.71-5.28,5.36c-1.58-1-2.26-2-1.9-3.74a17.81,17.81,0,0,1,2.25-4.65c1.75-2.75,4.46-3.65,7.52-4.19.79-.13.46-1.34-.33-1.2-4,.69-6.78,2.06-8.76,5.65-1.26,2.3-3.74,6-1.22,8.1,1.36,1.16,5.1,3.61,6.58,1.65,1.15-1.52,1.61-4.3,2.18-6.11.83-2.66,1.53-5.35,2.14-8.06.17-.78-1-1.12-1.21-.33Z"/><path class="cls-4" d="M268.34,193.68c4.83-6.42,11-12.06,10.91-20.52,0-4.62-1.11-9.16-1.69-13.73-.73-5.77.47-11.15.42-16.88a.63.63,0,0,0-1.25,0c0,4.47-1,8.84-.79,13.31.21,4.32,1.23,8.55,1.72,12.83.57,4.88.67,9.43-2.3,13.59-2.6,3.66-5.4,7.18-8.1,10.76-.48.65.6,1.27,1.08.64Z"/><path class="cls-4" d="M277.83,143.29c-.43-5.71-4.64-9.28-9.51-11.67-4.55-2.24-9-3.69-12.9-7.06-2.48-2.13-4.61-4.39-7.51-6-4.34-2.36-8.29-3.93-12.16-7.13a63.46,63.46,0,0,0-6.94-5.42c-7.47-4.54-16.19-1.85-24.32-3.75-3.63-.84-7.17-2.14-10.88-2.65-4.39-.59-8.71.22-13.1.12-5.22-.11-10-2.14-15.16-3-4-.66-8.09-.88-12.14-1.29-18-1.84-32.95-12.44-50.46-15.94-.79-.16-1.12,1-.33,1.21,15.39,3.07,28.76,12.27,44.2,15.1,8.56,1.58,17.15,1.63,25.63,3.8,7.95,2,15.77,0,23.69,1.68,3.6.77,7.07,2.08,10.71,2.67s7.26.3,10.92.39c9.42.23,13.72,5.78,20.84,10.73,3.25,2.26,7.1,3.28,10.4,5.41,3,2,5.29,4.87,8.23,6.94,6.62,4.65,18.78,5.76,19.54,15.8.06.8,1.31.8,1.25,0Z"/><path class="cls-4" d="M250.8,151.63c-9,1-17.25-9.47-20.46-16.72-.33-.73-1.4-.09-1.08.64,3.37,7.6,12.13,18.37,21.54,17.33.79-.08.8-1.33,0-1.25Z"/><path class="cls-4" d="M236.38,145.67c-4.48.72-9.24-.52-13.68-1.14l-11.62-1.61c-4.62-.64-8.06-.84-11.69-4.2-1.77-1.64-3-3.23-5.15-4.4-.71-.38-1.34.69-.63,1.08,3.19,1.72,4.93,5.12,8.11,6.83s7.45,1.68,11,2.17c7.56,1,16.44,3.7,24,2.47.79-.12.46-1.33-.33-1.2Z"/><path class="cls-4" d="M202.57,142.05c-17.89,4.67-35.33,12.92-54.23,11.38-.8-.06-.8,1.19,0,1.25,19,1.55,36.57-6.72,54.56-11.43a.62.62,0,0,0-.33-1.2Z"/><path class="cls-4" d="M101.78,79.2c-15-3.47-30.5-2.64-45.4-7C41,67.63,25.83,61.82,10.81,56.09-4.48,50.27-19.67,44.22-34.9,38.26c-14.3-5.59-29.41-8.16-44.05-12.72-.77-.24-1.1,1-.33,1.2,14.64,4.57,29.75,7.13,44.05,12.73,15.23,6,30.42,12,45.7,17.83C25.5,63,40.62,68.83,56.05,73.38c14.92,4.39,30.34,3.55,45.4,7,.78.18,1.12-1,.33-1.21Z"/><path class="cls-4" d="M289.28,156.42a14.11,14.11,0,0,0-2.21,2.16c-.68.87-1.22,2.46-2.19,2.79-2.29.76-5.67-2.46-7-4-.52-.61-1.4.28-.88.88,1.81,2.12,4.81,4.47,7.74,4.63a1.51,1.51,0,0,0,1.68-.81c1.2-1.76,2-3.38,3.73-4.77.62-.5-.27-1.38-.89-.88Z"/><path class="cls-4" d="M285.49,163.1c2,8.17,3.23,17.12,6.55,24.88,2.57,6,3.3,5.66,9.2,4a.62.62,0,0,0-.33-1.2c-3.75,1.07-6,.59-7.65-3.18a51.56,51.56,0,0,1-2.46-7.77c-1.42-5.66-2.74-11.35-4.11-17-.19-.79-1.39-.45-1.2.33Z"/><path class="cls-4" d="M295.78,193c.79,4.1,1.61,8.32.6,12.46-.71,2.92-2.51,5.42-3.24,8.32a18.23,18.23,0,0,0,2.06,13c3,5.31,11.5,9.06,14.79,1.86.34-.73-.74-1.37-1.08-.63-3.39,7.42-11.07,1.56-13.21-3.15-2.44-5.39-1.74-9.77.4-15.06,2.39-5.92,2.08-10.9.88-17.11-.15-.79-1.35-.45-1.2.34Z"/><path class="cls-4" d="M312.08,212.46a79.28,79.28,0,0,1-.1,8c-.09,1.33-.21,2.66-.37,4-.2,1.62-.1,6.51-2.16,1.65-2.13-5,.86-9.64,3-14,.35-.72-.73-1.36-1.08-.63-1.53,3.12-3.91,6.5-3.87,10.11,0,2.33.3,5.91,2.38,7.41,1.86,1.33,2.28,0,2.58-1.72a74.94,74.94,0,0,0,.86-14.81c0-.8-1.28-.81-1.25,0Z"/><path class="cls-4" d="M313.86,211.31c2.13-5.59,5.95-12,5.24-18.16-.81-6.86-3.16-13.82-4.75-20.54-1.71-7.23-3.18-14.58-5.17-21.74a16.2,16.2,0,0,0-8.36-10.75c-6.19-3.45-12.62-6.58-19-9.72-2.67-1.33-5.36-2.61-8.11-3.74-3.74-1.53-10.12-2.35-12.6-5.77-3-4.12-4.76-6.45-9.73-8.54a135.91,135.91,0,0,0-21.62-6.7c-.78-.18-1.11,1-.33,1.21a150.53,150.53,0,0,1,19.35,5.82c3.37,1.28,6.77,2.59,9.13,5.44,1.42,1.71,2.05,4.16,3.85,5.55,1.4,1.08,3.4,1.35,5,1.84a78.62,78.62,0,0,1,9.65,3.69c5.91,2.67,11.64,5.78,17.41,8.74,6.41,3.28,12,5.71,14.09,13.26,1.82,6.53,3.16,13.22,4.72,19.81,1.52,6.44,3.23,12.87,4.57,19.35,1.54,7.45-2,13.77-4.61,20.61-.29.76.92,1.08,1.21.34Z"/><path class="cls-4" d="M355,214.19l6.78,5.64a36.91,36.91,0,0,1,3.77,3.14c1.51,1.67,1.52,1.49-1,.9a18.19,18.19,0,0,1-7.75-4.17c-1.4-1.25-1.5-1.61-1.9-3.67-.86-1.05-1-1.8-.29-2.26l.49-.58c-.13-3-1.76-6.06-3-9-1.33-3.22-2.49-6.4-5.27-8.64-1.9-1.52-4-2.64-5.71-4.41a70.36,70.36,0,0,1-5.46-6.92,124.35,124.35,0,0,1-8.61-12.75c-2.09-3.68-3.33-8.29-6.4-11.29-2.67-2.61-6.29-3.91-9.73-5.15-.76-.27-1.08.94-.33,1.21,5.58,2,9.73,4.28,12.33,9.82a86.83,86.83,0,0,0,7.15,12.54c2.56,3.74,5.27,7.42,8.1,11,2.67,3.34,6.09,4.92,9,7.89,2.27,2.35,3.27,5.91,4.49,8.85,1,2.53,2.28,4.37,1.56,6.94-.51,1.82-1.11,1.93-.11,3.94,2.15,4.35,9.86,9.36,14.86,8.16a.64.64,0,0,0,.46-.6c.09-1.63-1.66-2.36-2.81-3.31l-9.8-8.16c-.61-.51-1.5.37-.88.89Z"/><path class="cls-4" d="M365.88,225.07c-2.11,13.55-15.63,9.35-22.21,2-2.8-3.15-4.9-6.84-7.31-10.28-1.3-1.85-9.26-10.1-5-11.93.74-.31.1-1.39-.63-1.08-4.57,2-1.42,6.21.67,8.71,4.69,5.64,8,12.63,13.47,17.61,7.88,7.21,20.28,7.69,22.21-4.67.12-.79-1.08-1.13-1.21-.33Z"/><path class="cls-4" d="M328.83,205.93c-4.52.79-7.31-3.42-9.35-6.74a.63.63,0,0,0-1.08.63c2.39,3.89,5.6,8.22,10.76,7.31.79-.14.46-1.34-.33-1.2Z"/><path class="cls-4" d="M351.75,234.62a18.23,18.23,0,0,1-19.68-5.76c-2.05-2.45-3.76-5-6.25-7.06-.7-.59-1.43-1.13-2.18-1.65a7.16,7.16,0,0,1-.63-11.06c.59-.55-.3-1.44-.88-.89-2.41,2.24-5.33,5.37-3.77,9,.66,1.51,2.13,2.34,3.4,3.24a37.79,37.79,0,0,1,8.45,8.1c5.38,6.84,13.37,9.94,21.87,7.34.77-.24.44-1.45-.33-1.21Z"/><path class="cls-4" d="M318.48,214.63a14.32,14.32,0,0,1-4.12-3.22c-.53-.61-1.41.28-.88.88a15,15,0,0,0,4.37,3.42c.71.37,1.35-.71.63-1.08Z"/><path class="cls-4" d="M294.57,191.68c-3.8-.29-6.76-2.45-10.16-3.88-3.07-1.29-6.22-1.74-9.05-3.63-.67-.45-1.3.63-.63,1.08,3.48,2.32,7.52,2.8,11.23,4.66,2.82,1.41,5.4,2.77,8.61,3,.8.06.79-1.19,0-1.25Z"/><path class="cls-4" d="M286.8,168.54l-8.6-3.37c-.75-.29-1.07.92-.33,1.21l8.59,3.36c.75.3,1.08-.91.34-1.2Z"/><path class="cls-4" d="M637.25,203.39c8.48-4,14-11.36,18.82-19.15a203.22,203.22,0,0,1,20.63-27.61c.53-.6-.35-1.49-.88-.88-6.6,7.53-12.92,14.8-18.12,23.39-5.51,9.11-11.07,18.47-21.08,23.17-.73.34-.09,1.42.63,1.08Z"/><path class="cls-4" d="M658,202.57a166.52,166.52,0,0,1-41-2.94c-12.32-2.33-24.48-3.83-37-2.88A119.67,119.67,0,0,0,544.63,205c-12.19,4.85-23.79,10.77-37.08,11.88-12,1-23.86,1.24-35.75,3.4a170.35,170.35,0,0,0-17.18,4c-3.86,1.12-8.25,2.53-10.68,6-4.15,5.89-2.92,18.19,2,23.31,6.14,6.36,17,6.38,25.13,6.7A176.56,176.56,0,0,0,513,256.79c8.28-1.68,16.34-4.34,24.87-2.78,5.6,1,10.75,2.75,16.43,1.23A.62.62,0,0,0,554,254c-6,1.6-11.51-.65-17.4-1.52a39.63,39.63,0,0,0-13.85.83c-12.1,2.51-24,4.93-36.37,5.53-10.25.5-22.11,1.13-32-2-6.71-2.13-10.55-6.59-11.1-13.71s.57-13.53,7.87-16.46c10.69-4.29,23.24-6,34.62-7.2,10.21-1.1,20.73-.45,30.8-2.7,10.5-2.36,20.1-7.44,30.09-11.27a117.55,117.55,0,0,1,34.17-7.59c13.52-.92,26.41,1.23,39.65,3.62A158.23,158.23,0,0,0,658,203.82c.8,0,.8-1.3,0-1.25Z"/><path class="cls-4" d="M533.27,252.43a40.44,40.44,0,0,0,9.12,35.39c.53.61,1.41-.28.89-.88a39.14,39.14,0,0,1-8.8-34.18c.17-.78-1-1.12-1.21-.33Z"/><path class="cls-4" d="M538.37,281.19c-6.27-.86-9.2,5.49-8.27,10.83.13.79,1.34.46,1.2-.33-.74-4.3,1.47-10,6.74-9.29.79.1,1.13-1.1.33-1.21Z"/><path class="cls-4" d="M530.87,285.94c-5.87-1-10.77.48-15.49,4.07-2.44,1.85-4.71,3.94-7,5.92-1.76,1.49-3.67,2.41-3.93,4.73-.08.8,1.17.79,1.25,0,.3-2.71,7-6.87,9.16-8.61,4.67-3.78,9.55-5.95,15.72-4.91.78.13,1.12-1.07.33-1.2Z"/><path class="cls-4" d="M514.67,304.6c-14.76-6.67-33.43,1.62-45.28,10.74-.63.49,0,1.57.63,1.08,11.44-8.81,29.72-17.2,44-10.74.72.33,1.36-.75.63-1.08Z"/><path class="cls-4" d="M470.75,328.93c.09-3.37.31-7.2-.49-10.51a4.4,4.4,0,0,0-3.57-3.46c-5.18-1.42-6.75,2.31-5.81,6.91.16.79,1.36.45,1.2-.33-.49-2.46-.55-5.6,2.65-5.67a4.25,4.25,0,0,1,4.32,2.89c.93,3,.53,7.07.45,10.17a.63.63,0,0,0,1.25,0Z"/><path class="cls-4" d="M461.52,317c-2.41-2.24-6-2.73-9.15-3.41A57.63,57.63,0,0,0,439,312c-8.54.19-4.38,8-7.73,13.49-.42.68.66,1.31,1.08.63a13.23,13.23,0,0,0,2.06-5.63c.36-3.53-.32-7.11,4.59-7.24a52.43,52.43,0,0,1,10.39,1c3.39.6,8.62,1.2,11.2,3.62.59.54,1.48-.34.89-.89Z"/><path class="cls-4" d="M435.32,312.77a42.86,42.86,0,0,0-18.58-8.5c-6.44-1.17-14.57-2.11-20.78.53-4.16,1.77-7.77,5.86-7.38,10.63.48,5.91,7.05,8.53,11.55,10.91,7.12,3.76,14.3,7.44,21.76,10.49,7.91,3.23,16.08,5.21,24.33,7.32a97.5,97.5,0,0,1,12,3.71c3.91,1.57,7.63,4.1,11.79,5,6.3,1.34,11.23-2.51,16.43-5.41,8.91-5,19.76-7,29.6-9.32,10.31-2.48,20.7-4.54,31.16-6.27.79-.13.46-1.33-.33-1.2-18,3-36.58,6.35-53.77,12.47-7.5,2.67-15.21,10.43-23.56,8.35-3.82-.95-7.33-3.34-11-4.8a97.5,97.5,0,0,0-12-3.71c-8.24-2.12-16.42-4.1-24.33-7.33a244.51,244.51,0,0,1-24.72-12.09c-5.13-2.8-10.12-7.41-6.21-13.42,3.23-5,9.46-5.62,14.85-5.55,10.4.13,20,2.67,28.3,9.1.62.48,1.51-.39.88-.89Z"/><path class="cls-4" d="M458.32,347.33a4.57,4.57,0,0,0,3.17-3.83c.11-.8-1.14-.79-1.25,0a3.26,3.26,0,0,1-2.25,2.63c-.77.24-.44,1.45.33,1.2Z"/><path class="cls-4" d="M535.72,275.7a31.16,31.16,0,0,0-10.12,5.15c-2.35,1.85-3.69,4.16-7.07,4.37-1.46.09-2.91-.27-4.4-.1A18.23,18.23,0,0,0,499.19,297c-.29.75.92,1.07,1.2.33a17,17,0,0,1,10-10.05,16.64,16.64,0,0,1,5.27-1c1.53,0,3.1.62,4.6.31,1.83-.38,2.45-1.45,3.82-2.75a29.71,29.71,0,0,1,11.95-6.92c.76-.24.44-1.44-.33-1.2Z"/><path class="cls-4" d="M504.19,290.83c-5.73-4.57-15.19-9.79-22.77-7.45a.65.65,0,0,0-.44.77l-3.86,4.73c-.74.29-.42,1.5.33,1.21a9.29,9.29,0,0,0,3.78-2.11c.57-.65.83-2.51,1.21-2.91,2.11-2.17,7.16-.33,9.67.49a35.36,35.36,0,0,1,11.2,6.16c.62.5,1.51-.38.88-.89Z"/><path class="cls-4" d="M482.32,283.24c-3-.6-5.5,1.2-7.71,3-.62.51.27,1.39.89.88,1.81-1.51,4-3.22,6.48-2.72.79.16,1.12-1,.34-1.2Z"/><path class="cls-4" d="M480.23,282.9c-3.87-6.46-8.25-13.52-15.84-15.95-4.33-1.38-11.15-1.11-12.05,4.51-.5,3.14,1.23,5.93,2.88,8.4,2.43,3.66,3.34,7.43,5.18,11.31,1.5,3.16,4.13,5.19,7,7.11,4.42,3,8.92,5.87,13.38,8.8.67.44,1.3-.64.63-1.08-5.05-3.32-10.34-6.44-15.16-10.07-5-3.79-5.15-9-8.08-14-1.42-2.43-3.57-4.45-4.1-7.31-1.05-1.79-.52-3.25,1.58-4.4q1.31-3.53,4.85-2.77a15,15,0,0,1,5.6,1.49c6.1,2.92,9.73,9,13.08,14.58a.63.63,0,0,0,1.08-.63Z"/><path class="cls-4" d="M497.66,297.55A52.9,52.9,0,0,0,480,305.87c-.64.47,0,1.55.63,1.08A51.91,51.91,0,0,1,498,298.76a.63.63,0,0,0-.33-1.21Z"/><path class="cls-4" d="M480.18,305.8a11.35,11.35,0,0,0-7-1.16c-2.35.47-3.19,3-5.09,4.32-.66.45,0,1.53.63,1.08a16.42,16.42,0,0,0,3.08-3c1.92-2.17,5.43-1.21,7.72-.12.73.34,1.36-.73.64-1.08Z"/><path class="cls-4" d="M472.19,304.64A45.48,45.48,0,0,0,451.14,297c-9-.84-4.56.41-6.94,7.51-.25.76.95,1.09,1.21.33.48-1.45.24-3.59.79-4.88,1.36-3.2,6.4-1.62,9-1.11a44.93,44.93,0,0,1,16.34,6.86c.67.45,1.3-.63.63-1.07Z"/><path class="cls-4" d="M446.31,297.59c-7.16-4.85-14.6-9.68-23.44-10.37-6.07-.48-13.18,0-16.93,5.42-.46.67.63,1.29,1.08.64,4.16-6,14.09-5.63,20.43-4.08,6.72,1.65,12.57,5.64,18.23,9.47.67.45,1.29-.64.63-1.08Z"/><path class="cls-4" d="M388.93,310.89c-2.46-.93-3.92-4.3-3.51-6.61.3-1.72,1.74-3.23,3-4.41a19.94,19.94,0,0,1,9.38-4.51c7.52-1.75,13.13-.05,19.75,3.6A58.67,58.67,0,0,1,425.4,304c1.71,1.33,3.14,4.34,4.91,5.15,1.14.53,2.57.23,3.77.2,4.22-.09,8.16,0,12.13,1.72.73.32,1.37-.75.64-1.07a25.84,25.84,0,0,0-11.05-1.93c-4.94,0-6.72-2.94-10.32-5.6-6.14-4.53-14.42-9.88-22.41-9.25-6.34.5-13.7,2.45-17.51,8-1.27,1.85-2.45,4.5-2.09,6.81.45,2.92,2.71,3.13,5.12,4.05.76.28,1.08-.92.34-1.21Z"/><path class="cls-4" d="M542.24,255.72c4.57,5.75,13,8,19.89,9.15.79.13,1.12-1.07.33-1.21-6.76-1.13-14.89-3.23-19.34-8.82-.5-.63-1.38.26-.88.88Z"/><path class="cls-4" d="M472.79,253.73c.87-7.15,3.83-21-4.22-25.42-5.95-3.24-19.73-2.67-22.69,4.59-2.84,6.95-1.68,17.42,5.13,21.48,4.1,2.43,9.08,2.33,13.69,2.33,3.11,0,6.18.08,8.12-2.67.47-.66-.62-1.28-1.08-.63-3,4.23-15.91,2.18-19.48.25-6.8-3.66-8.33-15-4.18-21.2s20.12-6.83,23.35,1c2.43,5.88.85,14.18.11,20.3-.1.79,1.15.79,1.25,0Z"/><path class="cls-4" d="M755.35,189.65c-12.52,4.83-19.4,16.49-26.55,27.11-10.07,15-23.44,25.6-38.61,35.11-33.42,20.95-67.43,41-101.15,61.5-18.54,11.26-39.83,26.26-62.66,20.47a.63.63,0,0,0-.33,1.21c17.1,4.33,33.63-3,48.25-11.37C592,313.54,609.24,302.56,626.67,292l52.14-31.67c14.77-9,30.11-17.87,41.84-30.8,11.51-12.69,18-32.07,35-38.65.74-.28.42-1.49-.33-1.2Z"/><path class="cls-4" d="M336.09,234.48a58,58,0,0,1,3.56-12.24l1.45,3.33,11.9,8.81,6.48.42,5.8-4.19,1.06-4.87,1.15-1.4-2.84-3.52-8.77-6.14-1.35-3.13-1.61-3.26-1.47-4a57.66,57.66,0,0,1,96.6,23.15l-.61.3-3.74,4.07-.67,3.95-1,6.32,2.17,7.91,4.83,5.42.47.08a57.67,57.67,0,0,1-113.4-21Z"/><path class="cls-5" d="M805.67,183.5c-10.2,2.38-50.38,37.13-57,45.21-4.35,5.26-13.4,11.47-18.33,16.2a91.32,91.32,0,0,1-19.49,13.83,14.73,14.73,0,0,1-20.13-6.41,199.1,199.1,0,0,0-30.74-44c-3.41-3.7-7.05-7.39-9-12s-1.64-10.62,2.07-14c1.19-1.08,2.64-1.84,3.86-2.89,2-1.71,3.26-4.11,4.62-6.37,6.69-11.09,16.7-19.71,25.85-28.87,14.77-14.8,32.08-25,45.07-41.4A157.12,157.12,0,0,1,757,78.05c8.93-7.15,47.7-45.49,56.8-52.13l-5.11,132.25Z"/><path class="cls-6" d="M-113.93,131.31c25.31.53,85,7.58,109.76,12.84,28.1,6,56.21,15,84.87,12.94,1.71-.12,3.55-.34,4.8-1.51s1.4-3.61-.13-4.37c-.59-.29-1.27-.28-1.88-.52-1.76-.69-2.11-3-2.2-4.85-.29-6.44-.58-13,.95-19.23,1.25-5.11,3.66-9.84,6.11-14.5,3.65-7,7.49-13.94,13.06-19.47s13.18-9.49,21-9c-1.28-4.39-6.1-6.59-10.47-7.92-16.27-5-33.53-5.59-50.17-9.14C40.84,62.16,21.2,53.17,1.29,45.32-24.4,35.18-68.41,17.09-95.26,10.65L-98,57Z"/><path class="cls-4" d="M-95.43,11.25c31.21,7.61,61.17,20.62,91,32.45C13.84,51,32,59.15,51,64.56c19.91,5.67,41.17,5.39,60.84,11.8A24.35,24.35,0,0,1,118,79.11c.17.12,3.55,2.81,2.82,3.89,0,.07-2.67.19-3.09.25a27.81,27.81,0,0,0-10.48,4C100.1,91.65,95.13,98.65,91,105.86c-4.27,7.5-8.78,15.46-10.06,24.1a71.43,71.43,0,0,0-.41,13.24c.08,2.19-.2,5.72,1.67,7.39s2.37-.3,1.47,3.24c-.77,3-1,2.46-3.93,2.7-1.24.1-2.49.14-3.73.18a134.38,134.38,0,0,1-15.8-.46,251.3,251.3,0,0,1-33-5.53c-15.88-3.55-31.61-7.58-47.69-10.16-30.76-4.94-62.25-9.15-93.42-9.87a.63.63,0,0,0,0,1.25c33.06.77,66.65,5.2,99.2,10.84C6.66,146.49,27.47,153,49,156.16c10.48,1.55,22.57,3.34,33.12,1.42,2.14-.39,4.56-1.19,5-3.66s-1-2.5-2.44-3.59c-3.59-2.71-2.9-7.41-2.92-11.53a53.11,53.11,0,0,1,.79-10.31c1.32-6.81,4.73-13,8-19,6.69-12.35,16.31-25.61,32-25.15a.63.63,0,0,0,.6-.79c-2-5.1-6.85-7.14-11.81-8.62-8.75-2.61-17.83-4-26.85-5.23C66.67,67.14,49.82,63.53,33,57.28,4.91,46.81-22.62,34.78-50.78,24.36-65.32,19-80,13.72-95.1,10c-.78-.19-1.11,1-.33,1.21Z"/><path class="cls-4" d="M813.22,25.77c-8.2,6.08-15.52,13.52-23,20.46-9.35,8.72-18.6,17.56-28.08,26.14-4.22,3.81-8.7,7.3-12.91,11.12-8.14,7.4-14.68,16-22,24.05-13.26,14.59-29.79,26-43.89,39.76-6.68,6.53-13.53,13-19.06,20.54-1.47,2-2.75,4.14-4.08,6.26a26.77,26.77,0,0,1-6.19,6.67c-2.41,2-4,4-4.59,7.23-1.44,7.84,4,14.21,9,19.57a215.9,215.9,0,0,1,19.38,24.19q4.38,6.47,8.27,13.25c2.08,3.66,3.66,7.94,6.54,11.07a15.42,15.42,0,0,0,16.58,4.11c8.38-3.11,14.9-10.68,21.43-16.41,3.64-3.2,8.08-4.87,12-7.56a33.27,33.27,0,0,0,5.62-5.31c8.5-9.19,18.22-17.44,27.75-25.52,5.77-4.9,11.63-9.71,17.75-14.16,3.62-2.62,7.7-6,12.11-7.12a.63.63,0,0,0-.33-1.21c-7.61,2-14.73,8.84-20.71,13.61-9.64,7.68-18.94,15.8-27.95,24.21-3.24,3-6.49,6.06-9.5,9.31a33.4,33.4,0,0,1-6,5.52c-3.37,2.24-7.19,3.67-10.38,6.21-7.45,6-14.33,15.52-24.07,17.81-11.59,2.73-16-8.72-20.68-16.69a200.76,200.76,0,0,0-15.7-23.08q-4.31-5.46-9-10.6c-3.64-4-7.8-7.89-9.88-13-2.54-6.26-.84-11.18,4.29-15.25,3.18-2.53,4.84-5.62,7-9,5.3-8.28,12.42-15.17,19.42-22,6.75-6.56,13.49-13,20.72-19s14.32-11.71,20.88-18.23c6.94-6.91,12.65-14.91,19.5-21.92,5.12-5.23,10.76-9.79,16.26-14.59C769.3,67.87,778.4,59,787.66,50.36c8.49-7.94,16.83-16.57,26.19-23.51.64-.48,0-1.56-.63-1.08Z"/></g></g></svg>