<svg id="Layer_1" data-name="Layer 1" xmlns="http://www.w3.org/2000/svg" viewBox="0 0 1565.89 543.28"><defs><style>.cls-1{fill:#fff;}</style></defs><title>IFES Logo_04092020</title><path class="cls-1" d="M875.57,362.91l-3.12-.08c-4,0-6-3.53-6.88-6.72a24.79,24.79,0,0,1-.51-6.09V333.58c0-1.61,0-3.05,0-4.18a1.2,1.2,0,0,0-1.2-1.2h-17a1.14,1.14,0,0,0-1.14,1.14V351.8a34.47,34.47,0,0,0,.81,7.71c3,13,11.91,13.59,29,13.61A1.15,1.15,0,0,0,876.7,372v-8A1.07,1.07,0,0,0,875.57,362.91Z"/><path class="cls-1" d="M148.65,362.91l-3.12-.08c-4,0-6-3.53-6.87-6.72a24.32,24.32,0,0,1-.52-6.09V333.58c0-1.61,0-3.05,0-4.18a1.2,1.2,0,0,0-1.2-1.2H120a1.13,1.13,0,0,0-1.13,1.14V351.8a34.46,34.46,0,0,0,.8,7.71c3,13,11.91,13.59,29,13.61a1.14,1.14,0,0,0,1.14-1.14v-8A1.07,1.07,0,0,0,148.65,362.91Z"/><path class="cls-1" d="M1138.22,221.62h-19.14a1.13,1.13,0,0,0-1.13,1.13v45.84h0v17.64h0v13.68a24.9,24.9,0,0,1-1,6.27c-1,3.15-3.38,4.46-6.08,4.88a13.53,13.53,0,0,1-11.8-4.32c-3.75-4.56-4.7-11.15-4.94-17.35V227.05a1.14,1.14,0,0,0-1.14-1.14h-19.14a1.13,1.13,0,0,0-1.13,1.14v14.79h0V248a2.26,2.26,0,0,0,0,.26v38.34h0V300.3a24.9,24.9,0,0,1-1,6.27c-1,3.15-3.39,4.06-6.1,4.48-4.17.65-9.19-.77-11.78-3.92-5.22-6.36-5-16.66-5-24.37V252.1c0-1.35,0-2.74,0-4.14a2,2,0,0,0,0-.24v-8.61c0-.68,0-1.43.09-2.19V222.75a1.14,1.14,0,0,0-1.14-1.13h-19.14a1.14,1.14,0,0,0-1.14,1.13v25c0,.18,0,.35,0,.53v39.81c0,25.59,5.28,33.88,40.58,33.88a25.49,25.49,0,0,0,16.19-5.3c5.69,3.45,15.34,5.3,29.12,5.3,21.81,0,26-16,26-26.32v-72.9A1.14,1.14,0,0,0,1138.22,221.62Z"/><path class="cls-1" d="M709.9,332.61a14.1,14.1,0,1,0,14.1,14.1A14.1,14.1,0,0,0,709.9,332.61Z"/><path class="cls-1" d="M767.42,332.61a14.1,14.1,0,1,0,14.1,14.1A14.1,14.1,0,0,0,767.42,332.61Z"/><path class="cls-1" d="M161.72,332.61a14.1,14.1,0,1,0,14.1,14.1A14.1,14.1,0,0,0,161.72,332.61Z"/><path class="cls-1" d="M916.27,242a14.1,14.1,0,1,0,14.1,14.1A14.1,14.1,0,0,0,916.27,242Z"/><path class="cls-1" d="M916.27,280.78a14.1,14.1,0,1,0,14.1,14.1A14.1,14.1,0,0,0,916.27,280.78Z"/><path class="cls-1" d="M767.42,208a14.11,14.11,0,1,0-14.11-14.11A14.1,14.1,0,0,0,767.42,208Z"/><path class="cls-1" d="M385.42,208a14.11,14.11,0,1,0-14.1-14.11A14.1,14.1,0,0,0,385.42,208Z"/><path class="cls-1" d="M593,221c-8.23,0-14.06,2.31-18.13,5.75,0,0-1.43-.89-1.58-1-.57-.32-1.16-.61-1.75-.88a32,32,0,0,0-4-1.46,46.36,46.36,0,0,0-4.8-1.11c-1.85-.33-3.73-.57-5.61-.75-2.15-.22-4.32-.35-6.48-.44-2.48-.1-5-.16-7.45-.13-1.18,0-2.35,0-3.53,0H530.2a12.75,12.75,0,0,0-12.76,12.75v13.21s0,0,0,0c0,.17,0,.35,0,.52v40.32c0,25.59,5.31,34.08,40.61,34.08,21.8,0,26.06-16.22,26.06-26.53V260.43c0-.65,0-1.29,0-1.92,0-6.91.35-14.81,4.08-20.62,3-4.71,12.62-7.77,17-4.06,2.65,2.25,2.86,7.15,2.86,10.46v8.61a2,2,0,0,0,0,.24c0,1.4,0,2.79,0,4.14v1.23h.05c0,.77,0,1.54,0,2.35v57.46a1.13,1.13,0,0,0,1.13,1.13h19.06a1.14,1.14,0,0,0,1.14-1.13v-63.7C629.4,229.37,628.1,221,593,221Zm-30.31,78.59a24.89,24.89,0,0,1-1,6.27c-1,3.15-3.38,4.48-6,5.14-4.17,1-9.25-1.36-11.85-4.58-5.15-6.4-5-17.16-5-24.87V257.28c0-1.35,0-2.74,0-4.14a1,1,0,0,0,0-.24v-8.61c0-3.31.5-7.25,2.85-9.81,4.52-4.91,14-.65,17,4.06,4.19,6.52,4.08,15,4.08,22.47v24.87h0Z"/><path class="cls-1" d="M108.88,221.62a12.76,12.76,0,0,0-12.76,12.76v13.2a1.14,1.14,0,0,0,1.13,1.14h19.07a1.14,1.14,0,0,0,1.13-1.14v-26h-8.57Z"/><path class="cls-1" d="M155.23,319.6a23.81,23.81,0,0,0,17.43-23V257.47a5.35,5.35,0,0,0-5.36-5.35H149.59a1.13,1.13,0,0,1-1.13-1.14V227a5.36,5.36,0,0,0-5.36-5.35H117.45v22.7c0-6.23,1.62-11.81,4.22-11.81,3.11,0,5.45,1.59,5.45,11.81v24.73a1.13,1.13,0,0,0,1.14,1.13h15.36a1.13,1.13,0,0,0,1.13-1.11V269c.09-7.6,1.17-9,2.86-9,2.11,0,3.7,2.33,3.7,15.5v15.63s0,.84,0,.84c.08,7.55.73,19.29-16.29,19.29-18.95,0-16.55-3.16-16.46-24.26a1.15,1.15,0,0,0-1.13-1.15H98.39A1.15,1.15,0,0,0,97.25,287c.08,24.73,3,35,37.81,35A77.2,77.2,0,0,0,155.23,319.6Z"/><path class="cls-1" d="M474.45,259.74a40.59,40.59,0,0,0-19.39,4.71V247.59l.06-5.39c.33-5.37,1.85-9.9,4.15-9.91,3.11,0,6.46,1.81,6.46,12v3.25a1.14,1.14,0,0,0,1.13,1.14h19.07a1.14,1.14,0,0,0,1.13-1.14V239.7c0-10-8.09-18.78-18.08-18.78H445.57c-7.05,0-12.76,6.41-12.76,13.46v61.89a23.81,23.81,0,0,0,17.43,23,77.2,77.2,0,0,0,20.17,2.37c33.4,0,37.44-9.51,37.78-32.18,0,0,0-.08,0-.12V273.05C508.22,259.74,506.78,259.74,474.45,259.74Zm12.47,24.86c-.06,2.14,0,4.29-.06,6.43,0,1.74-.09,3.48-.21,5.21-.1,1.42-.25,2.85-.48,4.25a22.89,22.89,0,0,1-.8,3.39,12.59,12.59,0,0,1-1.18,2.62,8.22,8.22,0,0,1-3.73,3.27,12.76,12.76,0,0,1-2.67.85,26.27,26.27,0,0,1-3.29.45c-1.32.1-2.64.13-4,.13h-.1c-15.26,0-16.31-9.67-16.31-17.12v-.84c0-21.49,13.64-23.1,24-23.1a10.87,10.87,0,0,1,4.65.86,6.55,6.55,0,0,1,2.68,2.35,9.35,9.35,0,0,1,1.25,3.36,22.15,22.15,0,0,1,.32,3.9C487,281.94,487,283.27,486.92,284.6Z"/><path class="cls-1" d="M1018.22,222.75a1.14,1.14,0,0,0-1.13-1.13H998a1.14,1.14,0,0,0-1.13,1.13v37c-3.53,0-7.64,0-12.43,0a44.51,44.51,0,0,0-20.31,4.71v-41.7a1.13,1.13,0,0,0-1.14-1.13H944a1.13,1.13,0,0,0-1.13,1.13v73.52a23.78,23.78,0,0,0,17.4,23A75.22,75.22,0,0,0,980.41,322c33.4,0,37.44-9.79,37.78-32.49a.53.53,0,0,0,0-.12V222.75Zm-21.34,61.86c-.06,2.14,0,4.28-.06,6.43,0,1.74-.09,3.47-.21,5.21-.11,1.42-.25,2.84-.48,4.25a23.5,23.5,0,0,1-.8,3.39,12.51,12.51,0,0,1-1.18,2.61,8.36,8.36,0,0,1-1.62,1.94,8.78,8.78,0,0,1-2.11,1.34,13.26,13.26,0,0,1-2.68.85,24.09,24.09,0,0,1-3.29.44c-1.31.1-2.64.13-4,.13h-.11c-15.25,0-16.3-9.67-16.3-17.11v-.85c0-21.48,13.63-23.1,24-23.1a10.83,10.83,0,0,1,4.64.87,6.49,6.49,0,0,1,2.69,2.34,9.69,9.69,0,0,1,1.25,3.36,22.26,22.26,0,0,1,.32,3.91C997,282,996.91,283.28,996.88,284.61Z"/><path class="cls-1" d="M1351.11,261.64c0-7.5.11-16.76-4.12-23.35-3-4.75-12.59-9.06-17.15-4.1-2.38,2.59-2.88,7.23-2.88,10.57v8.69a.93.93,0,0,1,0,.24c0,1.42,0,2.82,0,4.18v23.31c0,7.79-.2,18.19,5.07,24.61a14,14,0,0,0,12,4.62,7.24,7.24,0,0,0,6.1-5.19,25.3,25.3,0,0,0,1-6.33V285.08h0Z"/><path class="cls-1" d="M1424.07,287.55V247.34c0-.17,0-.35,0-.53V232.47A11.92,11.92,0,0,1,1436,220.56h15.56c5,0,9.33.24,13.16.64a154.44,154.44,0,1,0,0,100.76C1429.4,321.91,1424.07,313.31,1424.07,287.55ZM1247.54,360.8A14.84,14.84,0,1,1,1262.37,346,14.84,14.84,0,0,1,1247.54,360.8Zm44.69-30.67h0v11.6c0,14.7-8.31,18.22-22,19.06l-.47,0V346.59c0-.12,0-.24,0-.36s0-.2,0-.29v-.13h0V224.07a1.19,1.19,0,0,1,1.19-1.19h20a1.19,1.19,0,0,1,1.19,1.19Zm13.19-42.58V247.34c0-.17,0-.35,0-.53a0,0,0,0,1,0,0V232.47a11.91,11.91,0,0,1,11.91-11.91h15.57c34.38.19,39.78,8.76,39.84,34h0V255h0v40.21c0,10.41-4.29,26.79-26.32,26.79C1310.78,322,1305.42,313.39,1305.42,287.55Zm60.77,73.25A14.84,14.84,0,1,1,1381,346,14.84,14.84,0,0,1,1366.19,360.8Zm44.7-30.69h0v11.61c0,14.69-8.31,18.21-22,19l-.47,0V346.58c0-.13,0-.25,0-.37a2.81,2.81,0,0,0,0-.29v-.13h0V224.06a1.19,1.19,0,0,1,1.19-1.2h20a1.2,1.2,0,0,1,1.2,1.2Z"/><path class="cls-1" d="M1469.77,285.08V261.64c0-7.5.1-16.76-4.12-23.35-3.05-4.75-12.6-9.06-17.16-4.1-2.37,2.59-2.88,7.23-2.88,10.57v8.69a.93.93,0,0,1,0,.24c0,1.42,0,2.82,0,4.18v23.31c0,7.79-.19,18.19,5.07,24.61a14,14,0,0,0,12,4.62,7.27,7.27,0,0,0,6.1-5.19,25.29,25.29,0,0,0,1-6.33V285.08Z"/><path class="cls-1" d="M194.64,221.62a12.76,12.76,0,0,0-12.76,12.76v13.2a1.14,1.14,0,0,0,1.13,1.14h21.16a1.14,1.14,0,0,0,1.13-1.14v-26H194.64Z"/><path class="cls-1" d="M295.92,251.78c0-.27,0-.54,0-.81,0-.43,0-.87,0-1.28s0-.67,0-1,0-.69,0-1,0-.7,0-1.05l0-.88c0-.36,0-.71-.05-1.07s0-.51,0-.76l-.06-1.08c0-.22,0-.45,0-.67s-.06-.72-.1-1.08l-.06-.57-.12-1.09c0-.16-.05-.31-.07-.47-.05-.37-.11-.74-.17-1.11,0-.11,0-.22-.06-.34-.07-.39-.14-.77-.22-1.15l0-.12a20.31,20.31,0,0,0-2.2-6l0,0c-.19-.32-.39-.62-.6-.92l-.08-.13c-.2-.28-.42-.56-.64-.83l-.12-.14a10.16,10.16,0,0,0-.7-.76l-.14-.15c-.25-.24-.51-.48-.78-.71l-.15-.12c-.28-.23-.57-.46-.87-.68l-.12-.08c-.33-.23-.66-.45-1-.66l0,0a29.3,29.3,0,0,0-12.16-3.63c-11.91-1.1-26.15-1-36.47,5.14-.34.2-2.36,1.34-2.36,1.7V227a5.36,5.36,0,0,0-5.36-5.35H205.3v22.7c0-6.23,1.62-12,4.22-12,3.11,0,5.45,1.81,5.45,12v24.73a1.13,1.13,0,0,0,1.14,1.13h15.36a1.13,1.13,0,0,0,1.13-1.11V269c.1-7.6,1.17-9,2.86-9,2.11,0,3.71,2.33,3.71,15.5v16.47c.08,7.55.73,19.29-16.29,19.29-18.95,0-16.55-3.16-16.46-24.26a1.15,1.15,0,0,0-1.13-1.15H186.24A1.15,1.15,0,0,0,185.1,287c.09,24.73,3,35,37.81,35a77.2,77.2,0,0,0,20.17-2.37,23.81,23.81,0,0,0,17.43-23V257.47a5.35,5.35,0,0,0-5.36-5.35h-8.29c-.27,0,.18-3.94.22-4.24.5-4.39,2.48-8.95,6.14-11.63a21.53,21.53,0,0,1,8.5-3.57c2.9-.58,6.7-.78,9.18,1.14a6.4,6.4,0,0,1,.73.66c2.35,2.56,2.85,7.15,2.85,10.46v8.61a.8.8,0,0,0,0,.15V255c0,1,0,2,0,2.92v6.4h0v23c0,.38,0,.7,0,.81v30.16a1.14,1.14,0,0,0,1.13,1.13h19.15a1.13,1.13,0,0,0,1.13-1.13V251.78Z"/><path class="cls-1" d="M96.5,197.28a20.06,20.06,0,0,0,3.86,9.83c2.43,3,6,4.66,9.58,5.7a72,72,0,0,0,37.06.27c5.9-1.53,11.27-4.72,13.43-10.71a26.84,26.84,0,0,0,1.25-5.09c0-.35.11-.71.15-1.08a26.79,26.79,0,0,0,0-6.93c0-.37-.1-.73-.15-1.08a20.16,20.16,0,0,0-3.9-9.87c-2.44-3-6-4.65-9.62-5.67a62.69,62.69,0,0,0-9.63-1.73,79,79,0,0,0-10.2-.55c-1.63,0-3.26.08-4.89.2-5.42.36-11.23,1-16.31,3.05a16,16,0,0,0-8.1,6.67,22.58,22.58,0,0,0-2.53,7.9c-.06.35-.11.71-.16,1.08a27.71,27.71,0,0,0,0,6.93C96.39,196.57,96.44,196.93,96.5,197.28Zm19.7-6.23a13,13,0,1,1,14.58,14.58A13,13,0,0,1,116.2,191.05Z"/><path class="cls-1" d="M627.93,343.27a20.16,20.16,0,0,0-3.9-9.87c-2.44-3-6-4.65-9.62-5.67a62.69,62.69,0,0,0-9.63-1.73,79,79,0,0,0-10.2-.55c-1.63,0-3.26.09-4.89.2-5.42.36-11.23,1-16.32,3.05a16,16,0,0,0-8.09,6.67,22.58,22.58,0,0,0-2.53,7.9c-.06.35-.11.71-.16,1.08a26.87,26.87,0,0,0,0,6.94c0,.36.1.72.16,1.08a20.06,20.06,0,0,0,3.86,9.82c2.43,3,6,4.66,9.58,5.7a72,72,0,0,0,37.06.27c5.9-1.53,11.27-4.72,13.43-10.71a26.93,26.93,0,0,0,1.25-5.08c.05-.36.11-.72.15-1.08a26.87,26.87,0,0,0,0-6.94C628,344,628,343.62,627.93,343.27Zm-19.7,6.24a13,13,0,1,1-14.58-14.58A13,13,0,0,1,608.23,349.51Z"/><path class="cls-1" d="M822.66,197.33a20.25,20.25,0,0,0,3.87,9.83c2.42,3,6,4.66,9.58,5.69a71.86,71.86,0,0,0,37.06.27c5.89-1.53,11.27-4.72,13.43-10.7a27,27,0,0,0,1.24-5.09c.06-.35.11-.71.16-1.08a26.79,26.79,0,0,0,0-6.93c0-.37-.1-.73-.16-1.08-.55-3.52-1.59-7.08-3.89-9.87-2.44-3-6-4.65-9.62-5.68a64.27,64.27,0,0,0-9.64-1.73,77.14,77.14,0,0,0-10.19-.54c-1.63,0-3.27.08-4.9.19-5.42.37-11.23,1-16.31,3.06a16,16,0,0,0-8.09,6.67,22.6,22.6,0,0,0-2.54,7.9q-.07.52-.15,1.08a26.79,26.79,0,0,0,0,6.93Q822.58,196.81,822.66,197.33Zm19.7-6.24a13,13,0,1,1,14.58,14.58A13,13,0,0,1,842.36,191.09Z"/><path class="cls-1" d="M804,221.62H784.92a1.13,1.13,0,0,0-1.13,1.13v64.34c-.1,9.69-1.56,24.08-15.94,24.08-5.46,0-11-2.06-13.82-6.72a19.84,19.84,0,0,1-2.42-6.48c-.07-.33-.42-3.11-.56-4.89V291.6s0-.83,0-.83v-68a1.13,1.13,0,0,0-1.14-1.13H730.85a1.13,1.13,0,0,0-1.13,1.13v73.52a23.78,23.78,0,0,0,17.4,23A75.22,75.22,0,0,0,767.31,322c34,0,37.57-10.13,37.8-33.68h0V222.75A1.14,1.14,0,0,0,804,221.62Z"/><path class="cls-1" d="M891.82,221.62H872.76a1.14,1.14,0,0,0-1.14,1.13v64.34c-.09,9.69-1.55,24.08-15.94,24.08-5.46,0-11-2.06-13.82-6.72a20.07,20.07,0,0,1-2.42-6.48c-.06-.33-.41-3.11-.55-4.89V222.75a1.12,1.12,0,0,0-1.13-1.13H818.69a1.14,1.14,0,0,0-1.14,1.13v73.52a23.79,23.79,0,0,0,17.4,23,75.31,75.31,0,0,0,20.2,2.69c34,0,37.57-10.13,37.79-33.68h0V222.75A1.13,1.13,0,0,0,891.82,221.62Z"/><path class="cls-1" d="M150.4,362.83v-.06h0Z"/><path class="cls-1" d="M420.36,227a1.14,1.14,0,0,0-1.14-1.13H400.08A1.14,1.14,0,0,0,399,227v72.59a24.89,24.89,0,0,1-1,6.27,7.36,7.36,0,0,1-6,5.13c-4.17.83-9.25-1.39-11.85-4.57-4.49-5.51-5-8.14-5-15.31V251.89c0-1.14-.12-2.3-.17-3.48h0l-.07-.91h0c-1.35-19-8.93-26.39-39.19-26.56H321.13c-7.05,0-12.76,6.34-12.76,13.38v13.2a1.14,1.14,0,0,0,1.14,1.13h19.06a1.13,1.13,0,0,0,1.13-1.13v-2.64c0-3.31.5-7.9,2.86-10.46,4.51-4.91,14-.65,17,4.06,4.19,6.52,4.08,9.73,4.08,17.16v44a24.89,24.89,0,0,1-1,6.27,7.25,7.25,0,0,1-6,5.19,11.3,11.3,0,0,1-1.17.09c-18.09-.09-15.78-3.42-15.69-24.23a1.14,1.14,0,0,0-1.13-1.14H309.52a1.14,1.14,0,0,0-1.14,1.14c.09,24.62,3,34.93,37.37,35h2.58a36.17,36.17,0,0,0,6.89-.6,25.71,25.71,0,0,0,5.69-1.83,19.83,19.83,0,0,0,4.27-2.66C371,320.4,380.49,322,394.31,322c21.8,0,26.06-16.22,26.06-26.53V227Z"/><path class="cls-1" d="M717.27,288.25V253.94a12.78,12.78,0,0,0-12.78-12.78H676.77a1.24,1.24,0,0,1-1.43-1.19v-4.88a3.83,3.83,0,1,1,7.64,0,1.13,1.13,0,0,0,1.13,1.08h19.07a1.13,1.13,0,0,0,1.13-1.13V231.7a10.07,10.07,0,0,0-10.07-10.08H664.15a9.15,9.15,0,0,0-9.15,9.15v15.95a5.37,5.37,0,0,0,5.36,5.38c4.24,0,8.59,0,12.88,0h1c3.32,0,11-.07,14.35,0a9.6,9.6,0,0,1,6.82,3.11c2.41,2.41,2.55,3.89,2.55,7.44,0,.69,0,1.05,0,1.81v4.25s0,19.5,0,19.5c.12,16,.1,21.13-9.58,22.5,0,0,0-31.21,0-31.21v-9.2c0-5.85-4.73-10.09-10.58-10.37l-12.52-.22h-.29c-21.95.18-23.06,1.63-23.06,13.29v23.53a23.8,23.8,0,0,0,17.42,23,66,66,0,0,0,9.77,1.8v50.47a1.14,1.14,0,0,0,1.13,1.13h17a1.14,1.14,0,0,0,1.14-1.13V321.69C714.23,320,717.09,309.78,717.27,288.25Zm-48.21,22.28c-8.45-1.61-9.73-6.62-9.86-20.67h0c0-.94,0-1.92,0-2.94v-1.46c0-.63,0-1.26,0-1.9V273.18a2.14,2.14,0,0,1,1-1.94,7.93,7.93,0,0,1,3.62-.76h.39a8.35,8.35,0,0,1,3.42.57,2.16,2.16,0,0,1,1.39,2.13v7.18c0,.71,0,1.41,0,2.12Z"/><path class="cls-1" d="M694.63,212.76a1.14,1.14,0,0,0,1.17-1.13v-8.89a1.11,1.11,0,0,0-1.06-1.12,14.19,14.19,0,0,1-9.8-4.72c-3.64-4.43-4.67-10-5-16.07a1.13,1.13,0,0,0-1.13-1.09H661.26a1.14,1.14,0,0,0-1.13,1.16C660.48,203.66,664.3,212,694.63,212.76Z"/><path class="cls-1" d="M1138.19,179.61c-29,.7-33.59,8.35-34.42,28.84,0,1-.07,2-.08,3a1.14,1.14,0,0,0,1.13,1.16h17.59a1.13,1.13,0,0,0,1.13-1.09c0-.76.09-1.5.15-2.25.44-5.18,1.63-10,4.81-13.82a14.15,14.15,0,0,1,9.8-4.72,1.12,1.12,0,0,0,1.06-1.13v-8.86A1.14,1.14,0,0,0,1138.19,179.61Z"/></svg>